<svg width="127" height="126" viewBox="0 0 127 126" fill="none" xmlns="http://www.w3.org/2000/svg">
<g opacity="0.8">
<path d="M3.22182 133.042C21.3876 119.28 42.7254 104.463 66.7558 109.836C88.9801 114.657 104.546 132.511 122.935 144.587C129.447 146.62 135.884 148.959 142.144 151.578C139.054 147.474 136.015 143.166 133.077 138.883C123.08 129.088 112.072 120.338 100.33 112.81C98.6495 111.749 96.9687 110.688 95.2878 109.628C69.2803 112.291 47.1625 95.1983 28.8085 79.0314C28.375 78.6011 28.6236 77.152 29.284 77.0987C42.8755 76.6667 57.4859 76.917 70.0343 82.917C76.7796 86.1948 82.3123 91.3318 87.4647 96.699C93.1274 102.623 98.8901 108.141 105.11 113.554C105.11 113.554 105.11 113.554 105.187 113.681C113.362 119.037 121.083 124.928 128.221 131.431C125.487 127.198 122.854 122.991 120.373 118.604C101.499 105.869 83.1043 92.4976 75.3974 69.8882C68.8975 50.7044 69.9623 29.7137 77.5907 10.9851C77.6408 10.7816 78.0961 10.2464 78.3512 10.5249C79.0399 11.2337 79.7286 11.9426 80.4172 12.6514C80.7741 12.955 80.6255 13.9972 80.2719 14.5575C92.5386 33.542 115.161 42.8836 126.642 62.4299C131.526 70.6438 133.109 79.5559 131.975 88.9864C130.743 99.2557 127.3 109.305 127.746 119.771C127.696 119.974 127.748 120.203 127.647 120.61C145.738 147.931 158.316 161.706 158.903 162.39C160.383 164.265 158.198 170.955 155.85 168.22C152.15 163.965 148.577 159.634 145.029 155.201C136.631 151.624 128.108 148.556 119.485 145.895C99.9503 153.82 79.0936 161.418 57.6912 158.958C48.0322 157.876 39.229 154.631 30.978 149.58C21.9633 144.126 13.5541 137.526 3.12817 135.177C2.39107 135.103 2.81653 133.374 3.22182 133.042ZM92.7415 108.138C90.4753 106.825 88.2091 105.513 85.8161 104.277C81.2636 103.049 76.8725 104.234 72.3514 104.632C78.8133 106.869 85.6272 108.114 92.7415 108.138ZM70.0618 103.853C74.5562 103.125 79.5326 102.191 84.0085 103.293C82.3793 102.46 80.6484 101.603 79.0192 100.77C76.7029 99.6611 74.3616 98.6536 71.8936 97.7227C66.2253 97.0833 60.4351 97.8164 55.0187 96.5917C59.8312 99.394 64.8206 101.916 70.0618 103.853ZM53.4396 95.5559C58.8309 96.8823 64.5194 96.1242 70.0359 96.9421C68.8653 96.4383 67.5679 96.0112 66.3973 95.5074C61.1875 95.1966 55.9261 94.6573 50.7398 93.8129C51.5552 94.445 52.4974 95.0005 53.4396 95.5559ZM31.5785 79.1735C35.0452 82.1841 38.5369 85.0929 42.2822 87.8483C44.6719 88.2205 47.11 87.9573 49.4481 88.101C47.0051 87.0684 44.6121 85.8324 42.3209 84.6214C38.8591 82.9066 35.1437 81.3452 32.0354 79.0702C31.807 79.1219 31.7053 79.0968 31.5785 79.1735ZM32.5691 79.0936C35.5708 80.0479 38.3206 81.5874 41.1204 82.9236C43.5384 84.0579 45.9814 85.0904 48.3493 86.4282C46.2316 84.0732 44.3675 81.5648 42.4783 79.1581C39.1497 79.0944 35.796 79.1323 32.5691 79.0936ZM43.4439 79.1799C43.2154 79.2316 42.9103 79.1565 42.6818 79.2082C44.4676 81.1579 46.3552 83.1327 48.2177 85.2091C46.7104 83.0043 45.4316 80.7478 43.4439 79.1799ZM45.1716 79.1735C48.1281 81.627 50.127 86.2183 52.6516 88.6734C52.6516 88.6734 52.6516 88.6734 52.7283 88.8001L52.83 88.8252C52.9317 88.8502 52.9067 88.9519 52.805 88.9269C52.805 88.9269 52.805 88.9269 52.7032 88.9019C52.7549 89.1303 52.5781 89.4105 52.3747 89.3604C52.0945 89.1836 51.9161 89.0318 51.636 88.855C51.5342 88.83 51.4325 88.805 51.3308 88.7799C51.4325 88.805 51.4075 88.9067 51.5092 88.9317C51.5859 89.0585 51.4858 89.4654 51.3841 89.4403C51.1039 89.2635 50.9505 89.01 50.6704 88.8332C48.2056 88.7662 45.6407 89.1061 43.1743 88.6072C45.4421 90.3518 47.7599 91.893 50.0528 93.536C55.2892 94.177 60.5255 94.818 65.7869 95.3573C62.1483 93.9226 58.5096 92.488 55.0478 90.7732C54.946 90.7482 54.9961 90.5448 55.0978 90.5698C59.979 91.3392 64.8133 93.1759 69.6226 95.1142C64.8803 90.7111 61.7074 84.7521 56.7116 80.5023C52.9228 79.678 49.1106 79.3874 45.1716 79.1735ZM58.6945 80.7744C58.0841 80.6242 57.5505 80.6008 56.9401 80.4507C62.3678 84.6988 65.6941 90.9113 70.7932 95.618C71.0984 95.6931 71.2768 95.8449 71.582 95.92C66.6613 91.365 64.5509 84.1571 58.6945 80.7744ZM69.6589 84.4429C66.7573 83.0817 63.8824 82.0508 60.8307 81.3C65.8999 84.8127 68.1387 92.3758 72.8293 96.5505C74.7637 97.4579 76.6981 98.3654 78.6575 99.1711C80.21 99.8767 81.6608 100.557 83.1882 101.365C78.823 95.8675 76.3073 88.9914 70.4226 84.8466C70.2442 84.6948 69.9641 84.518 69.6589 84.4429ZM83.0591 93.9968C84.3112 95.9231 85.4367 97.9261 86.2836 100.184L86.2335 100.388C85.2082 97.9778 83.9294 95.7213 82.4221 93.5165C79.1588 90.556 75.7438 87.7739 71.7467 85.6038C77.1227 89.6235 79.7135 96.1944 83.6468 101.693C85.1743 102.501 86.7268 103.206 88.2543 104.013C86.7938 100.741 85.1816 97.6476 83.4425 94.6306C83.4159 94.3004 83.2375 94.1486 83.0591 93.9968ZM88.0831 99.0088C86.8842 97.7429 85.5836 96.4519 84.3597 95.2878C86.1487 98.1013 87.6843 101.068 88.8646 104.164C91.2576 105.4 93.6255 106.737 95.9934 108.075C96.0951 108.1 96.0951 108.1 96.2219 108.023C96.3236 108.048 96.4003 108.175 96.477 108.302C97.3174 108.832 98.0812 109.236 98.8199 109.741C94.8696 106.504 91.4497 102.426 88.0831 99.0088ZM81.6066 79.2913C85.5117 84.0279 90.0724 87.4154 96.179 89.7809C99.2324 90.9637 103.173 91.6095 106.456 93.1725C106.15 92.6655 105.868 92.0568 105.688 91.4731C96.4043 88.8654 87.5712 84.4267 80.7113 77.6685C81.0181 78.1755 81.2998 78.7843 81.6066 79.2913ZM77.5869 71.0742C78.3821 73.1039 79.2274 74.93 80.2761 76.8063C88.0217 82.5957 95.9675 87.5712 105.176 90.4841C102.513 85.0822 100.054 79.7304 97.6201 74.2769C90.8401 68.5093 78.0043 67.1853 74.1129 59.3235C74.8645 63.2842 76.0481 67.2434 77.5869 71.0742ZM74.657 41.7647C73.8399 40.7007 73.1747 39.4582 72.7129 38.2658C72.3537 44.1109 72.5531 49.8777 73.4129 55.5912C77.1339 65.4608 89.1544 66.1527 96.7231 72.2222C94.9543 68.0111 93.1854 63.8001 91.5182 59.6141C90.7997 57.7112 89.9794 55.7833 89.2609 53.8804C84.7721 49.3238 78.487 46.8065 74.657 41.7647ZM78.0057 13.2448C75.415 20.267 73.613 27.5912 72.8784 34.9621C74.2549 42.9604 82.648 45.2411 88.0039 50.6583C84.0261 40.0782 80.3268 29.243 77.8467 18.2761C77.8717 18.1744 77.9218 17.971 77.9985 18.0977C81.3861 27.1302 84.4435 36.1893 87.8561 45.12C87.58 39.2264 89.0816 33.123 87.408 27.2093C83.7846 23.0814 80.6683 18.6467 78.3626 13.5484C78.2859 13.4216 78.1841 13.3966 78.0057 13.2448ZM88.3267 28.2984C90.1287 34.5673 88.7587 41.8898 89.0881 48.4438C90.1651 51.0821 91.2421 53.7205 92.3191 56.3589C93.6778 59.606 95.1383 62.8781 96.6238 66.0485C97.0727 63.7855 98.0802 61.4443 99.1911 59.5599C101.109 56.1481 103.409 52.9382 103.852 48.9475C104.071 46.3043 103.527 43.6893 102.477 41.3812C97.4811 37.1314 92.6637 33.0334 88.3267 28.2984ZM103.267 42.115C104.164 44.1697 104.554 46.5312 104.385 48.9709C103.828 56.0617 98.1553 61.1391 97.6225 68.1282C101.285 76.0417 105.278 83.9285 109.575 91.4585C109.201 86.4038 110.172 81.1408 111.653 76.4348C114.164 68.422 118.024 61.0648 115.071 52.8945C111.475 49.0968 107.371 45.6059 103.267 42.115ZM115.785 53.5017C117.529 57.8144 116.836 62.8223 115.557 67.1464C114.479 71.0886 112.791 74.8807 111.815 78.8479C111.439 80.3738 111.166 81.9247 110.994 83.5006C111.446 82.1015 111.898 80.7024 112.325 79.405C115.368 70.9837 119.731 62.4558 116.627 54.464C116.397 54.0837 116.142 53.8052 115.785 53.5017ZM129.176 94.6628C131.369 83.1195 130.161 72.6815 123.417 62.8231C121.91 60.6183 120.25 58.5919 118.566 56.6672C119.165 60.3745 118.545 64.6453 117.946 67.5186C116.897 72.2229 114.88 76.4736 113.322 81.0528C111.587 85.9121 111.07 90.208 111.596 95.0843C113.743 98.6333 115.789 102.157 117.783 105.453C119.868 92.1568 131.359 80.528 125.438 66.4489C125.438 66.4489 125.463 66.3471 125.438 66.4489C128.254 72.1042 127.693 78.3312 126.012 84.2829C123.755 92.1423 120.224 99.041 118.602 106.949C121.005 110.776 123.254 114.35 125.426 117.798C125.676 109.768 127.756 102.189 129.176 94.6628ZM116.87 112.672C114.031 107.55 111.293 102.454 108.581 97.2552C108.274 96.7482 108.069 96.2662 107.787 95.6575C105.471 94.5482 102.878 94.126 100.359 93.3986C97.4595 92.4693 94.6346 91.2349 91.9615 89.8221C89.6703 88.6111 87.4792 86.9932 85.5166 85.3236C93.6634 96.4979 104.977 105.323 116.87 112.672ZM38.4466 115.278C33.6002 116.998 28.8321 119.277 24.2173 121.81C29.8792 120.721 36.2361 122.07 41.4774 124.006C46.3117 125.843 50.8941 128.265 55.5767 130.28C58.5033 131.54 61.53 132.392 64.48 133.118C68.1905 133.384 71.7492 133.828 75.4097 134.297C61.8723 128.808 51.6893 116.702 36.0117 116.405C43.3528 115.945 50.1215 118.689 56.4865 122.197C61.6042 125.074 66.5451 128.232 71.5611 131.084C68.2494 128.759 65.0128 126.129 61.8278 123.727C57.624 120.643 53.1667 117.712 48.1556 116.156C44.8488 115.127 41.7486 115.011 38.4466 115.278ZM42.9895 113.914C48.7078 114.35 54.4859 117.174 58.9432 120.105C66.5588 125.107 73.0353 131.231 81.0529 135.038C84.078 135.458 87.0781 135.981 90.0781 136.503C92.1377 136.902 94.1972 137.301 96.2567 137.699C82.863 129.873 73.1539 115.402 57.7952 112.055C52.7639 111.896 47.8375 112.625 42.9895 113.914ZM117.924 143.03C101.244 132.777 86.8334 118.12 67.5058 113.365C65.7765 112.939 64.1239 112.641 62.4462 112.444C75.827 116.815 86.0431 130.979 98.1127 138.048C104.775 139.472 111.387 141.098 117.924 143.03ZM115.619 144.944C112.287 144.017 108.955 143.089 105.497 142.238C99.2842 145.565 93.255 150.338 86.7374 153.589C96.5619 151.368 106.205 148.13 115.619 144.944ZM57.0695 155.784C65.4827 156.667 73.8395 156.026 82.0912 154.496C89.7779 151.317 96.3875 145.499 103.996 141.761C100.537 140.91 97.1553 140.186 93.6716 139.437C86.1836 141.37 79.6426 145.155 72.8731 148.992C67.9798 151.779 62.6546 154.569 56.9678 155.759C56.9678 155.759 56.9678 155.759 57.0695 155.784ZM54.3496 155.438C61.8142 154.038 68.3568 150.686 75.0496 146.722C80.2214 143.679 85.6217 140.585 91.4853 139.115C90.875 138.965 90.2396 138.916 89.6293 138.766C89.4258 138.716 89.2224 138.666 89.0189 138.616C85.3633 139.443 81.8861 140.421 78.4122 142.263C73.9743 144.516 69.7931 147.479 65.5086 149.985C61.2491 152.389 56.6578 154.388 51.8582 155.041C52.697 155.14 53.5108 155.34 54.3496 155.438ZM49.315 154.415C56.2242 153.958 62.6902 150.478 68.6475 146.873C73.7175 143.805 79.4698 139.719 85.4852 138.07C78.8497 136.977 72.1392 136.189 65.5053 135.528C56.1063 136.02 48.5779 140.749 39.6706 143.628C36.1434 144.81 32.3343 145.383 28.7256 145.142C35.3473 149.361 42.0159 152.512 49.315 154.415ZM27.58 144.537C37.9259 145.896 48.7951 137.674 59.4567 135.119C58.3894 135.072 57.3221 135.025 56.2548 134.978C50.6963 136.523 45.4196 138.677 40.0411 140.806C35.7534 142.448 31.414 143.862 26.8162 144.133C27.1214 144.208 27.2998 144.36 27.58 144.537ZM26.0008 143.501C35.6032 143.059 43.7872 136.981 52.7478 134.763C41.7446 134.321 30.8214 134.87 19.8965 134.987C19.7948 134.962 19.7932 134.53 19.8949 134.555C31.9557 132.452 44.4799 131.973 56.8305 132.638C52.0462 130.598 47.4121 127.948 43.0097 126.11C35.0954 122.76 27.2909 121.595 19.4508 124.521C14.761 127.359 10.1229 130.425 5.78995 133.566C13.1908 135.495 19.6341 139.561 26.0008 143.501Z" fill="white"/>
<path d="M101.88 51.6993C102.656 48.5458 102.898 45.369 101.947 42.222C101.947 42.222 101.972 42.1202 101.947 42.222C103.025 45.2923 103.14 48.7727 101.957 51.826C101.907 52.0295 101.855 51.801 101.88 51.6993Z" fill="white"/>
<path d="M100.296 55.9482C100.446 55.3379 100.698 54.7525 100.924 54.2689C100.949 54.1672 101.026 54.294 101.001 54.3957C100.851 55.006 100.701 55.6164 100.551 56.2267C100.374 56.5069 100.246 56.1517 100.296 55.9482Z" fill="white"/>
<path d="M74.8687 57.5676C78.2086 60.6548 81.9022 63.1818 85.9243 65.2502C86.026 65.2752 85.9259 65.6821 85.8492 65.5553C81.5986 63.5386 78.0068 61.0367 74.8687 57.5676C74.7419 57.6443 74.7669 57.5426 74.8687 57.5676Z" fill="white"/>
<path d="M87.5532 66.082C88.8256 66.6108 89.9962 67.1146 91.2436 67.7451C91.3453 67.7702 91.2702 68.0753 91.1685 68.0503C89.8961 67.5215 88.7755 66.8143 87.5532 66.082C87.5282 66.1838 87.5532 66.082 87.5532 66.082Z" fill="white"/>
<path d="M93.5067 68.1946C94.0153 68.3197 94.4222 68.4198 94.8041 68.6216C95.0075 68.6717 94.8323 69.3837 94.6539 69.232C94.1703 69.0051 93.8135 68.7016 93.4566 68.398C93.3549 68.373 93.405 68.1695 93.5067 68.1946Z" fill="white"/>
<path d="M81.7736 76.4189C85.2371 78.5656 88.7756 80.4072 92.4159 82.2737C92.5176 82.2987 92.4676 82.5022 92.3658 82.4772C88.5488 80.8908 85.0603 78.8458 81.7736 76.4189Z" fill="white"/>
<path d="M113.674 66.4678C114.545 61.6117 114.502 56.9622 113.417 52.1642L113.442 52.0625C114.781 56.7071 114.952 61.7118 113.674 66.4678C113.726 66.6963 113.649 66.5695 113.674 66.4678Z" fill="white"/>
<path d="M80.5102 30.6907C80.5102 30.6907 80.637 30.614 80.5102 30.6907C81.337 34.3463 82.4172 37.8485 83.5991 41.3758C83.6758 41.5025 83.499 41.7827 83.4474 41.5542C82.0119 38.1804 81.0835 34.4997 80.5102 30.6907Z" fill="white"/>
<path d="M75.3793 37.9505C75.3793 37.9505 75.4044 37.8488 75.3793 37.9505C77.4453 40.077 79.6615 41.5932 82.031 43.3628C82.1327 43.3879 82.0576 43.693 81.9559 43.668C79.3095 42.5854 77.0651 40.3071 75.3793 37.9505Z" fill="white"/>
<path d="M86.9906 31.0978C86.8356 30.4124 86.7823 29.752 86.6273 29.0666L86.6523 28.9648C86.8073 29.6503 86.8856 30.2089 87.0406 30.8944C87.0923 31.1228 87.0423 31.3263 86.9906 31.0978Z" fill="white"/>
<path d="M103.007 101.493C103.77 101.897 104.559 102.199 105.425 102.627C105.526 102.652 105.374 102.831 105.399 102.729C104.636 102.326 103.847 102.024 102.982 101.595L103.007 101.493Z" fill="white"/>
<path d="M124.751 73.184C124.62 71.9649 124.615 70.6691 124.61 69.3733C124.61 69.3733 124.635 69.2716 124.61 69.3733C124.742 70.5924 124.848 71.9132 124.853 73.209C124.878 73.1073 124.828 73.3107 124.751 73.184Z" fill="white"/>
<path d="M73.996 89.1777C74.813 90.2418 75.6301 91.3059 76.3454 92.3449L76.2953 92.5483C75.4783 91.4843 74.788 90.3435 73.996 89.1777Z" fill="white"/>
<path d="M78.3643 95.5384L78.4143 95.335C78.6444 95.7152 78.9512 96.2222 79.1813 96.6025C79.258 96.7292 79.1062 96.9077 79.0045 96.8826C78.7994 96.4006 78.5943 95.9187 78.3643 95.5384Z" fill="white"/>
<path d="M64.3134 115.816C68.7925 117.781 72.9697 120.535 76.3879 124.181C76.4897 124.206 76.4146 124.511 76.3129 124.486C72.6161 121.096 68.7941 118.213 64.3134 115.816Z" fill="white"/>
<path d="M78.0188 125.445C78.0188 125.445 78.0689 125.241 78.0439 125.343C78.7075 126.153 79.5229 126.786 80.4651 127.341C80.6685 127.391 80.5434 127.9 80.3399 127.85C79.3211 127.168 78.5557 126.332 78.0188 125.445Z" fill="white"/>
<path d="M25.3461 124.677C31.9267 124.677 38.5121 125.974 44.4186 129.153C44.5203 129.178 44.4453 129.483 44.3435 129.458C38.1601 126.966 32.03 125.134 25.3461 124.677C25.3211 124.778 25.3461 124.677 25.3461 124.677Z" fill="white"/>
<path d="M21.1567 125.48C21.2584 125.505 21.4619 125.555 21.5886 125.478C21.6904 125.503 21.6153 125.809 21.5136 125.784L21.0816 125.785C21.0816 125.785 21.03 125.557 21.1567 125.48Z" fill="white"/>
<path d="M82.6902 124.437C87.711 128.585 92.8069 132.428 97.8277 136.576C97.9294 136.601 97.8293 137.008 97.7526 136.881C92.6051 132.81 87.711 128.585 82.6902 124.437C82.5634 124.513 82.5884 124.412 82.6902 124.437Z" fill="white"/>
</g>
</svg>
