<svg width="19" height="19" viewBox="0 0 19 19" fill="none" xmlns="http://www.w3.org/2000/svg">
<path d="M0 7.5C0 5.29086 1.79086 3.5 4 3.5H11C13.2091 3.5 15 5.29086 15 7.5V14.5C15 16.7091 13.2091 18.5 11 18.5H4C1.79086 18.5 0 16.7091 0 14.5V7.5Z" fill="#396ACA"/>
<g clip-path="url(#clip0)">
<path d="M18.7511 2.50673C18.4191 2.17476 17.881 2.17476 17.549 2.50673L7.36544 12.6904L3.45106 8.77597C3.11913 8.44401 2.58097 8.44404 2.24897 8.77597C1.91701 9.10791 1.91701 9.64606 2.24897 9.97803L6.7644 14.4934C7.09623 14.8253 7.63479 14.8251 7.96649 14.4934L18.7511 3.70881C19.083 3.37688 19.083 2.83869 18.7511 2.50673Z" fill="#F1F3F8"/>
</g>
<defs>
<clipPath id="clip0">
<rect x="2" width="17" height="17" fill="white"/>
</clipPath>
</defs>
</svg>
