<svg width="110" height="110" viewBox="0 0 110 110" fill="none" xmlns="http://www.w3.org/2000/svg">
<rect width="110" height="110" rx="8" fill="#396ACA"/>
<g clip-path="url(#clip0)">
<path d="M73.5206 75.4741C73.3448 74.144 72.577 72.9972 71.4141 72.3277L58.2784 64.7646C56.6055 63.8016 54.4838 64.082 53.1188 65.447L49.7198 68.846C49.0519 69.514 47.9911 69.5681 47.2527 68.9719C45.2477 67.3531 43.2728 65.5742 41.3828 63.6843C39.493 61.7944 37.7139 59.8194 36.0952 57.8144C35.499 57.0759 35.5532 56.0153 36.2213 55.3473L39.6203 51.9484C40.9851 50.5834 41.2657 48.4616 40.3026 46.7889L32.7398 33.6531C32.0702 32.4904 30.9234 31.7226 29.5932 31.5465C28.2639 31.371 26.956 31.8136 26.007 32.7625L22.1084 36.6611C16.5432 42.2263 22.3519 56.7537 35.3325 69.7345C44.98 79.3819 55.4805 85.0678 62.5224 85.067C64.9553 85.0667 66.977 84.3876 68.4058 82.9586L72.3045 79.06C73.2532 78.1114 73.6966 76.8042 73.5206 75.4741ZM70.8543 77.6096L70.3343 78.1297L59.0878 71.7112C58.5961 71.4306 57.9696 71.6015 57.6887 72.0935C57.4079 72.5854 57.5791 73.2117 58.0711 73.4925L68.8309 79.6332L66.9555 81.5083C64.843 83.6209 60.4864 83.5174 55.0039 81.2246C49.1513 78.7772 42.6804 74.1816 36.7831 68.2842C30.8856 62.3868 26.29 55.9158 23.8425 50.0634C21.5496 44.5804 21.4464 40.2242 23.559 38.1116L25.5611 36.1095L26.2717 37.3438C26.4616 37.6733 26.8067 37.8578 27.1615 37.8578C27.3351 37.8578 27.5111 37.8137 27.6723 37.7209C28.1632 37.4383 28.3319 36.8113 28.0493 36.3203L27.0631 34.6075L27.4575 34.2131C27.8805 33.7902 28.4398 33.5604 29.0265 33.5604C29.1252 33.5604 29.2246 33.5668 29.3242 33.5801C30.0166 33.6715 30.6138 34.0713 30.9621 34.6765L38.5253 47.8122C39.0268 48.683 38.8806 49.7875 38.1699 50.4979L36.9276 51.7404L30.2411 40.1268C29.9585 39.6359 29.3314 39.4672 28.8405 39.7499C28.3496 40.0324 28.1809 40.6595 28.4635 41.1504L35.4257 53.2425L34.7711 53.8971C33.3596 55.3085 33.2429 57.5466 34.4995 59.1031C36.1636 61.1646 37.9915 63.194 39.9327 65.1352C41.8738 67.0763 43.9031 68.9042 45.9646 70.5682C47.521 71.8248 49.7592 71.7082 51.1705 70.2967L51.643 69.8242L54.1749 71.2692C54.3353 71.3606 54.5099 71.4043 54.6824 71.4043C55.0386 71.4043 55.3849 71.2185 55.5741 70.8868C55.8549 70.3949 55.6838 69.7686 55.1918 69.4877L53.1467 68.3206L54.5696 66.8976C55.28 66.1871 56.3843 66.0409 57.2555 66.5424L70.3911 74.1054C70.9965 74.4539 71.3962 75.051 71.4878 75.7433C71.5791 76.4355 71.3483 77.116 70.8543 77.6096Z" fill="white"/>
<path d="M79.4297 36.2604C78.8738 33.592 76.7073 31.4256 74.0388 30.8694C71.9108 30.4259 69.7409 30.9442 68.0845 32.291C66.428 33.638 65.4778 35.6338 65.4778 37.7669C65.4778 38.3333 65.9369 38.7924 66.5033 38.7924C67.0699 38.7924 67.5288 38.3332 67.5288 37.7669C67.5288 36.2541 68.203 34.8382 69.3782 33.8824C70.5533 32.9269 72.0991 32.5605 73.6201 32.8774C75.5017 33.2696 77.0293 34.7972 77.4215 36.6789C77.9692 39.3067 76.4646 41.8415 73.9218 42.5749C72.4772 42.9914 71.5065 44.2428 71.5065 45.6888C71.5065 46.2552 71.9656 46.7143 72.5321 46.7143C73.0985 46.7143 73.5576 46.2551 73.5576 45.6888C73.5576 45.1658 73.9322 44.7064 74.49 44.5458C78.0752 43.5118 80.1986 39.95 79.4297 36.2604Z" fill="white"/>
<path d="M72.5434 48.5938H72.5325C71.9659 48.5938 71.5125 49.053 71.5125 49.6193C71.5125 50.1856 71.977 50.6448 72.5434 50.6448C73.11 50.6448 73.569 50.1856 73.569 49.6193C73.569 49.053 73.1097 48.5938 72.5434 48.5938Z" fill="white"/>
<path d="M85.686 24.9326H59.3786C56.9998 24.9326 55.0647 26.8677 55.0647 29.2465V52.2656C55.0647 54.6443 56.9998 56.5795 59.3786 56.5795H63.8338V61.9038C63.8338 62.5426 64.2151 63.1132 64.8052 63.3577C65.0011 63.4388 65.2061 63.4781 65.409 63.4781C65.8178 63.4781 66.2183 63.3183 66.5201 63.0164L72.9569 56.5795H85.6859C88.0646 56.5796 90 54.6443 90 52.2656V29.2465C90 26.8677 88.0648 24.9326 85.686 24.9326ZM87.949 52.2656C87.949 53.5134 86.9338 54.5284 85.686 54.5284H72.5323C72.2604 54.5284 71.9995 54.6364 71.807 54.8288L65.8849 60.751V55.5539C65.8849 54.9875 65.4258 54.5284 64.8594 54.5284H59.3786C58.1308 54.5284 57.1158 53.5134 57.1158 52.2656V29.2465C57.1158 27.9987 58.1308 26.9837 59.3786 26.9837H85.686C86.9338 26.9837 87.949 27.9987 87.949 29.2465V52.2656Z" fill="white"/>
</g>
<defs>
<clipPath id="clip0">
<rect x="20" y="20" width="70" height="70" fill="white"/>
</clipPath>
</defs>
</svg>
