<svg width="110" height="110" viewBox="0 0 110 110" fill="none" xmlns="http://www.w3.org/2000/svg">
<rect width="110" height="110" rx="8" fill="#396ACA"/>
<path d="M72.7742 66.4854H65.5959V62.2018C69.7491 59.0127 72.432 53.9991 72.432 48.37V45.2933H74.1409C74.7074 45.2933 75.1663 44.8343 75.1663 44.2679C75.1663 43.2664 74.1776 42.1712 72.432 41.173V37.432C72.432 27.8199 64.6121 20 55 20C45.3879 20 37.5681 27.8199 37.5681 37.4318V41.1729C35.8225 42.171 34.8338 43.2663 34.8338 44.2678C34.8338 44.8342 35.2927 45.2931 35.8592 45.2931H37.5681V48.3698C37.5681 53.9991 40.251 59.0125 44.4043 62.2018V66.4853H37.2259C32.891 66.4853 29.3645 70.0118 29.3645 74.3467C29.3645 74.3495 29.3649 74.3519 29.3649 74.3548V79.8154C29.3649 80.3815 29.8241 80.8408 30.3903 80.8408C30.9549 80.8408 31.4157 80.3815 31.4157 79.8154V74.3466C31.4157 74.3448 31.4154 74.3432 31.4154 74.3414C31.4183 71.14 34.0237 68.5362 37.2259 68.5362H45.1192L48.9622 71.0983C48.977 71.1081 48.993 71.1151 49.008 71.124C49.0283 71.1362 49.0484 71.1481 49.0693 71.1586C49.0983 71.1732 49.1277 71.1855 49.1575 71.1973C49.177 71.2049 49.1959 71.213 49.216 71.2196C49.2499 71.2305 49.2841 71.2384 49.3185 71.2457C49.3362 71.2494 49.3534 71.2544 49.3713 71.2573C49.4208 71.2651 49.4706 71.2693 49.5202 71.2699C49.5236 71.2699 49.5269 71.2707 49.5303 71.2707C49.5857 71.2707 49.6416 71.2644 49.6979 71.2551C49.7246 71.2507 49.7514 71.2468 49.7776 71.2403C49.7784 71.2402 49.7791 71.2401 49.78 71.2399L55.0001 69.935L60.2204 71.2399C60.2213 71.2401 60.2221 71.2402 60.2228 71.2403C60.2497 71.247 60.277 71.251 60.3047 71.2555C60.36 71.2645 60.4154 71.2707 60.4701 71.2707C60.4735 71.2707 60.4769 71.2699 60.4802 71.2699C60.5298 71.2693 60.5796 71.2651 60.6291 71.2573C60.647 71.2544 60.6642 71.2494 60.6819 71.2457C60.7163 71.2383 60.7506 71.2305 60.7844 71.2196C60.8044 71.213 60.8234 71.2049 60.8429 71.1973C60.8727 71.1855 60.9021 71.1732 60.9311 71.1586C60.952 71.1481 60.9722 71.1362 60.9923 71.124C61.0075 71.1151 61.0234 71.1081 61.0381 71.0983L64.8812 68.5362H72.7743C75.9783 68.5362 78.585 71.1427 78.585 74.3469V87.9487H72.4322V80.6343C72.4322 80.6002 72.4305 80.566 72.4272 80.5321C72.4257 80.5182 72.4231 80.5048 72.4212 80.491C72.4186 80.4716 72.4161 80.4521 72.4124 80.4329C72.4093 80.4165 72.4046 80.4007 72.4007 80.3846C72.3966 80.3682 72.3929 80.3519 72.3879 80.3357C72.3832 80.3198 72.3771 80.3044 72.3715 80.2886C72.3659 80.2728 72.3606 80.2568 72.3542 80.2411C72.348 80.2264 72.3408 80.2122 72.3341 80.198C72.3266 80.182 72.3195 80.1659 72.311 80.15C72.3037 80.1365 72.2955 80.1237 72.2876 80.1105C72.2784 80.095 72.2694 80.0792 72.2593 80.064C72.25 80.0498 72.2393 80.0365 72.2291 80.0229C72.2194 80.0096 72.2101 79.9962 72.1995 79.9833C72.1816 79.9615 72.1625 79.9408 72.1427 79.9204C72.139 79.9166 72.1357 79.9122 72.1319 79.9084L68.0303 75.8069C68.0268 75.8033 68.0227 75.8002 68.019 75.7966C67.9985 75.7768 67.9774 75.7572 67.9553 75.7391C67.9432 75.7294 67.9307 75.7207 67.9184 75.7116C67.9039 75.7006 67.8895 75.6894 67.8745 75.6793C67.8603 75.6699 67.8456 75.6617 67.8313 75.6531C67.817 75.6444 67.803 75.6356 67.7883 75.6276C67.7741 75.62 67.7592 75.6136 67.7447 75.6066C67.729 75.5991 67.7134 75.5914 67.6971 75.5846C67.6832 75.5788 67.6691 75.5743 67.655 75.5693C67.6375 75.563 67.6202 75.5563 67.6023 75.5508C67.5886 75.5467 67.5748 75.5437 67.5608 75.5401C67.5422 75.5355 67.5239 75.5303 67.5049 75.5265C67.4897 75.5236 67.4744 75.5218 67.4593 75.5195C67.4413 75.5168 67.4237 75.5135 67.4057 75.5117C67.3804 75.5092 67.3551 75.5086 67.3295 75.5079C67.3213 75.5077 67.3134 75.5066 67.3052 75.5066H42.6951C42.6908 75.5066 42.6866 75.5072 42.6824 75.5073C42.653 75.5077 42.6236 75.5088 42.5942 75.5117C42.5772 75.5133 42.5607 75.5165 42.5439 75.5189C42.5277 75.5214 42.5113 75.5232 42.4952 75.5265C42.4766 75.5302 42.4586 75.5352 42.4404 75.5399C42.4261 75.5436 42.4119 75.5466 42.398 75.5508C42.3801 75.5563 42.3627 75.5628 42.3452 75.5693C42.3313 75.5743 42.317 75.5788 42.3032 75.5846C42.2866 75.5915 42.2707 75.5995 42.2546 75.6073C42.2403 75.614 42.2261 75.6203 42.2123 75.6275C42.1965 75.636 42.1812 75.6457 42.1658 75.6548C42.1526 75.6629 42.1392 75.6703 42.1262 75.679C42.1087 75.6907 42.0921 75.7037 42.0753 75.7164C42.0655 75.7239 42.0551 75.7306 42.0455 75.7386C42.019 75.7604 41.9934 75.7834 41.9691 75.8077L37.8692 79.9079C37.8449 79.9322 37.8219 79.9575 37.8002 79.9842C37.7914 79.9948 37.7839 80.0062 37.7755 80.0171C37.7636 80.0327 37.7515 80.0483 37.7405 80.0647C37.7312 80.0788 37.723 80.0933 37.7146 80.1078C37.706 80.1218 37.6969 80.1359 37.6891 80.1507C37.6811 80.1656 37.6744 80.1812 37.6671 80.1966C37.66 80.2114 37.6526 80.2262 37.6463 80.2413C37.6401 80.2566 37.6349 80.2724 37.6293 80.2879C37.6235 80.3038 37.6174 80.3197 37.6126 80.3361C37.6078 80.3518 37.6042 80.3678 37.6003 80.3839C37.596 80.4003 37.5915 80.4165 37.5881 80.4333C37.5844 80.4519 37.5822 80.4706 37.5795 80.4893C37.5774 80.5037 37.5747 80.5179 37.5732 80.5324C37.5699 80.5662 37.5681 80.6001 37.5681 80.6341V87.9488H31.4157V83.9171C31.4157 83.3525 30.9549 82.8917 30.3903 82.8917C29.8241 82.8917 29.3649 83.3525 29.3649 83.9171V88.9663C29.3649 88.969 29.3645 88.9716 29.3645 88.9743C29.3645 89.4392 29.6739 89.8313 30.0979 89.9571C30.1906 89.9847 30.2886 90 30.3903 90C30.3921 90 30.3937 89.9997 30.3955 89.9997H79.6049C79.6068 89.9997 79.6084 90 79.6102 90C80.1766 90 80.6356 89.541 80.6356 88.9746V74.3469C80.6355 70.0121 77.109 66.4854 72.7742 66.4854ZM39.6191 37.4318C39.6191 28.9508 46.5191 22.0508 55 22.0508C63.4809 22.0508 70.3811 28.9508 70.3811 37.4318V40.1892C70.2785 40.1473 70.1746 40.1061 70.0692 40.065C67.3812 39.0197 62.5848 37.7736 55 37.7736C47.4151 37.7736 42.6189 39.0197 39.9308 40.065C39.8254 40.1061 39.7215 40.1475 39.6189 40.1892V37.4318H39.6191ZM41.163 41.7934C43.6555 40.8952 48.0796 39.8244 55.0001 39.8244C61.9207 39.8244 66.3446 40.8952 68.8372 41.7934C70.1876 42.28 71.1832 42.7943 71.8753 43.2424H38.125C38.8169 42.7946 39.8126 42.2803 41.163 41.7934ZM53.9746 68.0772L49.7224 69.1402L46.4551 66.9619V63.5591C48.7014 64.8277 51.2551 65.6122 53.9746 65.7708V68.0772ZM63.545 66.962L60.2777 69.1404L56.0255 68.0774V65.7709C58.745 65.6123 61.2989 64.8276 63.5451 63.559V66.962H63.545ZM55.2079 63.7483C55.1408 63.7345 55.0712 63.7273 55 63.7273C54.9289 63.7273 54.8593 63.7347 54.7922 63.7483C46.4067 63.6366 39.6191 56.7817 39.6191 48.37V45.2933H70.3812V48.37C70.3811 56.7817 63.5934 63.6366 55.2079 63.7483ZM43.1199 77.5574H66.8803L68.931 79.6082H41.0691L43.1199 77.5574ZM70.3812 87.9487H39.6191V81.659H70.3813V87.9487H70.3812Z" fill="white"/>
<path d="M55 26.8359C52.9269 26.8359 51.2402 28.5226 51.2402 30.5957C51.2402 32.6687 52.9269 34.3554 55 34.3554C57.073 34.3554 58.7597 32.6687 58.7597 30.5957C58.7599 28.5226 57.0732 26.8359 55 26.8359ZM55 32.3047C54.0576 32.3047 53.291 31.5381 53.291 30.5957C53.291 29.6533 54.0577 28.8867 55 28.8867C55.9424 28.8867 56.709 29.6533 56.709 30.5957C56.709 31.5381 55.9425 32.3047 55 32.3047Z" fill="white"/>
</svg>
