<svg width="110" height="110" viewBox="0 0 110 110" fill="none" xmlns="http://www.w3.org/2000/svg">
<rect width="110" height="110" rx="8" fill="#396ACA"/>
<g clip-path="url(#clip0)">
<path d="M52.1656 38.9316C48.9607 38.9316 46.3535 41.539 46.3535 44.744V48.8466C46.3535 52.0513 48.9609 54.6587 52.1656 54.6587C55.3704 54.6587 57.9777 52.0514 57.9777 48.8466V44.744C57.9777 41.539 55.3704 38.9316 52.1656 38.9316ZM52.1656 52.6073C50.2056 52.6073 48.5919 51.0999 48.4207 49.184C49.433 50.0392 50.7397 50.5562 52.1656 50.5562C53.5914 50.5562 54.8982 50.0392 55.9106 49.1839C55.7394 51.0999 54.1257 52.6073 52.1656 52.6073ZM52.1656 48.5047C50.0918 48.5047 48.4048 46.8176 48.4048 44.744C48.4048 42.6701 50.0919 40.983 52.1656 40.983C54.2393 40.983 55.9264 42.6701 55.9264 44.744C55.9264 46.8176 54.2393 48.5047 52.1656 48.5047Z" fill="white"/>
<path d="M52.1653 42.3506C51.5989 42.3506 51.1396 42.8097 51.1396 43.3762V46.1113C51.1396 46.6777 51.5989 47.137 52.1653 47.137C52.7317 47.137 53.191 46.6779 53.191 46.1113V43.3762C53.191 42.8096 52.7317 42.3506 52.1653 42.3506Z" fill="white"/>
<path d="M70.6275 26.624C65.5373 26.624 61.3964 30.765 61.3964 35.8549V39.9548C61.3964 39.9557 61.3962 39.9566 61.3962 39.9575C61.3962 45.0474 65.5373 49.1884 70.6272 49.1884C75.7115 49.1884 79.8485 45.0563 79.8575 39.9741C79.8575 39.9686 79.8583 39.9633 79.8583 39.9578V35.8549C79.8583 30.765 75.7174 26.624 70.6275 26.624ZM70.6272 47.1372C67.377 47.1372 64.6259 44.9655 63.7445 41.9976C65.4363 43.8913 67.8945 45.0861 70.6275 45.0861C73.36 45.0861 75.8179 43.8917 77.5094 41.9986C76.6278 44.9659 73.877 47.1372 70.6272 47.1372ZM70.6275 43.0348C66.6685 43.0348 63.4477 39.8138 63.4477 35.855C63.4477 31.8962 66.6687 28.6755 70.6275 28.6755C74.5863 28.6755 77.807 31.8963 77.807 35.855C77.807 39.8138 74.5863 43.0348 70.6275 43.0348Z" fill="white"/>
<path d="M70.6282 32.0938C70.0617 32.0938 69.6025 32.5527 69.6024 33.1191L69.6013 38.5899C69.6013 39.1562 70.0604 39.6156 70.6268 39.6157H70.627C71.1934 39.6157 71.6525 39.1566 71.6526 38.5904L71.6537 33.1196C71.6539 32.5531 71.1946 32.0939 70.6282 32.0938Z" fill="white"/>
<path d="M89.4094 61.3319C88.002 58.8951 84.8802 58.0495 82.4358 59.4368C81.9914 59.6558 76.3173 62.4443 71.641 64.4121C71.1189 64.6318 70.8739 65.2333 71.0934 65.7554C71.313 66.2775 71.9143 66.5224 72.4367 66.303C77.3393 64.2399 83.3124 61.2919 83.3722 61.2624C83.3917 61.2527 83.411 61.2424 83.4298 61.2316C84.8994 60.3844 86.7851 60.8893 87.6333 62.3582C88.6154 64.0569 87.0817 65.9221 86.331 66.6838C81.2389 70.7916 67.1479 81.3252 62.4117 81.3252C57.1619 81.3252 42.4304 78.2043 38.8277 77.4237V60.6703C45.971 59.6207 49.7553 60.9371 57.6857 63.7008C60.0982 64.5415 62.8314 65.4937 66.1534 66.5559C66.6486 66.7716 68.0225 67.5449 67.4988 69.2929C67.1805 70.3554 66.1545 71.37 64.6518 71.0888C62.6326 70.7098 50.7496 69.098 50.2446 69.0297C49.6836 68.9531 49.1666 69.347 49.0906 69.9084C49.0146 70.4697 49.4079 70.9864 49.9693 71.0624C50.0923 71.0791 62.3052 72.7354 64.2736 73.105C64.5792 73.1623 64.8757 73.1893 65.1624 73.1893C67.34 73.1893 68.9413 71.6265 69.4642 69.8816C70.0142 68.0453 69.4426 65.7208 66.9301 64.6571C66.9265 64.6555 66.9228 64.6538 66.9191 64.6523C66.916 64.651 66.913 64.6495 66.9097 64.6481C66.8959 64.6424 66.8818 64.6383 66.8679 64.6331C66.8537 64.6279 66.8401 64.6219 66.8255 64.6172C63.5072 63.5572 60.7732 62.6044 58.361 61.7639C50.4523 59.008 46.2845 57.5581 38.8278 58.599V57.7415C38.8278 57.1749 38.3686 56.7158 37.8021 56.7158H34.726V55.6907C34.726 55.1241 34.2667 54.665 33.7003 54.665H21.0257C20.4592 54.665 20 55.1241 20 55.6907V78.2481C20 78.8146 20.4592 79.2737 21.0257 79.2737C21.5921 79.2737 22.0513 78.8146 22.0513 78.2481V56.7162H32.6746V81.3252H30.6246V80.3001C30.6246 79.7335 30.1653 79.2744 29.5989 79.2744C29.0325 79.2744 28.5732 79.7335 28.5732 80.3001V81.3252H21.0257C20.4592 81.3252 20 81.7843 20 82.3509C20 82.9174 20.4592 83.3765 21.0257 83.3765H33.7003C34.2667 83.3765 34.726 82.9174 34.726 82.3509V81.2737H37.802C38.3684 81.2737 38.8277 80.8146 38.8277 80.248V79.5232C43.119 80.4505 57.0856 83.3765 62.4117 83.3765C65.2147 83.3765 70.1849 80.8791 77.6062 75.742C82.9583 72.0371 87.6171 68.2818 87.6635 68.2444C87.6919 68.2214 87.719 68.1969 87.7447 68.1712C89.9731 65.9401 90.5953 63.3832 89.4094 61.3319ZM36.7762 78.2323C36.7762 78.2333 36.7762 78.2343 36.7762 78.2351V79.2226H34.726V79.2225V58.767H36.7763V78.2323H36.7762Z" fill="white"/>
</g>
<defs>
<clipPath id="clip0">
<rect x="20" y="20" width="70" height="70" fill="white"/>
</clipPath>
</defs>
</svg>
