<svg width="152" height="152" viewBox="0 0 152 152" fill="none" xmlns="http://www.w3.org/2000/svg">
<g filter="url(#filter0_d)">
<circle cx="76" cy="72" r="56" fill="white"/>
</g>
<path d="M94.4999 35H57.4999C55.4565 35 53.7999 36.6565 53.7999 38.7V105.3C53.7999 107.343 55.4564 109 57.4999 109H94.4999C96.5433 109 98.1999 107.344 98.1999 105.3V38.7C98.1999 36.6565 96.5433 35 94.4999 35ZM95.7332 44.8667H67.3666C66.6855 44.8667 66.1334 45.4188 66.1334 46.1C66.1334 46.7812 66.6855 47.3333 67.3666 47.3333H95.7334V95.4333H92.0334C91.3522 95.4333 90.8001 95.9854 90.8001 96.6666C90.8001 97.3477 91.3522 97.8999 92.0334 97.8999H95.7334V105.3C95.7334 105.981 95.1812 106.533 94.5001 106.533H57.4999C56.8188 106.533 56.2666 105.981 56.2666 105.3V97.8999H84.6334C85.3145 97.8999 85.8666 97.3477 85.8666 96.6666C85.8666 95.9854 85.3145 95.4333 84.6334 95.4333H56.2666V47.3333H59.9666C60.6478 47.3333 61.1999 46.7812 61.1999 46.1C61.1999 45.4188 60.6478 44.8667 59.9666 44.8667H56.2666V38.7C56.2666 38.0188 56.8188 37.4667 57.4999 37.4667H94.4999C95.1811 37.4667 95.7332 38.0188 95.7332 38.7V44.8667Z" fill="#FA9001"/>
<path d="M77.2332 101.6H74.7665C74.0853 101.6 73.5332 102.152 73.5332 102.833C73.5332 103.515 74.0853 104.067 74.7665 104.067H77.2332C77.9144 104.067 78.4665 103.515 78.4665 102.833C78.4665 102.152 77.9144 101.6 77.2332 101.6Z" fill="#FA9001"/>
<path d="M64.0169 55.1095L61.2073 56.793C60.1739 57.402 59.4167 58.3879 59.0946 59.5432C58.0363 63.4024 58.7887 70.0167 68.3878 79.6144C75.9875 87.213 81.7165 89.2665 85.689 89.2665C86.6245 89.2704 87.5561 89.1489 88.4591 88.9052C89.6136 88.5825 90.5985 87.8254 91.207 86.7924L92.8967 83.9842C93.6227 82.7795 93.2716 81.2167 92.0999 80.4384L85.3732 75.9601C84.2231 75.2023 82.6841 75.4528 81.8335 76.5361L79.8787 79.0496C79.8321 79.1144 79.7448 79.1349 79.6739 79.0977L79.3039 78.8918C77.1653 77.7237 75.2365 76.2068 73.5973 74.4037C71.7942 72.7644 70.2772 70.8356 69.1091 68.697L68.9032 68.3196C68.8656 68.2494 68.8861 68.1621 68.9513 68.1161L71.466 66.16C72.5494 65.3099 72.7989 63.7705 72.0395 62.6216L67.5625 55.9048C66.7829 54.7354 65.2217 54.3852 64.0169 55.1095ZM65.5092 57.274L67.9438 60.9271L69.9862 63.9834C70.034 64.0567 70.0185 64.1542 69.9505 64.2091L67.4358 66.1639C66.4047 66.9542 66.1114 68.3822 66.7475 69.5149L66.9423 69.8726C68.219 72.2211 69.8783 74.3403 71.8522 76.1428C73.6548 78.1167 75.7739 79.776 78.1224 81.0527L78.4788 81.2475C79.6119 81.8833 81.0401 81.59 81.8311 80.5592L83.7859 78.0457C83.8399 77.9773 83.9372 77.9613 84.0103 78.0087L90.7245 82.4844C90.7994 82.5337 90.8218 82.6335 90.7751 82.7101L89.0916 85.5172C88.8089 86.0053 88.3484 86.3651 87.8064 86.5211C85.1596 87.2489 79.3532 87.0909 70.1316 77.8681C60.9087 68.6464 60.7483 62.8362 61.4736 60.1932C61.6298 59.6512 61.9895 59.1907 62.4775 58.908L65.2846 57.2245C65.3104 57.2082 65.3403 57.1997 65.3708 57.1998C65.4266 57.2001 65.4784 57.2279 65.5092 57.274Z" fill="#FA9001"/>
<defs>
<filter id="filter0_d" x="0" y="0" width="152" height="152" filterUnits="userSpaceOnUse" color-interpolation-filters="sRGB">
<feFlood flood-opacity="0" result="BackgroundImageFix"/>
<feColorMatrix in="SourceAlpha" type="matrix" values="0 0 0 0 0 0 0 0 0 0 0 0 0 0 0 0 0 0 127 0"/>
<feOffset dy="4"/>
<feGaussianBlur stdDeviation="10"/>
<feColorMatrix type="matrix" values="0 0 0 0 0 0 0 0 0 0 0 0 0 0 0 0 0 0 0.25 0"/>
<feBlend mode="normal" in2="BackgroundImageFix" result="effect1_dropShadow"/>
<feBlend mode="normal" in="SourceGraphic" in2="effect1_dropShadow" result="shape"/>
</filter>
</defs>
</svg>
