<svg width="152" height="152" viewBox="0 0 152 152" fill="none" xmlns="http://www.w3.org/2000/svg">
<g filter="url(#filter0_d)">
<circle cx="76" cy="72" r="56" fill="white"/>
</g>
<path d="M98.9082 35H53.0918C45.3215 35 39 41.3215 39 49.0918V94.9082C39 102.678 45.3215 109 53.0918 109H98.9082C106.678 109 113 102.678 113 94.9082V49.0918C113 41.3215 106.678 35 98.9082 35ZM110.832 94.9082C110.832 101.483 105.483 106.832 98.9082 106.832H53.0918C46.5169 106.832 41.168 101.483 41.168 94.9082V49.0918C41.168 42.5171 46.5169 37.168 53.0918 37.168H98.9082C105.483 37.168 110.832 42.5171 110.832 49.0918V94.9082Z" fill="#FA9001"/>
<path d="M56.3438 68.748C55.1084 68.748 54.1035 67.7431 54.1035 66.5078V63.6172C54.1035 62.3819 55.1084 61.377 56.3438 61.377C57.5791 61.377 58.584 62.3819 58.584 63.6172C58.584 65.4102 60.0427 66.8691 61.8359 66.8691C63.6291 66.8691 65.0879 65.4102 65.0879 63.6172C65.0879 58.7958 61.1653 54.873 56.3438 54.873C51.5222 54.873 47.5996 58.7958 47.5996 63.6172V66.5078C47.5996 71.3292 51.5222 75.252 56.3438 75.252C57.5791 75.252 58.584 76.2569 58.584 77.4922V80.3828C58.584 81.6181 57.5791 82.623 56.3438 82.623C55.1084 82.623 54.1035 81.6181 54.1035 80.3828C54.1035 78.5898 52.6448 77.1309 50.8516 77.1309C49.0584 77.1309 47.5996 78.5898 47.5996 80.3828C47.5996 85.2042 51.5222 89.127 56.3438 89.127C61.1653 89.127 65.0879 85.2042 65.0879 80.3828V77.4922C65.0879 72.6708 61.1653 68.748 56.3438 68.748ZM62.9199 80.3828C62.9199 84.009 59.9699 86.959 56.3438 86.959C52.7176 86.959 49.7676 84.009 49.7676 80.3828C49.7676 79.785 50.2538 79.2988 50.8516 79.2988C51.4493 79.2988 51.9355 79.785 51.9355 80.3828C51.9355 82.8134 53.913 84.791 56.3438 84.791C58.7745 84.791 60.752 82.8134 60.752 80.3828V77.4922C60.752 75.0616 58.7745 73.084 56.3438 73.084C52.7176 73.084 49.7676 70.134 49.7676 66.5078V63.6172C49.7676 59.991 52.7176 57.041 56.3438 57.041C59.9699 57.041 62.9199 59.991 62.9199 63.6172C62.9199 64.215 62.4337 64.7012 61.8359 64.7012C61.2382 64.7012 60.752 64.215 60.752 63.6172C60.752 61.1866 58.7745 59.209 56.3438 59.209C53.913 59.209 51.9355 61.1866 51.9355 63.6172V66.5078C51.9355 68.9384 53.913 70.916 56.3438 70.916C59.9699 70.916 62.9199 73.866 62.9199 77.4922V80.3828Z" fill="#FA9001"/>
<path d="M95.6562 68.748C94.4209 68.748 93.416 67.7431 93.416 66.5078V63.6172C93.416 62.3819 94.4209 61.377 95.6562 61.377C96.8916 61.377 97.8965 62.3819 97.8965 63.6172C97.8965 65.4102 99.3554 66.8691 101.148 66.8691C102.941 66.8691 104.4 65.4102 104.4 63.6172C104.4 58.7958 100.478 54.873 95.6562 54.873C90.8348 54.873 86.9121 58.7958 86.9121 63.6172V66.5078C86.9121 71.3292 90.8348 75.252 95.6562 75.252C96.8916 75.252 97.8965 76.2569 97.8965 77.4922V80.3828C97.8965 81.6181 96.8916 82.623 95.6562 82.623C94.4209 82.623 93.416 81.6181 93.416 80.3828C93.416 78.5898 91.9571 77.1309 90.1641 77.1309C88.371 77.1309 86.9121 78.5898 86.9121 80.3828C86.9121 85.2042 90.8348 89.127 95.6562 89.127C100.478 89.127 104.4 85.2042 104.4 80.3828V77.4922C104.4 72.6708 100.478 68.748 95.6562 68.748ZM102.232 80.3828C102.232 84.009 99.2824 86.959 95.6562 86.959C92.0301 86.959 89.0801 84.009 89.0801 80.3828C89.0801 79.785 89.5663 79.2988 90.1641 79.2988C90.7618 79.2988 91.248 79.785 91.248 80.3828C91.248 82.8134 93.2257 84.791 95.6562 84.791C98.0868 84.791 100.064 82.8134 100.064 80.3828V77.4922C100.064 75.0616 98.0868 73.084 95.6562 73.084C92.0301 73.084 89.0801 70.134 89.0801 66.5078V63.6172C89.0801 59.991 92.0301 57.041 95.6562 57.041C99.2824 57.041 102.232 59.991 102.232 63.6172C102.232 64.215 101.746 64.7012 101.148 64.7012C100.551 64.7012 100.064 64.215 100.064 63.6172C100.064 61.1866 98.0868 59.209 95.6562 59.209C93.2257 59.209 91.248 61.1866 91.248 63.6172V66.5078C91.248 68.9384 93.2257 70.916 95.6562 70.916C99.2824 70.916 102.232 73.866 102.232 77.4922V80.3828Z" fill="#FA9001"/>
<path d="M76 54.873C71.1784 54.873 67.2559 58.7958 67.2559 63.6172V80.3828C67.2559 85.2042 71.1784 89.127 76 89.127C80.8214 89.127 84.7441 85.2042 84.7441 80.3828V63.6172C84.7441 58.7958 80.8214 54.873 76 54.873ZM82.5762 80.3828C82.5762 84.009 79.6261 86.959 76 86.959C72.3739 86.959 69.4238 84.009 69.4238 80.3828V63.6172C69.4238 59.991 72.3739 57.041 76 57.041C79.6261 57.041 82.5762 59.991 82.5762 63.6172V80.3828Z" fill="#FA9001"/>
<path d="M76 59.209C73.5693 59.209 71.5918 61.1866 71.5918 63.6172V69.832C71.5918 70.4308 72.0771 70.916 72.6758 70.916C73.2744 70.916 73.7598 70.4308 73.7598 69.832V63.6172C73.7598 62.3819 74.7647 61.377 76 61.377C77.2353 61.377 78.2402 62.3819 78.2402 63.6172V80.3828C78.2402 81.6181 77.2353 82.623 76 82.623C74.7647 82.623 73.7598 81.6181 73.7598 80.3828V74.168C73.7598 73.5692 73.2744 73.084 72.6758 73.084C72.0771 73.084 71.5918 73.5692 71.5918 74.168V80.3828C71.5918 82.8134 73.5693 84.791 76 84.791C78.4306 84.791 80.4082 82.8134 80.4082 80.3828V63.6172C80.4082 61.1866 78.4306 59.209 76 59.209Z" fill="#FA9001"/>
<defs>
<filter id="filter0_d" x="0" y="0" width="152" height="152" filterUnits="userSpaceOnUse" color-interpolation-filters="sRGB">
<feFlood flood-opacity="0" result="BackgroundImageFix"/>
<feColorMatrix in="SourceAlpha" type="matrix" values="0 0 0 0 0 0 0 0 0 0 0 0 0 0 0 0 0 0 127 0"/>
<feOffset dy="4"/>
<feGaussianBlur stdDeviation="10"/>
<feColorMatrix type="matrix" values="0 0 0 0 0 0 0 0 0 0 0 0 0 0 0 0 0 0 0.25 0"/>
<feBlend mode="normal" in2="BackgroundImageFix" result="effect1_dropShadow"/>
<feBlend mode="normal" in="SourceGraphic" in2="effect1_dropShadow" result="shape"/>
</filter>
</defs>
</svg>
