<svg width="152" height="152" viewBox="0 0 152 152" fill="none" xmlns="http://www.w3.org/2000/svg">
<g filter="url(#filter0_d)">
<circle cx="76" cy="72" r="56" fill="white"/>
</g>
<g clip-path="url(#clip0)">
<path d="M109.3 62.1431H104.367V54.7432C104.364 52.7006 102.709 51.0452 100.667 51.043H42.7002C40.6576 51.0452 39.0023 52.7006 39 54.7432V89.2766C39.0023 91.3186 40.6576 92.974 42.7002 92.9762H100.667C102.709 92.974 104.364 91.3186 104.367 89.2766V81.8761H109.3C111.342 81.8739 112.998 80.2191 113 78.1765V65.8427C112.998 63.8007 111.342 62.1453 109.3 62.1431ZM101.9 89.2766C101.899 89.9574 101.348 90.509 100.667 90.5096H42.7002C42.0193 90.509 41.4672 89.9574 41.4666 89.2766V54.7432C41.4672 54.0623 42.0193 53.5102 42.7002 53.5096H100.667C101.348 53.5102 101.899 54.0623 101.9 54.7432V89.2766ZM110.533 78.1765C110.533 78.8573 109.981 79.4089 109.3 79.4095H104.367V64.6097H109.3C109.981 64.6103 110.533 65.1619 110.533 65.8427V78.1765Z" fill="#FA9001"/>
<path d="M46.2514 56.5904C45.9826 56.0941 45.4107 55.8434 44.8636 55.9823C44.316 56.1207 43.9332 56.6135 43.9332 57.1781V86.7782C43.9332 87.4591 44.4854 88.0118 45.1668 88.0118H61.2002C61.6349 88.0118 62.0375 87.7826 62.2599 87.4094C62.4823 87.0357 62.4919 86.5727 62.2847 86.1905L46.2514 56.5904ZM46.3999 85.5446V62.0442L59.1293 85.5446H46.3999Z" fill="#FA9001"/>
<path d="M98.2003 55.9453C97.5188 55.9453 96.9667 56.4975 96.9667 57.1783V58.4119C96.9667 59.0928 97.5188 59.645 98.2003 59.645C98.8811 59.645 99.4333 59.0928 99.4333 58.4119V57.1783C99.4333 56.4975 98.8811 55.9453 98.2003 55.9453Z" fill="#FA9001"/>
<path d="M98.2003 62.1113C97.5188 62.1113 96.9667 62.6635 96.9667 63.3449V86.7782C96.9667 87.4591 97.5188 88.0118 98.2003 88.0118C98.8811 88.0118 99.4333 87.4591 99.4333 86.7782V63.3449C99.4333 62.6635 98.8811 62.1113 98.2003 62.1113Z" fill="#FA9001"/>
</g>
<defs>
<filter id="filter0_d" x="0" y="0" width="152" height="152" filterUnits="userSpaceOnUse" color-interpolation-filters="sRGB">
<feFlood flood-opacity="0" result="BackgroundImageFix"/>
<feColorMatrix in="SourceAlpha" type="matrix" values="0 0 0 0 0 0 0 0 0 0 0 0 0 0 0 0 0 0 127 0"/>
<feOffset dy="4"/>
<feGaussianBlur stdDeviation="10"/>
<feColorMatrix type="matrix" values="0 0 0 0 0 0 0 0 0 0 0 0 0 0 0 0 0 0 0.25 0"/>
<feBlend mode="normal" in2="BackgroundImageFix" result="effect1_dropShadow"/>
<feBlend mode="normal" in="SourceGraphic" in2="effect1_dropShadow" result="shape"/>
</filter>
<clipPath id="clip0">
<rect x="39" y="35" width="74" height="74" fill="white"/>
</clipPath>
</defs>
</svg>
