<svg width="23" height="24" viewBox="0 0 23 24" fill="none" xmlns="http://www.w3.org/2000/svg">
<g clip-path="url(#clip0)">
<path d="M11.5 0.101868C5.14871 0.101868 0 5.25058 0 11.6019C0 17.9532 5.14871 23.1019 11.5 23.1019C17.8513 23.1019 23 17.9532 23 11.6019C22.993 5.2535 17.8484 0.108823 11.5 0.101868ZM11.5 22.3599C5.55849 22.3599 0.741935 17.5434 0.741935 11.6019C0.741935 5.66036 5.55849 0.843803 11.5 0.843803C17.4415 0.843803 22.2581 5.66036 22.2581 11.6019C22.2511 17.5405 17.4386 22.353 11.5 22.3599Z" fill="black"/>
<path d="M16.9081 6.02216C16.8059 5.97263 16.6867 5.97263 16.5845 6.02216V6.02179L9.52053 9.45027C9.50977 9.45547 9.50347 9.4666 9.49345 9.4729C9.44499 9.50499 9.40349 9.54649 9.3714 9.59495C9.3651 9.60497 9.35397 9.61127 9.34877 9.62203L5.91992 16.6864C5.83056 16.8707 5.90758 17.0926 6.09195 17.182C6.19411 17.2315 6.31333 17.2315 6.41553 17.182L13.4795 13.7535C13.4903 13.7483 13.4966 13.7372 13.5066 13.7309C13.555 13.6988 13.5965 13.6573 13.6286 13.6088C13.6349 13.5988 13.6461 13.5925 13.6513 13.5817L17.0801 6.51777C17.1695 6.3334 17.0925 6.11152 16.9081 6.02216ZM7.05508 16.0468L9.78874 10.4148L12.6871 13.3132L7.05508 16.0468ZM13.2131 12.7886L10.3129 9.89061L15.9446 7.15695L13.2131 12.7886Z" fill="black"/>
</g>
<defs>
<clipPath id="clip0">
<rect width="23" height="23" fill="white" transform="translate(0 0.101868)"/>
</clipPath>
</defs>
</svg>
