<svg width="108" height="40" viewBox="0 0 108 40" fill="none" xmlns="http://www.w3.org/2000/svg">
<path d="M10.4 26.15C8.62 26.15 7.01 25.75 5.57 24.95C4.15 24.15 3.02 22.98 2.18 21.44C1.34 19.88 0.92 18.02 0.92 15.86C0.92 12.82 1.47 10.14 2.57 7.82C3.69 5.5 5.2 3.71 7.1 2.45C9.02 1.19 11.14 0.559999 13.46 0.559999C15.24 0.559999 16.84 0.959999 18.26 1.76C19.7 2.56 20.84 3.74 21.68 5.3C22.52 6.84 22.94 8.69 22.94 10.85C22.94 13.89 22.38 16.57 21.26 18.89C20.16 21.21 18.65 23 16.73 24.26C14.83 25.52 12.72 26.15 10.4 26.15ZM10.7 22.61C12.26 22.61 13.63 22.13 14.81 21.17C16.01 20.21 16.93 18.88 17.57 17.18C18.21 15.46 18.53 13.52 18.53 11.36C18.53 8.98 18.03 7.18 17.03 5.96C16.03 4.72 14.74 4.1 13.16 4.1C11.62 4.1 10.26 4.58 9.08 5.54C7.9 6.48 6.98 7.81 6.32 9.53C5.66 11.23 5.33 13.17 5.33 15.35C5.33 17.73 5.83 19.54 6.83 20.78C7.83 22 9.12 22.61 10.7 22.61ZM40.9522 19.31C41.2122 19.31 41.4122 19.43 41.5522 19.67C41.7122 19.91 41.7922 20.24 41.7922 20.66C41.7922 21.46 41.6022 22.08 41.2222 22.52C40.3622 23.58 39.4322 24.45 38.4322 25.13C37.4522 25.81 36.3322 26.15 35.0722 26.15C34.0122 26.15 33.1522 25.77 32.4922 25.01C31.3522 25.75 30.1622 26.13 28.9222 26.15C28.6622 30.01 28.0722 33.23 27.1522 35.81C26.2322 38.41 24.8822 39.71 23.1022 39.71C22.0222 39.71 21.2222 39.32 20.7022 38.54C20.1822 37.76 19.9222 36.68 19.9222 35.3C19.9222 33.34 20.3722 31.05 21.2722 28.43C22.1722 25.83 23.5622 22.96 25.4422 19.82C25.4422 16.9 25.4222 14.87 25.3822 13.73C25.3622 13.15 25.5922 12.69 26.0722 12.35C26.5522 12.01 27.1522 11.84 27.8722 11.84C28.2922 11.84 28.5922 11.93 28.7722 12.11C28.9722 12.27 29.0822 12.6 29.1022 13.1C29.1022 13.6 29.1122 13.97 29.1322 14.21C29.7722 13.41 30.4022 12.84 31.0222 12.5C31.6422 12.14 32.3022 11.96 33.0022 11.96C34.1222 11.96 35.0322 12.41 35.7322 13.31C36.4522 14.21 36.8122 15.39 36.8122 16.85C36.8122 17.91 36.6422 18.94 36.3022 19.94C35.9622 20.94 35.4922 21.85 34.8922 22.67C35.3122 22.79 35.6622 22.85 35.9422 22.85C36.6022 22.85 37.2322 22.61 37.8322 22.13C38.4322 21.65 39.2022 20.85 40.1422 19.73C40.3822 19.45 40.6522 19.31 40.9522 19.31ZM29.0722 23.27C29.7922 23.11 30.4522 22.72 31.0522 22.1C31.6722 21.46 32.1622 20.68 32.5222 19.76C32.8822 18.82 33.0622 17.84 33.0622 16.82C33.0622 16.22 32.9422 15.77 32.7022 15.47C32.4622 15.15 32.1422 14.99 31.7422 14.99C31.0222 14.99 30.1522 15.75 29.1322 17.27C29.1122 18.15 29.1022 19.44 29.1022 21.14C29.1022 22.06 29.0922 22.77 29.0722 23.27ZM23.3422 36.77C23.8822 36.77 24.3322 35.59 24.6922 33.23C25.0522 30.89 25.2822 27.97 25.3822 24.47C24.5222 26.47 23.8422 28.38 23.3422 30.2C22.8422 32.02 22.5922 33.55 22.5922 34.79C22.5922 35.43 22.6722 35.92 22.8322 36.26C22.9722 36.6 23.1422 36.77 23.3422 36.77ZM43.3055 10.04C42.4655 10.04 41.8355 9.85 41.4155 9.47C40.9955 9.07 40.7855 8.52 40.7855 7.82C40.7855 7.12 41.0555 6.54 41.5955 6.08C42.1555 5.6 42.8455 5.36 43.6655 5.36C44.4055 5.36 45.0055 5.54 45.4655 5.9C45.9255 6.26 46.1555 6.77 46.1555 7.43C46.1555 8.23 45.8955 8.87 45.3755 9.35C44.8555 9.81 44.1655 10.04 43.3055 10.04ZM43.0655 26.15C41.7655 26.15 40.8155 25.69 40.2155 24.77C39.6355 23.85 39.3455 22.63 39.3455 21.11C39.3455 20.21 39.4555 19.06 39.6755 17.66C39.9155 16.24 40.2155 14.92 40.5755 13.7C40.7555 13.06 40.9955 12.62 41.2955 12.38C41.5955 12.14 42.0755 12.02 42.7355 12.02C43.7555 12.02 44.2655 12.36 44.2655 13.04C44.2655 13.54 44.0755 14.7 43.6955 16.52C43.2155 18.72 42.9755 20.21 42.9755 20.99C42.9755 21.59 43.0555 22.05 43.2155 22.37C43.3755 22.69 43.6455 22.85 44.0255 22.85C44.3855 22.85 44.8355 22.6 45.3755 22.1C45.9155 21.6 46.6355 20.81 47.5355 19.73C47.7755 19.45 48.0455 19.31 48.3455 19.31C48.6055 19.31 48.8055 19.43 48.9455 19.67C49.1055 19.91 49.1855 20.24 49.1855 20.66C49.1855 21.46 48.9955 22.08 48.6155 22.52C46.6355 24.94 44.7855 26.15 43.0655 26.15ZM48.8884 26.15C48.1284 26.15 47.5884 25.75 47.2684 24.95C46.9684 24.15 46.8184 22.87 46.8184 21.11C46.8184 18.51 47.1884 16.04 47.9284 13.7C48.1084 13.12 48.3984 12.7 48.7984 12.44C49.2184 12.16 49.7984 12.02 50.5384 12.02C50.9384 12.02 51.2184 12.07 51.3784 12.17C51.5384 12.27 51.6184 12.46 51.6184 12.74C51.6184 13.06 51.4684 13.78 51.1684 14.9C50.9684 15.7 50.8084 16.4 50.6884 17C50.5684 17.6 50.4684 18.34 50.3884 19.22C51.0484 17.5 51.7884 16.1 52.6084 15.02C53.4284 13.94 54.2284 13.17 55.0084 12.71C55.8084 12.25 56.5384 12.02 57.1984 12.02C58.4984 12.02 59.1484 12.67 59.1484 13.97C59.1484 14.75 58.9284 16.16 58.4884 18.2C58.1084 19.94 57.9184 21.09 57.9184 21.65C57.9184 22.45 58.2084 22.85 58.7884 22.85C59.1884 22.85 59.6584 22.61 60.1984 22.13C60.7584 21.63 61.4984 20.83 62.4184 19.73C62.6584 19.45 62.9284 19.31 63.2284 19.31C63.4884 19.31 63.6884 19.43 63.8284 19.67C63.9884 19.91 64.0684 20.24 64.0684 20.66C64.0684 21.46 63.8784 22.08 63.4984 22.52C62.6384 23.58 61.7084 24.45 60.7084 25.13C59.7284 25.81 58.6084 26.15 57.3484 26.15C56.3284 26.15 55.5584 25.86 55.0384 25.28C54.5184 24.68 54.2584 23.82 54.2584 22.7C54.2584 22.14 54.3984 21.14 54.6784 19.7C54.9384 18.44 55.0684 17.57 55.0684 17.09C55.0684 16.77 54.9584 16.61 54.7384 16.61C54.4784 16.61 54.1084 16.95 53.6284 17.63C53.1684 18.29 52.6884 19.17 52.1884 20.27C51.7084 21.37 51.3184 22.53 51.0184 23.75C50.7984 24.69 50.5384 25.33 50.2384 25.67C49.9584 25.99 49.5084 26.15 48.8884 26.15ZM65.5712 10.04C64.7312 10.04 64.1012 9.85 63.6812 9.47C63.2612 9.07 63.0512 8.52 63.0512 7.82C63.0512 7.12 63.3212 6.54 63.8612 6.08C64.4212 5.6 65.1112 5.36 65.9312 5.36C66.6712 5.36 67.2712 5.54 67.7312 5.9C68.1912 6.26 68.4212 6.77 68.4212 7.43C68.4212 8.23 68.1612 8.87 67.6412 9.35C67.1212 9.81 66.4312 10.04 65.5712 10.04ZM65.3312 26.15C64.0312 26.15 63.0812 25.69 62.4812 24.77C61.9012 23.85 61.6112 22.63 61.6112 21.11C61.6112 20.21 61.7212 19.06 61.9412 17.66C62.1812 16.24 62.4812 14.92 62.8412 13.7C63.0212 13.06 63.2612 12.62 63.5612 12.38C63.8612 12.14 64.3412 12.02 65.0012 12.02C66.0212 12.02 66.5312 12.36 66.5312 13.04C66.5312 13.54 66.3412 14.7 65.9612 16.52C65.4812 18.72 65.2412 20.21 65.2412 20.99C65.2412 21.59 65.3212 22.05 65.4812 22.37C65.6412 22.69 65.9112 22.85 66.2912 22.85C66.6512 22.85 67.1012 22.6 67.6412 22.1C68.1812 21.6 68.9012 20.81 69.8012 19.73C70.0412 19.45 70.3112 19.31 70.6112 19.31C70.8712 19.31 71.0712 19.43 71.2112 19.67C71.3712 19.91 71.4512 20.24 71.4512 20.66C71.4512 21.46 71.2612 22.08 70.8812 22.52C68.9012 24.94 67.0512 26.15 65.3312 26.15ZM84.324 16.79C84.584 16.79 84.784 16.92 84.924 17.18C85.064 17.44 85.134 17.77 85.134 18.17C85.134 19.13 84.844 19.7 84.264 19.88C83.064 20.3 81.744 20.54 80.304 20.6C79.924 22.28 79.174 23.63 78.054 24.65C76.934 25.65 75.664 26.15 74.244 26.15C73.044 26.15 72.014 25.86 71.154 25.28C70.314 24.7 69.674 23.93 69.234 22.97C68.794 22.01 68.574 20.97 68.574 19.85C68.574 18.33 68.864 16.98 69.444 15.8C70.024 14.6 70.824 13.67 71.844 13.01C72.864 12.33 73.994 11.99 75.234 11.99C76.754 11.99 77.974 12.52 78.894 13.58C79.834 14.62 80.384 15.91 80.544 17.45C81.484 17.39 82.604 17.19 83.904 16.85C84.064 16.81 84.204 16.79 84.324 16.79ZM74.484 22.97C75.124 22.97 75.674 22.71 76.134 22.19C76.614 21.67 76.934 20.92 77.094 19.94C76.474 19.52 75.994 18.97 75.654 18.29C75.334 17.61 75.174 16.89 75.174 16.13C75.174 15.81 75.204 15.49 75.264 15.17H75.114C74.314 15.17 73.644 15.56 73.104 16.34C72.584 17.1 72.324 18.18 72.324 19.58C72.324 20.68 72.534 21.52 72.954 22.1C73.394 22.68 73.904 22.97 74.484 22.97ZM84.6891 26.15C83.9291 26.15 83.3891 25.75 83.0691 24.95C82.7691 24.15 82.6191 22.87 82.6191 21.11C82.6191 18.51 82.9891 16.04 83.7291 13.7C83.9091 13.12 84.1991 12.7 84.5991 12.44C85.0191 12.16 85.5991 12.02 86.3391 12.02C86.7391 12.02 87.0191 12.07 87.1791 12.17C87.3391 12.27 87.4191 12.46 87.4191 12.74C87.4191 13.06 87.2691 13.78 86.9691 14.9C86.7691 15.7 86.6091 16.4 86.4891 17C86.3691 17.6 86.2691 18.34 86.1891 19.22C86.8491 17.5 87.5891 16.1 88.4091 15.02C89.2291 13.94 90.0291 13.17 90.8091 12.71C91.6091 12.25 92.3391 12.02 92.9991 12.02C94.2991 12.02 94.9491 12.67 94.9491 13.97C94.9491 14.75 94.7291 16.16 94.2891 18.2C93.9091 19.94 93.7191 21.09 93.7191 21.65C93.7191 22.45 94.0091 22.85 94.5891 22.85C94.9891 22.85 95.4591 22.61 95.9991 22.13C96.5591 21.63 97.2991 20.83 98.2191 19.73C98.4591 19.45 98.7291 19.31 99.0291 19.31C99.2891 19.31 99.4891 19.43 99.6291 19.67C99.7891 19.91 99.8691 20.24 99.8691 20.66C99.8691 21.46 99.6791 22.08 99.2991 22.52C98.4391 23.58 97.5091 24.45 96.5091 25.13C95.5291 25.81 94.4091 26.15 93.1491 26.15C92.1291 26.15 91.3591 25.86 90.8391 25.28C90.3191 24.68 90.0591 23.82 90.0591 22.7C90.0591 22.14 90.1991 21.14 90.4791 19.7C90.7391 18.44 90.8691 17.57 90.8691 17.09C90.8691 16.77 90.7591 16.61 90.5391 16.61C90.2791 16.61 89.9091 16.95 89.4291 17.63C88.9691 18.29 88.4891 19.17 87.9891 20.27C87.5091 21.37 87.1191 22.53 86.8191 23.75C86.5991 24.69 86.3391 25.33 86.0391 25.67C85.7591 25.99 85.3091 26.15 84.6891 26.15ZM103.022 26.81C101.982 26.81 101.182 26.57 100.622 26.09C100.082 25.61 99.812 25.07 99.812 24.47C99.812 23.95 100.002 23.5 100.382 23.12C100.762 22.74 101.322 22.55 102.062 22.55C102.322 22.55 102.622 22.58 102.962 22.64C103.322 22.68 103.592 22.71 103.772 22.73C103.752 22.21 103.632 21.72 103.412 21.26C103.212 20.8 102.952 20.36 102.632 19.94C102.312 19.5 102.012 19.12 101.732 18.8C101.112 19.98 100.492 20.96 99.872 21.74C99.272 22.52 98.612 23.26 97.892 23.96C97.532 24.32 97.152 24.5 96.752 24.5C96.432 24.5 96.172 24.39 95.972 24.17C95.772 23.93 95.672 23.64 95.672 23.3C95.672 22.9 95.812 22.53 96.092 22.19L96.482 21.71C97.582 20.35 98.412 19.23 98.972 18.35C99.332 17.77 99.692 17.08 100.052 16.28C100.432 15.48 100.922 14.39 101.522 13.01C101.902 12.13 102.692 11.69 103.892 11.69C104.452 11.69 104.842 11.74 105.062 11.84C105.282 11.94 105.392 12.1 105.392 12.32C105.392 12.44 105.352 12.63 105.272 12.89C105.192 13.15 105.082 13.41 104.942 13.67C104.582 14.39 104.402 15 104.402 15.5C104.402 15.8 104.502 16.13 104.702 16.49C104.922 16.85 105.252 17.3 105.692 17.84C106.332 18.68 106.812 19.4 107.132 20C107.472 20.58 107.642 21.22 107.642 21.92C107.642 22.76 107.442 23.56 107.042 24.32C106.662 25.06 106.122 25.66 105.422 26.12C104.722 26.58 103.922 26.81 103.022 26.81Z" fill="black"/>
</svg>
