<svg width="23" height="23" viewBox="0 0 23 23" fill="none" xmlns="http://www.w3.org/2000/svg">
<g clip-path="url(#clip0)">
<path d="M16.2369 13.0111L15.8726 11.5542L14.8285 14.4256C14.7296 14.6978 14.4678 14.8765 14.1783 14.8689C13.8888 14.8617 13.6364 14.6703 13.5512 14.3935L12.3154 10.3772L10.3287 15.344C10.2258 15.6013 9.97696 15.7677 9.7033 15.7677C9.68654 15.7677 9.66965 15.767 9.65276 15.7658C9.35956 15.7438 9.11446 15.5343 9.04712 15.2482L7.7943 9.92358L6.74856 13.0608C6.65683 13.3359 6.39934 13.5215 6.10932 13.5215H3.01416L11.0235 21.5309C11.1551 21.6624 11.3275 21.7282 11.4999 21.7282C11.6724 21.7282 11.8449 21.6625 11.9764 21.5309L19.9857 13.5215H16.8906C16.5814 13.5215 16.3118 13.3111 16.2369 13.0111Z" fill="black"/>
<path d="M7.26834 7.24399C7.36362 6.95811 7.63693 6.76988 7.93813 6.78394C8.23915 6.7976 8.49449 7.00945 8.56353 7.30275L9.87152 12.8618L11.7741 8.10528C11.8802 7.84006 12.1422 7.67057 12.4274 7.68225C12.7128 7.69397 12.9598 7.88435 13.0438 8.15734L14.2499 12.0771L15.3603 9.02366C15.4615 8.74532 15.7315 8.56532 16.0285 8.581C16.3243 8.59636 16.5754 8.80314 16.6472 9.0905L17.4181 12.1739H21.3224C23.6323 9.61344 23.5544 5.6503 21.0886 3.18458C18.5423 0.638317 14.3994 0.638317 11.8531 3.18458L11.5013 3.53636L11.1495 3.18458C9.91613 1.95111 8.27617 1.27185 6.53181 1.27185C4.78744 1.27185 3.14748 1.95111 1.91406 3.18458C-0.551701 5.6503 -0.629595 9.61344 1.68024 12.1739H5.62501L7.26834 7.24399Z" fill="black"/>
<path d="M1.67891 12.1738H0.673828C0.301695 12.1738 0 12.4755 0 12.8477C0 13.2198 0.301695 13.5215 0.673828 13.5215H3.01421L1.91273 12.42C1.83223 12.3395 1.75433 12.2574 1.67891 12.1738Z" fill="black"/>
<path d="M22.3262 12.1738H21.3211C21.2457 12.2574 21.1678 12.3395 21.0873 12.42L19.9858 13.5215H22.3262C22.6983 13.5215 23 13.2198 23 12.8477C23 12.4755 22.6983 12.1738 22.3262 12.1738Z" fill="black"/>
</g>
<defs>
<clipPath id="clip0">
<rect width="23" height="23" fill="white"/>
</clipPath>
</defs>
</svg>
