<svg width="51" height="55" viewBox="0 0 51 55" fill="none" xmlns="http://www.w3.org/2000/svg">
<path d="M44.3316 27.5056C45.0228 26.7636 45.6821 26.0216 46.2652 25.2812C49.8749 20.6895 50.9616 16.5968 49.3172 13.748C48.0335 11.53 45.2722 10.3543 41.3289 10.3543C39.4017 10.3543 37.2235 10.6641 34.915 11.1996C32.8178 4.37877 29.4179 0 25.5 0C21.5805 0 18.1821 4.37877 16.0833 11.2027C13.7764 10.6673 11.5982 10.3575 9.67106 10.3575C5.72615 10.3575 2.96487 11.5316 1.68432 13.7528C0.0415368 16.5999 1.12349 20.6927 4.73476 25.2844C5.31784 26.0264 5.97718 26.7684 6.6667 27.5071C1.81301 32.7328 -0.274628 37.8599 1.68274 41.2536C2.96487 43.4716 5.72297 44.6457 9.66948 44.6457C11.5967 44.6457 13.7749 44.3359 16.0833 43.802C18.1789 50.6228 21.5789 55.0016 25.4984 55.0016C29.4147 55.0016 32.8162 50.6228 34.9118 43.7989C37.2187 44.3359 39.3969 44.6457 41.3257 44.6457C45.269 44.6457 48.0335 43.47 49.314 41.2504C51.2746 37.8583 49.1853 32.7328 44.3316 27.5056ZM47.4838 40.1922C46.3684 42.1227 43.5198 42.5294 41.3273 42.5294C39.5733 42.5294 37.5873 42.2466 35.479 41.7668C35.9525 39.8951 36.302 37.8408 36.5769 35.7038C36.0796 35.8564 35.5601 35.9644 35.0167 35.9644H34.4559C34.1985 37.8567 33.8601 39.6266 33.4533 41.2456C33.0689 41.1376 32.6669 40.9946 32.2745 40.8707C31.5484 41.5507 30.6412 42.0289 29.626 42.2148C30.727 42.6088 31.8233 42.9727 32.8925 43.2761C31.0321 49.312 28.212 52.8869 25.5 52.8869C22.7864 52.8869 19.9679 49.312 18.1058 43.2793C19.1751 42.9727 20.2713 42.6088 21.3755 42.2148C20.3587 42.0289 19.4499 41.5507 18.7255 40.8707C18.3314 40.9946 17.9295 41.1376 17.5434 41.2456C17.1383 39.6234 16.7983 37.8567 16.5425 35.9644H15.9817C15.4351 35.9644 14.9188 35.8564 14.4215 35.7007C14.6963 37.8424 15.0475 39.8967 15.5193 41.7636C13.4126 42.2482 11.4251 42.5294 9.67265 42.5294C7.48015 42.5294 4.63308 42.1227 3.51776 40.1891C2.16254 37.8424 3.84505 33.6193 8.13155 28.9975C8.95135 29.7903 9.83788 30.5751 10.761 31.3473C10.7339 31.1249 10.6942 30.904 10.6942 30.6721V28.4731C10.332 28.1443 9.95545 27.8201 9.61228 27.4881C9.95069 27.1592 10.332 26.8287 10.6942 26.4998V24.3248C10.6942 24.0928 10.734 23.8719 10.7625 23.6495C9.83947 24.4248 8.95771 25.2065 8.15061 25.993C7.52623 25.3209 6.92885 24.6457 6.39979 23.9736C3.40496 20.1652 2.35478 16.824 3.51935 14.8062C4.63308 12.8758 7.48174 12.4706 9.67424 12.4706C11.4267 12.4706 13.4142 12.7518 15.5209 13.2332C15.0475 15.1049 14.6979 17.1592 14.4247 19.2962C14.9204 19.1405 15.4383 19.034 15.9832 19.034H16.5441C16.803 17.1417 17.1399 15.3734 17.545 13.7528C17.9327 13.8608 18.333 14.0038 18.727 14.1277C19.4515 13.4493 20.3603 12.9711 21.3755 12.7836C20.2713 12.388 19.1767 12.0226 18.1074 11.7207C19.9695 5.68796 22.7879 2.11312 25.5016 2.11312C28.2152 2.11312 31.0336 5.68796 32.8941 11.7223C31.8264 12.0257 30.7302 12.3912 29.6244 12.7868C30.6412 12.9743 31.55 13.4509 32.2761 14.1309C32.6701 14.007 33.0704 13.864 33.4565 13.756C33.8632 15.3781 34.2017 17.1449 34.459 19.0372H35.0183C35.5648 19.0372 36.0812 19.1436 36.5769 19.2993C36.3004 17.1592 35.9509 15.1065 35.4806 13.2364C37.5889 12.7518 39.5749 12.4722 41.3289 12.4722C43.5214 12.4722 46.3716 12.8773 47.4853 14.8078C48.6499 16.8271 47.5997 20.1652 44.6049 23.9752C44.0759 24.6489 43.4785 25.3241 42.8509 25.9946C42.0438 25.2113 41.1636 24.4296 40.239 23.6511C40.2676 23.8751 40.3073 24.096 40.3073 24.3263V26.4998C40.6695 26.8303 41.0508 27.1608 41.3892 27.4897C41.0477 27.8186 40.6679 28.1459 40.3073 28.4747V30.6737C40.3073 30.9056 40.2676 31.1296 40.239 31.3537C41.1621 30.5783 42.0502 29.7935 42.8684 28.999C47.1565 33.6225 48.8406 37.8456 47.4838 40.1922Z" fill="black"/>
<path d="M35.2805 23.2698H30.5237C30.0884 23.2698 29.7293 22.9123 29.7293 22.4754V17.7185C29.7293 17.2831 29.3719 16.9241 28.9349 16.9241H22.0619C21.625 16.9241 21.2675 17.2831 21.2675 17.7185V22.4754C21.2675 22.9123 20.9101 23.2698 20.4732 23.2698H15.7148C15.2779 23.2698 14.9204 23.6289 14.9204 24.0642V30.939C14.9204 31.3728 15.2779 31.7334 15.7148 31.7334H20.4732C20.9101 31.7334 21.2675 32.0909 21.2675 32.5278V37.2847C21.2675 37.7185 21.625 38.0791 22.0619 38.0791H28.9349C29.3719 38.0791 29.7293 37.7185 29.7293 37.2847V32.5246C29.7293 32.0877 30.0884 31.7302 30.5237 31.7302H35.2805C35.7174 31.7302 36.0749 31.3728 36.0749 30.9358V24.0626C36.0749 23.6273 35.719 23.2698 35.2805 23.2698Z" fill="#051071"/>
</svg>
