<svg width="18" height="18" viewBox="0 0 18 18" fill="none" xmlns="http://www.w3.org/2000/svg">
<path fill-rule="evenodd" clip-rule="evenodd" d="M7.30701 14.614C3.27146 14.614 0 11.3426 0 7.30701C0 3.27146 3.27146 0 7.30701 0C11.3426 0 14.614 3.27146 14.614 7.30701C14.614 8.99557 14.0412 10.5504 13.0795 11.7877L18 16.7083L16.7083 18L11.7877 13.0795C10.5504 14.0412 8.99557 14.614 7.30701 14.614ZM12.7873 7.30701C12.7873 10.3337 10.3337 12.7873 7.30701 12.7873C4.28035 12.7873 1.82675 10.3337 1.82675 7.30701C1.82675 4.28035 4.28035 1.82675 7.30701 1.82675C10.3337 1.82675 12.7873 4.28035 12.7873 7.30701Z" fill="black"/>
</svg>
