<svg width="50" height="50" viewBox="0 0 50 50" fill="none" xmlns="http://www.w3.org/2000/svg">
<circle r="24.35" transform="matrix(-1 0 0 1 25 25)" stroke="white" stroke-width="1.3"/>
<path d="M18.4182 24.9809L18.7419 24.5754L27.0495 14.1675C27.1474 14.0448 27.1474 13.798 27.0495 13.6753C27.0451 13.6697 27.041 13.6652 27.0374 13.6615C27.0339 13.6652 27.0298 13.6697 27.0254 13.6753C27.0253 13.6753 27.0253 13.6754 27.0253 13.6754L18.1977 24.7347C18.0997 24.8575 18.0997 25.1044 18.1977 25.2271L27.0207 36.2807C27.0235 36.2839 27.0261 36.2867 27.0284 36.2891C27.0326 36.2848 27.0374 36.2794 27.0427 36.2725L18.4182 24.9809ZM18.4182 24.9809L18.7419 25.3864M18.4182 24.9809L18.7419 25.3864M18.7419 25.3864L27.045 35.7887M18.7419 25.3864L27.045 35.7887M27.045 35.7887C27.1378 35.9128 27.137 36.1501 27.0428 36.2725L27.045 35.7887Z" stroke="white" stroke-width="1.3"/>
</svg>
