<svg width="157" height="29" viewBox="0 0 157 29" fill="none" xmlns="http://www.w3.org/2000/svg">
<path d="M12.5979 5.8541C13.1966 4.01148 15.8034 4.01148 16.4021 5.8541L17.3064 8.63729C17.5742 9.46133 18.3421 10.0193 19.2085 10.0193H22.135C24.0724 10.0193 24.878 12.4985 23.3105 13.6373L20.943 15.3574C20.242 15.8667 19.9487 16.7694 20.2165 17.5935L21.1208 20.3766C21.7195 22.2193 19.6105 23.7515 18.0431 22.6127L15.6756 20.8926C14.9746 20.3833 14.0254 20.3833 13.3244 20.8926L10.9569 22.6127C9.38948 23.7515 7.28052 22.2193 7.87923 20.3766L8.78354 17.5935C9.05129 16.7694 8.75797 15.8667 8.057 15.3574L5.68947 13.6373C4.12205 12.4985 4.9276 10.0193 6.86505 10.0193H9.79146C10.6579 10.0193 11.4258 9.46133 11.6936 8.63729L12.5979 5.8541Z" fill="#FFE600"/>
<path d="M44.5979 5.8541C45.1966 4.01148 47.8034 4.01148 48.4021 5.8541L49.3064 8.63729C49.5742 9.46133 50.3421 10.0193 51.2085 10.0193H54.135C56.0724 10.0193 56.878 12.4985 55.3105 13.6373L52.943 15.3574C52.242 15.8667 51.9487 16.7694 52.2165 17.5935L53.1208 20.3766C53.7195 22.2193 51.6105 23.7515 50.0431 22.6127L47.6756 20.8926C46.9746 20.3833 46.0254 20.3833 45.3244 20.8926L42.9569 22.6127C41.3895 23.7515 39.2805 22.2193 39.8792 20.3766L40.7835 17.5935C41.0513 16.7694 40.758 15.8667 40.057 15.3574L37.6895 13.6373C36.122 12.4985 36.9276 10.0193 38.865 10.0193H41.7915C42.6579 10.0193 43.4258 9.46133 43.6936 8.63729L44.5979 5.8541Z" fill="#FFE600"/>
<path d="M76.5979 5.8541C77.1966 4.01148 79.8034 4.01148 80.4021 5.8541L81.3064 8.63729C81.5742 9.46133 82.3421 10.0193 83.2085 10.0193H86.135C88.0724 10.0193 88.878 12.4985 87.3105 13.6373L84.943 15.3574C84.242 15.8667 83.9487 16.7694 84.2165 17.5935L85.1208 20.3766C85.7195 22.2193 83.6105 23.7515 82.0431 22.6127L79.6756 20.8926C78.9746 20.3833 78.0254 20.3833 77.3244 20.8926L74.9569 22.6127C73.3895 23.7515 71.2805 22.2193 71.8792 20.3766L72.7835 17.5935C73.0513 16.7694 72.758 15.8667 72.057 15.3574L69.6895 13.6373C68.122 12.4985 68.9276 10.0193 70.865 10.0193H73.7915C74.6579 10.0193 75.4258 9.46133 75.6936 8.63729L76.5979 5.8541Z" fill="#FFE600"/>
<path d="M108.598 5.8541C109.197 4.01148 111.803 4.01148 112.402 5.8541L113.306 8.63729C113.574 9.46133 114.342 10.0193 115.209 10.0193H118.135C120.072 10.0193 120.878 12.4985 119.311 13.6373L116.943 15.3574C116.242 15.8667 115.949 16.7694 116.216 17.5935L117.121 20.3766C117.719 22.2193 115.611 23.7515 114.043 22.6127L111.676 20.8926C110.975 20.3833 110.025 20.3833 109.324 20.8926L106.957 22.6127C105.389 23.7515 103.281 22.2193 103.879 20.3766L104.784 17.5935C105.051 16.7694 104.758 15.8667 104.057 15.3574L101.689 13.6373C100.122 12.4985 100.928 10.0193 102.865 10.0193H105.791C106.658 10.0193 107.426 9.46133 107.694 8.63729L108.598 5.8541Z" fill="#FFE600"/>
<path d="M140.598 5.8541C141.197 4.01148 143.803 4.01148 144.402 5.8541L145.306 8.63729C145.574 9.46133 146.342 10.0193 147.209 10.0193H150.135C152.072 10.0193 152.878 12.4985 151.311 13.6373L148.943 15.3574C148.242 15.8667 147.949 16.7694 148.216 17.5935L149.121 20.3766C149.719 22.2193 147.611 23.7515 146.043 22.6127L143.676 20.8926C142.975 20.3833 142.025 20.3833 141.324 20.8926L138.957 22.6127C137.389 23.7515 135.281 22.2193 135.879 20.3766L136.784 17.5935C137.051 16.7694 136.758 15.8667 136.057 15.3574L133.689 13.6373C132.122 12.4985 132.928 10.0193 134.865 10.0193H137.791C138.658 10.0193 139.426 9.46133 139.694 8.63729L140.598 5.8541Z" fill="#FFE600"/>
</svg>
