<svg width="286" height="40" viewBox="0 0 286 40" fill="none" xmlns="http://www.w3.org/2000/svg">
<path d="M28.1797 8.22656L28.082 8.20703L18.8828 31H16.3242L7.125 8.22656L7.02734 8.24609L7.41797 19.75V27.9922L10.6016 28.5391V31H0.386719V28.5391L3.57031 27.9922V5.58984L0.386719 5.04297V2.5625H3.57031H8.49219L17.5547 25.668H17.6719L26.7148 2.5625H34.8398V5.04297L31.6562 5.58984V27.9922L34.8398 28.5391V31H24.625V28.5391L27.8086 27.9922V19.75L28.1797 8.22656ZM58.043 12.3477L56.1484 12.6406L48.1016 34.2422C47.5677 35.6615 46.7995 36.8984 45.7969 37.9531C44.7943 39.0078 43.4466 39.5352 41.7539 39.5352C41.4544 39.5352 41.0638 39.4961 40.582 39.418C40.1003 39.3529 39.7292 39.2878 39.4688 39.2227L39.8594 36.1953C39.7812 36.1823 40.0091 36.1953 40.543 36.2344C41.0898 36.2734 41.4349 36.293 41.5781 36.293C42.3984 36.293 43.0625 35.9349 43.5703 35.2188C44.0781 34.5156 44.5208 33.7018 44.8984 32.7773L45.8164 30.5898L38.8438 12.6602L36.9102 12.3477V9.86719H45.4453V12.3477L43.0625 12.7383L46.7148 23.168L47.418 25.8633H47.5352L51.9297 12.7383L49.5273 12.3477V9.86719H58.043V12.3477ZM82.9453 27.7773C82.112 28.6497 80.8815 29.4766 79.2539 30.2578C77.6263 31.026 75.5104 31.4102 72.9062 31.4102C69.1042 31.4102 65.9987 30.0755 63.5898 27.4062C61.194 24.737 59.9961 21.2734 59.9961 17.0156V16.5469C59.9961 12.263 61.181 8.79297 63.5508 6.13672C65.9336 3.48047 69.0977 2.15234 73.043 2.15234C75.1523 2.15234 77.0013 2.48438 78.5898 3.14844C80.1914 3.79948 81.5391 4.66536 82.6328 5.74609V10.9023H79.9375L79 6.97656C78.362 6.45573 77.5872 6.02604 76.6758 5.6875C75.7773 5.34896 74.6966 5.17969 73.4336 5.17969C70.3607 5.17969 67.9909 6.23438 66.3242 8.34375C64.6706 10.4401 63.8438 13.1615 63.8438 16.5078V17.0156C63.8438 20.4141 64.6445 23.1615 66.2461 25.2578C67.8607 27.3542 70.0807 28.4023 72.9062 28.4023C74.4557 28.4023 75.7253 28.2396 76.7148 27.9141C77.7044 27.5885 78.4987 27.2305 79.0977 26.8398V20.6094L74.4297 20.4141V17.582H82.9453V27.7773ZM101.559 31C101.441 30.4271 101.35 29.9128 101.285 29.457C101.22 29.0013 101.174 28.5456 101.148 28.0898C100.406 29.0404 99.4753 29.8346 98.3555 30.4727C97.2487 31.0977 96.0638 31.4102 94.8008 31.4102C92.6003 31.4102 90.9271 30.8763 89.7812 29.8086C88.6354 28.7279 88.0625 27.2109 88.0625 25.2578C88.0625 23.2526 88.8698 21.7096 90.4844 20.6289C92.112 19.5352 94.3385 18.9883 97.1641 18.9883H101.129V16.5273C101.129 15.2904 100.738 14.3138 99.957 13.5977C99.1758 12.8685 98.0885 12.5039 96.6953 12.5039C95.7318 12.5039 94.8789 12.6276 94.1367 12.875C93.4076 13.1224 92.8151 13.4609 92.3594 13.8906L91.9492 16.1172H88.9805V12.0156C89.944 11.2474 91.1094 10.6354 92.4766 10.1797C93.8438 9.71094 95.3281 9.47656 96.9297 9.47656C99.3255 9.47656 101.266 10.0885 102.75 11.3125C104.234 12.5365 104.977 14.2878 104.977 16.5664V26.7422C104.977 27.0156 104.977 27.2826 104.977 27.543C104.99 27.8034 105.009 28.0638 105.035 28.3242L106.598 28.5391V31H101.559ZM95.3672 28.1875C96.6432 28.1875 97.8086 27.8815 98.8633 27.2695C99.918 26.6576 100.673 25.9219 101.129 25.0625V21.5859H97.0273C95.4518 21.5859 94.2018 21.9505 93.2773 22.6797C92.3659 23.4089 91.9102 24.2943 91.9102 25.3359C91.9102 26.2604 92.1966 26.9701 92.7695 27.4648C93.3424 27.9466 94.2083 28.1875 95.3672 28.1875ZM109.801 12.3477V9.86719H116.422L116.793 12.9336C117.392 11.8529 118.128 11.0065 119 10.3945C119.885 9.78255 120.895 9.47656 122.027 9.47656C122.327 9.47656 122.633 9.5026 122.945 9.55469C123.271 9.59375 123.518 9.63932 123.688 9.69141L123.18 13.2656L120.992 13.1484C119.977 13.1484 119.124 13.3893 118.434 13.8711C117.743 14.3398 117.21 15.0039 116.832 15.8633V27.9922L120.016 28.5391V31H109.801V28.5391L112.984 27.9922V12.8945L109.801 12.3477ZM140.211 28.4805C139.521 29.444 138.674 30.1732 137.672 30.668C136.682 31.1628 135.53 31.4102 134.215 31.4102C131.637 31.4102 129.618 30.4792 128.16 28.6172C126.715 26.7422 125.992 24.2812 125.992 21.2344V20.8242C125.992 17.4258 126.715 14.6849 128.16 12.6016C129.618 10.5182 131.65 9.47656 134.254 9.47656C135.504 9.47656 136.604 9.71094 137.555 10.1797C138.518 10.6354 139.339 11.2995 140.016 12.1719V3.55859L136.832 3.01172V0.53125H140.016H143.863V27.9922L147.047 28.5391V31H140.523L140.211 28.4805ZM129.84 21.2344C129.84 23.3568 130.276 25.0625 131.148 26.3516C132.021 27.6406 133.368 28.2852 135.191 28.2852C136.337 28.2852 137.301 28.0247 138.082 27.5039C138.863 26.9831 139.508 26.2474 140.016 25.2969V15.4922C139.521 14.6068 138.876 13.9036 138.082 13.3828C137.288 12.862 136.337 12.6016 135.23 12.6016C133.395 12.6016 132.034 13.3633 131.148 14.8867C130.276 16.4102 129.84 18.3893 129.84 20.8242V21.2344ZM159.645 31.4102C156.702 31.4102 154.358 30.4336 152.613 28.4805C150.882 26.5143 150.016 23.9688 150.016 20.8438V19.9844C150.016 16.9766 150.908 14.4766 152.691 12.4844C154.488 10.4792 156.611 9.47656 159.059 9.47656C161.897 9.47656 164.046 10.3359 165.504 12.0547C166.975 13.7734 167.711 16.0651 167.711 18.9297V21.332H154L153.941 21.4297C153.98 23.4609 154.495 25.1341 155.484 26.4492C156.474 27.7513 157.861 28.4023 159.645 28.4023C160.947 28.4023 162.086 28.2201 163.062 27.8555C164.052 27.4779 164.905 26.9635 165.621 26.3125L167.125 28.8125C166.37 29.5417 165.367 30.1602 164.117 30.668C162.88 31.1628 161.389 31.4102 159.645 31.4102ZM159.059 12.5039C157.77 12.5039 156.669 13.0508 155.758 14.1445C154.846 15.2253 154.286 16.5859 154.078 18.2266L154.117 18.3242H163.863V17.8164C163.863 16.306 163.46 15.043 162.652 14.0273C161.845 13.0117 160.647 12.5039 159.059 12.5039ZM170.953 28.5391L174.137 27.9922V12.8945L170.953 12.3477V9.86719H177.574L177.848 13.0117C178.551 11.8919 179.43 11.026 180.484 10.4141C181.552 9.78906 182.763 9.47656 184.117 9.47656C186.396 9.47656 188.16 10.1471 189.41 11.4883C190.66 12.8164 191.285 14.8737 191.285 17.6602V27.9922L194.469 28.5391V31H184.254V28.5391L187.438 27.9922V17.7383C187.438 15.8763 187.066 14.5547 186.324 13.7734C185.595 12.9922 184.475 12.6016 182.965 12.6016C181.858 12.6016 180.875 12.8685 180.016 13.4023C179.169 13.9362 178.492 14.6654 177.984 15.5898V27.9922L181.168 28.5391V31H170.953V28.5391Z" fill="black"/>
<path d="M202.203 31H198.355V27.0547H202.203V31ZM216.402 28.4023C217.678 28.4023 218.798 28.0117 219.762 27.2305C220.738 26.4362 221.227 25.4661 221.227 24.3203H224.684L224.723 24.4375C224.788 26.2604 223.974 27.8815 222.281 29.3008C220.602 30.707 218.642 31.4102 216.402 31.4102C213.329 31.4102 210.979 30.4076 209.352 28.4023C207.737 26.3971 206.93 23.8776 206.93 20.8438V20.0234C206.93 17.0156 207.743 14.5091 209.371 12.5039C210.999 10.4857 213.342 9.47656 216.402 9.47656C218.095 9.47656 219.612 9.75651 220.953 10.3164C222.307 10.8763 223.427 11.6445 224.312 12.6211L224.488 17.3086H221.422L220.582 13.9883C220.126 13.5456 219.54 13.1875 218.824 12.9141C218.108 12.6406 217.301 12.5039 216.402 12.5039C214.384 12.5039 212.939 13.2331 212.066 14.6914C211.207 16.1367 210.777 17.9141 210.777 20.0234V20.8438C210.777 23.0052 211.207 24.8086 212.066 26.2539C212.926 27.6862 214.371 28.4023 216.402 28.4023ZM228.492 20.2383C228.492 17.1133 229.339 14.5417 231.031 12.5234C232.724 10.4922 235.022 9.47656 237.926 9.47656C240.842 9.47656 243.147 10.4857 244.84 12.5039C246.546 14.5221 247.398 17.1003 247.398 20.2383V20.668C247.398 23.819 246.552 26.3971 244.859 28.4023C243.167 30.4076 240.868 31.4102 237.965 31.4102C235.035 31.4102 232.724 30.4076 231.031 28.4023C229.339 26.3841 228.492 23.806 228.492 20.668V20.2383ZM232.34 20.668C232.34 22.9076 232.809 24.7565 233.746 26.2148C234.697 27.6732 236.103 28.4023 237.965 28.4023C239.788 28.4023 241.174 27.6732 242.125 26.2148C243.076 24.7565 243.551 22.9076 243.551 20.668V20.2383C243.551 18.0247 243.076 16.1823 242.125 14.7109C241.174 13.2396 239.775 12.5039 237.926 12.5039C236.077 12.5039 234.684 13.2396 233.746 14.7109C232.809 16.1823 232.34 18.0247 232.34 20.2383V20.668ZM250.172 28.5391L253.355 27.9922V12.8945L250.172 12.3477V9.86719H256.812L257.066 12.6211C257.743 11.6185 258.616 10.8438 259.684 10.2969C260.751 9.75 261.988 9.47656 263.395 9.47656C264.801 9.47656 266.005 9.80208 267.008 10.4531C268.023 11.1042 268.785 12.0807 269.293 13.3828C269.957 12.1849 270.836 11.2344 271.93 10.5312C273.023 9.82812 274.299 9.47656 275.758 9.47656C277.919 9.47656 279.625 10.2188 280.875 11.7031C282.125 13.1745 282.75 15.3945 282.75 18.3633V27.9922L285.934 28.5391V31H275.699V28.5391L278.883 27.9922V18.3242C278.883 16.2409 278.525 14.7695 277.809 13.9102C277.092 13.0378 276.031 12.6016 274.625 12.6016C273.284 12.6016 272.203 13.0768 271.383 14.0273C270.576 14.9648 270.107 16.1497 269.977 17.582V27.9922L273.16 28.5391V31H262.945V28.5391L266.129 27.9922V18.3242C266.129 16.3451 265.758 14.8997 265.016 13.9883C264.286 13.0638 263.225 12.6016 261.832 12.6016C260.66 12.6016 259.697 12.8424 258.941 13.3242C258.186 13.806 257.607 14.4831 257.203 15.3555V27.9922L260.387 28.5391V31H250.172V28.5391Z" fill="#2D731E"/>
</svg>
