<svg width="27" height="27" viewBox="0 0 27 27" fill="none" xmlns="http://www.w3.org/2000/svg">
<g clip-path="url(#clip0)">
<path d="M19.814 17.4287C21.1427 15.6143 21.9374 13.3857 21.9374 10.9697C21.9374 4.92174 17.0166 0.000961304 10.9687 0.000961304C4.92073 0.000961304 0 4.92174 0 10.9697C0 17.0176 4.92078 21.9384 10.9687 21.9384C13.3847 21.9384 15.6136 21.1436 17.4279 19.8149L24.6138 27.0008L27 24.6146C27 24.6145 19.814 17.4287 19.814 17.4287ZM10.9687 18.5634C6.78129 18.5634 3.37501 15.1571 3.37501 10.9697C3.37501 6.78225 6.78129 3.37597 10.9687 3.37597C15.1562 3.37597 18.5624 6.78225 18.5624 10.9697C18.5624 15.1571 15.1561 18.5634 10.9687 18.5634Z" fill="white"/>
</g>
<defs>
<clipPath id="clip0">
<rect width="27" height="27" fill="white"/>
</clipPath>
</defs>
</svg>
