<svg width="34" height="35" viewBox="0 0 34 35" fill="none" xmlns="http://www.w3.org/2000/svg">
<path d="M19.7411 34.7722C19.5995 34.796 19.4574 34.8179 19.3147 34.8379C19.4574 34.8179 19.5995 34.796 19.7411 34.7722Z" fill="black"/>
<path d="M20.081 34.7124C20.0133 34.7252 19.9456 34.737 19.8779 34.749C19.9456 34.737 20.0133 34.7252 20.081 34.7124Z" fill="black"/>
<path d="M18.9349 34.8865C18.7692 34.9057 18.6024 34.9228 18.4351 34.9372C18.6024 34.9228 18.7692 34.9057 18.9349 34.8865Z" fill="black"/>
<path d="M19.2614 34.8455C19.1818 34.8564 19.1016 34.8666 19.0217 34.8762C19.1016 34.8666 19.1818 34.8564 19.2614 34.8455Z" fill="black"/>
<path d="M20.544 34.6179C20.4843 34.631 20.4244 34.6441 20.3645 34.6566C20.4244 34.6441 20.4843 34.631 20.544 34.6179Z" fill="black"/>
<path d="M21.6926 34.3242C21.6443 34.3384 21.5961 34.3517 21.5479 34.3656C21.5961 34.3517 21.6443 34.3384 21.6926 34.3242Z" fill="black"/>
<path d="M21.3452 34.4219C21.2928 34.436 21.2402 34.4504 21.1875 34.4641C21.2402 34.4504 21.2928 34.4363 21.3452 34.4219Z" fill="black"/>
<path d="M20.8907 34.5388C20.8352 34.5522 20.7792 34.5647 20.7231 34.5775C20.7792 34.5647 20.8352 34.5522 20.8907 34.5388Z" fill="black"/>
<path d="M18.4296 34.9377C18.3401 34.9455 18.2506 34.9524 18.1609 34.9586C18.2506 34.9524 18.3401 34.9455 18.4296 34.9377Z" fill="black"/>
<path d="M34 17.5C34 7.83649 26.3874 0 17 0C7.61259 0 0 7.83649 0 17.5C0 27.1635 7.61259 35 17 35C17.0999 35 17.1992 34.9979 17.2988 34.996V21.373H13.6465V16.9913H17.2988V13.7669C17.2988 10.0275 19.5164 7.99217 22.7569 7.99217C24.3086 7.99217 25.6424 8.11127 26.0312 8.16441V12.0726H23.7968C22.0339 12.0726 21.6925 12.9351 21.6925 14.2006V16.9913H25.9078L25.3584 21.373H21.6925V34.3239C28.7983 32.2269 34 25.4879 34 17.5Z" fill="#ABABAB"/>
<path d="M18.1231 34.9611C17.9462 34.9728 17.7685 34.9822 17.5903 34.9883C17.7685 34.9822 17.9462 34.9728 18.1231 34.9611Z" fill="black"/>
<path d="M17.5813 34.9888C17.4874 34.992 17.3932 34.9944 17.2991 34.996C17.3932 34.9944 17.4874 34.992 17.5813 34.9888Z" fill="black"/>
</svg>
