<svg width="33" height="35" viewBox="0 0 33 35" fill="none" xmlns="http://www.w3.org/2000/svg">
<path d="M16.5 0C7.38869 0 0 7.83649 0 17.5C0 27.1635 7.38869 35 16.5 35C25.6113 35 33 27.1635 33 17.5C33 7.83649 25.6113 0 16.5 0ZM11.7053 26.4551H7.68679V13.6326H11.7053V26.4551ZM9.69617 11.8817H9.66998C8.3215 11.8817 7.44937 10.8972 7.44937 9.66671C7.44937 8.40847 8.34819 7.45117 9.72285 7.45117C11.0975 7.45117 11.9435 8.40847 11.9697 9.66671C11.9697 10.8972 11.0975 11.8817 9.69617 11.8817ZM26.1952 26.4551H22.1772V19.5954C22.1772 17.8714 21.5953 16.6957 20.1413 16.6957C19.0313 16.6957 18.3701 17.4888 18.0796 18.2544C17.9734 18.5283 17.9474 18.9112 17.9474 19.2944V26.4551H13.9292C13.9292 26.4551 13.9818 14.8356 13.9292 13.6326H17.9474V15.4482C18.4814 14.5744 19.4369 13.3317 21.5689 13.3317C24.2127 13.3317 26.1952 15.1643 26.1952 19.1027V26.4551Z" fill="#ABABAB"/>
</svg>
