<svg width="55" height="55" viewBox="0 0 55 55" fill="none" xmlns="http://www.w3.org/2000/svg">
<circle cx="27.5" cy="27.5" r="27" stroke="#D8D8D8"/>
<path d="M27.3077 25.006C29.0945 25.006 30.6415 24.3652 31.9059 23.1008C33.1698 21.8366 33.8109 20.2898 33.8109 18.5028C33.8109 16.7164 33.17 15.1694 31.9056 13.9048C30.6413 12.6408 29.0942 12 27.3077 12C25.5207 12 23.9739 12.6408 22.7097 13.905C21.4455 15.1692 20.8044 16.7162 20.8044 18.5028C20.8044 20.2898 21.4455 21.8368 22.7097 23.101C23.9743 24.365 25.5213 25.006 27.3077 25.006ZM23.8286 15.0238C24.7987 14.0538 25.9366 13.5822 27.3077 13.5822C28.6786 13.5822 29.8167 14.0538 30.7869 15.0238C31.7569 15.994 32.2286 17.1321 32.2286 18.5028C32.2286 19.8739 31.7569 21.0118 30.7869 21.982C29.8167 22.9522 28.6786 23.4238 27.3077 23.4238C25.937 23.4238 24.7991 22.952 23.8286 21.982C22.8584 21.012 22.3867 19.8739 22.3867 18.5028C22.3867 17.1321 22.8584 15.994 23.8286 15.0238Z" fill="#BBBBBB"/>
<path d="M38.6865 32.7616C38.65 32.2355 38.5763 31.6616 38.4677 31.0556C38.3581 30.445 38.217 29.8679 38.0481 29.3403C37.8734 28.795 37.6363 28.2566 37.3428 27.7406C37.0385 27.205 36.6809 26.7386 36.2797 26.3548C35.86 25.9534 35.3463 25.6306 34.7522 25.3951C34.1602 25.1609 33.5041 25.0423 32.8023 25.0423C32.5267 25.0423 32.2601 25.1553 31.7453 25.4905C31.4285 25.6971 31.0579 25.9361 30.6443 26.2003C30.2906 26.4257 29.8115 26.6368 29.2196 26.828C28.6422 27.0148 28.056 27.1096 27.4771 27.1096C26.8987 27.1096 26.3124 27.0148 25.7346 26.828C25.1434 26.6371 24.6641 26.4259 24.311 26.2006C23.9013 25.9387 23.5305 25.6998 23.2089 25.4903C22.6946 25.1551 22.428 25.042 22.1524 25.042C21.4504 25.042 20.7945 25.1609 20.2027 25.3953C19.609 25.6304 19.095 25.9532 18.675 26.355C18.2738 26.739 17.9161 27.2052 17.6121 27.7406C17.319 28.2566 17.0817 28.7948 16.907 29.3405C16.7383 29.8681 16.5972 30.445 16.4876 31.0556C16.3788 31.6608 16.3053 32.2349 16.2688 32.7623C16.233 33.2779 16.2148 33.8145 16.2148 34.3567C16.2148 35.7661 16.6629 36.9071 17.5464 37.7485C18.419 38.5789 19.5734 38.9999 20.9776 38.9999H33.9783C35.3821 38.9999 36.5365 38.5789 37.4093 37.7485C38.293 36.9077 38.7411 35.7663 38.7411 34.3564C38.7409 33.8124 38.7225 33.2758 38.6865 32.7616ZM36.3184 36.6022C35.7418 37.151 34.9763 37.4177 33.9781 37.4177H20.9776C19.9792 37.4177 19.2137 37.151 18.6373 36.6024C18.0719 36.0641 17.7971 35.3294 17.7971 34.3567C17.7971 33.8507 17.8138 33.3512 17.8471 32.8716C17.8797 32.4012 17.9462 31.8843 18.0449 31.3351C18.1423 30.7928 18.2663 30.2838 18.4138 29.8229C18.5553 29.3811 18.7484 28.9436 18.9877 28.5221C19.2162 28.1204 19.479 27.7758 19.7691 27.4981C20.0404 27.2383 20.3823 27.0258 20.7852 26.8663C21.1579 26.7188 21.5767 26.6381 22.0313 26.6259C22.0867 26.6554 22.1854 26.7116 22.3452 26.8159C22.6705 27.0278 23.0454 27.2697 23.4598 27.5344C23.927 27.8322 24.529 28.1013 25.2481 28.3334C25.9833 28.5711 26.7331 28.6918 27.4773 28.6918C28.2216 28.6918 28.9716 28.5711 29.7064 28.3336C30.4261 28.101 31.0278 27.8322 31.4957 27.5339C31.9198 27.2629 32.2842 27.028 32.6095 26.8159C32.7693 26.7118 32.868 26.6554 32.9234 26.6259C33.3782 26.6381 33.797 26.7188 34.1699 26.8663C34.5726 27.0258 34.9145 27.2386 35.1858 27.4981C35.4759 27.7756 35.7387 28.1202 35.9672 28.5223C36.2067 28.9436 36.4 29.3813 36.5413 29.8227C36.689 30.2842 36.8132 30.793 36.9104 31.3349C37.0089 31.8851 37.0756 32.4022 37.1082 32.8719V32.8723C37.1417 33.35 37.1586 33.8493 37.1588 34.3567C37.1586 35.3296 36.8838 36.0641 36.3184 36.6022Z" fill="#BBBBBB"/>
</svg>
