<svg width="50" height="50" viewBox="0 0 50 50" fill="none" xmlns="http://www.w3.org/2000/svg">
<circle cx="25" cy="25" r="20.5" stroke="#FF4F32"/>
<circle cx="25" cy="25" r="24" stroke="#FF4F32" stroke-width="2"/>
<path d="M26.9451 23.805C34.3894 22.9746 39.7712 16.4278 40 16.1446L39.217 15.5107C39.1636 15.5767 33.892 21.981 26.8882 22.7973C26.6569 22.2531 26.1233 21.8742 25.5 21.8742C24.8767 21.8742 24.3431 22.2531 24.1118 22.7973C17.1075 21.981 11.8364 15.5767 11.783 15.5107L11 16.1446C11.2293 16.4278 16.6106 22.9741 24.0549 23.8045C24.1909 24.2716 24.5431 24.643 25.0022 24.8047L25.0057 26.4272C24.1254 26.5048 23.2855 26.788 22.5372 27.2631L22.1764 27.5115C22.1759 27.5115 22.1759 27.512 22.1754 27.512L21.7345 27.8849C20.6144 28.9254 19.9574 30.4038 19.9574 31.9466C19.9574 33.5102 20.6003 34.9598 21.734 36.0079L22.1749 36.3812C22.1749 36.3812 22.1754 36.3817 22.1759 36.3817L22.5372 36.6302C23.425 37.193 24.4404 37.4893 25.5005 37.4893C28.5565 37.4893 31.0431 35.0026 31.0431 31.9466C31.0431 29.0635 28.8296 26.6902 26.0134 26.4302L26.0099 24.8012C26.4609 24.6369 26.8091 24.2671 26.9451 23.805ZM24.9956 23.3692C25.0082 23.1006 25.2345 22.8819 25.5 22.8819C25.7655 22.8819 26.0039 23.1006 26.0039 23.3692V23.3858C26.0039 23.6609 25.7781 23.8872 25.5 23.8897C25.2224 23.8897 24.9961 23.6634 24.9956 23.3692ZM22.8108 34.9301L22.444 35.2969C21.4992 34.4373 20.9651 33.2386 20.9651 31.9466C20.9651 30.6507 21.4992 29.4514 22.444 28.5954L23.158 29.3094C23.1121 29.3497 23.0713 29.394 23.028 29.4368C22.9947 29.4696 22.96 29.5008 22.9282 29.5346C22.8456 29.6218 22.768 29.7135 22.6954 29.8082C22.6843 29.8223 22.6718 29.8354 22.6612 29.8495C22.579 29.9599 22.505 30.0752 22.4369 30.1942C22.4168 30.2289 22.4002 30.2657 22.3815 30.301C22.3362 30.3871 22.2928 30.4743 22.255 30.5645C22.2359 30.6104 22.2188 30.6567 22.2011 30.7031C22.1694 30.7877 22.1412 30.8729 22.116 30.96C22.1019 31.0089 22.0883 31.0573 22.0762 31.1067C22.0535 31.1994 22.0364 31.2941 22.0212 31.3893C22.0142 31.4337 22.0056 31.477 22.0001 31.5214C21.9835 31.6619 21.9729 31.803 21.9729 31.9466C21.9729 32.0902 21.9835 32.2313 22.0001 32.3714C22.0051 32.4162 22.0142 32.4596 22.0212 32.5039C22.0364 32.5986 22.0535 32.6929 22.0757 32.7851C22.0878 32.835 22.1019 32.8843 22.116 32.9332C22.1407 33.0194 22.1689 33.104 22.2001 33.1877C22.2178 33.2355 22.2354 33.2829 22.2556 33.3298C22.2928 33.4174 22.3347 33.5021 22.3785 33.5857C22.3987 33.624 22.4163 33.6628 22.4374 33.7001C22.505 33.818 22.578 33.9324 22.6592 34.0417C22.6728 34.0599 22.6889 34.0765 22.7025 34.0942C22.7725 34.1848 22.8466 34.273 22.9257 34.3567C22.959 34.3914 22.9942 34.4242 23.029 34.4579C23.0718 34.4998 23.1121 34.5436 23.1575 34.5834L22.8108 34.9301ZM24.1909 29.7966L24.1929 29.7956C24.5905 29.5512 25.0299 29.4278 25.5 29.4278C26.8892 29.4278 28.0194 30.558 28.0194 31.9471C28.0194 33.3363 26.8892 34.4665 25.5 34.4665C25.0299 34.466 24.5895 34.3421 24.1889 34.0957C23.4321 33.6366 22.9806 32.833 22.9806 31.9466C22.9806 31.8358 22.9877 31.7264 23.0013 31.6186C23.098 30.8648 23.5268 30.1997 24.1909 29.7966ZM30.0349 31.9466C30.0349 34.4469 28.0002 36.4815 25.5 36.4815C24.7099 36.4815 23.9491 36.2805 23.2709 35.896L23.6306 35.5357L24.0196 35.1467C24.0337 35.1533 24.0483 35.1578 24.0629 35.1639C24.1002 35.1805 24.1385 35.1936 24.1758 35.2092C24.2751 35.2495 24.3754 35.2863 24.4776 35.3176C24.525 35.3322 24.5729 35.3453 24.6207 35.3574C24.721 35.3831 24.8223 35.4042 24.9246 35.4209C24.9694 35.4284 25.0133 35.437 25.0586 35.443C25.2047 35.4617 25.3514 35.4733 25.5 35.4733C27.445 35.4733 29.0271 33.8911 29.0271 31.9461C29.0271 30.0012 27.445 28.419 25.5 28.419C25.3519 28.419 25.2047 28.4311 25.0591 28.4492C25.0133 28.4548 24.9689 28.4639 24.9236 28.4714C24.8223 28.488 24.722 28.5087 24.6228 28.5344C24.5734 28.547 24.5245 28.5606 24.4761 28.5752C24.3769 28.6054 24.2796 28.6407 24.1839 28.68C24.1431 28.6966 24.1017 28.7108 24.0614 28.7289C24.0478 28.7349 24.0337 28.739 24.0201 28.7455L23.2709 27.9968C23.9496 27.6123 24.7099 27.4113 25.5 27.4113C28.0002 27.4118 30.0349 29.4464 30.0349 31.9466Z" fill="#FF4F32"/>
<path d="M32.9098 32.5965L32.1973 33.3091L33.2048 34.3167L33.9174 33.6041L32.9098 32.5965Z" fill="#FF4F32"/>
<path d="M33.2025 28.5656L32.1949 29.5732L32.9075 30.2858L33.9151 29.2782L33.2025 28.5656Z" fill="#FF4F32"/>
<path d="M35.0736 30.9439H33.562V31.9517H35.0736V30.9439Z" fill="#FF4F32"/>
<path d="M17.7939 28.567L17.0813 29.2796L18.0889 30.2872L18.8015 29.5746L17.7939 28.567Z" fill="#FF4F32"/>
<path d="M18.0888 32.5964L17.0812 33.604L17.7938 34.3166L18.8013 33.309L18.0888 32.5964Z" fill="#FF4F32"/>
<path d="M17.438 30.9439H15.9264V31.9517H17.438V30.9439Z" fill="#FF4F32"/>
<path d="M25.5 29.9296V30.9374C26.0558 30.9374 26.5077 31.4478 26.5077 31.9517H27.5155C27.5155 30.9439 26.6115 29.9296 25.5 29.9296Z" fill="#FF4F32"/>
</svg>
