<svg width="70" height="70" viewBox="0 0 70 70" fill="none" xmlns="http://www.w3.org/2000/svg">
<g clip-path="url(#clip0)">
<path d="M68.536 32.3827H64.7235V21.2209C64.7213 20.4214 64.0735 19.7736 63.274 19.7714H57.3743V10.2766C57.3709 7.47601 55.1014 5.20652 52.3008 5.20312H8.69745C3.89573 5.20709 0.00396369 9.09886 0 13.9006V56.0832C0.00396369 60.8849 3.89573 64.7767 8.69745 64.7807H63.3612C64.1607 64.7784 64.8085 64.1306 64.8108 63.3311V51.7345H68.5502C69.3503 51.7322 69.9975 51.0845 69.9998 50.2849V33.8322C69.9907 33.0299 69.3384 32.3838 68.536 32.3827ZM2.89915 13.9006C2.89802 10.6979 5.4948 8.10171 8.69745 8.10228H52.3008C52.8778 8.10171 53.431 8.33047 53.8393 8.73816C54.247 9.14642 54.4757 9.69964 54.4752 10.2766V19.7714H8.69745C5.4948 19.7725 2.89802 17.1757 2.89915 13.9731V13.9006ZM61.8969 61.8815H8.69745C5.4948 61.8827 2.89802 59.2859 2.89915 56.0832V20.4525C4.49142 21.8834 6.55706 22.6739 8.69745 22.6705H61.8391V32.3827H53.6343C49.6321 32.3844 46.3881 35.6284 46.3864 39.6305V44.5013C46.3881 48.5035 49.6321 51.7475 53.6343 51.7492H61.9116V61.8815H61.8969ZM67.0865 48.8354H53.6196C51.221 48.8286 49.2782 46.8858 49.2708 44.4866V39.6305C49.2782 37.2319 51.221 35.2892 53.6196 35.2818H62.8244C63.1166 35.3786 63.4314 35.3786 63.7236 35.2818H67.0865V48.8354Z" fill="#FFF23D"/>
<path d="M10.1468 15.3952H47.2271C48.0278 15.3952 48.6767 14.7463 48.6767 13.9457C48.6767 13.145 48.0278 12.4961 47.2271 12.4961H10.1468C9.34618 12.4961 8.69727 13.145 8.69727 13.9457C8.69727 14.7463 9.34618 15.3952 10.1468 15.3952Z" fill="#FFF23D"/>
<path d="M55.0697 38.1816C54.2702 38.1839 53.6224 38.8317 53.6201 39.6312V44.502C53.6201 45.3027 54.2696 45.9516 55.0697 45.9516C55.8704 45.9516 56.5193 45.3027 56.5193 44.502V39.6312C56.521 39.2467 56.3687 38.877 56.0963 38.6046C55.8245 38.3328 55.4547 38.1805 55.0697 38.1816Z" fill="#FFF23D"/>
</g>
<defs>
<clipPath id="clip0">
<rect width="70" height="70" fill="white"/>
</clipPath>
</defs>
</svg>
