<svg width="80" height="80" viewBox="0 0 80 80" fill="none" xmlns="http://www.w3.org/2000/svg">
<g clip-path="url(#clip0)">
<path d="M63.6208 31.5534H63.5085C61.9741 31.5449 60.4917 32.1087 59.3503 33.1344C58.4264 30.5776 56.0786 28.7397 53.3286 28.7397C51.6431 28.7515 50.0332 29.4434 48.8655 30.6597C47.7918 28.486 45.6378 27.0115 43.1612 27.0115H43.0416C41.7142 26.9911 40.419 27.4228 39.369 28.235V12.7385C39.369 8.99361 36.4534 5.94727 32.907 5.94727C29.3645 5.94727 26.4641 8.99164 26.4621 12.7339L26.4325 43.4799L24.6925 41.3666C23.1667 39.4669 20.9207 38.2874 18.4907 38.1093C16.1107 37.9464 13.7694 38.7743 12.0215 40.3987L10.5076 41.6531C10.0193 42.0579 9.88002 42.7479 10.1724 43.3103L24.8923 71.6047C27.5838 76.7755 32.7046 80.0012 38.2565 80.0012H54.8452V79.9867C63.2561 79.9867 70.0756 72.6883 70.0841 63.7266C70.0874 59.717 70.0723 56.7285 70.0749 54.3064C70.0835 47.826 70.0769 45.4348 70.0605 38.2953C70.0519 34.559 67.1574 31.5534 63.6208 31.5534ZM67.3637 54.2972C67.3611 56.7199 67.3571 59.7203 67.3532 63.7299C67.346 71.2098 61.6994 77.309 54.7663 77.309H38.2572C33.7126 77.309 29.5065 74.6379 27.2809 70.3615L13.0617 43.0383L13.7635 42.4528C13.7813 42.4384 13.7983 42.4213 13.8154 42.4062C15.0225 41.27 16.6469 40.6865 18.3008 40.7949C19.9916 40.9244 21.5515 41.751 22.6088 43.0764L26.7282 48.0888C27.0883 48.5284 27.6863 48.6934 28.2212 48.5021C28.7561 48.3109 29.1135 47.8036 29.1135 47.2359L29.1378 12.7352C29.1392 10.476 30.8476 8.63812 32.9083 8.63812C34.969 8.63812 36.6775 10.478 36.6775 12.7385V33.5405C36.6775 33.6128 36.6742 33.6857 36.6742 33.7593C36.6742 33.7908 36.6775 33.823 36.6775 33.8539V42.7479C36.6775 43.4911 37.28 44.0936 38.0232 44.0936C38.7664 44.0936 39.369 43.4911 39.369 42.7479V33.5858C39.369 31.4062 41.0341 29.703 43.0416 29.703H43.1612C45.2232 29.703 46.9389 31.5002 46.9389 33.7606V41.8989C46.9389 42.6421 47.5414 43.2446 48.2846 43.2446C49.0278 43.2446 49.6304 42.6421 49.6304 41.8989V35.5138C49.6304 33.2527 51.2639 31.4134 53.3371 31.4134C55.3984 31.4134 57.032 33.252 57.032 35.5138V41.5375C57.032 42.2807 57.6346 42.8832 58.3778 42.8832C59.121 42.8832 59.7235 42.2807 59.7235 41.5375V38.2756C59.7235 36.0145 61.4465 34.2449 63.5085 34.2449H63.6208C65.6776 34.2449 67.3538 36.0447 67.3591 38.2986C67.3755 45.4328 67.3722 47.8214 67.3637 54.2972Z" fill="#FFF23D"/>
<path d="M22.1866 13.3182C22.9298 13.3182 23.5323 12.7157 23.5323 11.9725C23.554 6.83719 27.7234 2.68625 32.858 2.68625C37.9933 2.68625 42.1619 6.83719 42.1836 11.9725C42.1836 12.7157 42.7862 13.3182 43.5294 13.3182C44.2726 13.3182 44.8751 12.7157 44.8751 11.9725C44.8502 5.35279 39.4777 0 32.858 0C26.2389 0 20.8658 5.35279 20.8408 11.9725C20.8408 12.7157 21.4434 13.3182 22.1866 13.3182Z" fill="#FFF23D"/>
</g>
<defs>
<clipPath id="clip0">
<rect width="80" height="80" fill="white"/>
</clipPath>
</defs>
</svg>
