<svg width="480" height="493" viewBox="0 0 480 493" fill="none" xmlns="http://www.w3.org/2000/svg">
<path d="M-39.998 89.9512L49.8947 177.238V224.215L-39.998 136.928L-39.998 89.9512Z" fill="#FFF23D"/>
<path d="M-39.999 0L49.8938 86.7611V133.473L-39.999 46.7117L-39.999 0Z" fill="#FFF23D"/>
<path d="M-39.999 177.755L49.8938 265.042V312.018L-39.999 224.731L-39.999 177.755Z" fill="#FFF23D"/>
<path d="M-39.998 357.951L49.8947 445.238V492.215L-39.998 404.928L-39.998 357.951Z" fill="#FFF23D"/>
<path d="M-39.999 268L49.8938 354.761V401.473L-39.999 314.712L-39.999 268Z" fill="#FFF23D"/>
<path d="M518.893 89.9512L429 177.238V224.215L518.893 136.928L518.893 89.9512Z" fill="#FFF23D"/>
<path d="M518.894 0L429.001 86.7611V133.473L518.894 46.7117L518.894 0Z" fill="#FFF23D"/>
<path d="M518.894 177.755L429.001 265.042V312.018L518.894 224.731L518.894 177.755Z" fill="#FFF23D"/>
<path d="M518.893 357.951L429 445.238V492.215L518.893 404.928L518.893 357.951Z" fill="#FFF23D"/>
<path d="M518.894 268L429.001 354.761V401.473L518.894 314.712L518.894 268Z" fill="#FFF23D"/>
</svg>
