<svg width="40" height="570" viewBox="0 0 40 570" fill="none" xmlns="http://www.w3.org/2000/svg">
<mask id="mask0" mask-type="alpha" maskUnits="userSpaceOnUse" x="0" y="0" width="40" height="570">
<rect width="40" height="570" fill="#F2F2F2"/>
</mask>
<g mask="url(#mask0)">
<path d="M4.00098 44L75.1243 112.646L75.1243 149.604L4.00098 80.9584L4.00098 44Z" fill="#0D1116"/>
<path d="M4.00195 186.363L75.1253 255.425L75.1253 292.593L4.00196 223.531L4.00195 186.363Z" fill="#0D1116"/>
<path d="M4 115.193L75.1234 183.839L75.1234 220.797L4 152.152L4 115.193Z" fill="#0D1116"/>
<path d="M4 255.834L75.1234 324.896L75.1234 362.064L4 293.002L4 255.834Z" fill="#0D1116"/>
<path d="M4.00195 398.406L75.1253 467.468L75.1253 504.636L4.00196 435.574L4.00195 398.406Z" fill="#0D1116"/>
<path d="M4.00098 327.236L75.1243 395.882L75.1243 432.84L4.00098 364.195L4.00098 327.236Z" fill="#0D1116"/>
<path d="M4.00098 467.876L75.1243 536.938L75.1243 574.106L4.00098 505.044L4.00098 467.876Z" fill="#0D1116"/>
</g>
</svg>
