<svg width="80" height="80" viewBox="0 0 80 80" fill="none" xmlns="http://www.w3.org/2000/svg">
<path d="M75 40.5397V11.9632C75 10.9824 74.6049 10.0419 73.9016 9.34842C73.1984 8.65494 72.2446 8.26536 71.25 8.26536H52.5V7.03276C52.5 6.05204 52.1049 5.11149 51.4016 4.41802C50.6984 3.72455 49.7446 3.33496 48.75 3.33496H31.25C30.2554 3.33496 29.3016 3.72455 28.5983 4.41802C27.8951 5.11149 27.5 6.05204 27.5 7.03276V8.26536H8.75C7.75544 8.26536 6.80161 8.65494 6.09835 9.34842C5.39509 10.0419 5 10.9824 5 11.9632V40.5397C4.27136 40.7937 3.64011 41.2635 3.19261 41.8849C2.7451 42.5062 2.5032 43.2487 2.5 44.0107V73.5931C2.5 74.5738 2.89509 75.5144 3.59835 76.2078C4.30161 76.9013 5.25544 77.2909 6.25 77.2909H73.75C74.7446 77.2909 75.6984 76.9013 76.4016 76.2078C77.1049 75.5144 77.5 74.5738 77.5 73.5931V44.0107C77.4968 43.2487 77.2549 42.5062 76.8074 41.8849C76.3599 41.2635 75.7286 40.7937 75 40.5397ZM30 7.03276C30 6.70585 30.1317 6.39234 30.3661 6.16118C30.6005 5.93002 30.9185 5.80016 31.25 5.80016H48.75C49.0815 5.80016 49.3995 5.93002 49.6339 6.16118C49.8683 6.39234 50 6.70585 50 7.03276V8.26536H30V7.03276ZM7.5 11.9632C7.5 11.6362 7.6317 11.3227 7.86612 11.0916C8.10054 10.8604 8.41848 10.7306 8.75 10.7306H71.25C71.5815 10.7306 71.8995 10.8604 72.1339 11.0916C72.3683 11.3227 72.5 11.6362 72.5 11.9632V40.3129H70V14.4283C70 14.1014 69.8683 13.7879 69.6339 13.5568C69.3995 13.3256 69.0815 13.1958 68.75 13.1958H11.25C10.9185 13.1958 10.6005 13.3256 10.3661 13.5568C10.1317 13.7879 10 14.1014 10 14.4283V40.3129H7.5V11.9632ZM55 40.3129V30.4521H56.25C56.5815 30.4521 56.8995 30.3223 57.1339 30.0911C57.3683 29.86 57.5 29.5464 57.5 29.2195V27.9869H58.75C58.75 28.6407 59.0134 29.2678 59.4822 29.7301C59.9511 30.1924 60.587 30.4521 61.25 30.4521H63.75C64.0815 30.4521 64.3995 30.3223 64.6339 30.0911C64.8683 29.86 65 29.5464 65 29.2195V19.3587C65 19.0318 64.8683 18.7183 64.6339 18.4872C64.3995 18.256 64.0815 18.1261 63.75 18.1261H61.25C60.587 18.1261 59.9511 18.3859 59.4822 18.8482C59.0134 19.3105 58.75 19.9375 58.75 20.5913H57.5C57.5 19.9375 57.2366 19.3105 56.7678 18.8482C56.2989 18.3859 55.663 18.1261 55 18.1261H48.75C45.7673 18.1294 42.9078 19.2992 40.7987 21.3789C38.6896 23.4586 37.5033 26.2784 37.5 29.2195V31.6847C37.4999 31.9402 37.5803 32.1894 37.7301 32.3979C37.88 32.6063 38.0918 32.7637 38.3363 32.8483C38.4694 32.8935 38.6092 32.9169 38.75 32.9173C38.9375 32.9174 39.1225 32.8759 39.2915 32.7959C39.4605 32.7159 39.6091 32.5994 39.7263 32.4551L43.2263 28.141C43.6831 27.5753 44.3007 27.1569 45 26.9392V29.2195C45 29.5464 45.1317 29.86 45.3661 30.0911C45.6005 30.3223 45.9185 30.4521 46.25 30.4521H47.5V40.3129H30V35.9643C30.0031 35.759 30.0576 35.5577 30.1585 35.3782C30.2595 35.1986 30.4038 35.0464 30.5787 34.9351C32.0443 33.9644 33.223 32.6282 33.9947 31.0624C34.7663 29.4966 35.1036 27.7571 34.972 26.0211C34.8404 24.285 34.2447 22.6143 33.2455 21.179C32.2464 19.7437 30.8794 18.5951 29.2838 17.85C29.0936 17.7615 28.884 17.7217 28.6741 17.7343C28.4642 17.7469 28.261 17.8115 28.0832 17.9221C27.9053 18.0326 27.7587 18.1857 27.6567 18.367C27.5548 18.5483 27.5009 18.7521 27.5 18.9594V26.09L25 27.7404L22.5 26.0974V18.9643C22.4991 18.757 22.4452 18.5533 22.3433 18.3719C22.2413 18.1906 22.0947 18.0376 21.9168 17.927C21.739 17.8164 21.5358 17.7518 21.3259 17.7392C21.116 17.7266 20.9064 17.7664 20.7162 17.855C19.1206 18.5998 17.7536 19.7483 16.7544 21.1835C15.7552 22.6187 15.1594 24.2893 15.0278 26.0253C14.8963 27.7613 15.2335 29.5007 16.0052 31.0664C16.777 32.6322 17.9556 33.9683 19.4212 34.9388C19.5961 35.0505 19.7404 35.2029 19.8413 35.3827C19.9422 35.5624 19.9967 35.7638 20 35.9692V40.3129H12.5V15.6609H67.5V40.3129H55ZM56.25 23.0565H60C60.3315 23.0565 60.6495 22.9267 60.8839 22.6955C61.1183 22.4644 61.25 22.1508 61.25 21.8239V20.5913H62.5V27.9869H61.25V26.7543C61.25 26.4274 61.1183 26.1139 60.8839 25.8828C60.6495 25.6516 60.3315 25.5217 60 25.5217H56.25C55.9185 25.5217 55.6005 25.6516 55.3661 25.8828C55.1317 26.1139 55 26.4274 55 26.7543V27.9869H47.5V25.5217C47.4783 25.1854 47.3265 24.8701 47.0761 24.6408C46.8256 24.4115 46.4955 24.2856 46.1538 24.2891C45.2159 24.2869 44.2896 24.4938 43.4443 24.8944C42.599 25.2951 41.8565 25.8791 41.2725 26.6027L40.0775 28.0818C40.3594 26.01 41.3936 24.1092 42.9883 22.7318C44.583 21.3544 46.6301 20.594 48.75 20.5913H55V21.8239C55 22.1508 55.1317 22.4644 55.3661 22.6955C55.6005 22.9267 55.9185 23.0565 56.25 23.0565ZM50 30.4521H52.5V40.3129H50V30.4521ZM20.8125 32.8865C19.8643 32.2578 19.0743 31.4237 18.5028 30.448C17.9313 29.4723 17.5935 28.3808 17.5151 27.2567C17.4368 26.1326 17.6199 25.0057 18.0505 23.962C18.4812 22.9184 19.148 21.9855 20 21.2348V26.7543C20 26.9572 20.0507 27.157 20.1478 27.3359C20.2448 27.5148 20.3851 27.6673 20.5562 27.7799L24.3062 30.2451C24.5117 30.3802 24.7531 30.4523 25 30.4523C25.2469 30.4523 25.4883 30.3802 25.6938 30.2451L29.4438 27.7799C29.6149 27.6673 29.7552 27.5148 29.8522 27.3359C29.9493 27.157 30 26.9572 30 26.7543V21.2348C30.8523 21.9855 31.5193 22.9184 31.9501 23.9622C32.3808 25.006 32.564 26.1331 32.4857 27.2573C32.4073 28.3816 32.0694 29.4733 31.4978 30.4491C30.9261 31.4249 30.1359 32.2591 29.1875 32.8877C28.6705 33.2245 28.2459 33.682 27.9515 34.2197C27.6571 34.7573 27.502 35.3583 27.5 35.9692V40.3129H22.5V35.9643C22.497 35.354 22.3415 34.7539 22.0471 34.217C21.7528 33.6802 21.3287 33.2232 20.8125 32.8865V32.8865ZM75 73.5931C75 73.92 74.8683 74.2335 74.6339 74.4647C74.3995 74.6958 74.0815 74.8257 73.75 74.8257H6.25C5.91848 74.8257 5.60054 74.6958 5.36612 74.4647C5.1317 74.2335 5 73.92 5 73.5931V44.0107C5 43.6838 5.1317 43.3703 5.36612 43.1391C5.60054 42.908 5.91848 42.7781 6.25 42.7781H73.75C74.0815 42.7781 74.3995 42.908 74.6339 43.1391C74.8683 43.3703 75 43.6838 75 44.0107V73.5931Z" fill="#FFF23D"/>
<path d="M51.25 45.2432H28.75C27.7554 45.2432 26.8016 45.6328 26.0983 46.3262C25.3951 47.0197 25 47.9602 25 48.941C25 49.9217 25.3951 50.8622 26.0983 51.5557C26.8016 52.2492 27.7554 52.6388 28.75 52.6388H51.25C52.2446 52.6388 53.1984 52.2492 53.9016 51.5557C54.6049 50.8622 55 49.9217 55 48.941C55 47.9602 54.6049 47.0197 53.9016 46.3262C53.1984 45.6328 52.2446 45.2432 51.25 45.2432ZM51.25 50.1736H28.75C28.4185 50.1736 28.1005 50.0437 27.8661 49.8125C27.6317 49.5814 27.5 49.2679 27.5 48.941C27.5 48.6141 27.6317 48.3005 27.8661 48.0694C28.1005 47.8382 28.4185 47.7084 28.75 47.7084H51.25C51.5815 47.7084 51.8995 47.8382 52.1339 48.0694C52.3683 48.3005 52.5 48.6141 52.5 48.941C52.5 49.2679 52.3683 49.5814 52.1339 49.8125C51.8995 50.0437 51.5815 50.1736 51.25 50.1736Z" fill="#FFF23D"/>
</svg>
