<svg width="67" height="67" viewBox="0 0 67 67" fill="none" xmlns="http://www.w3.org/2000/svg">
<path d="M48.75 30.25H48V29.5C48 27.433 46.317 25.75 44.25 25.75H18.75C16.683 25.75 15 27.433 15 29.5V38.5C15 40.5669 16.683 42.25 18.75 42.25H44.25C46.317 42.25 48 40.5669 48 38.5V37.75H48.75C49.9905 37.75 51 36.7405 51 35.5V32.4999C51 31.2595 49.9905 30.25 48.75 30.25ZM49.5 35.5C49.5 35.914 49.164 36.25 48.75 36.25H47.25C46.836 36.25 46.5 36.586 46.5 37V38.5C46.5 39.7405 45.4905 40.75 44.25 40.75H18.75C17.5095 40.75 16.5 39.7405 16.5 38.5V29.5C16.5 28.2595 17.5095 27.25 18.75 27.25H44.25C45.4905 27.25 46.5 28.2595 46.5 29.5V31C46.5 31.414 46.836 31.75 47.25 31.75H48.75C49.164 31.75 49.5 32.086 49.5 32.5V35.5Z" fill="white"/>
<path d="M29.9205 38.164L25.4205 29.164C25.293 28.9105 25.0335 28.75 24.75 28.75H18.75C18.336 28.75 17.9999 29.086 17.9999 29.5V38.5C17.9999 38.914 18.336 39.2501 18.75 39.2501H29.2499C29.5095 39.2501 29.7509 39.1136 29.8875 38.8931C30.024 38.6725 30.0375 38.3965 29.9205 38.164ZM19.5 37.75V30.25H24.2865L28.0365 37.7501H19.5V37.75Z" fill="white"/>
<circle cx="33.5" cy="33.5" r="32.5" stroke="#FFBE00" stroke-width="2"/>
</svg>
