<svg width="67" height="67" viewBox="0 0 67 67" fill="none" xmlns="http://www.w3.org/2000/svg">
<path d="M27.5756 14C27.1657 14 26.8334 14.3324 26.8334 14.7422C26.8334 15.1522 27.1657 15.4845 27.5756 15.4845C31.7684 15.4845 35.1794 18.9841 35.1794 23.2859C35.1794 23.6958 35.5118 24.0281 35.9217 24.0281C36.3316 24.0281 36.6639 23.6957 36.6639 23.2859C36.664 18.1656 32.5869 14 27.5756 14Z" fill="white"/>
<path d="M27.5743 17.5215C27.1644 17.5215 26.832 17.8539 26.832 18.2637C26.832 18.6736 27.1644 19.006 27.5743 19.006C29.8702 19.006 31.738 20.9259 31.738 23.2858C31.738 23.6957 32.0704 24.0281 32.4803 24.0281C32.8902 24.0281 33.2225 23.6956 33.2225 23.2858C33.2226 20.1074 30.6887 17.5215 27.5743 17.5215Z" fill="white"/>
<path d="M27.5873 20.7656C27.1774 20.7656 26.8451 21.0979 26.8451 21.5079C26.8451 21.9178 27.1775 22.2501 27.5873 22.2501C28.1237 22.2501 28.56 22.7046 28.56 23.2633C28.56 23.6732 28.8923 24.0056 29.3022 24.0056C29.7121 24.0056 30.0445 23.6732 30.0445 23.2633C30.0445 21.8861 28.9422 20.7656 27.5873 20.7656Z" fill="white"/>
<path d="M31.7954 38.9704C31.6573 38.8323 31.4666 38.7529 31.2706 38.7529C31.0754 38.7529 30.8838 38.8323 30.7459 38.9704C30.6078 39.1084 30.5283 39.2999 30.5283 39.4952C30.5283 39.6911 30.6077 39.8819 30.7459 40.02C30.8846 40.1588 31.0754 40.2381 31.2706 40.2381C31.4658 40.2381 31.6573 40.1588 31.7954 40.02C31.9341 39.8819 32.0128 39.691 32.0128 39.4952C32.0128 39.3 31.9341 39.1085 31.7954 38.9704Z" fill="white"/>
<path d="M48.0416 45.6823L42.3551 39.9957C41.5981 39.2387 40.4072 39.1279 39.5237 39.7321L35.8943 42.2138C35.5997 42.4152 35.203 42.3783 34.9505 42.1259L33.7504 40.9256C33.4606 40.636 32.9908 40.6359 32.7006 40.9256C32.4107 41.2154 32.4107 41.6854 32.7006 41.9754L33.9007 43.1757C34.6578 43.9326 35.8485 44.0436 36.7321 43.4392L40.3615 40.9576C40.6559 40.7563 41.0529 40.7931 41.3053 41.0455L46.9919 46.7321C47.2813 47.0214 47.2812 47.4924 46.9918 47.7819C43.3454 51.4284 37.412 51.4284 33.7656 47.7819L22.2187 36.2349C20.4522 34.4684 19.4795 32.1199 19.4795 29.6217C19.4795 27.1236 20.4522 24.7749 22.2188 23.0084C22.359 22.8682 22.5453 22.7911 22.7436 22.7911C22.9419 22.7911 23.1283 22.8683 23.2684 23.0085L28.955 28.6951C29.2072 28.9474 29.2442 29.3444 29.0429 29.6389L26.5614 33.2682C25.957 34.1518 26.0679 35.3425 26.8248 36.0996L28.6289 37.9037C28.9188 38.1935 29.3887 38.1935 29.6787 37.9037C29.9685 37.6139 29.9685 37.1439 29.6787 36.8539L27.8747 35.0498C27.6224 34.7976 27.5854 34.4007 27.7868 34.1062L30.2684 30.4768C30.8726 29.5931 30.7617 28.4023 30.0048 27.6454L24.3182 21.9588C23.45 21.0906 22.0373 21.0906 21.169 21.9588C16.9437 26.1841 16.9437 33.0592 21.169 37.2846L32.7159 48.8314C34.8285 50.9441 37.6036 52.0004 40.3787 52.0004C43.1538 52.0004 45.9289 50.944 48.0415 48.8314C48.9097 47.9632 48.9097 46.5506 48.0416 45.6823Z" fill="white"/>
<path d="M27.9988 32.251L23.4993 27.7515C23.2093 27.4617 22.7394 27.4617 22.4495 27.7515C22.1596 28.0414 22.1596 28.5114 22.4495 28.8013L26.949 33.3008C27.094 33.4457 27.2838 33.5182 27.4739 33.5182C27.6638 33.5182 27.8538 33.4457 27.9988 33.3008C28.2886 33.0109 28.2886 32.5409 27.9988 32.251Z" fill="white"/>
<path d="M45.2198 49.4731L40.4856 44.7388C40.1956 44.449 39.7257 44.449 39.4358 44.7388C39.146 45.0287 39.146 45.4987 39.4358 45.7886L44.17 50.5229C44.315 50.6677 44.5048 50.7402 44.6949 50.7402C44.8848 50.7402 45.0748 50.6677 45.2198 50.5229C45.5097 50.2329 45.5097 49.7629 45.2198 49.4731Z" fill="white"/>
<circle cx="33.5" cy="33.5" r="32.5" stroke="#FFBE00" stroke-width="2"/>
</svg>
