<svg width="67" height="67" viewBox="0 0 67 67" fill="none" xmlns="http://www.w3.org/2000/svg">
<circle cx="33.5" cy="33.5" r="32.5" stroke="#FFBE00" stroke-width="2"/>
<path d="M25.8438 36.2344H21.4688C20.8647 36.2344 20.375 35.7447 20.375 35.1406C20.375 34.5365 20.8647 34.0469 21.4688 34.0469H24.75V27.4844H21.4688C20.8647 27.4844 20.375 26.9947 20.375 26.3906C20.375 25.7865 20.8647 25.2969 21.4688 25.2969H25.8438C26.4478 25.2969 26.9375 25.7865 26.9375 26.3906V35.1406C26.9375 35.7447 26.4478 36.2344 25.8438 36.2344Z" fill="white"/>
<path d="M33.5 36.2344H31.3125C30.1044 36.2344 29.125 35.255 29.125 34.0469V27.4844C29.125 26.2763 30.1044 25.2969 31.3125 25.2969H34.5938C35.1978 25.2969 35.6875 25.7865 35.6875 26.3906C35.6875 26.9947 35.1978 27.4844 34.5938 27.4844H31.3125V29.6719H33.5C34.7081 29.6719 35.6875 30.6513 35.6875 31.8594V34.0469C35.6875 35.255 34.7081 36.2344 33.5 36.2344ZM31.3125 31.8594V34.0469H33.5V31.8594H31.3125Z" fill="white"/>
<path d="M42.25 36.2344H40.0625C38.8544 36.2344 37.875 35.255 37.875 34.0469V27.4844C37.875 26.2763 38.8544 25.2969 40.0625 25.2969H42.25C43.4581 25.2969 44.4375 26.2763 44.4375 27.4844V34.0469C44.4375 35.255 43.4581 36.2344 42.25 36.2344ZM40.0625 27.4844V34.0469H42.25V27.4844H40.0625Z" fill="white"/>
<path d="M25.8438 31.8594H21.4688C20.8647 31.8594 20.375 31.3697 20.375 30.7656C20.375 30.1615 20.8647 29.6719 21.4688 29.6719H25.8438C26.4478 29.6719 26.9375 30.1615 26.9375 30.7656C26.9375 31.3697 26.4478 31.8594 25.8438 31.8594Z" fill="white"/>
<path d="M33.5 44.9843C23.6869 44.9843 16 41.1409 16 36.2343C16.0885 34.3606 17.0546 32.6382 18.6075 31.5859C19.0841 31.2138 19.7721 31.2985 20.1442 31.7751C20.5163 32.2517 20.4316 32.9398 19.955 33.3118C18.9565 33.9708 18.3073 35.044 18.1875 36.2343C18.1875 39.3384 24.4766 42.7968 33.5 42.7968C34.1041 42.7968 34.5938 43.2865 34.5938 43.8906C34.5938 44.4947 34.1041 44.9843 33.5 44.9843Z" fill="white"/>
<path d="M36.7813 44.8313C36.1772 44.8602 35.664 44.3941 35.635 43.79C35.606 43.1859 36.0722 42.6728 36.6763 42.6438C43.5953 41.981 48.8125 39.2225 48.8125 36.2344C48.6927 35.0441 48.0435 33.9708 47.045 33.3119C46.569 32.9398 46.4848 32.2523 46.8569 31.7763C47.229 31.3003 47.9165 31.2161 48.3925 31.5881C49.9458 32.639 50.9122 34.3611 51 36.2344C51 40.4891 45.1966 44.0241 36.8863 44.8269L36.7813 44.8313Z" fill="white"/>
<path d="M30.2188 48.2657C29.6147 48.2667 29.1241 47.7779 29.123 47.1739C29.1225 46.8827 29.2381 46.6032 29.4444 46.3975L31.9534 43.8907L29.4444 41.3838C29.0167 40.9561 29.0167 40.2627 29.4444 39.835C29.872 39.4074 30.5655 39.4074 30.9931 39.835L34.2744 43.1163C34.702 43.5428 34.7029 44.2354 34.2764 44.663C34.2757 44.6637 34.2751 44.6643 34.2744 44.665L30.9931 47.9463C30.7876 48.1513 30.509 48.2662 30.2188 48.2657Z" fill="white"/>
<path d="M47.7188 25.2969C45.9065 25.2969 44.4375 23.8278 44.4375 22.0156C44.4375 20.2034 45.9065 18.7344 47.7188 18.7344C49.531 18.7344 51 20.2034 51 22.0156C51 23.8278 49.531 25.2969 47.7188 25.2969ZM47.7188 20.9219C47.1147 20.9219 46.625 21.4115 46.625 22.0156C46.625 22.6197 47.1147 23.1094 47.7188 23.1094C48.3228 23.1094 48.8125 22.6197 48.8125 22.0156C48.8125 21.4115 48.3228 20.9219 47.7188 20.9219Z" fill="white"/>
</svg>
