<svg width="70" height="69" viewBox="0 0 70 69" fill="none" xmlns="http://www.w3.org/2000/svg">
<path d="M47.5443 36.547H46.9258V32.8304C46.9258 31.3107 45.6887 30.079 44.1743 30.079H43.6038L43.6091 28.6979C43.6091 27.6741 42.7773 26.8423 41.7535 26.8423H25.2555C24.0238 26.8423 23.016 27.8341 23 29.0658C23 29.0765 23 29.0872 23 29.0978V47.3021C23 48.3259 23.8318 49.1577 24.8556 49.1577H44.1797C45.6993 49.1577 46.9311 47.9206 46.9311 46.4063V42.6844H47.5496C48.3495 42.6844 49 42.0338 49 41.234V37.9973C48.9947 37.1975 48.3441 36.547 47.5443 36.547ZM25.2555 28.122H41.7535C42.0681 28.122 42.3294 28.378 42.3294 28.6926L42.324 30.079H25.2555C24.717 30.079 24.2797 29.6417 24.2797 29.1032C24.2797 28.5646 24.717 28.122 25.2555 28.122ZM45.646 46.4009C45.646 47.2114 44.9848 47.8726 44.1743 47.8726H24.8503C24.5357 47.8726 24.2744 47.6167 24.2744 47.2968V31.1347C24.573 31.2787 24.9036 31.3587 25.2555 31.3587H44.1743C44.9848 31.3587 45.646 32.0199 45.646 32.8304V36.547H41.2789C40.4791 36.547 39.8285 37.1975 39.8285 37.9973V41.234C39.8285 42.0338 40.4791 42.6844 41.2789 42.6844H45.646V46.4009ZM47.7149 41.234C47.7149 41.33 47.6403 41.4046 47.5443 41.4046H41.2842C41.1883 41.4046 41.1136 41.33 41.1136 41.234V37.9973C41.1136 37.9067 41.1883 37.8267 41.2842 37.8267H47.5443C47.6349 37.8267 47.7149 37.9013 47.7149 37.9973V41.234Z" fill="black"/>
<circle cx="43.3125" cy="39.625" r="0.8125" fill="black"/>
<path d="M29.5 46.125C29.9487 46.125 30.3125 45.7612 30.3125 45.3125C30.3125 44.8638 29.9487 44.5 29.5 44.5V46.125ZM23.8125 46.125H29.5V44.5H23.8125V46.125Z" fill="black"/>
<path d="M66.8419 42.5792C66.8419 49.3396 62.1585 54.8956 55.3481 58.8341C48.5611 62.759 39.941 64.8935 32.7435 64.8935C25.5838 64.8935 20.244 62.7851 16.6868 59.0542C13.1206 55.314 11.1813 49.7707 11.1813 42.5792C11.1813 35.31 12.6562 27.4444 15.8808 21.4449C19.089 15.4758 23.9324 11.4895 30.7377 11.4895C37.7363 11.4895 46.7989 15.6773 54.1706 21.8148C61.5695 27.9748 66.8419 35.7404 66.8419 42.5792Z" stroke="black" stroke-width="2.50723"/>
<path d="M64.0359 31.4369C65.8027 38.4978 62.3237 45.3727 56.5564 50.9594C50.7931 56.5423 42.7902 60.7892 35.6445 62.5772C28.506 64.3634 22.5161 63.6233 17.8709 60.6848C13.2236 57.745 9.88196 52.5793 8.09422 45.4348C6.30271 38.2751 5.7997 30.1113 7.52372 23.3022C9.24604 16.4998 13.1789 11.0804 20.2485 9.31144C27.3557 7.53306 37.4163 9.49252 46.1658 13.7093C54.9217 17.9292 62.2653 24.3607 64.0359 31.4369Z" stroke="#D073B7" stroke-width="0.501447"/>
</svg>
