<svg width="140" height="137" viewBox="0 0 140 137" fill="none" xmlns="http://www.w3.org/2000/svg">
<path d="M133.298 51.4121C133.298 37.9302 123.958 26.8502 110.377 18.9961C96.8419 11.1689 79.6515 6.91211 65.298 6.91211C51.0199 6.91211 40.3712 11.1168 33.2772 18.5571C26.1655 26.0159 22.298 37.0705 22.298 51.4121C22.298 65.9084 25.2394 81.5943 31.6699 93.5588C38.0677 105.462 47.7266 113.412 61.298 113.412C75.2549 113.412 93.3276 105.061 108.029 92.821C122.784 80.5365 133.298 65.0501 133.298 51.4121Z" stroke="white" stroke-width="5"/>
<path d="M127.702 73.6305C131.226 59.5494 124.288 45.8392 112.786 34.6981C101.293 23.5645 85.3335 15.0953 71.0832 11.5295C56.8476 7.96743 44.9023 9.44346 35.6387 15.3034C26.3708 21.1661 19.7069 31.4676 16.1417 45.7155C12.5691 59.9935 11.5659 76.2741 15.004 89.8529C18.4387 103.418 26.2817 114.226 40.3802 117.754C54.5535 121.3 74.6166 117.393 92.0652 108.983C109.526 100.568 124.171 87.742 127.702 73.6305Z" stroke="#D073B7"/>
<g filter="url(#filter0_d)">
<path d="M70.0478 74.6197C68.0206 76.493 65.2168 76.9125 62.7299 75.7151C61.8309 75.2822 61.0722 74.6844 60.4783 73.9683L57.0921 81.458C56.938 81.7987 57.1101 82.0556 57.1911 82.1501C57.2722 82.2446 57.4998 82.4537 57.8599 82.3536L60.325 81.6674C60.6059 81.5893 60.8899 81.5516 61.1699 81.5516C62.3512 81.5516 63.463 82.2202 63.9983 83.3281L65.1117 85.6321C65.2743 85.9688 65.5793 86.0024 65.7062 85.9999C65.8307 85.9982 66.137 85.9578 66.291 85.6171L71.6772 73.7034C71.0854 73.8737 70.5249 74.1787 70.0478 74.6197Z" fill="url(#paint0_linear)"/>
<path d="M88.9079 81.458L85.5217 73.9683C84.9277 74.6845 84.1691 75.2823 83.27 75.7151C80.7831 76.9125 77.9793 76.493 75.9521 74.6197C75.475 74.1787 74.9146 73.8737 74.3226 73.7034L79.7087 85.6171C79.8628 85.9579 80.1691 85.9982 80.2935 85.9999C80.4205 86.0024 80.7255 85.9688 80.8881 85.6321L82.0014 83.3281C82.5366 82.2202 83.6485 81.5516 84.8298 81.5516C85.1098 81.5516 85.3939 81.5893 85.6747 81.6674L88.1398 82.3536C88.5 82.4538 88.7277 82.2447 88.8086 82.1501C88.8899 82.0555 89.0619 81.7986 88.9079 81.458Z" fill="url(#paint1_linear)"/>
<path d="M91.5678 55.1038C88.7555 53.1781 87.8829 49.3548 89.5812 46.3997C90.602 44.6232 90.0707 42.8678 89.2331 41.8174C88.3955 40.7672 86.8021 39.8587 84.8433 40.4585C81.5848 41.4565 78.0511 39.7551 76.7995 36.5848C76.0471 34.679 74.3434 34 73 34C71.6566 34 69.9529 34.679 69.2006 36.5849C67.9489 39.7553 64.4155 41.4565 61.1567 40.4586C59.1977 39.8589 57.6047 40.7672 56.7669 41.8175C55.9293 42.8679 55.398 44.6231 56.4188 46.3998C58.1171 49.3548 57.2445 53.1783 54.4323 55.1039C52.7416 56.2616 52.4588 58.0736 52.7576 59.3833C53.0564 60.6931 54.0976 62.2028 56.1231 62.5122C59.4923 63.027 61.9373 66.0929 61.6896 69.4923C61.5405 71.5359 62.7809 72.8869 63.9912 73.4698C65.2016 74.0527 67.0312 74.1803 68.5359 72.7896C69.7874 71.6331 71.394 71.0546 72.9999 71.0546C74.6064 71.0546 76.2121 71.6328 77.4638 72.7896C78.9687 74.1804 80.7984 74.0528 82.0087 73.4698C83.219 72.887 84.4593 71.536 84.3103 69.4924C84.0626 66.093 86.5076 63.0271 89.8768 62.5122C91.9023 62.2028 92.9433 60.693 93.2423 59.3833C93.5412 58.0734 93.2582 56.2614 91.5678 55.1038ZM73 68.1172C65.6291 68.1172 59.6325 62.1205 59.6325 54.7496C59.6325 47.3787 65.629 41.382 73 41.382C80.371 41.382 86.3676 47.3786 86.3676 54.7495C86.3675 62.1204 80.3709 68.1172 73 68.1172Z" fill="url(#paint2_linear)"/>
<path d="M72.9999 43.8743C67.0032 43.8743 62.1247 48.7529 62.1247 54.7495C62.1247 60.746 67.0031 65.6247 72.9999 65.6247C78.9967 65.6247 83.8751 60.746 83.8751 54.7495C83.8751 48.7529 78.9966 43.8743 72.9999 43.8743ZM78.5731 53.6951L71.8048 58.6386C71.59 58.7955 71.3322 58.8785 71.0698 58.8785C71.0022 58.8785 70.9342 58.873 70.8666 58.8618C70.5366 58.8073 70.2423 58.6224 70.0499 58.3485L68.0254 55.466C67.6298 54.9026 67.7658 54.1254 68.3289 53.7298C68.8922 53.3342 69.6694 53.4701 70.0651 54.0334L71.36 55.8771L77.1031 51.6824C77.659 51.2766 78.4387 51.3977 78.8445 51.9537C79.2505 52.5094 79.1289 53.289 78.5731 53.6951Z" fill="url(#paint3_linear)"/>
</g>
<defs>
<filter id="filter0_d" x="43" y="34" width="60" height="60" filterUnits="userSpaceOnUse" color-interpolation-filters="sRGB">
<feFlood flood-opacity="0" result="BackgroundImageFix"/>
<feColorMatrix in="SourceAlpha" type="matrix" values="0 0 0 0 0 0 0 0 0 0 0 0 0 0 0 0 0 0 127 0"/>
<feOffset dy="4"/>
<feGaussianBlur stdDeviation="2"/>
<feColorMatrix type="matrix" values="0 0 0 0 0 0 0 0 0 0 0 0 0 0 0 0 0 0 0.25 0"/>
<feBlend mode="normal" in2="BackgroundImageFix" result="effect1_dropShadow"/>
<feBlend mode="normal" in="SourceGraphic" in2="effect1_dropShadow" result="shape"/>
</filter>
<linearGradient id="paint0_linear" x1="64.3537" y1="73.7034" x2="64.3537" y2="86" gradientUnits="userSpaceOnUse">
<stop stop-color="white"/>
<stop offset="1" stop-color="#C472AE"/>
</linearGradient>
<linearGradient id="paint1_linear" x1="81.6462" y1="73.7034" x2="81.6462" y2="86" gradientUnits="userSpaceOnUse">
<stop stop-color="white"/>
<stop offset="1" stop-color="#C472AE"/>
</linearGradient>
<linearGradient id="paint2_linear" x1="73" y1="34" x2="73" y2="73.8848" gradientUnits="userSpaceOnUse">
<stop stop-color="white"/>
<stop offset="1" stop-color="#C472AE"/>
</linearGradient>
<linearGradient id="paint3_linear" x1="72.9999" y1="43.8743" x2="72.9999" y2="65.6247" gradientUnits="userSpaceOnUse">
<stop stop-color="white"/>
<stop offset="1" stop-color="#C472AE"/>
</linearGradient>
</defs>
</svg>
