<svg width="140" height="137" viewBox="0 0 140 137" fill="none" xmlns="http://www.w3.org/2000/svg">
<path d="M133.298 84.9111C133.298 98.393 123.958 109.473 110.377 117.327C96.8419 125.154 79.6515 129.411 65.298 129.411C51.0199 129.411 40.3712 125.206 33.2772 117.766C26.1655 110.307 22.298 99.2528 22.298 84.9111C22.298 70.4148 25.2394 54.7289 31.6699 42.7645C38.0677 30.8609 47.7266 22.9111 61.298 22.9111C75.2549 22.9111 93.3276 31.2626 108.029 43.5022C122.784 55.7868 133.298 71.2731 133.298 84.9111Z" stroke="white" stroke-width="5"/>
<path d="M127.702 62.6922C131.226 76.7734 124.288 90.4836 112.786 101.625C101.293 112.758 85.3335 121.228 71.0832 124.793C56.8476 128.355 44.9023 126.879 35.6387 121.019C26.3708 115.157 19.7069 104.855 16.1417 90.6073C12.5691 76.3293 11.5659 60.0487 15.004 46.4698C18.4387 32.9044 26.2817 22.0969 40.3802 18.5691C54.5535 15.0226 74.6166 18.9302 92.0652 27.3394C109.526 35.7548 124.171 48.5808 127.702 62.6922Z" stroke="#D073B7"/>
<g filter="url(#filter0_d)">
<path d="M45.7429 62.0147L54.3742 66.9978L68.2847 58.9666V49L45.7429 62.0147Z" fill="url(#paint0_linear)"/>
<path d="M44.0276 64.9854V91.0144L52.6589 86.0312V69.9686L44.0276 64.9854Z" fill="url(#paint1_linear)"/>
<path d="M71.7152 49V58.9666L85.6258 66.9978L94.257 62.0147L71.7152 49Z" fill="url(#paint2_linear)"/>
<path d="M70 61.9375L56.0894 69.9687V86.0313L70 94.0625L83.9105 86.0313V69.9687L70 61.9375Z" fill="url(#paint3_linear)"/>
<path d="M87.341 69.9686V86.0312L95.9724 91.0144V64.9854L87.341 69.9686Z" fill="url(#paint4_linear)"/>
<path d="M54.3742 89.002L45.7429 93.9852L68.2847 107V97.0333L54.3742 89.002Z" fill="url(#paint5_linear)"/>
<path d="M85.6258 89.002L71.7152 97.0333V107L94.257 93.9852L85.6258 89.002Z" fill="url(#paint6_linear)"/>
</g>
<defs>
<filter id="filter0_d" x="37" y="49" width="66" height="66" filterUnits="userSpaceOnUse" color-interpolation-filters="sRGB">
<feFlood flood-opacity="0" result="BackgroundImageFix"/>
<feColorMatrix in="SourceAlpha" type="matrix" values="0 0 0 0 0 0 0 0 0 0 0 0 0 0 0 0 0 0 127 0"/>
<feOffset dy="4"/>
<feGaussianBlur stdDeviation="2"/>
<feColorMatrix type="matrix" values="0 0 0 0 0 0 0 0 0 0 0 0 0 0 0 0 0 0 0.25 0"/>
<feBlend mode="normal" in2="BackgroundImageFix" result="effect1_dropShadow"/>
<feBlend mode="normal" in="SourceGraphic" in2="effect1_dropShadow" result="shape"/>
</filter>
<linearGradient id="paint0_linear" x1="57.0138" y1="49" x2="57.0138" y2="66.9978" gradientUnits="userSpaceOnUse">
<stop stop-color="white"/>
<stop offset="1" stop-color="#C472AE"/>
</linearGradient>
<linearGradient id="paint1_linear" x1="48.3433" y1="64.9854" x2="48.3433" y2="91.0144" gradientUnits="userSpaceOnUse">
<stop stop-color="white"/>
<stop offset="1" stop-color="#C472AE"/>
</linearGradient>
<linearGradient id="paint2_linear" x1="82.9861" y1="49" x2="82.9861" y2="66.9978" gradientUnits="userSpaceOnUse">
<stop stop-color="white"/>
<stop offset="1" stop-color="#C472AE"/>
</linearGradient>
<linearGradient id="paint3_linear" x1="70" y1="61.9375" x2="70" y2="94.0625" gradientUnits="userSpaceOnUse">
<stop stop-color="white"/>
<stop offset="1" stop-color="#C472AE"/>
</linearGradient>
<linearGradient id="paint4_linear" x1="91.6567" y1="64.9854" x2="91.6567" y2="91.0144" gradientUnits="userSpaceOnUse">
<stop stop-color="white"/>
<stop offset="1" stop-color="#C472AE"/>
</linearGradient>
<linearGradient id="paint5_linear" x1="57.0138" y1="89.002" x2="57.0138" y2="107" gradientUnits="userSpaceOnUse">
<stop stop-color="white"/>
<stop offset="1" stop-color="#C472AE"/>
</linearGradient>
<linearGradient id="paint6_linear" x1="82.9861" y1="89.002" x2="82.9861" y2="107" gradientUnits="userSpaceOnUse">
<stop stop-color="white"/>
<stop offset="1" stop-color="#C472AE"/>
</linearGradient>
</defs>
</svg>
