<svg width="345" height="25" viewBox="0 0 345 25" fill="none" xmlns="http://www.w3.org/2000/svg">
<path d="M325.952 24.325V1.16064H344.081V24.325L334.758 15.2607L325.952 24.325Z" stroke="black" stroke-linecap="round" stroke-linejoin="round"/>
<path d="M86.563 9.59343L77.2226 1.00049H101.041L88.4311 22.2301L86.563 9.59343Z" stroke="black" stroke-linecap="round" stroke-linejoin="round"/>
<path d="M87.0289 9.59294L100.573 1" stroke="black"/>
<path d="M64.979 21.5822L62.9987 16.4802C63.9913 14.8559 64.5371 12.9516 64.4622 10.9155C64.2618 5.47103 59.5523 1.06551 53.8648 1.00073C47.6943 0.931311 42.7023 5.8505 43.0138 11.8109C43.2867 17.0471 47.7305 21.2976 53.1934 21.5567C55.2801 21.6539 57.2411 21.1819 58.9268 20.2865L64.5781 21.9848C64.8341 22.0635 65.0732 21.8228 64.979 21.5822Z" stroke="black" stroke-miterlimit="10"/>
<path d="M22.7698 4.87001C18.9904 0.538183 13.0756 5.36764 12.5214 5.83677V5.79293C12.5214 5.79293 6.19848 0.242234 2.23129 4.79109C-0.497755 7.91938 1.79074 11.9728 4.434 14.8797C7.87718 18.6634 12.0322 21.5813 12.4797 21.8904V22C12.4797 22 16.9245 18.966 20.5648 14.9608C23.2104 12.0517 25.4965 7.9983 22.7698 4.87001Z" stroke="black" stroke-miterlimit="10" stroke-linecap="round" stroke-linejoin="round"/>
</svg>
