<svg width="31" height="32" fill="none" xmlns="http://www.w3.org/2000/svg"><g filter="url(#filter0_d)" fill-rule="evenodd" clip-rule="evenodd"><path d="M19.685 8.85c-.453.071-1.673.892-2.932 1.973-1.248 1.071-2.815 2.617-4.319 4.26-.19.206-.351.38-.36.387-.02.016-.559-.466-1.884-1.681-.444-.407-.572-.505-.794-.605-.352-.159-.647-.154-1.004.015a1.221 1.221 0 0 0-.642.81 1.445 1.445 0 0 0-.018.322.773.773 0 0 0 .093.369c.12.25.195.35.454.603.127.123.44.446.696.716.965 1.022 1.686 1.875 2.213 2.618.308.434.527.629.819.726.12.04.187.047.39.04.224-.008.258-.015.416-.091.28-.134.471-.334.745-.775a37.533 37.533 0 0 1 3.423-4.623c.46-.525.532-.6 1.18-1.248.737-.735 1.221-1.162 1.937-1.704.569-.432.743-.662.77-1.018a1 1 0 0 0-.3-.816 1.074 1.074 0 0 0-.883-.279z" fill="#fff"/><path d="M14.483 2.014c0 .009-.075.014-.198.014-.122 0-.198.005-.198.014 0 .009-.061.014-.155.014s-.156.006-.156.014-.047.014-.113.014-.113.006-.113.014-.042.014-.099.014c-.056 0-.098.006-.098.014s-.038.014-.085.014c-.047 0-.085.006-.085.014s-.038.014-.085.014c-.047 0-.085.007-.085.014 0 .008-.037.014-.084.014-.047 0-.085.007-.085.014 0 .008-.032.014-.07.014-.04 0-.071.007-.071.014 0 .008-.032.014-.07.014-.04 0-.072.007-.072.015 0 .007-.025.014-.056.014s-.057.006-.057.014c0 .007-.025.014-.056.014s-.057.006-.057.014c0 .007-.031.014-.07.014-.04 0-.07.006-.07.014 0 .007-.026.014-.057.014-.031 0-.057.006-.057.014 0 .007-.019.014-.042.014-.024 0-.043.006-.043.014 0 .007-.025.014-.056.014s-.057.006-.057.014-.025.014-.056.014-.057.006-.057.014-.019.014-.042.014c-.023 0-.043.006-.043.014s-.019.014-.042.014c-.023 0-.042.006-.042.014s-.026.014-.057.014c-.03 0-.056.006-.056.014s-.02.014-.043.014c-.023 0-.042.006-.042.014s-.02.014-.042.014c-.024 0-.043.006-.043.014s-.019.014-.042.014c-.024 0-.043.006-.043.014s-.019.014-.042.014c-.023 0-.042.007-.042.014 0 .008-.02.014-.043.014-.023 0-.042.007-.042.014 0 .008-.013.014-.028.014-.016 0-.029.007-.029.014 0 .008-.019.014-.042.014-.023 0-.042.007-.042.014 0 .008-.02.014-.043.014-.023 0-.042.007-.042.014 0 .008-.013.015-.028.015-.016 0-.029.006-.029.014 0 .007-.019.014-.042.014-.023 0-.042.006-.042.014 0 .007-.02.014-.043.014-.023 0-.042.006-.042.014 0 .007-.013.014-.028.014-.016 0-.029.006-.029.014 0 .007-.012.014-.028.014-.015 0-.028.006-.028.014 0 .007-.02.014-.043.014-.023 0-.042.006-.042.014s-.013.014-.028.014c-.016 0-.028.006-.028.014s-.013.014-.029.014c-.015 0-.028.006-.028.014s-.02.014-.042.014c-.024 0-.043.006-.043.014s-.012.014-.028.014-.028.006-.028.014-.013.014-.029.014c-.015 0-.028.006-.028.014s-.012.014-.028.014-.028.006-.028.014-.013.014-.029.014c-.015 0-.028.006-.028.014s-.013.014-.028.014c-.016 0-.028.007-.028.014 0 .008-.013.014-.029.014-.015 0-.028.007-.028.014 0 .008-.013.014-.028.014-.016 0-.028.007-.028.014 0 .008-.013.014-.029.014-.015 0-.028.007-.028.014 0 .008-.013.014-.028.014-.016 0-.028.007-.028.014 0 .008-.012.014-.026.014-.013 0-.034.013-.045.029-.011.015-.032.028-.046.028-.013 0-.025.006-.025.014 0 .007-.012.014-.028.014-.015 0-.028.006-.028.014 0 .007-.011.014-.025.014-.014 0-.035.012-.046.028-.011.015-.031.028-.045.028-.014 0-.025.006-.025.014s-.013.014-.029.014c-.015 0-.028.006-.028.014s-.011.014-.025.014c-.014 0-.034.013-.046.028-.01.015-.03.028-.042.028-.012 0-.031.013-.042.028-.012.016-.032.028-.046.028-.014 0-.025.006-.025.014s-.011.014-.025.014c-.014 0-.034.013-.046.028-.01.016-.03.028-.042.028-.012 0-.031.013-.042.028-.012.016-.032.028-.046.028-.014 0-.025.007-.025.014 0 .008-.011.014-.025.014-.014 0-.034.013-.046.029-.01.015-.03.028-.042.028-.012 0-.031.012-.042.028-.012.015-.03.028-.043.028-.012 0-.031.012-.042.028-.011.015-.03.028-.043.028-.012 0-.03.012-.042.028-.011.015-.03.028-.04.028-.01 0-.037.019-.059.042-.022.023-.048.042-.059.042-.01 0-.029.013-.04.028-.011.016-.029.028-.04.028-.01 0-.037.02-.059.042-.021.023-.047.042-.056.042-.01 0-.035.02-.057.042-.021.024-.047.043-.056.043-.01 0-.035.018-.057.042-.021.023-.047.042-.056.042-.01 0-.041.025-.07.056a.239.239 0 0 1-.071.056.324.324 0 0 0-.085.07.337.337 0 0 1-.084.07c-.02 0-.707.683-.707.702a.46.46 0 0 1-.085.098.444.444 0 0 0-.085.098.326.326 0 0 1-.07.084.323.323 0 0 0-.071.084c0 .01-.026.04-.057.07a.254.254 0 0 0-.056.07c0 .01-.026.041-.057.07a.239.239 0 0 0-.056.071c0 .01-.02.034-.043.056-.023.021-.042.047-.042.056 0 .01-.02.034-.042.056-.024.022-.043.047-.043.056 0 .01-.019.035-.042.056-.024.022-.043.047-.043.056 0 .01-.019.035-.042.057-.023.021-.042.048-.042.058 0 .01-.013.029-.029.04-.015.01-.028.029-.028.04 0 .01-.019.036-.042.058-.024.021-.043.048-.043.059 0 .01-.012.028-.028.04-.015.01-.028.03-.028.041 0 .012-.013.031-.028.042-.016.011-.029.03-.029.042 0 .012-.012.031-.028.042-.03.021-.039.07-.014.07a.014.014 0 0 0 .014-.013c0-.008.013-.015.028-.015.016 0 .029-.006.029-.014 0-.007.012-.014.028-.014.015 0 .028-.006.028-.014 0-.007.013-.014.028-.014.016 0 .029-.006.029-.014 0-.007.012-.014.028-.014.015 0 .028-.006.028-.014 0-.007.013-.014.028-.014.016 0 .029-.006.029-.014 0-.007.012-.014.028-.014.015 0 .028-.006.028-.014s.013-.014.028-.014c.016 0 .029-.006.029-.014s.012-.014.028-.014c.015 0 .028.006.028.014a.014.014 0 0 1-.014.014c-.008 0-.014.013-.014.028 0 .016-.006.028-.014.028s-.014.013-.014.028c0 .016-.007.028-.014.028-.008 0-.015.013-.015.028 0 .016-.006.028-.014.028-.007 0-.014.02-.014.043 0 .023-.006.042-.014.042s-.014.012-.014.028c0 .015-.006.028-.014.028s-.014.012-.014.028c0 .015-.007.028-.014.028-.008 0-.015.019-.015.042 0 .023-.006.042-.014.042-.007 0-.014.019-.014.042 0 .023-.006.042-.014.042s-.014.025-.014.056-.006.056-.014.056c-.01 0-.014.085-.014.225s.005.224.014.224c.008 0 .014.026.014.056 0 .031.006.056.014.056s.014.02.014.043c0 .023.006.042.014.042s.014.01.014.025c0 .013.013.034.029.045.015.01.028.028.028.038 0 .026.093.116.12.116.011 0 .021.006.021.014s.013.014.028.014c.016 0 .029.006.029.014 0 .009.075.014.197.014.123 0 .198-.005.198-.014 0-.008.026-.014.057-.014.03 0 .056-.006.056-.014s.02-.014.043-.014c.023 0 .042-.006.042-.014s.013-.014.028-.014c.016 0 .029-.006.029-.014s.012-.014.028-.014c.015 0 .028-.006.028-.014s.013-.014.028-.014c.016 0 .029-.006.029-.014s.012-.014.028-.014c.015 0 .028-.006.028-.014s.011-.014.025-.014c.014 0 .035-.013.046-.028.01-.016.03-.028.042-.028.012 0 .031-.013.043-.028.01-.016.03-.028.042-.028.012 0 .031-.013.042-.028.011-.016.03-.029.04-.029.01 0 .062-.044.116-.098a.596.596 0 0 1 .113-.098c.02 0 .113-.093.113-.112 0-.008.07-.084.155-.168.086-.085.156-.16.156-.169 0-.008.082-.096.183-.196.101-.1.184-.188.184-.196 0-.02.546-.562.565-.562a.956.956 0 0 0 .141-.126.917.917 0 0 1 .142-.126.33.33 0 0 0 .084-.07.324.324 0 0 1 .085-.07c.01 0 .04-.026.07-.056.03-.031.062-.057.072-.057.009 0 .034-.019.056-.042.022-.023.047-.042.056-.042.01 0 .035-.019.057-.042.022-.023.048-.042.059-.042.01 0 .029-.013.04-.028.011-.015.03-.028.042-.028.012 0 .031-.013.043-.028.01-.015.031-.028.045-.028.014 0 .025-.006.025-.014s.011-.014.025-.014c.014 0 .035-.013.046-.028.011-.016.031-.028.045-.028.014 0 .025-.007.025-.014 0-.008.013-.014.029-.014.015 0 .028-.007.028-.014 0-.008.013-.014.028-.014.016 0 .029-.007.029-.014 0-.008.012-.014.028-.014.015 0 .028-.007.028-.014 0-.008.013-.014.028-.014.016 0 .028-.007.028-.015 0-.007.013-.014.029-.014.015 0 .028-.006.028-.014 0-.007.013-.014.028-.014.016 0 .028-.006.028-.014 0-.007.013-.014.029-.014.015 0 .028-.006.028-.014 0-.007.013-.014.028-.014.016 0 .029-.006.029-.014 0-.007.012-.014.028-.014.015 0 .028-.006.028-.014s.013-.014.028-.014c.016 0 .029-.006.029-.014s.012-.014.028-.014c.015 0 .028-.006.028-.014s.013-.014.028-.014c.016 0 .029-.006.029-.014s.012-.014.028-.014c.015 0 .028-.006.028-.014s.013-.014.028-.014c.016 0 .029-.006.029-.014s.012-.014.028-.014c.015 0 .028-.006.028-.014s.02-.014.043-.014c.023 0 .042-.006.042-.014s.013-.014.028-.014c.016 0 .028-.007.028-.014 0-.008.013-.014.029-.014.015 0 .028-.007.028-.014 0-.008.019-.014.042-.014.024 0 .043-.007.043-.014 0-.008.012-.014.028-.014s.028-.007.028-.014c0-.008.013-.014.028-.014.016 0 .029-.007.029-.014 0-.008.019-.014.042-.014.023 0 .043-.007.043-.014 0-.008.012-.015.028-.015.015 0 .028-.006.028-.014 0-.007.019-.014.042-.014.024 0 .043-.006.043-.014 0-.007.012-.014.028-.014s.028-.006.028-.014c0-.007.02-.014.043-.014.023 0 .042-.006.042-.014 0-.007.013-.014.028-.014.016 0 .029-.006.029-.014 0-.007.019-.014.042-.014.023 0 .042-.006.042-.014s.02-.014.043-.014c.023 0 .042-.006.042-.014s.013-.014.028-.014c.016 0 .029-.006.029-.014s.019-.014.042-.014c.023 0 .042-.006.042-.014s.02-.014.043-.014c.023 0 .042-.006.042-.014s.02-.014.042-.014c.024 0 .043-.006.043-.014s.019-.014.042-.014c.024 0 .043-.006.043-.014s.019-.014.042-.014c.023 0 .042-.006.042-.014s.02-.014.043-.014c.023 0 .042-.007.042-.014 0-.008.026-.014.057-.014.03 0 .056-.007.056-.014 0-.008.02-.014.043-.014.023 0 .042-.007.042-.014 0-.008.025-.014.056-.014.032 0 .057-.007.057-.014 0-.008.02-.014.042-.014.024 0 .043-.007.043-.014 0-.008.025-.014.056-.014s.057-.007.057-.015c0-.007.025-.014.056-.014s.057-.006.057-.014c0-.007.025-.014.056-.014s.057-.006.057-.014c0-.007.032-.014.07-.014.04 0 .071-.006.071-.014 0-.007.025-.014.057-.014.03 0 .056-.006.056-.014 0-.007.032-.014.07-.014.04 0 .071-.006.071-.014s.038-.014.085-.014c.047 0 .085-.006.085-.014s.038-.014.085-.014c.047 0 .085-.006.085-.014s.037-.014.084-.014c.047 0 .085-.006.085-.014s.047-.014.113-.014.113-.006.113-.014.056-.014.141-.014c.085 0 .142-.006.142-.014 0-.009.113-.014.31-.014.198 0 .311-.005.311-.014 0-.008.043-.014.1-.014.056 0 .098.006.098.014 0 .009.113.014.31.014.199 0 .312.005.312.014 0 .008.056.014.14.014.086 0 .142.006.142.014s.043.014.1.014c.056 0 .098.006.098.014s.038.014.085.014c.047 0 .084.006.084.014s.038.014.085.014c.047 0 .085.006.085.014s.032.014.07.014c.04 0 .071.006.071.014s.032.014.07.014c.04 0 .072.007.072.014 0 .008.025.014.056.014s.057.007.057.014c0 .008.025.014.056.014s.057.007.057.014c0 .008.025.014.056.014s.057.007.057.014c0 .008.025.014.056.014s.057.007.057.014c0 .008.019.014.042.014.023 0 .042.007.042.015 0 .007.02.014.043.014.023 0 .042.006.042.014 0 .007.02.014.043.014.023 0 .042.006.042.014 0 .007.025.014.056.014.032 0 .057.006.057.014 0 .007.013.014.028.014.016 0 .028.006.028.014 0 .007.02.014.043.014.023 0 .042.006.042.014s.02.014.043.014c.023 0 .042.006.042.014s.02.014.042.014c.024 0 .043.006.043.014s.012.014.028.014.028.006.028.014.02.014.043.014c.023 0 .042.006.042.014s.013.014.028.014c.016 0 .029.006.029.014s.019.014.042.014c.023 0 .042.006.042.014s.013.014.029.014c.015 0 .028.006.028.014s.013.014.028.014c.016 0 .028.007.028.014 0 .008.02.014.043.014.023 0 .042.007.042.014 0 .008.013.014.028.014.016 0 .029.007.029.014 0 .008.012.014.028.014.015 0 .028.007.028.014 0 .008.013.014.028.014.016 0 .029.007.029.014 0 .008.012.014.028.014.015 0 .028.007.028.014 0 .008.013.015.029.015.015 0 .028.006.028.014 0 .007.012.014.028.014.015 0 .028.006.028.014 0 .007.013.014.029.014.015 0 .028.006.028.014 0 .007.012.014.028.014.015 0 .028.006.028.014 0 .007.013.014.028.014.016 0 .029.006.029.014 0 .007.012.014.028.014s.028.006.028.014.013.014.028.014c.016 0 .029.006.029.014s.012.014.028.014.028.006.028.014.012.014.025.014c.014 0 .035.013.046.028.011.015.032.028.045.028.014 0 .026.006.026.014s.012.014.028.014c.015 0 .028.006.028.014s.011.014.025.014c.014 0 .035.013.046.028.01.016.031.028.045.028.014 0 .025.007.025.014 0 .008.012.014.026.014.013 0 .034.013.045.028.011.016.032.028.046.028.013 0 .025.007.025.014 0 .008.01.014.025.014.014 0 .034.013.045.029.012.015.03.028.043.028.012 0 .03.012.042.028.011.015.03.028.042.028.012 0 .032.012.043.028.011.015.03.028.042.028.012 0 .031.012.043.028.01.015.03.028.042.028.012 0 .031.013.042.028.011.015.03.028.04.028.01 0 .038.019.06.042.021.023.048.042.058.042.011 0 .029.013.04.028.011.016.03.028.04.028.01 0 .037.02.059.042.022.024.047.042.056.042.01 0 .035.02.057.043.022.023.047.042.056.042.01 0 .035.019.057.042.022.023.047.042.056.042a.32.32 0 0 1 .085.07c.038.039.076.07.085.07.01 0 .04.025.07.056.03.031.062.056.071.056a.47.47 0 0 1 .1.084c.045.047.09.085.098.085.008 0 .072.056.141.126a.95.95 0 0 0 .141.126c.02 0 .82.795.82.814 0 .008.045.059.099.112a.581.581 0 0 1 .099.112c0 .009.032.047.07.084.04.038.071.076.071.085 0 .008.026.04.057.07.03.03.056.06.056.07 0 .009.026.04.057.07a.24.24 0 0 1 .056.07c0 .01.02.034.043.056.023.022.042.048.042.059 0 .01.013.028.028.04.016.01.029.028.029.039 0 .01.019.037.042.058.023.022.042.048.042.06 0 .01.013.028.029.039.015.01.028.03.028.042 0 .012.012.03.028.042.016.01.028.03.028.042 0 .012.013.03.029.042.015.011.028.031.028.045 0 .014.006.025.014.025s.014.011.014.025c0 .014.013.034.028.045.016.011.029.03.029.042 0 .012.012.031.028.042.015.012.028.032.028.046 0 .013.007.025.014.025.008 0 .014.01.014.025 0 .013.013.034.029.045.015.01.028.031.028.045 0 .014.006.025.014.025s.014.012.014.028c0 .015.007.028.014.028.008 0 .014.011.014.025 0 .014.013.034.029.045.015.011.028.032.028.045 0 .014.006.025.014.025s.014.013.014.028c0 .016.006.028.014.028s.014.013.014.028c0 .016.007.028.014.028.008 0 .015.013.015.028 0 .016.006.029.014.029s.014.012.014.028c0 .015.006.028.014.028s.014.012.014.028c0 .015.006.028.014.028s.014.012.014.028c0 .015.007.028.015.028.007 0 .014.012.014.028 0 .015.006.028.014.028s.014.013.014.028c0 .015.006.028.014.028s.014.013.014.028c0 .016.006.028.014.028s.014.013.014.028c0 .016.007.028.015.028.007 0 .014.013.014.028 0 .016.006.028.014.028s.014.02.014.042c0 .024.006.043.014.043s.014.012.014.028c0 .015.007.028.014.028.008 0 .015.012.015.028 0 .015.006.028.014.028.007 0 .014.012.014.028 0 .015.006.028.014.028s.014.019.014.042c0 .023.006.042.014.042s.014.013.014.028c0 .015.007.028.014.028.008 0 .015.02.015.042 0 .023.006.042.014.042.007 0 .014.013.014.028 0 .016.006.028.014.028s.014.02.014.043c0 .023.006.042.014.042s.014.018.014.042c0 .023.007.042.014.042.008 0 .015.019.015.042 0 .023.006.042.014.042.007 0 .014.019.014.042 0 .023.006.042.014.042s.014.019.014.042c0 .023.006.042.014.042s.014.02.014.042c0 .024.007.042.014.042.008 0 .015.02.015.042 0 .024.006.043.014.043.007 0 .014.018.014.042 0 .023.006.042.014.042s.014.019.014.042c0 .023.006.042.014.042s.014.025.014.056c0 .03.007.056.014.056.008 0 .015.025.015.056s.006.056.014.056.014.02.014.042c0 .024.006.043.014.043s.014.031.014.07c0 .038.006.07.014.07s.014.025.014.056c0 .03.007.056.014.056.008 0 .015.025.015.056 0 .03.006.056.014.056s.014.032.014.07c0 .039.006.07.014.07s.014.032.014.07c0 .04.006.07.014.07s.014.038.014.085c0 .047.007.084.014.084.008 0 .015.037.015.084 0 .047.006.084.014.084s.014.047.014.113c0 .065.006.112.014.112s.014.047.014.112c0 .066.006.112.014.112.009 0 .014.066.014.169 0 .102.006.168.014.168.01 0 .015.252.015.73 0 .476-.005.729-.015.729-.008 0-.014.065-.014.168 0 .103-.005.168-.014.168-.008 0-.014.047-.014.113 0 .065-.006.112-.014.112s-.014.046-.014.112-.006.112-.014.112-.014.038-.014.084c0 .047-.007.084-.015.084-.007 0-.014.038-.014.085 0 .046-.006.084-.014.084s-.014.031-.014.07c0 .039-.006.07-.014.07s-.014.032-.014.07c0 .039-.006.07-.014.07s-.014.032-.014.07c0 .04-.007.07-.015.07-.007 0-.014.032-.014.07 0 .04-.006.071-.014.071s-.014.025-.014.056c0 .03-.006.056-.014.056s-.014.025-.014.056-.006.056-.014.056-.014.026-.014.056c0 .031-.007.057-.015.057-.007 0-.014.018-.014.042 0 .023-.006.042-.014.042s-.014.025-.014.056c0 .03-.006.056-.014.056s-.014.019-.014.042c0 .023-.007.042-.014.042-.008 0-.014.02-.014.042 0 .023-.007.042-.015.042-.007 0-.014.026-.014.056 0 .031-.006.056-.014.056s-.014.02-.014.043c0 .023-.006.042-.014.042s-.014.019-.014.042c0 .023-.007.042-.014.042-.008 0-.014.019-.014.042 0 .023-.007.042-.015.042-.007 0-.014.019-.014.042 0 .023-.006.042-.014.042s-.014.013-.014.028c0 .016-.006.028-.014.028s-.014.02-.014.042c0 .023-.007.042-.014.042-.008 0-.014.02-.014.043 0 .023-.007.042-.015.042-.007 0-.014.012-.014.028 0 .015-.006.028-.014.028s-.014.019-.014.042c0 .023-.006.042-.014.042s-.014.012-.014.028c0 .015-.007.028-.014.028-.008 0-.014.019-.014.042 0 .023-.007.042-.015.042-.007 0-.014.013-.014.028 0 .016-.006.028-.014.028s-.014.02-.014.042c0 .024-.006.042-.014.042s-.014.013-.014.028c0 .016-.007.029-.014.029-.008 0-.015.012-.015.028 0 .015-.006.028-.014.028s-.014.012-.014.028c0 .015-.006.028-.014.028s-.014.019-.014.042c0 .023-.006.042-.014.042s-.014.012-.014.028c0 .015-.007.028-.014.028-.008 0-.015.013-.015.028 0 .015-.006.028-.014.028s-.014.013-.014.028c0 .016-.006.028-.014.028s-.014.013-.014.028c0 .016-.006.028-.014.028s-.014.013-.014.028c0 .016-.007.029-.015.029-.007 0-.014.012-.014.027 0 .016-.006.029-.014.029s-.014.012-.014.028c0 .015-.006.028-.014.028s-.014.012-.014.028c0 .015-.006.028-.014.028s-.014.012-.014.028c0 .015-.007.028-.015.028-.007 0-.014.012-.014.028 0 .015-.006.028-.014.028s-.014.011-.014.025c0 .014-.013.034-.028.045-.016.011-.028.032-.028.045 0 .014-.007.025-.015.025-.007 0-.014.013-.014.028 0 .016-.006.028-.014.028-.007 0-.014.013-.014.028 0 .016-.006.028-.014.028s-.014.012-.014.025c0 .014-.013.035-.028.046-.016.01-.029.031-.029.045 0 .014-.006.025-.014.025s-.014.011-.014.025c0 .013-.013.034-.028.045-.016.011-.028.031-.028.045 0 .014-.007.025-.015.025-.007 0-.014.011-.014.025 0 .014-.012.034-.028.045-.015.011-.028.03-.028.042 0 .012-.013.031-.029.042-.015.011-.028.03-.028.042 0 .012-.012.031-.028.043-.015.01-.028.03-.028.042 0 .012-.013.03-.029.042-.015.01-.028.03-.028.042 0 .012-.012.03-.028.042-.015.01-.028.03-.028.042 0 .012-.013.03-.028.042-.016.011-.029.03-.029.042 0 .012-.012.031-.028.042-.016.011-.028.03-.028.04 0 .01-.02.037-.043.058-.023.022-.042.047-.042.056 0 .01-.02.035-.042.056-.024.022-.043.047-.043.056 0 .01-.025.041-.056.07-.031.03-.057.062-.057.071 0 .01-.019.034-.042.056-.023.022-.043.047-.043.056a.321.321 0 0 1-.07.084.328.328 0 0 0-.07.084c0 .009-.045.06-.1.113a.608.608 0 0 0-.099.111c0 .02-.772.786-.791.786a.462.462 0 0 0-.099.085.445.445 0 0 1-.099.084.329.329 0 0 0-.084.07.324.324 0 0 1-.085.07c-.01 0-.04.025-.07.056a.222.222 0 0 1-.072.056c-.009 0-.034.02-.056.042-.022.023-.047.042-.056.042-.01 0-.035.02-.057.043-.022.023-.047.042-.056.042-.01 0-.035.018-.057.042-.022.023-.048.042-.059.042-.01 0-.029.012-.04.028-.011.015-.03.028-.042.028-.012 0-.031.012-.043.028-.01.015-.03.028-.042.028-.012 0-.031.013-.042.028-.012.015-.03.028-.043.028-.012 0-.031.013-.042.028-.011.015-.03.028-.043.028-.012 0-.03.013-.042.028-.011.016-.03.028-.042.028-.012 0-.032.013-.043.028-.01.016-.031.028-.045.028-.014 0-.025.007-.025.014 0 .008-.012.014-.026.014-.013 0-.034.013-.045.028-.011.016-.032.029-.046.029-.013 0-.025.006-.025.014 0 .007-.01.014-.025.014-.014 0-.034.012-.045.028-.011.015-.032.028-.046.028-.014 0-.025.006-.025.014 0 .007-.013.014-.028.014-.016 0-.028.006-.028.014s-.012.014-.025.014c-.014 0-.035.012-.046.028-.011.015-.032.028-.046.028-.013 0-.025.006-.025.014s-.012.014-.028.014c-.015 0-.028.006-.028.014s-.013.014-.028.014c-.016 0-.029.006-.029.014s-.011.014-.025.014c-.014 0-.034.013-.045.028-.011.016-.032.028-.046.028-.014 0-.025.006-.025.014s-.013.014-.028.014c-.016 0-.029.006-.029.014s-.012.014-.028.014c-.015 0-.028.007-.028.014 0 .008-.013.014-.028.014-.016 0-.029.007-.029.014 0 .008-.012.014-.028.014-.015 0-.028.007-.028.014 0 .008-.013.014-.028.014-.016 0-.029.007-.029.015 0 .007-.012.014-.028.014-.015 0-.028.006-.028.014 0 .007-.013.014-.028.014-.016 0-.029.006-.029.014 0 .007-.012.014-.028.014-.015 0-.028.006-.028.014 0 .007-.013.014-.028.014-.016 0-.029.006-.029.014 0 .007-.012.014-.028.014-.015 0-.028.006-.028.014s-.013.014-.028.014c-.016 0-.029.006-.029.014s-.012.014-.028.014c-.015 0-.028.006-.028.014s-.02.014-.043.014c-.023 0-.042.006-.042.014s-.013.014-.028.014c-.016 0-.028.006-.028.014s-.013.014-.029.014c-.015 0-.028.006-.028.014s-.013.014-.028.014c-.016 0-.028.006-.028.014s-.02.014-.043.014c-.023 0-.042.006-.042.014s-.013.014-.028.014c-.016 0-.029.006-.029.014s-.019.014-.042.014c-.023 0-.042.006-.042.014s-.013.014-.029.014c-.015 0-.028.007-.028.014 0 .008-.019.014-.042.014-.024 0-.043.007-.043.014 0 .008-.012.014-.028.014-.015 0-.028.007-.028.014 0 .008-.02.014-.043.014-.023 0-.042.007-.042.014 0 .008-.013.014-.028.014-.016 0-.029.007-.029.015 0 .007-.019.014-.042.014-.023 0-.042.006-.042.014 0 .007-.02.014-.043.014-.023 0-.042.006-.042.014 0 .007-.02.014-.042.014-.024 0-.043.006-.043.014 0 .007-.019.014-.042.014-.024 0-.043.006-.043.014 0 .007-.019.014-.042.014-.023 0-.042.006-.042.014s-.02.014-.043.014c-.023 0-.042.006-.042.014s-.02.014-.043.014c-.023 0-.042.006-.042.014s-.019.014-.042.014c-.024 0-.043.006-.043.014s-.025.014-.056.014-.057.006-.057.014-.019.014-.042.014c-.023 0-.042.006-.042.014s-.026.014-.057.014c-.031 0-.056.006-.056.014s-.026.014-.057.014c-.031 0-.056.006-.056.014s-.026.014-.057.014c-.031 0-.056.006-.056.014s-.026.014-.057.014c-.031 0-.056.006-.056.014s-.032.014-.071.014c-.039 0-.07.007-.07.014 0 .008-.033.014-.071.014-.04 0-.071.007-.071.014 0 .008-.038.014-.085.014-.047 0-.085.007-.085.014 0 .008-.031.015-.07.015-.04 0-.07.006-.07.014s-.048.014-.114.014-.113.005-.113.014c0 .008-.047.014-.113.014s-.113.005-.113.014c0 .008-.061.014-.155.014-.095 0-.156.005-.156.014 0 .009-.198.014-.565.014-.367 0-.565-.005-.565-.014 0-.009-.061-.014-.155-.014-.095 0-.156-.006-.156-.014 0-.009-.047-.014-.113-.014s-.113-.006-.113-.015c0-.008-.042-.014-.099-.014-.056 0-.099-.006-.099-.014 0-.007-.031-.014-.07-.014-.04 0-.07-.006-.07-.014 0-.007-.039-.014-.086-.014-.047 0-.085-.006-.085-.014 0-.007-.025-.014-.056-.014s-.056-.006-.056-.014c0-.007-.032-.014-.071-.014-.039 0-.07-.006-.07-.014s-.026-.014-.057-.014c-.031 0-.057-.006-.057-.014s-.025-.014-.056-.014-.057-.006-.057-.014-.019-.014-.042-.014c-.023 0-.043-.006-.043-.014s-.025-.014-.056-.014-.057-.006-.057-.014-.019-.014-.042-.014c-.023 0-.042-.006-.042-.014s-.02-.014-.043-.014c-.023 0-.042-.006-.042-.014s-.02-.014-.043-.014c-.023 0-.042-.006-.042-.014s-.019-.014-.042-.014c-.024 0-.043-.006-.043-.014s-.019-.014-.042-.014c-.023 0-.042-.006-.042-.014s-.02-.014-.043-.014c-.023 0-.042-.007-.042-.014 0-.008-.013-.014-.028-.014-.016 0-.029-.007-.029-.014 0-.008-.019-.014-.042-.014-.023 0-.042-.007-.042-.014 0-.008-.013-.014-.029-.014-.015 0-.028-.007-.028-.014 0-.008-.02-.014-.042-.014-.024 0-.043-.007-.043-.014 0-.008-.012-.015-.028-.015-.015 0-.028-.006-.028-.014 0-.007-.02-.014-.043-.014-.023 0-.042-.006-.042-.014 0-.007-.013-.014-.028-.014-.016 0-.028-.006-.028-.014 0-.007-.013-.014-.029-.014-.015 0-.028-.006-.028-.014 0-.007-.013-.014-.028-.014-.016 0-.029-.006-.029-.014s-.012-.014-.028-.014c-.015 0-.028-.006-.028-.014s-.02-.014-.042-.014c-.024 0-.043-.006-.043-.014s-.013-.014-.028-.014c-.016 0-.028-.006-.028-.014s-.013-.014-.029-.014c-.015 0-.028-.006-.028-.014s-.011-.014-.025-.014c-.014 0-.034-.013-.046-.028-.01-.015-.031-.028-.045-.028-.014 0-.025-.006-.025-.014s-.013-.014-.028-.014c-.016 0-.029-.007-.029-.014 0-.008-.012-.014-.028-.014-.015 0-.028-.006-.028-.014s-.013-.014-.028-.014c-.016 0-.029-.007-.029-.014 0-.008-.012-.014-.028-.014-.015 0-.028-.007-.028-.014 0-.008-.011-.014-.025-.014-.014 0-.035-.013-.046-.028-.011-.016-.031-.029-.045-.029-.014 0-.025-.006-.025-.014 0-.007-.012-.014-.026-.014-.013 0-.034-.012-.045-.028-.011-.015-.032-.028-.046-.028-.013 0-.025-.006-.025-.014 0-.007-.011-.014-.025-.014-.014 0-.034-.012-.045-.028-.012-.015-.03-.028-.043-.028-.012 0-.03-.012-.042-.028-.011-.015-.03-.028-.043-.028-.012 0-.03-.013-.042-.028-.011-.015-.03-.028-.042-.028-.012 0-.031-.013-.043-.028-.01-.015-.03-.028-.042-.028-.012 0-.031-.013-.042-.028-.012-.016-.03-.028-.043-.028-.012 0-.031-.013-.042-.028-.011-.016-.03-.028-.04-.028-.01 0-.037-.02-.06-.042-.02-.024-.047-.043-.058-.043-.01 0-.029-.012-.04-.028-.011-.015-.032-.028-.046-.028-.013 0-.025-.006-.025-.014 0-.007-.012-.014-.028-.014-.015 0-.028-.006-.028-.014 0-.007-.018-.014-.04-.014a.077.077 0 0 1-.059-.028c-.011-.015-.032-.028-.046-.028-.013 0-.025-.006-.025-.014s-.012-.014-.028-.014c-.015 0-.028-.006-.028-.014s-.013-.014-.028-.014c-.016 0-.029-.006-.029-.014s-.012-.014-.028-.014c-.015 0-.028-.006-.028-.014s-.012-.014-.025-.014c-.014 0-.035-.013-.046-.028-.011-.016-.03-.028-.042-.028-.012 0-.031-.013-.043-.028-.01-.016-.03-.028-.042-.028-.012 0-.031-.013-.042-.028-.012-.016-.03-.028-.043-.028-.012 0-.03-.013-.042-.028-.011-.016-.03-.029-.04-.029-.01 0-.037-.018-.06-.042-.02-.023-.046-.042-.056-.042-.009 0-.034-.019-.056-.042-.022-.023-.047-.042-.056-.042a.32.32 0 0 1-.085-.07.333.333 0 0 0-.085-.07 1.11 1.11 0 0 1-.156-.14 1.127 1.127 0 0 0-.155-.14.596.596 0 0 1-.113-.099c-.1-.1-.141-.12-.141-.07 0 .015.006.028.014.028s.014.011.014.025c0 .014.013.034.028.045.016.011.029.03.029.04 0 .01.019.037.042.058.023.022.042.048.042.059 0 .01.013.028.029.04.015.01.028.028.028.04 0 .01.019.036.042.058.024.021.043.047.043.056 0 .009.025.04.056.07.031.03.057.061.057.07 0 .02.064.084.085.084.009 0 .034.02.056.042.022.024.048.043.059.043.01 0 .029.012.04.028.011.015.03.028.042.028.012 0 .031.012.043.028.01.015.03.028.042.028.012 0 .031.012.042.028.012.015.03.028.043.028.012 0 .03.012.042.028.011.015.03.028.042.028.013 0 .032.013.043.028.011.015.03.028.042.028.012 0 .031.013.043.028.01.015.03.028.042.028.012 0 .031.013.042.028.012.016.032.028.046.028.014 0 .025.007.025.014 0 .008.011.014.025.014.014 0 .034.013.046.028.01.016.03.028.042.028.012 0 .031.013.042.028.012.016.032.029.046.029.014 0 .025.006.025.014 0 .007.011.014.025.014.014 0 .035.012.046.028.01.015.031.028.045.028.014 0 .025.006.025.014 0 .007.012.014.025.014.014 0 .035.012.046.028.011.015.032.028.045.028.014 0 .026.006.026.014s.012.014.028.014c.015 0 .028.006.028.014s.013.014.028.014c.016 0 .029.006.029.014s.011.014.025.014c.014 0 .034.013.045.028.011.015.032.028.046.028.014 0 .025.006.025.014s.011.014.025.014c.014 0 .034.013.046.028.01.016.03.028.042.028.012 0 .031.013.042.028.011.016.03.028.043.028.012 0 .03.013.042.028.011.016.03.029.043.029.012 0 .03.012.042.028.011.015.031.028.045.028.014 0 .025.006.025.014 0 .007.012.014.026.014.014 0 .034.012.045.028.011.015.03.028.042.028.013 0 .032.012.043.028.011.015.03.028.042.028.012 0 .031.012.043.028.01.015.03.028.042.028.012 0 .031.013.042.028.012.015.03.028.043.028.012 0 .031.013.042.028.011.016.03.028.043.028.012 0 .03.013.042.028.011.016.03.028.042.028.012 0 .031.013.043.028.01.016.029.028.04.028.025 0 .065.041.051.054-.006.005-.013.002-.017-.008-.003-.01-.018-.018-.033-.018-.015 0-.027-.006-.027-.014 0-.007-.013-.014-.028-.014-.016 0-.029-.006-.029-.014 0-.007-.012-.014-.028-.014-.015 0-.028-.006-.028-.014 0-.007-.02-.014-.042-.014-.024 0-.043-.006-.043-.014 0-.007-.013-.014-.028-.014-.016 0-.028-.006-.028-.014s-.013-.014-.029-.014c-.015 0-.028-.006-.028-.014s-.013-.014-.028-.014c-.016 0-.028-.006-.028-.014s-.013-.014-.029-.014c-.015 0-.028-.006-.028-.014s-.013-.014-.028-.014c-.016 0-.029-.006-.029-.014s-.012-.014-.028-.014c-.015 0-.028-.006-.028-.014s-.013-.014-.028-.014c-.016 0-.028-.006-.028-.014s-.013-.014-.029-.014c-.015 0-.028-.006-.028-.014s-.013-.014-.028-.014c-.016 0-.028-.007-.028-.014 0-.008-.013-.014-.029-.014-.015 0-.028-.006-.028-.014s-.013-.014-.028-.014c-.016 0-.029-.007-.029-.014 0-.008-.012-.014-.028-.014-.015 0-.028-.007-.028-.014 0-.008-.013-.014-.028-.014-.016 0-.029-.007-.029-.014 0-.008-.012-.014-.028-.014-.015 0-.028-.007-.028-.015 0-.007-.013-.014-.028-.014-.016 0-.029-.006-.029-.014 0-.007-.012-.014-.028-.014-.015 0-.028-.006-.028-.014 0-.007-.013-.014-.028-.014-.016 0-.029-.006-.029-.014 0-.007-.012-.014-.028-.014-.015 0-.028-.006-.028-.014 0-.007-.013-.014-.028-.014-.016 0-.029-.006-.029-.014s-.011-.014-.025-.014c-.014 0-.034-.012-.045-.028-.011-.015-.032-.028-.046-.028-.014 0-.025-.006-.025-.014s-.013-.014-.028-.014c-.016 0-.028-.006-.028-.014s-.012-.014-.026-.014c-.013 0-.034-.013-.045-.028-.011-.015-.03-.028-.04-.028-.01 0-.037-.019-.059-.042-.022-.023-.047-.042-.056-.042a.436.436 0 0 1-.1-.084.45.45 0 0 0-.098-.085.588.588 0 0 1-.113-.098.591.591 0 0 0-.113-.098.588.588 0 0 1-.113-.098.588.588 0 0 0-.113-.098.748.748 0 0 1-.127-.113.75.75 0 0 0-.128-.112.592.592 0 0 1-.113-.098.592.592 0 0 0-.113-.098.745.745 0 0 1-.127-.112.75.75 0 0 0-.127-.113.592.592 0 0 1-.113-.098.592.592 0 0 0-.113-.098.75.75 0 0 1-.127-.112.752.752 0 0 0-.127-.112.753.753 0 0 1-.127-.113.752.752 0 0 0-.128-.112.753.753 0 0 1-.127-.112.755.755 0 0 0-.127-.112c-.021 0-.113-.094-.113-.116 0-.01-.013-.027-.028-.039-.016-.01-.028-.029-.028-.04 0-.01-.02-.036-.043-.058-.023-.021-.042-.048-.042-.058 0-.011-.013-.029-.028-.04-.016-.011-.029-.029-.029-.04 0-.01-.019-.037-.042-.058-.023-.022-.043-.048-.043-.059 0-.01-.012-.028-.028-.04-.015-.01-.028-.03-.028-.041 0-.012-.013-.031-.028-.042-.016-.012-.029-.03-.029-.043 0-.012-.012-.03-.028-.042-.015-.01-.028-.03-.028-.042 0-.012-.013-.03-.028-.042-.016-.01-.029-.03-.029-.042 0-.012-.012-.03-.028-.042-.015-.011-.028-.03-.028-.042 0-.012-.013-.031-.028-.042-.016-.011-.029-.03-.029-.042 0-.012-.012-.031-.028-.042-.015-.011-.028-.03-.028-.042 0-.012-.013-.031-.028-.043-.016-.01-.029-.03-.029-.041 0-.013-.012-.032-.028-.043-.015-.01-.028-.031-.028-.045 0-.014-.006-.025-.014-.025s-.014-.011-.014-.025c0-.013-.013-.034-.029-.045-.015-.011-.028-.03-.028-.042 0-.012-.013-.03-.028-.042-.016-.011-.028-.032-.028-.045 0-.014-.007-.025-.015-.025-.007 0-.014-.011-.014-.025 0-.014-.012-.034-.028-.045-.015-.011-.028-.03-.028-.042 0-.012-.013-.031-.028-.042-.016-.012-.029-.032-.029-.046 0-.013-.006-.025-.014-.025s-.014-.01-.014-.025c0-.013-.013-.034-.028-.045-.016-.01-.028-.031-.028-.045 0-.014-.007-.025-.015-.025-.007 0-.014-.012-.014-.028 0-.015-.006-.028-.014-.028s-.014-.011-.014-.025c0-.014-.013-.034-.028-.045-.016-.011-.028-.032-.028-.045 0-.014-.007-.025-.015-.025-.007 0-.014-.012-.014-.025 0-.014-.012-.034-.028-.045-.016-.012-.028-.032-.028-.046 0-.013-.007-.024-.014-.024-.008 0-.014-.013-.014-.029 0-.015-.007-.028-.015-.028-.007 0-.014-.012-.014-.028 0-.015-.006-.028-.014-.028s-.014-.011-.014-.025c0-.013-.013-.034-.028-.045-.016-.011-.029-.031-.029-.045 0-.014-.006-.025-.014-.025-.007 0-.014-.013-.014-.028 0-.015-.006-.028-.014-.028s-.014-.013-.014-.028c0-.016-.006-.028-.014-.028s-.014-.013-.014-.028c0-.016-.007-.028-.014-.028-.008 0-.015-.013-.015-.028 0-.016-.006-.029-.014-.029-.007 0-.014-.01-.014-.024s-.012-.035-.028-.046c-.016-.01-.028-.031-.028-.045 0-.014-.007-.025-.014-.025-.008 0-.015-.012-.015-.028 0-.015-.006-.028-.014-.028-.007 0-.014-.012-.014-.028 0-.015-.006-.028-.014-.028s-.014-.013-.014-.028c0-.015-.006-.028-.014-.028S4.96 18 4.96 17.977c0-.023-.007-.042-.014-.042-.008 0-.015-.013-.015-.028 0-.016-.006-.028-.014-.028-.007 0-.014-.013-.014-.028 0-.016-.006-.028-.014-.028s-.014-.013-.014-.029c0-.015-.006-.028-.014-.028s-.014-.012-.014-.028c0-.015-.007-.028-.014-.028-.008 0-.015-.012-.015-.028 0-.015-.006-.028-.014-.028-.007 0-.014-.019-.014-.042 0-.023-.006-.042-.014-.042s-.014-.013-.014-.028c0-.015-.006-.028-.014-.028s-.014-.013-.014-.028c0-.015-.007-.028-.014-.028-.008 0-.015-.02-.015-.042 0-.023-.006-.042-.014-.042s-.014-.013-.014-.028c0-.016-.006-.028-.014-.028s-.014-.02-.014-.043c0-.023-.006-.042-.014-.042s-.014-.012-.014-.028c0-.015-.007-.028-.015-.028-.007 0-.014-.019-.014-.042 0-.023-.006-.042-.014-.042s-.014-.019-.014-.042c0-.023-.006-.042-.014-.042s-.014-.019-.014-.042c0-.023-.006-.042-.014-.042s-.014-.02-.014-.042c0-.023-.007-.042-.015-.042-.007 0-.014-.02-.014-.042 0-.024-.006-.043-.014-.043s-.014-.025-.014-.056c0-.03-.006-.056-.014-.056s-.014-.025-.014-.056c0-.03-.007-.056-.014-.056-.008 0-.014-.025-.014-.056 0-.03-.007-.056-.015-.056-.007 0-.014-.038-.014-.084 0-.047-.006-.084-.014-.084s-.014-.043-.014-.099c0-.056-.006-.098-.014-.098s-.014-.037-.014-.084c0-.047-.006-.084-.014-.084-.009 0-.014-.047-.014-.112 0-.066-.006-.113-.015-.113-.008 0-.014-.042-.014-.098s-.006-.098-.014-.098-.014-.047-.014-.112c0-.066-.006-.112-.014-.112s-.014-.052-.014-.127c0-.075-.006-.126-.014-.126-.009 0-.014-.056-.014-.14 0-.084-.006-.14-.015-.14-.008 0-.014-.066-.014-.169 0-.103-.005-.168-.014-.168-.009 0-.014-.187-.014-.533 0-.346.005-.533.014-.533.009 0 .014-.06.014-.154s.006-.155.014-.155.015-.042.015-.098.006-.098.014-.098.014-.038.014-.084c0-.047.006-.085.014-.085s.014-.037.014-.084c0-.046.006-.084.014-.084s.014-.031.014-.07c0-.039.007-.07.014-.07.008 0 .015-.032.015-.07 0-.039.006-.07.014-.07.007 0 .014-.032.014-.07 0-.039.006-.07.014-.07s.014-.032.014-.07c0-.04.006-.07.014-.07s.014-.032.014-.071c0-.039.007-.07.014-.07.008 0 .015-.032.015-.07 0-.039.006-.07.014-.07.007 0 .014-.032.014-.07 0-.04.006-.07.014-.07s.014-.026.014-.057c0-.03.006-.056.014-.056s.014-.025.014-.056c0-.03-.006-.056-.014-.056s-.014.019-.014.042c0 .023-.006.042-.014.042s-.014.025-.014.056-.007.056-.014.056c-.008 0-.014.025-.014.056s-.007.056-.015.056c-.007 0-.014.026-.014.057 0 .03-.006.056-.014.056s-.014.025-.014.056c0 .03-.006.056-.014.056s-.014.025-.014.056c0 .03-.007.056-.014.056-.008 0-.014.025-.014.056s-.007.056-.015.056c-.007 0-.014.032-.014.07 0 .04-.006.07-.014.07s-.014.032-.014.07c0 .04-.006.07-.014.07s-.014.032-.014.071c0 .039-.007.07-.014.07-.008 0-.014.038-.014.084 0 .047-.007.085-.015.085-.007 0-.014.031-.014.07 0 .038-.006.07-.014.07s-.014.042-.014.098-.006.098-.014.098-.014.042-.014.098-.006.098-.014.098c-.009 0-.014.052-.014.127 0 .075-.006.126-.015.126-.008 0-.014.066-.014.168 0 .103-.005.169-.014.169-.009 0-.014.168-.014.477 0 .308.005.476.014.476.009 0 .014.061.014.155 0 .093.006.154.014.154.009 0 .015.06.015.154s.005.155.014.155c.008 0 .014.06.014.154s.005.154.014.154c.008 0 .014.056.014.14 0 .085.006.14.014.14.009 0 .014.052.014.127 0 .075.006.126.014.126s.015.042.015.099c0 .056.006.098.014.098s.014.037.014.084c0 .047.006.084.014.084s.014.032.014.07c0 .039.006.07.014.07s.014.026.014.056c0 .031.007.056.014.056.008 0 .015.026.015.057 0 .03.006.056.014.056.007 0 .014.019.014.042 0 .023.006.042.014.042s.014.019.014.042c0 .023.006.042.014.042s.014.019.014.042c0 .023.007.042.014.042.008 0 .015.02.015.042 0 .023.006.042.014.042.007 0 .014.02.014.042 0 .024.006.043.014.043s.014.018.014.042c0 .023.006.042.014.042s.014.012.014.028c0 .015.007.028.014.028.008 0 .015.019.015.042 0 .023.006.042.014.042s.014.019.014.042c0 .023.006.042.014.042s.014.013.014.028c0 .016.006.028.014.028s.014.02.014.042c0 .023.007.042.014.042.008 0 .015.013.015.028 0 .016.006.029.014.029s.014.018.014.042c0 .023.006.042.014.042s.014.012.014.028c0 .015.006.028.014.028s.014.012.014.028c0 .015.007.028.015.028.007 0 .014.019.014.042 0 .023.006.042.014.042s.014.013.014.028c0 .015.006.028.014.028s.014.013.014.028c0 .016.007.028.014.028.008 0 .014.013.014.028 0 .016.007.028.015.028.007 0 .014.013.014.028 0 .016.006.028.014.028s.014.013.014.029c0 .015.006.028.014.028s.014.012.014.028c0 .015.007.028.014.028.008 0 .014.012.014.028 0 .015.007.028.015.028.007 0 .014.012.014.028 0 .015.006.028.014.028s.014.012.014.028c0 .015.006.028.014.028s.014.013.014.028c0 .015.007.028.014.028.008 0 .014.013.014.028 0 .016.007.028.015.028.007 0 .014.013.014.028 0 .016.006.028.014.028s.014.013.014.028c0 .016.006.029.014.029s.014.01.014.024.013.034.028.046c.016.01.029.031.029.045 0 .013.006.025.014.025s.014.012.014.028c0 .015.006.028.014.028s.014.011.014.025c0 .014.013.034.028.045.016.011.029.031.029.045 0 .014.006.025.014.025s.014.013.014.028c0 .016.006.028.014.028s.014.012.014.025c0 .014.013.034.029.045.015.012.028.032.028.046 0 .013.006.024.014.024s.014.012.014.025c0 .014.013.035.028.046.016.01.029.031.029.045 0 .014.006.025.014.025.007 0 .014.011.014.025 0 .013.013.034.028.045.016.011.028.031.028.045 0 .014.007.025.014.025.008 0 .015.011.015.025 0 .014.012.034.028.045.015.011.028.03.028.042 0 .012.013.031.028.042.016.011.029.03.029.042 0 .012.012.031.028.043.015.01.028.03.028.042 0 .012.013.03.028.042.016.01.029.03.029.042 0 .012.012.03.028.042.015.01.028.03.028.042 0 .012.013.03.028.042.016.011.029.03.029.042 0 .012.012.031.028.042.015.011.028.03.028.042 0 .012.013.031.028.042.016.011.029.03.029.04 0 .01.019.037.042.058.023.022.042.049.042.06 0 .01.013.028.029.039.015.01.028.029.028.039 0 .01.025.043.056.073.032.03.057.06.057.07 0 .023.237.253.261.253.012 0 .022.006.022.014 0 .007.01.014.025.014.013 0 .034.012.045.028.011.015.029.028.039.028.021 0 .795.764.795.786 0 .008.057.07.127.14a.9.9 0 0 1 .127.14.34.34 0 0 0 .072.085c.04.039.069.074.064.079-.005.005-.02-.005-.035-.022-.015-.016-.034-.03-.044-.03-.01 0-.041-.025-.071-.056a.234.234 0 0 0-.07-.056.323.323 0 0 1-.086-.07.325.325 0 0 0-.084-.07.326.326 0 0 1-.085-.07.327.327 0 0 0-.085-.07.327.327 0 0 1-.085-.07.33.33 0 0 0-.084-.071.584.584 0 0 1-.113-.098.593.593 0 0 0-.113-.098.745.745 0 0 1-.128-.113.774.774 0 0 0-.126-.112c-.02 0-.848-.823-.848-.842a.337.337 0 0 0-.071-.084.32.32 0 0 1-.07-.084c0-.01-.02-.034-.043-.056-.023-.022-.042-.048-.042-.059 0-.01-.013-.028-.029-.04-.015-.01-.028-.03-.028-.041 0-.012-.013-.031-.028-.042-.016-.011-.028-.032-.028-.046 0-.013-.007-.024-.015-.024-.007 0-.014-.013-.014-.029 0-.015-.006-.027-.014-.027s-.014-.012-.014-.026c0-.013-.013-.034-.028-.045-.016-.01-.028-.031-.028-.045 0-.014-.007-.025-.015-.025-.007 0-.014-.012-.014-.028 0-.015-.006-.028-.014-.028s-.014-.011-.014-.025c0-.014-.013-.034-.028-.045-.016-.011-.029-.032-.029-.045 0-.014-.006-.025-.014-.025-.007 0-.014-.013-.014-.028 0-.016-.006-.028-.014-.028s-.014-.013-.014-.028c0-.016-.006-.028-.014-.028s-.014-.013-.014-.028c0-.016-.007-.029-.014-.029-.008 0-.015-.01-.015-.024s-.012-.034-.028-.046c-.015-.01-.028-.031-.028-.045 0-.014-.006-.025-.014-.025s-.014-.012-.014-.028c0-.015-.007-.028-.014-.028-.008 0-.015-.012-.015-.028 0-.015-.006-.028-.014-.028-.007 0-.014-.013-.014-.028 0-.015-.006-.028-.014-.028S4.99 19.016 4.99 19s-.006-.028-.014-.028-.014-.013-.014-.028c0-.016-.007-.028-.014-.028-.008 0-.015-.013-.015-.028 0-.016-.006-.028-.014-.028-.007 0-.014-.013-.014-.029 0-.015-.006-.027-.014-.027s-.014-.013-.014-.029c0-.015-.006-.028-.014-.028s-.014-.012-.014-.028c0-.015-.007-.028-.014-.028-.008 0-.015-.019-.015-.042 0-.023-.006-.042-.014-.042-.007 0-.014-.012-.014-.028 0-.015-.006-.028-.014-.028s-.014-.013-.014-.028c0-.015-.006-.028-.014-.028s-.014-.013-.014-.028c0-.016-.007-.028-.014-.028-.008 0-.015-.013-.015-.028 0-.016-.006-.028-.014-.028s-.014-.02-.014-.042c0-.024-.006-.043-.014-.043s-.014-.012-.014-.028c0-.015-.006-.028-.014-.028s-.014-.012-.014-.028c0-.015-.007-.028-.015-.028-.007 0-.014-.019-.014-.042 0-.023-.006-.042-.014-.042s-.014-.013-.014-.028c0-.015-.006-.028-.014-.028s-.014-.013-.014-.028c0-.015-.006-.028-.014-.028s-.014-.02-.014-.042c0-.023-.007-.042-.015-.042-.007 0-.014-.013-.014-.028 0-.016-.006-.028-.014-.028s-.014-.02-.014-.043c0-.023-.006-.042-.014-.042s-.014-.018-.014-.042c0-.023-.007-.042-.014-.042-.008 0-.014-.012-.014-.028 0-.015-.007-.028-.015-.028-.007 0-.014-.019-.014-.042 0-.023-.006-.042-.014-.042s-.014-.019-.014-.042c0-.023-.006-.042-.014-.042s-.014-.02-.014-.042c0-.023-.007-.042-.014-.042-.008 0-.014-.02-.014-.042 0-.024-.007-.043-.015-.043-.007 0-.014-.018-.014-.042 0-.023-.006-.042-.014-.042s-.014-.019-.014-.042c0-.023-.006-.042-.014-.042s-.014-.019-.014-.042c0-.023-.007-.042-.014-.042-.008 0-.014-.019-.014-.042 0-.023-.007-.042-.015-.042-.007 0-.014-.02-.014-.042 0-.023-.006-.042-.014-.042s-.014.019-.014.042c0 .023.006.042.014.042s.014.019.014.042c0 .023.007.042.014.042.008 0 .015.025.015.056s.006.056.014.056c.007 0 .014.025.014.056s.006.057.014.057.014.025.014.056c0 .03.006.056.014.056s.014.019.014.042c0 .023.007.042.014.042.008 0 .015.025.015.056 0 .03.006.056.014.056.007 0 .014.019.014.042 0 .023.006.042.014.042s.014.026.014.056c0 .031.006.056.014.056s.014.02.014.043c0 .023.007.042.014.042.008 0 .015.025.015.056 0 .03.006.056.014.056.007 0 .014.019.014.042 0 .023.006.042.014.042s.014.019.014.042c0 .023.006.042.014.042s.014.02.014.042c0 .023.007.042.014.042.008 0 .015.013.015.028 0 .016.006.028.014.028s.014.02.014.043c0 .023.006.042.014.042s.014.012.014.028c0 .015.006.028.014.028s.014.019.014.042c0 .023.007.042.014.042.008 0 .015.013.015.028 0 .015.006.028.014.028s.014.013.014.028c0 .016.006.028.014.028s.014.019.014.042c0 .023.006.042.014.042s.014.013.014.028c0 .016.007.028.015.028.007 0 .014.012.014.025 0 .014.012.034.028.046.015.01.028.03.028.045 0 .013.007.025.014.025.008 0 .014.012.014.028 0 .015.007.028.015.028.007 0 .014.012.014.028 0 .015.006.028.014.028s.014.012.014.028c0 .015.006.028.014.028s.014.011.014.025c0 .014.013.034.028.045.016.011.029.03.029.042 0 .012.012.031.028.042.015.011.028.032.028.045 0 .02-.011.025-.05.025-.041 0-.062-.012-.127-.076a.356.356 0 0 1-.077-.096c0-.01-.013-.027-.028-.038-.016-.011-.029-.032-.029-.045 0-.014-.006-.025-.014-.025s-.014-.013-.014-.028c0-.016-.006-.028-.014-.028s-.014-.013-.014-.028c0-.016-.006-.028-.014-.028s-.014-.013-.014-.028c0-.016-.007-.029-.015-.029-.007 0-.014-.012-.014-.027 0-.016-.006-.029-.014-.029s-.014-.018-.014-.042c0-.023-.006-.042-.014-.042s-.014-.012-.014-.028c0-.015-.006-.028-.014-.028s-.014-.012-.014-.028c0-.015-.007-.028-.015-.028-.007 0-.014-.013-.014-.028 0-.015-.006-.028-.014-.028s-.014-.013-.014-.028c0-.016-.006-.028-.014-.028s-.014-.02-.014-.042c0-.023-.007-.042-.014-.042-.008 0-.014-.013-.014-.028 0-.016-.007-.029-.015-.029-.007 0-.014-.012-.014-.028 0-.015-.006-.028-.014-.028s-.014-.012-.014-.028c0-.015-.006-.028-.014-.028s-.014-.019-.014-.042c0-.023-.007-.042-.014-.042-.008 0-.014-.012-.014-.028 0-.015-.007-.028-.015-.028-.007 0-.014-.019-.014-.042 0-.023-.006-.042-.014-.042s-.014-.013-.014-.028c0-.016-.006-.028-.014-.028s-.014-.02-.014-.042c0-.024-.007-.042-.014-.042-.008 0-.014-.013-.014-.028 0-.016-.007-.029-.015-.029-.007 0-.014.013-.014.029 0 .015.007.028.014.028.008 0 .015.018.015.042 0 .023.006.042.014.042.007 0 .014.025.014.056 0 .03.006.056.014.056s.014.025.014.056.006.056.014.056.014.026.014.056c0 .031.007.056.014.056.008 0 .015.02.015.043 0 .023.006.042.014.042.007 0 .014.025.014.056 0 .03.006.056.014.056s.014.025.014.056c0 .03.006.056.014.056s.014.019.014.042c0 .023.007.042.014.042.008 0 .015.025.015.056s.006.056.014.056c.007 0 .014.02.014.043 0 .023.006.042.014.042s.014.018.014.042c0 .023.006.042.014.042s.014.019.014.042c0 .023.007.042.014.042.008 0 .015.019.015.042 0 .023.006.042.014.042s.014.019.014.042c0 .023.006.042.014.042s.014.013.014.028c0 .016.006.028.014.028s.014.013.014.028c0 .016.007.028.014.028.008 0 .015.013.015.028 0 .016.006.029.014.029s.014.012.014.028c0 .015.006.028.014.028s.014.01.014.025c0 .013.013.034.028.045.016.01.029.031.029.045 0 .014.006.025.014.025s.014.011.014.025c0 .014.013.034.028.045.016.011.028.03.028.042 0 .012.013.031.029.042.015.011.028.03.028.042 0 .012.013.031.028.042.016.011.028.03.028.043 0 .012.013.03.029.041.015.012.028.03.028.04 0 .01.019.037.042.059.024.021.043.047.043.056 0 .01.019.034.042.056.023.022.042.047.042.056 0 .01.02.035.043.056.023.022.042.047.042.056 0 .01.02.035.043.056.023.022.042.047.042.056 0 .01.02.035.042.057.024.021.043.046.043.055 0 .01.025.041.056.07.031.03.057.062.057.071 0 .01.019.035.042.056.023.022.043.047.043.056 0 .009.025.04.056.07.031.03.057.062.057.07 0 .01.025.04.056.07.031.03.057.062.057.07 0 .01.025.041.056.07.031.03.057.062.057.07 0 .01.044.06.099.113a.598.598 0 0 1 .098.112c0 .008.108.122.24.253.133.13.24.244.24.252 0 .02.604.618.623.618.008 0 .103.088.211.196.109.108.204.196.213.196.008 0 .052.038.098.085a.366.366 0 0 0 .105.084c.012 0 .022.006.022.014s.043.014.1.014c.056 0 .098-.006.098-.014 0-.028.046-.013.085.028.022.023.047.042.056.042a.32.32 0 0 1 .085.07c.038.039.076.07.085.07.009 0 .047.032.085.07.037.039.076.07.085.07.008 0 .04.026.07.056.03.031.062.057.07.057.01 0 .041.025.071.056.03.03.063.056.074.056.01 0 .028.012.04.028.01.015.03.028.042.028.012 0 .03.013.042.028.011.015.032.028.046.028.013 0 .025.006.025.014s.012.014.028.014.028.006.028.014.013.014.029.014c.015 0 .028.006.028.014s.012.014.028.014.028.006.028.014.013.014.029.014c.015 0 .028.007.028.014 0 .008.012.014.028.014s.028.007.028.014c0 .008.02.014.043.014.023 0 .042.007.042.014 0 .008.013.014.028.014.016 0 .029.007.029.014 0 .008.019.014.042.014.023 0 .042.007.042.015 0 .007.013.014.029.014.015 0 .028.006.028.014 0 .007.019.014.042.014.024 0 .043.006.043.014 0 .007.019.014.042.014.023 0 .042.006.042.014 0 .007.02.014.043.014.023 0 .042.006.042.014 0 .007.02.014.043.014.023 0 .042.006.042.014s.013.014.028.014c.016 0 .028.006.028.014s.026.014.057.014c.031 0 .056.006.056.014s.02.014.043.014c.023 0 .042.006.042.014s.026.014.057.014c.03 0 .056.006.056.014s.02.014.043.014c.023 0 .042.006.042.014s.02.014.042.014c.024 0 .043.006.043.014s.019.014.042.014c.024 0 .043.006.043.014s.019.014.042.014c.023 0 .042.006.042.014s.013.014.029.014c.015 0 .028.006.028.014s.019.014.042.014c.024 0 .043.007.043.014 0 .008.012.014.028.014.015 0 .028.007.028.014 0 .008.013.014.028.014.016 0 .029.007.029.014 0 .008.019.015.042.015.023 0 .042.006.042.014 0 .007.012.014.026.014.013 0 .034.012.045.028.011.015.032.028.046.028.013 0 .025.006.025.014 0 .007.011.014.025.014.014 0 .034.012.045.028.011.015.03.028.043.028.012 0 .03.012.042.028.011.015.032.028.046.028.013 0 .025.006.025.014s.011.014.025.014c.014 0 .034.013.045.028.011.015.032.028.046.028.014 0 .025.006.025.014s-.02.014-.042.014c-.024 0-.043-.006-.043-.014s-.025-.014-.056-.014-.057-.006-.057-.014-.025-.014-.056-.014-.057-.006-.057-.014-.025-.014-.056-.014-.057-.006-.057-.014-.025-.014-.056-.014-.057-.006-.057-.014-.019-.014-.042-.014c-.024 0-.043-.007-.043-.014 0-.008-.025-.014-.056-.014s-.057-.006-.057-.014-.019-.014-.042-.014c-.023 0-.042-.007-.042-.014 0-.008-.026-.014-.057-.014-.031 0-.056-.007-.056-.014 0-.008-.02-.014-.043-.014-.023 0-.042-.007-.042-.014 0-.008-.02-.014-.043-.014-.023 0-.042-.007-.042-.015 0-.007-.02-.014-.042-.014-.024 0-.043-.006-.043-.014 0-.007-.019-.014-.042-.014-.024 0-.043-.006-.043-.014 0-.007-.019-.014-.042-.014-.023 0-.042-.006-.042-.014 0-.007-.02-.014-.043-.014-.023 0-.042-.006-.042-.014 0-.007-.013-.014-.028-.014-.016 0-.029-.006-.029-.014s-.012-.014-.028-.014c-.015 0-.028-.006-.028-.014s-.02-.014-.042-.014c-.024 0-.043-.006-.043-.014s-.013-.014-.028-.014c-.016 0-.028-.006-.028-.014s-.013-.014-.029-.014c-.015 0-.028-.006-.028-.014s-.013-.014-.028-.014c-.016 0-.028-.006-.028-.014s-.013-.014-.029-.014c-.015 0-.028-.006-.028-.014s-.013-.014-.028-.014c-.016 0-.028-.006-.028-.014s-.012-.014-.026-.014c-.013 0-.034-.013-.045-.028-.011-.016-.032-.028-.046-.028-.013 0-.025-.007-.025-.014 0-.008-.012-.014-.028-.014-.015 0-.028-.007-.028-.014 0-.008-.013-.014-.028-.014-.016 0-.029-.007-.029-.014 0-.008-.011-.014-.025-.014-.014 0-.034-.013-.045-.028-.012-.016-.032-.029-.046-.029-.014 0-.025-.006-.025-.014 0-.007-.011-.014-.025-.014-.014 0-.034-.012-.046-.028-.01-.015-.031-.028-.045-.028-.014 0-.025-.006-.025-.014 0-.007-.012-.014-.025-.014-.014 0-.035-.012-.046-.028-.011-.015-.032-.028-.045-.028-.014 0-.026-.006-.026-.014s-.01-.014-.025-.014c-.014 0-.034-.012-.045-.028-.011-.015-.03-.028-.043-.028-.012 0-.03-.013-.042-.028-.011-.015-.031-.028-.044-.028-.013 0-.027-.008-.03-.018-.004-.01-.012-.013-.018-.007-.012.011.026.053.05.053.01 0 .034.019.056.042.022.023.047.042.057.042.009 0 .034.019.056.042.022.023.049.042.06.042.01 0 .028.013.04.028.01.016.028.028.039.028.01 0 .037.02.059.043.022.023.048.041.059.041.01 0 .029.013.04.029.011.015.029.028.04.028.01 0 .037.019.059.042.022.023.048.042.059.042.01 0 .028.012.04.028.01.015.03.028.042.028.012 0 .031.012.042.028.012.015.03.028.043.028.012 0 .031.013.042.028.011.015.032.028.046.028.014 0 .025.006.025.014s.013.014.028.014c.016 0 .028.006.028.014s.013.014.029.014c.015 0 .028.006.028.014s.013.014.028.014c.016 0 .028.007.028.014 0 .008.013.014.029.014.015 0 .028.007.028.014 0 .008.013.014.028.014.016 0 .028.007.028.014 0 .008.02.015.043.015.023 0 .042.006.042.014 0 .007.013.014.028.014.016 0 .029.006.029.014 0 .007.012.014.028.014s.028.006.028.014c0 .007.02.014.043.014.023 0 .042.006.042.014 0 .007.013.014.028.014.016 0 .029.006.029.014 0 .007.019.014.042.014.023 0 .042.006.042.014s.02.014.043.014c.023 0 .042.006.042.014s.013.014.028.014c.016 0 .028.006.028.014s.02.014.043.014c.023 0 .042.006.042.014s.02.014.043.014c.023 0 .042.006.042.014s.02.014.042.014c.024 0 .043.006.043.014s.019.014.042.014c.024 0 .043.006.043.014s.019.014.042.014c.023 0 .042.006.042.014s.02.014.043.014c.023 0 .042.006.042.014s.02.014.043.014c.023 0 .042.006.042.014s.019.014.042.014c.024 0 .043.007.043.014 0 .008.019.014.042.014.023 0 .042.007.042.014 0 .008.026.014.057.014.031 0 .056.007.056.014 0 .008.02.014.043.014.023 0 .042.007.042.014 0 .008.02.014.043.014.023 0 .042.007.042.015 0 .007.025.014.056.014.032 0 .057.006.057.014 0 .007.02.014.042.014.024 0 .043.006.043.014 0 .007.025.014.056.014s.057.006.057.014c0 .007.025.014.056.014s.057.006.057.014c0 .007.025.014.056.014s.057.006.057.014.025.014.056.014.057.006.057.014.025.014.056.014.057.006.057.014.025.014.056.014.057.006.057.014.025.014.056.014.057.006.057.014.032.014.07.014c.04 0 .071.006.071.014s.026.014.057.014c.03 0 .056.006.056.014s.032.014.07.014c.04 0 .071.006.071.014s.032.014.071.014c.039 0 .07.007.07.014 0 .008.033.014.071.014.04 0 .071.007.071.014 0 .008.038.014.085.014.047 0 .085.006.085.014s.037.014.084.014c.047 0 .085.007.085.014 0 .008.038.014.085.014.047 0 .085.007.085.014 0 .009.047.015.113.015s.113.005.113.014c0 .008.052.014.127.014.075 0 .127.005.127.014 0 .008.075.014.198.014.122 0 .198.005.198.014 0 .009.212.014.607.014.396 0 .608-.005.608-.014 0-.01.075-.014.197-.014.123 0 .198-.006.198-.015 0-.008.057-.014.141-.014.085 0 .142-.005.142-.014 0-.008.047-.013.113-.013s.113-.006.113-.015c0-.008.047-.014.113-.014s.113-.005.113-.014c0-.007.038-.014.084-.014.048 0 .085-.006.085-.014s.038-.014.085-.014c.047 0 .085-.006.085-.014s.038-.014.085-.014c.047 0 .084-.006.084-.014s.026-.014.057-.014c.031 0 .056-.006.056-.014s.032-.014.071-.014c.039 0 .07-.006.07-.014s.032-.014.071-.014c.04 0 .071-.006.071-.014s.025-.014.056-.014.057-.006.057-.014.025-.014.056-.014c.032 0 .057-.006.057-.014s.025-.014.056-.014c.032 0 .057-.006.057-.014s.025-.014.056-.014c.032 0 .057-.006.057-.014s.02-.014.042-.014c.024 0 .043-.006.043-.014s.025-.014.056-.014.057-.007.057-.014c0-.008.019-.014.042-.014.023 0 .043-.007.043-.014 0-.008.019-.014.042-.014.023 0 .042-.007.042-.014 0-.008.02-.014.043-.014.023 0 .042-.007.042-.014 0-.008.026-.014.057-.014.03 0 .056-.007.056-.014 0-.008.013-.015.028-.015.016 0 .029-.006.029-.014 0-.007.019-.014.042-.014.023 0 .042-.006.042-.014 0-.007.02-.014.043-.014.023 0 .042-.006.042-.014 0-.007.02-.014.043-.014.023 0 .042-.006.042-.014 0-.007.013-.014.028-.014.016 0 .029-.006.029-.014s.018-.014.042-.014c.023 0 .042-.006.042-.014s.02-.014.043-.014c.023 0 .042-.006.042-.014s.013-.014.028-.014c.016 0 .028-.006.028-.014s.013-.014.029-.014c.015 0 .028-.006.028-.014s.02-.014.042-.014c.024 0 .043-.006.043-.014s.012-.014.028-.014.028-.006.028-.014.013-.014.029-.014c.015 0 .028-.006.028-.014s.019-.014.042-.014c.023 0 .043-.007.043-.014 0-.008.012-.014.028-.014.015 0 .028-.006.028-.014s.013-.014.028-.014c.016 0 .029-.007.029-.014 0-.008.012-.014.028-.014.015 0 .028-.007.028-.014 0-.008.013-.014.028-.014.016 0 .029-.007.029-.014 0-.008.012-.014.028-.014.015 0 .028-.007.028-.015 0-.007.013-.014.028-.014.016 0 .029-.006.029-.014 0-.007.012-.014.028-.014.015 0 .028-.006.028-.014 0-.007.013-.014.028-.014.016 0 .029-.006.029-.014 0-.007.012-.014.028-.014.015 0 .028-.006.028-.014 0-.007.013-.014.028-.014.016 0 .029-.006.029-.014s.011-.014.025-.014c.014 0 .034-.012.045-.028.011-.015.032-.028.046-.028.014 0 .025-.006.025-.014s.013-.014.028-.014c.016 0 .028-.006.028-.014s.012-.014.026-.014c.013 0 .034-.013.045-.028.011-.015.032-.028.046-.028.013 0 .025-.006.025-.014s.011-.014.025-.014c.014 0 .034-.013.045-.028.012-.016.03-.028.043-.028.012 0 .031-.013.042-.028.011-.016.03-.028.043-.028.012 0 .03-.013.042-.028.011-.016.03-.028.042-.028.012 0 .032-.013.043-.029.01-.015.03-.028.042-.028.012 0 .031-.012.043-.028.01-.015.03-.028.042-.028.012 0 .031-.012.042-.028.011-.015.03-.028.04-.028.01 0 .037-.019.06-.042.02-.023.046-.042.056-.042.009 0 .034-.019.056-.042.022-.023.047-.042.057-.042.009 0 .034-.02.056-.042.022-.023.047-.042.057-.042.009 0 .034-.02.056-.042.022-.023.047-.042.056-.042.01 0 .042-.026.071-.057a.239.239 0 0 1 .071-.056c.01 0 .035-.019.057-.042.021-.023.047-.042.056-.042.01 0 .035-.019.056-.042.022-.023.048-.042.057-.042.009 0 .04-.025.07-.056.03-.031.062-.056.071-.056.01 0 .041-.025.07-.056a.222.222 0 0 1 .072-.056c.009 0 .04-.026.07-.057a.254.254 0 0 1 .07-.056.325.325 0 0 0 .086-.07.328.328 0 0 1 .084-.07.328.328 0 0 0 .085-.07.328.328 0 0 1 .085-.07c.008 0 .06-.044.113-.098a.598.598 0 0 1 .113-.099c.008 0 .078-.063.155-.14.078-.077.147-.14.155-.14.02 0 .51-.486.51-.506a.95.95 0 0 1 .127-.14.916.916 0 0 0 .127-.14.45.45 0 0 1 .084-.098.439.439 0 0 0 .085-.098c0-.01.026-.04.057-.07a.24.24 0 0 0 .056-.07c0-.01.026-.04.057-.07a.254.254 0 0 0 .056-.07c0-.01.02-.035.043-.057.023-.021.042-.048.042-.058 0-.01.013-.029.028-.04.016-.011.029-.029.029-.04 0-.01.019-.036.042-.058.023-.022.042-.048.042-.059 0-.01.013-.028.029-.04.015-.01.028-.03.028-.041 0-.012.012-.031.028-.042.016-.012.028-.03.028-.043 0-.011.013-.03.029-.041.015-.012.028-.03.028-.043 0-.012.013-.03.028-.042.016-.01.028-.031.028-.045 0-.014.007-.025.014-.025.008 0 .015-.011.015-.025 0-.013.012-.034.028-.045.015-.011.028-.03.028-.042 0-.012.013-.031.028-.042.016-.011.029-.032.029-.045 0-.014.006-.025.014-.025s.014-.013.014-.028c0-.016.006-.028.014-.028s.014-.012.014-.025c0-.014.013-.034.028-.046.016-.01.029-.031.029-.045 0-.013.006-.025.014-.025s.014-.012.014-.028c0-.015.006-.028.014-.028s.014-.012.014-.028c0-.015.006-.028.014-.028s.014-.011.014-.025c0-.014.013-.034.029-.045.015-.011.028-.031.028-.045 0-.014.006-.025.014-.025s.014-.013.014-.028c0-.016.006-.028.014-.028s.014-.013.014-.028c0-.016.007-.028.015-.028.007 0 .014-.013.014-.028 0-.016.006-.028.014-.028s.014-.013.014-.029c0-.015.006-.028.014-.028s.014-.012.014-.028c0-.015.007-.028.014-.028.008 0 .015-.012.015-.028 0-.015.006-.028.014-.028.007 0 .014-.019.014-.042 0-.023.006-.042.014-.042s.014-.013.014-.028c0-.015.006-.028.014-.028s.014-.013.014-.028c0-.015.007-.028.014-.028.008 0 .015-.013.015-.028 0-.016.006-.028.014-.028.007 0 .014-.013.014-.028 0-.016.006-.028.014-.028s.014-.02.014-.043c0-.023.006-.041.014-.041s.014-.013.014-.029c0-.015.007-.028.014-.028.008 0 .015-.019.015-.042 0-.023.006-.042.014-.042.007 0 .014-.012.014-.028 0-.015.006-.028.014-.028s.014-.012.014-.028c0-.015.006-.028.014-.028s.014-.019.014-.042c0-.023.007-.042.014-.042.008 0 .014-.02.014-.042 0-.023.007-.042.015-.042.007 0 .014-.013.014-.028 0-.016.006-.029.014-.029s.014-.018.014-.042c0-.023.006-.042.014-.042s.014-.019.014-.042c0-.023.007-.042.014-.042.008 0 .014-.012.014-.028 0-.015.007-.028.015-.028.007 0 .014-.019.014-.042 0-.023.006-.042.014-.042s.014-.019.014-.042c0-.023.006-.042.014-.042s.014-.02.014-.042c0-.024.007-.042.014-.042.008 0 .015-.02.015-.043 0-.023.006-.042.014-.042s.014-.018.014-.042c0-.023.006-.042.014-.042s.014-.019.014-.042c0-.023.006-.042.014-.042s.014-.019.014-.042c0-.023.007-.042.014-.042.008 0 .015-.019.015-.042 0-.023.006-.042.014-.042s.014-.025.014-.056.006-.056.014-.056.014-.02.014-.043c0-.023.007-.042.014-.042.008 0 .014-.018.014-.042 0-.023.007-.042.014-.042.008 0 .015-.025.015-.056 0-.03.006-.056.014-.056s.014-.025.014-.056c0-.03.006-.056.014-.056s.014-.02.014-.042c0-.023.006-.042.014-.042s.014-.026.014-.056c0-.031.007-.057.014-.057.008 0 .015-.025.015-.056 0-.03.006-.056.014-.056s.014-.025.014-.056c0-.03.006-.056.014-.056s.014-.025.014-.056.006-.056.014-.056.014-.026.014-.056c0-.031.007-.056.015-.056.007 0 .014-.032.014-.07 0-.04.006-.07.014-.07s.014-.026.014-.057c0-.03.006-.056.014-.056s.014-.032.014-.07c0-.039.006-.07.014-.07s.014-.032.014-.07c0-.039.007-.07.015-.07.007 0 .014-.038.014-.085 0-.046.006-.084.014-.084s.014-.031.014-.07c0-.038.006-.07.014-.07s.014-.042.014-.098.006-.098.014-.098.014-.043.014-.099c0-.056.007-.098.015-.098s.014-.047.014-.112c0-.066.006-.112.014-.112s.014-.061.014-.155c0-.093.005-.154.014-.154.01 0 .014-.168.014-.477 0-.308-.005-.477-.014-.477-.008 0-.014-.046-.014-.112 0-.065-.006-.112-.014-.112s-.014-.037-.014-.084c0-.047-.007-.084-.014-.084-.008 0-.015-.032-.015-.07 0-.04-.006-.07-.014-.07s-.014-.02-.014-.043c0-.023-.006-.042-.014-.042s-.014-.013-.014-.028c0-.015.006-.028.014-.028s.014.013.014.028c0 .015.006.028.014.028s.014.02.014.042c0 .023.007.042.015.042.007 0 .014.02.014.042 0 .024.006.043.014.043s.014.018.014.042c0 .023.006.042.014.042s.014.019.014.042c0 .023.007.042.014.042.008 0 .015.019.015.042 0 .023.006.042.014.042.007 0 .014.025.014.056 0 .03.006.056.014.056s.014.02.014.042c0 .023.006.042.014.042s.014.013.014.028c0 .016.007.028.014.028.008 0 .015.02.015.042 0 .024.006.043.014.043.007 0 .014.018.014.042 0 .023.006.042.014.042s.014-.02.014-.042c0-.024-.006-.042-.014-.042-.009 0-.014-.052-.014-.127 0-.074-.006-.126-.014-.126-.009 0-.014-.047-.014-.112 0-.066-.006-.112-.015-.112-.008 0-.014-.042-.014-.098 0-.057-.006-.099-.014-.099s-.014-.046-.014-.112c0-.065-.006-.112-.014-.112s-.014-.042-.014-.098-.006-.098-.014-.098-.014-.043-.014-.099c0-.056-.007-.098-.015-.098s-.014-.037-.014-.084c0-.047-.006-.084-.014-.084s-.014-.042-.014-.098-.006-.099-.014-.099-.014-.037-.014-.084c0-.046-.007-.084-.014-.084-.008 0-.015-.037-.015-.084 0-.047-.006-.084-.014-.084s-.014-.038-.014-.084c0-.047-.006-.085-.014-.085s-.014-.037-.014-.084c0-.046-.006-.084-.014-.084s-.014-.031-.014-.07c0-.039-.007-.07-.014-.07-.008 0-.015-.032-.015-.07 0-.039-.006-.07-.014-.07s-.014-.032-.014-.07c0-.04-.006-.07-.014-.07s-.014-.026-.014-.057c0-.03-.006-.056-.014-.056s-.014-.019-.014-.042c0-.023-.007-.042-.014-.042-.008 0-.015-.019-.015-.042 0-.023-.006-.042-.014-.042s-.014-.02-.014-.042c0-.024-.006-.042-.014-.042s-.014-.02-.014-.043c0-.023-.006-.042-.014-.042s-.014-.018-.014-.042c0-.023-.007-.042-.015-.042-.007 0-.014-.019-.014-.042 0-.023-.006-.042-.014-.042s-.014-.019-.014-.042c0-.023-.006-.042-.014-.042s-.014-.013-.014-.028c0-.016-.006-.028-.014-.028s-.014-.02-.014-.042c0-.023-.007-.042-.015-.042-.007 0-.014-.013-.014-.028 0-.016-.006-.028-.014-.028s-.014-.02-.014-.043c0-.023-.006-.042-.014-.042s-.014-.012-.014-.028c0-.015-.006-.028-.014-.028s-.014-.019-.014-.042c0-.023-.007-.042-.015-.042-.007 0-.014-.013-.014-.028 0-.015-.006-.028-.014-.028s-.014-.013-.014-.028c0-.015-.006-.028-.014-.028s-.014-.013-.014-.028c0-.016-.006-.028-.014-.028s-.014-.02-.014-.042c0-.023-.007-.042-.015-.042-.007 0-.014-.013-.014-.028 0-.016-.006-.028-.014-.028s-.014-.013-.014-.029c0-.015-.006-.028-.014-.028s-.014-.012-.014-.028c0-.015-.007-.028-.014-.028-.008 0-.015-.012-.015-.028 0-.015-.006-.028-.014-.028-.007 0-.014-.012-.014-.028 0-.015-.006-.028-.014-.028s-.014-.013-.014-.028c0-.015-.006-.028-.014-.028s-.014-.013-.014-.028c0-.016-.007-.028-.014-.028-.008 0-.015-.013-.015-.028 0-.016-.006-.028-.014-.028-.007 0-.014-.013-.014-.028 0-.016-.006-.028-.014-.028s-.014-.013-.014-.028c0-.016-.006-.028-.014-.028s-.014-.013-.014-.029c0-.015-.007-.028-.014-.028-.008 0-.014-.012-.014-.028 0-.015-.007-.028-.015-.028-.007 0-.014-.012-.014-.028 0-.015-.006-.028-.014-.028s-.014-.012-.014-.028c0-.015-.006-.028-.014-.028s-.014-.013-.014-.028c0-.015-.007-.028-.014-.028-.008 0-.014-.011-.014-.025 0-.014-.013-.034-.029-.045-.015-.011-.028-.032-.028-.045 0-.014-.006-.025-.014-.025s-.014-.013-.014-.028c0-.016-.007-.028-.014-.028-.008 0-.014-.012-.014-.025 0-.014-.013-.034-.029-.046-.015-.01-.028-.031-.028-.045 0-.013-.006-.025-.014-.025s-.014-.012-.014-.028c0-.015-.007-.028-.014-.028-.008 0-.015-.011-.015-.025 0-.013-.012-.034-.028-.045-.015-.011-.028-.031-.028-.045 0-.014-.006-.025-.014-.025s-.014-.011-.014-.025c0-.014-.013-.034-.029-.045-.015-.011-.028-.032-.028-.045 0-.014-.006-.025-.014-.025s-.014-.012-.014-.025c0-.014-.013-.034-.028-.045-.016-.012-.029-.032-.029-.046 0-.013-.006-.025-.014-.025s-.014-.01-.014-.025c0-.013-.013-.034-.028-.045-.016-.01-.028-.03-.028-.042 0-.012-.013-.03-.029-.042-.015-.011-.028-.03-.028-.042 0-.012-.013-.03-.028-.042-.016-.011-.028-.03-.028-.042 0-.012-.013-.031-.029-.042-.015-.011-.028-.03-.028-.042 0-.012-.013-.031-.028-.042-.016-.011-.028-.03-.028-.042 0-.012-.013-.031-.029-.043-.015-.01-.028-.03-.028-.042 0-.012-.013-.03-.028-.042-.016-.01-.028-.03-.028-.042 0-.012-.013-.03-.029-.042-.015-.011-.028-.029-.028-.04 0-.01-.019-.036-.042-.058-.024-.022-.043-.048-.043-.059 0-.01-.012-.028-.028-.04-.015-.01-.028-.028-.028-.039 0-.01-.02-.037-.043-.058-.023-.022-.042-.047-.042-.057 0-.009-.02-.034-.042-.056-.024-.021-.043-.046-.043-.056 0-.009-.019-.034-.042-.056-.023-.021-.042-.047-.042-.056 0-.009-.026-.04-.057-.07-.031-.03-.057-.061-.057-.07 0-.01-.025-.04-.056-.07a.245.245 0 0 1-.057-.07c0-.01-.025-.041-.056-.07a.245.245 0 0 1-.057-.07.438.438 0 0 0-.084-.099.45.45 0 0 1-.085-.098.744.744 0 0 0-.113-.126.774.774 0 0 1-.113-.126c0-.02-.942-.954-.962-.954a.61.61 0 0 1-.112-.099.585.585 0 0 0-.113-.098.329.329 0 0 1-.085-.07.327.327 0 0 0-.084-.07.325.325 0 0 1-.085-.07.32.32 0 0 0-.085-.07c-.01 0-.035-.02-.056-.042-.022-.024-.048-.043-.057-.043-.01 0-.035-.018-.056-.042-.022-.023-.048-.042-.057-.042-.01 0-.035-.019-.056-.042-.022-.023-.048-.042-.057-.042-.01 0-.035-.019-.057-.042-.021-.023-.047-.042-.056-.042-.01 0-.035-.019-.057-.042-.021-.023-.048-.042-.059-.042-.01 0-.028-.013-.04-.028-.01-.016-.03-.028-.042-.028-.012 0-.031-.013-.042-.028-.011-.016-.03-.028-.043-.028-.012 0-.03-.013-.042-.028-.011-.016-.03-.029-.042-.029-.012 0-.032-.012-.043-.028-.011-.015-.03-.028-.042-.028-.012 0-.031-.012-.043-.028-.01-.015-.031-.028-.045-.028-.014 0-.025-.006-.025-.014 0-.007-.012-.014-.025-.014-.014 0-.035-.012-.046-.028-.011-.015-.03-.028-.042-.028-.012 0-.031-.013-.043-.028-.01-.015-.031-.028-.045-.028-.014 0-.025-.006-.025-.014s-.011-.014-.025-.014c-.014 0-.035-.013-.046-.028-.011-.016-.032-.028-.045-.028-.014 0-.026-.006-.026-.014s-.012-.014-.028-.014c-.015 0-.028-.007-.028-.014 0-.008-.011-.014-.025-.014-.014 0-.034-.013-.046-.028-.01-.016-.031-.028-.045-.028-.014 0-.025-.007-.025-.014 0-.008-.013-.014-.029-.014-.015 0-.028-.007-.028-.014 0-.008-.013-.015-.028-.015-.016 0-.028-.006-.028-.014 0-.007-.013-.014-.029-.014-.015 0-.028-.006-.028-.014 0-.007-.012-.014-.028-.014s-.028-.006-.028-.014c0-.007-.013-.014-.029-.014-.015 0-.028-.006-.028-.014 0-.007-.013-.014-.028-.014-.016 0-.028-.006-.028-.014 0-.007-.013-.014-.029-.014-.015 0-.028-.006-.028-.014s-.013-.014-.028-.014c-.016 0-.028-.006-.028-.014s-.013-.014-.029-.014c-.015 0-.028-.006-.028-.014s-.013-.014-.028-.014c-.016 0-.028-.006-.028-.014s-.013-.014-.029-.014c-.015 0-.028-.006-.028-.014s-.013-.014-.028-.014c-.016 0-.028-.006-.028-.014s-.013-.014-.029-.014c-.015 0-.028-.006-.028-.014s-.019-.014-.042-.014c-.024 0-.043-.006-.043-.014s-.012-.014-.028-.014-.028-.007-.028-.014c0-.008-.013-.014-.028-.014-.016 0-.029-.007-.029-.014 0-.008-.019-.014-.042-.014-.023 0-.043-.007-.043-.014 0-.008-.012-.014-.028-.014-.015 0-.028-.007-.028-.014 0-.008-.013-.014-.028-.014-.016 0-.029-.007-.029-.014 0-.008-.019-.014-.042-.014-.023 0-.042-.007-.042-.015 0-.007-.02-.014-.043-.014-.023 0-.042-.006-.042-.014 0-.007-.013-.014-.028-.014-.016 0-.029-.006-.029-.014 0-.007-.019-.014-.042-.014-.023 0-.042-.006-.042-.014 0-.007-.02-.014-.043-.014-.023 0-.042-.006-.042-.014 0-.007-.02-.014-.043-.014-.023 0-.042-.006-.042-.014 0-.007-.013-.014-.028-.014-.016 0-.028-.006-.028-.014s-.02-.014-.043-.014c-.023 0-.042-.006-.042-.014s-.026-.014-.057-.014c-.03 0-.056-.006-.056-.014s-.02-.014-.042-.014c-.024 0-.043-.006-.043-.014s-.019-.014-.042-.014c-.024 0-.043-.006-.043-.014s-.019-.014-.042-.014c-.023 0-.042-.006-.042-.014s-.026-.014-.057-.014c-.031 0-.056-.006-.056-.014s-.02-.014-.043-.014c-.023 0-.042-.006-.042-.014s-.026-.014-.057-.014c-.03 0-.056-.007-.056-.014 0-.008-.026-.014-.057-.014-.03 0-.056-.007-.056-.014 0-.008-.026-.014-.057-.014-.03 0-.056-.007-.056-.014 0-.008-.026-.014-.057-.014-.03 0-.056-.007-.056-.014 0-.008-.026-.014-.057-.014-.03 0-.056-.007-.056-.014 0-.008-.032-.015-.071-.015-.039 0-.07-.006-.07-.014 0-.007-.032-.014-.071-.014-.04 0-.07-.006-.07-.014 0-.007-.033-.014-.072-.014-.038 0-.07-.006-.07-.014 0-.007-.038-.014-.085-.014-.047 0-.085-.006-.085-.014 0-.007-.037-.014-.085-.014-.047 0-.084-.006-.084-.014s-.043-.014-.1-.014c-.056 0-.098-.006-.098-.014s-.047-.014-.113-.014-.113-.006-.113-.014-.057-.014-.141-.014c-.085 0-.142-.006-.142-.014 0-.009-.075-.014-.197-.014-.123 0-.198-.005-.198-.014 0-.01-.212-.014-.608-.014-.395 0-.607.005-.607.014zM4.48 11.202c0 .015.007.028.014.028.008 0 .015-.013.015-.028 0-.016-.007-.028-.015-.028-.007 0-.014.012-.014.028zm22.011 1.234c0 .016.007.028.015.028.007 0 .014.013.014.028 0 .016.006.028.014.028s.014.013.014.028c0 .016.006.028.014.028s.014.013.014.028c0 .016-.006.029-.014.029s-.014-.013-.014-.028c0-.016-.006-.029-.014-.029s-.014-.012-.014-.028c0-.015-.007-.028-.014-.028-.008 0-.015-.012-.015-.028 0-.015-.006-.028-.014-.028s-.014-.012-.014-.028c0-.015.006-.028.014-.028s.014.013.014.028zm.113.239a.014.014 0 0 1-.014.014.014.014 0 0 1-.014-.014c0-.008.006-.014.014-.014s.014.006.014.014zm.029.056a.014.014 0 0 1-.014.014.014.014 0 0 1-.015-.014.014.014 0 0 1 .029 0zm.028.084a.014.014 0 0 1-.014.014.014.014 0 0 1-.014-.014c0-.008.006-.014.014-.014s.014.006.014.014zM4.085 16.799c0 .023.006.042.014.042s.014-.02.014-.042c0-.024-.006-.043-.014-.043s-.014.02-.014.043zm-.057.645c0 .023.007.042.014.042.008 0 .015-.019.015-.042 0-.023-.007-.042-.015-.042-.007 0-.014.019-.014.042zm.029.098c0 .015.006.028.014.028.007 0 .014-.013.014-.028 0-.015-.007-.028-.014-.028-.008 0-.014.013-.014.028z" fill="#D33E3E"/></g><defs><filter id="filter0_d" x="0" y="0" width="31" height="31.622" filterUnits="userSpaceOnUse" color-interpolation-filters="sRGB"><feFlood flood-opacity="0" result="BackgroundImageFix"/><feColorMatrix in="SourceAlpha" values="0 0 0 0 0 0 0 0 0 0 0 0 0 0 0 0 0 0 127 0"/><feOffset dy="2"/><feGaussianBlur stdDeviation="2"/><feColorMatrix values="0 0 0 0 0 0 0 0 0 0 0 0 0 0 0 0 0 0 0.5 0"/><feBlend in2="BackgroundImageFix" result="effect1_dropShadow"/><feBlend in="SourceGraphic" in2="effect1_dropShadow" result="shape"/></filter></defs></svg>