<svg width="47" height="47" viewBox="0 0 47 47" fill="none" xmlns="http://www.w3.org/2000/svg">
<circle cx="23.5" cy="23.5" r="22.5" stroke="white" stroke-width="2"/>
<g clip-path="url(#clip0)">
<path d="M21.8793 24.9789H20.1744V19.863H20.6552C20.9356 19.863 21.163 19.6356 21.163 19.3551C21.163 19.0747 20.9356 18.8473 20.6552 18.8473H20.1744V17.8991L21.165 17.8952C21.4454 17.8941 21.6719 17.6658 21.6708 17.3854C21.6696 17.1056 21.4425 16.8796 21.163 16.8796H21.161L20.1744 16.8835V15.9378L21.6723 15.9333C21.9527 15.9325 22.1794 15.7045 22.1786 15.424C22.1778 15.1441 21.9506 14.9177 21.6709 14.9177H21.6693L20.1744 14.9221V13.9734L21.1671 13.9656C21.4475 13.9633 21.673 13.7342 21.6708 13.4537C21.6686 13.1747 21.4417 12.95 21.1631 12.95C21.1617 12.95 21.1604 12.95 21.159 12.95L20.1744 12.9578V12.0156H20.6552C20.9357 12.0156 21.163 11.7883 21.163 11.5078C21.163 11.2273 20.9357 11 20.6552 11H18.678C18.3976 11 18.1702 11.2273 18.1702 11.5078C18.1702 11.7883 18.3976 12.0156 18.678 12.0156H19.1588V12.9658L18.1661 12.9737C17.8857 12.9759 17.6602 13.2051 17.6624 13.4855C17.6646 13.7646 17.8915 13.9893 18.1701 13.9893H18.1742L19.1588 13.9815V14.9251L17.6609 14.9296C17.3805 14.9304 17.1538 15.1584 17.1546 15.4389C17.1554 15.7188 17.3826 15.9452 17.6623 15.9452H17.6639L19.1588 15.9408V16.8875L18.1681 16.8914C17.8877 16.8926 17.6612 17.1208 17.6623 17.4013C17.6635 17.6811 17.8906 17.9071 18.1701 17.9071H18.1721L19.1588 17.9032V18.8473H18.678C18.3975 18.8473 18.1702 19.0747 18.1702 19.3551C18.1702 19.6356 18.3975 19.863 18.678 19.863H19.1588V24.9789H17.4538C17.1733 24.9789 16.946 25.2063 16.946 25.4867V34.8975C16.946 36.0568 17.8892 37 19.0485 37H20.2845C21.4439 37 22.3871 36.0568 22.3871 34.8975V25.4867C22.3871 25.2062 22.1598 24.9789 21.8793 24.9789ZM21.3715 34.8975C21.3715 35.4968 20.8839 35.9844 20.2846 35.9844H19.0486C18.4492 35.9844 17.9616 35.4968 17.9616 34.8975V25.9945H21.3716V34.8975H21.3715Z" fill="white"/>
<path d="M28.5462 21.6092H28.0175V19.874C28.0175 19.5936 27.7901 19.3662 27.5096 19.3662H25.1479C24.8675 19.3662 24.6401 19.5936 24.6401 19.874V21.6092H24.1207C23.8402 21.6092 23.6129 21.8366 23.6129 22.117V34.8975C23.6129 36.0569 24.5561 37.0001 25.7154 37.0001H26.9515C28.1108 37.0001 29.054 36.0569 29.054 34.8975V22.117C29.0541 21.8366 28.8267 21.6092 28.5462 21.6092ZM25.6557 20.3818H27.0018V21.6092H25.6557V20.3818ZM28.0384 34.8975C28.0384 35.4968 27.5508 35.9844 26.9515 35.9844H25.7155C25.1162 35.9844 24.6286 35.4968 24.6286 34.8975V22.6248H28.0385V34.8975H28.0384Z" fill="white"/>
</g>
<defs>
<clipPath id="clip0">
<rect width="26" height="26" fill="white" transform="translate(10 11)"/>
</clipPath>
</defs>
</svg>
