<svg width="34" height="34" viewBox="0 0 34 34" fill="none" xmlns="http://www.w3.org/2000/svg">
<g clip-path="url(#clip0)">
<path d="M17 17C12.3132 17 8.49997 13.1869 8.49997 8.49997C8.49997 3.81309 12.3132 0 17 0C21.6868 0 25.5 3.81315 25.5 8.50003C25.5 13.1869 21.6868 17 17 17ZM17 2.12502C13.4846 2.12502 10.625 4.98461 10.625 8.50003C10.625 12.0155 13.4846 14.875 17 14.875C20.5154 14.875 23.375 12.0154 23.375 8.50003C23.375 4.98467 20.5154 2.12502 17 2.12502Z" fill="#409223"/>
<path d="M30.8124 34.0002H3.18745C2.60015 34.0002 2.12494 33.525 2.12494 32.9377V25.6237C2.12494 24.5259 2.68627 23.4945 3.589 22.93C11.5681 17.9527 22.4391 17.9537 30.4099 22.929C31.3136 23.4945 31.875 24.5259 31.875 25.6236V32.9376C31.875 33.525 31.3998 34.0002 30.8124 34.0002ZM4.24996 31.8752H29.75V25.6237C29.75 25.2533 29.5715 24.9108 29.2841 24.7314C21.9887 20.1774 12.0164 20.1742 4.71487 24.7324C4.4285 24.9109 4.25002 25.2533 4.25002 25.6237L4.24996 31.8752Z" fill="#409223"/>
</g>
<defs>
<clipPath id="clip0">
<rect width="34" height="34" fill="white"/>
</clipPath>
</defs>
</svg>
