<svg width="130" height="130" viewBox="0 0 130 130" fill="none" xmlns="http://www.w3.org/2000/svg">
<g filter="url(#filter0_d)">
<circle cx="65" cy="60" r="50" fill="#FED233"/>
</g>
<path d="M88.9672 68.5699C88.7703 64.3386 86.6324 59.5031 84.1061 55.938C79.9189 49.4859 80.1162 41.7983 83.1394 35.148C83.5098 34.3331 83.0281 33.4187 82.0637 33.1056C81.0995 32.7924 80.017 33.1994 79.6465 34.0145C76.4378 41.0736 76.1415 49.2739 80.0695 56.2121C71.6115 59.4816 57.2746 59.4673 49.8605 56.3346C53.8456 49.3925 53.5961 41.1479 50.3535 34.0145C49.983 33.1994 48.9008 32.7927 47.9363 33.1056C46.9719 33.4187 46.4902 34.3331 46.8606 35.148C49.8788 41.7872 50.0942 49.4652 45.894 55.9378C42.7612 60.3587 41.1921 65.1481 41.0328 68.5698C40.7242 75.0883 42.5974 81.21 46.4499 86.2731C47.009 87.0082 48.1669 87.2198 49.0352 86.748C49.9044 86.2759 50.156 85.2979 49.5972 84.5635C45.3416 78.9704 43.9339 71.7712 45.168 66.1816C54.2261 67.3652 61.3919 73.9608 63.1069 75.6619V85.3888C63.1069 86.2618 63.9446 86.9696 64.9777 86.9696C66.0109 86.9696 66.8485 86.2619 66.8485 85.3888V75.6607C68.5643 73.9543 75.7315 67.3434 84.8307 66.1757C86.059 71.7318 84.6821 78.9395 80.4024 84.5642C79.8437 85.2985 80.0952 86.2766 80.9644 86.7487C81.8328 87.2207 82.9907 87.0086 83.5497 86.2739C87.4025 81.2105 89.2758 75.0885 88.9672 68.5699ZM64.9781 72.6696C62.0524 69.9722 55.0561 64.39 46.0956 63.1048C46.6147 61.7563 47.278 60.4253 48.0807 59.1162C56.9606 62.9256 72.8185 62.5917 81.8488 58.9999C82.6825 60.3445 83.3681 61.7125 83.9023 63.099C74.9253 64.3728 67.9095 69.9682 64.9781 72.6696Z" fill="white"/>
<path d="M64.9777 52.0883C66.0109 52.0883 66.8485 51.3806 66.8485 50.5075C66.8485 49.6345 66.0109 48.9268 64.9777 48.9268C63.9445 48.9268 63.1069 49.6345 63.1069 50.5075C63.1069 51.3806 63.9445 52.0883 64.9777 52.0883Z" fill="white"/>
<circle cx="65" cy="60" r="43.5" stroke="white" stroke-width="3"/>
<defs>
<filter id="filter0_d" x="0" y="0" width="130" height="130" filterUnits="userSpaceOnUse" color-interpolation-filters="sRGB">
<feFlood flood-opacity="0" result="BackgroundImageFix"/>
<feColorMatrix in="SourceAlpha" type="matrix" values="0 0 0 0 0 0 0 0 0 0 0 0 0 0 0 0 0 0 127 0"/>
<feOffset dy="5"/>
<feGaussianBlur stdDeviation="7.5"/>
<feColorMatrix type="matrix" values="0 0 0 0 0.733333 0 0 0 0 0.733333 0 0 0 0 0.733333 0 0 0 0.2 0"/>
<feBlend mode="normal" in2="BackgroundImageFix" result="effect1_dropShadow"/>
<feBlend mode="normal" in="SourceGraphic" in2="effect1_dropShadow" result="shape"/>
</filter>
</defs>
</svg>
