<svg width="130" height="130" viewBox="0 0 130 130" fill="none" xmlns="http://www.w3.org/2000/svg">
<g filter="url(#filter0_d)">
<circle cx="65" cy="60" r="50" fill="#FED233"/>
</g>
<path d="M85.2222 53.5158C86.5269 50.2847 86.23 46.9622 84.3448 43.8508C82.6633 41.0755 81.7245 37.9179 81.7245 34.5829C81.7245 33.7086 81.0177 33 80.1459 33C79.3336 33 78.5673 33.6281 78.5673 34.6425C78.5673 38.4174 79.6321 42.17 81.6467 45.4947C83.1357 47.9523 83.2521 50.4775 81.9924 52.9999C81.723 53.5392 81.7828 54.1852 82.1465 54.6657C82.8865 55.6434 83.5217 56.6113 84.0652 57.5678C73.884 65.1679 54.6171 65.1635 45.9283 57.5592C46.4708 56.6054 47.1044 55.6404 47.8423 54.6657C48.206 54.1852 48.2656 53.5392 47.9963 52.9999C46.7366 50.4775 46.853 47.9523 48.342 45.4947C50.2944 42.2725 51.4214 38.5521 51.4214 34.5829C51.4214 33.7086 50.7146 33 49.8428 33C49.0305 33 48.2643 33.6281 48.2643 34.6425C48.2643 37.8375 47.3582 41.0217 45.644 43.8509C43.7588 46.9624 43.4618 50.2848 44.7665 53.5159C38.3633 62.5143 39.0763 70.7693 42.9964 81.0374C43.6787 82.8244 44.323 84.5123 44.323 85.4171C44.323 86.2914 45.0298 87 45.9016 87C46.7734 87 47.4801 86.2912 47.4801 85.4171C47.4801 81.9149 43.5184 76.2683 43.1602 68.8852C50.0148 74.5818 59.9764 77.744 63.4158 78.7158V85.3844C63.4158 86.2587 64.1225 86.9673 64.9943 86.9673C65.8661 86.9673 66.5729 86.2586 66.5729 85.3844V78.7158C70.0121 77.744 79.9738 74.5818 86.8284 68.8852C86.4702 76.2688 82.5085 81.9143 82.5085 85.4171C82.5085 86.2914 83.2152 87 84.087 87C84.9588 87 85.6656 86.2912 85.6656 85.4171C85.6656 84.5123 86.3099 82.8244 86.9922 81.0374C90.6241 71.5244 91.9666 62.9938 85.2222 53.5158ZM64.9944 75.8651C62.6551 75.234 50.0071 71.5817 43.3659 64.786C43.5787 63.3945 43.9502 61.9626 44.5225 60.4977C54.4579 68.4039 74.2274 68.4141 85.4545 60.4673C86.0335 61.9429 86.4087 63.3849 86.6229 64.7861C79.9816 71.5817 67.3337 75.234 64.9944 75.8651Z" fill="white"/>
<path d="M64.9944 59.0658C65.9476 59.0658 66.7203 58.2838 66.7203 57.319C66.7203 56.3543 65.9476 55.5723 64.9944 55.5723C64.0412 55.5723 63.2685 56.3543 63.2685 57.319C63.2685 58.2838 64.0412 59.0658 64.9944 59.0658Z" fill="white"/>
<circle cx="65" cy="60" r="43.5" stroke="white" stroke-width="3"/>
<defs>
<filter id="filter0_d" x="0" y="0" width="130" height="130" filterUnits="userSpaceOnUse" color-interpolation-filters="sRGB">
<feFlood flood-opacity="0" result="BackgroundImageFix"/>
<feColorMatrix in="SourceAlpha" type="matrix" values="0 0 0 0 0 0 0 0 0 0 0 0 0 0 0 0 0 0 127 0"/>
<feOffset dy="5"/>
<feGaussianBlur stdDeviation="7.5"/>
<feColorMatrix type="matrix" values="0 0 0 0 0.733333 0 0 0 0 0.733333 0 0 0 0 0.733333 0 0 0 0.2 0"/>
<feBlend mode="normal" in2="BackgroundImageFix" result="effect1_dropShadow"/>
<feBlend mode="normal" in="SourceGraphic" in2="effect1_dropShadow" result="shape"/>
</filter>
</defs>
</svg>
