<svg width="22" height="22" viewBox="0 0 22 22" fill="none" xmlns="http://www.w3.org/2000/svg">
<path d="M20.625 6.17402H16.2745C16.5866 5.9609 16.8547 5.74915 17.0417 5.55939C18.15 4.44427 18.15 2.62927 17.0417 1.51414C15.9651 0.430645 14.0869 0.42927 13.0089 1.51414C12.4135 2.11227 10.8309 4.54739 11.0495 6.17402H10.9505C11.1678 4.54739 9.5865 2.11227 8.99113 1.51414C7.91313 0.42927 6.03487 0.430645 4.95825 1.51414C3.85 2.62927 3.85 4.44427 4.95687 5.55939C5.14525 5.74915 5.41337 5.9609 5.7255 6.17402H1.375C0.617375 6.17402 0 6.7914 0 7.54902V10.9865C0 11.366 0.308 11.674 0.6875 11.674H1.375V19.924C1.375 20.6816 1.99238 21.299 2.75 21.299H19.25C20.0076 21.299 20.625 20.6816 20.625 19.924V11.674H21.3125C21.692 11.674 22 11.366 22 10.9865V7.54902C22 6.7914 21.3826 6.17402 20.625 6.17402ZM5.93313 2.48352C6.21225 2.20302 6.58212 2.04902 6.97538 2.04902C7.36725 2.04902 7.73712 2.20302 8.01625 2.48352C8.943 3.41577 9.86425 5.79727 9.54387 6.12864C9.54387 6.12864 9.48612 6.17402 9.2895 6.17402C8.33938 6.17402 6.52575 5.18677 5.93313 4.59002C5.357 4.00977 5.357 3.06377 5.93313 2.48352ZM10.3125 19.924H2.75V11.674H10.3125V19.924ZM10.3125 10.299H1.375V7.54902H9.2895H10.3125V10.299ZM13.9838 2.48352C14.542 1.92389 15.51 1.92527 16.0669 2.48352C16.643 3.06377 16.643 4.00977 16.0669 4.59002C15.4743 5.18677 13.6606 6.17402 12.7105 6.17402C12.5139 6.17402 12.4561 6.13002 12.4547 6.12864C12.1357 5.79727 13.057 3.41577 13.9838 2.48352ZM19.25 19.924H11.6875V11.674H19.25V19.924ZM20.625 10.299H11.6875V7.54902H12.7105H20.625V10.299Z" fill="black"/>
</svg>
