<svg width="150" height="102" viewBox="0 0 150 102" fill="none" xmlns="http://www.w3.org/2000/svg">
<mask id="mask0" mask-type="alpha" maskUnits="userSpaceOnUse" x="0" y="0" width="150" height="102">
<path d="M0 10C0 4.47715 4.47715 0 10 0H140C145.523 0 150 4.47715 150 10V92C150 97.5229 145.523 102 140 102H10C4.47715 102 0 97.5229 0 92V10Z" fill="white"/>
</mask>
<g mask="url(#mask0)">
<g opacity="0.8">
<path d="M144.521 9.64166C123.706 18.9223 100.438 30.4741 93.5608 54.1177C87.07 75.9129 95.2085 98.1575 96.9233 120.091C95.5657 126.776 94.5116 133.543 93.7883 140.291C91.6817 135.605 89.3728 130.865 87.0368 126.226C83.274 112.746 80.9153 98.8826 79.9805 84.967C79.8614 82.983 79.7423 80.9989 79.6232 79.0148C94.4947 57.5131 90.182 29.895 84.8661 6.02078C84.6981 5.4335 83.3086 4.95273 82.9435 5.50563C76.0128 17.2052 69.1886 30.1263 68.3959 44.0128C68.0158 51.5027 69.8492 58.8265 72.0676 65.9281C74.528 73.7453 76.5837 81.454 78.3285 89.5132C78.3285 89.5132 78.3285 89.5133 78.4026 89.6415C79.1535 99.3866 80.5928 108.991 82.8489 118.38C80.4587 113.944 78.0413 109.609 75.3945 105.32C73.3365 82.6445 70.4888 60.0824 54.3956 42.4305C40.7217 27.4875 21.8179 18.301 1.73182 15.9556C1.52945 15.9014 0.840979 16.0423 0.962015 16.4001C1.25105 17.3451 1.54009 18.2902 1.82912 19.2353C1.92304 19.6943 2.90781 20.0666 3.56917 20.0269C14.2882 39.9262 11.5667 64.2496 23.1567 83.7316C27.9987 91.97 35.0436 97.6536 43.8523 101.207C53.4434 105.078 63.9074 106.906 72.8623 112.342C73.0647 112.396 73.2399 112.552 73.6447 112.66C88.8605 141.681 94.8654 159.342 95.1815 160.185C96.1101 162.386 103.025 163.697 101.761 160.322C99.8169 155.029 97.7447 149.81 95.5714 144.564C96.4865 135.482 97.9075 126.536 99.7333 117.698C116.093 104.404 132.805 89.7944 140.967 69.8569C144.676 60.873 146.077 51.5961 145.63 41.9324C145.197 31.4049 143.469 20.8556 146.437 10.5887C146.728 9.90748 145.007 9.44655 144.521 9.64166ZM79.5458 76.0658C79.4882 73.4475 79.4306 70.8292 79.5013 68.1368C80.6202 63.5563 83.7755 60.2805 86.3037 56.5114C85.1485 63.2513 82.9543 69.8212 79.5458 76.0658ZM86.725 54.1298C83.9202 57.7164 80.7035 61.6264 79.5105 66.0787C79.5667 64.2501 79.65 62.3202 79.7061 60.4916C79.8509 57.9275 80.0969 55.3905 80.4712 52.7795C82.6436 47.5051 86.0772 42.7856 87.6154 37.4497C87.7505 43.017 87.5549 48.6042 86.725 54.1298ZM87.4692 35.5668C86.0322 40.9298 82.6257 45.5481 80.6827 50.7755C80.8057 49.5071 81.057 48.1645 81.18 46.896C83.4192 42.1818 85.4832 37.3122 87.2436 32.3612C87.4044 33.3804 87.4368 34.4736 87.4692 35.5668ZM83.6552 8.5161C84.6216 13.0047 85.4867 17.4662 86.0953 22.0758C85.2693 24.349 83.8633 26.3582 82.8621 28.4759C83.1351 25.8377 83.2058 23.1453 83.2494 20.5541C83.416 16.6945 83.8392 12.6866 83.3444 8.86663C83.4998 8.69137 83.5269 8.59018 83.6552 8.5161ZM83.1076 9.34546C82.4966 12.4353 82.5198 15.5867 82.3407 18.6838C82.1688 21.3491 81.8957 23.9873 81.9262 26.7068C80.8838 23.7161 79.5849 20.8737 78.3871 18.0583C79.9359 15.1112 81.5859 12.1913 83.1076 9.34546ZM77.9407 18.9148C78.0961 18.7395 78.1774 18.4359 78.3328 18.2607C79.1801 20.7652 80.0002 23.3709 80.9216 26.0038C79.7165 23.6203 78.3561 21.412 77.9407 18.9148ZM77.1021 20.4253C77.8264 24.1983 80.8853 28.1631 81.8192 31.5585C81.8192 31.5585 81.8192 31.5585 81.8932 31.6868L81.8661 31.788C81.839 31.8892 81.9402 31.9163 81.9673 31.8151C81.9673 31.8151 81.9673 31.8151 81.9944 31.7139C82.1697 31.8693 82.5004 31.8495 82.5546 31.6471C82.5348 31.3164 82.4878 31.0869 82.4679 30.7562C82.4951 30.655 82.5222 30.5539 82.5493 30.4527C82.5222 30.5539 82.6234 30.581 82.5962 30.6822C82.6703 30.8105 83.0751 30.9189 83.1022 30.8177C83.0823 30.4871 82.9342 30.2304 82.9143 29.8998C84.0439 27.708 85.5782 25.6247 86.3301 23.2233C86.7653 26.0512 86.9982 28.825 87.3322 31.6258C85.3695 36.5225 83.4067 41.4193 81.3427 46.2889C81.8399 42.4094 82.3372 38.5298 82.5037 34.6701C82.5309 34.569 82.3285 34.5147 82.3014 34.6159C80.6223 39.2633 79.9009 44.3842 79.2806 49.5322C77.7091 43.2547 74.0179 37.6021 72.703 31.1764C73.8074 27.4596 75.3906 23.9795 77.1021 20.4253ZM71.9855 33.0448C72.1482 32.4376 72.3849 31.9588 72.5476 31.3517C73.6529 38.155 77.4922 44.0642 79.1576 50.8007C79.0763 51.1043 79.1233 51.3338 79.0419 51.6373C77.4234 45.1303 72.1259 39.8065 71.9855 33.0448ZM69.9137 44.4195C70.12 41.2212 70.6027 38.2054 71.4161 35.1697C72.0498 41.3045 77.5968 46.912 78.993 53.0341C78.8555 55.1663 78.718 57.2986 78.4793 59.4037C78.349 61.104 78.2459 62.7032 78.2169 64.4306C75.5051 57.956 70.6936 52.4371 69.8992 45.2832C69.8522 45.0537 69.8324 44.7231 69.9137 44.4195ZM71.8241 60.7655C72.9081 62.7913 74.1204 64.7429 75.6905 66.5735L75.8929 66.6277C74.2758 64.5676 72.9154 62.3594 71.7103 59.9759C70.6898 55.6897 69.8987 51.3565 69.9244 46.8083C70.8544 53.4562 75.3623 58.8938 78.2837 64.9908C78.2546 66.7183 78.1244 68.4186 78.0953 70.1461C75.9326 67.2891 73.9994 64.3851 72.1945 61.407C71.918 61.2245 71.8711 60.995 71.8241 60.7655ZM73.7931 67.5834C73.262 65.9228 72.758 64.1609 72.3281 62.5274C73.9306 65.4512 75.7898 68.2269 77.9326 70.7532C77.8619 73.4456 77.8924 76.1651 77.9229 78.8846C77.8958 78.9858 77.8958 78.9858 77.7675 79.0598C77.7404 79.161 77.8144 79.2893 77.8885 79.4176C77.948 80.4097 77.9335 81.2734 78.0202 82.1643C77.0882 77.1426 75.1642 72.1805 73.7931 67.5834ZM59.6404 52.4036C61.9077 58.1084 62.6769 63.7372 61.8054 70.2278C61.3697 73.4731 60.0358 77.2369 59.8223 80.8671C59.526 80.3539 59.1285 79.8136 58.7039 79.3744C60.8947 69.9838 61.2642 60.1051 58.6503 50.8369C58.9466 51.3501 59.3441 51.8904 59.6404 52.4036ZM54.3791 44.9205C55.774 46.5957 56.9664 48.2166 58.1047 50.04C59.4428 59.6171 59.9715 68.9772 58.0842 78.4492C54.6351 73.5123 51.1318 68.7777 47.5273 64.016C45.7427 55.2954 50.7707 43.4114 45.7588 36.2119C48.8666 38.7799 51.7647 41.7255 54.3791 44.9205ZM30.1129 28.2238C29.5745 26.995 28.8067 25.8132 27.9846 24.8337C33.2788 27.3368 38.2351 30.2917 42.8263 33.7994C49.6795 41.8175 44.4907 52.6824 46.1595 62.2396C43.3229 58.6598 40.4862 55.0799 37.6225 51.6012C36.3017 50.0544 35.0081 48.4063 33.6873 46.8594C31.8592 40.73 32.6837 34.0099 30.1129 28.2238ZM3.51157 17.4086C10.9128 18.5241 18.1984 20.4763 25.0104 23.3861C31.3543 28.448 29.3063 36.9008 31.4704 44.2048C24.1185 35.6192 16.4089 27.1547 7.99628 19.6948C7.89509 19.6677 7.69272 19.6134 7.76679 19.7417C14.0472 27.0641 20.5101 34.1101 26.6894 41.4054C21.659 38.3222 15.5877 36.6954 11.2134 32.3782C9.34364 27.2137 6.96066 22.3455 3.60549 17.8675C3.53142 17.7392 3.55853 17.6381 3.51157 17.4086ZM11.7247 33.7082C16.3483 38.3091 23.4242 40.6389 29.0075 44.0871C30.7998 46.3026 32.5921 48.5181 34.3845 50.7336C36.5743 53.4894 38.737 56.3465 40.7985 59.1764C38.5995 58.4787 36.0625 58.2327 33.8761 58.2976C29.9621 58.3334 26.041 58.801 22.3314 57.2648C19.9101 56.1822 17.8811 54.4455 16.3652 52.4126C15.0503 45.9868 13.7823 39.7906 11.7247 33.7082ZM16.6271 53.4588C17.9948 55.2352 19.8758 56.7153 22.0946 57.7436C28.576 60.6733 35.7589 58.1514 42.1391 61.0539C47.3065 68.0781 52.2913 75.3787 56.8171 82.7732C52.5691 80.0082 47.4899 78.3218 42.6527 77.3511C34.4221 75.6879 26.1154 75.5228 20.3807 68.9973C18.7873 64.0153 17.7072 58.7371 16.6271 53.4588ZM20.5685 69.9153C23.5063 73.5222 28.2278 75.3296 32.6331 76.2931C36.6066 77.2493 40.7427 77.5984 44.689 78.6559C46.2069 79.0626 47.6976 79.5705 49.1612 80.1795C47.7174 79.9011 46.2737 79.6227 44.9311 79.3714C36.0861 77.9775 26.511 77.6894 21.0057 71.1169C20.7835 70.732 20.6624 70.3742 20.5685 69.9153ZM50.1749 101.491C39.0045 97.8472 30.4417 91.757 25.0561 81.0954C23.851 78.7119 22.8755 76.2814 22.0011 73.8781C24.9607 76.1895 29.001 77.7059 31.8071 78.5662C36.4347 79.9146 41.131 80.1969 45.8941 81.0394C50.9879 81.862 55.001 83.4796 59.0195 86.2916C61.0936 89.884 63.1948 93.3753 65.1208 96.7111C52.4669 92.1275 36.7386 96.5894 27.2585 84.6138C27.2585 84.6138 27.1573 84.5867 27.2585 84.6138C30.8557 89.8073 36.5818 92.3177 42.6061 93.715C50.5801 95.5263 58.3266 95.7582 66.0368 98.1495C68.2319 102.1 70.2789 105.793 72.2518 109.359C65.0965 105.706 57.4531 103.875 50.1749 101.491ZM71.8858 99.3914C68.7674 94.4346 65.6219 89.579 62.3752 84.6963C62.0789 84.1831 61.7555 83.7711 61.358 83.2307C61.5028 80.6667 62.383 78.1912 62.9596 75.6344C63.5435 72.6457 63.8239 69.5757 63.8747 66.5526C63.9183 63.9614 63.5571 61.2617 63.0406 58.7374C68.9031 71.262 71.1805 85.4289 71.8858 99.3914ZM111.976 31.9387C115.819 28.5221 120.115 25.4434 124.558 22.6212C120.875 27.057 118.992 33.2765 118.162 38.8021C117.441 43.923 117.354 49.1054 116.862 54.1794C116.554 57.3506 115.842 60.4133 115.056 63.3478C113.5 66.7267 112.173 70.0587 110.819 73.4918C112.537 58.9856 106.839 44.2275 114.137 30.3488C110.195 36.559 109.337 43.8121 109.341 51.0798C109.395 56.9506 109.779 62.8016 109.86 68.5713C109.42 64.549 108.676 60.4453 108.107 56.497C107.431 51.3272 107.013 46.0092 108.065 40.8685C108.757 37.475 110.15 34.7032 111.976 31.9387ZM108.591 35.2615C106.216 40.4816 105.905 46.9054 106.324 52.2233C107.035 61.307 109.278 69.9337 108.748 78.7933C107.658 81.6464 106.67 84.5266 105.681 87.4069C105.037 89.4035 104.394 91.4002 103.751 93.3968C103.351 77.8893 95.3526 62.4065 99.8243 47.3367C102.111 42.852 105.125 38.8878 108.591 35.2615ZM97.9754 114.95C97.0338 95.3929 91.1394 75.7018 96.2909 56.4761C96.7518 54.7559 97.2868 53.164 97.923 51.5992C95.3017 65.4296 102.787 81.2087 103.161 95.1911C101.197 101.714 99.4342 108.291 97.9754 114.95ZM100.764 113.853C101.557 110.487 102.351 107.121 103.273 103.68C109.182 99.8409 116.271 96.8601 122.261 92.7172C115.578 100.253 108.093 107.141 100.764 113.853ZM138.486 67.7823C135.204 75.5791 130.614 82.5916 125.295 89.0836C118.804 94.2853 110.521 97.2715 103.578 102.135C104.5 98.6949 105.496 95.3828 106.519 91.9695C111.823 86.3413 118.292 82.4351 124.917 78.3538C129.718 75.4106 134.729 72.0898 138.513 67.6811C138.513 67.6811 138.513 67.6811 138.486 67.7823ZM139.495 65.2328C134.67 71.0978 128.578 75.2136 121.879 79.1666C116.72 82.2308 111.406 85.4703 107.291 89.8988C107.453 89.2917 107.717 88.7117 107.88 88.1045C107.934 87.9022 107.988 87.6998 108.043 87.4974C110.529 84.6932 113.063 82.1185 116.352 79.963C120.465 77.1608 125.076 74.926 129.337 72.3803C133.497 69.8075 137.462 66.7486 140.348 62.8585C140.03 63.6409 139.813 64.4504 139.495 65.2328ZM141.026 60.3288C137.294 66.1614 131.128 70.1488 125.098 73.6303C119.966 76.5933 113.612 79.6628 109.268 84.1383C111.509 77.7979 114.054 71.5387 116.673 65.4079C121.635 57.4107 129.408 53.0945 136.224 46.6785C138.96 44.158 141.299 41.0972 142.827 37.8195C143.331 45.6545 142.877 53.0161 141.026 60.3288ZM142.849 36.5239C139.052 46.2433 126.609 51.8022 119.23 59.9113C119.704 58.9536 120.177 57.996 120.651 57.0383C124.684 52.9134 129.115 49.3287 133.573 45.6429C137.079 42.6779 140.41 39.5576 142.864 35.6601C142.782 35.9637 142.829 36.1932 142.849 36.5239ZM142.703 34.641C137.686 42.8406 128.416 47.0808 122.153 53.8618C127.07 44.0088 132.817 34.7034 138.186 25.1883C138.214 25.0871 137.836 24.8775 137.809 24.9787C130.152 34.5315 123.695 45.2734 118.323 56.4147C118.842 51.2396 118.754 45.9018 119.266 41.1585C120.147 32.6098 122.889 25.2105 129.232 19.7522C133.979 17.0114 138.901 14.426 143.742 12.1443C141.864 19.5581 142.321 27.1637 142.703 34.641Z" fill="#38851D"/>
<path d="M25.6923 56.8638C22.5554 56.0233 19.6553 54.7039 17.3571 52.3529C17.3571 52.3529 17.2559 52.3258 17.3571 52.3529C19.527 54.778 22.521 56.5563 25.7663 56.9921C25.9687 57.0463 25.7934 56.8909 25.6923 56.8638Z" fill="#F4F4F4"/>
<path d="M30.1789 57.5239C29.5718 57.3612 28.9375 57.2997 28.4045 57.2654C28.3033 57.2383 28.3774 57.3666 28.4786 57.3937C29.0857 57.5563 29.6928 57.719 30.3 57.8817C30.6306 57.8619 30.3813 57.5781 30.1789 57.5239Z" fill="#F4F4F4"/>
<path d="M43.8559 36.0271C44.9506 40.4416 45.3839 44.8958 45.257 49.4169C45.2299 49.518 45.6346 49.6265 45.5606 49.4982C45.8429 44.8019 45.3825 40.4489 43.8559 36.0271C43.9842 35.953 43.8831 35.9259 43.8559 36.0271Z" fill="#F4F4F4"/>
<path d="M45.201 51.2461C45.0509 52.6158 44.9279 53.8843 44.879 55.281C44.8519 55.3822 45.1554 55.4636 45.1825 55.3624C45.3326 53.9927 45.2532 52.67 45.201 51.2461C45.3022 51.2732 45.201 51.2461 45.201 51.2461Z" fill="#F4F4F4"/>
<path d="M44.1813 57.4802C44.0457 57.9861 43.9373 58.3909 43.93 58.8228C43.8758 59.0251 44.5841 59.2149 44.5372 58.9854C44.5715 58.4524 44.4776 57.9934 44.3837 57.5344C44.4108 57.4332 44.2084 57.379 44.1813 57.4802Z" fill="#F4F4F4"/>
<path d="M57.0438 51.165C57.2549 55.2344 57.1624 59.2223 57.0428 63.3115C57.0157 63.4127 57.218 63.4669 57.2452 63.3657C57.6955 59.2567 57.5856 55.2145 57.0438 51.165Z" fill="#F4F4F4"/>
<path d="M32.9459 74.3166C28.2714 72.7387 24.2185 70.4598 20.538 67.1961L20.4368 67.1689C23.8607 70.5808 28.1629 73.1435 32.9459 74.3166C33.1211 74.472 33.0471 74.3437 32.9459 74.3166Z" fill="#F4F4F4"/>
<path d="M17.5887 28.013C17.5887 28.013 17.4604 28.0871 17.5887 28.013C20.3929 30.4997 22.9405 33.1344 25.461 35.8704C25.5351 35.9987 25.8658 35.9789 25.6905 35.8235C23.4266 32.9393 20.6495 30.3515 17.5887 28.013Z" fill="#F4F4F4"/>
<path d="M26.4232 27.0179C26.4232 27.0179 26.322 26.9908 26.4232 27.0179C27.2903 29.8531 27.5503 32.5257 27.9584 35.4548C27.9313 35.556 28.2349 35.6373 28.262 35.5361C28.5893 32.6956 27.6752 29.6309 26.4232 27.0179Z" fill="#F4F4F4"/>
<path d="M14.8217 33.8872C14.2959 33.4209 13.743 33.0559 13.2173 32.5896L13.1161 32.5625C13.6419 33.0287 14.0936 33.3667 14.6194 33.8329C14.7946 33.9883 14.997 34.0426 14.8217 33.8872Z" fill="#F4F4F4"/>
<path d="M68.7757 81.8564C68.7612 82.7202 68.6455 83.5568 68.6039 84.5217C68.5767 84.6229 68.8062 84.5759 68.705 84.5488C68.7196 83.6851 68.8353 82.8485 68.8769 81.8836L68.7757 81.8564Z" fill="#F4F4F4"/>
<path d="M33.4904 87.26C32.4858 86.557 31.3529 85.9281 30.22 85.2992C30.22 85.2992 30.1188 85.272 30.22 85.2992C31.2246 86.0022 32.3304 86.7323 33.4633 87.3612C33.3621 87.3341 33.5645 87.3883 33.4904 87.26Z" fill="#F4F4F4"/>
<path d="M71.9713 50.502C72.5096 51.7307 73.048 52.9595 73.6135 54.0871L73.8159 54.1414C73.2775 52.9126 72.6108 51.7579 71.9713 50.502Z" fill="#F4F4F4"/>
<path d="M75.4383 57.396L75.2359 57.3418C75.4582 57.7267 75.7545 58.2399 75.9767 58.6248C76.0508 58.7531 76.2803 58.7062 76.3074 58.605C75.984 58.1929 75.6605 57.7809 75.4383 57.396Z" fill="#F4F4F4"/>
<path d="M99.9774 54.8604C99.5397 59.7319 99.9386 64.7192 101.485 69.4717C101.458 69.5729 101.761 69.6542 101.789 69.553C100.6 64.6795 99.9173 59.9416 99.9774 54.8604Z" fill="#F4F4F4"/>
<path d="M101.806 71.5103C101.806 71.5103 101.604 71.4561 101.705 71.4832C102.095 72.4554 102.256 73.4745 102.288 74.5677C102.234 74.7701 102.74 74.9057 102.794 74.7033C102.688 73.4818 102.325 72.4084 101.806 71.5103Z" fill="#F4F4F4"/>
<path d="M121.907 89.5856C119.077 91.6471 116.193 93.911 112.966 95.4322C112.966 95.4322 112.966 95.4322 113.067 95.4593C116.321 93.8369 119.475 92.1874 122.11 89.6398C122.238 89.5658 122.035 89.5115 121.907 89.5856Z" fill="#F4F4F4"/>
<path d="M124.17 88.0227C124.014 88.1979 123.859 88.3732 123.731 88.4473C123.703 88.5485 123.906 88.6027 124.007 88.6298C124.162 88.4545 124.318 88.2793 124.446 88.2052C124.473 88.104 124.197 87.9215 124.17 88.0227Z" fill="#F4F4F4"/>
<path d="M135.98 64.1823C133.17 66.5745 130.091 68.3523 126.958 70.3325C130.434 69.095 133.42 66.8582 136.183 64.2365C136.311 64.1624 136.109 64.1082 135.98 64.1823Z" fill="#F4F4F4"/>
<path d="M126.526 24.9918C123.354 30.7576 121.315 37.1523 121.253 43.8598C121.226 43.961 121.53 44.0423 121.557 43.9411C122.354 37.3222 123.705 31.0684 126.526 24.9918C126.627 25.0189 126.526 24.9918 126.526 24.9918Z" fill="#F4F4F4"/>
<path d="M129.249 21.7088C129.222 21.81 129.168 22.0124 129.04 22.0864C129.013 22.1876 129.316 22.269 129.343 22.1678L129.553 21.7901C129.553 21.7901 129.378 21.6347 129.249 21.7088Z" fill="#F4F4F4"/>
<path d="M139.968 18.9423C139.421 19.7716 138.873 20.601 138.326 21.4303C138.271 21.6327 138.852 21.8966 138.933 21.593C139.379 20.7365 139.826 19.8801 140.272 19.0236C140.272 19.0236 140.07 18.9694 139.968 18.9423Z" fill="#F4F4F4"/>
<path d="M123.913 71.5771C123.015 72.0956 122.117 72.6141 121.569 73.4435C122.541 73.0532 123.466 72.4335 124.29 71.7867C124.52 71.7397 124.041 71.503 123.913 71.5771Z" fill="#F4F4F4"/>
<path d="M98.6709 75.1169C99.8846 81.5155 100.795 87.8328 102.009 94.2314C101.981 94.3325 102.386 94.441 102.312 94.3127C101.227 87.84 99.8846 81.5155 98.6709 75.1169C98.7992 75.0428 98.698 75.0157 98.6709 75.1169Z" fill="#F4F4F4"/>
</g>
</g>
</svg>
