<svg width="61" height="266" viewBox="0 0 61 266" fill="none" xmlns="http://www.w3.org/2000/svg">
<line x1="31.5" y1="61" x2="31.5" y2="101" stroke="white" stroke-width="3" stroke-dasharray="5 5"/>
<line x1="31.5" y1="161" x2="31.5" y2="205" stroke="white" stroke-width="3" stroke-dasharray="5 5"/>
<path d="M59 30.5C59 46.808 46.0007 60 30 60C13.9993 60 1 46.808 1 30.5C1 14.192 13.9993 1 30 1C46.0007 1 59 14.192 59 30.5Z" stroke="white" stroke-width="2"/>
<path d="M40.283 31.9351C39.7686 31.9351 39.3516 32.3563 39.3516 32.8759V38.5206C39.3516 39.0402 38.9347 39.4614 38.4203 39.4614H19.794C19.2796 39.4614 18.8627 39.0402 18.8627 38.5206V32.8759C18.8627 32.3563 18.4457 31.9351 17.9313 31.9351C17.417 31.9351 17 32.3563 17 32.8759V38.5206C17 40.0793 18.2509 41.3429 19.794 41.3429H38.4204C39.9634 41.3429 41.2143 40.0793 41.2143 38.5206V32.8759C41.2143 32.3563 40.7974 31.9351 40.283 31.9351Z" fill="white"/>
<path d="M34.4012 31.27C34.0402 30.9179 33.4681 30.9179 33.1072 31.27L30.0385 34.3681V15.9409C30.0385 15.4212 29.6215 15 29.1071 15C28.5928 15 28.1758 15.4212 28.1758 15.9409V34.3682L25.109 31.27C24.739 30.909 24.1494 30.9194 23.7921 31.2931C23.4435 31.6577 23.4435 32.2357 23.7921 32.6003L28.4487 37.3045C28.8119 37.6724 29.4016 37.6731 29.7657 37.3062C29.7663 37.3057 29.7668 37.3051 29.7674 37.3045L34.424 32.6003C34.7814 32.2265 34.7711 31.631 34.4012 31.27Z" fill="white"/>
<path d="M59 129.5C59 145.808 46.0007 159 30 159C13.9993 159 1 145.808 1 129.5C1 113.192 13.9993 100 30 100C46.0007 100 59 113.192 59 129.5Z" stroke="white" stroke-width="2"/>
<path d="M36.5781 135.9C36.2116 135.9 35.9141 136.2 35.9141 136.571C35.9141 136.941 36.2116 137.241 36.5781 137.241C36.9447 137.241 37.2422 136.941 37.2422 136.571C37.2422 136.2 36.9447 135.9 36.5781 135.9Z" fill="white"/>
<path d="M39.2132 133.73L36.0569 132.667L34.9238 130.378C35.9446 129.328 36.6534 127.939 36.8923 126.49L37.0337 125.635H38.2422C39.3407 125.635 40.2344 124.732 40.2344 123.622V119.396C40.2344 113.847 35.7659 109.333 30.2734 109.333C24.7669 109.333 20.3125 113.834 20.3125 119.396V123.622C20.3125 124.497 20.8677 125.242 21.6406 125.519V126.306C21.6406 127.415 22.5343 128.318 23.6328 128.318H24.216C24.5039 128.95 24.8765 129.535 25.3299 130.061C25.4239 130.17 25.522 130.276 25.6225 130.379L24.49 132.667L21.3336 133.73C17.6637 134.966 15 138.869 15 143.01C15 143.381 15.2973 143.681 15.6641 143.681H44.8828C45.2495 143.681 45.5469 143.381 45.5469 143.01C45.5469 138.869 42.8833 134.966 39.2132 133.73ZM38.9062 123.622C38.9062 123.992 38.6084 124.293 38.2422 124.293H37.2287C37.3975 122.972 37.51 121.566 37.5552 120.182C37.5565 120.143 37.5576 120.105 37.5588 120.067H38.9062V123.622ZM22.3047 124.293C21.9385 124.293 21.6406 123.992 21.6406 123.622V120.067H22.9885C22.9907 120.136 22.9931 120.207 22.9956 120.278C22.9957 120.28 22.9958 120.282 22.9959 120.285C22.9959 120.285 22.9959 120.285 22.9959 120.285C23.0424 121.632 23.1534 123.001 23.3184 124.293H22.3047V124.293ZM23.6328 126.977C23.2666 126.977 22.9688 126.676 22.9688 126.306V125.635H23.5131L23.6545 126.491C23.6814 126.653 23.7146 126.815 23.7529 126.977H23.6328ZM22.9699 118.725H21.6659C22.0022 114.228 25.7164 110.674 30.2734 110.674C34.8102 110.674 38.5407 114.228 38.8809 118.725H37.5771C37.5293 115.02 34.5428 112.016 30.8678 112.016H29.6792C26.0043 112.016 23.0176 115.02 22.9699 118.725ZM29.6791 113.358H30.8678C33.8434 113.358 36.2517 115.817 36.25 118.819C36.25 119.03 36.2483 119.214 36.2448 119.382C36.2448 119.384 36.2448 119.386 36.2448 119.388L35.4141 119.268C33.1577 118.943 31.0271 117.867 29.4149 116.238C29.2903 116.112 29.1214 116.041 28.9453 116.041C27.1619 116.041 25.4547 116.862 24.3262 118.249C24.6043 115.517 26.8902 113.358 29.6791 113.358ZM25.1296 126.977C24.7972 125.859 24.4168 122.572 24.3327 120.465L25.2265 119.262C26.0473 118.156 27.3244 117.469 28.6829 117.391C30.4703 119.109 32.7827 120.244 35.2263 120.596L36.204 120.738C36.1386 122.139 36.0051 123.545 35.8138 124.838C35.8137 124.838 35.8136 124.839 35.8136 124.839C35.7528 125.255 35.7048 125.522 35.5824 126.27C35.2307 128.401 33.6567 130.328 31.5789 130.853C30.7238 131.068 29.8229 131.068 28.9683 130.853C27.6709 130.525 26.4813 129.618 25.7136 128.318H27.0673C27.3415 129.099 28.0796 129.66 28.9453 129.66H30.2734C31.3741 129.66 32.2656 128.759 32.2656 127.647C32.2656 126.538 31.3719 125.635 30.2734 125.635H28.9453C28.0603 125.635 27.3331 126.212 27.0662 126.977H25.1296ZM28.8895 132.21C29.3449 132.307 29.8093 132.357 30.2734 132.357C30.6367 132.357 31.0001 132.326 31.3594 132.267L30.186 133.52L28.8895 132.21ZM29.273 134.496L27.1668 136.746C26.5869 135.625 26.0886 134.458 25.68 133.263L26.4709 131.665L29.273 134.496ZM33.9634 131.437L34.8668 133.263C34.4574 134.459 33.9591 135.627 33.3798 136.747L31.1254 134.469L33.9634 131.437ZM28.2812 127.647C28.2812 127.277 28.5786 126.977 28.9453 126.977H30.2734C30.6396 126.977 30.9375 127.277 30.9375 127.647C30.9375 128.018 30.6401 128.318 30.2734 128.318H28.9453C28.5791 128.318 28.2812 128.017 28.2812 127.647ZM16.3547 142.34C16.6179 139.016 18.8072 135.995 21.7536 135.003L24.549 134.062C25.0611 135.492 25.6955 136.883 26.4391 138.204C26.4403 138.206 26.4415 138.208 26.4428 138.21C26.4428 138.21 26.4429 138.21 26.4429 138.21C26.9861 139.176 27.5976 140.119 28.2605 141.015L29.0775 142.34H16.3547ZM30.2734 141.741L29.3728 140.281C29.3627 140.264 29.352 140.249 29.3406 140.233C28.8028 139.508 28.3012 138.751 27.8443 137.975L30.2125 135.445L32.708 137.966C32.248 138.747 31.7447 139.508 31.2064 140.233C31.1739 140.277 31.2201 140.208 30.2734 141.741ZM31.4694 142.34L32.2863 141.015C32.9521 140.116 33.568 139.165 34.1167 138.188C34.12 138.182 34.1231 138.176 34.1265 138.17C34.1269 138.17 34.1273 138.169 34.1277 138.168C34.8618 136.86 35.4896 135.482 35.9979 134.062L38.7932 135.003C41.7397 135.995 43.929 139.016 44.1922 142.34H31.4694Z" fill="white"/>
<path d="M41.1965 139.624C40.7527 138.727 40.1026 137.93 39.3166 137.319C39.0258 137.093 38.6089 137.148 38.3853 137.442C38.1617 137.735 38.2161 138.156 38.5067 138.382C39.1345 138.87 39.6537 139.507 40.0082 140.223C40.1725 140.555 40.5716 140.689 40.8991 140.524C41.2271 140.358 41.3603 139.955 41.1965 139.624Z" fill="white"/>
<path d="M60 235.5C60 251.809 47.0007 265 31 265C14.9993 265 2 251.809 2 235.5C2 219.192 14.9993 206 31 206C47.0007 206 60 219.192 60 235.5Z" stroke="white" stroke-width="2"/>
<path d="M44.4 219.673H20.9333C20.509 219.673 20.102 219.843 19.802 220.146C19.5019 220.449 19.3333 220.861 19.3333 221.289V235.836H15.6C15.1757 235.836 14.7687 236.007 14.4686 236.31C14.1686 236.613 14 237.024 14 237.453V250.384C14 250.812 14.1686 251.223 14.4686 251.527C14.7687 251.83 15.1757 252 15.6 252H38C38.4243 252 38.8313 251.83 39.1314 251.527C39.4314 251.223 39.6 250.812 39.6 250.384V246.612H44.4C44.8243 246.612 45.2313 246.442 45.5314 246.139C45.8314 245.836 46 245.424 46 244.996V221.289C46 220.861 45.8314 220.449 45.5314 220.146C45.2313 219.843 44.8243 219.673 44.4 219.673ZM35.3333 220.75V232.136L32.9627 230.539C32.875 230.48 32.772 230.448 32.6667 230.448C32.5613 230.448 32.4583 230.48 32.3707 230.539L30 232.136V220.75H35.3333ZM38.5333 250.384C38.5333 250.527 38.4771 250.664 38.3771 250.765C38.2771 250.866 38.1415 250.922 38 250.922H15.6C15.4586 250.922 15.3229 250.866 15.2229 250.765C15.1229 250.664 15.0667 250.527 15.0667 250.384V237.453C15.0667 237.31 15.1229 237.173 15.2229 237.072C15.3229 236.971 15.4586 236.914 15.6 236.914H38C38.1415 236.914 38.2771 236.971 38.3771 237.072C38.4771 237.173 38.5333 237.31 38.5333 237.453V250.384ZM44.9333 244.996C44.9333 245.139 44.8771 245.276 44.7771 245.377C44.6771 245.478 44.5415 245.535 44.4 245.535H39.6V237.453C39.6 237.024 39.4314 236.613 39.1314 236.31C38.8313 236.007 38.4243 235.836 38 235.836H20.4V221.289C20.4 221.146 20.4562 221.009 20.5562 220.908C20.6562 220.807 20.7919 220.75 20.9333 220.75H28.9333V233.142C28.9333 233.24 28.9595 233.336 29.0091 233.419C29.0588 233.503 29.1299 233.572 29.2151 233.618C29.3002 233.664 29.3961 233.685 29.4925 233.681C29.589 233.676 29.6823 233.645 29.7627 233.591L32.6667 231.634L35.5707 233.59C35.6509 233.644 35.7442 233.675 35.8405 233.68C35.9369 233.684 36.0327 233.663 36.1178 233.617C36.2029 233.571 36.2741 233.503 36.3238 233.419C36.3735 233.336 36.3998 233.24 36.4 233.142V220.75H44.4C44.5415 220.75 44.6771 220.807 44.7771 220.908C44.8771 221.009 44.9333 221.146 44.9333 221.289V244.996Z" fill="white"/>
<path d="M36.9333 240.146C36.5089 240.146 36.102 239.976 35.8019 239.672C35.5019 239.369 35.3333 238.958 35.3333 238.53C35.3333 238.387 35.2771 238.25 35.1771 238.149C35.0771 238.047 34.9414 237.991 34.8 237.991H18.8C18.6585 237.991 18.5229 238.047 18.4228 238.149C18.3228 238.25 18.2666 238.387 18.2666 238.53C18.2666 238.958 18.0981 239.369 17.798 239.672C17.4979 239.976 17.091 240.146 16.6666 240.146C16.5252 240.146 16.3895 240.203 16.2895 240.304C16.1895 240.405 16.1333 240.542 16.1333 240.685V247.15C16.1333 247.293 16.1895 247.43 16.2895 247.531C16.3895 247.632 16.5252 247.689 16.6666 247.689C17.091 247.689 17.4979 247.859 17.798 248.162C18.0981 248.465 18.2666 248.877 18.2666 249.305C18.2666 249.448 18.3228 249.585 18.4228 249.686C18.5229 249.787 18.6585 249.844 18.8 249.844H34.8C34.9414 249.844 35.0771 249.787 35.1771 249.686C35.2771 249.585 35.3333 249.448 35.3333 249.305C35.3333 248.877 35.5019 248.465 35.8019 248.162C36.102 247.859 36.5089 247.689 36.9333 247.689C37.0747 247.689 37.2104 247.632 37.3104 247.531C37.4104 247.43 37.4666 247.293 37.4666 247.15V240.685C37.4666 240.542 37.4104 240.405 37.3104 240.304C37.2104 240.203 37.0747 240.146 36.9333 240.146ZM36.4 246.665C35.8879 246.772 35.4179 247.027 35.0482 247.401C34.6785 247.774 34.4253 248.249 34.32 248.766H19.28C19.1746 248.249 18.9214 247.774 18.5517 247.401C18.182 247.027 17.7121 246.772 17.2 246.665V241.17C17.7121 241.063 18.182 240.807 18.5517 240.434C18.9214 240.06 19.1746 239.586 19.28 239.068H34.32C34.4253 239.586 34.6785 240.06 35.0482 240.434C35.4179 240.807 35.8879 241.063 36.4 241.17V246.665Z" fill="white"/>
<path d="M27.3333 247.151V246.513C27.6889 246.387 27.9887 246.137 28.1796 245.809C28.3704 245.48 28.4401 245.094 28.3762 244.719C28.3123 244.344 28.119 244.003 27.8305 243.758C27.542 243.513 27.177 243.379 26.8 243.38C26.6945 243.38 26.5914 243.348 26.5037 243.289C26.416 243.23 26.3476 243.146 26.3073 243.047C26.2669 242.949 26.2563 242.84 26.2769 242.736C26.2975 242.631 26.3483 242.535 26.4229 242.46C26.4975 242.385 26.5925 242.333 26.696 242.312C26.7994 242.292 26.9067 242.302 27.0041 242.343C27.1016 242.384 27.1849 242.453 27.2435 242.542C27.3021 242.63 27.3333 242.734 27.3333 242.841C27.3333 242.984 27.3895 243.121 27.4896 243.222C27.5896 243.323 27.7252 243.38 27.8667 243.38C28.0081 243.38 28.1438 243.323 28.2438 243.222C28.3438 243.121 28.4 242.984 28.4 242.841C28.3986 242.508 28.2954 242.183 28.1045 241.912C27.9136 241.64 27.6442 241.435 27.3333 241.324V240.686C27.3333 240.543 27.2772 240.406 27.1771 240.305C27.0771 240.204 26.9415 240.147 26.8 240.147C26.6586 240.147 26.5229 240.204 26.4229 240.305C26.3229 240.406 26.2667 240.543 26.2667 240.686V241.324C25.9111 241.45 25.6113 241.7 25.4205 242.028C25.2296 242.357 25.1599 242.743 25.2238 243.118C25.2877 243.493 25.481 243.834 25.7695 244.079C26.058 244.324 26.423 244.458 26.8 244.457C26.9055 244.457 27.0086 244.489 27.0963 244.548C27.184 244.607 27.2524 244.691 27.2927 244.79C27.3331 244.888 27.3437 244.997 27.3231 245.101C27.3025 245.206 27.2517 245.302 27.1771 245.377C27.1025 245.452 27.0075 245.504 26.9041 245.524C26.8006 245.545 26.6934 245.535 26.5959 245.494C26.4985 245.453 26.4152 245.384 26.3566 245.295C26.298 245.207 26.2667 245.103 26.2667 244.996C26.2667 244.853 26.2105 244.716 26.1105 244.615C26.0105 244.514 25.8748 244.457 25.7333 244.457C25.5919 244.457 25.4562 244.514 25.3562 244.615C25.2562 244.716 25.2 244.853 25.2 244.996C25.2014 245.329 25.3046 245.654 25.4955 245.925C25.6865 246.197 25.9558 246.402 26.2667 246.513V247.151C26.2667 247.294 26.3229 247.431 26.4229 247.532C26.5229 247.633 26.6586 247.69 26.8 247.69C26.9415 247.69 27.0771 247.633 27.1771 247.532C27.2772 247.431 27.3333 247.294 27.3333 247.151Z" fill="white"/>
<path d="M31.6 243.919C31.6 242.96 31.3185 242.023 30.7911 241.225C30.2636 240.428 29.514 239.806 28.6369 239.439C27.7598 239.072 26.7947 238.976 25.8636 239.163C24.9325 239.351 24.0772 239.812 23.4059 240.491C22.7346 241.169 22.2774 242.033 22.0922 242.973C21.907 243.914 22.0021 244.889 22.3654 245.775C22.7287 246.661 23.3439 247.419 24.1333 247.951C24.9226 248.484 25.8507 248.769 26.8 248.769C28.0726 248.767 29.2926 248.256 30.1924 247.347C31.0922 246.438 31.5984 245.205 31.6 243.919ZM26.8 247.691C26.0616 247.691 25.3398 247.47 24.7259 247.055C24.1119 246.641 23.6334 246.052 23.3509 245.363C23.0683 244.674 22.9944 243.915 23.1384 243.184C23.2825 242.452 23.638 241.78 24.1601 241.253C24.6823 240.725 25.3475 240.366 26.0717 240.22C26.7959 240.075 27.5465 240.15 28.2287 240.435C28.9109 240.72 29.4939 241.204 29.9042 241.824C30.3144 242.444 30.5333 243.174 30.5333 243.919C30.5322 244.919 30.1385 245.878 29.4386 246.585C28.7387 247.292 27.7898 247.69 26.8 247.691Z" fill="white"/>
<path d="M34.2667 243.378H33.2C33.0586 243.378 32.9229 243.435 32.8229 243.536C32.7229 243.637 32.6667 243.774 32.6667 243.917C32.6667 244.06 32.7229 244.197 32.8229 244.298C32.9229 244.399 33.0586 244.456 33.2 244.456H34.2667C34.4081 244.456 34.5438 244.399 34.6438 244.298C34.7438 244.197 34.8 244.06 34.8 243.917C34.8 243.774 34.7438 243.637 34.6438 243.536C34.5438 243.435 34.4081 243.378 34.2667 243.378Z" fill="white"/>
<path d="M20.4 243.378H19.3333C19.1919 243.378 19.0562 243.435 18.9562 243.536C18.8562 243.637 18.8 243.774 18.8 243.917C18.8 244.06 18.8562 244.197 18.9562 244.298C19.0562 244.399 19.1919 244.456 19.3333 244.456H20.4C20.5414 244.456 20.6771 244.399 20.7771 244.298C20.8771 244.197 20.9333 244.06 20.9333 243.917C20.9333 243.774 20.8771 243.637 20.7771 243.536C20.6771 243.435 20.5414 243.378 20.4 243.378Z" fill="white"/>
</svg>
