<svg width="80" height="80" viewBox="0 0 80 80" fill="none" xmlns="http://www.w3.org/2000/svg">
<g clip-path="url(#clip0)">
<path d="M73.3336 68.8994H68.0003C67.2643 68.8994 66.667 69.4884 66.667 70.2141V78.1028C66.667 78.8285 67.2643 79.4175 68.0003 79.4175H73.3336C74.0695 79.4175 74.6668 78.8285 74.6668 78.1028V70.2141C74.667 69.4884 74.0697 68.8994 73.3336 68.8994ZM72.0003 76.788H69.3336V71.529H72.0003V76.788Z" fill="#FFF23D"/>
<path d="M49.3326 68.8994H43.9993C43.2634 68.8994 42.666 69.4884 42.666 70.2141V78.1028C42.666 78.8285 43.2634 79.4175 43.9993 79.4175H49.3326C50.0685 79.4175 50.6659 78.8285 50.6659 78.1028V70.2141C50.666 69.4884 50.0687 68.8994 49.3326 68.8994ZM47.9993 76.788H45.3326V71.529H47.9993V76.788Z" fill="#FFF23D"/>
<path d="M76 63.6406H41.3333C40.5973 63.6406 40 64.2297 40 64.9553V70.2144C40 70.9401 40.5973 71.5291 41.3333 71.5291H76C76.7359 71.5291 77.3333 70.9401 77.3333 70.2144V64.9553C77.3333 64.2297 76.7359 63.6406 76 63.6406ZM74.6667 68.8997H42.6667V66.2701H74.6667V68.8997Z" fill="#FFF23D"/>
<path d="M76 53.1221H41.3333C40.5973 53.1221 40 53.7111 40 54.4368V59.696C40 60.4217 40.5973 61.0107 41.3333 61.0107H76C76.7359 61.0107 77.3333 60.4217 77.3333 59.696V54.4369C77.3333 53.7111 76.7359 53.1221 76 53.1221ZM74.6667 58.3813H42.6667V55.7517H74.6667V58.3813Z" fill="#FFF23D"/>
<path d="M46.6673 58.3818C45.9313 58.3818 45.334 58.9709 45.334 59.6966V64.9556C45.334 65.6813 45.9313 66.2703 46.6673 66.2703C47.4032 66.2703 48.0005 65.6813 48.0005 64.9556V59.6966C48.0005 58.9709 47.4032 58.3818 46.6673 58.3818Z" fill="#FFF23D"/>
<path d="M70.6663 58.3818C69.9303 58.3818 69.333 58.9709 69.333 59.6966V64.9556C69.333 65.6813 69.9303 66.2703 70.6663 66.2703C71.4022 66.2703 71.9996 65.6813 71.9996 64.9556V59.6966C71.9996 58.9709 71.4022 58.3818 70.6663 58.3818Z" fill="#FFF23D"/>
<path d="M46.6673 47.8633C45.9313 47.8633 45.334 48.4523 45.334 49.178V54.437C45.334 55.1627 45.9313 55.7518 46.6673 55.7518C47.4032 55.7518 48.0005 55.1627 48.0005 54.437V49.178C48.0005 48.4523 47.4032 47.8633 46.6673 47.8633Z" fill="#FFF23D"/>
<path d="M70.6663 47.8633C69.9303 47.8633 69.333 48.4523 69.333 49.178V54.437C69.333 55.1627 69.9303 55.7518 70.6663 55.7518C71.4022 55.7518 71.9996 55.1627 71.9996 54.437V49.178C71.9996 48.4523 71.4022 47.8633 70.6663 47.8633Z" fill="#FFF23D"/>
<path d="M58.6673 0.53125C57.9313 0.53125 57.334 1.12028 57.334 1.84597V33.4005C57.334 34.1262 57.9313 34.7152 58.6673 34.7152C59.4032 34.7152 60.0005 34.1262 60.0005 33.4005V1.84597C60.0005 1.12028 59.4032 0.53125 58.6673 0.53125Z" fill="#FFF23D"/>
<path d="M65.334 5.79004C60.9234 5.79004 57.334 9.32806 57.334 13.6787C57.334 14.4044 57.9313 14.9934 58.6673 14.9934C59.4032 14.9934 60.0007 14.4045 60.0007 13.6787C60.0007 10.7782 62.3927 8.41963 65.334 8.41963C68.2752 8.41963 70.6673 10.7784 70.6673 13.6787C70.6673 14.4044 71.2646 14.9934 72.0005 14.9934C72.7365 14.9934 73.3338 14.4044 73.3338 13.6787C73.334 9.32821 69.7448 5.79004 65.334 5.79004Z" fill="#FFF23D"/>
<path d="M73.3334 12.3643H70.6667C66.9908 12.3643 64 15.3133 64 18.9382C64 19.6639 64.5973 20.2529 65.3333 20.2529H78.6666C79.4025 20.2529 79.9998 19.6639 79.9998 18.9382C80.0002 15.3133 77.0095 12.3643 73.3334 12.3643ZM66.8948 17.6233C67.4455 16.0929 68.9281 14.9937 70.6655 14.9937H73.3322C75.0708 14.9937 76.5536 16.0929 77.1042 17.6233H66.8948V17.6233Z" fill="#FFF23D"/>
<path d="M74.6666 17.624H69.3333C68.5973 17.624 68 18.2131 68 18.9387V22.8831C68 25.0577 69.7947 26.8274 72 26.8274C74.2053 26.8274 76 25.0577 76 22.8831V18.9387C75.9998 18.2131 75.4025 17.624 74.6666 17.624ZM73.3331 22.8832C73.3331 23.6077 72.7358 24.1979 71.9998 24.1979C71.2639 24.1979 70.6666 23.6077 70.6666 22.8832V20.2536H73.3333V22.8832H73.3331Z" fill="#FFF23D"/>
<path d="M58.667 32.0859C56.4617 32.0859 54.667 33.8556 54.667 36.0303V54.4371C54.667 55.1628 55.2643 55.7518 56.0003 55.7518H61.3336C62.0695 55.7518 62.6668 55.1628 62.6668 54.4371V36.0303C62.667 33.8556 60.8723 32.0859 58.667 32.0859ZM60.0003 53.1222H57.3336V36.0303C57.3336 35.3058 57.9309 34.7155 58.6668 34.7155C59.4028 34.7155 60.0003 35.3058 60.0003 36.0303V53.1222Z" fill="#FFF23D"/>
<path d="M26.667 28.1416C22.2564 28.1416 18.667 31.6796 18.667 36.0302V53.1222C18.667 57.4728 22.2564 61.0108 26.667 61.0108C31.0776 61.0108 34.667 57.4728 34.667 53.1222V36.0302C34.667 31.6796 31.0776 28.1416 26.667 28.1416ZM32.0003 53.1222C32.0003 56.0227 29.6082 58.3812 26.667 58.3812C23.7257 58.3812 21.3337 56.0225 21.3337 53.1222V36.0302C21.3337 33.1298 23.7257 30.7712 26.667 30.7712C29.6082 30.7712 32.0003 33.1299 32.0003 36.0302V53.1222Z" fill="#FFF23D"/>
<path d="M27.6091 48.2486L24.9424 45.619C24.4224 45.1049 23.5771 45.1049 23.0571 45.619C22.5357 46.1332 22.5357 46.9641 23.0571 47.4781L25.7238 50.1077C25.9838 50.3641 26.3252 50.4929 26.6664 50.4929C27.0079 50.4929 27.3491 50.3641 27.6091 50.1077C28.1304 49.5937 28.1304 48.7628 27.6091 48.2486Z" fill="#FFF23D"/>
<path d="M30.2761 50.8778C29.7561 50.3637 28.9108 50.3637 28.3908 50.8778L25.7241 53.5074C25.2027 54.0215 25.2027 54.8525 25.7241 55.3665C25.9841 55.6228 26.3255 55.7516 26.6667 55.7516C27.0081 55.7516 27.3494 55.6228 27.6094 55.3665L30.2761 52.7369C30.7975 52.2229 30.7975 51.3918 30.2761 50.8778Z" fill="#FFF23D"/>
<path d="M13.333 14.9932C8.92238 14.9932 5.33301 18.5312 5.33301 22.8818V53.1216C5.33301 57.4722 8.92238 61.0102 13.333 61.0102C17.7436 61.0102 21.333 57.4722 21.333 53.1216V22.8818C21.333 18.5312 17.7438 14.9932 13.333 14.9932ZM18.6664 53.1214C18.6664 56.0219 16.2744 58.3805 13.3332 58.3805C10.3919 58.3805 7.99973 56.0219 7.99973 53.1214V22.8818C7.99973 19.9813 10.3918 17.6228 13.333 17.6228C16.2744 17.6228 18.6663 19.9815 18.6663 22.8818V53.1214H18.6664Z" fill="#FFF23D"/>
<path d="M13.3333 26.8271C12.5973 26.8271 12 27.4162 12 28.1419V74.1589C12 74.8846 12.5973 75.4736 13.3333 75.4736C14.0692 75.4736 14.6666 74.8846 14.6666 74.1589V28.1419C14.6667 27.4162 14.0694 26.8271 13.3333 26.8271Z" fill="#FFF23D"/>
<path d="M14.2758 48.2485L11.6093 45.619C11.0893 45.1049 10.2439 45.1049 9.72395 45.619C9.2027 46.1332 9.2027 46.9641 9.72395 47.4781L12.3905 50.1075C12.6505 50.3639 12.9919 50.4927 13.3332 50.4927C13.6746 50.4927 14.0158 50.3639 14.2758 50.1075C14.7972 49.5935 14.7972 48.7626 14.2758 48.2485Z" fill="#FFF23D"/>
<path d="M16.9431 50.8778C16.4231 50.3637 15.5778 50.3637 15.0578 50.8778L12.3911 53.5074C11.8696 54.0215 11.8696 54.8525 12.3911 55.3665C12.6511 55.6228 12.9925 55.7516 13.3337 55.7516C13.6751 55.7516 14.0164 55.6228 14.2764 55.3665L16.9431 52.7369C17.4645 52.2229 17.4645 51.3918 16.9431 50.8778Z" fill="#FFF23D"/>
<path d="M14.2758 36.4154L11.6093 33.786C11.0893 33.2719 10.2439 33.2719 9.72395 33.786C9.2027 34.3001 9.2027 35.1311 9.72395 35.6451L12.3905 38.2745C12.6505 38.5309 12.9919 38.6597 13.3332 38.6597C13.6746 38.6597 14.0158 38.5309 14.2758 38.2745C14.7972 37.7605 14.7972 36.9296 14.2758 36.4154Z" fill="#FFF23D"/>
<path d="M16.9431 39.0448C16.4231 38.5306 15.5778 38.5306 15.0578 39.0448L12.3911 41.6744C11.8696 42.1884 11.8696 43.0195 12.3911 43.5334C12.6511 43.7898 12.9925 43.9186 13.3337 43.9186C13.6751 43.9186 14.0164 43.7898 14.2764 43.5334L16.9431 40.9039C17.4645 40.3899 17.4645 39.5588 16.9431 39.0448Z" fill="#FFF23D"/>
<path d="M26.6673 39.9746C25.9313 39.9746 25.334 40.5636 25.334 41.2893V70.7783C25.334 71.504 25.9313 72.0931 26.6673 72.0931C27.4032 72.0931 28.0005 71.504 28.0005 70.7783V41.2893C28.0005 40.5636 27.4032 39.9746 26.6673 39.9746Z" fill="#FFF23D"/>
<path d="M30.788 72.5676C30.6573 72.5676 30.5266 72.5755 30.3959 72.5914C29.0173 70.1696 26.828 68.8994 24 68.8994C21.172 68.8994 18.9827 70.1695 17.6041 72.5914C17.4734 72.5756 17.3427 72.5676 17.212 72.5676C13.8506 72.5676 12 74.5332 12 78.1028C12 78.8285 12.5973 79.4175 13.3333 79.4175H34.6666C35.4025 79.4175 35.9998 78.8285 35.9998 78.1028C36 74.5333 34.1494 72.5676 30.788 72.5676ZM14.8 76.788C15.1159 75.4957 15.9812 75.1972 17.212 75.1972C17.352 75.1972 17.5267 75.2459 17.748 75.3484C18.0786 75.4995 18.4573 75.5128 18.7959 75.3838C19.1345 75.255 19.4053 74.9934 19.5453 74.662C20.4453 72.5242 21.8613 71.5289 24 71.5289C26.1386 71.5289 27.5547 72.5242 28.4547 74.662C28.5934 74.9932 28.8641 75.2536 29.2041 75.3838C29.5441 75.5126 29.9214 75.5009 30.252 75.3484C30.4734 75.2471 30.648 75.1972 30.788 75.1972C32.0186 75.1972 32.8827 75.4957 33.2 76.788H14.8Z" fill="#FFF23D"/>
<path d="M15.8547 73.0148C15.0441 72.6755 14.0867 72.4718 13.0627 72.5914C11.6841 70.1696 9.49469 68.8994 6.66672 68.8994C4.60406 68.8994 2.98812 69.5818 1.72672 70.9847C0.613281 72.2233 0 73.9232 0 75.7692V78.1029C0 78.8286 0.597344 79.4177 1.33328 79.4177H13.3333C14.0692 79.4177 14.6666 78.8286 14.6666 78.1029C14.6666 75.9336 15.5306 75.5707 15.8559 75.4339C16.3466 75.2274 16.6666 74.7503 16.6666 74.2243C16.6667 73.6984 16.3467 73.2211 15.8547 73.0148ZM12.0947 76.7881H2.66672V75.7692C2.66672 74.5661 3.04141 73.4867 3.72266 72.7294C4.46938 71.8997 5.37594 71.529 6.66672 71.529C8.80531 71.529 10.2214 72.5243 11.1227 74.6634C11.2612 74.9946 11.532 75.255 11.872 75.3852C12.0547 75.4549 12.248 75.4824 12.4427 75.4707C12.2906 75.8547 12.1706 76.2924 12.0947 76.7881Z" fill="#FFF23D"/>
<path d="M35.4567 4.50453C34.4207 2.14056 32.0287 0.53125 29.334 0.53125C26.6393 0.53125 24.2473 2.14056 23.2113 4.50453C20.0873 4.17712 17.334 6.6568 17.334 9.73476C17.334 12.6352 19.726 14.9938 22.6673 14.9938H36.0007C38.9421 14.9938 41.334 12.6351 41.334 9.73476C41.334 6.6568 38.5848 4.17836 35.4567 4.50453ZM36.0007 12.3642H22.6674C21.1966 12.3642 20.0007 11.1849 20.0007 9.7346C20.0007 8.2843 21.1966 7.10501 22.6674 7.10501C22.9807 7.10501 23.3034 7.16679 23.6248 7.29036C23.9915 7.4298 24.4021 7.40345 24.7474 7.21671C25.0927 7.02997 25.3368 6.70256 25.4141 6.32262C25.7874 4.49113 27.4356 3.16054 29.3341 3.16054C31.2327 3.16054 32.8809 4.49113 33.2527 6.32262C33.3313 6.70256 33.5742 7.0312 33.9195 7.21671C34.2648 7.40206 34.6754 7.42841 35.0421 7.29036C36.8835 6.59086 38.6674 7.97538 38.6674 9.73445C38.6674 11.1849 37.4713 12.3642 36.0007 12.3642Z" fill="#FFF23D"/>
<path d="M49.334 18.9385C46.326 18.9385 43.6993 20.5846 42.334 23.0116C41.3766 22.1175 40.086 21.5679 38.6673 21.5679C37.9313 21.5679 37.334 22.1569 37.334 22.8826C37.334 23.6083 37.9313 24.1974 38.6673 24.1974C40.1379 24.1974 41.334 25.3767 41.334 26.827C41.334 27.5527 41.9313 28.1417 42.6673 28.1417C43.4032 28.1417 44.0005 27.5527 44.0005 26.827C44.0005 23.9265 46.3926 21.5679 49.3338 21.5679C50.0698 21.5679 50.6671 20.9789 50.6671 20.2532C50.6671 19.5275 50.0701 18.9385 49.334 18.9385Z" fill="#FFF23D"/>
</g>
<defs>
<clipPath id="clip0">
<rect width="80" height="78.8863" fill="white" transform="translate(0 0.53125)"/>
</clipPath>
</defs>
</svg>
