<svg width="80" height="80" viewBox="0 0 80 80" fill="none" xmlns="http://www.w3.org/2000/svg">
<path d="M17.3574 42.6637H22.4931C23.2166 42.655 23.8111 42.0875 23.8585 41.3613L25.1885 21.8193C25.2146 21.4294 25.083 21.0454 24.8238 20.755C24.568 20.4679 24.2066 20.2991 23.8238 20.287H21.0569V20.2473C21.0569 10.6014 28.8853 2.75408 38.4679 2.75408C48.0853 2.74601 55.8983 10.5671 55.9431 20.2473V20.287H53.1762C52.7941 20.2991 52.4327 20.4658 52.1755 20.7503C51.9183 21.0354 51.7867 21.4126 51.8115 21.7965L53.1408 41.3559C53.1882 42.0835 53.7821 42.6523 54.5069 42.6637H55.9431V43.2527C55.9478 43.7893 55.736 44.3043 55.3559 44.6802C54.9758 45.056 54.4601 45.2604 53.9277 45.2456H46.9016C46.1461 45.2456 45.5335 45.8622 45.5335 46.6227C45.5335 47.3838 46.1461 47.9997 46.9016 47.9997H53.9277C55.1856 48.0138 56.3967 47.519 57.2898 46.6267C58.1829 45.7345 58.6833 44.5195 58.6793 43.2527V42.6637H59.6432C62.6038 42.6509 64.998 40.2324 65 37.2518C65 37.1522 64.9967 37.0433 64.9913 36.9445C64.9913 36.9337 64.99 36.9183 64.9893 36.9075L64.1055 25.391C63.9405 22.5361 61.5992 20.3011 58.7574 20.287H58.6793V20.2473C58.6492 9.04619 49.6124 -0.0141034 38.484 1.64814e-05C27.3923 1.64814e-05 18.3214 9.08317 18.3214 20.2473V20.287H18.2432C15.4022 20.3004 13.0608 22.5341 12.8951 25.389L12.0107 36.89C12.0107 36.9008 12.0087 36.9176 12.0087 36.9277C12.0033 37.0272 12 37.1489 12 37.2484C12.0013 40.2297 14.3955 42.6496 17.3574 42.6637ZM61.3754 25.5578C61.3754 25.5678 61.3767 25.5907 61.3774 25.6001L62.2612 37.0917C62.2632 37.1361 62.2645 37.204 62.2645 37.2484C62.2645 38.7095 61.0941 39.8976 59.6426 39.9097H55.7835L54.6412 23.0411H58.7574C60.1529 23.0538 61.2992 24.1552 61.3747 25.5578H61.3754ZM14.7408 37.0978L15.6246 25.6129C15.6246 25.6035 15.626 25.5678 15.626 25.5584C15.7021 24.1559 16.8471 23.0545 18.2426 23.0411H22.3588L21.2165 39.9097H17.3574C15.9065 39.8989 14.7362 38.7122 14.7362 37.2518C14.7362 37.2074 14.7375 37.1428 14.7395 37.0978H14.7408Z" fill="#FFF23D"/>
<path d="M38.9997 44C46.1796 44 51.9993 37.9557 52 30.5003C52 23.0443 46.1796 17 39.0003 17C31.8204 17 26 23.0436 26 30.4997C26.008 37.9523 31.823 43.9917 38.9997 44ZM38.9997 19.8223C44.6787 19.8223 49.2822 24.6029 49.2822 30.5003C49.2822 36.3971 44.6781 41.1777 38.9997 41.1777C33.3206 41.1777 28.7171 36.3965 28.7178 30.4997C28.7244 24.6056 33.3239 19.8292 38.9997 19.8223Z" fill="#FFF23D"/>
<path d="M63 78.6098V57.9238C62.9885 51.3479 57.6036 46.018 50.9523 46C50.5116 46.004 50.0978 46.2142 49.8386 46.5673C47.4242 49.8242 43.5843 51.7483 39.5 51.7476C35.4164 51.7476 31.5764 49.8229 29.1627 46.566C28.9029 46.2136 28.4898 46.0033 28.049 46C21.3978 46.0174 16.0115 51.3472 16 57.9238V78.6098C16.004 79.372 16.6244 79.99 17.3945 80H61.6055C62.3756 79.99 62.9959 79.372 63 78.6098ZM60.2353 77.2663H18.7647V57.9238C18.7742 53.1151 22.5304 49.1268 27.3808 48.7757C30.3466 52.383 34.7974 54.4773 39.4993 54.4773C44.2005 54.4773 48.652 52.383 51.6179 48.7757C56.4689 49.1261 60.2258 53.1151 60.2353 57.9238V77.2663Z" fill="#FFF23D"/>
</svg>
