<svg width="40" height="29" viewBox="0 0 40 29" fill="none" xmlns="http://www.w3.org/2000/svg">
<path d="M20.728 27.272C22.3067 27.272 23.8213 26.2693 25.272 24.264C27.8747 20.5947 29.624 15.6453 30.52 9.416C29.1547 8.73333 28.2373 7.816 27.768 6.664C27.3413 5.512 27.128 4.616 27.128 3.976C27.128 1.75733 27.8533 0.648002 29.304 0.648002C31.096 0.648002 31.992 2.632 31.992 6.6C31.992 7.02667 31.992 7.47467 31.992 7.944C32.632 8.15733 33.4213 8.264 34.36 8.264C35.3413 8.264 36.216 7.85867 36.984 7.048C37.752 6.23733 38.136 5.49067 38.136 4.808C38.136 4.63733 38.2213 4.53067 38.392 4.488C38.6053 4.40267 38.8187 4.40267 39.032 4.488C39.2453 4.57333 39.352 4.70133 39.352 4.872C39.352 6.10933 38.8187 7.28267 37.752 8.392C36.728 9.50133 35.3413 10.056 33.592 10.056C32.952 10.056 32.376 9.992 31.864 9.864C31.096 16.6053 29.112 21.96 25.912 25.928C24.248 27.976 22.4773 29 20.6 29C17.6133 29 15.608 27.4213 14.584 24.264C12.0667 27.4213 9.656 29 7.352 29C4.10933 29 2.104 27.8907 1.336 25.672C0.909333 24.4773 0.696 23.1973 0.696 21.832C0.696 20.4667 0.845333 18.952 1.144 17.288C1.784 14.1307 3.02133 9.416 4.856 3.144C5.112 2.248 5.51733 1.8 6.072 1.8C6.84 1.8 7.39467 2.33333 7.736 3.4C7.90667 3.912 7.992 4.53067 7.992 5.256C7.992 5.93867 7.88533 6.664 7.672 7.432C7.45867 8.2 7.20267 9.13867 6.904 10.248C6.60533 11.3573 6.34933 12.296 6.136 13.064C5.92267 13.832 5.66667 14.7707 5.368 15.88C5.112 16.9893 4.89867 17.9493 4.728 18.76C4.6 19.5707 4.472 20.4453 4.344 21.384C4.25867 22.3227 4.25867 23.1333 4.344 23.816C4.42933 24.456 4.57867 25.0533 4.792 25.608C5.21867 26.7173 6.11467 27.272 7.48 27.272C9.528 27.272 11.7253 25.5867 14.072 22.216C13.9013 21.192 13.816 20.1467 13.816 19.08C13.816 16.2213 14.3493 13.1707 15.416 9.928C16.9093 5.49067 18.424 3.272 19.96 3.272C21.1973 3.272 21.816 4.232 21.816 6.152C21.816 6.92 21.7093 7.816 21.496 8.84C20.856 12.4667 19.448 16.2213 17.272 20.104C17.656 24.8827 18.808 27.272 20.728 27.272ZM17.208 16.84C18.104 15.0053 18.8507 13.192 19.448 11.4C20.0453 9.608 20.3653 8.41333 20.408 7.816C20.4933 7.176 20.536 6.64267 20.536 6.216C20.536 5.78933 20.3653 5.53333 20.024 5.448C19.2987 5.448 18.6587 6.64267 18.104 9.032C17.5493 11.3787 17.2507 13.9813 17.208 16.84Z" fill="white"/>
</svg>
