<svg width="19" height="19" viewBox="0 0 19 19" fill="none" xmlns="http://www.w3.org/2000/svg">
<g clip-path="url(#clip0)">
<path d="M16.0767 2.12201H3.8356C2.55574 2.12201 1.51443 3.16311 1.51443 4.44318V11.9345C1.51443 13.2117 2.55121 14.2511 3.82736 14.2557V17.6551L8.71279 14.2557H16.0767C17.3566 14.2557 18.3979 13.2144 18.3979 11.9345V4.44318C18.3979 3.16311 17.3566 2.12201 16.0767 2.12201ZM17.4086 11.9345C17.4086 12.6688 16.8112 13.2664 16.0767 13.2664H8.40241L4.81663 15.7616V13.2664H3.8356C3.10118 13.2664 2.5037 12.6688 2.5037 11.9345V4.44318C2.5037 3.70865 3.10118 3.11128 3.8356 3.11128H16.0767C16.8112 3.11128 17.4086 3.70865 17.4086 4.44318V11.9345Z" fill="black"/>
<path d="M6.03323 5.61752H13.8791V6.60679H6.03323V5.61752Z" fill="black"/>
<path d="M6.03323 7.72797H13.8791V8.71723H6.03323V7.72797Z" fill="black"/>
<path d="M6.03323 9.83841H13.8791V10.8277H6.03323V9.83841Z" fill="black"/>
</g>
<defs>
<clipPath id="clip0">
<rect width="18.009" height="18.009" fill="white" transform="translate(0.960449 0.908478)"/>
</clipPath>
</defs>
</svg>
