<svg width="15" height="15" viewBox="0 0 15 15" fill="none" xmlns="http://www.w3.org/2000/svg">
<g clip-path="url(#clip0)">
<path d="M12.4779 13.4724V14.7414C12.4779 14.8843 12.3621 15 12.2193 15H2.78075C2.63787 15 2.52216 14.8843 2.52216 14.7414V13.4724C2.52216 12.141 3.60144 11.0623 4.93318 11.062C5.40381 11.0617 5.8182 10.8196 6.05675 10.4524C6.2964 10.0841 6.2717 9.76383 6.2717 9.50498L6.27655 9.49302C5.11613 9.01269 4.29996 7.8694 4.29996 6.5354V6.43423C3.83918 6.43423 3.49187 6.0701 3.49187 5.641V4.29763C3.48152 3.82991 3.50286 2.18043 4.69431 1.03197C6.0797 -0.303323 8.27513 -0.194069 9.86545 0.520285C9.91717 0.543558 9.91555 0.617579 9.86319 0.639236L9.44848 0.809905C9.38641 0.835441 9.39967 0.926917 9.46625 0.934028L9.66763 0.955685C10.6318 1.0588 11.5275 1.58244 12.0829 2.45389C12.0977 2.47748 12.0935 2.51336 12.0745 2.53373C11.7318 2.89608 11.5405 3.37705 11.5405 3.8771V5.641C11.5405 6.07899 11.1852 6.43423 10.7472 6.43423H10.7V6.5354C10.7 7.8694 9.88387 9.01269 8.72345 9.49302L8.7283 9.50498C8.7283 9.75636 8.70157 10.081 8.94326 10.4524C9.1818 10.8196 9.59619 11.0617 10.0668 11.062C11.3986 11.0623 12.4779 12.141 12.4779 13.4724Z" fill="#FFDFBA"/>
<path d="M12.4779 13.4721V14.7412C12.4779 14.884 12.3621 14.9998 12.2193 14.9998H2.78075C2.63794 14.9998 2.52216 14.884 2.52216 14.7412V13.4721C2.52216 12.1407 3.60161 11.0623 4.93302 11.0618C5.40378 11.0616 5.81827 10.8192 6.05675 10.4521C6.88921 11.1633 8.11031 11.1638 8.94326 10.4521C9.18171 10.8192 9.59623 11.0616 10.067 11.0618C11.3984 11.0623 12.4779 12.1407 12.4779 13.4721Z" fill="#FE4F60"/>
<path d="M12.0827 2.45403C12.0977 2.47759 12.0935 2.51328 12.0743 2.53358C11.7318 2.89619 11.5405 3.377 11.5405 3.87708V5.64098C11.5405 6.04141 11.2388 6.43421 10.7 6.43421V4.43757C10.7 3.58067 10.0054 2.88604 9.1485 2.88604H5.85149C4.99458 2.88604 4.29995 3.58067 4.29995 4.43757V6.43421C3.83917 6.43421 3.49186 6.07008 3.49186 5.64098V4.29761C3.48151 3.82989 3.50285 2.18041 4.6943 1.03195C6.07959 -0.303374 8.27524 -0.194055 9.86531 0.520363C9.91703 0.543604 9.91567 0.617657 9.86321 0.63925L9.44847 0.809983C9.38647 0.835519 9.39953 0.926898 9.46618 0.934042L9.66762 0.955666C10.632 1.05868 11.5275 1.58233 12.0827 2.45403Z" fill="#42434D"/>
<path d="M10.7 6.53509C10.7 8.30306 9.26653 9.73513 7.49997 9.73513C5.83556 9.73513 4.29993 8.44118 4.29993 6.43391V4.43728C4.29993 3.58038 4.99456 2.88574 5.85146 2.88574H9.14848C10.0054 2.88574 10.7 3.58038 10.7 4.43728V6.53509Z" fill="#FFEBD2"/>
<path d="M10.1182 14.4508H9.34245C9.19965 14.4508 9.08386 14.335 9.08386 14.1922C9.08386 14.0494 9.19965 13.9336 9.34245 13.9336H10.1182C10.261 13.9336 10.3768 14.0494 10.3768 14.1922C10.3768 14.335 10.2611 14.4508 10.1182 14.4508Z" fill="white"/>
<path d="M6.77541 8.60236C7.30154 8.93151 6.88667 9.73873 6.31072 9.50755C5.12657 9.03226 4.29993 7.8783 4.29993 6.53597V4.43816C4.29993 4.11221 4.40045 3.80972 4.57216 3.55999C4.78271 3.25379 5.26964 3.38906 5.26964 3.79169V5.88949C5.26964 7.06963 5.89 8.04839 6.77541 8.60236Z" fill="#FFF3E4"/>
<path d="M8.76482 10.0359C7.96846 10.3692 7.0933 10.3951 6.23517 10.0359C6.279 9.85403 6.27169 9.73624 6.27169 9.50512L6.27654 9.49316C7.05496 9.81627 7.94351 9.81692 8.72345 9.49316L8.7283 9.50512C8.7283 9.73634 8.72099 9.85409 8.76482 10.0359Z" fill="#FFD6A6"/>
<path d="M6.23556 11.8426C6.11603 11.8802 5.98784 11.9009 5.8504 11.9021C4.51556 11.9139 3.42722 12.9694 3.42722 14.3043V14.5472C3.42722 14.7972 3.22461 14.9998 2.97469 14.9998H2.78075C2.63794 14.9998 2.52216 14.884 2.52216 14.7412V13.4721C2.52216 12.1407 3.60161 11.0623 4.93302 11.0618C5.40378 11.0616 5.81827 10.8192 6.05675 10.4521C6.15288 10.5343 6.2558 10.608 6.36421 10.6727C6.84108 10.9568 6.76509 11.6761 6.23556 11.8426Z" fill="#FF6D7A"/>
<path d="M8.76445 11.8426C8.88398 11.8802 9.01218 11.9009 9.14962 11.9021C10.4845 11.9139 11.5728 12.9694 11.5728 14.3043V14.5472C11.5728 14.7972 11.7754 14.9998 12.0253 14.9998H12.2193C12.3621 14.9998 12.4779 14.884 12.4779 14.7412V13.4721C12.4779 12.1407 11.3984 11.0623 10.067 11.0618C9.59623 11.0616 9.18175 10.8192 8.94326 10.4521C8.84713 10.5343 8.74421 10.608 8.6358 10.6727C8.15896 10.9568 8.23492 11.6761 8.76445 11.8426Z" fill="#E84857"/>
<path d="M9.86318 0.639236C9.48312 0.79565 9.42894 0.83014 9.29725 0.809711C7.17443 0.480656 5.31194 1.35899 4.67943 3.42101V3.42134C4.44282 3.6935 4.29995 4.04906 4.29995 4.43759V5.65047C4.29995 6.17373 3.49186 6.21016 3.49186 5.641V4.29763C3.48151 3.82991 3.50285 2.18043 4.6943 1.03197C6.07969 -0.303323 8.27512 -0.194069 9.86544 0.520285C9.91716 0.543558 9.91554 0.617579 9.86318 0.639236Z" fill="#4D4E59"/>
</g>
<defs>
<clipPath id="clip0">
<rect width="15" height="15" fill="white"/>
</clipPath>
</defs>
</svg>
