<svg width="14" height="18" viewBox="0 0 14 18" fill="none" xmlns="http://www.w3.org/2000/svg">
<path d="M13.1875 12.375C12.5672 12.375 12.0625 11.8703 12.0625 11.25V7.3125C12.0625 5.95695 11.5336 4.68341 10.5734 3.72649C9.98139 3.13657 9.26955 2.71125 8.49298 2.47275C8.61694 2.23805 8.6875 1.97093 8.6875 1.6875C8.6875 0.75702 7.93048 0 7 0C6.06952 0 5.3125 0.75702 5.3125 1.6875C5.3125 1.97255 5.3838 2.24118 5.50913 2.47686C3.44388 3.12195 1.9375 5.06988 1.9375 7.36137V11.25C1.9375 11.8703 1.43283 12.375 0.8125 12.375C0.501859 12.375 0.25 12.6269 0.25 12.9375V15.1875C0.25 15.4981 0.501859 15.75 0.8125 15.75H5.05146C5.03832 15.8424 5.03125 15.9363 5.03125 16.0312C5.03125 17.1168 5.91445 18 7 18C8.08555 18 8.96875 17.1168 8.96875 16.0312C8.96875 15.9363 8.96172 15.8424 8.94853 15.75H13.1875C13.4981 15.75 13.75 15.4981 13.75 15.1875V12.9375C13.75 12.6269 13.4981 12.375 13.1875 12.375ZM7 1.125C7.31015 1.125 7.5625 1.37735 7.5625 1.6875C7.5625 1.99765 7.31015 2.25 7 2.25C6.68985 2.25 6.4375 1.99765 6.4375 1.6875C6.4375 1.37735 6.68985 1.125 7 1.125ZM7.84375 16.0312C7.84375 16.4965 7.46526 16.875 7 16.875C6.53474 16.875 6.15625 16.4965 6.15625 16.0312C6.15625 15.934 6.17249 15.8394 6.2041 15.75H7.79587C7.82751 15.8394 7.84375 15.934 7.84375 16.0312ZM12.625 14.625H8.125H5.875H1.375V13.4288C2.34436 13.1784 3.0625 12.2965 3.0625 11.25V7.36137C3.0625 5.17089 4.82249 3.38263 6.98583 3.37504C6.99061 3.37504 6.99532 3.375 7.00007 3.375C8.04927 3.375 9.03579 3.7825 9.77928 4.52338C10.5262 5.26764 10.9375 6.2582 10.9375 7.3125V11.25C10.9375 12.2965 11.6556 13.1784 12.625 13.4288V14.625Z" fill="white"/>
<path d="M4.75 7.875C4.43936 7.875 4.1875 7.62314 4.1875 7.3125C4.1875 5.76169 5.44919 4.5 7 4.5C7.31064 4.5 7.5625 4.75186 7.5625 5.0625C7.5625 5.37314 7.31064 5.625 7 5.625C6.06952 5.625 5.3125 6.38202 5.3125 7.3125C5.3125 7.62314 5.06064 7.875 4.75 7.875Z" fill="white"/>
</svg>
