<svg width="19" height="19" viewBox="0 0 19 19" fill="none" xmlns="http://www.w3.org/2000/svg">
<g clip-path="url(#clip0)">
<path d="M15.6689 2.85316C13.9681 1.15247 11.7069 0.21582 9.3017 0.21582C6.89651 0.21582 4.63528 1.15247 2.93452 2.85316C1.23383 4.55392 0.29718 6.81515 0.29718 9.22034C0.29718 11.6255 1.23383 13.8868 2.93452 15.5875C4.63528 17.2882 6.89651 18.2249 9.3017 18.2249C11.7069 18.2249 13.9681 17.2882 15.6689 15.5875C17.3696 13.8868 18.3062 11.6255 18.3062 9.22034C18.3062 6.81515 17.3696 4.55392 15.6689 2.85316ZM9.3017 16.8179C5.11238 16.8179 1.70414 13.4097 1.70414 9.22034C1.70414 5.03102 5.11238 1.62278 9.3017 1.62278C13.491 1.62278 16.8993 5.03102 16.8993 9.22034C16.8993 13.4097 13.491 16.8179 9.3017 16.8179Z" fill="black"/>
<path d="M6.20638 7.67691C6.82801 7.67691 7.33194 7.17298 7.33194 6.55135C7.33194 5.92971 6.82801 5.42578 6.20638 5.42578C5.58474 5.42578 5.08081 5.92971 5.08081 6.55135C5.08081 7.17298 5.58474 7.67691 6.20638 7.67691Z" fill="black"/>
<path d="M12.397 7.67691C13.0186 7.67691 13.5226 7.17298 13.5226 6.55135C13.5226 5.92971 13.0186 5.42578 12.397 5.42578C11.7754 5.42578 11.2714 5.92971 11.2714 6.55135C11.2714 7.17298 11.7754 7.67691 12.397 7.67691Z" fill="black"/>
<path d="M13.7296 13.5194C13.727 13.5119 13.4729 12.7588 12.8495 12.0283C12.0562 11.0987 11.0435 10.6273 9.83959 10.6273C8.62697 10.6273 7.5816 11.1043 6.73257 12.0449C6.06708 12.7822 5.77331 13.5412 5.77127 13.5465L4.45312 13.0544C4.4679 13.015 4.82361 12.0769 5.6495 11.1454C6.76616 9.88603 8.21508 9.22033 9.83959 9.22033C11.4721 9.22033 12.8963 9.89131 13.9584 11.1607C14.7434 12.099 15.0546 13.0443 15.0675 13.0841L13.7296 13.5194Z" fill="black"/>
</g>
<defs>
<clipPath id="clip0">
<rect width="18.009" height="18.009" fill="white" transform="translate(0.29718 0.21582)"/>
</clipPath>
</defs>
</svg>
