<svg width="27" height="27" viewBox="0 0 27 27" fill="none" xmlns="http://www.w3.org/2000/svg">
<g clip-path="url(#clip0)">
<path d="M22.4612 24.25V26.5345C22.4612 26.7917 22.2528 27 21.9956 27H5.00427C4.74708 27 4.53876 26.7917 4.53876 26.5345V24.25C4.53876 22.8236 5.23249 21.5505 6.28445 20.7708V5.78987C6.28445 2.59235 8.87679 0 12.0743 0H14.9838C18.1813 0 20.7737 2.59235 20.7737 5.78987V20.8156C21.7518 21.545 22.4612 22.8214 22.4612 24.25Z" fill="#FFD6A6"/>
<path d="M22.4612 24.25V26.5345C22.4612 26.7917 22.2528 27 21.9956 27H5.00427C4.74708 27 4.53876 26.7917 4.53876 26.5345V24.25C4.53876 21.8453 6.48898 19.9108 8.87796 19.9108C9.22826 19.9108 9.56111 19.8363 9.86136 19.7019C9.86136 19.7077 9.81778 19.6687 13.5 22.5194C17.1505 19.6931 17.1386 19.7078 17.1386 19.7019C17.4388 19.8363 17.7717 19.9108 18.122 19.9108C20.5267 19.9108 22.4612 21.862 22.4612 24.25Z" fill="#42434D"/>
<path d="M19.2608 11.7619V8.80875C19.2608 8.65897 19.1641 8.52781 19.0225 8.4791C17.9694 8.11717 17.0684 7.38142 16.5073 6.38835C16.3782 6.15978 16.0557 6.15088 15.912 6.37054C15.3176 7.27865 14.5131 8.00207 13.5691 8.50634C13.3335 8.6322 13.0529 8.46142 13.0553 8.19427C13.0569 7.99997 13.0353 7.80603 12.9907 7.61656C12.9243 7.3351 12.5686 7.25229 12.3828 7.47388C11.3547 8.70011 9.77057 9.32146 8.14167 9.0596C7.93032 9.02562 7.73923 9.19024 7.73923 9.40432V11.7619C7.73923 14.1634 9.20851 16.2215 11.2975 17.0862L11.2888 17.1078V17.5052C11.2888 18.8412 10.203 19.9108 8.878 19.9108C7.90565 19.9108 7.00836 20.2308 6.28448 20.7708V5.78987C6.28448 2.59223 8.87672 0 12.0744 0H14.9838C18.1815 0 20.7737 2.59223 20.7737 5.78987V20.8156C20.0405 20.2483 19.1205 19.9108 18.122 19.9108C16.7963 19.9108 15.7112 18.8405 15.7112 17.5052V17.1078L15.7025 17.0862C17.7915 16.2215 19.2608 14.1634 19.2608 11.7619Z" fill="#775D5C"/>
<path d="M19.0225 8.4791C19.1642 8.52781 19.2608 8.65897 19.2608 8.80875V11.7619C19.2608 14.1634 17.7915 16.2215 15.7025 17.0862C11.925 18.6543 7.73926 15.8687 7.73926 11.7619V9.40426C7.73926 9.19018 7.93041 9.02562 8.14181 9.05954C9.76472 9.32023 11.3509 8.70499 12.3827 7.47411C12.5685 7.2524 12.9245 7.33532 12.9908 7.6169C13.0354 7.8062 13.057 8.00003 13.0553 8.19426C13.053 8.46141 13.3336 8.6322 13.5692 8.50633C14.5133 8.002 15.3178 7.27853 15.9121 6.37054C16.0558 6.15087 16.3783 6.15984 16.5074 6.38835C17.0686 7.3817 17.9697 8.11728 19.0225 8.4791Z" fill="#FFDFBA"/>
<path d="M13.5 22.5194C13.5885 22.5613 13.8108 22.6643 14.1314 22.7766L15.2457 27H11.7543L12.8687 22.7766C13.1893 22.6643 13.4116 22.5613 13.5 22.5194Z" fill="#FE4F60"/>
<path d="M15.777 18.0632C14.3433 18.6633 12.7678 18.7099 11.223 18.0632C11.3019 17.7359 11.2888 17.5238 11.2888 17.1078L11.2975 17.0862C12.6988 17.6679 14.2984 17.6691 15.7025 17.0862L15.7112 17.1078C15.7112 17.524 15.698 17.736 15.777 18.0632Z" fill="#F7C388"/>
<path d="M17.1644 0.42461C17.8736 0.713172 17.6386 1.76606 16.8731 1.74744C16.7557 1.74458 13.7616 1.74569 13.82 1.74569C10.6224 1.74569 8.03017 4.33792 8.03017 7.53556V9.06013C7.86724 9.0869 7.73923 9.22888 7.73923 9.40403C7.73923 11.8864 7.66707 12.4774 8.03017 13.5745V19.9934C7.38543 20.1214 6.79248 20.392 6.28448 20.7708V5.78987C6.28448 2.59223 8.87672 0 12.0744 0H14.9838C15.7553 0 16.4914 0.150828 17.1644 0.42461Z" fill="#4D4E59"/>
<path d="M12.1964 15.4825C13.1432 16.0745 12.396 17.5275 11.3596 17.1116C9.22822 16.2561 7.73926 14.1792 7.73926 11.7619V9.40403C7.73926 9.18989 7.93012 9.02579 8.14193 9.05954C8.30108 9.08503 8.45976 9.10214 8.61763 9.1111C9.10445 9.1388 9.48501 9.54118 9.48501 10.0288V10.5981C9.48495 12.7219 10.6015 14.485 12.1964 15.4825Z" fill="#FFEBD2"/>
<path d="M11.447 20.9302C11.1904 21.0239 10.9129 21.0746 10.6236 21.0746C8.23357 21.0746 6.28445 23.0109 6.28445 25.4138V27H5.00427C4.74708 27 4.53876 26.7917 4.53876 26.5345V24.25C4.53876 21.8512 6.48497 19.9108 8.87796 19.9108C9.22826 19.9108 9.56111 19.8363 9.86136 19.7019C9.86136 19.7077 9.84751 19.6917 11.447 20.9302Z" fill="#4D4E59"/>
<path d="M13.5 22.5194C11.0706 23.6702 7.95388 23.4618 6.13202 20.8901C6.9401 20.2324 7.90448 19.9108 8.87799 19.9108C9.22829 19.9108 9.56114 19.8363 9.86139 19.7019C9.86139 19.7077 9.81781 19.6687 13.5 22.5194Z" fill="#D6F4FC"/>
<path d="M10.2372 19.9934C10.6769 20.3339 10.5029 21.0424 9.95345 21.1279C9.03045 21.2714 8.21288 21.697 7.5874 22.3146C6.8932 21.8543 6.42536 21.3044 6.13208 20.8901C6.93638 20.2352 7.90011 19.9108 8.87805 19.9108C9.22835 19.9108 9.5612 19.8363 9.86145 19.7019V19.7024L10.2372 19.9934Z" fill="#E8F8FC"/>
<path d="M15.5529 20.9302C15.8095 21.0239 16.0871 21.0746 16.3763 21.0746C18.7664 21.0746 20.7155 23.0109 20.7155 25.4138V27H21.9957C22.2529 27 22.4612 26.7917 22.4612 26.5345V24.25C22.4612 21.8512 20.515 19.9108 18.122 19.9108C17.7717 19.9108 17.4388 19.8363 17.1386 19.7019C17.1386 19.7077 17.1524 19.6917 15.5529 20.9302Z" fill="#2C2C33"/>
<path d="M20.868 20.8901C19.0554 23.4487 15.9469 23.6785 13.5 22.5194C17.1506 19.6931 17.1386 19.7078 17.1386 19.7019C17.4389 19.8363 17.7717 19.9108 18.122 19.9108C19.1772 19.9108 20.1503 20.2943 20.868 20.8901Z" fill="#D6F4FC"/>
<path d="M16.7628 19.9934C16.3232 20.3339 16.4972 21.0424 17.0466 21.1279C17.9696 21.2714 18.7872 21.697 19.4126 22.3146C20.1068 21.8543 20.5747 21.3044 20.868 20.8901C20.0637 20.2352 19.0999 19.9108 18.122 19.9108C17.7717 19.9108 17.4388 19.8363 17.1386 19.7019V19.7024L16.7628 19.9934Z" fill="#BDEFFC"/>
<path d="M13.5 22.5194L12.9181 27H11.7543L12.8687 22.7766C13.1893 22.6643 13.4116 22.5613 13.5 22.5194Z" fill="#FF6D7A"/>
</g>
<defs>
<clipPath id="clip0">
<rect width="27" height="27" fill="white"/>
</clipPath>
</defs>
</svg>
