<svg width="128" height="128" viewBox="0 0 128 128" fill="none" xmlns="http://www.w3.org/2000/svg">
<circle cx="64" cy="64" r="57" fill="#282828"/>
<circle cx="64" cy="64" r="60.5" stroke="#1F1F1F" stroke-opacity="0.5" stroke-width="7"/>
<g clip-path="url(#clip0)">
<path d="M43.9506 40.0208H42.0765V41.8948H43.9506V40.0208Z" fill="#FFC700"/>
<path d="M47.6987 40.0208H45.8246V41.8948H47.6987V40.0208Z" fill="#FFC700"/>
<path d="M51.4468 40.0208H49.5728V41.8948H51.4468V40.0208Z" fill="#FFC700"/>
<path d="M83.306 48.4541H81.4319C81.4319 50.004 80.1706 51.2652 78.6208 51.2652V53.1393C80.1706 53.1393 81.4319 54.4005 81.4319 55.9504H83.306C83.306 54.4005 84.5672 53.1393 86.1171 53.1393V51.2652C84.5672 51.2652 83.306 50.004 83.306 48.4541ZM82.3689 53.1683C82.0953 52.8001 81.7711 52.4758 81.4028 52.2022C81.7711 51.9286 82.0953 51.6044 82.3689 51.2362C82.6425 51.6044 82.9667 51.9286 83.335 52.2022C82.9667 52.4758 82.6425 52.8001 82.3689 53.1683Z" fill="#FFC700"/>
<path d="M88.9282 38.1467H87.0541C87.0541 39.6966 85.7929 40.9578 84.243 40.9578V42.8319C85.7929 42.8319 87.0541 44.0931 87.0541 45.643H88.9282C88.9282 44.0931 90.1894 42.8319 91.7393 42.8319V40.9578C90.1894 40.9578 88.9282 39.6966 88.9282 38.1467ZM87.9911 42.8609C87.7175 42.4927 87.3933 42.1685 87.0251 41.8949C87.3933 41.6212 87.7175 41.297 87.9911 40.9288C88.2648 41.297 88.589 41.6212 88.9572 41.8949C88.589 42.1685 88.2648 42.4927 87.9911 42.8609Z" fill="#FFC700"/>
<path d="M70.5801 89.0313C61.1648 88.2348 50.4001 84.705 41.7841 79.586L39.2288 78.069C39.6093 77.1788 39.8295 76.2483 40.0441 75.3422C40.1078 75.0705 40.1724 74.7997 40.2399 74.5317C40.4376 73.7567 40.6569 72.4936 40.9108 71.0328C41.2763 68.9291 41.7307 66.3111 42.1411 65.2588L47.754 50.8734C47.8767 50.5595 47.9882 50.2213 48.1025 49.8755C48.4061 48.9516 48.721 47.9949 49.3094 47.4776C49.6412 47.1853 50.0731 46.9679 50.4901 46.7758C50.5388 46.7542 50.5847 46.728 50.6269 46.698L61.7336 38.1926C62.2902 37.7643 63.0623 37.77 63.6114 38.2113L69.1811 42.6669C69.5334 42.9489 69.7415 43.3697 69.7508 43.8213C69.7602 44.273 69.5719 44.7021 69.2317 45.0001L65.6785 48.1083C65.075 48.6358 64.1642 48.603 63.5992 48.0399C63.275 47.7156 63.1157 47.2696 63.1607 46.8133C63.2066 46.3579 63.4512 45.9503 63.8325 45.6963L64.1474 45.4855L63.1063 43.9281L62.7924 44.138C61.9425 44.704 61.3972 45.612 61.296 46.6287C61.1948 47.6454 61.5518 48.6424 62.2742 49.3648C63.5345 50.6261 65.5726 50.6935 66.9116 49.5194L69.8998 46.9051L70.819 48.2844L65.2053 53.097L58.4989 52.2584C58.6011 51.7786 58.7182 51.3017 58.855 50.8294L57.0559 50.3075C56.4271 52.4711 56.1367 54.7097 56.1882 56.9632C56.2163 58.1729 56.3456 59.378 56.4712 60.5436C56.6174 61.9136 56.756 63.2076 56.7476 64.5185C56.7223 68.4438 55.2015 72.1085 52.68 74.319L53.915 75.7283C55.7 74.1634 57.0222 72.0523 57.8055 69.6375C58.0885 69.5429 58.4483 69.5495 58.8016 69.5794C60.0319 69.6891 61.2266 70.0264 62.3483 70.5315C61.891 71.2661 61.5181 72.0504 61.2407 72.8769L63.0173 73.4737C63.2591 72.7532 63.5908 72.071 63.9984 71.4329C64.0209 71.4479 64.0452 71.4591 64.0668 71.4741L64.9654 70.1632C66.7308 68.1861 69.332 66.8077 72.3577 66.3551C76.8882 65.6758 81.1002 67.2294 83.3687 70.4003L84.8933 69.3096C83.9525 67.9949 82.7325 66.9201 81.3251 66.1049C84.0397 63.8457 87.9686 63.0324 91.3185 64.1962L91.9332 62.4261C87.7091 60.955 82.7091 62.145 79.4979 65.2316C77.2677 64.3817 74.7134 64.1062 72.0812 64.5017C68.5777 65.0245 65.5585 66.6493 63.5036 68.9872C62.085 68.2929 60.5454 67.8553 58.9656 67.7138C58.7585 67.6951 58.5364 67.6866 58.3096 67.6885C58.5046 66.6699 58.6142 65.6148 58.6207 64.5316C58.6301 63.113 58.4793 61.7055 58.3331 60.344C58.2122 59.2168 58.0876 58.0511 58.0613 56.9192C58.0388 55.9784 58.0913 55.0404 58.2 54.11L65.3833 55.0076C65.4245 55.0104 65.4639 55.0133 65.5023 55.0133C65.7244 55.0133 65.9418 54.9336 66.1114 54.7874L72.6706 49.1652C73.0314 48.8569 73.1035 48.3285 72.8412 47.9349L71.1976 45.4686C71.4778 44.9551 71.639 44.3807 71.6258 43.7792C71.6043 42.7709 71.1386 41.8311 70.3524 41.2014L64.7836 36.7458C63.558 35.7657 61.8338 35.7507 60.5913 36.7064L49.9813 44.8699L49.6346 45.1069C49.1333 45.3403 48.5636 45.6382 48.0735 46.0693C47.1027 46.9229 46.6876 48.1795 46.3231 49.2889C46.221 49.6009 46.1198 49.9074 46.0092 50.1922L40.3964 64.5776C39.9176 65.8051 39.4837 68.3004 39.0649 70.7123C38.8278 72.0757 38.6048 73.3641 38.4249 74.0697C38.3536 74.348 38.2871 74.6291 38.2206 74.9102C37.9582 76.0215 37.7099 77.0701 37.1927 77.9621C36.9359 78.4063 37.084 78.9751 37.5244 79.2365L40.8255 81.1977C49.6739 86.4535 60.7375 90.0799 70.4217 90.8988C71.1723 90.9625 72.1178 91 73.1972 91C78.5842 91 87.2743 90.0574 91.3972 86.6587L90.2063 85.2129C85.9484 88.723 75.3215 89.4305 70.5801 89.0313Z" fill="#FFC700"/>
</g>
<defs>
<clipPath id="clip0">
<rect x="37" y="36" width="55" height="55" fill="white"/>
</clipPath>
</defs>
</svg>
