<svg width="175" height="34" viewBox="0 0 175 34" fill="none" xmlns="http://www.w3.org/2000/svg">
<path d="M6.456 23.144C6.984 23.144 7.416 23.104 7.752 23.024C8.104 22.928 8.384 22.808 8.592 22.664C8.8 22.504 8.944 22.32 9.024 22.112C9.104 21.904 9.144 21.672 9.144 21.416C9.144 20.872 8.888 20.424 8.376 20.072C7.864 19.704 6.984 19.312 5.736 18.896C5.192 18.704 4.648 18.488 4.104 18.248C3.56 17.992 3.072 17.68 2.64 17.312C2.208 16.928 1.856 16.472 1.584 15.944C1.312 15.4 1.176 14.744 1.176 13.976C1.176 13.208 1.32 12.52 1.608 11.912C1.896 11.288 2.304 10.76 2.832 10.328C3.36 9.896 4 9.568 4.752 9.344C5.504 9.104 6.352 8.984 7.296 8.984C8.416 8.984 9.384 9.104 10.2 9.344C11.016 9.584 11.688 9.848 12.216 10.136L11.136 13.088C10.672 12.848 10.152 12.64 9.576 12.464C9.016 12.272 8.336 12.176 7.536 12.176C6.64 12.176 5.992 12.304 5.592 12.56C5.208 12.8 5.016 13.176 5.016 13.688C5.016 13.992 5.088 14.248 5.232 14.456C5.376 14.664 5.576 14.856 5.832 15.032C6.104 15.192 6.408 15.344 6.744 15.488C7.096 15.616 7.48 15.752 7.896 15.896C8.76 16.216 9.512 16.536 10.152 16.856C10.792 17.16 11.32 17.52 11.736 17.936C12.168 18.352 12.488 18.84 12.696 19.4C12.904 19.96 13.008 20.64 13.008 21.44C13.008 22.992 12.464 24.2 11.376 25.064C10.288 25.912 8.648 26.336 6.456 26.336C5.72 26.336 5.056 26.288 4.464 26.192C3.872 26.112 3.344 26.008 2.88 25.88C2.432 25.752 2.04 25.616 1.704 25.472C1.384 25.328 1.112 25.192 0.888 25.064L1.944 22.088C2.44 22.36 3.048 22.608 3.768 22.832C4.504 23.04 5.4 23.144 6.456 23.144ZM15.8888 26V9.368H27.1208V12.512H19.6328V15.776H26.2808V18.848H19.6328V22.856H27.6728V26H15.8888ZM35.3154 9.176C37.8114 9.176 39.7234 9.624 41.0514 10.52C42.3794 11.4 43.0434 12.776 43.0434 14.648C43.0434 15.816 42.7714 16.768 42.2274 17.504C41.6994 18.224 40.9314 18.792 39.9234 19.208C40.2594 19.624 40.6114 20.104 40.9794 20.648C41.3474 21.176 41.7074 21.736 42.0594 22.328C42.4274 22.904 42.7794 23.512 43.1154 24.152C43.4514 24.776 43.7634 25.392 44.0514 26H39.8514C39.5474 25.456 39.2354 24.904 38.9154 24.344C38.6114 23.784 38.2914 23.24 37.9554 22.712C37.6354 22.184 37.3154 21.688 36.9954 21.224C36.6754 20.744 36.3554 20.312 36.0354 19.928H34.1874V26H30.4434V9.608C31.2594 9.448 32.0994 9.336 32.9634 9.272C33.8434 9.208 34.6274 9.176 35.3154 9.176ZM35.5314 12.368C35.2594 12.368 35.0114 12.376 34.7874 12.392C34.5794 12.408 34.3794 12.424 34.1874 12.44V16.952H35.2434C36.6514 16.952 37.6594 16.776 38.2674 16.424C38.8754 16.072 39.1794 15.472 39.1794 14.624C39.1794 13.808 38.8674 13.232 38.2434 12.896C37.6354 12.544 36.7314 12.368 35.5314 12.368ZM46.4513 26V9.368H57.6833V12.512H50.1953V15.776H56.8433V18.848H50.1953V22.856H58.2353V26H46.4513ZM66.5499 26.216C65.6379 26.216 64.7259 26.184 63.8139 26.12C62.9179 26.072 61.9819 25.944 61.0059 25.736V9.608C61.7739 9.464 62.6139 9.36 63.5259 9.296C64.4379 9.216 65.2859 9.176 66.0699 9.176C67.1259 9.176 68.0939 9.256 68.9739 9.416C69.8699 9.56 70.6379 9.816 71.2779 10.184C71.9179 10.552 72.4139 11.04 72.7659 11.648C73.1339 12.24 73.3179 12.976 73.3179 13.856C73.3179 15.184 72.6779 16.232 71.3979 17C72.4539 17.4 73.1739 17.944 73.5579 18.632C73.9419 19.32 74.1339 20.096 74.1339 20.96C74.1339 22.704 73.4939 24.016 72.2139 24.896C70.9499 25.776 69.0619 26.216 66.5499 26.216ZM64.6539 18.752V23.048C64.9259 23.08 65.2219 23.104 65.5419 23.12C65.8619 23.136 66.2139 23.144 66.5979 23.144C67.7179 23.144 68.6219 22.984 69.3099 22.664C69.9979 22.344 70.3419 21.752 70.3419 20.888C70.3419 20.12 70.0539 19.576 69.4779 19.256C68.9019 18.92 68.0779 18.752 67.0059 18.752H64.6539ZM64.6539 15.896H66.4779C67.6299 15.896 68.4539 15.752 68.9499 15.464C69.4459 15.16 69.6939 14.68 69.6939 14.024C69.6939 13.352 69.4379 12.88 68.9259 12.608C68.4139 12.336 67.6619 12.2 66.6699 12.2C66.3499 12.2 66.0059 12.208 65.6379 12.224C65.2699 12.224 64.9419 12.24 64.6539 12.272V15.896ZM82.0029 9.176C84.4989 9.176 86.4109 9.624 87.7389 10.52C89.0669 11.4 89.7309 12.776 89.7309 14.648C89.7309 15.816 89.4589 16.768 88.9149 17.504C88.3869 18.224 87.6189 18.792 86.6109 19.208C86.9469 19.624 87.2989 20.104 87.6669 20.648C88.0349 21.176 88.3949 21.736 88.7469 22.328C89.1149 22.904 89.4669 23.512 89.8029 24.152C90.1389 24.776 90.4509 25.392 90.7389 26H86.5389C86.2349 25.456 85.9229 24.904 85.6029 24.344C85.2989 23.784 84.9789 23.24 84.6429 22.712C84.3229 22.184 84.0029 21.688 83.6829 21.224C83.3629 20.744 83.0429 20.312 82.7229 19.928H80.8749V26H77.1309V9.608C77.9469 9.448 78.7869 9.336 79.6509 9.272C80.5309 9.208 81.3149 9.176 82.0029 9.176ZM82.2189 12.368C81.9469 12.368 81.6989 12.376 81.4749 12.392C81.2669 12.408 81.0669 12.424 80.8749 12.44V16.952H81.9309C83.3389 16.952 84.3469 16.776 84.9549 16.424C85.5629 16.072 85.8669 15.472 85.8669 14.624C85.8669 13.808 85.5549 13.232 84.9309 12.896C84.3229 12.544 83.4189 12.368 82.2189 12.368ZM98.4379 16.208C99.1099 15.072 99.7499 13.936 100.358 12.8C100.966 11.664 101.526 10.52 102.038 9.368H106.166C105.254 11.16 104.31 12.896 103.334 14.576C102.358 16.256 101.326 17.944 100.238 19.64V26H96.4939V19.688C95.4059 17.992 94.3659 16.296 93.3739 14.6C92.3979 12.904 91.4539 11.16 90.5419 9.368H94.8859C95.3979 10.52 95.9499 11.664 96.5419 12.8C97.1339 13.936 97.7659 15.072 98.4379 16.208ZM116.954 26C116.778 25.424 116.578 24.832 116.354 24.224C116.146 23.616 115.938 23.008 115.73 22.4H109.25C109.042 23.008 108.826 23.616 108.602 24.224C108.394 24.832 108.202 25.424 108.026 26H104.138C104.762 24.208 105.354 22.552 105.914 21.032C106.474 19.512 107.018 18.08 107.546 16.736C108.09 15.392 108.618 14.12 109.13 12.92C109.658 11.704 110.202 10.52 110.762 9.368H114.338C114.882 10.52 115.418 11.704 115.946 12.92C116.474 14.12 117.002 15.392 117.53 16.736C118.074 18.08 118.626 19.512 119.186 21.032C119.746 22.552 120.338 24.208 120.962 26H116.954ZM112.466 13.136C112.386 13.376 112.266 13.704 112.106 14.12C111.946 14.536 111.762 15.016 111.554 15.56C111.346 16.104 111.114 16.704 110.858 17.36C110.618 18.016 110.37 18.704 110.114 19.424H114.842C114.586 18.704 114.338 18.016 114.098 17.36C113.858 16.704 113.626 16.104 113.402 15.56C113.194 15.016 113.01 14.536 112.85 14.12C112.69 13.704 112.562 13.376 112.466 13.136ZM132.931 26C132.595 25.456 132.195 24.872 131.731 24.248C131.283 23.608 130.787 22.976 130.243 22.352C129.715 21.712 129.163 21.104 128.587 20.528C128.011 19.936 127.435 19.416 126.859 18.968V26H123.115V9.368H126.859V15.656C127.835 14.632 128.811 13.568 129.787 12.464C130.779 11.344 131.699 10.312 132.547 9.368H136.987C135.851 10.712 134.707 12.008 133.555 13.256C132.419 14.504 131.219 15.76 129.955 17.024C131.283 18.128 132.563 19.44 133.795 20.96C135.043 22.48 136.235 24.16 137.371 26H132.931ZM141.353 17.672C141.353 18.488 141.449 19.224 141.641 19.88C141.849 20.536 142.137 21.104 142.505 21.584C142.889 22.048 143.353 22.408 143.897 22.664C144.441 22.92 145.065 23.048 145.769 23.048C146.457 23.048 147.073 22.92 147.617 22.664C148.177 22.408 148.641 22.048 149.009 21.584C149.393 21.104 149.681 20.536 149.873 19.88C150.081 19.224 150.185 18.488 150.185 17.672C150.185 16.856 150.081 16.12 149.873 15.464C149.681 14.792 149.393 14.224 149.009 13.76C148.641 13.28 148.177 12.912 147.617 12.656C147.073 12.4 146.457 12.272 145.769 12.272C145.065 12.272 144.441 12.408 143.897 12.68C143.353 12.936 142.889 13.304 142.505 13.784C142.137 14.248 141.849 14.816 141.641 15.488C141.449 16.144 141.353 16.872 141.353 17.672ZM154.049 17.672C154.049 19.096 153.833 20.352 153.401 21.44C152.985 22.512 152.409 23.416 151.673 24.152C150.937 24.872 150.057 25.416 149.033 25.784C148.025 26.152 146.937 26.336 145.769 26.336C144.633 26.336 143.561 26.152 142.553 25.784C141.545 25.416 140.665 24.872 139.913 24.152C139.161 23.416 138.569 22.512 138.137 21.44C137.705 20.352 137.489 19.096 137.489 17.672C137.489 16.248 137.713 15 138.161 13.928C138.609 12.84 139.209 11.928 139.961 11.192C140.729 10.456 141.609 9.904 142.601 9.536C143.609 9.168 144.665 8.984 145.769 8.984C146.905 8.984 147.977 9.168 148.985 9.536C149.993 9.904 150.873 10.456 151.625 11.192C152.377 11.928 152.969 12.84 153.401 13.928C153.833 15 154.049 16.248 154.049 17.672Z" fill="white"/>
<path fill-rule="evenodd" clip-rule="evenodd" d="M160.928 8L164.392 14L167.856 8L174.785 8L164.392 26L154 8L160.928 8Z" fill="#EAA64E"/>
</svg>
