<svg width="54" height="27" viewBox="0 0 54 27" fill="none" xmlns="http://www.w3.org/2000/svg">
<path d="M19.5425 7.42H20.9825L24.0785 22H22.7285L22.0085 18.094H18.5345L17.7965 22H16.4645L19.5425 7.42ZM21.8285 17.104L20.2805 9.238L18.7325 17.104H21.8285ZM28.1566 22.162C27.3886 22.162 26.8006 21.994 26.3926 21.658C25.9846 21.31 25.7086 20.848 25.5646 20.272C25.4326 19.684 25.3666 18.946 25.3666 18.058V15.628C25.3666 14.62 25.4446 13.816 25.6006 13.216C25.7686 12.616 26.0506 12.172 26.4466 11.884C26.8546 11.584 27.4246 11.434 28.1566 11.434C29.1766 11.434 29.8726 11.716 30.2446 12.28C30.6166 12.832 30.8026 13.66 30.8026 14.764V15.268H29.5786V14.764C29.5786 14.152 29.5306 13.678 29.4346 13.342C29.3506 13.006 29.2066 12.772 29.0026 12.64C28.7986 12.496 28.5166 12.424 28.1566 12.424C27.7486 12.424 27.4366 12.52 27.2206 12.712C27.0166 12.904 26.8726 13.21 26.7886 13.63C26.7166 14.038 26.6806 14.632 26.6806 15.412V18.328C26.6806 19.048 26.7226 19.612 26.8066 20.02C26.8906 20.428 27.0406 20.722 27.2566 20.902C27.4726 21.082 27.7786 21.172 28.1746 21.172C28.5826 21.172 28.8826 21.088 29.0746 20.92C29.2786 20.74 29.4106 20.476 29.4706 20.128C29.5426 19.78 29.5786 19.294 29.5786 18.67V18.094H30.8026V18.598C30.8026 19.378 30.7306 20.026 30.5866 20.542C30.4546 21.046 30.1966 21.442 29.8126 21.73C29.4286 22.018 28.8766 22.162 28.1566 22.162ZM35.0267 22.126C34.3187 22.126 33.8267 21.934 33.5507 21.55C33.2867 21.154 33.1547 20.584 33.1547 19.84V12.46H31.8767V11.596H33.1547V8.374H34.4687V11.596H36.1967V12.46H34.4687V19.714C34.4687 20.242 34.5287 20.608 34.6487 20.812C34.7687 21.004 35.0147 21.1 35.3867 21.1C35.6147 21.1 35.8667 21.07 36.1427 21.01V22.018C35.7707 22.09 35.3987 22.126 35.0267 22.126ZM37.7497 8.374H39.0637V10.156H37.7497V8.374ZM37.7497 11.596H39.0637V22H37.7497V11.596ZM40.5955 11.596H41.9275L43.6195 20.488L45.2935 11.596H46.5715L44.3935 22H42.8455L40.5955 11.596ZM50.5164 22.162C49.8444 22.162 49.3044 22.03 48.8964 21.766C48.4884 21.502 48.1884 21.076 47.9964 20.488C47.8044 19.9 47.7084 19.102 47.7084 18.094V15.466C47.7084 14.446 47.8044 13.648 47.9964 13.072C48.2004 12.484 48.5064 12.064 48.9144 11.812C49.3344 11.56 49.8744 11.434 50.5344 11.434C51.2544 11.434 51.8064 11.59 52.1904 11.902C52.5864 12.202 52.8564 12.658 53.0004 13.27C53.1564 13.882 53.2344 14.704 53.2344 15.736V16.672H49.0224V18.49C49.0224 19.486 49.1364 20.182 49.3644 20.578C49.5924 20.974 49.9764 21.172 50.5164 21.172C50.9724 21.172 51.3204 21.028 51.5604 20.74C51.8124 20.452 51.9384 19.93 51.9384 19.174V18.454H53.2164V19.03C53.2164 20.038 53.0064 20.812 52.5864 21.352C52.1664 21.892 51.4764 22.162 50.5164 22.162ZM51.9384 15.916V15.052C51.9384 14.428 51.9024 13.936 51.8304 13.576C51.7704 13.216 51.6384 12.934 51.4344 12.73C51.2304 12.526 50.9244 12.424 50.5164 12.424C50.1444 12.424 49.8504 12.508 49.6344 12.676C49.4184 12.832 49.2624 13.114 49.1664 13.522C49.0704 13.918 49.0224 14.482 49.0224 15.214V15.916H51.9384Z" fill="white"/>
<circle cx="38" cy="9" r="2" fill="#FF4921"/>
</svg>
