<svg width="40" height="40" viewBox="0 0 40 40" fill="none" xmlns="http://www.w3.org/2000/svg">
<path d="M38 8H29.3333V5.33333C29.3311 3.49316 27.8402 2.00228 26 2H14C12.1598 2.00228 10.6689 3.49316 10.6667 5.33333V8H2C0.895508 8 0 8.89551 0 10V24.8398C0.00423177 25.6855 0.537109 26.4378 1.33333 26.722V36C1.33333 37.1045 2.22884 38 3.33333 38H36.6667C37.7712 38 38.6667 37.1045 38.6667 36V26.7227C39.4629 26.4381 39.9961 25.6855 40 24.8398V10C40 8.89551 39.1045 8 38 8ZM12 5.33333C12 4.22884 12.8955 3.33333 14 3.33333H26C27.1045 3.33333 28 4.22884 28 5.33333V8H26.6667V5.33333C26.6667 4.96517 26.3682 4.66667 26 4.66667H14C13.6318 4.66667 13.3333 4.96517 13.3333 5.33333V8H12V5.33333ZM25.3333 8H14.6667V6H25.3333V8ZM37.3333 36C37.3333 36.3682 37.0348 36.6667 36.6667 36.6667H3.33333C2.96517 36.6667 2.66667 36.3682 2.66667 36V26.9512L17.3333 28.974V30.6667C17.3333 31.7712 18.2288 32.6667 19.3333 32.6667H20.6667C21.7712 32.6667 22.6667 31.7712 22.6667 30.6667V28.974L37.3333 26.9512V36ZM21.3333 30.6667C21.3333 31.0348 21.0348 31.3333 20.6667 31.3333H19.3333C18.9652 31.3333 18.6667 31.0348 18.6667 30.6667V26.6667C18.6667 26.2985 18.9652 26 19.3333 26H20.6667C21.0348 26 21.3333 26.2985 21.3333 26.6667V30.6667ZM38.6667 24.8398C38.667 25.1722 38.4225 25.4541 38.0934 25.5006L37.9085 25.526L22.6667 27.6279V26.6667C22.6667 25.5622 21.7712 24.6667 20.6667 24.6667H19.3333C18.2288 24.6667 17.3333 25.5622 17.3333 26.6667V27.6279L1.90723 25.5006C1.57813 25.4544 1.33301 25.1725 1.33333 24.8398V10C1.33333 9.63183 1.63184 9.33333 2 9.33333H38C38.3682 9.33333 38.6667 9.63183 38.6667 10V24.8398Z" fill="black"/>
</svg>
