<svg width="63" height="63" viewBox="0 0 63 63" fill="none" xmlns="http://www.w3.org/2000/svg">
<g clip-path="url(#clip0)">
<path d="M39.6038 11.1368C39.1482 11.5463 38.7524 12.0176 38.4278 12.537C38.2551 12.8229 38.2955 13.189 38.5263 13.4306L39.7906 14.8906C39.316 16.533 38.3363 17.9842 36.9905 19.0385C36.6157 19.3631 36.3193 19.6198 36.1119 19.7308L29.4549 19.4365C28.9698 19.4413 28.5058 19.6359 28.1622 19.9785C26.1764 21.6982 23.5776 27.8645 22.3994 31.342C21.0111 35.4811 16.0924 41.4441 16.0461 41.5038L15.9577 41.639C14.0897 45.3712 16.1001 47.8396 17.484 48.6576C21.8695 52.0938 31.1901 44.4429 33.2654 42.6456L53.2465 25.3414C53.5554 25.0739 53.589 24.6065 53.3214 24.2976L50.7394 21.3161C50.7396 20.7269 50.5778 20.1491 50.2717 19.6458C50.2497 19.6161 50.2253 19.5879 50.1991 19.5619L42.9325 11.1712C42.005 10.1341 40.7617 10.134 39.6038 11.1368ZM21.9195 35.7614L23.8205 36.4644C24.2091 36.601 24.6348 36.3967 24.7713 36.0081C24.9079 35.6195 24.7035 35.1938 24.315 35.0573L22.6287 34.4326C22.9443 33.8362 23.2278 33.248 23.4633 32.6722L25.6327 33.2896C26.0243 33.4069 26.4367 33.1847 26.554 32.7932C26.6713 32.4017 26.4491 31.9892 26.0577 31.8719C26.0498 31.8695 26.042 31.8674 26.0341 31.8653L23.9828 31.2826C24.1869 30.7045 24.4022 30.1166 24.6392 29.5199L27.1725 30.1844C27.5627 30.3058 27.9775 30.0879 28.0989 29.6976C28.2203 29.3074 28.0024 28.8926 27.6122 28.7712C27.5877 28.7635 27.5628 28.7572 27.5376 28.7522L25.178 28.1526C25.4627 27.4753 25.7578 26.7988 26.0555 26.1592L29.0116 26.9275C29.4056 27.0361 29.813 26.8046 29.9216 26.4106C30.0301 26.0165 29.7987 25.6092 29.4047 25.5006C29.3989 25.499 29.393 25.4975 29.3872 25.496L26.7704 24.8255C27.3665 23.4813 28.1708 22.2395 29.1539 21.1461C29.2243 21.0661 29.3053 20.996 29.3945 20.9378L33.4486 21.0977C33.8049 25.9719 32.6304 30.8357 30.0891 35.0102C28.1049 35.8464 26.2112 36.8829 24.4374 38.1035C22.9113 39.2483 21.0631 39.883 19.1556 39.9171C20.0611 38.7021 21.0402 37.2668 21.9195 35.7614ZM17.2514 42.3982C17.3913 42.2771 17.6718 41.8775 18.0768 41.3505C20.6796 41.5577 23.269 40.8113 25.3621 39.2506C27.28 37.7463 32.2376 35.6261 35.6906 34.2215L33.2405 36.3433C23.1441 45.1557 19.4083 46.9911 18.0176 47.2166C17.453 46.8245 15.8158 45.2958 17.2514 42.3982ZM51.7134 24.7015L32.5602 41.2887C30.128 43.4538 23.9258 48.1496 20.1561 48.0468C22.3035 46.9997 26.3505 44.3367 34.2769 37.4722C36.134 35.8639 38.0079 34.241 39.7286 32.6333C41.3729 31.1409 42.9123 29.7196 44.2791 28.438C47.6023 25.3349 49.8809 23.1168 49.904 23.087C49.9868 23.0245 50.0653 22.9565 50.139 22.8835L51.7134 24.7015ZM49.0367 20.4804C49.1436 20.6717 49.5273 21.4651 48.8952 22.0126C48.8561 22.0465 46.9097 23.9474 44.0013 26.6816C41.7576 21.9093 44.0813 17.6747 45.2097 16.0613L49.0367 20.4804ZM42.8653 27.7437C41.6343 28.8881 40.2746 30.144 38.8381 31.4468C38.1755 31.6877 35.3828 32.7358 32.3522 34.029C34.3324 30.0522 35.2242 25.622 34.9371 21.1888L36.2803 21.259C36.4314 21.265 36.5808 21.2245 36.7083 21.1428C37.1437 20.8548 37.5591 20.5377 37.9515 20.1934C39.2941 19.0307 40.9563 17.1409 41.2595 14.7442C41.2852 14.537 41.222 14.3285 41.0857 14.1704L39.9763 12.8894C40.1462 12.6689 40.3365 12.4647 40.5447 12.2797C41.311 11.6161 41.6129 11.942 41.8122 12.1609L44.2166 14.9146C43.0394 16.5507 39.8086 21.8743 42.8653 27.7437Z" fill="black"/>
</g>
<defs>
<clipPath id="clip0">
<rect y="28.8048" width="44" height="44" transform="rotate(-40.8935 0 28.8048)" fill="white"/>
</clipPath>
</defs>
</svg>
