<svg width="69" height="69" viewBox="0 0 69 69" fill="none" xmlns="http://www.w3.org/2000/svg">
<path d="M65.4478 26.8333H58.9924C57.9549 26.8333 57.1001 26.2622 56.7027 25.3038C56.3053 24.3455 56.5072 23.3361 57.2393 22.6026L61.8036 18.0397C62.4744 17.3688 62.8437 16.4757 62.8437 15.5276C62.8437 14.5782 62.4744 13.6863 61.8036 13.0142L55.9858 7.19644C54.6442 5.85478 52.3046 5.85222 50.9603 7.19644L46.3974 11.7594C45.7904 12.3663 45.1234 12.4928 44.6698 12.4928C44.0309 12.4928 43.3959 12.2424 42.9269 11.8041C42.5807 11.4796 42.1667 10.9046 42.1667 10.0076V3.55222C42.1667 1.59339 40.5733 0 38.6144 0H30.3856C28.4267 0 26.8333 1.59339 26.8333 3.55222V10.0076C26.8333 11.5639 25.5594 12.4928 24.3276 12.4928C23.8753 12.4928 23.2083 12.3651 22.6013 11.7594L18.0384 7.19644C16.6942 5.85222 14.3546 5.85478 13.0129 7.19644L7.19517 13.0142C6.52433 13.685 6.15506 14.5782 6.15506 15.5276C6.15506 16.4757 6.52433 17.3676 7.19517 18.0397L11.7594 22.6026C12.4916 23.3361 12.6922 24.3455 12.2961 25.3038C11.8999 26.2622 11.0451 26.8333 10.0076 26.8333H3.55222C1.59339 26.8333 0 28.4267 0 30.3856V38.6119C0 40.572 1.59339 42.1667 3.55222 42.1667H10.0076C11.0451 42.1667 11.8999 42.7378 12.2973 43.6962C12.6947 44.6545 12.4928 45.6639 11.7607 46.3974L7.19644 50.9603C6.52561 51.6312 6.15633 52.5243 6.15633 53.4724C6.15633 54.4218 6.52561 55.3137 7.19644 55.9858L13.0142 61.8036C14.3571 63.1465 16.6954 63.1491 18.0397 61.8036L22.6026 57.2406C23.2096 56.6337 23.8766 56.5072 24.3302 56.5072C25.5607 56.5072 26.8346 57.4374 26.8346 58.9924V65.4465C26.8333 67.4053 28.4267 69 30.3856 69H38.6132C40.572 69 42.1654 67.4053 42.1654 65.4465V58.9924C42.1654 57.4361 43.4393 56.5072 44.6698 56.5072C45.1222 56.5072 45.7904 56.6349 46.3974 57.2406L50.9603 61.8036C52.3046 63.1478 54.6442 63.1452 55.9858 61.8036L61.8036 55.9858C62.4744 55.315 62.8437 54.4218 62.8437 53.4724C62.8437 52.5243 62.4744 51.6324 61.8036 50.9603L57.2393 46.3974C56.5072 45.6639 56.3066 44.6545 56.7027 43.6962C57.0988 42.7378 57.9549 42.1667 58.9924 42.1667H65.4478C67.4066 42.1667 69 40.572 69 38.6132V30.3856C69 28.4267 67.4066 26.8333 65.4478 26.8333ZM43.4444 34.5C43.4444 39.4309 39.4309 43.4444 34.5 43.4444C29.5691 43.4444 25.5556 39.4309 25.5556 34.5C25.5556 29.5691 29.5691 25.5556 34.5 25.5556C39.4309 25.5556 43.4444 29.5691 43.4444 34.5Z" fill="#897C8B"/>
</svg>
