<svg width="390" height="134" viewBox="0 0 390 134" fill="none" xmlns="http://www.w3.org/2000/svg">
<path opacity="0.5" d="M25.8168 7.99285C26.7701 3.34031 30.8641 0 35.6133 0H377.743C384.073 0 388.81 5.80634 387.54 12.0071L364.183 126.007C363.23 130.66 359.136 134 354.387 134H12.2565C5.92693 134 1.18962 128.194 2.46007 121.993L25.8168 7.99285Z" fill="#EAEAEA"/>
<path d="M34.2706 17.7726C35.3097 13.2251 39.3547 10 44.0194 10H367.458C373.879 10 378.637 15.9668 377.206 22.2274L355.729 116.227C354.69 120.775 350.645 124 345.981 124H22.5425C16.1206 124 11.3633 118.033 12.7937 111.773L34.2706 17.7726Z" fill="#EAEAEA"/>
<path d="M34.3525 17.7656C35.3941 13.2215 39.4376 10 44.0996 10H192.448C198.873 10 203.631 15.972 202.195 22.2344L180.648 116.234C179.606 120.779 175.562 124 170.9 124H22.5517C16.1269 124 11.369 118.028 12.8045 111.766L34.3525 17.7656Z" fill="#FF2B37"/>
</svg>
