<svg width="111" height="115" viewBox="0 0 111 115" fill="none" xmlns="http://www.w3.org/2000/svg">
<path d="M105.269 48.5397C105.299 48.6874 105.299 48.8396 105.269 48.9872C105.24 49.1349 105.181 49.2751 105.096 49.3998C105.011 49.5245 104.902 49.6312 104.776 49.7136C104.649 49.796 104.507 49.8525 104.358 49.8798L93.6988 51.8874L98.3379 55.0668C98.588 55.2416 98.7587 55.5074 98.8129 55.8064C98.867 56.1053 98.8001 56.4132 98.6269 56.6629C98.5057 56.8347 98.3401 56.9707 98.1474 57.0563C97.9547 57.1419 97.7422 57.1741 97.5324 57.1494C97.3496 57.1202 97.1755 57.0511 97.0226 56.9471L90.526 52.49L79.9847 54.463L88.5006 60.3101C88.7507 60.4848 88.9214 60.7507 88.9755 61.0496C89.0296 61.3486 88.9628 61.6565 88.7896 61.9062C88.6717 62.0814 88.5065 62.22 88.3129 62.306C88.1193 62.392 87.9052 62.4221 87.695 62.3926C87.5124 62.3683 87.3375 62.3038 87.1829 62.2039L76.8119 55.0656L66.8061 56.9393L75.4185 62.8733L79.8691 62.8744C80.0246 62.87 80.1793 62.8967 80.3242 62.9531C80.4692 63.0095 80.6013 63.0943 80.7126 63.2024C80.8239 63.3106 80.9122 63.44 80.9723 63.5828C81.0323 63.7255 81.0628 63.8788 81.0619 64.0335C81.0519 64.1289 81.035 64.2236 81.0114 64.3167C80.9474 64.5592 80.8046 64.7737 80.6052 64.9269C80.4057 65.08 80.1608 65.1632 79.9085 65.1634L78.7897 65.1585L80.1973 66.1333C80.3209 66.2183 80.4265 66.3268 80.508 66.4524C80.5895 66.5779 80.6454 66.7182 80.6725 66.8652C80.6996 67.0122 80.6973 67.1629 80.6657 67.3089C80.6342 67.4548 80.574 67.5931 80.4887 67.7158C80.3718 67.8876 80.2088 68.0232 80.0181 68.1072C79.8275 68.1912 79.6168 68.2203 79.4101 68.1913C79.2253 68.17 79.0493 68.1002 78.9004 67.9889L74.7469 65.1467L63.1348 65.1197L70.1707 73.2212L82.6192 74.0514C82.922 74.0704 83.2051 74.2082 83.4062 74.4346C83.6073 74.661 83.7099 74.9573 83.6914 75.2585C83.6729 75.5596 83.5349 75.8409 83.3076 76.0404C83.0804 76.2399 82.7826 76.3414 82.4798 76.3224L72.3128 75.6489L79.2721 83.7089L86.9765 84.2212C87.1265 84.2305 87.2733 84.2691 87.4084 84.3349C87.5434 84.4006 87.6642 84.4921 87.7638 84.6042C87.8634 84.7163 87.9398 84.8468 87.9887 84.9882C88.0376 85.1296 88.058 85.2791 88.0488 85.4283C88.0394 85.5792 88.0002 85.7267 87.9334 85.8624C87.8666 85.9981 87.7735 86.1194 87.6595 86.2192C87.5455 86.319 87.4128 86.3955 87.269 86.4442C87.1251 86.493 86.973 86.513 86.8212 86.5032L81.3734 86.1293L88.3352 94.1758C88.4357 94.2896 88.5124 94.4222 88.5608 94.5658C88.6092 94.7094 88.6283 94.8611 88.617 95.012C88.6057 95.1629 88.5643 95.31 88.4951 95.4446C88.4258 95.5793 88.3303 95.6987 88.2139 95.7961C87.9816 95.994 87.6796 96.0922 87.3741 96.069C87.0687 96.0458 86.7848 95.9031 86.5845 95.6722L79.5 87.4507L79.0496 93.0335C79.0384 93.1825 78.9973 93.3278 78.9289 93.4607C78.8605 93.5937 78.7661 93.7117 78.6512 93.8078C78.5363 93.9039 78.4032 93.9762 78.2597 94.0205C78.1162 94.0648 77.9653 94.0801 77.8157 94.0655C77.6042 94.0509 77.4008 93.9788 77.2275 93.8571C77.0542 93.7354 76.9178 93.5687 76.8331 93.3754C76.7681 93.2016 76.7393 93.0165 76.7482 92.8315L77.3851 85.0279L70.4258 76.9679L69.5936 87.1994C69.5803 87.3488 69.5374 87.4941 69.4675 87.6269C69.3975 87.7596 69.3018 87.8773 69.1858 87.973C69.0699 88.0687 68.936 88.1406 68.7919 88.1845C68.6478 88.2285 68.4962 88.2437 68.3461 88.2291C68.1355 88.2185 67.9323 88.1481 67.7606 88.0262C67.5889 87.9043 67.4558 87.736 67.3771 87.5414C67.3039 87.3698 67.2748 87.1829 67.2922 86.9975L68.2997 74.5292L61.6488 66.8582L60.8085 77.2135L63.0331 81.0612C63.1815 81.3235 63.2209 81.6329 63.1429 81.9232C63.0649 82.2135 62.8758 82.4617 62.6158 82.6147C62.5232 82.6544 62.4283 82.6886 62.3317 82.7171C62.0866 82.7868 61.8249 82.773 61.5883 82.6778C61.3517 82.5826 61.1536 82.4116 61.0258 82.1918L60.4561 81.2275L60.3228 82.9152C60.2965 83.2163 60.152 83.4948 59.9207 83.6904C59.6893 83.886 59.3897 83.9831 59.0865 83.9607C58.8793 83.9401 58.6814 83.8643 58.5137 83.7413C58.346 83.6184 58.2147 83.4527 58.1335 83.2619C58.0604 83.0903 58.0312 82.9034 58.0486 82.718L58.4475 77.7383L52.6455 67.742L49.1129 77.8117L54.6202 88.9102C54.6881 89.0448 54.7287 89.1912 54.7397 89.3413C54.7507 89.4913 54.7319 89.642 54.6843 89.7847C54.5882 90.0728 54.3809 90.311 54.108 90.4468C53.835 90.5826 53.5188 90.6049 53.2289 90.5088C52.9389 90.4127 52.699 90.2061 52.5619 89.9343L48.0367 80.8617L44.5225 90.9067L47.9269 97.7897C48.0637 98.0632 48.0857 98.3793 47.9882 98.6685C47.8906 98.9577 47.6814 99.1963 47.4067 99.3317C47.132 99.4672 46.8142 99.4885 46.5232 99.3909C46.2322 99.2933 45.9918 99.0848 45.855 98.8113L43.4351 93.9408L39.9839 104.025C39.8842 104.313 39.6732 104.551 39.3974 104.684C39.1216 104.817 38.8036 104.836 38.5133 104.737C38.223 104.637 37.9842 104.426 37.8495 104.152C37.7147 103.877 37.6951 103.561 37.7948 103.273L41.3602 93.0974L36.273 95.4872C35.997 95.6181 35.6799 95.6349 35.391 95.5338C35.1022 95.4327 34.8651 95.222 34.7317 94.9478C34.6401 94.7573 34.6036 94.5453 34.6262 94.3355C34.6488 94.1258 34.7296 93.9265 34.8597 93.7601C34.9678 93.6103 35.1146 93.4923 35.2846 93.4185L42.418 90.072L45.9347 80.0134L36.6001 84.4002C36.3227 84.5294 36.0048 84.5438 35.7163 84.4402C35.4277 84.3365 35.1922 84.1233 35.0612 83.8473C34.9681 83.66 34.9292 83.4507 34.949 83.2428C34.9688 83.035 35.0464 82.8368 35.1732 82.6707C35.2849 82.5242 35.4307 82.407 35.5981 82.3291L46.9949 76.9745L50.3474 67.4432L40.8788 71.8757L38.6647 75.6548C38.5898 75.7855 38.4896 75.9 38.3698 75.9917C38.2499 76.0834 38.113 76.1506 37.9668 76.1892C37.8206 76.2278 37.668 76.2372 37.518 76.2167C37.3681 76.1963 37.2236 76.1464 37.093 76.0701C37.0107 76.0179 36.9373 75.9532 36.8753 75.8782C36.6805 75.7002 36.5545 75.46 36.5191 75.1995C36.4838 74.939 36.5414 74.6745 36.6819 74.4522L37.2311 73.4927L35.7014 74.2216C35.424 74.3508 35.1061 74.3651 34.8176 74.2615C34.5291 74.1578 34.2934 73.9446 34.1625 73.6686C34.098 73.533 34.0611 73.3861 34.0539 73.2364C34.0467 73.0867 34.0694 72.9371 34.1205 72.7963C34.1717 72.6554 34.2504 72.526 34.352 72.4156C34.4537 72.3052 34.5764 72.2159 34.7129 72.1528L39.2924 70.0203L45.0178 60.1332L34.4469 62.1149L27.5488 72.377C27.3755 72.6223 27.1126 72.7903 26.8161 72.8453C26.5196 72.9004 26.213 72.838 25.9617 72.6716C25.7103 72.5052 25.534 72.2478 25.4704 71.9544C25.4068 71.6609 25.4609 71.3546 25.6212 71.1007L31.3173 62.7113L20.787 64.7001L16.5005 71.0731C16.3272 71.3184 16.0643 71.4865 15.7678 71.5415C15.4714 71.5965 15.1648 71.5342 14.9134 71.3677C14.662 71.2013 14.4858 70.9439 14.4221 70.6505C14.3585 70.3571 14.4126 70.0508 14.5729 69.7969L17.6167 65.2892L7.1001 67.2805C6.79856 67.3374 6.4864 67.2728 6.23228 67.1009C5.97817 66.929 5.80289 66.6639 5.74508 66.3639C5.68725 66.0639 5.75159 65.7536 5.92394 65.5012C6.09628 65.2488 6.36253 65.0751 6.66408 65.0182L17.3212 63.0241L12.6844 59.8312C12.4343 59.6564 12.2636 59.3906 12.2095 59.0917C12.1554 58.7927 12.2222 58.4848 12.3954 58.2351C12.5148 58.0628 12.6803 57.9271 12.8733 57.8435C13.0663 57.76 13.2791 57.7318 13.4876 57.7621C13.6702 57.7865 13.8451 57.851 13.9997 57.9509L20.4939 62.4215L30.9699 60.423L22.454 54.5758C22.2039 54.4011 22.0332 54.1353 21.979 53.8363C21.9249 53.5373 21.9917 53.2295 22.165 52.9798C22.2861 52.8079 22.4518 52.672 22.6445 52.5864C22.8372 52.5007 23.0497 52.4685 23.2595 52.4933C23.4427 52.5211 23.617 52.5903 23.7692 52.6956L34.1538 59.8363L44.1484 57.9466L35.5336 52.0262L31.083 52.025C30.9276 52.0294 30.7727 52.0027 30.6278 51.9463C30.4829 51.89 30.3509 51.8052 30.2395 51.697C30.1282 51.5888 30.0399 51.4595 29.9799 51.3167C29.9198 51.1739 29.8894 51.0206 29.8902 50.8659C29.901 50.766 29.9187 50.6668 29.9432 50.5693C30.0112 50.329 30.1551 50.117 30.3536 49.9645C30.5522 49.8121 30.7949 49.7272 31.046 49.7225L32.1513 49.725L30.7548 48.7661C30.5047 48.5914 30.334 48.3256 30.2799 48.0266C30.2258 47.7277 30.2926 47.4198 30.4658 47.1701C30.5827 46.9983 30.7457 46.8628 30.9364 46.7787C31.1271 46.6947 31.3377 46.6656 31.5444 46.6947C31.729 46.7109 31.9058 46.7761 32.0565 46.8835L36.2682 49.7918L47.8827 49.8053L40.8444 41.7173L28.396 40.8871C28.245 40.8775 28.0973 40.8382 27.9616 40.7715C27.8259 40.7048 27.7047 40.612 27.6052 40.4985C27.5057 40.385 27.4298 40.253 27.3819 40.1101C27.334 39.9673 27.315 39.8165 27.3261 39.6665C27.3334 39.5167 27.3707 39.37 27.4359 39.2349C27.5011 39.0999 27.5929 38.9792 27.7058 38.88C27.8187 38.7809 27.9505 38.7053 28.0934 38.6576C28.2363 38.61 28.3874 38.5913 28.5377 38.6027L38.7048 39.2761L31.743 31.2296L24.0386 30.7173C23.7343 30.6962 23.4505 30.5558 23.2499 30.3269C23.0493 30.098 22.9482 29.7993 22.9687 29.4967C22.9893 29.1941 23.13 28.9123 23.3598 28.7132C23.5895 28.5142 23.8896 28.4142 24.1939 28.4353L29.6441 28.7957L22.6824 20.7492C22.582 20.6367 22.5054 20.5053 22.457 20.3629C22.4085 20.2205 22.3892 20.07 22.4003 19.9202C22.4114 19.7704 22.4526 19.6243 22.5214 19.4907C22.5903 19.3571 22.6854 19.2387 22.8012 19.1424C23.0334 18.9455 23.3341 18.8468 23.639 18.8674C23.9439 18.888 24.2288 19.0263 24.433 19.2528L31.5175 27.4743L31.9655 21.905C31.9768 21.7552 32.0179 21.6092 32.0863 21.4754C32.1547 21.3416 32.2491 21.2227 32.364 21.1255C32.479 21.0283 32.6122 20.9547 32.756 20.909C32.8998 20.8634 33.0513 20.8465 33.2019 20.8594C33.4139 20.8772 33.6172 20.9521 33.7899 21.0761C33.9626 21.2001 34.0981 21.3685 34.182 21.5631C34.2495 21.7316 34.2793 21.9126 34.2693 22.0935L33.63 29.9106L40.5893 37.9706L41.4216 27.739C41.4418 27.4822 41.5481 27.2397 41.7235 27.0504C41.8989 26.8611 42.1333 26.7359 42.389 26.695C42.6447 26.654 42.907 26.6996 43.1339 26.8245C43.3608 26.9493 43.5392 27.1463 43.6404 27.3837C43.7136 27.5553 43.7428 27.7421 43.7253 27.9275L42.7018 40.4069L49.3608 47.9541L50.2147 37.6012L47.9742 33.7645C47.8236 33.4994 47.7847 33.1859 47.8659 32.8927C47.947 32.5995 48.1417 32.3504 48.4073 32.1999C48.4933 32.1604 48.5833 32.1299 48.6756 32.1087C48.9207 32.039 49.1824 32.0528 49.419 32.1479C49.6556 32.2431 49.8536 32.4142 49.9815 32.6339L50.5376 33.5959L50.6708 31.9082C50.6821 31.7584 50.7232 31.6124 50.7915 31.4786C50.8599 31.3448 50.9544 31.2259 51.0693 31.1287C51.1843 31.0315 51.3175 30.9579 51.4613 30.9122C51.6051 30.8666 51.7566 30.8497 51.9072 30.8627C52.1143 30.8832 52.3122 30.959 52.48 31.082C52.6477 31.205 52.779 31.3706 52.8601 31.5614C52.9291 31.7307 52.9634 31.9119 52.961 32.0943L52.5486 37.0716L58.3482 47.0813L61.8832 36.9982L56.3735 25.9131C56.3053 25.7781 56.2649 25.631 56.2544 25.4803C56.244 25.3297 56.2639 25.1786 56.3128 25.0358C56.3617 24.893 56.4388 24.7614 56.5395 24.6486C56.6402 24.5358 56.7625 24.4442 56.8992 24.379C57.1738 24.2464 57.4902 24.2272 57.7794 24.3258C58.0686 24.4243 58.3071 24.6325 58.4429 24.9049L62.9434 33.9593L66.4688 23.9301L63.0373 17.0423C62.9683 16.908 62.9268 16.7614 62.9152 16.6111C62.9036 16.4608 62.9222 16.3098 62.9698 16.1668C63.0175 16.0238 63.0933 15.8918 63.1928 15.7783C63.2923 15.6648 63.4135 15.5721 63.5494 15.5057C63.6855 15.4372 63.834 15.3962 63.9862 15.385C64.1384 15.3738 64.2914 15.3927 64.4364 15.4406C64.5814 15.4884 64.7154 15.5643 64.8309 15.6639C64.9463 15.7634 65.0409 15.8847 65.1091 16.0207L67.5266 20.9047L71.0408 10.8596C71.1621 10.6008 71.3759 10.3963 71.6407 10.286C71.9055 10.1756 72.2023 10.1672 72.4734 10.2625C72.7445 10.3577 72.9704 10.5497 73.1073 10.8012C73.2442 11.0527 73.2822 11.3457 73.2139 11.6231L69.6509 21.7847L74.6815 19.3987C74.9594 19.2732 75.2759 19.2607 75.5634 19.364C75.8509 19.4673 76.0867 19.6782 76.2204 19.9516C76.312 20.1421 76.3485 20.3541 76.3259 20.5639C76.3033 20.7736 76.2225 20.9729 76.0924 21.1393C75.9779 21.283 75.8328 21.3996 75.6675 21.481L68.5365 24.8139L65.0198 34.8725L74.3656 30.5016C74.5015 30.4359 74.6493 30.398 74.8003 30.3902C74.9514 30.3824 75.1024 30.4048 75.2447 30.4562C75.387 30.5075 75.5174 30.5867 75.6284 30.6891C75.7394 30.7914 75.8287 30.9149 75.8909 31.0521C75.9856 31.239 76.0254 31.4486 76.0056 31.6568C75.9857 31.865 75.9072 32.0633 75.7789 32.2287C75.6672 32.3752 75.5214 32.4924 75.354 32.5703L63.9596 37.9114L60.6182 47.4586L70.0734 43.0237L72.2874 39.2446C72.3612 39.1125 72.4607 38.9964 72.5802 38.9031C72.6996 38.8098 72.8367 38.7412 72.9833 38.7013C73.1298 38.6613 73.283 38.6509 73.4338 38.6706C73.5846 38.6903 73.73 38.7397 73.8615 38.8159C73.9454 38.8764 74.0221 38.9461 74.0903 39.0237C74.2701 39.1961 74.3868 39.4235 74.4215 39.6693C74.4563 39.9151 74.4073 40.1652 74.2822 40.3798L73.7331 41.3393L75.2604 40.6239C75.5378 40.4947 75.8556 40.4804 76.1442 40.584C76.4327 40.6877 76.6683 40.9009 76.7993 41.1768C76.8841 41.3664 76.9172 41.5749 76.8951 41.7811C76.8731 41.9872 76.7967 42.1839 76.6737 42.3511C76.562 42.4975 76.4162 42.6147 76.2488 42.6926L71.6693 44.8252L65.8592 54.7945L76.4302 52.8129L83.3282 42.5508C83.506 42.3205 83.7649 42.1657 84.053 42.1177C84.3411 42.0696 84.637 42.1318 84.8813 42.2916C85.1257 42.4515 85.3003 42.6973 85.3702 42.9796C85.4402 43.2619 85.4002 43.5598 85.2583 43.8136L79.5622 52.203L90.1786 50.2017L94.4651 43.8287C94.5424 43.6905 94.6475 43.5697 94.7739 43.4738C94.9003 43.378 95.0453 43.3091 95.1998 43.2716C95.3543 43.234 95.515 43.2286 95.6718 43.2556C95.8287 43.2826 95.9783 43.3414 96.1114 43.4285C96.2444 43.5156 96.3581 43.6289 96.4452 43.7615C96.5323 43.8941 96.591 44.0432 96.6176 44.1992C96.6442 44.3553 96.6382 44.515 96.6 44.6686C96.5617 44.8221 96.492 44.9661 96.3952 45.0915L93.3513 49.5991L103.866 47.6213C104.018 47.5858 104.177 47.5817 104.332 47.6092C104.486 47.6366 104.634 47.6951 104.765 47.7811C104.896 47.867 105.009 47.9786 105.096 48.109C105.182 48.2394 105.241 48.3859 105.269 48.5397ZM63.6544 48.6405L62.739 51.26L62.4286 52.1369L62.5642 52.1611L62.8412 52.0992L63.0311 52.1331L65.6228 51.6494L68.6721 46.4053L63.6544 48.6405ZM55.5749 57.523L55.5942 57.4151L55.4993 57.3982L55.3907 57.3788L55.3691 57.5002L55.452 57.5846L55.5749 57.523ZM51.714 46.4539L54.0345 49.1361L54.8381 50.0448L54.8694 49.8695L54.932 49.5189L54.9777 49.2627L56.0915 46.0803L52.1651 39.299L51.714 46.4539ZM43.8664 55.6839L47.6609 54.9697L48.9499 54.7266L48.8112 54.5627L48.5561 54.2668L48.3815 54.0686L45.9804 51.2886L37.4711 51.2866L43.8664 55.6839ZM48.5646 66.6102L50.0729 62.3155L50.5866 60.8488L50.3391 60.902L49.8762 60.9864L49.5585 61.041L45.2173 61.8386L40.1681 70.5244L48.5646 66.6102ZM59.6582 68.1309L56.8808 64.9498L55.941 63.8637L55.9024 64.0794L55.7465 64.4829L55.6935 64.7796L54.3765 68.5519L59.0327 76.5765L59.6582 68.1309ZM66.9225 58.7968L62.5741 59.6348L61.1214 59.9321L61.2848 60.1143L61.5734 60.4581L61.7838 60.6904L64.5835 63.9033L74.4607 63.9268L66.9225 58.7968Z" fill="#EAEAEA"/>
</svg>
