<svg width="160" height="160" viewBox="0 0 160 160" fill="none" xmlns="http://www.w3.org/2000/svg">
<g filter="url(#filter0_d)">
<circle cx="80" cy="75" r="65" fill="#E01A38"/>
</g>
<g clip-path="url(#clip0)">
<path d="M111.727 79.2798L70.9531 61.6246C70.3683 61.3762 69.6923 61.495 69.236 61.9391C68.7788 62.3802 68.6339 63.0559 68.8673 63.6459L84.8721 104.096C85.0929 104.654 85.6124 105.037 86.2121 105.083C86.8116 105.13 87.3863 104.831 87.6852 104.314L92.8081 95.5805L103.892 104.67C104.35 105.042 104.954 105.118 105.469 104.914C105.688 104.827 105.893 104.689 106.062 104.5L113.092 96.6505C113.378 96.3313 113.522 95.9094 113.489 95.4833C113.454 95.0543 113.247 94.6597 112.92 94.3873L102.477 85.825L111.68 82.1839C112.27 81.9504 112.66 81.3836 112.672 80.7471C112.684 80.1106 112.31 79.5323 111.727 79.2798ZM98.8419 83.8879C98.3248 84.0925 97.9543 84.5567 97.8682 85.1077C97.781 85.6558 97.9907 86.2115 98.4211 86.5648L109.659 95.7788L104.726 101.288L93.3851 91.9835C93.0297 91.6915 92.5623 91.5691 92.1109 91.6496C92.0036 91.6685 91.9037 91.6979 91.8073 91.736C91.4859 91.8632 91.2074 92.0983 91.0299 92.4017L86.6073 99.9427L73.1838 66.0162L107.001 80.6595L98.8419 83.8879Z" fill="white"/>
<path d="M61.6563 41.152C60.85 41.471 60.4545 42.3844 60.7735 43.1907L64.2413 51.9551C64.5603 52.7614 65.4737 53.1569 66.28 52.8378C67.0863 52.5188 67.4818 51.6054 67.1628 50.7991L63.6951 42.0348C63.3759 41.2285 62.4626 40.833 61.6563 41.152Z" fill="white"/>
<path d="M58.0619 66.2253L49.2976 69.693C48.4913 70.0121 48.0958 70.9254 48.4148 71.7318C48.7339 72.5381 49.6472 72.9336 50.4536 72.6145L59.2179 69.1468C60.0242 68.8278 60.4197 67.9144 60.1007 67.1081C59.7816 66.3018 58.8682 65.9063 58.0619 66.2253Z" fill="white"/>
<path d="M90.198 53.5104L81.4337 56.9782C80.6274 57.2972 80.2319 58.2106 80.5509 59.0169C80.87 59.8232 81.7834 60.2187 82.5897 59.8997L91.354 56.432C92.1603 56.1129 92.5558 55.1995 92.2368 54.3932C91.9177 53.5869 91.0043 53.1914 90.198 53.5104Z" fill="white"/>
<path d="M59.4167 56.6274L50.7658 52.8838C49.9707 52.5396 49.0446 52.906 48.7003 53.7011C48.356 54.4962 48.7225 55.4223 49.5176 55.7666L58.1685 59.5101C58.5669 59.6801 58.9975 59.6755 59.3715 59.5275C59.7455 59.3795 60.0638 59.0914 60.234 58.6929C60.5783 57.8978 60.2118 56.9716 59.4167 56.6274Z" fill="white"/>
<path d="M65.9568 73.1571C65.1617 72.8128 64.2356 73.1792 63.8913 73.9743L60.1438 82.6235C59.7995 83.4186 60.1659 84.3447 60.961 84.689C61.3595 84.859 61.79 84.8544 62.164 84.7064C62.538 84.5584 62.8552 84.2674 63.0265 83.8718L66.7741 75.2226C67.1183 74.4275 66.7519 73.5014 65.9568 73.1571Z" fill="white"/>
<path d="M79.6913 41.4393C78.895 41.0922 77.9689 41.4586 77.6229 42.2577L73.8753 50.9069C73.5311 51.702 73.8975 52.6281 74.6926 52.9724C75.091 53.1425 75.5216 53.1378 75.8956 52.9898C76.2695 52.8418 76.5879 52.5537 76.761 52.154L80.5085 43.5048C80.8528 42.7098 80.4875 41.7866 79.6913 41.4393Z" fill="white"/>
</g>
<defs>
<filter id="filter0_d" x="0" y="0" width="160" height="160" filterUnits="userSpaceOnUse" color-interpolation-filters="sRGB">
<feFlood flood-opacity="0" result="BackgroundImageFix"/>
<feColorMatrix in="SourceAlpha" type="matrix" values="0 0 0 0 0 0 0 0 0 0 0 0 0 0 0 0 0 0 127 0"/>
<feOffset dy="5"/>
<feGaussianBlur stdDeviation="7.5"/>
<feColorMatrix type="matrix" values="0 0 0 0 0.159383 0 0 0 0 0.341667 0 0 0 0 0.121007 0 0 0 1 0"/>
<feBlend mode="normal" in2="BackgroundImageFix" result="effect1_dropShadow"/>
<feBlend mode="normal" in="SourceGraphic" in2="effect1_dropShadow" result="shape"/>
</filter>
<clipPath id="clip0">
<rect width="75.4096" height="75.4096" fill="white" transform="translate(30.9787 53.29) rotate(-21.587)"/>
</clipPath>
</defs>
</svg>
