<svg width="400" height="30" viewBox="0 0 400 30" fill="none" xmlns="http://www.w3.org/2000/svg">
<rect width="400" height="30" rx="15" fill="#F5F5F5"/>
<path d="M335.663 22H344.743V19.62H341.863V9.3H339.703C338.763 9.84 337.763 10.2 336.283 10.46V12.28H338.923V19.62H335.663V22ZM352.016 22.24C354.956 22.24 356.896 19.9 356.896 15.6C356.896 11.28 354.956 9.06 352.016 9.06C349.076 9.06 347.136 11.28 347.136 15.6C347.136 19.9 349.076 22.24 352.016 22.24ZM352.016 19.96C350.756 19.96 349.756 18.9 349.756 15.6C349.756 12.3 350.756 11.34 352.016 11.34C353.276 11.34 354.276 12.3 354.276 15.6C354.276 18.9 353.276 19.96 352.016 19.96ZM352.016 17.08C352.856 17.08 353.516 16.48 353.516 15.56C353.516 14.64 352.856 14.04 352.016 14.04C351.176 14.04 350.516 14.64 350.516 15.56C350.516 16.48 351.176 17.08 352.016 17.08ZM361.468 15.76C363.168 15.76 364.428 14.44 364.428 12.38C364.428 10.3 363.168 9.04 361.468 9.04C359.768 9.04 358.508 10.3 358.508 12.38C358.508 14.44 359.768 15.76 361.468 15.76ZM361.468 14.18C360.968 14.18 360.508 13.74 360.508 12.38C360.508 11.02 360.968 10.62 361.468 10.62C361.968 10.62 362.428 11.02 362.428 12.38C362.428 13.74 361.968 14.18 361.468 14.18ZM359.868 21.44L363.108 17.46L362.088 16.52L358.368 19.98L359.868 21.44ZM365.968 14.46L369.688 10.98L368.188 9.52L364.948 13.5L365.968 14.46ZM366.548 22.24C368.248 22.24 369.508 20.92 369.508 18.86C369.508 16.78 368.248 15.52 366.548 15.52C364.848 15.52 363.588 16.78 363.588 18.86C363.588 20.92 364.848 22.24 366.548 22.24ZM366.548 20.66C366.048 20.66 365.588 20.22 365.588 18.86C365.588 17.5 366.048 17.1 366.548 17.1C367.048 17.1 367.508 17.5 367.508 18.86C367.508 20.22 367.048 20.66 366.548 20.66Z" fill="#919191"/>
<rect width="40" height="30" rx="15" fill="#F94963"/>
<mask id="mask0" mask-type="alpha" maskUnits="userSpaceOnUse" x="0" y="0" width="40" height="30">
<rect width="40" height="30" rx="15" fill="#79CE67"/>
</mask>
<g mask="url(#mask0)">
<path d="M47.5 -15.5L-16 48" stroke="#E62644" stroke-width="15"/>
<path d="M89.5 -15.5L26 48" stroke="#E62644" stroke-width="15"/>
</g>
</svg>
