<svg width="160" height="160" viewBox="0 0 160 160" fill="none" xmlns="http://www.w3.org/2000/svg">
<g filter="url(#filter0_d)">
<circle cx="80" cy="75" r="65" fill="#E01A38"/>
</g>
<g clip-path="url(#clip0)">
<path d="M111.95 74.6082V60.2694C111.95 56.954 109.258 54.2568 105.95 54.2568H103.916L104.367 52.6874C105.101 50.1328 103.632 47.47 101.082 46.7344L82.7064 41.093C82.0694 40.9093 81.4046 41.2777 81.2214 41.916C81.038 42.5542 81.4058 43.2204 82.0427 43.4042L95.3625 47.5871C94.3037 49.6542 94.265 52.1198 95.336 54.2568H70.25V44.7871C70.25 44.123 69.7127 43.5846 69.05 43.5846C68.3873 43.5846 67.85 44.123 67.85 44.7871V54.2568H63.8V44.7871C63.8 44.123 63.2627 43.5846 62.6 43.5846C61.9373 43.5846 61.4 44.123 61.4 44.7871V54.2568H56.15V43.8852C56.15 42.5592 57.2267 41.4802 58.55 41.4802H78.8C80.1233 41.4802 81.2 42.5592 81.2 43.8852V54.685C81.2 55.3491 81.7373 55.8875 82.4 55.8875C83.0627 55.8875 83.6 55.3491 83.6 54.685V43.8852C83.6 41.2329 81.4467 39.0752 78.8 39.0752H58.55C55.9032 39.0752 53.75 41.2329 53.75 43.8852V54.2568H50C46.6916 54.2568 44 56.954 44 60.2694V105.063C44 108.378 46.6916 111.075 50 111.075H105.95C109.258 111.075 111.95 108.378 111.95 105.063V90.4089C111.95 89.7448 111.413 89.2064 110.75 89.2064C110.087 89.2064 109.55 89.7448 109.55 90.4089V105.063C109.55 107.052 107.935 108.67 105.95 108.67H50C48.015 108.67 46.4 107.052 46.4 105.063V60.2694C46.4 58.2803 48.015 56.6618 50 56.6618H105.95C107.935 56.6618 109.55 58.2803 109.55 60.2694V74.5491H99.65C97.0033 74.5491 94.85 76.7068 94.85 79.3591V85.9729C94.85 88.6252 97.0033 90.7829 99.65 90.7829H111.203C113.838 90.7829 116 88.6324 116 85.9729V79.3591C116 76.9625 114.242 74.9701 111.95 74.6082ZM97.7345 48.2715L100.418 49.0458C101.693 49.4136 102.428 50.7448 102.061 52.0221L101.419 54.2568H98.2112C96.6959 52.5679 96.5555 50.1118 97.7345 48.2715ZM113.6 85.9729C113.6 87.299 112.523 88.3779 111.2 88.3779H99.65C98.3267 88.3779 97.25 87.299 97.25 85.9729V79.3591C97.25 78.0331 98.3267 76.9541 99.65 76.9541H111.2C112.523 76.9541 113.6 78.0331 113.6 79.3591V85.9729ZM104.15 82.666C104.15 83.3301 103.613 83.8685 102.95 83.8685H101.15C100.487 83.8685 99.95 83.3301 99.95 82.666C99.95 82.0019 100.487 81.4635 101.15 81.4635H102.95C103.613 81.4635 104.15 82.0019 104.15 82.666Z" fill="white"/>
</g>
<defs>
<filter id="filter0_d" x="0" y="0" width="160" height="160" filterUnits="userSpaceOnUse" color-interpolation-filters="sRGB">
<feFlood flood-opacity="0" result="BackgroundImageFix"/>
<feColorMatrix in="SourceAlpha" type="matrix" values="0 0 0 0 0 0 0 0 0 0 0 0 0 0 0 0 0 0 127 0"/>
<feOffset dy="5"/>
<feGaussianBlur stdDeviation="7.5"/>
<feColorMatrix type="matrix" values="0 0 0 0 0.159383 0 0 0 0 0.341667 0 0 0 0 0.121007 0 0 0 1 0"/>
<feBlend mode="normal" in2="BackgroundImageFix" result="effect1_dropShadow"/>
<feBlend mode="normal" in="SourceGraphic" in2="effect1_dropShadow" result="shape"/>
</filter>
<clipPath id="clip0">
<rect width="72" height="72" fill="white" transform="translate(44 39)"/>
</clipPath>
</defs>
</svg>
