<svg width="49" height="49" viewBox="0 0 49 49" fill="none" xmlns="http://www.w3.org/2000/svg">
<circle cx="24.5" cy="24.5" r="23" stroke="white" stroke-width="3"/>
<g clip-path="url(#clip0)">
<path d="M34.6367 24.783C34.6367 23.7018 33.7026 22.5028 32.9382 21.7385C32.6885 21.4886 32.2969 21.4638 32.019 21.664C31.6551 21.1475 31.2237 20.6497 30.7775 20.2035C30.4654 19.8881 29.9572 19.8845 29.642 20.1974C29.3409 20.4965 28.4216 21.4569 27.8593 22.5558C27.5596 22.4792 27.2719 22.6285 27.1636 22.8174L26.5795 23.8351C25.7322 25.3116 25.9537 27.1119 27.1307 28.315C28.8151 30.0367 31.6349 30.1048 33.3861 28.3147C34.2153 27.4671 34.6591 26.3482 34.6358 25.1639C34.6356 24.7695 34.6367 24.783 34.6367 24.783ZM32.7579 27.7002C31.3581 29.131 29.106 29.0773 27.759 27.7004C26.8602 26.7816 26.6926 25.4042 27.3418 24.2727L27.7481 23.5648C27.9789 23.7661 28.3399 23.6751 28.4481 23.3891C28.8571 22.3078 29.837 21.25 30.2068 20.8759C30.5327 21.2044 31.1261 21.8474 31.573 22.5854C31.7242 22.8348 32.0759 22.8727 32.2749 22.6524C32.3284 22.5932 32.382 22.5356 32.4351 22.4802C32.9619 23.0266 33.7567 24.0202 33.7567 24.7834C33.7571 25.4116 33.8332 26.6009 32.7579 27.7002Z" fill="white"/>
<path d="M29.7718 23.0244C29.0889 23.7036 28.1375 24.9499 28.2092 25.8678C28.2209 26.6 28.6201 27.269 29.257 27.6196C29.3242 27.6566 29.3969 27.6742 29.4686 27.6741C29.9214 27.6741 30.0777 27.0682 29.6809 26.8497C29.3095 26.6452 29.0878 26.2658 29.0878 25.8346C29.0878 25.1764 29.8053 24.261 30.2589 23.7833C30.73 24.2763 31.4296 25.1559 31.4296 25.8346C31.4296 26.2268 31.232 26.5899 30.9012 26.8058C30.698 26.9385 30.6408 27.2108 30.7734 27.414C30.9062 27.6174 31.1786 27.6745 31.3816 27.5418C31.9791 27.1518 32.3095 26.5012 32.3095 25.8346C32.3095 24.7004 31.2156 23.4914 30.7479 23.0267C30.4853 22.7615 30.0457 22.7515 29.7718 23.0244Z" fill="white"/>
<path d="M24.4961 27.8352V14.9551C24.4961 12.7742 22.7219 11 20.541 11C18.3602 11 16.586 12.7742 16.586 14.9551V27.8352C14.6049 29.1485 13.3633 31.3743 13.3633 33.8223C13.3633 37.7801 16.5832 41 20.541 41C21.9152 41 23.2516 40.6087 24.4058 39.8685C24.6101 39.7375 24.6695 39.4656 24.5385 39.2613C24.4075 39.0571 24.1356 38.9976 23.9314 39.1286C22.919 39.778 21.7467 40.1211 20.541 40.1211C17.0679 40.1211 14.2422 37.2954 14.2422 33.8223C14.2422 31.6173 15.3687 29.6091 17.2554 28.4505C17.3856 28.3706 17.4649 28.2288 17.4649 28.076V14.9551C17.4649 13.2589 18.8449 11.8789 20.541 11.8789C22.2372 11.8789 23.6172 13.2589 23.6172 14.9551V28.076C23.6172 28.2288 23.6965 28.3706 23.8267 28.4506C25.7134 29.6091 26.8399 31.6173 26.8399 33.8223C26.8399 35.3986 26.2522 36.9082 25.1852 38.073C25.0213 38.252 25.0335 38.5299 25.2124 38.6939C25.3914 38.8579 25.6694 38.8457 25.8333 38.6667C27.0492 37.3395 27.7188 35.619 27.7188 33.8223C27.7188 31.3695 26.473 29.1458 24.4961 27.8352Z" fill="white"/>
<path d="M22.7384 28.869C22.7384 28.2625 22.7384 18.1235 22.7384 17.5291C22.7384 17.5265 22.738 17.5241 22.738 17.5214C22.7338 17.2829 22.5394 17.0897 22.2978 17.0897H19.9551H19.2227V16.2108H19.9551C20.1979 16.2108 20.3946 16.0141 20.3946 15.7713C20.3946 15.5286 20.1979 15.3319 19.9551 15.3319H19.2227V14.9551C19.2227 14.2339 19.8091 13.6367 20.5411 13.6367C21.2678 13.6367 21.8595 14.2287 21.8595 14.9551V15.7713C21.8595 16.0139 22.0563 16.2107 22.2989 16.2107C22.5409 16.2107 22.7384 16.0139 22.7384 15.7713V14.9551C22.7371 13.7425 21.7573 12.759 20.5411 12.7578C19.3222 12.759 18.3438 13.7462 18.3438 14.9551V28.869C16.4042 29.7332 15.1212 31.6862 15.1212 33.8223C15.1212 36.8108 17.5525 39.2422 20.5411 39.2422C23.5297 39.2422 25.961 36.8108 25.961 33.8223C25.961 31.6862 24.6779 29.7332 22.7384 28.869ZM20.5411 38.3633C18.0372 38.3633 16.0001 36.3262 16.0001 33.8223C16.0001 31.9467 17.1811 30.2395 18.9388 29.5742C19.1097 29.5095 19.2227 29.3459 19.2227 29.1631V26.7576H19.9551C20.1979 26.7576 20.3946 26.5609 20.3946 26.3182C20.3946 26.0754 20.1979 25.8787 19.9551 25.8787H19.2227V24.9998H19.9551C20.1979 24.9998 20.3946 24.8031 20.3946 24.5604C20.3946 24.3176 20.1979 24.1209 19.9551 24.1209H19.2227V23.242H19.9551C20.1979 23.242 20.3946 23.0453 20.3946 22.8025C20.3946 22.5598 20.1979 22.3631 19.9551 22.3631H19.2227V21.4842H19.9551C20.1979 21.4842 20.3946 21.2875 20.3946 21.0447C20.3946 20.802 20.1979 20.6053 19.9551 20.6053H19.2227V19.7264H19.9551C20.1979 19.7264 20.3946 19.5297 20.3946 19.2869C20.3946 19.0442 20.1979 18.8475 19.9551 18.8475H19.2227V17.9686H19.9551H21.8595V29.1631C21.8595 29.3458 21.9725 29.5094 22.1433 29.5742C23.9011 30.2395 25.0821 31.9467 25.0821 33.8223C25.0821 36.3262 23.045 38.3633 20.5411 38.3633Z" fill="white"/>
<path d="M17.9629 32.5625C17.7202 32.5625 17.5235 32.7593 17.5235 33.002V33.5879C17.5235 33.8306 17.7202 34.0273 17.9629 34.0273C18.2056 34.0273 18.4024 33.8306 18.4024 33.5879V33.002C18.4024 32.7593 18.2056 32.5625 17.9629 32.5625Z" fill="white"/>
<path d="M23.1192 34.0273C23.3619 34.0273 23.5586 33.8306 23.5586 33.5879V33.002C23.5586 32.7593 23.3619 32.5625 23.1192 32.5625C22.8765 32.5625 22.6797 32.7593 22.6797 33.002V33.5879C22.6797 33.8306 22.8765 34.0273 23.1192 34.0273Z" fill="white"/>
<path d="M20.0293 33.8672C19.9246 33.6483 19.6621 33.5557 19.4433 33.6603C19.2243 33.765 19.1317 34.0274 19.2364 34.2463C19.4792 34.7541 20.0028 35.0822 20.5703 35.0822C21.1379 35.0822 21.6615 34.7541 21.9043 34.2463C22.009 34.0274 21.9163 33.765 21.6974 33.6603C21.4784 33.5555 21.216 33.6483 21.1114 33.8672C21.0138 34.0714 20.8014 34.2033 20.5703 34.2033C20.3393 34.2033 20.1269 34.0714 20.0293 33.8672Z" fill="white"/>
</g>
<defs>
<clipPath id="clip0">
<rect width="30" height="30" fill="white" transform="translate(9 11)"/>
</clipPath>
</defs>
</svg>
