<svg width="46" height="46" viewBox="0 0 46 46" fill="none" xmlns="http://www.w3.org/2000/svg">
<circle cx="23" cy="23" r="23" fill="url(#paint0_linear)"/>
<path d="M16.9434 17.5299C16.7612 17.3821 16.4938 17.41 16.3459 17.5922C16.1743 17.8038 15.9468 17.9203 15.7052 17.9203C15.4635 17.9203 15.236 17.8038 15.0644 17.5922C14.9166 17.41 14.649 17.3821 14.4669 17.5299C14.2847 17.6776 14.2567 17.9452 14.4045 18.1274C14.7357 18.5357 15.2098 18.77 15.7052 18.77C16.2005 18.77 16.6746 18.5357 17.0058 18.1274C17.1536 17.9452 17.1257 17.6776 16.9434 17.5299Z" fill="white"/>
<path d="M13.7637 15.0082C13.5291 15.0082 13.3389 15.1984 13.3389 15.433V15.9183C13.3389 16.1529 13.5291 16.3431 13.7637 16.3431C13.9983 16.3431 14.1885 16.1529 14.1885 15.9183V15.433C14.1885 15.1984 13.9983 15.0082 13.7637 15.0082Z" fill="white"/>
<path d="M17.6466 15.0082C17.412 15.0082 17.2218 15.1984 17.2218 15.433V15.9183C17.2218 16.1529 17.4119 16.3431 17.6466 16.3431C17.8812 16.3431 18.0714 16.1529 18.0714 15.9183V15.433C18.0714 15.1984 17.8812 15.0082 17.6466 15.0082Z" fill="white"/>
<path d="M31.0187 19.9566C30.8365 19.8088 30.569 19.8367 30.4212 20.0189C30.2496 20.2305 30.022 20.3471 29.7804 20.3471C29.5388 20.3471 29.3113 20.2305 29.1397 20.0189C28.9919 19.8367 28.7244 19.8088 28.5422 19.9566C28.3599 20.1044 28.3321 20.3719 28.4798 20.5541C28.811 20.9625 29.2851 21.1967 29.7804 21.1967C30.2758 21.1967 30.7498 20.9625 31.081 20.5541C31.2288 20.3719 31.2009 20.1044 31.0187 19.9566Z" fill="white"/>
<path d="M27.839 17.4352C27.6044 17.4352 27.4142 17.6254 27.4142 17.86V18.3453C27.4142 18.5799 27.6044 18.7701 27.839 18.7701C28.0736 18.7701 28.2638 18.5799 28.2638 18.3453V17.86C28.2638 17.6254 28.0736 17.4352 27.839 17.4352Z" fill="white"/>
<path d="M31.7219 17.4352C31.4873 17.4352 31.2971 17.6254 31.2971 17.86V18.3453C31.2971 18.5799 31.4872 18.7701 31.7219 18.7701C31.9565 18.7701 32.1467 18.5799 32.1467 18.3453V17.86C32.1467 17.6254 31.9565 17.4352 31.7219 17.4352Z" fill="white"/>
<path d="M35.8178 25.8356L32.4898 24.5044C32.4718 24.4972 32.4551 24.488 32.4383 24.4792C34.7369 23.9562 35.8255 23.0815 35.8739 23.0419C35.9888 22.9477 36.0462 22.8004 36.0252 22.6533C36.0203 22.6196 35.544 19.2472 35.544 15.9184C35.544 12.7403 32.9584 10.1547 29.7803 10.1547C26.6022 10.1547 24.0166 12.7403 24.0166 15.9184C24.0166 16.7892 23.9771 17.8543 23.9128 18.8626L22.9854 19.3263L20.2632 17.9653C20.2554 17.9614 20.2472 17.9585 20.2392 17.9551C20.3687 17.5777 20.4534 17.1798 20.4845 16.7668C21.0539 16.5909 21.4688 16.0595 21.4688 15.4331C21.4688 15.0112 21.2803 14.6327 20.9834 14.3766V11.5502C20.9834 10.7694 20.5889 10.0388 19.942 9.59985C19.7228 8.78536 18.991 8.21323 18.1318 8.21323H14.249C12.1414 8.21323 10.4267 9.92792 10.4267 12.0355V14.3765C10.1298 14.6326 9.94131 15.0111 9.94131 15.433C9.94131 16.0595 10.3562 16.5908 10.9256 16.7667C11.0329 18.1929 11.7679 19.446 12.8535 20.2524V21.4266L9.34035 22.4805C8.53866 22.7211 8 23.445 8 24.282V29.0229C8 29.2576 8.1902 29.4478 8.42481 29.4478H8.48536V34.3619C8.48536 34.5965 8.67556 34.7867 8.91016 34.7867C9.14477 34.7867 9.33497 34.5965 9.33497 34.3619V29.4478H10.9121V34.3619C10.9121 34.5965 11.1023 34.7867 11.3369 34.7867C11.5716 34.7867 11.7618 34.5965 11.7618 34.3619V27.0371C11.7618 26.6645 11.6525 26.3037 11.4459 25.9937L10.7197 24.9045C10.5896 24.7093 10.3258 24.6566 10.1307 24.7867C9.93542 24.9168 9.88269 25.1805 10.0128 25.3758L10.739 26.465C10.8523 26.635 10.9122 26.8328 10.9122 27.0371V28.5981H8.91016H8.84961V24.282C8.84961 23.8231 9.14494 23.4262 9.58459 23.2943L11.0429 22.8568C11.5508 24.9832 13.4794 26.5356 15.7052 26.5356C16.5048 26.5356 17.2813 26.3384 17.9767 25.9633C18.2308 26.31 18.6407 26.5356 19.1026 26.5356H19.1631V26.5962C19.1631 28.0203 19.9466 29.2641 21.1046 29.9217V30.6146C21.1046 30.6406 21.0879 30.6637 21.0632 30.672L19.4785 31.2002C18.7093 31.4566 18.1924 32.1737 18.1924 32.9846V34.3619C18.1924 34.5965 18.3826 34.7867 18.6172 34.7867C18.8518 34.7867 19.042 34.5965 19.042 34.3619V32.9846C19.042 32.54 19.3254 32.1468 19.7472 32.0063L20.2131 31.8509C20.8296 32.7703 21.8664 33.3307 22.9854 33.3307C24.1055 33.3307 25.1414 32.7707 25.7577 31.851L26.2236 32.0063C26.6454 32.1469 26.9287 32.54 26.9287 32.9846V34.3619C26.9287 34.5965 27.1189 34.7867 27.3535 34.7867C27.5881 34.7867 27.7783 34.5965 27.7783 34.3619V32.9846C27.7783 32.1737 27.2615 31.4566 26.4923 31.2003L24.9076 30.672C24.8829 30.6638 24.8662 30.6407 24.8662 30.6146V29.9217C25.7332 29.4294 26.3895 28.6083 26.6647 27.6288C27.4675 28.4688 28.5887 28.9625 29.7803 28.9625C31.6614 28.9625 33.312 27.7465 33.8806 25.9759L35.5021 26.6245C35.896 26.7821 36.1504 27.1579 36.1504 27.582V29.5689H36.0898H34.5732V29.023C34.5732 28.7884 34.383 28.5982 34.1484 28.5982C33.9138 28.5982 33.7236 28.7884 33.7236 29.023V34.3619C33.7236 34.5965 33.9138 34.7867 34.1484 34.7867C34.383 34.7867 34.5732 34.5965 34.5732 34.3619V30.4185H35.665V34.3619C35.665 34.5965 35.8552 34.7867 36.0898 34.7867C36.3244 34.7867 36.5146 34.5965 36.5146 34.3619V30.4185H36.5752C36.6879 30.4185 36.7959 30.3738 36.8756 30.2941C36.9553 30.2144 37 30.1064 37 29.9937V27.582C37.0002 26.8084 36.5361 26.1229 35.8178 25.8356ZM24.8663 15.9184C24.8663 13.2087 27.0708 11.0043 29.7804 11.0043C32.4901 11.0043 34.6945 13.2087 34.6945 15.9184C34.6945 18.771 35.038 21.6546 35.1497 22.5159C34.769 22.7649 33.7943 23.3134 32.1467 23.6739V22.9979C32.3723 22.87 32.5884 22.724 32.7915 22.5599C33.6274 21.8842 34.2181 20.9379 34.4546 19.8954C34.5335 19.548 34.5734 19.1897 34.5734 18.8306C34.5734 16.4295 32.837 16.0848 31.1577 15.7514C30.0892 15.5393 28.9843 15.3199 28.1044 14.616C27.9769 14.514 27.8022 14.4941 27.655 14.5649C27.5078 14.6356 27.4143 14.7844 27.4143 14.9478C27.4143 14.9591 27.3957 16.0768 25.7946 16.4771C25.567 16.534 25.4286 16.7647 25.4855 16.9923C25.5424 17.2199 25.7731 17.3582 26.0007 17.3014C27.3408 16.9664 27.8875 16.2146 28.1104 15.6497C29.0316 16.1956 30.0636 16.4005 30.9923 16.5848C32.7872 16.9411 33.7238 17.2029 33.7238 18.8306C33.7238 19.1266 33.6909 19.4216 33.6261 19.7074C33.4315 20.5646 32.9455 21.343 32.2573 21.8992C31.5493 22.4715 30.6928 22.774 29.7804 22.774C28.9487 22.774 28.1572 22.5189 27.4854 22.0368C27.2393 21.3651 26.844 20.7505 26.3224 20.2442V18.3453C26.3224 18.198 26.2461 18.0613 26.1209 17.9839C25.9957 17.9065 25.8394 17.8995 25.7076 17.9653L24.7904 18.4239C24.8407 17.5392 24.8663 16.6981 24.8663 15.9184ZM25.4728 19.0325V20.5699L23.9353 19.8012L25.4728 19.0325ZM20.4981 19.0325L22.0355 19.8012L20.4981 20.5699V19.0325ZM18.1924 23.684V24.0875C17.8883 24.3501 17.7071 24.7345 17.7071 25.14C17.102 25.4975 16.4147 25.686 15.7051 25.686C13.8572 25.686 12.2586 24.3856 11.8586 22.6121L12.9081 22.2972C13.167 23.605 14.3225 24.5942 15.7052 24.5942C16.803 24.5942 17.7573 23.9702 18.2337 23.0585C18.2064 23.2648 18.1924 23.4737 18.1924 23.684ZM13.7032 21.7419V20.7579C14.3127 21.0394 14.9909 21.1967 15.7052 21.1967C16.4194 21.1967 17.0976 21.0393 17.7071 20.758V21.7425C17.7071 22.8464 16.8091 23.7445 15.7052 23.7445C14.6031 23.7445 13.7063 22.8494 13.7033 21.748C13.7033 21.7459 13.7032 21.7439 13.7032 21.7419ZM15.7052 20.3471C13.5307 20.3471 11.7618 18.5781 11.7618 16.4037C11.7618 16.1691 11.5716 15.9789 11.3369 15.9789C11.036 15.9789 10.791 15.734 10.791 15.433C10.791 15.132 11.0359 14.8871 11.3369 14.8871H12.3077C12.4905 14.8871 12.6528 14.7702 12.7107 14.5967L13.1006 13.4269C14.0768 13.4049 17.1031 13.2676 18.8072 12.4155C19.0171 12.3106 19.1021 12.0555 18.9972 11.8456C18.8923 11.6358 18.6372 11.5507 18.4273 11.6556C16.5988 12.5698 12.8307 12.5815 12.7929 12.5815C12.6101 12.5815 12.4477 12.6985 12.39 12.872L12.0015 14.0376H11.3369C11.3167 14.0376 11.2965 14.0382 11.2764 14.0391V12.0355C11.2764 10.3964 12.61 9.06284 14.2491 9.06284H18.1319C18.6392 9.06284 19.0654 9.42846 19.1454 9.93211C19.1657 10.0601 19.2434 10.1718 19.3563 10.2355C19.8359 10.506 20.1339 11.0097 20.1339 11.5501V14.039C20.1138 14.0381 20.0937 14.0374 20.0734 14.0374H19.588C19.3534 14.0374 19.1632 14.2276 19.1632 14.4623C19.1632 14.6969 19.3534 14.8871 19.588 14.8871H20.0734C20.3744 14.8871 20.6193 15.1319 20.6193 15.433C20.6193 15.734 20.3744 15.9789 20.0734 15.9789C19.8388 15.9789 19.6486 16.1691 19.6486 16.4037C19.6486 18.5781 17.8796 20.3471 15.7052 20.3471ZM18.5567 21.7427V20.2524C18.9793 19.9385 19.3486 19.5571 19.6485 19.1237V20.2441C19.1728 20.706 18.8019 21.2577 18.5537 21.8608C18.5553 21.8216 18.5567 21.7822 18.5567 21.7427ZM24.91 31.5683C24.4424 32.1397 23.7398 32.481 22.9854 32.481C22.232 32.481 21.529 32.1394 21.0611 31.5683L21.3319 31.478C21.7041 31.354 21.9542 31.007 21.9542 30.6146V30.276C22.2825 30.3682 22.6282 30.4185 22.9855 30.4185C23.3428 30.4185 23.6885 30.3682 24.0168 30.276V30.6146C24.0167 31.0069 24.2668 31.3539 24.6391 31.478L24.91 31.5683ZM26.383 25.686C26.1484 25.686 25.9582 25.8762 25.9582 26.1108V26.5332C25.9582 26.5369 25.9581 26.5405 25.9582 26.5442V26.5962C25.9581 28.2353 24.6246 29.5688 22.9854 29.5688C21.3463 29.5688 20.0128 28.2353 20.0128 26.5962V26.1108C20.0128 25.8762 19.8226 25.686 19.588 25.686H19.1026C18.8017 25.686 18.5567 25.4411 18.5567 25.1401C18.5567 24.9464 18.6593 24.7711 18.8309 24.6712C18.8693 24.6488 18.9026 24.6206 18.9315 24.5886C19.9817 24.5582 23.3857 24.3606 25.623 23.0822C25.8267 22.9658 25.8975 22.7063 25.7811 22.5026C25.6647 22.2988 25.4051 22.2281 25.2015 22.3445C23.2416 23.4644 20.1619 23.6886 19.0421 23.7334V23.684C19.0421 22.8939 19.2813 22.1288 19.7149 21.4837C19.7488 21.5374 19.7942 21.5841 19.85 21.6186C19.9183 21.6608 19.9957 21.6821 20.0734 21.6821C20.1383 21.6821 20.2034 21.6672 20.2633 21.6372L22.9855 20.2761L25.7077 21.6372C25.7676 21.6672 25.8327 21.6821 25.8976 21.6821C25.9753 21.6821 26.0528 21.6608 26.121 21.6186C26.1768 21.5841 26.2221 21.5374 26.2561 21.4837C26.6896 22.1288 26.9288 22.8939 26.9288 23.684V24.304C26.9288 24.4552 27.0092 24.5951 27.14 24.6712C27.3117 24.7711 27.4143 24.9464 27.4143 25.1401C27.4143 25.4411 27.1693 25.686 26.8683 25.686H26.383ZM29.7804 28.1128C28.6043 28.1128 27.5132 27.514 26.878 26.5354C27.643 26.5301 28.2638 25.9063 28.2638 25.1402C28.2638 24.7346 28.0826 24.3502 27.7785 24.0875V23.6841C27.7785 23.5131 27.7692 23.343 27.7512 23.1746C28.3811 23.4699 29.0688 23.6235 29.7804 23.6235C30.2984 23.6235 30.8107 23.5377 31.297 23.3754V23.9975C31.297 24.5715 31.6414 25.0801 32.1742 25.2933L33.0903 25.6597C32.6513 27.1113 31.3106 28.1128 29.7804 28.1128Z" fill="white"/>
<path d="M24.2238 27.2369C24.0416 27.0891 23.774 27.117 23.6263 27.2992C23.4546 27.5108 23.2271 27.6273 22.9855 27.6273C22.7439 27.6273 22.5163 27.5108 22.3447 27.2992C22.1969 27.117 21.9294 27.0891 21.7472 27.2369C21.565 27.3846 21.5371 27.6522 21.6848 27.8344C22.0161 28.2427 22.4901 28.477 22.9855 28.477C23.4809 28.477 23.9549 28.2428 24.2861 27.8344C24.4339 27.6522 24.4059 27.3846 24.2238 27.2369Z" fill="white"/>
<path d="M21.5372 26.0521C21.7718 26.0521 21.962 25.8619 21.962 25.6273C21.962 25.3927 21.7718 25.2025 21.5372 25.2025C21.3026 25.2025 21.1124 25.3927 21.1124 25.6273C21.1124 25.8619 21.3026 26.0521 21.5372 26.0521Z" fill="white"/>
<path d="M24.4259 26.0521C24.6605 26.0521 24.8507 25.8619 24.8507 25.6273C24.8507 25.3927 24.6605 25.2025 24.4259 25.2025C24.1913 25.2025 24.0011 25.3927 24.0011 25.6273C24.0011 25.8619 24.1913 26.0521 24.4259 26.0521Z" fill="white"/>
<defs>
<linearGradient id="paint0_linear" x1="0" y1="0" x2="51.4762" y2="52.5714" gradientUnits="userSpaceOnUse">
<stop stop-color="#FF5C01"/>
<stop offset="1" stop-color="#FFBB01"/>
</linearGradient>
</defs>
</svg>
