<svg width="32" height="32" viewBox="0 0 32 32" fill="none" xmlns="http://www.w3.org/2000/svg">
<g clip-path="url(#clip0)">
<path d="M31.3333 15.3329H0.666687C0.298687 15.3329 0 15.6316 0 15.9996C0 16.3676 0.298687 16.6663 0.666687 16.6663H31.3334C31.7014 16.6663 32.0001 16.3676 32.0001 15.9996C32.0001 15.6316 31.7013 15.3329 31.3333 15.3329Z" fill="white"/>
<path d="M31.804 15.5287L21.1373 4.86211C20.8773 4.60211 20.4546 4.60211 20.1946 4.86211C19.9346 5.12211 19.9346 5.5448 20.1946 5.8048L30.8613 16.4715C30.992 16.6008 31.1626 16.6662 31.3333 16.6662C31.504 16.6662 31.6746 16.6009 31.804 16.4715C32.064 16.2114 32.064 15.7887 31.804 15.5287Z" fill="white"/>
<path d="M31.8039 15.5287C31.5439 15.2687 31.1213 15.2687 30.8613 15.5287L20.1946 26.1954C19.9346 26.4554 19.9346 26.8781 20.1946 27.1381C20.3253 27.2674 20.4959 27.3328 20.6666 27.3328C20.8373 27.3328 21.0079 27.2675 21.1373 27.1381L31.804 16.4714C32.0639 16.2114 32.0639 15.7887 31.8039 15.5287Z" fill="white"/>
</g>
<defs>
<clipPath id="clip0">
<rect width="32" height="32" fill="white"/>
</clipPath>
</defs>
</svg>
