<svg width="80" height="81" viewBox="0 0 80 81" fill="none" xmlns="http://www.w3.org/2000/svg">
<path d="M63.3573 32.3578C61.0964 32.3733 58.8592 32.8207 56.7662 33.676L53.965 28.2384V19.5875C53.9626 19.3339 53.8822 19.0872 53.7348 18.8809C53.5874 18.6745 53.3802 18.5185 53.1411 18.434L46.5499 15.9623C46.397 15.9017 46.2334 15.8724 46.069 15.8763C45.9045 15.8802 45.7425 15.9172 45.5926 15.985C45.4428 16.0529 45.3081 16.1502 45.1966 16.2712C45.0852 16.3922 44.9992 16.5344 44.9439 16.6893C44.8885 16.8443 44.865 17.0087 44.8745 17.173C44.8841 17.3372 44.9267 17.4978 44.9997 17.6453C45.0727 17.7927 45.1746 17.9239 45.2994 18.0311C45.4242 18.1383 45.5693 18.2193 45.726 18.2692L51.5757 20.4114V27.4145H27.4356V25.0252H30.4016C30.7294 25.0252 31.0437 24.895 31.2755 24.6632C31.5073 24.4314 31.6375 24.1171 31.6375 23.7893C31.6375 23.4616 31.5073 23.1472 31.2755 22.9155C31.0437 22.6837 30.7294 22.5535 30.4016 22.5535H22.7394C22.4117 22.5535 22.0973 22.6837 21.8656 22.9155C21.6338 23.1472 21.5036 23.4616 21.5036 23.7893C21.5036 24.1171 21.6338 24.4314 21.8656 24.6632C22.0973 24.895 22.4117 25.0252 22.7394 25.0252H24.9639V28.4031L22.5747 33.5937C20.6895 32.8325 18.6756 32.4409 16.6426 32.4402C12.2287 32.4402 7.99561 34.1936 4.87451 37.3147C1.75341 40.4358 0 44.6689 0 49.0828C0 53.4967 1.75341 57.7299 4.87451 60.851C7.99561 63.9721 12.2287 65.7255 16.6426 65.7255C25.3759 65.7255 32.5438 58.8872 33.2029 50.3187H38.5582C38.7509 50.3238 38.9419 50.2814 39.1143 50.1951C39.2868 50.1089 39.4353 49.9816 39.5469 49.8243L52.482 31.122L54.5417 34.9943C49.8455 37.7955 46.7147 43.0684 46.7147 49.0005C46.7147 52.2921 47.6908 55.5097 49.5195 58.2466C51.3482 60.9835 53.9474 63.1166 56.9885 64.3762C60.0295 65.6359 63.3758 65.9655 66.6042 65.3233C69.8325 64.6811 72.798 63.0961 75.1255 60.7686C77.453 58.4411 79.038 55.4756 79.6802 52.2473C80.3224 49.0189 79.9928 45.6726 78.7331 42.6316C77.4735 39.5905 75.3404 36.9913 72.6035 35.1626C69.8666 33.3339 66.649 32.3578 63.3573 32.3578ZM16.6426 63.1714C12.8843 63.1714 9.27982 61.6784 6.62225 59.0208C3.96469 56.3633 2.47168 52.7588 2.47168 49.0005C2.47168 45.2421 3.96469 41.6376 6.62225 38.9801C9.27982 36.3225 12.8843 34.8295 16.6426 34.8295C18.3051 34.8279 19.9534 35.1352 21.5036 35.7358L15.4892 48.5061V48.5885C15.4227 48.715 15.3941 48.8581 15.4068 49.0005V49.0828C15.3941 49.2252 15.4227 49.3682 15.4892 49.4948V49.5772C15.4892 49.6596 15.4892 49.6596 15.5716 49.742C15.5716 49.8243 15.654 49.8243 15.7364 49.9067V49.9891C15.8187 50.0715 15.9835 50.1539 16.0659 50.2363H16.1483C16.2748 50.3028 16.4179 50.3314 16.5602 50.3187H30.6488C30.3559 53.8289 28.7523 57.1002 26.157 59.4817C23.5617 61.8632 20.165 63.1805 16.6426 63.1714ZM18.5376 47.7646L23.7281 36.8068C25.691 37.935 27.3526 39.5203 28.5718 41.428C29.791 43.3356 30.5318 45.5094 30.7312 47.7646H18.5376ZM37.8991 47.7646H33.1205C32.7085 42.0798 29.413 37.2188 24.7168 34.4999L26.9413 29.8038H50.2575L37.8991 47.7646ZM63.275 63.1714C59.5166 63.1714 55.9122 61.6784 53.2546 59.0208C50.597 56.3633 49.104 52.7588 49.104 49.0005C49.104 43.9747 51.7405 39.6081 55.6951 37.054L62.2039 49.5772C62.311 49.7696 62.4658 49.9313 62.6533 50.0467C62.8409 50.1621 63.0549 50.2274 63.275 50.2363C63.4762 50.22 63.6722 50.164 63.8517 50.0715C64.132 49.9149 64.3404 49.6553 64.4326 49.3478C64.5249 49.0402 64.4938 48.7088 64.346 48.4237L57.8373 35.9006C59.569 35.2136 61.4121 34.8506 63.275 34.8295C65.1359 34.8295 66.9787 35.196 68.698 35.9082C70.4173 36.6204 71.9794 37.6642 73.2953 38.9801C74.6112 40.296 75.6551 41.8582 76.3672 43.5775C77.0794 45.2968 77.4459 47.1395 77.4459 49.0005C77.4459 50.8614 77.0794 52.7041 76.3672 54.4234C75.6551 56.1427 74.6112 57.7049 73.2953 59.0208C71.9794 60.3367 70.4173 61.3806 68.698 62.0927C66.9787 62.8049 65.1359 63.1714 63.275 63.1714Z" fill="#FF3434"/>
</svg>
