<svg width="80" height="81" viewBox="0 0 80 81" fill="none" xmlns="http://www.w3.org/2000/svg">
<path d="M58.1298 31.8525C59.1213 31.8525 60.0722 31.4587 60.7733 30.7576C61.4743 30.0565 61.8682 29.1056 61.8682 28.1141C61.8682 27.1226 61.4743 26.1717 60.7733 25.4707C60.0722 24.7696 59.1213 24.3757 58.1298 24.3757H52.1113L52.1216 24.1697C52.2096 22.3395 51.5909 20.5454 50.3934 19.1584L50.2163 18.9524L50.4635 18.8391C50.6366 18.7612 50.8057 18.6746 50.9702 18.5796C51.6531 18.1877 52.2514 17.6639 52.7301 17.0387C53.2089 16.4136 53.5586 15.6995 53.759 14.938L53.9877 14.0853C54.2077 13.3206 54.2731 12.5198 54.18 11.7296C54.0869 10.9394 53.8372 10.1757 53.4455 9.48312C53.0538 8.79056 52.5279 8.18305 51.8986 7.69611C51.2694 7.20917 50.5493 6.85258 49.7806 6.64719C49.0119 6.4418 48.21 6.39174 47.4217 6.49992C46.6334 6.60811 45.8746 6.87237 45.1897 7.27726C44.5047 7.68215 43.9074 8.21954 43.4326 8.858C42.9578 9.49647 42.615 10.2232 42.4243 10.9957L42.1957 11.8464C41.9904 12.6058 41.9377 13.3983 42.0406 14.1782C42.1435 14.9581 42.3999 15.7099 42.7951 16.3901C42.8507 16.4869 42.9104 16.5837 42.9743 16.6785L43.1226 16.9071L42.8631 16.9874C42.316 17.1579 41.7912 17.393 41.2997 17.6878C40.6506 18.0749 40.0672 18.563 39.5716 19.1337L39.5284 19.1708L34.9455 22.1718C34.339 22.5654 33.8943 23.164 33.6928 23.8583C33.4912 24.5526 33.5462 25.2963 33.8476 25.9535L36.0227 30.7547L34.826 35.8896C34.8084 35.9687 34.7994 36.0495 34.7992 36.1306V47.9761C34.7986 48.2326 34.885 48.4816 35.0443 48.6826L35.0896 48.7382V54.18H26.6653L26.6097 54.1368C26.411 53.9797 26.1648 53.8947 25.9115 53.8958H22.4511C21.3675 53.8969 20.3285 54.3277 19.562 55.0938C18.7955 55.8599 18.3642 56.8986 18.3625 57.9823V66.351C18.3631 66.6533 18.4836 66.943 18.6975 67.1565C18.9114 67.3701 19.2014 67.49 19.5036 67.49H20.653C22.1199 67.4844 23.5409 66.9777 24.6805 66.054C25.82 65.1302 26.6097 63.8448 26.9187 62.4107L26.9537 62.248H39.4007C40.7066 62.2492 41.9793 61.8367 43.0362 61.0696C44.0931 60.3024 44.8797 59.2202 45.2832 57.9782L45.411 57.5889L45.9794 58.3901V66.6435L45.9197 66.7032C45.7145 66.9153 45.6 67.199 45.6004 67.4941V70.9627C45.6015 72.0462 46.0324 73.085 46.7986 73.8511C47.5647 74.6173 48.6035 75.0481 49.687 75.0492H58.0556C58.3579 75.0487 58.6476 74.9282 58.8612 74.7143C59.0747 74.5004 59.1947 74.2104 59.1947 73.9081V72.7609C59.1982 71.396 58.7643 70.0659 57.9565 68.9657C57.1488 67.8655 56.0098 67.0531 54.7065 66.6476L54.5623 66.6023V55.5353C54.5622 54.1852 54.3488 52.8436 53.93 51.5601L52.2657 46.4725L49.8353 36.1162L50.6839 31.8525H58.1298ZM24.7621 61.0884C24.7635 62.1462 24.3578 63.1639 23.6293 63.9308C22.9007 64.6977 21.9051 65.1549 20.8486 65.2078L20.6427 65.2181V57.9864C20.6432 57.5071 20.834 57.0477 21.1731 56.709C21.5122 56.3703 21.9718 56.18 22.4511 56.18H24.7786L24.7621 61.0884ZM44.4079 12.4293L44.6344 11.5786C44.9107 10.6541 45.5365 9.87374 46.3789 9.40324C47.2213 8.93275 48.2139 8.8092 49.1459 9.05883C50.078 9.30846 50.876 9.91161 51.3704 10.7402C51.8649 11.5687 52.0169 12.5574 51.7941 13.4962L51.5654 14.3469C51.3167 15.2712 50.7201 16.0636 49.9004 16.5581C49.0808 17.0526 48.1016 17.2108 47.1679 16.9998C47.0505 16.9627 46.9496 16.9339 46.8445 16.9051H46.8033C45.9097 16.6036 45.1644 15.973 44.7194 15.1414C44.2744 14.3099 44.163 13.34 44.4079 12.4293ZM35.9238 25.0163C35.8499 24.8542 35.8365 24.6709 35.886 24.4998C35.9355 24.3286 36.0446 24.1809 36.1936 24.0832L37.827 23.0122L36.8692 27.111L35.9238 25.0163ZM43.2997 56.0647C43.2997 57.1026 42.8874 58.098 42.1535 58.8319C41.4196 59.5659 40.4242 59.9782 39.3862 59.9782H27.0505V56.4766H36.2307C36.5326 56.4761 36.822 56.3559 37.0355 56.1424C37.249 55.9289 37.3692 55.6395 37.3698 55.3376V49.1193H43.2997V56.0647ZM43.4707 46.8391H37.0752V37.2758H45.0258L43.4707 46.8391ZM56.9022 72.557L56.9125 72.7732H49.6787C49.2 72.7721 48.7411 72.5815 48.4026 72.243C48.0641 71.9044 47.8734 71.4456 47.8723 70.9669V68.6373H52.7807C53.8398 68.6355 54.859 69.0418 55.6265 69.7717C56.394 70.5016 56.8508 71.4991 56.9022 72.557ZM50.3811 48.0688L51.7529 52.2686C52.0987 53.323 52.2746 54.4257 52.274 55.5353V66.3572H48.2493V58.0297C48.2499 57.794 48.178 57.5639 48.0433 57.3706L45.5716 53.8999V48.9339L50.3811 48.0688ZM45.825 46.5734L47.3389 37.2758H47.7508L49.7652 45.8628L45.825 46.5734ZM48.1483 29.5724C47.2708 29.569 46.4178 29.2829 45.7158 28.7564C45.0138 28.2299 44.5003 27.4911 44.2513 26.6496C44.2147 26.5001 44.1481 26.3596 44.0558 26.2365C43.9634 26.1134 43.847 26.0102 43.7137 25.9332C43.5804 25.8562 43.433 25.807 43.2801 25.7885C43.1273 25.77 42.9723 25.7826 42.8245 25.8256C42.6767 25.8686 42.5391 25.941 42.42 26.0385C42.301 26.1361 42.2028 26.2567 42.1316 26.3931C42.0603 26.5296 42.0174 26.679 42.0054 26.8325C41.9934 26.986 42.0126 27.1403 42.0618 27.2861C42.4497 28.5919 43.245 29.7394 44.3316 30.561C45.4181 31.3825 46.7389 31.8351 48.101 31.8525H48.3502L47.7323 34.9936H37.3759L40.241 22.7053C40.4036 21.9949 40.7255 21.3307 41.1823 20.7629L41.2173 20.7197C41.5733 20.288 42.0003 19.9202 42.48 19.6321C43.578 18.9708 44.8937 18.7723 46.138 19.0801H46.1525L46.4429 19.1666H46.4655H46.5088C47.6396 19.5398 48.5951 20.3133 49.1956 21.3417C49.796 22.37 50.0001 23.5823 49.7693 24.7506L49.6664 25.2779C49.6334 25.4431 49.6376 25.6135 49.6785 25.7769C49.7195 25.9403 49.7963 26.0926 49.9033 26.2227C50.0104 26.3528 50.145 26.4575 50.2974 26.5292C50.4499 26.6009 50.6163 26.6378 50.7848 26.6373H58.138C58.5248 26.6373 58.8957 26.7909 59.1692 27.0644C59.4427 27.3379 59.5963 27.7088 59.5963 28.0956C59.5963 28.4823 59.4427 28.8533 59.1692 29.1267C58.8957 29.4002 58.5248 29.5539 58.138 29.5539L48.1483 29.5724Z" fill="#FF3434"/>
<path d="M41.551 73.9233C41.551 74.2255 41.431 74.5155 41.2175 74.7294C41.0039 74.9433 40.7142 75.0638 40.4119 75.0644H23.9341C23.7803 75.0709 23.6268 75.0462 23.4827 74.9919C23.3387 74.9376 23.2072 74.8546 23.096 74.7481C22.9849 74.6416 22.8965 74.5137 22.8361 74.3721C22.7757 74.2306 22.7445 74.0782 22.7445 73.9243C22.7445 73.7704 22.7757 73.618 22.8361 73.4764C22.8965 73.3349 22.9849 73.207 23.096 73.1005C23.2072 72.994 23.3387 72.911 23.4827 72.8567C23.6268 72.8023 23.7803 72.7777 23.9341 72.7842H40.4119C40.7139 72.7848 41.0033 72.905 41.2167 73.1184C41.4302 73.3319 41.5504 73.6213 41.551 73.9233Z" fill="#FF3434"/>
<path d="M20.4284 73.9233C20.4251 74.1871 20.3306 74.4416 20.161 74.6437C19.9914 74.8457 19.7572 74.9829 19.498 75.032C19.2388 75.0811 18.9706 75.039 18.7389 74.9129C18.5072 74.7868 18.3263 74.5845 18.2267 74.3402C18.1272 74.0959 18.1152 73.8247 18.1928 73.5726C18.2704 73.3204 18.4327 73.1029 18.6524 72.9569C18.8721 72.8108 19.1355 72.7452 19.398 72.7712C19.6605 72.7972 19.9059 72.9131 20.0927 73.0994C20.2005 73.2076 20.2857 73.3362 20.3433 73.4777C20.401 73.6191 20.4299 73.7706 20.4284 73.9233Z" fill="#FF3434"/>
<path d="M15.1246 36.135C15.1247 36.3985 15.0333 36.6539 14.8662 36.8576C14.699 37.0614 14.4664 37.2008 14.2079 37.2523C13.9495 37.3037 13.6812 37.2639 13.4488 37.1397C13.2163 37.0155 13.0342 36.8146 12.9333 36.5711C12.8324 36.3277 12.8191 36.0568 12.8956 35.8046C12.972 35.5524 13.1336 35.3345 13.3527 35.1881C13.5718 35.0417 13.8349 34.9758 14.0971 35.0016C14.3594 35.0274 14.6046 35.1433 14.7909 35.3296C15.004 35.5436 15.1239 35.8331 15.1246 36.135Z" fill="#FF3434"/>
<path d="M27.0505 43.6743C27.05 43.9763 26.9298 44.2657 26.7163 44.4791C26.5028 44.6926 26.2134 44.8128 25.9115 44.8134H9.05052C8.89673 44.8199 8.74321 44.7953 8.59919 44.7409C8.45517 44.6866 8.32364 44.6036 8.2125 44.4971C8.10137 44.3906 8.01293 44.2627 7.95252 44.1212C7.89211 43.9796 7.86096 43.8272 7.86096 43.6733C7.86096 43.5194 7.89211 43.367 7.95252 43.2255C8.01293 43.0839 8.10137 42.956 8.2125 42.8495C8.32364 42.743 8.45517 42.6601 8.59919 42.6057C8.74321 42.5514 8.89673 42.5267 9.05052 42.5333H25.9115C26.2138 42.5338 26.5035 42.6543 26.717 42.8682C26.9306 43.0821 27.0505 43.3721 27.0505 43.6743Z" fill="#FF3434"/>
<path d="M29.5716 36.1352C29.5716 36.4375 29.4517 36.7275 29.2382 36.9414C29.0246 37.1553 28.7349 37.2758 28.4326 37.2763H19.3616C19.2117 37.2763 19.0633 37.2468 18.9249 37.1895C18.7864 37.1321 18.6606 37.0481 18.5547 36.9421C18.4487 36.8362 18.3647 36.7104 18.3073 36.5719C18.25 36.4335 18.2205 36.2851 18.2205 36.1352C18.2205 35.9854 18.25 35.837 18.3073 35.6986C18.3647 35.5601 18.4487 35.4343 18.5547 35.3284C18.6606 35.2224 18.7864 35.1384 18.9249 35.081C19.0633 35.0237 19.2117 34.9942 19.3616 34.9942H28.4244C28.5747 34.9933 28.7238 35.0223 28.863 35.0792C29.0021 35.1362 29.1286 35.2201 29.2352 35.3262C29.3419 35.4322 29.4265 35.5583 29.4842 35.6971C29.5419 35.836 29.5716 35.9849 29.5716 36.1352Z" fill="#FF3434"/>
</svg>
