<svg width="42" height="42" viewBox="0 0 42 42" fill="none" xmlns="http://www.w3.org/2000/svg">
<path d="M16.2105 33.1579C24.7563 33.1579 31.6841 26.2301 31.6841 17.6842C31.6841 9.13834 24.7563 2.21054 16.2105 2.21054C7.66457 2.21054 0.736769 9.13834 0.736769 17.6842C0.736769 26.2301 7.66457 33.1579 16.2105 33.1579Z" fill="#288EEA"/>
<path d="M16.2105 33.8947C7.27185 33.8947 0 26.6228 0 17.6842C0 8.74561 7.27185 1.47375 16.2105 1.47375C25.1491 1.47375 32.4209 8.74561 32.4209 17.6842C32.4209 26.6228 25.1491 33.8947 16.2105 33.8947ZM16.2105 2.9473C8.08461 2.9473 1.47354 9.55815 1.47354 17.6842C1.47354 25.8103 8.0844 32.4211 16.2105 32.4211C24.3365 32.4211 30.9474 25.8103 30.9474 17.6842C30.9474 9.55815 24.3365 2.9473 16.2105 2.9473Z" fill="black"/>
<path d="M28.0001 24.3158C34.1043 24.3158 39.0527 19.3674 39.0527 13.2632C39.0527 7.15897 34.1043 2.21054 28.0001 2.21054C21.8959 2.21054 16.9474 7.15897 16.9474 13.2632C16.9474 19.3674 21.8959 24.3158 28.0001 24.3158Z" fill="#FEDA38"/>
<path d="M28.0001 25.0526C21.4993 25.0526 16.2107 19.7639 16.2107 13.2632C16.2107 6.7624 21.4993 1.47375 28.0001 1.47375C34.5008 1.47375 39.7895 6.7624 39.7895 13.2632C39.7895 19.7639 34.5008 25.0526 28.0001 25.0526ZM28.0001 2.9473C22.3121 2.9473 17.6842 7.57494 17.6842 13.2632C17.6842 18.9514 22.3119 23.579 28.0001 23.579C33.6883 23.579 38.3159 18.9514 38.3159 13.2632C38.3159 7.57494 33.6881 2.9473 28.0001 2.9473Z" fill="black"/>
<path d="M30.2106 38.3157C36.3148 38.3157 41.2632 33.3673 41.2632 27.2631C41.2632 21.1589 36.3148 16.2104 30.2106 16.2104C24.1064 16.2104 19.158 21.1589 19.158 27.2631C19.158 33.3673 24.1064 38.3157 30.2106 38.3157Z" fill="#EE5281"/>
<path d="M30.2106 39.0527C23.7098 39.0527 18.4212 33.7641 18.4212 27.2633C18.4212 20.7625 23.7098 15.4739 30.2106 15.4739C36.7114 15.4739 42 20.7625 42 27.2633C42 33.7641 36.7114 39.0527 30.2106 39.0527ZM30.2106 16.9474C24.5226 16.9474 19.8947 21.5751 19.8947 27.2633C19.8947 32.9515 24.5224 37.5792 30.2106 37.5792C35.8988 37.5792 40.5265 32.9515 40.5265 27.2633C40.5265 21.5751 35.8986 16.9474 30.2106 16.9474Z" fill="black"/>
<path d="M18.0527 39.7895C21.9187 39.7895 25.0528 36.6554 25.0528 32.7894C25.0528 28.9234 21.9187 25.7893 18.0527 25.7893C14.1867 25.7893 11.0526 28.9234 11.0526 32.7894C11.0526 36.6554 14.1867 39.7895 18.0527 39.7895Z" fill="#F97DA3"/>
<path d="M18.0527 40.5262C13.7864 40.5262 10.3159 37.0552 10.3159 32.7894C10.3159 28.5236 13.7864 25.0526 18.0527 25.0526C22.319 25.0526 25.7895 28.5236 25.7895 32.7894C25.7895 37.0552 22.319 40.5262 18.0527 40.5262ZM18.0527 26.5263C14.5992 26.5263 11.7896 29.3359 11.7896 32.7894C11.7896 36.2429 14.5992 39.0525 18.0527 39.0525C21.5062 39.0525 24.3158 36.2429 24.3158 32.7894C24.3158 29.3359 21.5062 26.5263 18.0527 26.5263Z" fill="black"/>
</svg>
