<svg width="24" height="24" viewBox="0 0 24 24" fill="none" xmlns="http://www.w3.org/2000/svg">
<path d="M18.1261 14.269C16.4579 14.269 15.1008 15.6261 15.1008 17.2943C15.1008 18.9624 16.4579 20.3195 18.1261 20.3195C19.7945 20.3195 21.1513 18.9624 21.1513 17.2943C21.1513 15.6261 19.7942 14.269 18.1261 14.269ZM18.1261 18.8069C17.2919 18.8069 16.6135 18.1284 16.6135 17.2943C16.6135 16.4601 17.2919 15.7817 18.1261 15.7817C18.9602 15.7817 19.6387 16.4601 19.6387 17.2943C19.6387 18.1285 18.9602 18.8069 18.1261 18.8069Z" fill="#3667C6"/>
<path d="M7.7899 14.269C6.12176 14.269 4.76468 15.6261 4.76468 17.2943C4.76468 18.9624 6.12176 20.3195 7.7899 20.3195C9.45804 20.3195 10.8151 18.9624 10.8151 17.2943C10.8151 15.6261 9.45804 14.269 7.7899 14.269ZM7.7899 18.8069C6.95571 18.8069 6.27729 18.1284 6.27729 17.2943C6.27729 16.4601 6.95571 15.7817 7.7899 15.7817C8.62385 15.7817 9.30251 16.4601 9.30251 17.2943C9.30251 18.1285 8.62408 18.8069 7.7899 18.8069Z" fill="#3667C6"/>
<path d="M20.1633 5.60984C20.0347 5.35447 19.7733 5.19336 19.4874 5.19336H15.5042V6.70597H19.021L21.0804 10.8021L22.4322 10.1224L20.1633 5.60984Z" fill="#3667C6"/>
<path d="M15.8572 16.563H10.1345V18.0756H15.8572V16.563Z" fill="#3667C6"/>
<path d="M5.52089 16.563H2.89907C2.48132 16.563 2.14279 16.9016 2.14279 17.3193C2.14279 17.737 2.48137 18.0756 2.89907 18.0756H5.52093C5.93868 18.0756 6.27721 17.737 6.27721 17.3193C6.27721 16.9015 5.93864 16.563 5.52089 16.563Z" fill="#3667C6"/>
<path d="M23.8411 11.9395L22.3535 10.0235C22.2105 9.83896 21.9899 9.73105 21.7562 9.73105H16.2604V4.43695C16.2604 4.0192 15.9218 3.68066 15.5041 3.68066H2.89907C2.48132 3.68066 2.14279 4.01924 2.14279 4.43695C2.14279 4.85465 2.48137 5.19323 2.89907 5.19323H14.7478V10.4873C14.7478 10.9051 15.0864 11.2436 15.5041 11.2436H21.3859L22.4873 12.6624V16.5629H20.3948C19.9771 16.5629 19.6385 16.9015 19.6385 17.3192C19.6385 17.737 19.9771 18.0755 20.3948 18.0755H23.2436C23.6613 18.0755 23.9998 17.7369 23.9999 17.3192V12.4034C23.9999 12.2354 23.9439 12.0721 23.8411 11.9395Z" fill="#3667C6"/>
<path d="M5.47063 12.731H1.99161C1.57386 12.731 1.23533 13.0695 1.23533 13.4872C1.23533 13.905 1.57391 14.2435 1.99161 14.2435H5.47058C5.88833 14.2435 6.22686 13.9049 6.22686 13.4872C6.22691 13.0695 5.88833 12.731 5.47063 12.731Z" fill="#3667C6"/>
<path d="M7.21008 9.75635H0.756281C0.338578 9.75635 0 10.0949 0 10.5127C0 10.9304 0.338578 11.269 0.756281 11.269H7.21008C7.62783 11.269 7.96636 10.9304 7.96636 10.5127C7.96636 10.095 7.62783 9.75635 7.21008 9.75635Z" fill="#3667C6"/>
<path d="M8.44541 6.78125H1.99161C1.57386 6.78125 1.23533 7.11983 1.23533 7.53753C1.23533 7.95528 1.57391 8.29381 1.99161 8.29381H8.44541C8.86316 8.29381 9.20169 7.95523 9.20169 7.53753C9.20174 7.11983 8.86316 6.78125 8.44541 6.78125Z" fill="#3667C6"/>
</svg>
