<svg width="47" height="47" viewBox="0 0 47 47" fill="none" xmlns="http://www.w3.org/2000/svg">
<circle cx="23.5" cy="23.5" r="22.5" stroke="white" stroke-width="2"/>
<path d="M28.2701 31.8218C26.6545 31.3015 24.745 30.6655 23.0804 30.6655H21.7585C18.4292 30.6655 14.2676 35.2907 14.0718 35.4642C13.876 35.6954 13.876 36.0423 14.0718 36.2736C14.1697 36.3892 14.2676 36.447 14.4145 36.447C14.5124 36.447 14.6593 36.3892 14.7572 36.2158C14.8062 36.2158 18.8209 31.764 21.7585 31.764H23.1293C24.6471 31.764 26.4586 32.4 28.0253 32.9204C28.2701 32.9781 28.5149 32.8047 28.6128 32.5157C28.6618 32.2265 28.5149 31.9375 28.2701 31.8218Z" fill="white"/>
<path d="M37.9642 20.8373C37.6704 20.7795 37.4256 21.0107 37.4256 21.3576C37.4256 21.3576 37.2787 23.3233 36.5444 25.2312C35.6141 27.7172 34.0964 28.9313 32.0401 28.9313C31.9602 28.9313 31.8878 28.9489 31.8244 28.9808C31.0302 28.9625 30.3422 28.9138 29.7393 28.8443C33.7585 26.1538 34.9354 16.1916 34.9777 15.6918C35.0267 15.4028 34.8308 15.1137 34.537 15.0559C34.2923 15.0559 34.0474 15.2871 33.9985 15.5762C33.9985 15.6919 32.5297 28.3532 27.6337 28.3532C27.5548 28.3532 27.4832 28.3704 27.4203 28.4016C27.1133 28.3168 26.8351 28.2295 26.5753 28.1442C30.8687 25.3957 31.0609 13.3577 31.0609 12.7433C31.0609 12.4543 30.8651 12.1652 30.5713 12.1652C30.2775 12.1652 30.0817 12.3964 30.0817 12.7433C30.0817 12.9168 29.8369 27.5438 24.6962 27.5438C24.6448 27.5438 24.5966 27.5512 24.5518 27.5648C24.1955 27.489 23.8383 27.4265 23.4796 27.3785C27.3095 23.6249 26.2087 12.0979 26.165 11.5292C26.116 11.1823 25.9202 10.9511 25.6264 11.0088C25.3327 11.0666 25.1368 11.3558 25.1858 11.6448C25.1858 11.8183 26.5077 25.6359 21.6117 27.2547H20.8116C23.749 22.3957 21.3611 13.4709 21.269 13.0901C21.1711 12.8011 20.8774 12.6277 20.6325 12.7432C20.3878 12.8589 20.2409 13.2057 20.3388 13.4948C20.3388 13.6103 22.9223 23.2249 19.4786 27.3441C19.1919 27.4047 18.9032 27.4948 18.6147 27.6083C20.5748 22.5441 17.9245 15.7716 17.7929 15.4606C17.6949 15.1715 17.4012 15.0559 17.1564 15.1715C16.9116 15.2872 16.8136 15.634 16.9116 15.9231C16.9116 15.9807 20.0193 23.8957 16.9961 28.4717C16.893 28.5398 16.7907 28.61 16.689 28.6816C17.5028 24.483 14.9774 18.1098 14.8553 17.7732C14.7573 17.4842 14.4636 17.3685 14.2188 17.4842C13.974 17.5998 13.8761 17.9467 13.974 18.2358C14.9455 20.6449 17.0246 27.4351 15.0971 29.9696C14.8397 30.2034 14.5947 30.4377 14.3657 30.6659C14.8064 26.7923 12.0156 21.9359 11.8688 21.7046C11.7219 21.4156 11.4281 21.3577 11.1833 21.5312C10.9875 21.7046 10.9385 22.0515 11.0854 22.2828C11.1343 22.3985 15.149 29.3362 12.6521 32.516C12.6031 32.5738 12.6031 32.5738 12.6031 32.5738C12.4073 32.805 12.4073 33.1519 12.6031 33.3832C12.7011 33.4988 12.8479 33.5566 12.9459 33.5566C13.0927 33.5566 13.1906 33.4988 13.2886 33.441C13.3375 33.3832 13.3375 33.3832 13.3375 33.3832C13.5224 33.1648 14.4602 32.0447 15.6922 30.9229C15.7071 30.9144 15.7218 30.9058 15.7365 30.8972C15.7487 30.8821 15.7598 30.8662 15.7717 30.8509C17.1369 29.6205 18.8446 28.4112 20.2898 28.4112H21.6117C23.1785 28.4112 24.6962 28.7002 26.214 29.2206C27.5359 29.6831 29.2005 30.1456 32.5298 30.1456C32.6538 30.1456 32.7599 30.104 32.8417 30.0303C37.9166 29.2868 38.405 21.5285 38.405 21.4735C38.4538 21.1263 38.2579 20.8373 37.9642 20.8373Z" fill="white"/>
</svg>
