<svg width="122" height="134" viewBox="0 0 122 134" fill="none" xmlns="http://www.w3.org/2000/svg">
<g opacity="0.8">
<path d="M3.54524 1.35957C22.069 14.6366 43.7916 28.8828 67.6712 22.8758C89.7602 17.4687 104.848 -0.791293 122.911 -13.3499C129.367 -15.5552 135.74 -18.0637 141.928 -20.8474C138.948 -16.6626 136.024 -12.2757 133.2 -7.91654C123.466 2.14002 112.693 11.1782 101.155 19.014C99.5032 20.1189 97.851 21.2239 96.1988 22.3288C70.1299 20.3548 48.4723 38.0271 30.5527 54.6741C30.1307 55.1157 30.4177 56.5578 31.0793 56.5936C44.6774 56.6656 59.276 56.0287 71.6612 49.6986C78.3174 46.2434 83.7121 40.9617 88.7207 35.46C94.2245 29.388 99.8392 23.7201 105.913 18.1433C105.913 18.1433 105.913 18.1434 105.987 18.0146C114.018 12.4442 121.58 6.35082 128.544 -0.338931C125.922 3.96482 123.402 8.24086 121.038 12.6912C102.507 25.9213 84.473 39.7753 77.3673 62.5808C71.3775 81.93 72.9976 102.885 81.1191 121.405C81.1746 121.607 81.6439 122.13 81.8916 121.845C82.5612 121.118 83.2309 120.392 83.9005 119.665C84.2492 119.352 84.0731 118.314 83.7048 117.763C95.4647 98.4606 117.832 88.5234 128.792 68.68C133.456 60.3398 134.803 51.3888 133.42 41.9916C131.917 31.7586 128.209 21.8043 128.377 11.3299C128.322 11.1279 128.367 10.8981 128.256 10.494C145.618 -17.2971 157.826 -31.3999 158.395 -32.099C159.825 -34.0122 157.463 -40.6424 155.189 -37.846C151.603 -33.4949 148.145 -29.0705 144.716 -24.545C136.416 -20.7475 127.977 -17.4551 119.427 -14.5668C99.6898 -21.971 78.6393 -29.0149 57.3095 -25.9885C47.6825 -24.6514 38.9683 -21.1749 30.8539 -15.9076C21.9868 -10.2165 13.7552 -3.39627 3.39512 -0.771794C2.66023 -0.678851 3.13132 1.0386 3.54524 1.35957ZM93.6928 23.8852C91.4621 25.2575 89.2315 26.6297 86.8721 27.9287C82.3536 29.2767 77.9327 28.2082 73.4027 27.93C79.8031 25.5226 86.5817 24.0978 93.6928 23.8852ZM71.1345 28.7694C75.6466 29.3784 80.646 30.1796 85.0911 28.9603C83.4845 29.8355 81.7769 30.7384 80.1703 31.6136C77.8842 32.7838 75.5705 33.853 73.1279 34.8488C67.4786 35.6381 61.671 35.0585 56.2889 36.4262C61.0255 33.4975 65.9464 30.8442 71.1345 28.7694ZM54.7377 37.5034C60.0921 36.0347 65.7986 36.642 71.2916 35.6784C70.1347 36.213 68.8491 36.6743 67.6922 37.2089C62.4925 37.6575 57.2472 38.3358 52.0851 39.3173C52.8834 38.6638 53.8106 38.0836 54.7377 37.5034ZM33.318 54.4588C36.7038 51.3575 40.1173 48.3573 43.7883 45.5037C46.1673 45.0684 48.6115 45.2669 50.945 45.0614C48.5302 46.1583 46.1708 47.4572 43.9124 48.7284C40.4972 50.5342 36.8244 52.1934 33.7775 54.55C33.5477 54.5044 33.4467 54.5321 33.318 54.4588ZM34.3103 54.5124C37.2857 53.479 39.9938 51.8672 42.7573 50.4574C45.1444 49.2595 47.5592 48.1626 49.8908 46.7627C47.8363 49.1729 46.0392 51.7298 44.2144 54.1856C40.8886 54.3374 37.5351 54.3883 34.3103 54.5124ZM45.179 54.1382C44.9493 54.0926 44.6462 54.1758 44.4164 54.1302C46.15 52.1339 47.9847 50.1098 49.7916 47.9848C48.3432 50.2288 47.1245 52.5183 45.179 54.1382ZM46.9063 54.099C49.7968 51.5681 51.6735 46.9255 54.1322 44.4044C54.1322 44.4044 54.1322 44.4044 54.2055 44.2757L54.3065 44.2479C54.4076 44.2202 54.3798 44.1192 54.2788 44.1469C54.2788 44.1469 54.2788 44.1469 54.1778 44.1746C54.2234 43.9449 54.0392 43.6695 53.8372 43.7249C53.5618 43.9091 53.3875 44.0655 53.1121 44.2497C53.0111 44.2774 52.9101 44.3051 52.809 44.3328C52.9101 44.3051 52.8824 44.2041 52.9834 44.1764C53.0567 44.0476 52.9458 43.6435 52.8448 43.6712C52.5695 43.8554 52.4228 44.1129 52.1475 44.297C49.6853 44.4293 47.1123 44.1574 44.66 44.7214C46.8808 42.9174 49.157 41.3153 51.4056 39.6123C56.6232 38.8329 61.8407 38.0535 67.086 37.3751C63.4866 38.9056 59.8872 40.436 56.4719 42.2418C56.3709 42.2695 56.4263 42.4716 56.5274 42.4439C61.3864 41.5456 66.1704 39.5816 70.9267 37.5165C66.3027 42.0437 63.2887 48.0845 58.4071 52.4651C54.6415 53.3894 50.8383 53.7808 46.9063 54.099ZM60.3821 52.1406C59.7759 52.3069 59.2431 52.3444 58.6369 52.5107C63.9503 48.1203 67.1109 41.822 72.0836 36.9819C72.3867 36.8988 72.5611 36.7424 72.8641 36.6592C68.0657 41.3429 66.1469 48.6041 60.3821 52.1406ZM71.2455 48.1832C68.381 49.6207 65.5344 50.7274 62.5036 51.5587C67.4781 47.913 69.5159 40.2933 74.0943 35.9959C76.004 35.0376 77.9137 34.0793 79.8511 33.222C81.3844 32.4755 82.8166 31.7568 84.3222 30.9093C80.104 36.52 77.7712 43.4603 71.9983 47.7594C71.824 47.9159 71.5486 48.1 71.2455 48.1832ZM84.3881 38.2778C85.5888 36.3191 86.6609 34.287 87.4477 32.0072L87.3923 31.8052C86.4311 34.2414 85.2124 36.5309 83.764 38.7749C80.5803 41.8207 77.2401 44.6922 73.3018 46.9674C78.5696 42.8068 80.9855 36.1696 84.7719 30.5687C86.2775 29.7212 87.8108 28.9747 89.3163 28.1272C87.943 31.4369 86.4132 34.5722 84.7547 37.6342C84.7368 37.965 84.5624 38.1214 84.3881 38.2778ZM89.2777 33.1347C88.1128 34.4319 86.8468 35.7568 85.6541 36.9529C87.368 34.093 88.8245 31.0865 89.9225 27.961C92.2819 26.662 94.6136 25.2621 96.9452 23.8621C97.0463 23.8344 97.0463 23.8344 97.175 23.9077C97.276 23.88 97.3493 23.7513 97.4227 23.6225C98.2488 23.0701 99.0015 22.6463 99.7266 22.1216C95.8634 25.4624 92.5527 29.6293 89.2777 33.1347ZM83.3254 53.0167C87.1038 48.1784 91.5732 44.6713 97.6151 42.145C100.636 40.8818 104.558 40.1319 107.799 38.4825C107.506 38.9975 107.24 39.6135 107.076 40.2017C97.8645 43.0542 89.152 47.7252 82.4734 54.6626C82.7666 54.1477 83.0322 53.5317 83.3254 53.0167ZM79.5246 61.3373C80.2659 59.2873 81.0625 57.4394 82.0612 55.5361C89.6508 49.5437 97.4621 44.3595 106.59 41.2039C104.072 46.6744 101.755 52.0894 99.4661 57.6055C92.8411 63.5505 80.0448 65.2138 76.3629 73.1759C77.0094 69.1966 78.0878 65.2075 79.5246 61.3373ZM77.3716 90.7141C76.583 91.7994 75.9509 93.0591 75.5209 94.2633C75.007 88.4297 75.0537 82.6597 75.762 76.9254C79.2204 66.9607 91.2183 65.9509 98.6238 59.6832C96.967 63.9396 95.3102 68.196 93.7545 72.4247C93.0865 74.3459 92.3176 76.2949 91.6497 78.2161C87.2831 82.8899 81.0668 85.5727 77.3716 90.7141ZM81.4742 119.135C78.6985 112.184 76.7033 104.91 75.7737 97.5614C76.9381 89.5295 85.2678 87.0274 90.4784 81.4703C86.7821 92.152 83.371 103.081 81.182 114.11C81.2097 114.211 81.2651 114.413 81.3384 114.284C84.4858 105.165 87.3023 96.0285 90.4773 87.0106C90.3573 92.9094 92.02 98.971 90.5035 104.927C86.9907 109.149 83.9928 113.665 81.8228 118.822C81.7495 118.951 81.6485 118.979 81.4742 119.135ZM91.3931 103.814C93.0285 97.4994 91.4651 90.2157 91.6209 83.6554C92.6277 80.9894 93.6344 78.3235 94.6412 75.6575C95.9135 72.3756 97.2869 69.0659 98.6879 65.8573C99.1966 68.1076 100.266 70.4214 101.426 72.2756C103.434 75.6355 105.818 78.7834 106.366 82.761C106.655 85.3975 106.181 88.0259 105.192 90.3611C100.31 94.7416 95.6032 98.9657 91.3931 103.814ZM105.963 89.6065C106.805 87.5288 107.132 85.1579 106.899 82.7235C106.154 75.6499 100.349 70.7245 99.6312 63.7519C103.083 55.7442 106.866 47.7545 110.962 40.1134C110.721 45.1762 111.832 50.4117 113.437 55.0768C116.159 63.0203 120.212 70.2728 117.477 78.5183C113.982 82.4099 109.972 86.0082 105.963 89.6065ZM118.175 77.8925C119.804 73.5351 118.979 68.5473 117.585 64.2586C116.403 60.3463 114.615 56.6003 113.535 52.6602C113.119 51.1448 112.804 49.6017 112.591 48.0309C113.08 49.4176 113.569 50.8042 114.03 52.0899C117.295 60.4277 121.882 68.8371 118.991 76.9082C118.771 77.2945 118.523 77.5796 118.175 77.8925ZM130.472 36.3914C132.969 47.8725 132.038 58.3389 125.557 68.3723C124.109 70.6163 122.504 72.6859 120.871 74.6545C121.371 70.9327 120.639 66.6797 119.964 63.8233C118.79 59.1484 116.662 54.9526 114.983 50.4163C113.12 45.6046 112.489 41.3239 112.886 36.4354C114.939 32.8308 116.891 29.2538 118.797 25.9067C121.233 39.1428 133.028 50.4634 127.481 64.6944C127.481 64.6944 127.509 64.7954 127.481 64.6944C130.146 58.9664 129.421 52.7565 127.584 46.8514C125.119 39.0545 121.406 32.2517 119.576 24.3895C121.876 20.4997 124.03 16.8673 126.111 13.3637C126.573 21.3841 128.853 28.9056 130.472 36.3914ZM117.693 18.7142C114.99 23.9093 112.388 29.0767 109.814 34.3451C109.521 34.86 109.329 35.3472 109.063 35.9632C106.777 37.1334 104.196 37.6242 101.698 38.418C98.8239 39.4236 96.0327 40.7324 93.3979 42.2155C91.1396 43.4867 88.9921 45.162 87.0743 46.883C94.9225 35.4969 105.999 26.3756 117.693 18.7142ZM39.2279 18.1856C34.3377 16.594 29.5109 14.4419 24.8308 12.0324C30.5194 12.9704 36.8384 11.4544 42.0266 9.37953C46.8106 7.41553 51.3273 4.87309 55.9549 2.73474C58.8471 1.39828 61.8502 0.465922 64.7799 -0.337701C68.4821 -0.701433 72.0278 -1.23952 75.6746 -1.8053C62.2872 4.03935 52.4283 16.4114 36.764 17.1234C44.1147 17.3883 50.8084 14.466 57.0784 10.7909C62.1181 7.77907 66.9737 4.49191 71.9124 1.50783C68.6634 3.9198 65.4976 6.63484 62.3773 9.12012C58.2566 12.3143 53.8785 15.3619 48.9103 17.0505C45.6319 18.1671 42.5358 18.3645 39.2279 18.1856ZM43.8053 19.4285C49.5101 18.8413 55.2114 15.8653 59.5896 12.8177C67.0701 7.61565 73.3822 1.32193 81.2963 -2.69554C84.3092 -3.19609 87.2943 -3.79766 90.2795 -4.39923C92.3277 -4.85242 94.376 -5.30562 96.4242 -5.75881C83.2424 2.41927 73.9198 17.1427 58.6551 20.8952C53.6297 21.1874 48.6858 20.5882 43.8053 19.4285ZM117.943 -11.6613C101.54 -0.970213 87.5226 14.0632 68.3276 19.3283C66.6101 19.7994 64.966 20.1418 63.2942 20.3831C76.5546 15.6596 86.3921 1.22943 98.2704 -6.15659C104.893 -7.75576 111.459 -9.55698 117.943 -11.6613ZM115.588 -13.5138C112.282 -12.4983 108.976 -11.4828 105.541 -10.5406C99.2425 -13.7013 93.0891 -18.3138 86.4877 -21.3913C96.3675 -19.4303 106.093 -16.4492 115.588 -13.5138ZM56.772 -22.7995C65.159 -23.9051 73.5297 -23.4855 81.8191 -22.1746C89.5872 -19.1999 96.3485 -13.5592 104.053 -10.0239C100.618 -9.08176 97.2567 -8.26832 93.794 -7.42717C86.2575 -9.16186 79.6185 -12.7722 72.7499 -16.4281C67.7845 -19.0854 62.3874 -21.7328 56.671 -22.7718C56.671 -22.7718 56.671 -22.7718 56.772 -22.7995ZM54.0622 -22.3821C61.5613 -21.1803 68.1904 -18.0018 74.9858 -14.2171C80.2363 -11.3122 85.7166 -8.36172 91.6171 -7.04729C91.0109 -6.88102 90.3771 -6.81577 89.7709 -6.64951C89.5688 -6.59408 89.3668 -6.53866 89.1647 -6.48324C85.4885 -7.2129 81.9867 -8.09902 78.4651 -9.84876C73.9692 -11.983 69.711 -14.8342 65.3617 -17.2259C61.04 -19.5165 56.3974 -21.3933 51.5822 -21.9191C52.4181 -22.0398 53.2263 -22.2615 54.0622 -22.3821ZM49.0565 -21.2263C55.9754 -20.9516 62.5312 -17.6444 68.5818 -14.1986C73.7313 -11.266 79.5897 -7.33292 85.6467 -5.84415C79.0425 -4.57576 72.3551 -3.61046 65.7411 -2.77389C56.3324 -3.01741 48.6814 -7.54506 39.701 -10.1872C36.1437 -11.2754 32.3209 -11.7476 28.7197 -11.4116C35.2275 -15.8037 41.8104 -19.1301 49.0565 -21.2263ZM27.5906 -10.776C37.897 -12.4081 48.9799 -4.47674 59.7055 -2.20462C58.6398 -2.12956 57.5741 -2.0545 56.5084 -1.97945C50.911 -3.37702 45.5791 -5.39057 40.1461 -7.3764C35.8164 -8.90446 31.4411 -10.2027 26.8378 -10.3522C27.1408 -10.4354 27.3152 -10.5918 27.5906 -10.776ZM26.0394 -9.69872C35.6502 -9.51062 43.9921 -3.65174 53.0083 -1.67114C42.0207 -0.938442 31.0867 -1.19813 20.1626 -1.02598C20.0616 -0.998264 20.0714 -0.566442 20.1724 -0.594154C32.2847 1.18898 44.8171 1.33607 57.1458 0.344156C52.4172 2.51021 47.8549 5.28242 43.5027 7.2366C35.6798 10.7945 27.9089 12.1657 19.9942 9.44846C15.2309 6.73581 10.5132 3.79337 6.09861 0.767829C13.4458 -1.35612 19.7792 -5.59178 26.0394 -9.69872Z" fill="white"/>
<path d="M104.323 80.0629C105.182 83.1948 105.508 86.3641 104.64 89.5352C104.64 89.5352 104.667 89.6362 104.64 89.5352C105.637 86.4374 105.659 82.9552 104.396 79.9342C104.34 79.7322 104.295 79.9619 104.323 80.0629Z" fill="white"/>
<path d="M102.626 75.8569C102.792 76.4631 103.059 77.0415 103.299 77.5189C103.327 77.62 103.4 77.4912 103.372 77.3902C103.206 76.784 103.04 76.1779 102.873 75.5717C102.689 75.2964 102.57 75.6549 102.626 75.8569Z" fill="white"/>
<path d="M77.1649 74.9109C80.422 71.7363 84.0473 69.1124 88.0133 66.9383C88.1144 66.9106 88.0035 66.5065 87.9302 66.6352C83.7345 68.7638 80.2101 71.3599 77.1649 74.9109C77.0362 74.8375 77.0639 74.9386 77.1649 74.9109Z" fill="white"/>
<path d="M89.6196 66.0635C90.8775 65.5012 92.0344 64.9666 93.2646 64.3033C93.3657 64.2756 93.2825 63.9725 93.1815 64.0002C91.9236 64.5625 90.8221 65.2991 89.6196 66.0635C89.5919 65.9625 89.6196 66.0635 89.6196 66.0635Z" fill="white"/>
<path d="M95.5151 63.7946C96.0202 63.6561 96.4243 63.5452 96.8007 63.3334C97.0028 63.278 96.8088 62.5708 96.6344 62.7272C96.157 62.9668 95.8083 63.2797 95.4596 63.5926C95.3586 63.6203 95.414 63.8224 95.5151 63.7946Z" fill="white"/>
<path d="M83.5684 55.8828C86.9738 53.6452 90.4624 51.7106 94.052 49.7484C94.153 49.7207 94.0976 49.5186 93.9965 49.5463C90.2228 51.2332 86.7896 53.3698 83.5684 55.8828Z" fill="white"/>
<path d="M115.721 64.9872C116.72 69.8186 116.801 74.4675 115.843 79.2925L115.871 79.3936C117.086 74.7152 117.124 69.7077 115.721 64.9872C115.767 64.7574 115.693 64.8862 115.721 64.9872Z" fill="white"/>
<path d="M83.516 101.63C83.516 101.63 83.6447 101.703 83.516 101.63C84.2457 97.9537 85.2328 94.4241 86.321 90.8668C86.3943 90.7381 86.2101 90.4627 86.1645 90.6925C84.8189 94.1031 83.9882 97.8071 83.516 101.63Z" fill="white"/>
<path d="M78.1947 94.5078C78.1947 94.5078 78.2224 94.6089 78.1947 94.5078C80.2036 92.3274 82.3789 90.7531 84.7007 88.9213C84.8018 88.8936 84.7186 88.5905 84.6176 88.6182C82.0007 89.7705 79.8174 92.1074 78.1947 94.5078Z" fill="white"/>
<path d="M89.9833 101.05C89.8465 101.74 89.8107 102.401 89.6739 103.09L89.7016 103.191C89.8384 102.502 89.9019 101.942 90.0387 101.252C90.0843 101.023 90.0289 100.82 89.9833 101.05Z" fill="white"/>
<path d="M104.13 30.2559C104.883 29.8321 105.663 29.5094 106.517 29.058C106.618 29.0302 106.462 28.8559 106.49 28.9569C105.737 29.3807 104.956 29.7034 104.102 30.1548L104.13 30.2559Z" fill="white"/>
<path d="M75.4558 43.335C76.2444 42.2496 77.0329 41.1643 77.7205 40.1067L77.665 39.9047C76.8765 40.99 76.2166 42.1486 75.4558 43.335Z" fill="white"/>
<path d="M79.6541 36.8605L79.7095 37.0625C79.9295 36.6763 80.2227 36.1613 80.4427 35.7751C80.516 35.6464 80.3596 35.472 80.2585 35.4998C80.0663 35.987 79.8741 36.4742 79.6541 36.8605Z" fill="white"/>
<path d="M65.0714 16.9629C69.497 14.88 73.5997 12.0166 76.9203 8.28143C77.0213 8.25372 76.9382 7.95064 76.8372 7.97835C73.2314 11.4658 69.4871 14.4482 65.0714 16.9629Z" fill="white"/>
<path d="M78.5172 6.9742C78.5172 6.9742 78.5726 7.17625 78.5449 7.07523C79.1868 6.24738 79.9852 5.59388 80.9123 5.01369C81.1144 4.95827 80.9758 4.45314 80.7738 4.50856C79.7733 5.21749 79.0304 6.07304 78.5172 6.9742Z" fill="white"/>
<path d="M25.8832 9.13687C32.4615 8.96189 39.0103 7.49146 44.8305 4.15695C44.9316 4.12924 44.8484 3.82616 44.7474 3.85387C38.6322 6.5089 32.5527 8.50236 25.8832 9.13687C25.8555 9.03585 25.8832 9.13687 25.8832 9.13687Z" fill="white"/>
<path d="M21.6741 8.44428C21.7751 8.41657 21.9771 8.36114 22.1059 8.43446C22.2069 8.40675 22.1238 8.10367 22.0227 8.13138L21.5909 8.1412C21.5909 8.1412 21.5453 8.37096 21.6741 8.44428Z" fill="white"/>
<path d="M13.8715 0.590771C14.8639 0.644449 15.8562 0.698121 16.8486 0.751799C17.0506 0.696377 16.9854 0.0625187 16.6823 0.145652C15.7177 0.193 14.753 0.240342 13.7883 0.28769C13.7883 0.28769 13.8438 0.489745 13.8715 0.590771Z" fill="white"/>
<path d="M83.2135 7.85812C88.1228 3.5786 93.1152 -0.397856 98.0244 -4.67738C98.1255 -4.70509 98.0146 -5.10919 97.9413 -4.98046C92.9033 -0.774245 88.1228 3.5786 83.2135 7.85812C83.0848 7.78481 83.1125 7.88583 83.2135 7.85812Z" fill="white"/>
</g>
</svg>
