<svg width="20" height="20" viewBox="0 0 20 20" fill="none" xmlns="http://www.w3.org/2000/svg">
<path d="M9.70027 9.48325C9.54582 9.59313 9.45312 9.77165 9.45312 9.96106C9.45312 10.2843 9.71578 10.547 10.0391 10.547C10.2285 10.547 10.407 10.4543 10.5168 10.2998L12.5243 7.47583L9.70027 9.48325Z" fill="#FFF500"/>
<path d="M11.2109 15.3125H8.78906C8.46578 15.3125 8.20312 15.5752 8.20312 15.8984C8.20312 16.2217 8.46578 16.4844 8.78906 16.4844H11.2109C11.5342 16.4844 11.7969 16.2217 11.7969 15.8984C11.7969 15.5752 11.5342 15.3125 11.2109 15.3125Z" fill="#FFF500"/>
<path d="M10.0391 0C4.54648 0 0 4.46836 0 9.96094C0 15.4535 4.46836 20 9.96094 20C15.4535 20 20 15.4535 20 9.96094C20 4.46836 15.5316 0 10.0391 0ZM11.2109 17.6562H8.78906C7.81977 17.6562 7.03125 16.8677 7.03125 15.8984C7.03125 14.9291 7.81977 14.1406 8.78906 14.1406H11.2109C12.1802 14.1406 12.9688 14.9291 12.9688 15.8984C12.9688 16.8677 12.1802 17.6562 11.2109 17.6562ZM15.4229 15.4229C15.1941 15.6518 14.8232 15.6518 14.5944 15.4229L13.7658 14.5944C13.537 14.3655 13.537 13.9947 13.7658 13.7658C13.9947 13.537 14.3655 13.537 14.5944 13.7658L14.9904 14.1618C15.8318 13.1556 16.3155 11.8499 16.4336 10.5469H15.8984C15.5746 10.5469 15.3125 10.2848 15.3125 9.96094C15.3125 9.63707 15.5746 9.375 15.8984 9.375H16.4547C16.3371 8.07797 15.8341 6.89191 15.0608 5.93039L11.4724 10.9783C11.1429 11.4418 10.6073 11.7188 10.0391 11.7188C9.06977 11.7188 8.28125 10.9302 8.28125 9.96094C8.28125 9.39273 8.5582 8.85715 9.02168 8.52758L14.0696 4.93922C13.1554 4.20395 12.0383 3.71309 10.8159 3.56547C10.7525 3.55781 10.6889 3.55109 10.625 3.54531V4.10156C10.625 4.42543 10.3629 4.6875 10.0391 4.6875C9.7152 4.6875 9.45312 4.42543 9.45312 4.10156V3.54531C8.11551 3.6666 6.81652 4.19621 5.83957 5.01102L6.23418 5.40563C6.46305 5.63449 6.46305 6.00531 6.23418 6.23418C6.00527 6.46309 5.63453 6.46309 5.40563 6.23418L5.01102 5.83957C4.19617 6.81652 3.6666 8.03738 3.54531 9.375H4.10156C4.42543 9.375 4.6875 9.63707 4.6875 9.96094C4.6875 10.2848 4.42543 10.5469 4.10156 10.5469H3.56625C3.68406 11.8519 4.16723 13.1582 5.00734 14.1641L5.40559 13.7659C5.63445 13.537 6.00527 13.537 6.23414 13.7659C6.46301 13.9947 6.46301 14.3655 6.23414 14.5944L5.40328 15.4253C5.17438 15.6542 4.80363 15.6542 4.57473 15.4253C3.13625 13.9867 2.34375 11.9957 2.34375 9.96094C2.34375 5.77195 5.83094 2.34375 10.0391 2.34375C14.2319 2.34375 17.6562 5.76867 17.6562 9.96094C17.6562 11.9929 16.8632 13.9827 15.4229 15.4229Z" fill="#FFF500"/>
</svg>
