<svg width="17" height="21" viewBox="0 0 17 21" fill="none" xmlns="http://www.w3.org/2000/svg">
<path d="M10.173 15.7548C11.3057 16.1427 12.306 16.3898 13.7432 16.8314C13.1911 23.8077 6.59423 21.0372 10.173 15.7548ZM16.0629 9.34622C15.9885 7.25155 15.6196 4.50381 12.6807 4.93436C11.3031 5.29389 10.2852 6.80687 9.80646 9.41724C9.54352 10.8525 9.69642 12.8671 10.0066 14.0747C10.2898 14.9257 10.1935 14.8734 10.4978 15.035C11.6759 15.3004 12.8421 15.5942 14.0297 15.8937C15.2362 15.0417 16.2271 10.5185 16.0629 9.34622ZM6.99349 9.18546C7.3034 7.97767 7.4563 5.9631 7.19348 4.52801C6.71511 1.91753 5.69709 0.404303 4.3192 0.0450133C1.38039 -0.385532 1.01144 2.36217 0.937052 4.45696C0.772827 5.62898 1.76384 10.1526 2.97045 11.0044C4.15799 10.7048 5.32407 10.4113 6.50249 10.1457C6.80649 9.98422 6.71018 10.0365 6.99349 9.18546ZM3.25665 11.9423C3.80856 18.9185 10.4054 16.148 6.82674 10.8657C5.69395 11.2537 4.69377 11.5007 3.25665 11.9423Z" fill="#FFF500"/>
</svg>
