<svg width="61" height="33" viewBox="0 0 61 33" fill="none" xmlns="http://www.w3.org/2000/svg">
<path d="M1.26 7.8H2.8L7.4 18.56V7.8H9.28V24H7.84L3.18 12.94V24H1.26V7.8ZM14.3864 7.8H16.5664L20.0264 24H17.8864L17.1464 19.92H13.8464L13.0664 24H10.9464L14.3864 7.8ZM16.8464 18.3L15.4864 11L14.1464 18.3H16.8464ZM22.8056 9.48H20.0656V7.8H27.7256V9.48H25.0656V24H22.8056V9.48ZM33.4673 24.18C32.334 24.18 31.4473 23.9533 30.8073 23.5C30.1807 23.0467 29.7473 22.4133 29.5073 21.6C29.2673 20.7867 29.1473 19.7667 29.1473 18.54V7.8H31.3073V18.64C31.3073 19.8667 31.4473 20.8 31.7273 21.44C32.0207 22.08 32.6007 22.4 33.4673 22.4C34.334 22.4 34.9073 22.08 35.1873 21.44C35.4807 20.8 35.6273 19.8667 35.6273 18.64V7.8H37.7673V18.54C37.7673 19.7667 37.6473 20.7867 37.4073 21.6C37.1673 22.4133 36.734 23.0467 36.1073 23.5C35.4807 23.9533 34.6007 24.18 33.4673 24.18ZM40.1467 7.8H43.4067C45.0467 7.8 46.2467 8.14 47.0067 8.82C47.7801 9.48667 48.1667 10.58 48.1667 12.1C48.1667 14.18 47.5001 15.44 46.1667 15.88L48.4667 24H46.2867L44.1667 16.4H42.4067V24H40.1467V7.8ZM43.2667 14.78C44.2401 14.78 44.9334 14.5867 45.3467 14.2C45.7734 13.8133 45.9867 13.1133 45.9867 12.1C45.9867 11.4333 45.9134 10.9133 45.7667 10.54C45.6201 10.1533 45.3601 9.87333 44.9867 9.7C44.6134 9.51333 44.0867 9.42 43.4067 9.42H42.4067V14.78H43.2667ZM50.5178 7.8H56.7978V9.48H52.7778V14.84H56.0378V16.44H52.7778V22.38H56.8378V24H50.5178V7.8Z" fill="white"/>
<path d="M4.02734 30.8721C3.9834 31.248 3.84424 31.5386 3.60986 31.7437C3.37712 31.9471 3.06706 32.0488 2.67969 32.0488C2.25977 32.0488 1.92285 31.8983 1.66895 31.5972C1.41667 31.2961 1.29053 30.8932 1.29053 30.3887V30.0469C1.29053 29.7165 1.34912 29.4259 1.46631 29.1753C1.58512 28.9246 1.75277 28.7326 1.96924 28.5991C2.18571 28.464 2.43636 28.3965 2.72119 28.3965C3.0988 28.3965 3.40153 28.5023 3.62939 28.7139C3.85726 28.9238 3.98991 29.2152 4.02734 29.5879H3.55615C3.51546 29.3047 3.42676 29.0996 3.29004 28.9727C3.15495 28.8457 2.96533 28.7822 2.72119 28.7822C2.42171 28.7822 2.18652 28.8929 2.01562 29.1143C1.84635 29.3356 1.76172 29.6506 1.76172 30.0591V30.4033C1.76172 30.7891 1.84229 31.0959 2.00342 31.3237C2.16455 31.5516 2.38997 31.6655 2.67969 31.6655C2.9401 31.6655 3.13949 31.6069 3.27783 31.4897C3.41781 31.3709 3.51058 31.165 3.55615 30.8721H4.02734ZM10.9038 30.3374C10.9038 30.6857 10.8452 30.9901 10.728 31.2505C10.6108 31.5093 10.4448 31.707 10.23 31.8438C10.0151 31.9805 9.76449 32.0488 9.47803 32.0488C9.19808 32.0488 8.94987 31.9805 8.7334 31.8438C8.51693 31.7054 8.34847 31.5093 8.22803 31.2554C8.10921 30.9998 8.04818 30.7044 8.04492 30.3691V30.1128C8.04492 29.771 8.10433 29.4691 8.22314 29.207C8.34196 28.945 8.5096 28.7448 8.72607 28.6064C8.94417 28.4665 9.1932 28.3965 9.47314 28.3965C9.75798 28.3965 10.0086 28.4657 10.2251 28.604C10.4432 28.7407 10.6108 28.9401 10.728 29.2021C10.8452 29.4626 10.9038 29.7661 10.9038 30.1128V30.3374ZM10.4375 30.1079C10.4375 29.6864 10.3529 29.3633 10.1836 29.1387C10.0143 28.9124 9.77751 28.7993 9.47314 28.7993C9.17692 28.7993 8.94336 28.9124 8.77246 29.1387C8.60319 29.3633 8.51611 29.6758 8.51123 30.0762V30.3374C8.51123 30.7459 8.59668 31.0674 8.76758 31.3018C8.9401 31.5345 9.17692 31.6509 9.47803 31.6509C9.78076 31.6509 10.0151 31.541 10.1812 31.3213C10.3472 31.0999 10.4326 30.7834 10.4375 30.3716V30.1079ZM16.1543 30.4155C15.7523 30.3 15.4593 30.1584 15.2754 29.9907C15.0931 29.8215 15.002 29.6131 15.002 29.3657C15.002 29.0858 15.1134 28.8547 15.3364 28.6724C15.561 28.4884 15.8524 28.3965 16.2104 28.3965C16.4546 28.3965 16.6719 28.4437 16.8623 28.5381C17.0544 28.6325 17.2025 28.7627 17.3066 28.9287C17.4124 29.0947 17.4653 29.2762 17.4653 29.4731H16.9941C16.9941 29.2583 16.9258 29.0898 16.7891 28.9678C16.6523 28.8441 16.4595 28.7822 16.2104 28.7822C15.9793 28.7822 15.7987 28.8335 15.6685 28.936C15.5399 29.0369 15.4756 29.1777 15.4756 29.3584C15.4756 29.5033 15.5366 29.6261 15.6587 29.7271C15.7824 29.8263 15.9915 29.9175 16.2861 30.0005C16.5824 30.0835 16.8135 30.1755 16.9795 30.2764C17.1471 30.3757 17.2708 30.492 17.3506 30.6255C17.432 30.759 17.4727 30.916 17.4727 31.0967C17.4727 31.3848 17.3604 31.6159 17.1357 31.79C16.9111 31.9626 16.6108 32.0488 16.2349 32.0488C15.9907 32.0488 15.7629 32.0024 15.5513 31.9097C15.3397 31.8153 15.1761 31.6867 15.0605 31.5239C14.9466 31.3612 14.8896 31.1764 14.8896 30.9697H15.3608C15.3608 31.1846 15.4398 31.3547 15.5977 31.48C15.7572 31.6037 15.9696 31.6655 16.2349 31.6655C16.4823 31.6655 16.6719 31.6151 16.8037 31.5142C16.9355 31.4132 17.0015 31.2757 17.0015 31.1016C17.0015 30.9274 16.9404 30.7931 16.8184 30.6987C16.6963 30.6027 16.4749 30.5083 16.1543 30.4155ZM22.1812 28.4453L23.3433 31.3457L24.5054 28.4453H25.1133V32H24.6445V30.6157L24.6885 29.1216L23.5215 32H23.1626L21.998 29.1289L22.0444 30.6157V32H21.5757V28.4453H22.1812ZM31.4502 30.3569H29.9097V31.6167H31.6992V32H29.4409V28.4453H31.6748V28.8311H29.9097V29.9736H31.4502V30.3569ZM38.2876 28.8311H37.145V32H36.6787V28.8311H35.5386V28.4453H38.2876V28.8311ZM42.8179 32H42.3491V28.4453H42.8179V32ZM49.792 30.8721C49.748 31.248 49.6089 31.5386 49.3745 31.7437C49.1418 31.9471 48.8317 32.0488 48.4443 32.0488C48.0244 32.0488 47.6875 31.8983 47.4336 31.5972C47.1813 31.2961 47.0552 30.8932 47.0552 30.3887V30.0469C47.0552 29.7165 47.1138 29.4259 47.231 29.1753C47.3498 28.9246 47.5174 28.7326 47.7339 28.5991C47.9504 28.464 48.201 28.3965 48.4858 28.3965C48.8634 28.3965 49.1662 28.5023 49.394 28.7139C49.6219 28.9238 49.7546 29.2152 49.792 29.5879H49.3208C49.2801 29.3047 49.1914 29.0996 49.0547 28.9727C48.9196 28.8457 48.73 28.7822 48.4858 28.7822C48.1864 28.7822 47.9512 28.8929 47.7803 29.1143C47.611 29.3356 47.5264 29.6506 47.5264 30.0591V30.4033C47.5264 30.7891 47.6069 31.0959 47.7681 31.3237C47.9292 31.5516 48.1546 31.6655 48.4443 31.6655C48.7048 31.6655 48.9041 31.6069 49.0425 31.4897C49.1825 31.3709 49.2752 31.165 49.3208 30.8721H49.792ZM54.9814 30.4155C54.5794 30.3 54.2865 30.1584 54.1025 29.9907C53.9202 29.8215 53.8291 29.6131 53.8291 29.3657C53.8291 29.0858 53.9406 28.8547 54.1636 28.6724C54.3882 28.4884 54.6795 28.3965 55.0376 28.3965C55.2817 28.3965 55.499 28.4437 55.6895 28.5381C55.8815 28.6325 56.0296 28.7627 56.1338 28.9287C56.2396 29.0947 56.2925 29.2762 56.2925 29.4731H55.8213C55.8213 29.2583 55.7529 29.0898 55.6162 28.9678C55.4795 28.8441 55.2866 28.7822 55.0376 28.7822C54.8065 28.7822 54.6258 28.8335 54.4956 28.936C54.367 29.0369 54.3027 29.1777 54.3027 29.3584C54.3027 29.5033 54.3638 29.6261 54.4858 29.7271C54.6095 29.8263 54.8187 29.9175 55.1133 30.0005C55.4095 30.0835 55.6406 30.1755 55.8066 30.2764C55.9743 30.3757 56.098 30.492 56.1777 30.6255C56.2591 30.759 56.2998 30.916 56.2998 31.0967C56.2998 31.3848 56.1875 31.6159 55.9629 31.79C55.7383 31.9626 55.438 32.0488 55.062 32.0488C54.8179 32.0488 54.59 32.0024 54.3784 31.9097C54.1668 31.8153 54.0033 31.6867 53.8877 31.5239C53.7738 31.3612 53.7168 31.1764 53.7168 30.9697H54.188C54.188 31.1846 54.2669 31.3547 54.4248 31.48C54.5843 31.6037 54.7967 31.6655 55.062 31.6655C55.3094 31.6655 55.499 31.6151 55.6309 31.5142C55.7627 31.4132 55.8286 31.2757 55.8286 31.1016C55.8286 30.9274 55.7676 30.7931 55.6455 30.6987C55.5234 30.6027 55.3021 30.5083 54.9814 30.4155Z" fill="white"/>
</svg>
