<svg width="47" height="47" viewBox="0 0 47 47" fill="none" xmlns="http://www.w3.org/2000/svg">
<circle cx="23.5" cy="23.5" r="22.5" stroke="white" stroke-width="2"/>
<g clip-path="url(#clip0)">
<path d="M10.1276 14.9174L10.7433 14.3016L12.2409 15.7992C18.2223 21.7665 27.9053 21.7665 33.8867 15.7992L35.3842 14.3016L36 14.9174L34.5025 16.4149C34.3283 16.5891 34.1472 16.7594 33.9656 16.9252C34.0402 17.5825 34.5954 18.0794 35.2567 18.0815H35.6921V18.9524H35.2567C34.3587 18.9501 33.5542 18.3966 33.231 17.5589C32.9048 17.8227 32.5691 18.0692 32.2293 18.3039C32.3252 19.0171 32.8614 19.5916 33.5663 19.7362L34.0375 19.8321L33.8631 20.6855L33.3938 20.5918C32.4657 20.4019 31.7181 19.7151 31.4502 18.8066C31.1311 19.0007 30.8057 19.1829 30.4749 19.3534C30.5208 20.542 31.2633 21.592 32.3688 22.0315L32.0447 22.8405C30.7422 22.3232 29.8204 21.1431 29.634 19.754C29.3335 19.8873 29.0299 20.0109 28.7231 20.1246V20.2588C28.726 21.4916 29.3063 22.6519 30.2908 23.394L29.7681 24.0908C28.6119 23.2164 27.9115 21.8673 27.8617 20.4185C27.57 20.5086 27.2768 20.5926 26.9812 20.6658V21.4593C26.9782 22.5273 27.4026 23.5522 28.16 24.3055L27.5443 24.9213C26.6236 24.0049 26.108 22.7582 26.112 21.4593V20.8571C25.8228 20.9124 25.5324 20.9577 25.2411 20.9968V21.795C25.2424 23.0081 25.5249 24.2041 26.0663 25.2896L25.2868 25.6789C24.6855 24.4724 24.3719 23.1431 24.3702 21.795V21.0891C24.0801 21.1127 23.7897 21.1274 23.4992 21.1353V25.4843H22.6283V21.1353C22.3379 21.1274 22.0474 21.1127 21.7574 21.0891V21.795C21.7566 23.1429 21.4436 24.4722 20.8429 25.6789L20.0634 25.2896C20.6041 24.2039 20.8858 23.0079 20.8865 21.795V20.999C20.5952 20.9598 20.3047 20.9145 20.0156 20.8593V21.4614C20.0192 22.7606 19.5029 24.0072 18.5816 24.9234L17.9658 24.3076C18.7236 23.5539 19.1483 22.5282 19.1446 21.4593V20.6658C18.8489 20.5926 18.5559 20.5086 18.2642 20.4185C18.2144 21.8673 17.514 23.2164 16.3577 24.0908L15.8351 23.394C16.8196 22.6519 17.3998 21.4916 17.4028 20.2588V20.1246C17.0962 20.0105 16.7926 19.8869 16.4919 19.754C16.3054 21.1431 15.3837 22.3232 14.0811 22.8405L13.7571 22.0315C14.8626 21.592 15.6048 20.542 15.651 19.3534C15.321 19.1835 14.9957 19.0013 14.6754 18.8066C14.4077 19.7153 13.6599 20.4021 12.7316 20.5918L12.2625 20.6855L12.092 19.8321L12.5609 19.7362C13.2672 19.592 13.8047 19.016 13.8996 18.3014C13.5585 18.0666 13.2228 17.8202 12.8981 17.5563C12.5753 18.3956 11.7701 18.9501 10.8709 18.9524H10.4354V18.0815H10.8709C11.5324 18.0794 12.0873 17.5825 12.162 16.9252C11.9804 16.7594 11.8011 16.5908 11.6251 16.4149L10.1276 14.9174Z" fill="white"/>
<path d="M10.4354 28.5325H15.6609C15.9014 28.5325 16.0964 28.7275 16.0964 28.968V30.2744H18.2737V29.4035H19.1446V30.2744H20.0155V28.5325H20.8865V30.2744H21.7574V28.0971H22.6283V30.2744H23.4992V27.6616H24.3701V30.2744H25.2411V27.6616H26.112V30.2744H26.9829V27.6616H27.8538V30.2744H28.7248V27.6616H29.5957V30.2744H30.4666V28.5325H31.3375V30.2744H32.2084V29.4035H33.0794V30.2744H33.9503V31.1453H33.0794V32.0162H32.2084V31.1453H31.3375V32.8872H30.4666V31.1453H29.5957V33.7581H28.7248V31.1453H27.8538V33.7581H26.9829V31.1453H26.112V33.7581H25.2411V31.1453H24.3701V33.7581H23.4992V31.1453H22.6283V33.3226H21.7574V31.1453H20.8865V32.8872H20.0155V31.1453H19.1446V32.0162H18.2737V31.1453H16.0964V32.4517C16.0964 32.6922 15.9014 32.8872 15.6609 32.8872H10.4354C10.1949 32.8872 9.99997 32.6922 9.99997 32.4517V28.968C9.99997 28.7275 10.1949 28.5325 10.4354 28.5325Z" fill="white"/>
<path d="M19.8959 18.5L20.1353 17.6628C22.0493 18.2099 24.0782 18.2099 25.9923 17.6628L26.2317 18.5C25.2015 18.7947 24.1352 18.9441 23.0638 18.9441C21.9924 18.9441 20.926 18.7947 19.8959 18.5Z" fill="white"/>
</g>
<defs>
<clipPath id="clip0">
<rect width="26" height="26" fill="white" transform="matrix(-1 0 0 1 36 11)"/>
</clipPath>
</defs>
</svg>
