<svg width="116" height="116" viewBox="0 0 116 116" fill="none" xmlns="http://www.w3.org/2000/svg">
<circle cx="58" cy="58" r="58" fill="#AF6BC4"/>
<path d="M82.2482 59.898L79.7547 57.2735C78.7674 56.2357 77.0467 56.2357 76.0595 57.2735L62.5887 71.4466L60.7323 78.6101L60.2781 79.088C59.9385 79.4453 59.9376 80.0218 60.2728 80.3818L60.2685 80.4002L60.2851 80.3956C60.4549 80.5706 60.6754 80.6609 60.8969 80.6609C61.1209 80.6609 61.345 80.5706 61.5157 80.391L61.9708 79.9122L68.7784 77.959L82.2482 63.7859C83.267 62.7131 83.267 60.9699 82.2482 59.898ZM64.6096 71.9245L73.5747 62.4921L77.2883 66.3993L68.3233 75.8318L64.6096 71.9245ZM63.8202 73.6981L66.6384 76.6634L62.7629 77.7758L63.8202 73.6981ZM81.0107 62.4829L78.5259 65.0972L74.8122 61.1899L77.297 58.5756C77.6226 58.2321 78.1907 58.2321 78.5162 58.5756L81.0107 61.2001C81.3468 61.5528 81.3468 62.1292 81.0107 62.4829Z" fill="white"/>
<path d="M40.1266 60.1512H62.8828C63.3659 60.1512 63.758 59.7394 63.758 59.2299C63.758 58.7204 63.3659 58.3086 62.8828 58.3086H40.1266C39.6435 58.3086 39.2514 58.7204 39.2514 59.2299C39.2514 59.7394 39.6435 60.1512 40.1266 60.1512Z" fill="white"/>
<path d="M59.3818 63.835H40.1266C39.6435 63.835 39.2514 64.2465 39.2514 64.7557C39.2514 65.2648 39.6435 65.6764 40.1266 65.6764H59.3818C59.865 65.6764 60.2571 65.2648 60.2571 64.7557C60.2571 64.2465 59.8658 63.835 59.3818 63.835Z" fill="white"/>
<path d="M40.1266 43.5758H51.5047C51.9878 43.5758 52.3799 43.1642 52.3799 42.6551C52.3799 42.1459 51.9878 41.7344 51.5047 41.7344H40.1266C39.6435 41.7344 39.2514 42.1459 39.2514 42.6551C39.2514 43.1642 39.6435 43.5758 40.1266 43.5758Z" fill="white"/>
<path d="M51.5047 71.2018C51.9878 71.2018 52.3799 70.7902 52.3799 70.2811C52.3799 69.7719 51.9878 69.3604 51.5047 69.3604H40.1266C39.6435 69.3604 39.2514 69.7719 39.2514 70.2811C39.2514 70.7902 39.6435 71.2018 40.1266 71.2018H51.5047Z" fill="white"/>
<path d="M65.5085 47.2593H40.1266C39.6435 47.2593 39.2514 47.6708 39.2514 48.18C39.2514 48.6891 39.6435 49.1007 40.1266 49.1007H65.5085C65.9916 49.1007 66.3837 48.6891 66.3837 48.18C66.3837 47.6708 65.9925 47.2593 65.5085 47.2593Z" fill="white"/>
<path d="M40.1266 54.6266H52.3799C52.8631 54.6266 53.2552 54.215 53.2552 53.7059C53.2552 53.1967 52.8631 52.7852 52.3799 52.7852H40.1266C39.6435 52.7852 39.2514 53.1967 39.2514 53.7059C39.2514 54.215 39.6435 54.6266 40.1266 54.6266Z" fill="white"/>
<path d="M66.3837 53.7059C66.3837 53.1967 65.9916 52.7852 65.5085 52.7852H59.3818C58.8987 52.7852 58.5066 53.1967 58.5066 53.7059C58.5066 54.215 58.8987 54.6266 59.3818 54.6266H65.5085C65.9925 54.6266 66.3837 54.215 66.3837 53.7059Z" fill="white"/>
<path d="M56.5023 54.3583C56.6599 54.1843 56.7561 53.9439 56.7561 53.7044C56.7561 53.465 56.6599 53.2255 56.5023 53.0505C56.1697 52.7097 55.5833 52.7097 55.2595 53.0505C55.102 53.2255 55.0057 53.465 55.0057 53.7044C55.0057 53.954 55.102 54.1843 55.2595 54.3583C55.4258 54.5251 55.6534 54.6254 55.8809 54.6254C56.1085 54.6254 56.3369 54.5251 56.5023 54.3583Z" fill="white"/>
<path d="M55.8809 78.5693H35.7505V34.367H41.8771V36.2088C41.8771 36.718 42.2692 37.1297 42.7524 37.1297H62.8828C63.3659 37.1297 63.758 36.718 63.758 36.2088V34.367H69.8847V54.6264C69.8847 55.1356 70.2768 55.5473 70.7599 55.5473C71.243 55.5473 71.6351 55.1356 71.6351 54.6264V33.4462C71.6351 32.9369 71.243 32.5253 70.7599 32.5253H63.758V30.6835C63.758 30.1743 63.3659 29.7626 62.8828 29.7626H57.6314V27.9209C57.6314 27.4116 57.2393 27 56.7561 27H48.879C48.3959 27 48.0038 27.4116 48.0038 27.9209V29.7626H42.7524C42.2692 29.7626 41.8771 30.1743 41.8771 30.6835V32.5253H34.8752C34.3921 32.5253 34 32.9369 34 33.4462V79.4902C34 79.9994 34.3921 80.411 34.8752 80.411H55.8809C56.364 80.411 56.7561 79.9994 56.7561 79.4902C56.7561 78.9809 56.3649 78.5693 55.8809 78.5693ZM49.7542 28.8418H55.8809V30.6835V32.5253H49.7542V30.6835V28.8418ZM43.6276 31.6044H48.0038V33.4462C48.0038 33.9554 48.3959 34.367 48.879 34.367H56.7561C57.2393 34.367 57.6314 33.9554 57.6314 33.4462V31.6044H62.0075V33.4462V35.2879H43.6276V33.4462V31.6044Z" fill="white"/>
</svg>
