<svg width="60" height="60" viewBox="0 0 60 60" fill="none" xmlns="http://www.w3.org/2000/svg">
<g filter="url(#filter0_d)">
<circle cx="30" cy="26" r="26" fill="url(#paint0_linear)"/>
</g>
<g clip-path="url(#clip0)">
<path d="M43.7441 38.5055L17.4945 12.2559C17.1533 11.9147 16.5986 11.9147 16.2573 12.2559C15.9161 12.5972 15.9161 13.1519 16.2573 13.4932L22.9999 20.2376V38.25C22.9999 39.2318 23.7682 40 24.7499 40H35.2498C36.2315 40 36.9997 39.2318 36.9997 38.25V34.2373L42.5051 39.7428C42.6766 39.9143 42.9006 40 43.1246 40C43.3486 40 43.5726 39.9143 43.7441 39.7445C44.0854 39.4015 44.0854 38.8485 43.7441 38.5055Z" fill="#424242"/>
<path d="M35.249 15.5004H33.4991V12.8755C33.4991 12.3925 33.1071 12.0005 32.6241 12.0005H27.3742C26.8912 12.0005 26.4992 12.3925 26.4992 12.8755V15.5004H24.7492C24.3222 15.5004 23.9425 15.6719 23.6397 15.9292L36.999 29.2885V17.2504C36.999 16.2687 36.2308 15.5004 35.249 15.5004Z" fill="#424242"/>
</g>
<defs>
<filter id="filter0_d" x="0" y="0" width="60" height="60" filterUnits="userSpaceOnUse" color-interpolation-filters="sRGB">
<feFlood flood-opacity="0" result="BackgroundImageFix"/>
<feColorMatrix in="SourceAlpha" type="matrix" values="0 0 0 0 0 0 0 0 0 0 0 0 0 0 0 0 0 0 127 0"/>
<feOffset dy="4"/>
<feGaussianBlur stdDeviation="2"/>
<feColorMatrix type="matrix" values="0 0 0 0 0 0 0 0 0 0 0 0 0 0 0 0 0 0 0.25 0"/>
<feBlend mode="normal" in2="BackgroundImageFix" result="effect1_dropShadow"/>
<feBlend mode="normal" in="SourceGraphic" in2="effect1_dropShadow" result="shape"/>
</filter>
<linearGradient id="paint0_linear" x1="30" y1="0" x2="30" y2="52" gradientUnits="userSpaceOnUse">
<stop stop-color="white"/>
<stop offset="1" stop-color="#8186DF"/>
</linearGradient>
<clipPath id="clip0">
<rect x="16" y="12" width="28" height="28" fill="white"/>
</clipPath>
</defs>
</svg>
