<svg width="60" height="60" viewBox="0 0 60 60" fill="none" xmlns="http://www.w3.org/2000/svg">
<g filter="url(#filter0_d)">
<circle cx="30" cy="26" r="26" fill="url(#paint0_linear)"/>
</g>
<g clip-path="url(#clip0)">
<path d="M29.4998 21.3562C26.6631 21.3562 24.3553 23.6639 24.3553 26.5005C24.3553 29.3372 26.6631 31.645 29.4998 31.645C32.3363 31.645 34.6441 29.3372 34.6441 26.5005C34.6441 23.6639 32.3363 21.3562 29.4998 21.3562ZM32.5541 25.5317L28.8686 29.2171C28.7139 29.3718 28.511 29.4493 28.3083 29.4493C28.1056 29.4493 27.9029 29.372 27.7482 29.2171L26.3399 27.8087C26.0305 27.4995 26.0305 26.998 26.3399 26.6886C26.6491 26.3791 27.1507 26.3791 27.4601 26.6886L28.3083 27.5368L31.4339 24.4115C31.7431 24.1021 32.2447 24.1021 32.5541 24.4115C32.8635 24.7207 32.8635 25.2223 32.5541 25.5317Z" fill="#424242"/>
<path d="M40.9691 20.3258L40.9682 20.3048C40.9565 20.0454 40.9487 19.771 40.9439 19.4658C40.9219 17.977 39.7385 16.7456 38.2495 16.6624C35.1452 16.4892 32.7438 15.4769 30.6919 13.4769L30.6744 13.4602C30.0051 12.8466 28.9955 12.8466 28.326 13.4602L28.3085 13.4769C26.2566 15.4769 23.8552 16.4892 20.7508 16.6626C19.2621 16.7456 18.0785 17.977 18.0565 19.466C18.0519 19.7692 18.0439 20.0436 18.0321 20.3048L18.0309 20.3536C17.9706 23.5191 17.8956 27.4587 19.2135 31.0345C19.9382 33.0009 21.0357 34.7103 22.4754 36.1154C24.1151 37.7155 26.2628 38.9859 28.8587 39.891C28.9432 39.9205 29.0309 39.9444 29.1203 39.9623C29.2464 39.9874 29.3733 40 29.5002 40C29.6271 40 29.7542 39.9874 29.88 39.9623C29.9694 39.9444 30.0578 39.9202 30.1427 39.8906C32.7355 38.9838 34.8809 37.7128 36.5192 36.1129C37.9583 34.7074 39.0558 32.9976 39.7811 31.0308C41.104 27.4443 41.0292 23.4973 40.9691 20.3258ZM29.4998 33.2292C25.7894 33.2292 22.771 30.2108 22.771 26.5004C22.771 22.7901 25.7894 19.7717 29.4998 19.7717C33.2099 19.7717 36.2285 22.7901 36.2285 26.5004C36.2285 30.2108 33.2099 33.2292 29.4998 33.2292Z" fill="#424242"/>
</g>
<defs>
<filter id="filter0_d" x="0" y="0" width="60" height="60" filterUnits="userSpaceOnUse" color-interpolation-filters="sRGB">
<feFlood flood-opacity="0" result="BackgroundImageFix"/>
<feColorMatrix in="SourceAlpha" type="matrix" values="0 0 0 0 0 0 0 0 0 0 0 0 0 0 0 0 0 0 127 0"/>
<feOffset dy="4"/>
<feGaussianBlur stdDeviation="2"/>
<feColorMatrix type="matrix" values="0 0 0 0 0 0 0 0 0 0 0 0 0 0 0 0 0 0 0.25 0"/>
<feBlend mode="normal" in2="BackgroundImageFix" result="effect1_dropShadow"/>
<feBlend mode="normal" in="SourceGraphic" in2="effect1_dropShadow" result="shape"/>
</filter>
<linearGradient id="paint0_linear" x1="30" y1="0" x2="30" y2="52" gradientUnits="userSpaceOnUse">
<stop stop-color="white"/>
<stop offset="1" stop-color="#8186DF"/>
</linearGradient>
<clipPath id="clip0">
<rect x="16" y="13" width="27" height="27" fill="white"/>
</clipPath>
</defs>
</svg>
