<svg width="51" height="51" viewBox="0 0 51 51" fill="none" xmlns="http://www.w3.org/2000/svg">
<path d="M13.1822 28.3608C12.6783 28.3608 12.2698 28.7693 12.2698 29.2732C12.2698 29.7771 12.6783 30.1856 13.1822 30.1856C13.686 30.1856 14.0946 29.7771 14.0946 29.2732C14.0946 28.7693 13.686 28.3608 13.1822 28.3608Z" fill="black"/>
<path d="M16.8319 28.3608C16.3281 28.3608 15.9196 28.7693 15.9196 29.2732C15.9196 29.7771 16.3281 30.1856 16.8319 30.1856C17.3358 30.1856 17.7443 29.7771 17.7443 29.2732C17.7443 28.7693 17.3358 28.3608 16.8319 28.3608Z" fill="black"/>
<path d="M13.1822 33.8355C13.6861 33.8355 14.0946 33.427 14.0946 32.9231C14.0946 32.4192 13.6861 32.0107 13.1822 32.0107C12.6783 32.0107 12.2698 32.4192 12.2698 32.9231C12.2698 33.427 12.6783 33.8355 13.1822 33.8355Z" fill="black"/>
<path d="M24.1314 28.5931C23.9344 28.5931 23.7394 28.602 23.5456 28.6146C22.4477 24.8285 18.975 22.2062 15.007 22.2062C10.1039 22.2062 6.11499 26.1951 6.11499 31.0983C6.11499 36.0014 10.1039 39.9903 15.007 39.9903C15.2029 39.9903 15.3992 39.9819 15.595 39.969C16.6728 43.6667 20.0904 46.3772 24.1314 46.3772C29.0346 46.3772 33.0234 42.3883 33.0234 37.4852C33.0234 32.582 29.0346 28.5931 24.1314 28.5931ZM15.0072 38.6301C10.8539 38.6301 7.47516 35.2514 7.47516 31.0981C7.47516 26.9448 10.8539 23.5661 15.0072 23.5661C18.3042 23.5661 21.1976 25.7028 22.1842 28.8104C21.983 28.8556 21.7842 28.907 21.5884 28.9654C20.6738 26.1229 18.041 24.181 15.0072 24.181C11.1931 24.181 8.09022 27.284 8.09022 31.0979C8.09022 34.9119 11.1931 38.0149 15.0072 38.0149C15.09 38.0149 15.1731 38.0106 15.2562 38.0077C15.2683 38.2143 15.2887 38.4186 15.3147 38.6213C15.212 38.6255 15.1095 38.6301 15.0072 38.6301ZM17.0977 32.0545C17.013 32.0287 16.925 32.0105 16.832 32.0105C16.3281 32.0105 15.9196 32.419 15.9196 32.9229C15.9196 33.1624 16.0139 33.3786 16.1649 33.5415C15.6918 34.4933 15.3842 35.5407 15.2802 36.6471C15.1891 36.6515 15.098 36.6549 15.0072 36.6549C11.9431 36.6549 9.45022 34.1622 9.45022 31.0979C9.45022 28.0337 11.9429 25.541 15.0072 25.541C17.4698 25.541 19.603 27.1332 20.3163 29.4547C19.0494 30.0592 17.9485 30.9551 17.0977 32.0545ZM24.1314 45.0172C19.9782 45.0172 16.5994 41.6384 16.5994 37.4852C16.5994 33.3319 19.9782 29.9531 24.1314 29.9531C28.2847 29.9531 31.6634 33.3319 31.6634 37.4852C31.6634 41.6384 28.2847 45.0172 24.1314 45.0172Z" fill="black"/>
<path d="M24.1313 30.5682C20.3171 30.5682 17.2145 33.671 17.2145 37.4851C17.2145 41.2993 20.3173 44.4021 24.1313 44.4021C27.9452 44.4021 31.0482 41.2991 31.0482 37.4851C31.0482 33.6712 27.9454 30.5682 24.1313 30.5682ZM24.1313 43.0421C21.0672 43.0421 18.5745 40.5492 18.5745 37.4851C18.5745 34.4211 21.0672 31.9282 24.1313 31.9282C27.1953 31.9282 29.6882 34.4209 29.6882 37.4851C29.6882 40.5494 27.1955 43.0421 24.1313 43.0421Z" fill="black"/>
<path d="M22.3066 34.7478C21.8027 34.7478 21.3942 35.1563 21.3942 35.6602C21.3942 36.1641 21.8027 36.5726 22.3066 36.5726C22.8104 36.5726 23.2189 36.1641 23.2189 35.6602C23.2189 35.1563 22.8104 34.7478 22.3066 34.7478Z" fill="black"/>
<path d="M25.9563 34.7478C25.4525 34.7478 25.0439 35.1563 25.0439 35.6602C25.0439 36.1641 25.4525 36.5726 25.9563 36.5726C26.4602 36.5726 26.8687 36.1641 26.8687 35.6602C26.8687 35.1563 26.4602 34.7478 25.9563 34.7478Z" fill="black"/>
<path d="M22.3066 38.3977C21.8027 38.3977 21.3942 38.8062 21.3942 39.3101C21.3942 39.814 21.8027 40.2225 22.3066 40.2225C22.8104 40.2225 23.2189 39.814 23.2189 39.3101C23.2189 38.8062 22.8104 38.3977 22.3066 38.3977Z" fill="black"/>
<path d="M25.9563 40.2225C26.4602 40.2225 26.8687 39.814 26.8687 39.3101C26.8687 38.8062 26.4602 38.3977 25.9563 38.3977C25.4524 38.3977 25.0439 38.8062 25.0439 39.3101C25.0439 39.814 25.4524 40.2225 25.9563 40.2225Z" fill="black"/>
<path d="M19.8185 13.8015C20.7261 13.4661 22.8039 12.9426 24.5668 14.3004C24.6904 14.3958 24.8364 14.4417 24.9812 14.4417C25.1849 14.4417 25.3865 14.3506 25.5205 14.1765C25.7496 13.879 25.6941 13.452 25.3966 13.223C22.7124 11.1554 19.5681 12.4031 18.8742 12.7206C18.2418 11.9959 17.8382 11.531 17.7432 11.4162V11.4164C17.2384 10.8073 16.527 10.4312 15.7394 10.3574C14.9512 10.2838 14.1828 10.5212 13.5739 11.0257C12.9648 11.5303 12.5888 12.2419 12.515 13.0293C12.4412 13.8169 12.6785 14.5859 13.1832 15.1948C13.2387 15.2616 13.3993 15.4187 13.646 15.649C11.9766 15.8078 10.9824 15.1627 10.4694 14.6498C9.43389 13.6141 8.3685 13.1427 7.30175 13.2481C5.77991 13.3987 4.89744 14.6981 4.86055 14.7533C4.65213 15.0658 4.73662 15.4879 5.04908 15.6963C5.36154 15.9051 5.78382 15.8202 5.99207 15.5078C5.99751 15.4996 6.5614 14.6882 7.43554 14.6015C8.07899 14.5384 8.77395 14.8781 9.5075 15.6113C10.5715 16.6753 11.8605 17.0211 13.0872 17.0209C13.7225 17.0209 14.3403 16.9274 14.9019 16.7936C20.4382 21.7707 37.4224 36.5186 39.6533 38.4549C39.7816 38.5662 39.9404 38.6213 40.0988 38.6213C40.2741 38.6213 40.449 38.554 40.5813 38.4205C40.8334 38.1669 40.846 37.7611 40.6099 37.4923C40.4273 37.2848 25.4384 20.2276 19.8185 13.8015ZM16.3979 16.3125C16.5508 16.2507 16.6912 16.1901 16.8138 16.1344C17.1556 15.979 17.3068 15.5758 17.1514 15.2339C16.9958 14.8919 16.5928 14.7407 16.2509 14.8963C15.9022 15.0547 15.5723 15.1837 15.2579 15.2897C14.6808 14.7672 14.3214 14.4318 14.2301 14.3269C13.9573 13.9977 13.8289 13.5818 13.8689 13.156C13.9086 12.7303 14.1121 12.3454 14.4414 12.0727C14.7313 11.8325 15.0883 11.7042 15.4601 11.7042C15.5105 11.7042 15.5614 11.7067 15.6124 11.7113C16.0382 11.7513 16.4229 11.9548 16.6958 12.2839V12.2841C17.216 12.9117 26.3373 23.3041 32.9143 30.7931C26.4281 25.1439 19.7447 19.2976 16.3979 16.3125Z" fill="black"/>
<path d="M34.6691 24.9504C34.6691 24.9506 34.6691 24.9506 34.6691 24.9504C35.0006 25.2819 35.436 25.4475 35.8712 25.4475C36.3064 25.4475 36.7417 25.2817 37.0731 24.9506C37.3942 24.6294 37.5712 24.2026 37.5712 23.7485C37.5712 23.6434 37.5606 23.5402 37.5423 23.4391L44.2705 13.7948C44.8161 13.013 44.7226 11.9566 44.0485 11.2829L40.2658 7.50006C39.5921 6.82601 38.5354 6.73251 37.7537 7.27804L28.1936 13.9475C28.0347 13.8992 27.8677 13.874 27.6971 13.874C27.243 13.874 26.816 14.051 26.4952 14.3721C25.8325 15.0346 25.8325 16.1133 26.4952 16.7763L34.6691 24.9504ZM38.5317 8.39341C38.7721 8.22579 39.0968 8.25452 39.3042 8.46141L43.0868 12.2444C43.2941 12.4515 43.3228 12.7762 43.155 13.0164L36.7394 22.2125L29.3357 14.8087L38.5317 8.39341ZM27.4567 15.3337C27.5432 15.247 27.6444 15.234 27.6969 15.234C27.7496 15.234 27.8507 15.247 27.9374 15.3337L36.1116 23.5079C36.1983 23.5945 36.2112 23.6956 36.2112 23.7483C36.2112 23.8008 36.1983 23.902 36.1116 23.9887C35.9788 24.1213 35.7627 24.1211 35.6306 23.9885V23.9887L27.4567 15.8146C27.3241 15.682 27.3241 15.4664 27.4567 15.3337Z" fill="black"/>
<path d="M41.4937 24.3428V26.3828C41.4937 26.7583 41.7981 27.0628 42.1737 27.0628C42.5492 27.0628 42.8537 26.7583 42.8537 26.3828V24.3428C42.8537 23.9673 42.5492 23.6628 42.1737 23.6628C41.7981 23.6628 41.4937 23.9673 41.4937 24.3428Z" fill="black"/>
<path d="M42.1737 28.4228C41.7981 28.4228 41.4937 28.7273 41.4937 29.1028V31.1428C41.4937 31.5183 41.7981 31.8228 42.1737 31.8228C42.5492 31.8228 42.8537 31.5183 42.8537 31.1428V29.1028C42.8537 28.7273 42.5492 28.4228 42.1737 28.4228Z" fill="black"/>
<path d="M40.8136 27.0628H38.7736C38.3981 27.0628 38.0936 27.3673 38.0936 27.7428C38.0936 28.1183 38.3981 28.4228 38.7736 28.4228H40.8136C41.1892 28.4228 41.4936 28.1183 41.4936 27.7428C41.4936 27.3673 41.1892 27.0628 40.8136 27.0628Z" fill="black"/>
<path d="M45.5736 27.0628H43.5336C43.1581 27.0628 42.8536 27.3673 42.8536 27.7428C42.8536 28.1183 43.1581 28.4228 43.5336 28.4228H45.5736C45.9492 28.4228 46.2537 28.1183 46.2537 27.7428C46.2537 27.3673 45.9492 27.0628 45.5736 27.0628Z" fill="black"/>
<path d="M7.83362 9.3828C9.14602 9.3828 10.2136 8.3152 10.2136 7.0028C10.2136 5.6904 9.14602 4.6228 7.83362 4.6228C6.52121 4.6228 5.45361 5.6904 5.45361 7.0028C5.45361 8.3152 6.52138 9.3828 7.83362 9.3828ZM7.83362 5.9828C8.39615 5.9828 8.85362 6.44027 8.85362 7.0028C8.85362 7.56533 8.39615 8.0228 7.83362 8.0228C7.27108 8.0228 6.81361 7.56533 6.81361 7.0028C6.81361 6.44027 7.27125 5.9828 7.83362 5.9828Z" fill="black"/>
<path d="M44.2138 42.7028C44.5894 42.7028 44.8938 42.3984 44.8938 42.0228C44.8938 41.6473 44.5894 41.3428 44.2138 41.3428C43.8383 41.3428 43.5338 41.6473 43.5338 42.0228C43.5338 42.3984 43.8383 42.7028 44.2138 42.7028Z" fill="black"/>
<path d="M21.7739 8.02278C22.1494 8.02278 22.4539 7.71833 22.4539 7.34278C22.4539 6.96723 22.1494 6.66278 21.7739 6.66278C21.3983 6.66278 21.0939 6.96723 21.0939 7.34278C21.0939 7.71833 21.3983 8.02278 21.7739 8.02278Z" fill="black"/>
<path d="M7.49384 21.6228C7.86939 21.6228 8.17384 21.3184 8.17384 20.9428C8.17384 20.5673 7.86939 20.2628 7.49384 20.2628C7.11829 20.2628 6.81384 20.5673 6.81384 20.9428C6.81384 21.3184 7.11829 21.6228 7.49384 21.6228Z" fill="black"/>
<path d="M31.8802 15.0027C32.0439 15.0027 32.1767 14.8699 32.1767 14.7062C32.1767 14.5425 32.0439 14.4099 31.8802 14.4099C31.7165 14.4099 31.5839 14.5427 31.5839 14.7062C31.5839 14.8698 31.7166 15.0027 31.8802 15.0027Z" fill="black"/>
<path d="M33.6304 16.6352C33.7941 16.6352 33.9267 16.5025 33.9267 16.3389C33.9267 16.1752 33.7941 16.0425 33.6304 16.0425C33.4668 16.0425 33.3341 16.1752 33.3341 16.3389C33.3341 16.5025 33.4668 16.6352 33.6304 16.6352Z" fill="black"/>
<path d="M34.1113 14.231C34.275 14.231 34.4076 14.0983 34.4076 13.9346C34.4076 13.7708 34.2748 13.6382 34.1113 13.6382C33.9477 13.6382 33.8149 13.771 33.8149 13.9346C33.8149 14.0981 33.9475 14.231 34.1113 14.231Z" fill="black"/>
<path d="M35.7942 15.914C35.9579 15.914 36.0905 15.7812 36.0905 15.6175C36.0905 15.4538 35.9577 15.321 35.7942 15.321C35.6306 15.321 35.4977 15.4538 35.4977 15.6175C35.4977 15.7812 35.6305 15.914 35.7942 15.914Z" fill="black"/>
<path d="M37.477 17.5969C37.6407 17.5969 37.7733 17.4641 37.7733 17.3006C37.7733 17.137 37.6406 17.0043 37.477 17.0043C37.3135 17.0043 37.1805 17.137 37.1805 17.3006C37.1805 17.4641 37.3133 17.5969 37.477 17.5969Z" fill="black"/>
<path d="M35.3069 18.3119C35.4706 18.3119 35.6032 18.1791 35.6032 18.0156C35.6032 17.8519 35.4705 17.7191 35.3069 17.7191C35.1434 17.7191 35.0106 17.8519 35.0106 18.0156C35.0106 18.1791 35.1434 18.3119 35.3069 18.3119Z" fill="black"/>
<path d="M36.5153 13.7501C36.679 13.7501 36.8116 13.6174 36.8116 13.4538C36.8116 13.2901 36.679 13.1575 36.5153 13.1575C36.3517 13.1575 36.219 13.2901 36.219 13.4538C36.219 13.6174 36.3517 13.7501 36.5153 13.7501Z" fill="black"/>
<path d="M38.1921 15.4268C38.3558 15.4268 38.4886 15.294 38.4886 15.1305C38.4886 14.9669 38.3558 14.8342 38.1921 14.8342C38.0284 14.8342 37.8958 14.9669 37.8958 15.1305C37.8958 15.294 38.0284 15.4268 38.1921 15.4268Z" fill="black"/>
<path d="M36.6873 19.6921C36.6873 19.8558 36.82 19.9886 36.9837 19.9886C37.1474 19.9886 37.28 19.8558 37.28 19.6921C37.28 19.5284 37.1473 19.3958 36.9837 19.3958C36.8202 19.3958 36.6873 19.5284 36.6873 19.6921Z" fill="black"/>
</svg>
