<svg width="39" height="39" viewBox="0 0 39 39" fill="none" xmlns="http://www.w3.org/2000/svg">
<g clip-path="url(#clip0)">
<path d="M35.9674 25.1888C35.5467 25.1888 35.2057 25.5298 35.2057 25.9505V32.2207H31.2447V15.3137C31.2447 12.7865 31.8802 10.3153 33.0889 8.11002C34.4171 9.58311 35.2057 11.5276 35.2057 13.6319V19.0951C35.2057 19.5158 35.5467 19.8569 35.9674 19.8569C36.3881 19.8569 36.7291 19.5158 36.7291 19.0951V13.6319C36.7291 9.11 33.6601 5.20688 29.2659 4.14009L26.05 3.35941C26.0385 3.23152 25.9953 3.10484 25.9166 2.99203C24.6097 1.11851 22.4657 0 20.1814 0H18.7989C16.5146 0 14.3706 1.11851 13.0637 2.99188C12.9841 3.10614 12.9408 3.23456 12.93 3.36405L9.7338 4.14002C5.33959 5.2068 2.27063 9.10993 2.27063 13.6318V32.2207C2.27063 32.7831 2.57776 33.2741 3.03235 33.538V36.0293C3.03235 36.45 3.37337 36.791 3.79407 36.791H7.755C8.1757 36.791 8.51672 36.45 8.51672 36.0293V34.7607C8.65231 35.0025 8.8045 35.2357 8.97375 35.4578V38.2383C8.97375 38.659 9.31478 39 9.73547 39H29.2403C29.661 39 30.002 38.659 30.002 38.2383V35.4895C30.181 35.2581 30.3411 35.0141 30.4831 34.7607V36.0293C30.4831 36.45 30.8241 36.791 31.2448 36.791H35.2057C35.6264 36.791 35.9675 36.45 35.9675 36.0293V33.538C36.4221 33.2741 36.7292 32.7831 36.7292 32.2207V25.9505C36.7291 25.5298 36.3881 25.1888 35.9674 25.1888ZM18.7316 16.4531L18.7345 24.6797H9.27837V16.4531H18.7316ZM18.7989 4.57031H20.1814C20.7949 4.57031 21.3786 4.80408 21.8212 5.21122C20.809 6.28189 20.0194 7.53713 19.4916 8.90137C18.9635 7.5366 18.173 6.28106 17.16 5.21023C17.6026 4.8037 18.1858 4.57031 18.7989 4.57031ZM29.7213 24.6797H20.2579L20.255 16.4531H29.7212V24.6797H29.7213ZM9.27837 31.8521V26.2031H18.735L18.7378 34.4297H10.1073C9.57064 33.6811 9.27837 32.7781 9.27837 31.8521ZM20.2613 34.4297L20.2584 26.2031H29.7213V31.8521C29.7213 32.7781 29.429 33.6811 28.8924 34.4297H20.2613ZM31.9357 7.05313C30.5492 9.45285 29.7905 12.1552 29.7263 14.9297H20.2545L20.2538 12.9744V12.9743C20.2538 12.9739 20.2538 12.9734 20.2538 12.9731C20.2538 12.9729 20.2538 12.9728 20.2538 12.9726C20.2538 9.78801 21.8111 6.79605 24.4194 4.969L24.8835 4.64389L28.9065 5.62057C30.0336 5.8941 31.0564 6.38983 31.9357 7.05313ZM18.7989 1.52344H20.1814C21.7119 1.52344 23.1618 2.16534 24.1886 3.27052L23.5454 3.72115C23.3386 3.86603 23.1381 4.01776 22.9428 4.17498C22.2121 3.45919 21.2227 3.04688 20.1814 3.04688H18.7989C17.7578 3.04688 16.7687 3.45896 16.0381 4.17437C15.843 4.01738 15.6426 3.86588 15.4359 3.72115L14.7918 3.27029C15.8186 2.16526 17.2685 1.52344 18.7989 1.52344ZM10.0932 5.62049L14.1023 4.64725L14.5623 4.9693C17.1722 6.79621 18.7304 9.78892 18.7304 12.9747V12.9748V12.975L18.7311 14.9297H9.27334C9.2092 12.1552 8.45045 9.45285 7.06397 7.05313C7.94315 6.38983 8.96606 5.8941 10.0932 5.62049ZM3.79399 13.6318C3.79399 11.5275 4.5826 9.58303 5.91073 8.10994C7.1195 10.3153 7.75493 12.7864 7.75493 15.3136V32.2207H3.79399V13.6318ZM6.99321 35.2676H4.55571V33.7441H6.99321V35.2676ZM28.4784 37.4766H10.4971V35.9531H28.4785V37.4766H28.4784ZM34.444 35.2676H32.0065V33.7441H34.444V35.2676Z" fill="black"/>
<path d="M35.9678 21.7609C35.7667 21.7609 35.5702 21.8424 35.4292 21.984C35.2868 22.1257 35.2061 22.3223 35.2061 22.5226C35.2061 22.7237 35.2868 22.9202 35.4292 23.0611C35.5702 23.2036 35.7667 23.2843 35.9678 23.2843C36.1681 23.2843 36.3646 23.2036 36.5063 23.0611C36.648 22.9194 36.7295 22.7237 36.7295 22.5226C36.7295 22.3223 36.648 22.1257 36.5063 21.984C36.3646 21.8424 36.1681 21.7609 35.9678 21.7609Z" fill="black"/>
</g>
<defs>
<clipPath id="clip0">
</clipPath>
</defs>
</svg>
