<svg width="98" height="98" viewBox="0 0 98 98" fill="none" xmlns="http://www.w3.org/2000/svg">
<rect y="48.9519" width="69.2284" height="69.2284" rx="34.6142" transform="rotate(-45 0 48.9519)" fill="#274CCF"/>
<path d="M60.0797 38.2141H37.9204C37.5163 38.2141 37.1887 38.5448 37.1887 38.9529V50.1118C37.1887 50.5199 37.5163 50.8507 37.9204 50.8507C38.3245 50.8507 38.6521 50.5199 38.6521 50.1118V39.6917H59.3479V50.1118C59.3479 50.5198 59.6756 50.8506 60.0797 50.8506C60.4838 50.8506 60.8114 50.5198 60.8114 50.1118V38.9529C60.8113 38.5448 60.4837 38.2141 60.0797 38.2141Z" fill="white"/>
<path d="M65.3415 52.75H63.9938V37.2341C63.9938 36.0026 63.0016 35.0007 61.7819 35.0007H36.2181C34.9984 35.0007 34.0063 36.0026 34.0063 37.2341V52.75H32.6586C32.2948 52.75 32 53.0477 32 53.415V54.7203C32 56.5292 33.4574 58.0007 35.2489 58.0007H62.7511C64.5426 58.0007 66 56.5292 66 54.7203V53.415C66.0001 53.0477 65.7053 52.75 65.3415 52.75ZM35.4697 37.2341C35.4697 36.8174 35.8055 36.4783 36.2181 36.4783H61.7818C62.1946 36.4783 62.5303 36.8173 62.5303 37.2341V52.75H52.6224C52.5758 52.7485 52.5276 52.7525 52.4798 52.7618C52.1698 52.822 51.9458 53.096 51.9458 53.4147C51.9458 53.976 51.4936 54.4325 50.9378 54.4325H47.0623C46.5064 54.4325 46.0543 53.9759 46.0543 53.4147C46.0543 53.0424 45.7488 52.7419 45.3805 52.7499H35.4697V37.2341ZM64.683 54.7203C64.683 55.7959 63.8163 56.6708 62.7512 56.6708H35.2489C34.1837 56.6708 33.3171 55.7959 33.3171 54.7203V54.0799H44.8322C45.1169 55.0516 46.0089 55.7625 47.0622 55.7625H50.9378C51.9911 55.7625 52.8831 55.0515 53.1679 54.0799H64.683L64.683 54.7203Z" fill="white"/>
<path d="M50.0845 42.5087C49.7987 42.2202 49.3355 42.2202 49.0496 42.5087L44.4479 47.1553C44.1621 47.4439 44.1621 47.9117 44.4479 48.2002C44.5908 48.3445 44.778 48.4166 44.9652 48.4166C45.1525 48.4166 45.3397 48.3444 45.4826 48.2002L50.0845 43.5536C50.3703 43.2651 50.3703 42.7973 50.0845 42.5087Z" fill="white"/>
<path d="M52.8121 45.2014C52.5263 44.9128 52.0631 44.9128 51.7773 45.2014L49.944 47.0524C49.6583 47.3409 49.6583 47.8087 49.944 48.0973C50.0869 48.2416 50.2742 48.3137 50.4614 48.3137C50.6487 48.3137 50.8359 48.2416 50.9788 48.0973L52.812 46.2463C53.0978 45.9578 53.0978 45.4899 52.8121 45.2014Z" fill="white"/>
</svg>
