<svg width="27" height="27" viewBox="0 0 27 27" fill="none" xmlns="http://www.w3.org/2000/svg">
<path d="M15.1691 12.9101C17.0789 12.6703 18.9621 13.4389 20.1699 14.9267C20.2586 15.0359 20.4168 15.0598 20.5304 14.9769C21.0775 14.5771 21.5485 14.0777 21.9179 13.5011C24.2196 9.90984 21.6636 5.0625 17.2967 5.0625C14.4472 5.0625 12.0985 7.24628 11.8371 10.0283C11.8266 10.1407 11.8886 10.248 11.9919 10.2936C13.1839 10.8209 14.2023 11.6896 14.9177 12.794C14.9719 12.8778 15.0701 12.9225 15.1691 12.9101Z" fill="black"/>
<path d="M17.2969 4.21875C17.7629 4.21875 18.1406 3.84096 18.1406 3.375V1.6875C18.1406 1.22154 17.7629 0.84375 17.2969 0.84375C16.8309 0.84375 16.4531 1.22154 16.4531 1.6875V3.375C16.4531 3.84096 16.8309 4.21875 17.2969 4.21875Z" fill="black"/>
<path d="M26.1562 9.70312H24.4688C24.0027 9.70312 23.625 10.0809 23.625 10.5469C23.625 11.0128 24.0027 11.3906 24.4688 11.3906H26.1562C26.6223 11.3906 27 11.0128 27 10.5469C27 10.0809 26.6223 9.70312 26.1562 9.70312Z" fill="black"/>
<path d="M22.9648 15.0215C22.6354 14.692 22.1011 14.692 21.7716 15.0215C21.442 15.3511 21.442 15.8853 21.7716 16.2147L22.9648 17.408C23.1295 17.5728 23.3454 17.6551 23.5614 17.6551C24.3064 17.6551 24.691 16.7477 24.158 16.2148L22.9648 15.0215Z" fill="black"/>
<path d="M11.6288 6.07228C11.9583 6.40181 12.4925 6.40181 12.8221 6.07228C13.1516 5.74274 13.1516 5.20854 12.8221 4.87906L11.6288 3.68583C11.2995 3.35635 10.7652 3.35635 10.4356 3.68583C10.1061 4.01537 10.1061 4.54957 10.4356 4.87906L11.6288 6.07228Z" fill="black"/>
<path d="M22.3681 6.31946C22.5841 6.31946 22.8 6.23709 22.9647 6.0723L24.1579 4.87908C24.4875 4.54954 24.4875 4.01534 24.1579 3.68585C23.8285 3.35637 23.2942 3.35632 22.9647 3.68585L21.7715 4.87913C21.2384 5.41222 21.6232 6.31946 22.3681 6.31946Z" fill="black"/>
<path d="M19.6451 19.1953C20.2956 15.9904 16.9393 13.5195 14.093 14.98C13.4674 12.9155 11.55 11.4126 9.28125 11.4126C6.33688 11.4126 4.01235 13.9343 4.27412 16.8894C1.88251 17.0762 0 19.076 0 21.5156C0 24.0714 2.07062 26.1562 4.64062 26.1562H19.7227C21.6449 26.1562 23.2031 24.598 23.2031 22.6758C23.2031 20.8386 21.7575 19.1953 19.6451 19.1953Z" fill="black"/>
</svg>
