<svg width="512" height="512" viewBox="0 0 512 512" fill="none" xmlns="http://www.w3.org/2000/svg">
<g clip-path="url(#clip0)">
<path d="M74.667 0H437.333C478.507 0 512 33.493 512 74.667V330.667C512 371.84 478.507 405.334 437.333 405.334H185.749L82.197 508.886C80.17 510.913 77.44 512.001 74.666 512.001C73.301 512.001 71.893 511.745 70.591 511.19C66.602 509.547 63.999 505.643 63.999 501.334V404.566C27.86 399.382 -0.000976562 368.214 -0.000976562 330.667V74.667C2.34375e-05 33.493 33.493 0 74.667 0Z" fill="#898C91"/>
</g>
<defs>
<clipPath id="clip0">
<rect width="512" height="512" fill="white" transform="matrix(-1 0 0 1 512 0)"/>
</clipPath>
</defs>
</svg>
