<svg width="513" height="513" viewBox="0 0 513 513" fill="none" xmlns="http://www.w3.org/2000/svg">
<g clip-path="url(#clip0)">
<path d="M77.8961 244.225C129.864 190.358 204.125 162.07 298.739 160.129V64.022C298.739 59.713 301.342 55.809 305.331 54.166C309.32 52.545 313.886 53.419 316.936 56.47L508.936 248.47C513.096 252.63 513.096 259.393 508.936 263.553L316.936 455.553C313.885 458.625 309.277 459.542 305.309 457.857C301.32 456.214 298.717 452.31 298.717 448.001V352.086C84.3811 355.201 20.4021 452.651 19.7841 453.611C17.8001 456.811 14.3442 458.667 10.7172 458.667C9.82116 458.667 8.90415 458.539 7.98615 458.304C3.44214 457.088 0.221171 453.077 0.0501709 448.363C-0.0988291 443.542 -3.27685 328.385 77.8961 244.225Z" fill="#898C91"/>
</g>
<defs>
<clipPath id="clip0">
<rect width="512.056" height="512.056" fill="white"/>
</clipPath>
</defs>
</svg>
