<svg width="116" height="116" viewBox="0 0 116 116" fill="none" xmlns="http://www.w3.org/2000/svg">
<circle cx="58" cy="58" r="57" stroke="white" stroke-width="2"/>
<path d="M78.2344 48.7811L84.6798 42.3358C84.9509 42.0646 85.0602 41.6713 84.968 41.2992C84.8758 40.927 84.5954 40.6304 84.229 40.5173L68.5336 35.6731C67.1188 31.1252 62.9135 28 58.0937 28C53.6133 28 49.6062 30.7305 47.9477 34.8496L29.7681 40.5183C29.4027 40.6323 29.1233 40.9291 29.0318 41.3009C28.9402 41.6725 29.0496 42.0652 29.3203 42.3359L35.9352 48.9508L31.7632 55.9043C31.5925 56.1888 31.5602 56.5354 31.6753 56.8466C31.7903 57.1577 32.0405 57.3998 32.3552 57.5047L38.4062 59.5215V76.3436C38.4062 76.7995 38.689 77.2076 39.1159 77.3677C42.8158 78.755 56.5625 83.9107 56.6364 83.9369C56.8534 84.0133 57.0978 84.0237 57.3362 83.9466C57.3393 83.9455 57.3426 83.9449 57.3458 83.9438L77.0333 77.3813C77.4799 77.2324 77.7812 76.8144 77.7812 76.3436V59.0711L84.2341 57.0433C84.599 56.9287 84.8774 56.6319 84.9686 56.2604C85.0596 55.889 84.9501 55.497 84.6797 55.2265L78.2344 48.7811ZM69.0312 38.9375C69.0312 38.6596 69.0195 38.3823 68.9986 38.1059L81.8495 42.0724L76.392 47.5298L67.4749 44.5577C68.4846 42.87 69.0312 40.9224 69.0312 38.9375ZM49.817 36.0907C51.0311 32.5598 54.3573 30.1875 58.0937 30.1875C62.1188 30.1875 65.6098 32.9101 66.5832 36.8082C66.7561 37.5009 66.8437 38.2173 66.8437 38.9375C66.8437 40.969 66.1695 42.8731 64.8938 44.4447C63.2228 46.5056 60.7443 47.6875 58.0937 47.6875C55.2285 47.6875 52.541 46.2812 50.9041 43.9246C49.8833 42.4583 49.3437 40.7337 49.3437 38.9375C49.3437 37.9607 49.5028 37.0029 49.817 36.0907ZM32.1461 42.0681L47.2727 37.3515C47.1968 37.874 47.1562 38.4034 47.1562 38.9374C47.1562 40.6984 47.5733 42.4041 48.3685 43.9432L37.6079 47.5298L32.1461 42.0681ZM34.3405 55.8605L37.7989 50.0963L55.3605 55.9501L51.9022 61.7144C50.027 61.0893 36.3427 56.5278 34.3405 55.8605ZM55.9062 81.328L40.5937 75.5858V60.2507C52.6413 64.2453 52.053 64.1234 52.3885 64.1234C52.7645 64.1234 53.1246 63.9288 53.3266 63.5923L55.9062 59.2926V81.328ZM56.9999 54.1908L40.7713 48.7814L49.6082 45.8359C51.6764 48.3785 54.79 49.875 58.0937 49.875C61.1498 49.875 64.0221 48.6173 66.0881 46.4014L73.2286 48.7812L56.9999 54.1908ZM75.5937 75.5554L58.0937 81.3887V58.4615L61.9711 63.3079C62.2532 63.6604 62.7228 63.8032 63.1532 63.6681L75.5937 59.7587V75.5554ZM63.2116 61.3569L58.8339 55.8853L76.392 50.0326L81.8568 55.4974L63.2116 61.3569Z" fill="white"/>
</svg>
