<svg width="92" height="92" viewBox="0 0 92 92" fill="none" xmlns="http://www.w3.org/2000/svg">
<path d="M52.8813 63.8566C52.647 65.2913 52.2747 66.677 51.773 68.0024L56.2738 72.0806C55.6427 73.4088 54.924 74.6853 54.0946 75.8842L48.3158 74.0212C47.4044 75.1353 46.3838 76.1544 45.2698 77.0658L47.1327 82.8446C45.9339 83.674 44.6574 84.3913 43.3291 85.0238L39.2509 80.523C37.9256 81.0247 36.5412 81.397 35.1052 81.6313L33.8215 87.5768C33.0956 87.6343 32.3668 87.6875 31.625 87.6875C30.8832 87.6875 30.1544 87.6343 29.4271 87.5768L28.1434 81.6313C26.7087 81.397 25.323 81.0247 23.9976 80.523L19.9194 85.0238C18.5912 84.3927 17.3147 83.674 16.1158 82.8446L17.9788 77.0658C16.8647 76.1544 15.8456 75.1338 14.9342 74.0212L9.15544 75.8842C8.326 74.6853 7.60869 73.4088 6.97619 72.0806L11.477 68.0024C10.9753 66.677 10.603 65.2927 10.3687 63.8566L4.42319 62.5729C4.36569 61.8456 4.3125 61.1168 4.3125 60.375C4.3125 59.6332 4.36569 58.9044 4.42319 58.1771L10.3687 56.8934C10.603 55.4587 10.9753 54.073 11.477 52.7476L6.97619 48.6694C7.60725 47.3412 8.326 46.0647 9.15544 44.8658L14.9342 46.7288C15.8456 45.6147 16.8662 44.5956 17.9803 43.6842L16.1172 37.9054C17.3161 37.076 18.5926 36.3587 19.9209 35.7262L23.9991 40.227C25.3244 39.7253 26.7087 39.353 28.1448 39.1187L29.4285 33.1732C30.1544 33.1157 30.8832 33.0625 31.625 33.0625C32.3668 33.0625 33.0956 33.1157 33.8229 33.1732L35.1066 39.1187C36.5413 39.353 37.927 39.7253 39.2524 40.227L43.3306 35.7262C44.6588 36.3573 45.9353 37.076 47.1342 37.9054L45.2712 43.6842C46.3853 44.5956 47.4044 45.6162 48.3158 46.7302L54.0946 44.8672C54.924 46.0661 55.6413 47.3426 56.2738 48.6709L51.773 52.7491C52.2747 54.0744 52.647 55.4587 52.8813 56.8948L58.8268 58.1785C58.8843 58.9044 58.9375 59.6332 58.9375 60.375C58.9375 61.1168 58.8843 61.8456 58.8268 62.5729L52.8813 63.8566ZM31.625 46C23.6857 46 17.25 52.4357 17.25 60.375C17.25 68.3143 23.6857 74.75 31.625 74.75C39.5643 74.75 46 68.3143 46 60.375C46 52.4357 39.5643 46 31.625 46Z" fill="black"/>
<path d="M72.8223 23.4384C72.5981 24.1816 72.3048 24.8946 71.944 25.5659L74.2138 29.9158C73.4476 30.8847 72.5736 31.7587 71.6047 32.5249L67.2549 30.2551C66.5836 30.6173 65.8706 30.9106 65.1274 31.1334L63.6554 35.8196C63.0488 35.8915 62.4364 35.9375 61.8125 35.9375C61.1886 35.9375 60.5763 35.8915 59.9711 35.8211L58.4991 31.1348C57.7559 30.912 57.0429 30.6173 56.3716 30.2565L52.0217 32.5263C51.0528 31.7601 50.1788 30.8861 49.4126 29.9172L51.6824 25.5674C51.3202 24.8961 51.0269 24.1831 50.8041 23.4399L46.1179 21.9679C46.046 21.3612 46 20.7489 46 20.125C46 19.5011 46.046 18.8888 46.1164 18.2836L50.8027 16.8116C51.0255 16.0684 51.3202 15.3554 51.681 14.6841L49.4112 10.3342C50.1774 9.36531 51.0514 8.49131 52.0202 7.72513L56.3701 9.99494C57.0414 9.63269 57.7544 9.33944 58.4976 9.11662L59.9696 4.43038C60.5762 4.3585 61.1886 4.3125 61.8125 4.3125C62.4364 4.3125 63.0487 4.3585 63.6539 4.42894L65.1259 9.11519C65.8691 9.338 66.5821 9.63269 67.2534 9.9935L71.6033 7.72369C72.5722 8.48988 73.4462 9.36388 74.2124 10.3328L71.9426 14.6826C72.3048 15.3539 72.5981 16.0669 72.8209 16.8101L77.5071 18.2821C77.579 18.8888 77.625 19.5011 77.625 20.125C77.625 20.7489 77.579 21.3612 77.5086 21.9664L72.8223 23.4384ZM61.8125 14.375C58.6371 14.375 56.0625 16.9496 56.0625 20.125C56.0625 23.3004 58.6371 25.875 61.8125 25.875C64.9879 25.875 67.5625 23.3004 67.5625 20.125C67.5625 16.9496 64.9879 14.375 61.8125 14.375Z" fill="black"/>
<path d="M84.4373 55.8771C84.2159 56.6749 83.904 57.431 83.5044 58.1368L84.9347 61.1469C84.2849 61.9764 83.5389 62.7224 82.7094 63.3722L79.6993 61.9419C78.9949 62.3415 78.2374 62.6534 77.4396 62.8748L76.3212 66.0201C75.8051 66.0833 75.2833 66.125 74.75 66.125C74.2167 66.125 73.6949 66.0833 73.1788 66.0201L72.0604 62.8748C71.2626 62.6534 70.5065 62.3415 69.8007 61.9419L66.7906 63.3722C65.9611 62.7224 65.2151 61.9764 64.5653 61.1469L65.9956 58.1368C65.596 57.4324 65.2841 56.6749 65.0627 55.8785L61.9174 54.7601C61.8542 54.2426 61.8125 53.7208 61.8125 53.1875C61.8125 52.6542 61.8542 52.1324 61.9174 51.6163L65.0627 50.4979C65.2841 49.7001 65.596 48.944 65.9956 48.2396L64.5653 45.2295C65.2151 44.4001 65.9611 43.654 66.7906 43.0043L69.8007 44.4346C70.5051 44.0349 71.2626 43.723 72.0604 43.5016L73.1788 40.3564C73.6949 40.2917 74.2167 40.25 74.75 40.25C75.2833 40.25 75.8051 40.2917 76.3212 40.3549L77.4396 43.5002C78.2374 43.7216 78.9935 44.0335 79.6993 44.4331L82.7094 43.0028C83.5389 43.6526 84.2849 44.3986 84.9347 45.2281L83.5044 48.2382C83.904 48.9426 84.2159 49.7001 84.4373 50.4979L87.5826 51.6163C87.6458 52.1324 87.6875 52.6542 87.6875 53.1875C87.6875 53.7208 87.6458 54.2426 87.5826 54.7587L84.4373 55.8771ZM74.75 48.875C72.3681 48.875 70.4375 50.8056 70.4375 53.1875C70.4375 55.5694 72.3681 57.5 74.75 57.5C77.1319 57.5 79.0625 55.5694 79.0625 53.1875C79.0625 50.8056 77.1319 48.875 74.75 48.875Z" fill="black"/>
<path d="M87.9692 7.21632L79.3716 5.49707L77.6523 14.0933L80.4712 14.6583L81.2461 10.7885C82.639 13.6865 83.375 16.8806 83.375 20.1251C83.375 25.0816 81.7391 29.7419 78.6456 33.6016L80.8896 35.3999C84.3467 31.086 86.25 25.6623 86.25 20.1251C86.25 16.3603 85.3803 12.6486 83.7257 9.29926L87.4057 10.0353L87.9692 7.21632Z" fill="black"/>
<path d="M34.0788 19.1086L32.0462 21.1413L33.9997 23.0948C33.2091 23.0445 32.417 23 31.625 23C20.5045 23 10.0366 27.9033 2.9066 36.4535L5.1146 38.2949C11.6969 30.4016 21.3584 25.875 31.625 25.875C32.3567 25.875 33.0869 25.9166 33.8172 25.9626L32.0462 27.7336L34.0788 29.7663L39.4076 24.4375L34.0788 19.1086Z" fill="black"/>
</svg>
