<svg width="59" height="59" viewBox="0 0 59 59" fill="none" xmlns="http://www.w3.org/2000/svg">
<circle cx="29.5" cy="29.5" r="29.5" fill="#FFCD00"/>
<path d="M29.5301 17.5322C23.9274 17.5322 19.35 22.1096 19.35 27.7123C19.35 30.6418 20.6317 33.4615 22.7922 35.3657C24.4035 36.9769 24.257 40.4191 24.2204 40.4557C24.2204 40.6388 24.257 40.7853 24.4035 40.9317C24.5133 41.0416 24.6964 41.1148 24.8429 41.1148H34.1807C34.3638 41.1148 34.5103 41.0416 34.6201 40.9317C34.73 40.8219 34.8032 40.6388 34.8032 40.4557C34.8032 40.4191 34.6201 36.9769 36.2314 35.3657C36.268 35.329 36.3046 35.2924 36.3412 35.2558C38.4651 33.315 39.7102 30.5686 39.7102 27.7123C39.7102 22.1096 35.1328 17.5322 29.5301 17.5322ZM35.3891 34.4136C35.3525 34.4502 35.2793 34.5234 35.2793 34.56C33.8511 36.098 33.5948 38.6247 33.5582 39.8332H25.4654C25.4288 38.6247 25.1725 35.9882 23.6345 34.4136C21.6936 32.7291 20.5585 30.2756 20.5585 27.6757C20.5585 22.7321 24.5499 18.7406 29.4935 18.7406C34.437 18.7406 38.4285 22.7321 38.4285 27.6757C38.4285 30.2756 37.3299 32.7291 35.3891 34.4136Z" fill="#231F20"/>
<path d="M29.4935 20.1322C29.1639 20.1322 28.871 20.4251 28.871 20.7547C28.871 21.0842 29.1639 21.3772 29.4935 21.3772C33.192 21.3772 36.1581 24.38 36.1581 28.0419C36.1581 28.3714 36.4511 28.6644 36.7807 28.6644C37.1102 28.6644 37.4032 28.3714 37.4032 28.0419C37.4398 23.6842 33.8878 20.1322 29.4935 20.1322Z" fill="#4F7BAF"/>
<path d="M33.5582 41.8106H25.4288C24.5866 41.8106 23.8908 42.5063 23.8908 43.3486C23.8908 44.1908 24.5866 44.8866 25.4288 44.8866H33.5216C34.4004 44.85 35.0962 44.1908 35.0962 43.3486C35.0962 42.5063 34.4004 41.8106 33.5582 41.8106ZM33.5582 43.6049H25.4288C25.2823 43.6049 25.1359 43.495 25.1359 43.312C25.1359 43.1289 25.2457 43.019 25.4288 43.019H33.5216C33.6681 43.019 33.8145 43.1289 33.8145 43.312C33.8145 43.495 33.7047 43.6049 33.5582 43.6049Z" fill="#231F20"/>
<path d="M32.3498 45.5091H26.6372C25.795 45.5091 25.0992 46.2049 25.0992 47.0471C25.0992 47.8893 25.795 48.5851 26.6372 48.5851H32.3498C33.192 48.5851 33.8878 47.8893 33.8878 47.0471C33.8878 46.1682 33.192 45.5091 32.3498 45.5091ZM32.3498 47.3034H26.6372C26.4908 47.3034 26.3443 47.1936 26.3443 47.0105C26.3443 46.8274 26.4541 46.7175 26.6372 46.7175H32.3498C32.4963 46.7175 32.6427 46.8274 32.6427 47.0105C32.6427 47.1936 32.4963 47.3034 32.3498 47.3034Z" fill="#231F20"/>
<path d="M29.4935 14.4928C29.8597 14.4928 30.116 14.1999 30.116 13.8703V9.62252C30.116 9.29295 29.8231 9 29.4935 9C29.1639 9 28.871 9.29295 28.871 9.62252V13.8703C28.871 14.1999 29.1639 14.4928 29.4935 14.4928Z" fill="#231F20"/>
<path d="M39.8567 12.1492C39.5637 11.9295 39.1975 12.0394 39.0144 12.2957L36.6708 15.8111C36.4511 16.1041 36.5243 16.5069 36.8173 16.69C36.9271 16.7632 37.037 16.7998 37.1469 16.7998C37.3666 16.7998 37.5497 16.69 37.6595 16.5069L40.0031 12.9915C40.2229 12.7351 40.1496 12.3323 39.8567 12.1492Z" fill="#231F20"/>
<path d="M22.0599 16.6534C22.1697 16.6534 22.2796 16.6167 22.3894 16.5435C22.6824 16.3604 22.7556 15.9576 22.5725 15.6647L20.3022 12.1126C20.1191 11.8197 19.7162 11.7464 19.4233 11.9295C19.1303 12.1126 19.0571 12.5154 19.2402 12.8084L21.5106 16.3604C21.6571 16.5801 21.8401 16.6534 22.0599 16.6534Z" fill="#231F20"/>
<path d="M17.629 20.535L13.9304 18.5209C13.6375 18.3745 13.2347 18.4843 13.0882 18.7773C12.9051 19.0702 13.015 19.473 13.3445 19.6195L17.043 21.6335C17.1529 21.6702 17.2261 21.7068 17.336 21.7068C17.5557 21.7068 17.7754 21.5969 17.8853 21.3772C18.0318 21.0843 17.9219 20.6814 17.629 20.535Z" fill="#231F20"/>
<path d="M45.9354 18.7773C45.7889 18.4843 45.3861 18.3745 45.0932 18.5209L41.358 20.535C41.0651 20.6814 40.9552 21.0843 41.1017 21.3772C41.2116 21.5969 41.4313 21.7068 41.651 21.7068C41.7608 21.7068 41.8707 21.6702 41.9439 21.6335L45.6791 19.6195C45.972 19.473 46.0819 19.0702 45.9354 18.7773Z" fill="#231F20"/>
<circle cx="29.5" cy="29.5" r="27" stroke="#4F7BAF"/>
</svg>
