<svg width="110" height="110" viewBox="0 0 110 110" fill="none" xmlns="http://www.w3.org/2000/svg">
<rect width="110" height="110" rx="8" fill="#396ACA"/>
<g clip-path="url(#clip0)">
<path d="M88.9726 23.2876H21.0274C20.4601 23.2876 20 23.7477 20 24.315V85.6849C20 86.2523 20.4601 86.7124 21.0274 86.7124H88.9727C89.5401 86.7124 90.0001 86.2523 90.0001 85.6849V24.315C90 23.7477 89.5399 23.2876 88.9726 23.2876ZM87.9453 32.0547H33.6757C33.1083 32.0547 32.6483 32.5147 32.6483 33.0821C32.6483 33.6495 33.1083 34.1096 33.6757 34.1096H87.9451V84.6575H22.0547V34.1096H28.9269C29.4943 34.1096 29.9544 33.6495 29.9544 33.0821C29.9544 32.5147 29.4943 32.0547 28.9269 32.0547H22.0547V25.3423H87.9451V32.0547H87.9453Z" fill="white"/>
<path d="M58.2876 71.5068H51.7122C49.3329 71.5068 47.3971 73.4426 47.3971 75.822C47.3971 78.2013 49.3329 80.1371 51.7122 80.1371H58.2876C60.6669 80.1371 62.6027 78.2013 62.6027 75.822C62.6027 73.4425 60.6669 71.5068 58.2876 71.5068ZM58.2876 78.0822H51.7122C50.4659 78.0822 49.452 77.0683 49.452 75.822C49.452 74.5756 50.466 73.5617 51.7122 73.5617H58.2876C59.5339 73.5617 60.5478 74.5758 60.5478 75.822C60.5478 77.0681 59.5339 78.0822 58.2876 78.0822Z" fill="white"/>
<path d="M80.2054 27.6714H80.0685C79.5011 27.6714 79.041 28.1314 79.041 28.6988C79.041 29.2662 79.5011 29.7263 80.0685 29.7263H80.2054C80.7728 29.7263 81.2329 29.2662 81.2329 28.6988C81.2329 28.1314 80.7728 27.6714 80.2054 27.6714Z" fill="white"/>
<path d="M84.589 27.6714H84.452C83.8846 27.6714 83.4246 28.1314 83.4246 28.6988C83.4246 29.2662 83.8846 29.7263 84.452 29.7263H84.589C85.1564 29.7263 85.6164 29.2662 85.6164 28.6988C85.6164 28.1314 85.1564 27.6714 84.589 27.6714Z" fill="white"/>
<path d="M75.6848 27.6714H75.5478C74.9804 27.6714 74.5204 28.1314 74.5204 28.6988C74.5204 29.2662 74.9804 29.7263 75.5478 29.7263H75.6848C76.2522 29.7263 76.7123 29.2662 76.7123 28.6988C76.7123 28.1314 76.2523 27.6714 75.6848 27.6714Z" fill="white"/>
<path d="M84.2192 74.1879L77.1968 67.1652L81.1198 63.2422C81.6681 62.6939 81.4101 61.728 80.6637 61.5245L73.5615 59.5874V46.233C73.5615 45.6656 73.1014 45.2056 72.534 45.2056H37.4657C36.8983 45.2056 36.4382 45.6656 36.4382 46.233V68.1508C36.4382 68.7182 36.8983 69.1782 37.4657 69.1782H65.3656L67.0036 75.1846C67.2072 75.9311 68.1731 76.1889 68.7214 75.6408L72.6444 71.7178L79.6669 78.7404C80.0627 79.1362 80.724 79.1362 81.1198 78.7404L84.2194 75.6408C84.6205 75.2395 84.6205 74.589 84.2192 74.1879ZM38.493 67.1235V47.2605H71.5067V59.027L63.6156 56.8749C62.8628 56.6696 62.1487 57.3837 62.3541 58.1364L64.805 67.1234H38.493V67.1235ZM80.3934 76.5611L73.3709 69.5385C72.9751 69.1426 72.3138 69.1427 71.918 69.5385L68.5202 72.9361L64.8097 59.3307L78.4151 63.0412L75.0175 66.4389C74.6163 66.8402 74.6163 67.4907 75.0175 67.8919L82.0401 74.9144L80.3934 76.5611Z" fill="white"/>
<path d="M59.3835 40.8218H37.4657C36.8983 40.8218 36.4382 41.2818 36.4382 41.8492C36.4382 42.4166 36.8983 42.8767 37.4657 42.8767H59.3835C59.9508 42.8767 60.4109 42.4166 60.4109 41.8492C60.4109 41.2818 59.9508 40.8218 59.3835 40.8218Z" fill="white"/>
<path d="M73.6302 40.8218H62.6714C62.104 40.8218 61.6439 41.2818 61.6439 41.8492C61.6439 42.4166 62.104 42.8767 62.6714 42.8767H73.6303C74.1977 42.8767 74.6578 42.4166 74.6578 41.8492C74.6578 41.2818 74.1976 40.8218 73.6302 40.8218Z" fill="white"/>
</g>
<defs>
<clipPath id="clip0">
<rect x="20" y="20" width="70" height="70" fill="white"/>
</clipPath>
</defs>
</svg>
