<svg width="152" height="152" viewBox="0 0 152 152" fill="none" xmlns="http://www.w3.org/2000/svg">
<g filter="url(#filter0_d)">
<circle cx="76" cy="72" r="56" fill="white"/>
</g>
<path d="M51.58 78.29C51.7033 78.66 52.1967 78.9067 52.5667 78.9067C52.9367 78.9067 53.43 78.66 53.5534 78.4134C53.6767 78.2901 59.3501 69.5334 63.0501 61.3934C65.0234 57.2001 66.1334 54.7334 66.1334 50.2934C66.1334 43.0167 61.0767 35.6167 52.5667 35.6167C44.0567 35.6167 39 43.0167 39 50.17C39 54.7333 40.2333 57.2 42.0833 61.27C45.7833 69.41 51.58 78.1667 51.58 78.29ZM52.5667 38.0833C59.4734 38.0833 63.6667 44.25 63.6667 50.2933C63.6667 54.24 62.68 56.3366 60.83 60.2833C58.1167 66.2033 54.4167 72.37 52.5667 75.33C50.84 72.37 47.0167 66.2033 44.3034 60.2833C42.4534 56.3366 41.4667 54.24 41.4667 50.2933C41.4667 44.25 45.66 38.0833 52.5667 38.0833Z" fill="#FA9001"/>
<path d="M52.5668 56.5832C56.6368 56.5832 59.9668 53.2532 59.9668 49.1832C59.9668 45.1132 56.6368 41.7832 52.5668 41.7832C48.4967 41.7832 45.1667 45.1132 45.1667 49.1832C45.1667 53.2532 48.4967 56.5832 52.5668 56.5832ZM52.5668 44.2499C55.28 44.2499 57.5 46.4699 57.5 49.1832C57.5 51.8965 55.28 54.1165 52.5668 54.1165C49.8535 54.1165 47.6335 51.8965 47.6335 49.1832C47.6333 46.4699 49.8533 44.2499 52.5668 44.2499Z" fill="#FA9001"/>
<path d="M99.4332 60.2832C90.9232 60.2832 85.8665 67.6832 85.8665 74.8365C85.8665 79.3998 87.0997 81.8665 88.9497 85.9365C92.6497 94.0765 98.4465 102.833 98.4465 102.956C98.5697 103.326 99.0632 103.573 99.4332 103.573C99.8032 103.573 100.296 103.326 100.42 103.08C100.543 102.957 106.217 94.1999 109.917 86.0599C111.89 81.8666 113 79.3999 113 74.9599C113 67.6832 107.943 60.2832 99.4332 60.2832ZM107.697 84.9499C104.983 90.8699 101.283 97.0366 99.4333 99.9966C97.7066 97.0366 93.8833 90.8699 91.17 84.9499C89.32 81.0032 88.3333 78.9066 88.3333 74.9599C88.3333 68.9166 92.5266 62.7499 99.4333 62.7499C106.34 62.7499 110.533 68.9166 110.533 74.9599C110.533 78.9066 109.547 81.0032 107.697 84.9499Z" fill="#FA9001"/>
<path d="M99.4332 66.4502C95.3632 66.4502 92.0332 69.7802 92.0332 73.8502C92.0332 77.9202 95.3632 81.2502 99.4332 81.2502C103.503 81.2502 106.833 77.9202 106.833 73.8502C106.833 69.7802 103.503 66.4502 99.4332 66.4502ZM99.4332 78.7835C96.7199 78.7835 94.4999 76.5635 94.4999 73.8502C94.4999 71.1369 96.7199 68.9169 99.4332 68.9169C102.146 68.9169 104.366 71.1369 104.366 73.8502C104.367 76.5635 102.147 78.7835 99.4332 78.7835Z" fill="#FA9001"/>
<path d="M99.4334 105.917H98.2001C97.4601 105.917 96.9668 106.41 96.9668 107.15C96.9668 107.89 97.4601 108.384 98.2001 108.384H99.4334C100.173 108.384 100.667 107.89 100.667 107.15C100.667 106.41 100.173 105.917 99.4334 105.917Z" fill="#FA9001"/>
<path d="M86.36 105.917H84.0167C83.2767 105.917 82.7834 106.41 82.7834 107.15C82.7834 107.89 83.2767 108.384 84.0167 108.384H86.36C87.1 108.384 87.5933 107.89 87.5933 107.15C87.5933 106.41 87.1 105.917 86.36 105.917Z" fill="#FA9001"/>
<path d="M93.5133 105.917H91.1701C90.4301 105.917 89.9368 106.41 89.9368 107.15C89.9368 107.89 90.4301 108.384 91.1701 108.384H93.5133C94.1301 108.384 94.7466 107.89 94.7466 107.15C94.7466 106.41 94.2533 105.917 93.5133 105.917Z" fill="#FA9001"/>
<path d="M58.61 81.25C57.87 81.25 57.3767 81.7433 57.3767 82.4833C57.3767 83.2233 57.87 83.7166 58.61 83.7166H60.9533C61.6933 83.7166 62.1866 83.2233 62.1866 82.4833C62.1866 81.7433 61.6933 81.25 60.9533 81.25H58.61Z" fill="#FA9001"/>
<path d="M41.5899 101.106C42.2067 101.106 42.6999 100.736 42.8232 100.243C42.8232 99.6264 43.0699 99.0098 43.4399 98.5164C43.8099 97.8997 43.6867 97.1597 43.0699 96.7897C42.4532 96.4197 41.7132 96.543 41.3432 97.1597C40.8499 97.8997 40.4799 98.763 40.3567 99.7497C40.2334 100.366 40.7267 100.983 41.3434 101.106C41.4667 101.106 41.4667 101.106 41.5899 101.106Z" fill="#FA9001"/>
<path d="M71.6833 84.7032C72.1766 85.1965 72.5466 85.6899 72.9166 86.1832C73.1634 86.5532 73.6566 86.7999 74.0266 86.7999C74.1499 86.7999 74.3966 86.7999 74.5199 86.5532C75.1366 86.1832 75.3832 85.4432 75.0132 84.8265C74.5199 84.0865 73.9032 83.3465 73.1632 82.7298C72.6699 82.3598 71.8065 82.4831 71.4365 82.9765C71.0665 83.4699 71.1901 84.3332 71.6833 84.7032Z" fill="#FA9001"/>
<path d="M44.9201 105.053C44.3034 104.683 43.9334 104.313 43.5634 103.696C43.1934 103.08 42.4534 102.956 41.8367 103.326C41.22 103.696 41.0967 104.436 41.4667 105.053C41.96 105.916 42.7 106.533 43.44 107.026C43.6867 107.15 43.9333 107.273 44.18 107.273C44.55 107.273 44.92 107.15 45.29 106.78C45.6601 106.163 45.5368 105.423 44.9201 105.053Z" fill="#FA9001"/>
<path d="M64.4067 82.4833C64.4067 83.2233 64.9 83.7166 65.64 83.7166H67.9833C68.7233 83.7166 69.2166 83.2233 69.2166 82.4833C69.2166 81.7433 68.7233 81.25 67.9833 81.25H65.64C64.9 81.25 64.4067 81.7433 64.4067 82.4833Z" fill="#FA9001"/>
<path d="M56.76 94.8168C56.76 94.0768 56.2667 93.5835 55.5267 93.5835H53.1832C52.4432 93.5835 51.95 94.0768 51.95 94.8168C51.95 95.5568 52.4432 96.0501 53.1832 96.0501H55.5265C56.1432 96.0501 56.76 95.5568 56.76 94.8168Z" fill="#FA9001"/>
<path d="M48.4967 96.0501C49.2367 96.0501 49.73 95.5568 49.73 94.8168C49.73 94.0768 49.2367 93.5835 48.4967 93.5835H47.6334C47.0167 93.5835 46.4001 93.7068 45.7834 93.8302C45.1667 93.9535 44.7967 94.6935 44.9201 95.3102C45.0436 95.9269 45.6601 96.2969 46.1534 96.2969C46.1534 96.2969 46.2767 96.1736 46.4001 96.1736C46.7701 96.0504 47.2634 96.0504 47.6334 96.0504H48.4967V96.0501Z" fill="#FA9001"/>
<path d="M70.9434 94.4466C70.8201 93.8299 70.0801 93.3366 69.4634 93.4599C69.2167 93.5832 68.8467 93.5832 68.6001 93.5832H67.3668C66.6268 93.5832 66.1335 94.0765 66.1335 94.8165C66.1335 95.5565 66.6268 96.0498 67.3668 96.0498H68.6001C68.9701 96.0498 69.4634 96.0498 69.9568 95.9265C70.5734 95.8032 71.0668 95.0632 70.9434 94.4466Z" fill="#FA9001"/>
<path d="M74.7667 89.02C74.15 88.7732 73.41 89.2667 73.2867 89.8832C73.1634 90.4998 72.9167 91.1165 72.5467 91.61C72.1767 92.1034 72.3 92.9667 72.7934 93.3367C73.0401 93.46 73.2867 93.5834 73.5334 93.5834C73.9034 93.5834 74.2734 93.3367 74.3967 93.0901C75.0134 92.2268 75.3834 91.3634 75.63 90.5001C75.8767 89.8832 75.3833 89.1432 74.7667 89.02Z" fill="#FA9001"/>
<path d="M63.7901 94.8168C63.7901 94.0768 63.2968 93.5835 62.5568 93.5835H60.2135C59.4735 93.5835 58.9802 94.0768 58.9802 94.8168C58.9802 95.5568 59.4735 96.0501 60.2135 96.0501H62.5568C63.2968 96.0501 63.7901 95.5568 63.7901 94.8168Z" fill="#FA9001"/>
<path d="M72.3 105.917H69.9567C69.2167 105.917 68.7234 106.41 68.7234 107.15C68.7234 107.89 69.2167 108.384 69.9567 108.384H72.3C72.9167 108.384 73.5332 107.89 73.5332 107.15C73.5332 106.41 73.04 105.917 72.3 105.917Z" fill="#FA9001"/>
<path d="M65.1469 105.917H62.8036C62.0636 105.917 61.5703 106.41 61.5703 107.15C61.5703 107.89 62.0636 108.384 62.8036 108.384H65.1469C65.8869 108.384 66.3802 107.89 66.3802 107.15C66.3802 106.41 65.8869 105.917 65.1469 105.917Z" fill="#FA9001"/>
<path d="M58.1166 105.917H55.7733C55.0333 105.917 54.54 106.41 54.54 107.15C54.54 107.89 55.0333 108.384 55.7733 108.384H58.1166C58.7333 108.384 59.3499 107.89 59.3499 107.15C59.3499 106.41 58.8566 105.917 58.1166 105.917Z" fill="#FA9001"/>
<path d="M50.9633 105.917H48.62C47.88 105.917 47.3867 106.41 47.3867 107.15C47.3867 107.89 47.88 108.384 48.62 108.384H51.0867C51.7034 108.384 52.1967 107.89 52.1967 107.15C52.1967 106.41 51.7033 105.917 50.9633 105.917Z" fill="#FA9001"/>
<path d="M79.33 105.917H76.9867C76.2467 105.917 75.7534 106.41 75.7534 107.15C75.7534 107.89 76.2467 108.384 76.9867 108.384H79.33C80.07 108.384 80.5633 107.89 80.5633 107.15C80.5633 106.41 80.07 105.917 79.33 105.917Z" fill="#FA9001"/>
<path d="M52.5668 81.25C51.8268 81.25 51.3335 81.7433 51.3335 82.4833C51.3335 83.2233 51.8268 83.7166 52.5668 83.7166H53.8001C54.5401 83.7166 55.0334 83.2233 55.0334 82.4833C55.0334 81.7433 54.5401 81.25 53.8001 81.25H52.5668Z" fill="#FA9001"/>
<defs>
<filter id="filter0_d" x="0" y="0" width="152" height="152" filterUnits="userSpaceOnUse" color-interpolation-filters="sRGB">
<feFlood flood-opacity="0" result="BackgroundImageFix"/>
<feColorMatrix in="SourceAlpha" type="matrix" values="0 0 0 0 0 0 0 0 0 0 0 0 0 0 0 0 0 0 127 0"/>
<feOffset dy="4"/>
<feGaussianBlur stdDeviation="10"/>
<feColorMatrix type="matrix" values="0 0 0 0 0 0 0 0 0 0 0 0 0 0 0 0 0 0 0.25 0"/>
<feBlend mode="normal" in2="BackgroundImageFix" result="effect1_dropShadow"/>
<feBlend mode="normal" in="SourceGraphic" in2="effect1_dropShadow" result="shape"/>
</filter>
</defs>
</svg>
