<svg width="152" height="152" viewBox="0 0 152 152" fill="none" xmlns="http://www.w3.org/2000/svg">
<g filter="url(#filter0_d)">
<circle cx="76" cy="72" r="56" fill="white"/>
</g>
<g clip-path="url(#clip0)">
<path d="M63.2776 85.6546C66.3252 89.9516 69.3679 93.7947 71.3844 96.2699C71.678 96.6301 71.953 96.9642 72.2194 97.2861H66.1342C65.453 97.2861 64.9009 97.8382 64.9009 98.5194C64.9009 99.2006 65.453 99.7527 66.1342 99.7527H85.8674C86.5486 99.7527 87.1007 99.2006 87.1007 98.5194C87.1007 97.8382 86.5486 97.2861 85.8674 97.2861H79.7822C80.0485 96.9642 80.3236 96.6299 80.6184 96.2699C82.6336 93.8032 85.6752 89.9516 88.7239 85.6546C91.7488 81.4769 94.4715 77.0887 96.8713 72.5233C99.3898 67.5776 100.668 63.4719 100.668 60.3195C100.676 53.7692 98.0767 47.4849 93.4439 42.8541C93.1344 42.5333 92.676 42.4044 92.2447 42.5169C91.8134 42.6295 91.4764 42.966 91.3632 43.3971C91.25 43.8283 91.3782 44.2869 91.6987 44.5968C95.8687 48.7656 98.2082 54.4228 98.2009 60.3194C98.2009 63.0796 97.0144 66.8091 94.6736 71.4034C92.328 75.8629 89.667 80.1494 86.7112 84.2301C83.7043 88.4716 80.6986 92.2714 78.7068 94.7135C78.0446 95.525 77.4488 96.2427 76.9407 96.8496C76.7035 97.1205 76.3609 97.2757 76.0009 97.2757C75.6409 97.2757 75.2983 97.1203 75.0612 96.8496C74.553 96.2429 73.9574 95.525 73.295 94.7135C71.3032 92.2727 68.2975 88.4727 65.2907 84.2301C62.3349 80.1494 59.6739 75.8629 57.3283 71.4034C54.985 66.8091 53.801 63.0796 53.801 60.3194C53.8003 51.386 59.1427 43.3185 67.3677 39.8324C72.8943 37.515 79.1202 37.515 84.6468 39.8324C85.0527 40.0044 85.5193 39.947 85.8713 39.6815C86.2232 39.4162 86.4068 38.9831 86.3529 38.5456C86.299 38.1082 86.0158 37.7327 85.61 37.5607C73.0504 32.2633 58.5744 38.1478 53.2731 50.7055C51.9875 53.7474 51.3282 57.0171 51.3344 60.3194C51.3344 63.4717 52.6122 67.5776 55.1307 72.5294C57.5302 77.0927 60.253 81.479 63.2776 85.6546Z" fill="#FA9001"/>
<path d="M76.0007 49.1863C76.6819 49.1863 77.234 48.6342 77.234 47.953C77.234 47.2718 76.6819 46.7197 76.0007 46.7197C70.1168 46.7196 65.0522 50.876 63.9041 56.6469C62.7561 62.4178 65.8446 68.1959 71.2806 70.4477C76.7166 72.6995 82.9862 70.7976 86.2553 65.9053C89.5243 61.0131 88.8821 54.4928 84.7216 50.3322C84.4119 50.0116 83.9534 49.8829 83.5222 49.9958C83.091 50.1087 82.7543 50.4455 82.6414 50.8766C82.5285 51.3079 82.6571 51.7663 82.9777 52.0761C86.3063 55.4045 86.8201 60.6205 84.2051 64.5344C81.5901 68.4484 76.5744 69.97 72.2256 68.1688C67.8767 66.3677 65.4058 61.7453 66.3239 57.1285C67.242 52.5117 71.2936 49.1865 76.0007 49.1863Z" fill="#FA9001"/>
<path d="M112.536 102.924L104.951 89.3571C104.265 88.1517 102.982 87.4108 101.595 87.4195H92.8049C92.1237 87.4195 91.5716 87.9716 91.5716 88.6528C91.5716 89.334 92.1237 89.8861 92.8049 89.8861H101.595C102.089 89.8766 102.549 90.134 102.8 90.5595L110.382 104.126C110.589 104.479 110.585 104.917 110.371 105.266C110.119 105.682 109.664 105.931 109.177 105.92H42.8239C42.338 105.931 41.883 105.682 41.6313 105.266C41.4179 104.917 41.4138 104.479 41.6201 104.126L49.2027 90.5595C49.4529 90.1341 49.9131 89.8767 50.4064 89.8861H59.1964C59.8775 89.8861 60.4297 89.334 60.4297 88.6528C60.4297 87.9716 59.8775 87.4195 59.1964 87.4195H50.4065C49.019 87.4104 47.7347 88.1513 47.0482 89.3571L39.4643 102.924C38.832 104.041 38.8466 105.411 39.5026 106.514C40.1938 107.689 41.4612 108.403 42.8239 108.386H109.177C110.54 108.403 111.807 107.689 112.498 106.514C113.154 105.411 113.168 104.041 112.536 102.924Z" fill="#FA9001"/>
<path d="M99.4342 93.5859H94.5009C94.2573 93.5864 94.0193 93.6583 93.8164 93.7932L90.1164 96.2599C89.5497 96.638 89.3967 97.4039 89.7747 97.9706C90.1528 98.5373 90.9187 98.6902 91.4854 98.3123L94.8709 96.0528H99.4342C100.115 96.0528 100.667 95.5006 100.667 94.8195C100.667 94.138 100.115 93.5859 99.4342 93.5859Z" fill="#FA9001"/>
<path d="M92.0341 102.22C92.0341 102.901 92.5862 103.453 93.2673 103.453H103.134C103.815 103.453 104.367 102.901 104.367 102.22C104.367 101.538 103.815 100.986 103.134 100.986H93.2673C92.5862 100.986 92.0341 101.538 92.0341 102.22Z" fill="#FA9001"/>
<path d="M61.2006 98.5194C61.7443 98.5201 62.2243 98.1646 62.3823 97.6443C62.5403 97.1239 62.3388 96.5616 61.8864 96.2599L58.1864 93.7932C57.9832 93.6582 57.7446 93.5861 57.5006 93.5859H52.5673C51.8861 93.5859 51.334 94.1382 51.334 94.8192C51.334 95.5004 51.8862 96.0525 52.5673 96.0525H57.1306L60.5199 98.312C60.7215 98.4467 60.9584 98.5188 61.2006 98.5194Z" fill="#FA9001"/>
<path d="M48.8673 100.986C48.1861 100.986 47.634 101.538 47.634 102.22C47.634 102.901 48.1861 103.453 48.8673 103.453H58.7341C59.4153 103.453 59.9674 102.901 59.9674 102.22C59.9674 101.538 59.4153 100.986 58.7341 100.986H48.8673Z" fill="#FA9001"/>
</g>
<defs>
<filter id="filter0_d" x="0" y="0" width="152" height="152" filterUnits="userSpaceOnUse" color-interpolation-filters="sRGB">
<feFlood flood-opacity="0" result="BackgroundImageFix"/>
<feColorMatrix in="SourceAlpha" type="matrix" values="0 0 0 0 0 0 0 0 0 0 0 0 0 0 0 0 0 0 127 0"/>
<feOffset dy="4"/>
<feGaussianBlur stdDeviation="10"/>
<feColorMatrix type="matrix" values="0 0 0 0 0 0 0 0 0 0 0 0 0 0 0 0 0 0 0.25 0"/>
<feBlend mode="normal" in2="BackgroundImageFix" result="effect1_dropShadow"/>
<feBlend mode="normal" in="SourceGraphic" in2="effect1_dropShadow" result="shape"/>
</filter>
<clipPath id="clip0">
<rect x="39" y="35" width="74" height="74" fill="white"/>
</clipPath>
</defs>
</svg>
