<svg width="117" height="17" viewBox="0 0 117 17" fill="none" xmlns="http://www.w3.org/2000/svg">
<g clip-path="url(#clip0)">
<path d="M66.5489 6.08139L61.3228 5.2831L58.9804 0.293598C58.8054 -0.0789857 58.1941 -0.0789857 58.0191 0.293598L55.6774 5.2831L50.4513 6.08139C50.0221 6.14726 49.8506 6.66931 50.1517 6.97743L53.9484 10.869L53.0509 16.3706C52.9794 16.8077 53.4461 17.1356 53.8322 16.921L58.5001 14.3413L63.168 16.9217C63.5505 17.1342 64.0216 16.8126 63.9493 16.3713L63.0519 10.8697L66.8485 6.97814C67.1496 6.66931 66.9774 6.14726 66.5489 6.08139Z" fill="#FFC107"/>
</g>
<g clip-path="url(#clip1)">
<path d="M91.5489 6.08139L86.3228 5.2831L83.9804 0.293598C83.8054 -0.0789857 83.1941 -0.0789857 83.0191 0.293598L80.6774 5.2831L75.4513 6.08139C75.0221 6.14726 74.8506 6.66931 75.1517 6.97743L78.9484 10.869L78.0509 16.3706C77.9794 16.8077 78.4461 17.1356 78.8322 16.921L83.5001 14.3413L88.168 16.9217C88.5505 17.1342 89.0216 16.8126 88.9493 16.3713L88.0519 10.8697L91.8485 6.97814C92.1496 6.66931 91.9774 6.14726 91.5489 6.08139Z" fill="#FFC107"/>
</g>
<g clip-path="url(#clip2)">
<path d="M116.549 6.08139L111.323 5.2831L108.98 0.293598C108.805 -0.0789857 108.194 -0.0789857 108.019 0.293598L105.677 5.2831L100.451 6.08139C100.022 6.14726 99.8506 6.66931 100.152 6.97743L103.948 10.869L103.051 16.3706C102.979 16.8077 103.446 17.1356 103.832 16.921L108.5 14.3413L113.168 16.9217C113.551 17.1342 114.022 16.8126 113.949 16.3713L113.052 10.8697L116.849 6.97814C117.15 6.66931 116.977 6.14726 116.549 6.08139Z" fill="#FFC107"/>
</g>
<g clip-path="url(#clip3)">
<path d="M41.5489 6.08139L36.3228 5.2831L33.9804 0.293598C33.8054 -0.0789857 33.1941 -0.0789857 33.0191 0.293598L30.6774 5.2831L25.4513 6.08139C25.0221 6.14726 24.8506 6.66931 25.1517 6.97743L28.9484 10.869L28.0509 16.3706C27.9794 16.8077 28.4461 17.1356 28.8322 16.921L33.5001 14.3413L38.168 16.9217C38.5505 17.1342 39.0216 16.8126 38.9493 16.3713L38.0519 10.8697L41.8485 6.97814C42.1496 6.66931 41.9774 6.14726 41.5489 6.08139Z" fill="#FFC107"/>
</g>
<g clip-path="url(#clip4)">
<path d="M16.5489 6.08139L11.3228 5.2831L8.98036 0.293598C8.8054 -0.0789857 8.19411 -0.0789857 8.01915 0.293598L5.6774 5.2831L0.451314 6.08139C0.022064 6.14726 -0.149353 6.66931 0.151689 6.97743L3.94836 10.869L3.0509 16.3706C2.97936 16.8077 3.44615 17.1356 3.83219 16.921L8.5001 14.3413L13.168 16.9217C13.5505 17.1342 14.0216 16.8126 13.9493 16.3713L13.0519 10.8697L16.8485 6.97814C17.1496 6.66931 16.9774 6.14726 16.5489 6.08139Z" fill="#FFC107"/>
</g>
<defs>
<clipPath id="clip0">
<rect x="50" width="17" height="17" fill="white"/>
</clipPath>
<clipPath id="clip1">
<rect x="75" width="17" height="17" fill="white"/>
</clipPath>
<clipPath id="clip2">
<rect x="100" width="17" height="17" fill="white"/>
</clipPath>
<clipPath id="clip3">
<rect x="25" width="17" height="17" fill="white"/>
</clipPath>
<clipPath id="clip4">
<rect width="17" height="17" fill="white"/>
</clipPath>
</defs>
</svg>
