<svg width="59" height="59" viewBox="0 0 59 59" fill="none" xmlns="http://www.w3.org/2000/svg">
<circle cx="29.5" cy="29.5" r="29.5" fill="#FFCD00"/>
<circle cx="29.5" cy="29.5" r="27" stroke="#4F7BAF"/>
<path d="M43.4843 14.2065C43.3866 14.1813 43.2832 14.1905 43.1915 14.2326C43.0998 14.2746 43.0254 14.347 42.9808 14.4375C42.9408 14.5195 41.951 16.4655 37.6155 18.755C37.5556 18.7812 37.5024 18.8204 37.4597 18.8699C37.417 18.9193 37.3859 18.9777 37.3688 19.0408C37.0979 20.0553 36.7305 21.0416 36.2718 21.9863C36.0187 21.4379 35.849 20.8548 35.7685 20.2563C35.759 20.1899 35.7343 20.1266 35.6964 20.0713C35.6586 20.016 35.6085 19.9701 35.5501 19.9373C35.4916 19.9044 35.4264 19.8854 35.3595 19.8817C35.2926 19.878 35.2257 19.8897 35.164 19.916C34.018 20.4043 32.7708 20.8693 31.4568 21.2978C29.7145 21.8546 28.0334 22.5873 26.4395 23.4845C26.3473 23.5374 26.2775 23.6221 26.2433 23.7228C26.0456 24.3028 25.8321 24.8506 25.6028 25.3663C25.6123 25.1943 25.6249 25.0114 25.6408 24.8178C25.6476 24.7351 25.6308 24.6522 25.5924 24.5787C25.5539 24.5052 25.4954 24.4442 25.4236 24.4027C25.3517 24.3612 25.2696 24.341 25.1867 24.3444C25.1039 24.3479 25.0237 24.3748 24.9555 24.422C20.5108 27.5 18.0888 31.8443 17.3365 38.0775C16.1977 39.2687 15.1973 40.585 14.3545 42.0013C14.1971 42.2687 14.1478 42.5863 14.2166 42.8889C14.2855 43.1916 14.4673 43.4565 14.725 43.6295C14.9154 43.7522 15.137 43.8175 15.3635 43.8178H35.3635C35.4795 43.8178 35.5908 43.7717 35.6729 43.6896C35.7549 43.6076 35.801 43.4963 35.801 43.3803C35.801 43.2642 35.7549 43.1529 35.6729 43.0709C35.5908 42.9888 35.4795 42.9428 35.3635 42.9428H16.5663C17.3259 41.7193 18.2148 40.5809 19.2175 39.5473C23.5303 39.3358 33.5308 38.4648 37.461 34.9113C37.7463 34.6531 38.0176 34.38 38.2738 34.093C38.3251 34.0358 38.3605 33.9662 38.3764 33.891C38.3922 33.8158 38.388 33.7378 38.3641 33.6647C38.3403 33.5917 38.2976 33.5262 38.2404 33.4749C38.1832 33.4236 38.1135 33.3883 38.0383 33.3725C37.9445 33.353 37.8518 33.3325 37.7595 33.3118C38.0705 33.2678 38.42 33.226 38.8053 33.1915C38.8692 33.1856 38.9311 33.1658 38.9866 33.1334C39.042 33.101 39.0897 33.0568 39.1263 33.004C42.321 28.368 43.2405 24.7665 43.8105 14.654C43.8161 14.5532 43.7867 14.4536 43.7272 14.3721C43.6677 14.2905 43.5819 14.232 43.4843 14.2065ZM15.1103 42.442C17.8353 37.767 22.8778 34.2143 28.216 30.4535C29.333 29.6668 30.6 28.775 31.8143 27.8833C31.868 27.8434 31.9331 27.8219 32 27.8218C32.0168 27.8218 32.0335 27.8231 32.05 27.8258C32.0905 27.832 32.1293 27.8463 32.1641 27.8677C32.199 27.8892 32.2292 27.9174 32.253 27.9508C32.3016 28.0176 32.3219 28.1009 32.3094 28.1825C32.297 28.2642 32.2528 28.3377 32.1865 28.387C30.9668 29.2803 29.6965 30.175 28.575 30.9645C23.2843 34.692 18.2868 38.2128 15.6315 42.7878C15.6104 42.8242 15.5821 42.8559 15.5484 42.881C15.5146 42.9061 15.4761 42.9241 15.4352 42.9339C15.3942 42.9436 15.3517 42.9449 15.3103 42.9377C15.2688 42.9305 15.2293 42.915 15.194 42.892C15.1263 42.841 15.0802 42.7666 15.0647 42.6833C15.0492 42.6 15.0655 42.5139 15.1103 42.442ZM38.5208 32.3393C37.5946 32.4164 36.6771 32.5753 35.779 32.8143C35.6909 32.841 35.6135 32.8948 35.5577 32.968C35.5019 33.0413 35.4707 33.1302 35.4684 33.2223C35.4661 33.3143 35.4929 33.4047 35.5449 33.4806C35.5969 33.5566 35.6716 33.6142 35.7583 33.6453C36.1793 33.7953 36.628 33.9318 37.099 34.0523C37.024 34.124 36.9503 34.1935 36.874 34.2615C33.371 37.4288 24.2458 38.3578 20.1395 38.6188C22.6675 36.198 25.8168 33.9788 29.08 31.68C30.205 30.8883 31.4775 29.991 32.7028 29.0923C32.9549 28.9058 33.1234 28.6274 33.1716 28.3175C33.2197 28.0076 33.1437 27.6912 32.96 27.437C32.8682 27.3103 32.7522 27.2031 32.6187 27.1214C32.4852 27.0398 32.3369 26.9854 32.1823 26.9613C32.0277 26.9372 31.8699 26.944 31.7179 26.9812C31.5659 27.0184 31.4228 27.0853 31.2968 27.178C30.0883 28.0645 28.8258 28.953 27.712 29.7385C24.316 32.131 21.0385 34.4405 18.37 37.0228C19.1838 32.0178 21.222 28.3693 24.712 25.6828C24.6869 26.1928 24.6935 26.704 24.7318 27.2133C24.741 27.3048 24.7788 27.3912 24.8399 27.46C24.901 27.5288 24.9822 27.5766 25.072 27.5966C25.1619 27.6166 25.2557 27.6078 25.3402 27.5713C25.4247 27.5349 25.4956 27.4728 25.5428 27.3938C26.1411 26.3687 26.6352 25.2863 27.0178 24.1628C28.5182 23.333 30.0962 22.652 31.7293 22.1298C32.8768 21.7548 33.9753 21.3533 35.0025 20.9323C35.32 22.3903 35.934 23.126 35.9633 23.16C36.0089 23.2136 36.0667 23.2554 36.1319 23.2818C36.1971 23.3083 36.2677 23.3186 36.3378 23.312C36.4078 23.3054 36.4752 23.2819 36.5343 23.2437C36.5933 23.2054 36.6423 23.1535 36.677 23.0923C37.3156 21.9437 37.8142 20.7227 38.1623 19.4555C40.6238 18.139 42.0513 16.915 42.8505 16.053C42.2905 24.7585 41.3585 28.1688 38.5208 32.3393Z" fill="black"/>
<path d="M41.067 23.01C41.0104 22.9997 40.9524 23.0007 40.8962 23.0128C40.84 23.025 40.7867 23.0482 40.7395 23.0809C40.6922 23.1137 40.6519 23.1555 40.6209 23.2039C40.5898 23.2523 40.5686 23.3064 40.5585 23.363C40.4393 24.0263 40.3085 24.6313 40.162 25.213C40.1336 25.3255 40.151 25.4446 40.2104 25.5443C40.2698 25.644 40.3663 25.716 40.4788 25.7445C40.514 25.7534 40.5502 25.7579 40.5865 25.7578C40.6838 25.7577 40.7782 25.7252 40.855 25.6654C40.9317 25.6057 40.9864 25.522 41.0103 25.4278C41.1625 24.8278 41.2968 24.2028 41.42 23.5185C41.4406 23.4043 41.415 23.2865 41.3488 23.1912C41.2826 23.0958 41.1812 23.0306 41.067 23.01Z" fill="#4F7BAF"/>
</svg>
