<svg width="90" height="90" viewBox="0 0 90 90" fill="none" xmlns="http://www.w3.org/2000/svg">
<circle cx="45" cy="45" r="44" stroke="white" stroke-width="2"/>
<path d="M29.1497 34.963L42.9704 43.0327C44.1761 43.7242 45.8255 43.7234 47.0126 43.0425L60.8503 34.963C61.0972 34.8184 61.25 34.5503 61.25 34.2626V22.4375H28.75V34.2626C28.75 34.5503 28.9027 34.8184 29.1497 34.963ZM45 27.3125C48.1354 27.3125 50.6875 29.8637 50.6875 33C50.6875 36.1362 48.1354 38.6875 45 38.6875C41.8646 38.6875 39.3125 36.1362 39.3125 33C39.3125 29.8637 41.8646 27.3125 45 27.3125Z" fill="white"/>
<path d="M44.1875 32.1875H45.8125V33.8125H44.1875V32.1875Z" fill="white"/>
<path d="M45 37.0625C47.2401 37.0625 49.0625 35.2401 49.0625 33C49.0625 30.7599 47.2401 28.9375 45 28.9375C42.7599 28.9375 40.9375 30.7599 40.9375 33C40.9375 35.2401 42.7599 37.0625 45 37.0625ZM42.5625 32.1875H44.1875V30.5625H45.8125V32.1875H47.4375V33.8125H45.8125V35.4375H44.1875V33.8125H42.5625V32.1875Z" fill="white"/>
<path d="M62.875 22.5869V34.2625C62.875 35.1254 62.4135 35.9322 61.6693 36.3661L47.8259 44.4488C46.9809 44.9331 46.0059 45.1874 45 45.1874C43.9941 45.1874 43.011 44.929 42.1571 44.4391L28.3308 36.3661C27.5865 35.9322 27.125 35.1262 27.125 34.2625V22.5869C26.1817 22.9233 25.5 23.817 25.5 24.8749V34.6249C25.5 35.8404 26.1443 36.9714 27.1819 37.5767L41.3535 45.852C43.5416 47.1057 46.4511 47.109 48.6506 45.8488L62.8181 37.5767C63.8557 36.9714 64.5 35.8404 64.5 34.6249V24.8749C64.5 23.817 63.8183 22.9233 62.875 22.5869Z" fill="white"/>
<path d="M49.4647 47.2555C48.1143 48.0299 46.573 48.4377 45 48.4377C43.427 48.4377 41.8857 48.0299 40.541 47.2588L26.3629 38.9811C26.0476 38.7966 25.7632 38.5724 25.5 38.3286V66.3127C25.5 68.1051 26.9576 69.5627 28.75 69.5627H61.25C63.0424 69.5627 64.5 68.1051 64.5 66.3127V38.3286C64.2368 38.5724 63.9524 38.7966 63.6363 38.9811L49.4647 47.2555ZM27.125 43.5766H28.75V45.2056H27.125V43.5766ZM27.125 46.8347H28.75V48.4646H27.125V46.8347ZM27.125 50.0936H28.75V51.7235H27.125V50.0936ZM27.125 53.3526H28.75V54.9824H27.125V53.3526ZM27.125 56.6115H28.75V58.2414H27.125V56.6115ZM27.125 59.8696H28.75V61.4995H27.125V59.8696ZM27.125 63.1286H28.75V64.7584H27.125V63.1286ZM29.5073 67.9369C28.6728 67.9182 27.9147 67.4803 27.4792 66.7669L28.8678 65.9211C29.0133 66.16 29.2651 66.3062 29.5438 66.3119L29.5073 67.9369ZM32.7849 67.9377H31.155V66.3127H32.7849V67.9377ZM36.0438 67.9377H34.4139V66.3127H36.0438V67.9377ZM39.3019 67.9377H37.6721V66.3127H39.3019V67.9377ZM42.5609 67.9377H40.931V66.3127H42.5609V67.9377ZM45.8198 67.9377H44.1899V66.3127H45.8198V67.9377ZM49.0788 67.9377H47.4489V66.3127H49.0788V67.9377ZM52.3369 67.9377H50.707V66.3127H52.3369V67.9377ZM55.5958 67.9377H53.9659V66.3127H55.5958V67.9377ZM58.8547 67.9377H57.2249V66.3127H58.8547V67.9377ZM60.5074 67.9369L60.4594 66.3119C60.7389 66.3038 60.9908 66.1567 61.1354 65.9171L62.5272 66.7547C62.0974 67.4706 61.3418 67.9126 60.5074 67.9369ZM62.875 64.7487H61.25V63.1196H62.875V64.7487ZM62.875 61.4897H61.25V59.8615H62.875V61.4897ZM62.875 58.2316H61.25V56.6026H62.875V58.2316ZM62.875 54.9727H61.25V53.3436H62.875V54.9727ZM62.875 51.7137H61.25V50.0847H62.875V51.7137ZM62.875 48.4548H61.25V46.8257H62.875V48.4548ZM62.875 45.1967H61.25V43.5676H62.875V45.1967Z" fill="white"/>
</svg>
