<svg width="90" height="90" viewBox="0 0 90 90" fill="none" xmlns="http://www.w3.org/2000/svg">
<circle cx="45" cy="45" r="44" stroke="white" stroke-width="2"/>
<path d="M30.686 25.521L24.2669 38.1719C22.4269 41.8 23.8762 46.2326 27.5042 48.0726C27.5891 48.1159 27.6748 48.1571 27.7609 48.1968C27.8938 47.8346 28.0208 47.4712 28.1799 47.1153L34.6025 32.7407L30.686 25.521Z" fill="white"/>
<path d="M58.1338 46.8664L43.3941 18L30.0129 47.9359C26.6395 55.4833 30.0236 64.3367 37.5709 67.7101C37.8284 67.8251 38.0891 67.9326 38.3525 68.033C41.5838 69.2625 45.1401 69.3379 48.4207 68.2473L49.5275 67.8779C57.3717 65.2631 61.6107 56.7838 58.9959 48.9393C58.7582 48.2275 58.4678 47.5345 58.1266 46.8664H58.1338ZM49.8223 64.1514C49.328 64.4049 48.7214 64.2097 48.4679 63.7154C48.2144 63.2211 48.4096 62.6145 48.9039 62.361C48.9082 62.359 48.9126 62.3566 48.9166 62.3546C52.8827 60.369 55.3928 56.3192 55.4063 51.8838C55.4094 51.3307 55.8589 50.8836 56.4124 50.8836H56.4183C56.9718 50.8872 57.4185 51.3367 57.4185 51.8901C57.4042 57.0833 54.466 61.8262 49.8223 64.1514Z" fill="white"/>
<path d="M61.4429 63.9634H63.4551V65.9756H61.4429V63.9634Z" fill="white"/>
<path d="M64.4612 59.939H66.4734V61.9512H64.4612V59.939Z" fill="white"/>
<path d="M58.4246 67.9878H60.4368V70H58.4246V67.9878Z" fill="white"/>
</svg>
