<svg width="60" height="61" viewBox="0 0 60 61" fill="none" xmlns="http://www.w3.org/2000/svg">
<path d="M59 30.5C59 46.808 46.0007 60 30 60C13.9993 60 1 46.808 1 30.5C1 14.192 13.9993 1 30 1C46.0007 1 59 14.192 59 30.5Z" stroke="white" stroke-width="2"/>
<path d="M17.614 34.7815C18.0222 34.7815 18.353 35.1191 18.353 35.5355V42.2299C18.3544 43.4786 19.346 44.4906 20.5699 44.4918H41.3051C42.529 44.4906 43.5206 43.4786 43.522 42.2299V22.5823C43.5206 21.3339 42.529 20.3219 41.3051 20.3204H34.7437C34.3355 20.3204 34.0047 19.9829 34.0047 19.5665C34.0047 19.1503 34.3355 18.8125 34.7437 18.8125H41.3051C43.3448 18.8149 44.9977 20.5013 45 22.5823V42.2302C44.9977 44.3112 43.3448 45.9976 41.3051 46H20.5699C18.5302 45.9976 16.8773 44.3112 16.875 42.2302V35.5355C16.875 35.1191 17.2058 34.7815 17.614 34.7815Z" fill="white"/>
<path d="M16.83 16.9688C18.1218 15.6771 20.2162 15.6771 21.5081 16.9688L34.6224 30.082C34.7123 30.1719 34.7772 30.2833 34.8111 30.4056L36.5357 36.6311C36.6066 36.8864 36.5345 37.1597 36.3473 37.3472C36.1598 37.5344 35.8864 37.6065 35.6312 37.5358L29.4051 35.8111C29.2827 35.7773 29.1713 35.7124 29.0815 35.6225L15.9674 22.509C14.6775 21.2164 14.6775 19.1239 15.9674 17.8313L16.83 16.9688ZM33.0208 30.5598L22.2877 19.8273L18.8262 23.2885L29.5596 34.021L33.0208 30.5598ZM33.7122 31.9471L30.9467 34.7126L34.772 35.7724L33.7122 31.9471ZM17.0068 21.4696L17.7864 22.2492L21.2482 18.7877L20.4683 18.0082C19.7508 17.2907 18.5873 17.2907 17.8697 18.0082L17.0068 18.8707C16.2904 19.589 16.2904 20.7516 17.0068 21.4696Z" fill="white"/>
</svg>
