<svg width="161" height="18" viewBox="0 0 161 18" fill="none" xmlns="http://www.w3.org/2000/svg">
<path d="M146.078 13.3156C146.643 13.2135 147.215 13.1103 147.78 13.0082C148.382 13.0153 148.978 12.9078 149.508 12.696C152.222 12.6368 154.937 12.7248 157.634 12.9588C158.728 13.0355 159.476 13.7493 160.305 14.2537L160.486 15.0177C159.677 16.6934 157.43 16.556 155.846 16.5941C152.804 16.734 149.752 16.6818 146.722 16.4379C146.551 16.2421 146.296 16.246 146.025 16.2685C145.914 16.1985 145.777 16.1543 145.632 16.1411C145.487 16.1279 145.34 16.1463 145.21 16.1942C145.131 16.1196 145.021 16.0661 144.897 16.0418C144.773 16.0175 144.642 16.0237 144.524 16.0595C144.333 15.9784 144.121 15.9289 143.902 15.9147C143.684 15.9005 143.463 15.9219 143.257 15.9772C143.079 15.8775 142.876 15.8059 142.66 15.767C142.443 15.728 142.218 15.7226 141.999 15.7508L140.696 15.5589C138.589 15.1797 136.698 14.8039 134.797 14.4405C132.105 13.9296 129.699 12.6605 126.79 12.7217C124.173 12.7818 121.556 12.6191 118.99 12.2367L117.929 11.9588C116.507 11.6881 116.251 11.6026 116.005 11.5469C114.317 10.4486 112.767 10.9766 111.348 10.8899C109.52 10.8561 107.686 10.8286 105.858 10.7948C105.746 10.6969 105.598 10.6258 105.431 10.5901C105.265 10.5545 105.088 10.5559 104.922 10.5944L100.413 10.8813C99.1433 11.122 97.8229 11.1815 96.5228 11.0565C96.1481 10.6547 95.7758 10.3686 95.3878 11.0505C95.1543 11.0558 94.9125 11.0573 94.6774 11.0575C94.3481 10.8068 93.9045 10.6557 93.433 10.6335C89.3182 10.2795 85.2339 9.69321 81.0741 9.74294C78.7532 9.77177 76.3769 9.35169 74.1266 9.81085C70.4669 10.5562 66.7691 10.5804 63.0276 10.602C60.1829 10.62 57.3605 10.1222 54.5015 10.032C51.9061 9.94157 49.2172 10.2373 46.699 9.49476C45.9979 9.26739 45.2228 9.19548 44.4676 9.28786C43.7125 9.38023 43.0098 9.63307 42.4449 10.0153C41.3341 10.6521 39.9916 11.0287 38.5896 11.0966C34.9668 11.4133 31.269 10.9838 27.6792 11.8115C25.8911 12.2241 24.4384 13.1354 22.6057 13.4348C22.1685 13.5137 21.7983 13.8391 21.4033 13.441C19.8005 11.7999 17.4947 11.81 15.1342 11.9778C14.5629 12.0177 13.8303 12.0868 13.5771 12.4859C12.5687 14.1165 11.155 15.5921 9.40966 16.8359L7.96229 17.6987C7.76016 17.5611 7.558 17.4236 7.36095 17.2798C7.35825 16.7528 7.41894 16.2884 6.66243 15.9608C5.72512 15.5604 4.86571 15.0722 3.96908 14.6222L0.673372 10.5914C1.99398 10.2738 3.00332 10.2444 3.56549 9.85276C4.48051 9.21277 2.8617 8.77721 2.98777 8.10037C2.9647 7.84799 2.88305 7.60032 2.74647 7.36844C4.90999 5.73813 5.60355 3.53995 6.84617 1.55903C7.16262 1.45968 7.49414 1.36289 7.79041 1.26718C8.45851 1.22201 9.1289 1.3327 9.70762 1.58388C10.2863 1.83506 10.7444 2.21424 11.0173 2.66784C12.9678 5.4066 15.9841 6.01688 19.636 5.18326C21.6916 4.71707 23.5307 5.32374 25.4716 5.35298C27.9011 5.3942 29.7709 4.4078 31.8447 3.75898C34.7785 2.84406 37.6028 1.76958 40.7043 1.10393C42.5831 0.706607 43.7066 1.13151 44.4996 2.39138L44.0318 3.84711L43.2018 4.57214C42.1406 5.00644 41.2674 5.66522 39.9701 5.79403C37.3754 6.05165 34.8918 6.71118 32.2774 6.90905C31.3231 6.97591 30.5446 7.33812 30.7414 8.17291C30.7633 8.33745 30.8346 8.49616 30.95 8.63774C31.0653 8.77932 31.2219 8.90012 31.4083 8.99126C31.5947 9.0824 31.8061 9.14156 32.0273 9.16458C32.2486 9.18759 32.4739 9.17383 32.687 9.12425C36.6781 8.50113 40.7293 8.1116 44.803 7.95933C46.0387 8.20561 47.1182 7.3725 48.3551 7.68715C48.4727 7.72173 48.6028 7.72511 48.7234 7.69661C48.8439 7.6681 48.9475 7.60956 49.0162 7.53091L50.1107 7.5653C52.3614 7.28014 54.5092 7.93665 56.7172 7.95457C58.4718 7.98055 60.0627 8.54774 61.8708 8.60626C64.0215 8.64507 66.1181 8.08711 68.2624 8.53854C68.9884 8.65368 69.7443 8.60698 70.4346 8.40456C70.6952 8.80585 71.1746 8.70353 71.6333 8.66816C73.8935 8.52017 76.1481 8.36966 78.3972 8.21666C78.9926 8.183 79.585 8.1252 80.1718 8.04374C82.9046 7.94579 85.6175 8.26285 88.3692 8.11402C90.5073 7.93156 92.668 7.94909 94.8003 8.1659C101.95 9.12172 109.139 9.03125 116.349 8.67858C119.958 8.1903 123.35 8.4692 126.529 10.005C127.462 10.4413 128.48 10.7678 129.549 10.9732C133.465 11.7428 137.362 12.574 141.239 13.4668C142.816 13.8872 144.554 13.8329 146.078 13.3156Z" fill="#54A1B9"/>
</svg>
