<svg width="128" height="128" viewBox="0 0 128 128" fill="none" xmlns="http://www.w3.org/2000/svg">
<circle cx="64" cy="64" r="57" fill="#282828"/>
<circle cx="64" cy="64" r="60.5" stroke="#1F1F1F" stroke-opacity="0.5" stroke-width="7"/>
<path d="M81.9944 55.2694C81.5149 55.2698 81.0362 55.2987 80.5602 55.3559C79.2681 51.1483 75.3866 48.2728 70.9852 48.2638C69.8896 48.2627 68.8018 48.4447 67.7664 48.8013C65.2033 43.2589 59.129 40.2468 53.1662 41.5612C47.2027 42.8761 42.9583 48.1624 42.9626 54.2685C42.963 55.3238 43.0945 56.3748 43.3525 57.3972C37.6712 58.2647 33.6119 63.3565 34.0343 69.0883C34.4559 74.8205 39.2169 79.2637 44.964 79.2892H81.9944C88.6273 79.2892 94.0041 73.912 94.0041 67.2791C94.0041 60.6462 88.6273 55.2694 81.9944 55.2694ZM81.9944 77.2874H44.964C40.03 77.3089 35.9982 73.3538 35.9246 68.4201C35.8514 63.4864 39.763 59.4135 44.6959 59.2879C45.0161 59.2789 45.3124 59.1172 45.4933 58.853C45.6749 58.5884 45.7183 58.2537 45.6107 57.9519C43.6241 52.2671 46.5791 46.0416 52.2397 43.9862C57.8999 41.9308 64.1609 44.8106 66.2845 50.4457C66.3815 50.7072 66.5827 50.9158 66.8403 51.0223C67.0983 51.1288 67.3883 51.1229 67.6412 51.0062C68.6891 50.5189 69.8301 50.2664 70.9852 50.2653C74.7931 50.2723 78.0722 52.9544 78.8328 56.6856C78.9416 57.2281 79.47 57.5789 80.0118 57.4693C80.6643 57.3385 81.3282 57.272 81.9944 57.2712C87.5219 57.2712 92.0027 61.7524 92.0027 67.2791C92.0027 72.8066 87.5219 77.2874 81.9944 77.2874Z" fill="#FFC700"/>
</svg>
