<svg width="131" height="131" viewBox="0 0 131 131" fill="none" xmlns="http://www.w3.org/2000/svg">
<g filter="url(#filter0_d)">
<circle cx="65.2505" cy="61.2505" r="61.2505" fill="#FFC700"/>
</g>
<g clip-path="url(#clip0)">
<path d="M83.629 71.1515C82.0939 71.1515 80.6357 71.7527 79.5356 72.84C78.4355 73.9401 77.8214 75.3728 77.8214 76.9079C77.8214 78.4429 78.4227 79.8756 79.5356 80.9757C80.6485 82.063 82.0939 82.6642 83.629 82.6642C86.7758 82.6642 89.3342 80.0802 89.3342 76.9079C89.3342 73.7355 86.7758 71.1515 83.629 71.1515ZM83.629 80.1058C81.8637 80.1058 80.3798 78.6476 80.3798 76.9079C80.3798 75.1682 81.8637 73.7099 83.629 73.7099C85.3687 73.7099 86.7758 75.1426 86.7758 76.9079C86.7758 78.6731 85.3687 80.1058 83.629 80.1058ZM85.1128 51.9764C84.8826 51.759 84.5756 51.6438 84.2558 51.6438H77.6935C76.99 51.6438 76.4143 52.2195 76.4143 52.923V63.4124C76.4143 64.116 76.99 64.6916 77.6935 64.6916H88.1061C88.8097 64.6916 89.3853 64.116 89.3853 63.4124V56.3896C89.3853 56.0315 89.2318 55.6861 88.9632 55.443L85.1128 51.9764ZM86.827 62.1332H78.9727V54.1894H83.7569L86.827 56.9525V62.1332ZM52.3911 71.1515C50.8561 71.1515 49.3978 71.7527 48.2977 72.84C47.1976 73.9401 46.5836 75.3728 46.5836 76.9079C46.5836 78.4429 47.1848 79.8756 48.2977 80.9757C49.4106 82.063 50.8561 82.6642 52.3911 82.6642C55.5379 82.6642 58.0963 80.0802 58.0963 76.9079C58.0963 73.7355 55.5379 71.1515 52.3911 71.1515ZM52.3911 80.1058C50.6259 80.1058 49.142 78.6476 49.142 76.9079C49.142 75.1682 50.6259 73.7099 52.3911 73.7099C54.1308 73.7099 55.5379 75.1426 55.5379 76.9079C55.5379 78.6731 54.1308 80.1058 52.3911 80.1058ZM43.8589 72.7249H41.2878V69.3223C41.2878 68.6187 40.7121 68.0431 40.0086 68.0431C39.305 68.0431 38.7294 68.6187 38.7294 69.3223V74.0041C38.7294 74.7076 39.305 75.2833 40.0086 75.2833H43.8589C44.5625 75.2833 45.1381 74.7076 45.1381 74.0041C45.1381 73.3005 44.5625 72.7249 43.8589 72.7249ZM50.3444 65.7533C50.3444 65.0498 49.7688 64.4741 49.0652 64.4741H33.5487C32.8451 64.4741 32.2695 65.0498 32.2695 65.7533C32.2695 66.4569 32.8451 67.0325 33.5487 67.0325H49.0652C49.7688 67.0325 50.3444 66.4697 50.3444 65.7533ZM36.1454 61.1354L51.662 61.225C52.3656 61.225 52.9412 60.6621 52.954 59.9586C52.9668 59.2422 52.3911 58.6666 51.6876 58.6666L36.171 58.5771C36.1582 58.5771 36.1582 58.5771 36.1582 58.5771C35.4547 58.5771 34.879 59.1399 34.879 59.8435C34.8662 60.5598 35.4419 61.1354 36.1454 61.1354ZM38.755 55.3279H54.2715C54.9751 55.3279 55.5507 54.7523 55.5507 54.0487C55.5507 53.3452 54.9751 52.7695 54.2715 52.7695H38.755C38.0514 52.7695 37.4758 53.3452 37.4758 54.0487C37.4758 54.7523 38.0514 55.3279 38.755 55.3279ZM94.6172 53.601L85.4582 46.0154C85.228 45.8235 84.9465 45.7212 84.6395 45.7212H73.8688V41.1161C73.8688 40.4125 73.2931 39.8369 72.5896 39.8369H40.0086C39.305 39.8369 38.7294 40.4125 38.7294 41.1161V50.4798C38.7294 51.1833 39.305 51.759 40.0086 51.759C40.7121 51.759 41.2878 51.1833 41.2878 50.4798V42.3953H71.3232V72.7249H60.8338C60.1302 72.7249 59.5546 73.3005 59.5546 74.0041C59.5546 74.7076 60.1302 75.2833 60.8338 75.2833H76.4527C77.1563 75.2833 77.7319 74.7076 77.7319 74.0041C77.7319 73.3005 77.1563 72.7249 76.4527 72.7249H73.8815V48.2796H84.1918L92.5321 55.1872L92.4426 72.6993H91.1122C90.4087 72.6993 89.833 73.275 89.833 73.9785C89.833 74.6821 90.4087 75.2577 91.1122 75.2577H93.709C94.4125 75.2577 94.9882 74.6949 94.9882 73.9913L95.0905 54.5988C95.0777 54.215 94.9114 53.844 94.6172 53.601Z" fill="#282828"/>
</g>
<defs>
<filter id="filter0_d" x="0" y="0" width="130.501" height="130.501" filterUnits="userSpaceOnUse" color-interpolation-filters="sRGB">
<feFlood flood-opacity="0" result="BackgroundImageFix"/>
<feColorMatrix in="SourceAlpha" type="matrix" values="0 0 0 0 0 0 0 0 0 0 0 0 0 0 0 0 0 0 127 0"/>
<feOffset dy="4"/>
<feGaussianBlur stdDeviation="2"/>
<feColorMatrix type="matrix" values="0 0 0 0 0 0 0 0 0 0 0 0 0 0 0 0 0 0 0.25 0"/>
<feBlend mode="normal" in2="BackgroundImageFix" result="effect1_dropShadow"/>
<feBlend mode="normal" in="SourceGraphic" in2="effect1_dropShadow" result="shape"/>
</filter>
<clipPath id="clip0">
<rect x="32.2695" y="29.8398" width="62.8211" height="62.8211" fill="white"/>
</clipPath>
</defs>
</svg>
