<svg width="128" height="128" viewBox="0 0 128 128" fill="none" xmlns="http://www.w3.org/2000/svg">
<circle cx="64" cy="64" r="57" fill="#282828"/>
<circle cx="64" cy="64" r="60.5" stroke="#1F1F1F" stroke-opacity="0.5" stroke-width="7"/>
<g clip-path="url(#clip0)">
<path d="M46.1491 52.24L42.84 55.6254L47.6764 60.4363L50.2473 61.4545H35V66.5454H50.2218L47.7527 67.4618L42.84 72.3745L46.1745 75.7091L57.9091 63.9745L46.1491 52.24Z" fill="#FFC700"/>
<path d="M91 61.4545H75.7528L78.3236 60.4363L83.1601 55.6254L79.8509 52.24L68.0909 63.9745L79.8255 75.7091L83.1601 72.3745L78.2473 67.4618L75.7782 66.5454H91V61.4545Z" fill="#FFC700"/>
<path d="M62.9745 69.0911L51.2401 80.8511L54.6255 84.1602L59.4364 79.3238L60.4545 76.753V92.0002H65.5455V76.7784L66.4618 79.2474L71.3745 84.1602L74.7091 80.8257L62.9745 69.0911Z" fill="#FFC700"/>
<path d="M71.3745 43.84L66.4618 48.7527L65.5455 51.2218V36H60.4545V51.2473L59.4364 48.6764L54.6255 43.84L51.2401 47.1491L62.9745 58.9091L74.7091 47.1745L71.3745 43.84Z" fill="#FFC700"/>
</g>
<defs>
<clipPath id="clip0">
<rect x="35" y="36" width="56" height="56" fill="white"/>
</clipPath>
</defs>
</svg>
