<svg width="155" height="31" viewBox="0 0 155 31" fill="none" xmlns="http://www.w3.org/2000/svg">
<path d="M13.5979 5.8541C14.1966 4.01148 16.8034 4.01148 17.4021 5.8541L18.5309 9.32827C18.7987 10.1523 19.5666 10.7102 20.4331 10.7102H24.086C26.0235 10.7102 26.829 13.1895 25.2616 14.3283L22.3063 16.4754C21.6053 16.9847 21.312 17.8874 21.5797 18.7115L22.7086 22.1857C23.3073 24.0283 21.1983 25.5605 19.6309 24.4217L16.6756 22.2746C15.9746 21.7653 15.0254 21.7653 14.3244 22.2746L11.3691 24.4217C9.8017 25.5605 7.69274 24.0283 8.29144 22.1857L9.42027 18.7115C9.68802 17.8874 9.3947 16.9847 8.69372 16.4754L5.73842 14.3283C4.17099 13.1895 4.97654 10.7102 6.91399 10.7102H10.5669C11.4334 10.7102 12.2013 10.1523 12.4691 9.32827L13.5979 5.8541Z" fill="#FFC700"/>
<path d="M44.5979 5.8541C45.1966 4.01148 47.8034 4.01148 48.4021 5.8541L49.5309 9.32827C49.7987 10.1523 50.5666 10.7102 51.4331 10.7102H55.086C57.0235 10.7102 57.829 13.1895 56.2616 14.3283L53.3063 16.4754C52.6053 16.9847 52.312 17.8874 52.5797 18.7115L53.7086 22.1857C54.3073 24.0283 52.1983 25.5605 50.6309 24.4217L47.6756 22.2746C46.9746 21.7653 46.0254 21.7653 45.3244 22.2746L42.3691 24.4217C40.8017 25.5605 38.6927 24.0283 39.2914 22.1857L40.4203 18.7115C40.688 17.8874 40.3947 16.9847 39.6937 16.4754L36.7384 14.3283C35.171 13.1895 35.9765 10.7102 37.914 10.7102H41.5669C42.4334 10.7102 43.2013 10.1523 43.4691 9.32827L44.5979 5.8541Z" fill="#FFC700"/>
<path d="M75.5979 5.8541C76.1966 4.01148 78.8034 4.01148 79.4021 5.8541L80.5309 9.32827C80.7987 10.1523 81.5666 10.7102 82.4331 10.7102H86.086C88.0235 10.7102 88.829 13.1895 87.2616 14.3283L84.3063 16.4754C83.6053 16.9847 83.312 17.8874 83.5797 18.7115L84.7086 22.1857C85.3073 24.0283 83.1983 25.5605 81.6309 24.4217L78.6756 22.2746C77.9746 21.7653 77.0254 21.7653 76.3244 22.2746L73.3691 24.4217C71.8017 25.5605 69.6927 24.0283 70.2914 22.1857L71.4203 18.7115C71.688 17.8874 71.3947 16.9847 70.6937 16.4754L67.7384 14.3283C66.171 13.1895 66.9765 10.7102 68.914 10.7102H72.5669C73.4334 10.7102 74.2013 10.1523 74.4691 9.32827L75.5979 5.8541Z" fill="#FFC700"/>
<path d="M106.598 5.8541C107.197 4.01148 109.803 4.01148 110.402 5.8541L111.531 9.32827C111.799 10.1523 112.567 10.7102 113.433 10.7102H117.086C119.023 10.7102 119.829 13.1895 118.262 14.3283L115.306 16.4754C114.605 16.9847 114.312 17.8874 114.58 18.7115L115.709 22.1857C116.307 24.0283 114.198 25.5605 112.631 24.4217L109.676 22.2746C108.975 21.7653 108.025 21.7653 107.324 22.2746L104.369 24.4217C102.802 25.5605 100.693 24.0283 101.291 22.1857L102.42 18.7115C102.688 17.8874 102.395 16.9847 101.694 16.4754L98.7384 14.3283C97.171 13.1895 97.9765 10.7102 99.914 10.7102H103.567C104.433 10.7102 105.201 10.1523 105.469 9.32827L106.598 5.8541Z" fill="#FFC700"/>
<path d="M137.598 5.8541C138.197 4.01148 140.803 4.01148 141.402 5.8541L142.531 9.32827C142.799 10.1523 143.567 10.7102 144.433 10.7102H148.086C150.023 10.7102 150.829 13.1895 149.262 14.3283L146.306 16.4754C145.605 16.9847 145.312 17.8874 145.58 18.7115L146.709 22.1857C147.307 24.0283 145.198 25.5605 143.631 24.4217L140.676 22.2746C139.975 21.7653 139.025 21.7653 138.324 22.2746L135.369 24.4217C133.802 25.5605 131.693 24.0283 132.291 22.1857L133.42 18.7115C133.688 17.8874 133.395 16.9847 132.694 16.4754L129.738 14.3283C128.171 13.1895 128.977 10.7102 130.914 10.7102H134.567C135.433 10.7102 136.201 10.1523 136.469 9.32827L137.598 5.8541Z" fill="#FFC700"/>
</svg>
