<svg width="131" height="131" viewBox="0 0 131 131" fill="none" xmlns="http://www.w3.org/2000/svg">
<g filter="url(#filter0_d)">
<circle cx="65.2505" cy="61.2505" r="61.2505" fill="#FFC700"/>
</g>
<g clip-path="url(#clip0)">
<path d="M66.9174 69.2054H80.315C80.8174 69.2054 81.1523 68.8705 81.1523 68.3681V60.8319C81.1523 60.3295 80.8174 59.9946 80.315 59.9946H66.9174C66.415 59.9946 66.0801 60.3295 66.0801 60.8319V68.3681C66.08 68.8704 66.415 69.2054 66.9174 69.2054ZM67.7547 61.6693H79.4777V67.5307H67.7547V61.6693Z" fill="#282828"/>
<path d="M44.3089 58.3197H51.0078C51.5102 58.3197 51.8451 57.9848 51.8451 57.4823C51.8451 56.9799 51.5102 56.645 51.0078 56.645H44.3089C43.8065 56.645 43.4716 56.9799 43.4716 57.4823C43.4716 57.9848 43.8065 58.3197 44.3089 58.3197Z" fill="#282828"/>
<path d="M54.3571 58.3197H61.056C61.5584 58.3197 61.8933 57.9848 61.8933 57.4823C61.8933 56.9799 61.5584 56.645 61.056 56.645H54.3571C53.8547 56.645 53.5198 56.9799 53.5198 57.4823C53.5198 57.9848 53.8547 58.3197 54.3571 58.3197Z" fill="#282828"/>
<path d="M44.3089 61.6693H55.1945C55.6969 61.6693 56.0318 61.3344 56.0318 60.8319C56.0318 60.3295 55.6969 59.9946 55.1945 59.9946H44.3089C43.8065 59.9946 43.4716 60.3295 43.4716 60.8319C43.4716 61.3344 43.8065 61.6693 44.3089 61.6693Z" fill="#282828"/>
<path d="M61.0559 59.9946H58.5438C58.0414 59.9946 57.7065 60.3295 57.7065 60.8319C57.7065 61.3344 58.0414 61.6693 58.5438 61.6693H61.0559C61.5583 61.6693 61.8932 61.3344 61.8932 60.8319C61.8932 60.3295 61.5583 59.9946 61.0559 59.9946Z" fill="#282828"/>
<path d="M89.6096 49.6113C89.0235 48.8576 88.2699 48.4389 87.3488 48.3552L85.3391 48.1117V45.7594V44.0847C85.3391 42.2426 83.8319 40.7354 81.9898 40.7354H43.4715C41.6293 40.7353 40.1221 42.2425 40.1221 44.0847V45.7595V52.4583V70.88C40.1221 72.3925 41.1384 73.6784 42.5216 74.0906C42.4794 75.7844 43.7611 77.255 45.4812 77.4114L84.1669 81.7656C84.2506 81.7656 84.4181 81.7656 84.5018 81.7656C86.1766 81.7656 87.6838 80.5096 87.8512 78.9186L90.3632 52.0396C90.4469 51.2022 90.1957 50.2811 89.6096 49.6113ZM41.7968 46.5968H83.6645V48.7739V51.6209H41.7968V46.5968ZM43.4715 42.41H81.9897C82.9108 42.41 83.6644 43.1636 83.6644 44.0847V44.922H41.7968V44.0847C41.7968 43.1636 42.5505 42.41 43.4715 42.41ZM41.7968 70.8799V53.2955H83.6645V70.8799C83.6645 71.8011 82.9109 72.5547 81.9898 72.5547H43.5553H43.4716C42.5505 72.5547 41.7968 71.8011 41.7968 70.8799ZM88.6885 51.7046L86.1765 78.5836C86.0928 79.5047 85.2553 80.1746 84.3343 80.0908L45.7323 75.7366C44.895 75.6529 44.3088 74.983 44.2251 74.2294H81.9897C83.8318 74.2294 85.339 72.7222 85.339 70.88V52.4582V49.695L87.265 49.8625C87.6837 49.8625 88.1023 50.1137 88.3535 50.4486C88.6048 50.7835 88.7723 51.2859 88.6885 51.7046Z" fill="#282828"/>
</g>
<defs>
<filter id="filter0_d" x="0" y="0" width="130.501" height="130.501" filterUnits="userSpaceOnUse" color-interpolation-filters="sRGB">
<feFlood flood-opacity="0" result="BackgroundImageFix"/>
<feColorMatrix in="SourceAlpha" type="matrix" values="0 0 0 0 0 0 0 0 0 0 0 0 0 0 0 0 0 0 127 0"/>
<feOffset dy="4"/>
<feGaussianBlur stdDeviation="2"/>
<feColorMatrix type="matrix" values="0 0 0 0 0 0 0 0 0 0 0 0 0 0 0 0 0 0 0.25 0"/>
<feBlend mode="normal" in2="BackgroundImageFix" result="effect1_dropShadow"/>
<feBlend mode="normal" in="SourceGraphic" in2="effect1_dropShadow" result="shape"/>
</filter>
<clipPath id="clip0">
<rect x="40.1221" y="36.1221" width="50.2568" height="50.2568" fill="white"/>
</clipPath>
</defs>
</svg>
