<svg width="43" height="43" viewBox="0 0 43 43" fill="none" xmlns="http://www.w3.org/2000/svg">
<circle cx="21.5" cy="21.5" r="18" stroke="#FF4F32"/>
<circle cx="21.5" cy="21.5" r="20.5" stroke="#FF4F32" stroke-width="2"/>
<path d="M29.2719 15.4416C29.1988 15.3686 29.0984 15.3271 28.9957 15.3271C28.8925 15.3271 28.7922 15.3686 28.7191 15.4416C28.6464 15.5143 28.605 15.6147 28.605 15.7178C28.605 15.8205 28.6464 15.9214 28.7191 15.994C28.7921 16.0667 28.8925 16.1085 28.9957 16.1085C29.0984 16.1085 29.1988 16.0667 29.2719 15.994C29.3445 15.9214 29.3859 15.8206 29.3859 15.7178C29.3859 15.6147 29.3445 15.5143 29.2719 15.4416Z" fill="#FF4F32"/>
<path d="M20.2996 24.6418C20.2266 24.5688 20.1262 24.5273 20.0234 24.5273C19.9203 24.5273 19.8199 24.5688 19.7468 24.6418C19.6742 24.7145 19.6328 24.8149 19.6328 24.918C19.6328 25.0207 19.6742 25.1215 19.7468 25.1942C19.8199 25.2669 19.9203 25.3087 20.0234 25.3087C20.1262 25.3087 20.2266 25.2669 20.2996 25.1942C20.3723 25.1216 20.4137 25.0208 20.4137 24.918C20.4138 24.8149 20.3723 24.7145 20.2996 24.6418Z" fill="#FF4F32"/>
<path d="M30.2181 16.7388C30.1114 16.5513 29.8729 16.4857 29.6854 16.5924C29.4979 16.699 29.4323 16.9375 29.5389 17.1251C30.6993 19.1656 30.349 21.7515 28.687 23.4135L28.3908 23.7097C28.3192 23.522 28.2084 23.3458 28.0573 23.1948L24.0434 19.181C24.3059 19.0518 24.5484 18.8795 24.7614 18.6666L25.5312 17.8967C25.6838 17.7442 25.6838 17.4968 25.5312 17.3442C25.3786 17.1917 25.1313 17.1917 24.9787 17.3442L24.2089 18.1141C23.8472 18.4758 23.3664 18.6749 22.8549 18.6749H21.316C21.2124 18.6749 21.113 18.7161 21.0397 18.7894L19.8616 19.9675C19.5118 20.3174 18.9425 20.3174 18.5927 19.9675C18.2428 19.6176 18.2428 19.0484 18.5927 18.6985L21.2823 16.0089C22.9261 14.3651 25.4922 14.0037 27.5225 15.1298C27.7111 15.2344 27.9489 15.1664 28.0536 14.9777C28.1582 14.789 28.0901 14.5512 27.9014 14.4465C26.7816 13.8255 25.4622 13.5769 24.1861 13.7469C22.9919 13.9059 21.8988 14.406 21.0028 15.1994C19.9021 14.2236 18.5008 13.6899 17.0172 13.6899C15.4099 13.6899 13.8989 14.3158 12.7624 15.4523C11.6259 16.5888 11 18.0999 11 19.7072C11 21.3144 11.6259 22.8254 12.7624 23.962L12.9096 24.1092C12.9352 24.1348 12.9637 24.1557 12.9937 24.1727C13.0198 24.5107 13.1614 24.8413 13.4194 25.0992C13.7064 25.3862 14.0833 25.5297 14.4603 25.5297C14.4799 25.5297 14.4995 25.529 14.5191 25.5283C14.5183 25.548 14.5176 25.5678 14.5176 25.5877C14.5176 25.9809 14.6707 26.3506 14.9488 26.6286C15.2359 26.9156 15.6127 27.0591 15.9897 27.0591C16.0093 27.0591 16.0289 27.0585 16.0485 27.0577C16.0477 27.0774 16.047 27.0972 16.047 27.1171C16.047 27.5103 16.2002 27.88 16.4782 28.158C16.7653 28.445 17.1422 28.5885 17.5192 28.5885C17.539 28.5885 17.5588 28.5879 17.5786 28.5871C17.5627 28.9836 17.7056 29.3854 18.0077 29.6875C18.2857 29.9656 18.6554 30.1187 19.0486 30.1187C19.4418 30.1187 19.8115 29.9656 20.0895 29.6875L20.6355 29.1415L21.373 29.8789C21.651 30.157 22.0207 30.3101 22.4139 30.3101C22.8071 30.3101 23.1768 30.157 23.4548 29.8789C23.7605 29.5732 23.9034 29.1654 23.8834 28.7642C23.908 28.7654 23.9326 28.7661 23.9571 28.7661C24.3341 28.7661 24.7112 28.6226 24.9982 28.3356C25.3001 28.0337 25.4429 27.6322 25.4272 27.2359C25.447 27.2367 25.4668 27.2373 25.4866 27.2373C25.8798 27.2373 26.2495 27.0842 26.5276 26.8062C26.8295 26.5042 26.9723 26.1028 26.9566 25.7064C26.9764 25.7072 26.9962 25.7079 27.0161 25.7079C27.4093 25.7079 27.7789 25.5547 28.057 25.2767C28.1982 25.1355 28.3045 24.9724 28.3762 24.7983C28.4143 24.7797 28.45 24.7551 28.4816 24.7235L29.2392 23.966C31.1494 22.0562 31.5518 19.0842 30.2181 16.7388ZM14.4604 24.749C14.2758 24.749 14.1023 24.6772 13.9718 24.5467C13.8414 24.4162 13.7695 24.2428 13.7695 24.0582C13.7695 23.8737 13.8413 23.7002 13.9718 23.5697L14.645 22.8965C14.7755 22.766 14.949 22.6942 15.1336 22.6942C15.318 22.6942 15.4916 22.766 15.622 22.8965C15.8914 23.1659 15.8914 23.6042 15.622 23.8735L14.9488 24.5467C14.8184 24.6772 14.6449 24.749 14.4604 24.749ZM15.5014 26.0762C15.3709 25.9457 15.299 25.7722 15.299 25.5877C15.299 25.4032 15.3709 25.2297 15.5014 25.0992L16.1746 24.426C16.1746 24.426 16.1746 24.426 16.1746 24.426C16.3051 24.2955 16.4786 24.2236 16.6631 24.2236C16.8476 24.2236 17.0211 24.2954 17.1516 24.426C17.4209 24.6953 17.4209 25.1336 17.1516 25.4029L16.4784 26.0761C16.2089 26.3455 15.7706 26.3455 15.5014 26.0762ZM17.0308 27.6056C16.9003 27.4751 16.8284 27.3016 16.8284 27.1171C16.8284 26.9326 16.9003 26.7591 17.0308 26.6287L17.704 25.9554C17.704 25.9554 17.704 25.9554 17.704 25.9554C17.8345 25.8249 18.008 25.753 18.1925 25.753C18.377 25.753 18.5505 25.8249 18.681 25.9554C18.9504 26.2248 18.9504 26.663 18.681 26.9324L18.0077 27.6056C17.7384 27.875 17.3002 27.875 17.0308 27.6056ZM20.2104 28.4619L19.5372 29.1351C19.4067 29.2656 19.2332 29.3375 19.0487 29.3375C18.8642 29.3375 18.6907 29.2656 18.5602 29.1351C18.2909 28.8657 18.2909 28.4275 18.5602 28.1581L19.2335 27.4849C19.2335 27.4849 19.2335 27.4849 19.2335 27.4849C19.3639 27.3544 19.5374 27.2825 19.722 27.2825C19.9064 27.2825 20.08 27.3544 20.2104 27.4849C20.3409 27.6153 20.4128 27.7888 20.4128 27.9733C20.4128 28.1579 20.3409 28.3314 20.2104 28.4619ZM27.5048 24.7242C27.3743 24.8547 27.2008 24.9266 27.0163 24.9266C26.8318 24.9266 26.6583 24.8547 26.5279 24.7242L24.9018 23.0982C24.9017 23.0981 24.9017 23.0981 24.9016 23.098L23.3723 21.5687C23.2197 21.4162 22.9724 21.4162 22.8198 21.5687C22.6673 21.7212 22.6673 21.9686 22.8198 22.1212L25.9754 25.2766C26.2447 25.546 26.2447 25.9843 25.9754 26.2536C25.8449 26.3841 25.6714 26.456 25.4869 26.456C25.3023 26.456 25.1289 26.3841 24.9984 26.2536L21.8429 23.0981C21.6903 22.9456 21.443 22.9456 21.2904 23.0981C21.1378 23.2506 21.1378 23.498 21.2904 23.6506L22.8195 25.1797C22.8196 25.1798 22.8197 25.18 22.8198 25.1801L24.4459 26.8061C24.7153 27.0755 24.7153 27.5138 24.446 27.7831C24.1766 28.0525 23.7382 28.0525 23.469 27.7831L21.8429 26.1571C21.8128 26.127 21.779 26.1031 21.743 26.0849L21.2793 25.6211C21.1267 25.4686 20.8794 25.4686 20.7268 25.6211C20.5742 25.7737 20.5742 26.021 20.7268 26.1736L22.9026 28.3494C23.172 28.6188 23.172 29.057 22.9026 29.3264C22.7721 29.4569 22.5986 29.5287 22.4141 29.5287C22.2296 29.5287 22.0561 29.4569 21.9257 29.3264L21.0977 28.4985C21.1608 28.3329 21.1941 28.1557 21.1941 27.9733C21.1941 27.5801 21.041 27.2104 20.763 26.9324C20.4849 26.6543 20.1152 26.5012 19.722 26.5012C19.7021 26.5012 19.6824 26.5019 19.6626 26.5026C19.6783 26.1063 19.5355 25.7048 19.2336 25.4029C18.9555 25.1249 18.5858 24.9717 18.1926 24.9717C18.1727 24.9717 18.153 24.9724 18.1332 24.9732C18.1489 24.5769 18.0061 24.1754 17.7041 23.8735C17.4261 23.5954 17.0564 23.4423 16.6632 23.4423C16.6433 23.4423 16.6236 23.4429 16.6038 23.4437C16.6195 23.0474 16.4766 22.6459 16.1747 22.344C15.6007 21.77 14.6667 21.7701 14.0927 22.344L13.4195 23.0172C13.3346 23.1021 13.2626 23.1951 13.2028 23.2934C12.2852 22.3188 11.7815 21.0517 11.7815 19.7071C11.7815 18.3085 12.3261 16.9937 13.3151 16.0047C14.304 15.0158 15.6189 14.4712 17.0174 14.4712C18.2884 14.4712 19.4902 14.921 20.441 15.7453L18.0404 18.146C17.7233 18.4631 17.5487 18.8846 17.5487 19.3329C17.5487 19.7813 17.7233 20.2029 18.0404 20.5199C18.3676 20.8472 18.7975 21.0108 19.2273 21.0108C19.6572 21.0108 20.0871 20.8472 20.4143 20.5199L21.4781 19.4562H22.8552C22.9689 19.4562 23.0813 19.4484 23.1924 19.4346L27.505 23.7472C27.7741 24.0167 27.7741 24.4549 27.5048 24.7242Z" fill="#FF4F32"/>
</svg>
