<svg xmlns="http://www.w3.org/2000/svg" viewBox="0 0 462.02 67.57"><defs><style>.cls-1,.cls-2{fill:#fff;}.cls-2{font-size:41.24px;font-family:AcademiaPlain, Academia;letter-spacing:0.01em;}</style></defs><title>Ресурс 3</title><g id="Слой_2" data-name="Слой 2"><g id="Layer_1" data-name="Layer 1"><path class="cls-1" d="M119,23h4.1L130,44.3l4.3-10.3-3.6-11h4.1l6.9,21.2,8-21.2h2.1l-9.2,24.1,1.1,3.4h-4.1l-4.4-13.6-4.3,10.3,1.1,3.4h-4.1Z"/><path class="cls-1" d="M159.76,32.7a8.57,8.57,0,0,1,3.6.7,9.72,9.72,0,0,1,2.9,1.9,8.12,8.12,0,0,1,1.9,2.9,8.42,8.42,0,0,1,.7,3.5,8.12,8.12,0,0,1-.7,3.5,9.72,9.72,0,0,1-1.9,2.9,8.12,8.12,0,0,1-2.9,1.9,8.57,8.57,0,0,1-3.6.7,8.42,8.42,0,0,1-3.5-.7,11.18,11.18,0,0,1-2.9-1.9,7,7,0,0,1-1.9-2.9,9.1,9.1,0,0,1,0-7,9.72,9.72,0,0,1,1.9-2.9,8.12,8.12,0,0,1,2.9-1.9A8.42,8.42,0,0,1,159.76,32.7Zm0,1.7a4.27,4.27,0,0,0-2.4.6,4.1,4.1,0,0,0-1.6,1.6,8.54,8.54,0,0,0-.9,2.4,13.86,13.86,0,0,0-.3,3,12.92,12.92,0,0,0,.3,2.9,6.91,6.91,0,0,0,.9,2.3,3.86,3.86,0,0,0,1.6,1.5,4.75,4.75,0,0,0,2.4.6,4.27,4.27,0,0,0,2.4-.6,4.63,4.63,0,0,0,1.6-1.5,6.91,6.91,0,0,0,.9-2.3A13.58,13.58,0,0,0,165,42a13.86,13.86,0,0,0-.3-3,8.54,8.54,0,0,0-.9-2.4,4.89,4.89,0,0,0-1.6-1.6A4.75,4.75,0,0,0,159.76,34.4Z"/><path class="cls-1" d="M176.36,34.5a26.7,26.7,0,0,1,3.8-1.4,9.15,9.15,0,0,1,2.6-.4,4.44,4.44,0,0,1,1.3.2,10.37,10.37,0,0,1,1,.4,1.17,1.17,0,0,1,.6.6,2.51,2.51,0,0,1,.4.7,30.26,30.26,0,0,1,4-1.5,10.44,10.44,0,0,1,2.8-.4,7.77,7.77,0,0,1,1.6.2,2.1,2.1,0,0,1,1.1.7,4,4,0,0,1,.7,1.3,5.86,5.86,0,0,1,.2,2V50.4h-3.8V37.1a2.48,2.48,0,0,0-.1-.9c-.1-.2-.2-.5-.3-.7a2.65,2.65,0,0,0-.6-.5,3,3,0,0,0-1-.2,8.52,8.52,0,0,0-2.3.3,10.66,10.66,0,0,0-1.9.7V50.5h-3.8V36.9a2.2,2.2,0,0,0-.1-.8c-.1-.3-.1-.5-.3-.7a1,1,0,0,0-.6-.5,3,3,0,0,0-1-.2,4.1,4.1,0,0,0-1.1.1l-1.2.3c-.4.1-.8.3-1.1.4a7.93,7.93,0,0,0-.9.4V50.5h-3.8V33.1h3.8v1.4Z"/><path class="cls-1" d="M208.56,32.7a6.31,6.31,0,0,1,3.2.7,5.54,5.54,0,0,1,2.1,1.9,11.07,11.07,0,0,1,1.2,2.7,16.56,16.56,0,0,1,.4,3.3v.9h-11.4a8.92,8.92,0,0,0,.3,2.2,6.5,6.5,0,0,0,1.1,2.2,6.27,6.27,0,0,0,1.9,1.7,5.43,5.43,0,0,0,2.9.7h3.9v1.5h-3.9a15.32,15.32,0,0,1-4.5-.6,8.34,8.34,0,0,1-3.1-1.7,7.5,7.5,0,0,1-1.8-2.8,10.64,10.64,0,0,1-.6-3.7,12.7,12.7,0,0,1,.5-3.4,10.24,10.24,0,0,1,1.6-2.9,8.6,8.6,0,0,1,2.6-2A10.48,10.48,0,0,1,208.56,32.7Zm-.2,1.7a4.23,4.23,0,0,0-2,.5,3,3,0,0,0-1.3,1.4,6,6,0,0,0-.8,2,9.28,9.28,0,0,0-.3,2.4h7.8v-.8a14.92,14.92,0,0,0-.2-2.1,6.87,6.87,0,0,0-.5-1.7,4,4,0,0,0-1-1.2A2.86,2.86,0,0,0,208.36,34.4Z"/><path class="cls-1" d="M222.86,34.5c.8-.3,1.5-.6,2.2-.9s1.3-.4,1.9-.6,1.1-.2,1.6-.3a7.57,7.57,0,0,1,1.5-.1,3.83,3.83,0,0,1,2.7.9,4,4,0,0,1,.9,2.9v14h-3.8V37.1a2.2,2.2,0,0,0-.1-.8c-.1-.3-.2-.5-.3-.8a1,1,0,0,0-.6-.5,3,3,0,0,0-1-.2,19.88,19.88,0,0,0-2.2.2,13.66,13.66,0,0,0-2.8,1V50.6h-3.8V33.1h3.8v1.4Z"/><path class="cls-1" d="M238.56,23h3.8v3a2.5,2.5,0,0,1-.3,1.3,2.54,2.54,0,0,1-.8,1,2.38,2.38,0,0,1-1.1.6,5.9,5.9,0,0,1-1.4.2H237V27.4h.9a.68.68,0,0,0,.7-.7c0-.2.1-.5.1-.9V23Z"/><path class="cls-1" d="M250.36,32.7a6.15,6.15,0,0,1,1.4.1,4.25,4.25,0,0,1,1.1.2c.3.1.7.2,1,.3a7.6,7.6,0,0,1,1.1.4v1.6l-1.8-.6a7.86,7.86,0,0,0-2.3-.2,2,2,0,0,0-.7.1.91.91,0,0,0-.7.3,2.65,2.65,0,0,0-.6.5.84.84,0,0,0-.2.7,2.38,2.38,0,0,0,.4,1.2,15.29,15.29,0,0,0,1.4,1.7l2,2.2a16.61,16.61,0,0,0,1.3,1.4c.4.5.8.9,1.1,1.3a9.13,9.13,0,0,1,.8,1.3,2.77,2.77,0,0,1,.3,1.3,3.7,3.7,0,0,1-.6,2.1A6.2,6.2,0,0,1,254,50a6,6,0,0,1-2,.8,8.58,8.58,0,0,1-2.3.2,12,12,0,0,1-2.8-.3,9.43,9.43,0,0,1-2.3-1l.1-1.7a10.84,10.84,0,0,0,1.9.8,7.79,7.79,0,0,0,2.1.4,4.54,4.54,0,0,0,2.6-.6,2,2,0,0,0,.9-1.8,2.7,2.7,0,0,0-.7-1.7c-.5-.6-1-1.2-1.7-2l-2-2.2c-.5-.7-1-1.2-1.3-1.6a9.38,9.38,0,0,1-.9-1.2,9.25,9.25,0,0,1-.5-1,3.55,3.55,0,0,1-.2-1,2.73,2.73,0,0,1,.4-1.6,2.94,2.94,0,0,1,1.2-1,4.76,4.76,0,0,1,1.8-.5A6.23,6.23,0,0,1,250.36,32.7Z"/><path class="cls-1" d="M289.66,50.5h-4.1V35h-12.4V50.6h-4.1V23h4.1V33.2h12.4V23h4.1Z"/><path class="cls-1" d="M302.26,32.7a6.31,6.31,0,0,1,3.2.7,5.54,5.54,0,0,1,2.1,1.9,11.07,11.07,0,0,1,1.2,2.7,16.56,16.56,0,0,1,.4,3.3v.9h-11.4a8.92,8.92,0,0,0,.3,2.2,6.5,6.5,0,0,0,1.1,2.2,6.27,6.27,0,0,0,1.9,1.7,5.43,5.43,0,0,0,2.9.7h3.9v1.5H304a15.32,15.32,0,0,1-4.5-.6,8.34,8.34,0,0,1-3.1-1.7,7.5,7.5,0,0,1-1.8-2.8,10.64,10.64,0,0,1-.6-3.7,12.7,12.7,0,0,1,.5-3.4,10.24,10.24,0,0,1,1.6-2.9,8.6,8.6,0,0,1,2.6-2A10.48,10.48,0,0,1,302.26,32.7Zm-.2,1.7a4.23,4.23,0,0,0-2,.5,3.53,3.53,0,0,0-1.3,1.4,6,6,0,0,0-.8,2,9.28,9.28,0,0,0-.3,2.4h7.8v-.8a14.92,14.92,0,0,0-.2-2.1,6.87,6.87,0,0,0-.5-1.7,4,4,0,0,0-1-1.2A2.86,2.86,0,0,0,302.06,34.4Z"/><path class="cls-1" d="M318.86,34.3a6.62,6.62,0,0,0-1.5.1,5,5,0,0,0-1.2.2c-.4.1-.7.1-1,.2l-.9.3-.4-1.2a11.4,11.4,0,0,1,3.3-.8,18.16,18.16,0,0,1,3.2-.3,25.84,25.84,0,0,1,3.2.2,5.22,5.22,0,0,1,2,.7,2.21,2.21,0,0,1,1,1.3,5.62,5.62,0,0,1,.3,2V50.7h-6.1a16.08,16.08,0,0,1-4.2-.5,8.7,8.7,0,0,1-2.9-1.4,5.89,5.89,0,0,1-1.6-2,6.87,6.87,0,0,1-.5-2.4,7.22,7.22,0,0,1,.5-2.7,4.83,4.83,0,0,1,1.4-2,7.14,7.14,0,0,1,2.3-1.2,9.48,9.48,0,0,1,3-.4,8.81,8.81,0,0,1,2.1.3,11,11,0,0,1,2.3.9V37a2.77,2.77,0,0,0-.1-.9,1.37,1.37,0,0,0-.5-.8,6.66,6.66,0,0,0-1.2-.6A8.15,8.15,0,0,0,318.86,34.3Zm4,14.7V40.4a6.39,6.39,0,0,0-1.9-.8,7.61,7.61,0,0,0-2.1-.3,3.81,3.81,0,0,0-1.6.3,2.73,2.73,0,0,0-1.2.9,3.48,3.48,0,0,0-.7,1.5,5.82,5.82,0,0,0-.3,1.9v.8a3.55,3.55,0,0,0,.2,1,5.36,5.36,0,0,0,.5,1.1,2.84,2.84,0,0,0,.9,1,5.3,5.3,0,0,0,1.5.8,6.87,6.87,0,0,0,2.2.3h2.5Z"/><path class="cls-1" d="M331.46,23h3.8V50.5h-3.8Z"/><path class="cls-1" d="M347,34.7h-2.5V50.5H341V34.7h-2.4V33H341V27.3l3.6-1.1V33h2.5v1.7Z"/><path class="cls-1" d="M354.06,34.5c.8-.3,1.5-.6,2.2-.9s1.3-.4,1.9-.6a11,11,0,0,1,1.6-.3,7.57,7.57,0,0,1,1.5-.1,3.83,3.83,0,0,1,2.7.9,4,4,0,0,1,.9,2.9v14H361V37.1a2.2,2.2,0,0,0-.1-.8c-.1-.3-.2-.5-.3-.8a1,1,0,0,0-.6-.5,3,3,0,0,0-1-.2,19.88,19.88,0,0,0-2.2.2,13.66,13.66,0,0,0-2.8,1V50.6h-3.7V23H354V34.5Z"/><text class="cls-2" transform="translate(374.96 51.05)">Spain</text><path class="cls-1" d="M99.56.1c0-.1,0-.1-.1-.1C85.16,4.5,67.76,4.2,53,1.9c-16.3-2.6-30-.5-38.8,5.6a10.47,10.47,0,0,0-1.1.8A33.46,33.46,0,0,0,.26,30.7C-.94,40.2,1.76,55.2,13,57.6a13.82,13.82,0,0,0,12.5-3.9c4-4.2,3.2-9.9,5.2-15,2.1-5.4,7.3-8.6,11.8-11.8,5.6-4,8.9-7.7,11.1-14.3a20.14,20.14,0,0,1,4.2,5.2c2.7,4.7.7,10.5.7,10.5-.1,2.5,2.1,4.7,3.9,6.2a3.46,3.46,0,0,1,1,1.1,2.38,2.38,0,0,1-.1,2.1c-.1.2-.3.3-.5.5l-1.5,1a1.12,1.12,0,0,0-.1,1.3,1.24,1.24,0,0,1,1.1,1.6,3,3,0,0,1-2,2.4c1.9,1.1,1.5,3,.5,3.3a1.72,1.72,0,0,0-1,.8l.5,1.6c.8,4.7-3.4,4.4-3.4,4.4l-4.3-.5a10.48,10.48,0,0,0-8.8,2.9L33.16,67c-.1.1,0,.2.1.3C103.76,71.7,99.56,21.7,99.56.1Z"/></g></g></svg>