<svg width="98" height="98" viewBox="0 0 98 98" fill="none" xmlns="http://www.w3.org/2000/svg">
<rect y="48.9521" width="69.2284" height="69.2284" rx="34.6142" transform="rotate(-45 0 48.9521)" fill="#CCF8FF"/>
<path d="M60.0797 38.2136H37.9204C37.5163 38.2136 37.1887 38.5444 37.1887 38.9524V50.1114C37.1887 50.5194 37.5163 50.8502 37.9204 50.8502C38.3245 50.8502 38.6521 50.5194 38.6521 50.1114V39.6912H59.3479V50.1113C59.3479 50.5194 59.6756 50.8501 60.0797 50.8501C60.4838 50.8501 60.8114 50.5194 60.8114 50.1113V38.9524C60.8113 38.5444 60.4837 38.2136 60.0797 38.2136Z" fill="#333333"/>
<path d="M65.3415 52.7495H63.9938V37.2336C63.9938 36.0021 63.0016 35.0002 61.7819 35.0002H36.2181C34.9984 35.0002 34.0063 36.0021 34.0063 37.2336V52.7495H32.6586C32.2948 52.7495 32 53.0472 32 53.4145V54.7198C32 56.5287 33.4574 58.0002 35.2489 58.0002H62.7511C64.5426 58.0002 66 56.5287 66 54.7198V53.4145C66.0001 53.0472 65.7053 52.7495 65.3415 52.7495ZM35.4697 37.2336C35.4697 36.8169 35.8055 36.4778 36.2181 36.4778H61.7818C62.1946 36.4778 62.5303 36.8169 62.5303 37.2336V52.7495H52.6224C52.5758 52.748 52.5276 52.752 52.4798 52.7613C52.1698 52.8216 51.9458 53.0955 51.9458 53.4142C51.9458 53.9755 51.4936 54.4321 50.9378 54.4321H47.0623C46.5064 54.4321 46.0543 53.9754 46.0543 53.4142C46.0543 53.0419 45.7488 52.7414 45.3805 52.7494H35.4697V37.2336ZM64.683 54.7198C64.683 55.7954 63.8163 56.6704 62.7512 56.6704H35.2489C34.1837 56.6704 33.3171 55.7954 33.3171 54.7198V54.0794H44.8322C45.1169 55.0511 46.0089 55.762 47.0622 55.762H50.9378C51.9911 55.762 52.8831 55.051 53.1679 54.0794H64.683L64.683 54.7198Z" fill="#333333"/>
<path d="M50.0845 42.5082C49.7987 42.2197 49.3355 42.2197 49.0496 42.5082L44.4479 47.1549C44.1621 47.4434 44.1621 47.9112 44.4479 48.1997C44.5908 48.344 44.778 48.4161 44.9652 48.4161C45.1525 48.4161 45.3397 48.3439 45.4826 48.1997L50.0845 43.5531C50.3703 43.2646 50.3703 42.7968 50.0845 42.5082Z" fill="#333333"/>
<path d="M52.8121 45.2009C52.5263 44.9123 52.0631 44.9123 51.7773 45.2009L49.944 47.0519C49.6583 47.3404 49.6583 47.8082 49.944 48.0968C50.0869 48.2411 50.2742 48.3132 50.4614 48.3132C50.6487 48.3132 50.8359 48.2411 50.9788 48.0968L52.812 46.2458C53.0978 45.9573 53.0978 45.4894 52.8121 45.2009Z" fill="#333333"/>
</svg>
