<svg width="43" height="43" viewBox="0 0 43 43" fill="none" xmlns="http://www.w3.org/2000/svg">
<circle cx="21.5" cy="21.5" r="21" stroke="#FFE500"/>
<path d="M14.3282 13.0625H26.1407V13.9062H27.8282V10.5312C27.8282 9.13326 26.6949 8 25.2969 8H15.1719C13.7739 8 12.6407 9.13326 12.6407 10.5312V32.4688C12.6407 33.8667 13.7739 35 15.1719 35H25.2969C26.6949 35 27.8282 33.8667 27.8282 32.4688V28.25H14.3282V13.0625ZM14.3282 10.5312C14.3282 10.0652 14.7059 9.6875 15.1719 9.6875H25.2969C25.763 9.6875 26.1407 10.0652 26.1407 10.5312V11.375H14.3282V10.5312ZM26.1407 29.9375V32.4688C26.1407 32.9348 25.763 33.3125 25.2969 33.3125H15.1719C14.7059 33.3125 14.3282 32.9348 14.3282 32.4688V29.9375H26.1407Z" fill="white"/>
<path d="M21.0782 30.7812H19.3907V32.4688H21.0782V30.7812Z" fill="white"/>
<path d="M21.0782 19.8125H19.3907V21.5H21.0782V19.8125Z" fill="white"/>
<path d="M17.7032 19.8125H16.0157V21.5H17.7032V19.8125Z" fill="white"/>
<path d="M28.1445 16.1446C28.1406 16.1407 28.1367 16.1368 28.1328 16.1328C27.7976 15.8091 27.2635 15.8184 26.9397 16.1536C26.6239 16.4806 26.6239 16.999 26.9397 17.3259C29.2449 19.6251 29.2499 23.3578 26.9506 25.6631C26.9469 25.6668 26.9433 25.6704 26.9397 25.674C26.6045 25.9977 26.5953 26.5319 26.9189 26.867C27.2427 27.2022 27.7768 27.2115 28.112 26.8878C28.119 26.881 28.126 26.8741 28.1328 26.867C31.0969 23.9093 31.1022 19.1087 28.1445 16.1446Z" fill="white"/>
<path d="M26.3508 17.9285C26.3486 17.9262 26.3463 17.9239 26.344 17.9217C26.0203 17.5865 25.4861 17.5772 25.151 17.9009C24.8158 18.2246 24.8065 18.7588 25.1302 19.0939C25.137 19.101 25.1439 19.1079 25.151 19.1147C26.4683 20.4288 26.471 22.562 25.1569 23.8793C25.1549 23.8813 25.153 23.8833 25.151 23.8853C24.8215 24.2148 24.8216 24.7491 25.1511 25.0785C25.3093 25.2367 25.5238 25.3255 25.7475 25.3256C25.9712 25.3255 26.1858 25.2366 26.344 25.0783C28.3203 23.1058 28.3233 19.9047 26.3508 17.9285Z" fill="white"/>
<path d="M23.3615 23.2888C23.3617 23.289 23.362 23.2892 23.3622 23.2895C23.6917 23.6188 24.2258 23.6188 24.5553 23.2895C25.5441 22.3013 25.5446 20.6986 24.5564 19.7097C24.5561 19.7094 24.5557 19.7089 24.5553 19.7086C24.2313 19.3736 23.6971 19.3647 23.3622 19.6887C23.0273 20.0126 23.0184 20.5468 23.3423 20.8818C23.3491 20.8888 23.3561 20.8957 23.3631 20.9025C23.6924 21.232 23.6924 21.7661 23.3631 22.0955C23.0332 22.4246 23.0325 22.9589 23.3615 23.2888Z" fill="white"/>
</svg>
