<svg width="113" height="18" viewBox="0 0 113 18" fill="none" xmlns="http://www.w3.org/2000/svg">
<path d="M8.56061 0L11.5797 4.4052L16.7022 5.91523L13.4456 10.1478L13.5924 15.4863L8.56061 13.697L3.52881 15.4863L3.67563 10.1478L0.418986 5.91523L5.54153 4.4052L8.56061 0Z" fill="#FFB800"/>
<path d="M32.5303 0L35.5494 4.4052L40.6719 5.91523L37.4153 10.1478L37.5621 15.4863L32.5303 13.697L27.4985 15.4863L27.6453 10.1478L24.3887 5.91523L29.5112 4.4052L32.5303 0Z" fill="#FFB800"/>
<path d="M56.5 0L59.5191 4.4052L64.6416 5.91523L61.385 10.1478L61.5318 15.4863L56.5 13.697L51.4682 15.4863L51.615 10.1478L48.3584 5.91523L53.4809 4.4052L56.5 0Z" fill="#FFB800"/>
<path d="M80.4697 0L83.4888 4.4052L88.6113 5.91523L85.3547 10.1478L85.5015 15.4863L80.4697 13.697L75.4379 15.4863L75.5847 10.1478L72.3281 5.91523L77.4506 4.4052L80.4697 0Z" fill="#FFB800"/>
<path d="M104.439 0L107.458 4.4052L112.581 5.91523L109.324 10.1478L109.471 15.4863L104.439 13.697L99.4076 15.4863L99.5544 10.1478L96.2978 5.91523L101.42 4.4052L104.439 0Z" fill="#FFB800"/>
</svg>
