<svg width="164" height="164" viewBox="0 0 164 164" fill="none" xmlns="http://www.w3.org/2000/svg">
<g filter="url(#filter0_d)">
<path d="M160 78C160 121.078 125.078 156 82 156C38.9218 156 4 121.078 4 78C4 34.9218 38.9218 0 82 0C125.078 0 160 34.9218 160 78Z" fill="#6A9923"/>
</g>
<path d="M88.6448 71.875C89.3778 71.875 89.9729 71.2799 89.9729 70.5469C89.9729 69.8138 89.3778 69.2188 88.6448 69.2188C87.9102 69.2188 87.3167 69.8138 87.3167 70.5469C87.3167 71.2799 87.9102 71.875 88.6448 71.875Z" fill="white"/>
<path d="M75.3635 71.875C76.0966 71.875 76.6917 71.2799 76.6917 70.5469C76.6917 69.8138 76.0966 69.2188 75.3635 69.2188C74.6289 69.2188 74.0354 69.8138 74.0354 70.5469C74.0354 71.2799 74.6289 71.875 75.3635 71.875Z" fill="white"/>
<path d="M52.7812 103.757V106.672C52.7812 107.405 53.3758 108 54.1094 108H109.891C110.624 108 111.219 107.405 111.219 106.672V103.754C111.219 98.4723 108.252 93.5909 102.761 91.5868C104.745 89.8535 105.951 87.3145 105.951 84.569C105.951 83.8359 105.357 83.2408 104.623 83.2408C101.428 83.2408 98.7359 80.9815 98.0874 77.9844H101.926C104.121 77.9844 105.906 76.1971 105.906 74V67.8906C105.906 66.1584 104.796 64.6813 103.25 64.134V61.25C103.25 49.5329 93.7191 40 82.0042 40C70.2622 40 60.75 49.5028 60.75 61.25V64.1361C59.2045 64.6855 58.0938 66.162 58.0938 67.8906V74C58.0938 76.1971 59.8831 77.9844 62.0823 77.9844H65.9126C65.2651 80.9815 62.5751 83.2408 59.3835 83.2408C58.6499 83.2408 58.0554 83.8359 58.0554 84.569C58.0554 87.3181 59.2647 89.8597 61.2543 91.594C55.7846 93.5997 52.7812 98.5304 52.7812 103.757ZM103.183 85.7861C102.77 88.0133 101.237 89.9038 99.0955 90.7531L91.0494 89.7082L90.1898 86.3484C92.6982 84.8486 94.6971 82.7293 96.0366 80.2417C97.2864 83.1376 99.9707 85.2854 103.183 85.7861ZM92.6489 63.9062C88.9799 63.9062 85.9948 60.8837 85.9948 57.1686C85.9948 56.435 85.4002 55.8405 84.6666 55.8405C83.9336 55.8405 83.3385 56.435 83.3385 57.1686C83.3385 60.8837 80.3533 63.9062 76.6833 63.9062H68.7229C68.7229 56.5829 74.6808 50.625 82.0042 50.625C89.3415 50.625 95.2854 56.5632 95.2854 63.9062H92.6489ZM68.7188 66.5625H76.6833C80.068 66.5625 83.0366 64.7317 84.6666 61.9997C86.2967 64.7317 89.2647 66.5625 92.6489 66.5625H95.2812V72.6719C95.2812 77.6954 92.4989 82.2333 88.0207 84.5145C86.1468 85.4691 84.1224 85.9531 82.0042 85.9531C79.8916 85.9531 77.8735 85.4727 76.0048 84.5254C74.7508 83.8899 73.6089 83.0619 72.6103 82.0627C70.1008 79.5548 68.7188 76.2194 68.7188 72.6719V66.5625ZM76.2782 87.55C78.0966 88.2524 80.0161 88.6094 82.0042 88.6094C84 88.6094 85.9268 88.2493 87.753 87.5396L88.596 90.8366C88.1535 94.1247 85.3639 96.5781 82.0171 96.5781C78.6709 96.5781 75.8813 94.1258 75.4377 90.8387L76.2782 87.55ZM103.25 74C103.25 74.7325 102.656 75.3281 101.926 75.3281H97.9375V66.5625H101.926C102.656 66.5625 103.25 67.1581 103.25 67.8906V74ZM82.0042 42.6562C92.2546 42.6562 100.594 50.9975 100.594 61.25V63.9062H97.9417C97.9417 55.1007 90.8149 47.9688 82.0042 47.9688C73.2162 47.9688 66.0667 55.1183 66.0667 63.9062H63.4062V61.25C63.4062 50.9767 71.7252 42.6562 82.0042 42.6562ZM60.75 74V67.8906C60.75 67.1596 61.3466 66.5641 62.0823 66.5625H66.0625V75.3281H62.0823C61.3477 75.3281 60.75 74.7325 60.75 74ZM67.9655 80.238C68.6933 81.5828 69.6199 82.83 70.7322 83.9412C71.6681 84.8777 72.7114 85.687 73.8403 86.3609L72.9848 89.7087L64.9165 90.7556C62.7723 89.9059 61.2377 88.0143 60.8237 85.7861C64.035 85.2849 66.7177 83.135 67.9655 80.238ZM64.7759 93.4518L64.9222 93.4332H64.9232C64.9243 93.4326 64.9253 93.4326 64.9263 93.4326L73.044 92.3795C74.1194 96.3758 77.7438 99.2344 82.0171 99.2344C86.2905 99.2344 89.9143 96.3758 90.9892 92.379C91.3939 92.4319 88.857 92.1024 99.2568 93.4524C105.079 94.2088 108.562 98.5724 108.562 103.754V105.344H55.4375V103.757C55.4375 98.672 58.9186 94.2124 64.7759 93.4518Z" fill="white"/>
<path d="M78.4535 81.0043C79.5684 81.5299 80.7632 81.7965 82.0036 81.7965C83.2156 81.7965 84.3865 81.5408 85.4853 81.0365C86.152 80.7309 86.444 79.9423 86.138 79.2757C85.8324 78.609 85.0438 78.3164 84.3772 78.6225C83.6285 78.966 82.8301 79.1403 82.0042 79.1403C81.158 79.1403 80.344 78.9592 79.586 78.6018C78.9225 78.2889 78.1313 78.5732 77.8185 79.2368C77.5057 79.9003 77.79 80.692 78.4535 81.0043Z" fill="white"/>
<path d="M93.9573 101.891H99.2698C100.003 101.891 100.598 101.296 100.598 100.562C100.598 99.8289 100.003 99.2344 99.2698 99.2344H93.9573C93.2237 99.2344 92.6292 99.8289 92.6292 100.562C92.6292 101.296 93.2237 101.891 93.9573 101.891Z" fill="white"/>
<path d="M104.578 99.2344C105.311 99.2344 105.906 99.8294 105.906 100.562C105.906 101.296 105.311 101.891 104.578 101.891C103.845 101.891 103.25 101.296 103.25 100.562C103.25 99.8294 103.845 99.2344 104.578 99.2344Z" fill="white"/>
<defs>
<filter id="filter0_d" x="0" y="0" width="164" height="164" filterUnits="userSpaceOnUse" color-interpolation-filters="sRGB">
<feFlood flood-opacity="0" result="BackgroundImageFix"/>
<feColorMatrix in="SourceAlpha" type="matrix" values="0 0 0 0 0 0 0 0 0 0 0 0 0 0 0 0 0 0 127 0"/>
<feOffset dy="4"/>
<feGaussianBlur stdDeviation="2"/>
<feColorMatrix type="matrix" values="0 0 0 0 0 0 0 0 0 0 0 0 0 0 0 0 0 0 0.25 0"/>
<feBlend mode="normal" in2="BackgroundImageFix" result="effect1_dropShadow"/>
<feBlend mode="normal" in="SourceGraphic" in2="effect1_dropShadow" result="shape"/>
</filter>
</defs>
</svg>
