<svg width="45" height="45" viewBox="0 0 45 45" fill="none" xmlns="http://www.w3.org/2000/svg">
<circle cx="22.5" cy="22.5" r="22.5" fill="#3E5581"/>
<g clip-path="url(#clip0)">
<path d="M21.6343 12.618H23.8172C23.9678 12.618 24.09 12.4958 24.09 12.3451C24.09 12.1944 23.9678 12.0723 23.8172 12.0723H21.6343C21.4836 12.0723 21.3615 12.1944 21.3615 12.3451C21.3615 12.4958 21.4836 12.618 21.6343 12.618Z" fill="white"/>
<path d="M30.9756 13.6773H33.7363C33.887 13.6773 34.0091 13.5551 34.0091 13.4044C34.0091 13.2538 33.887 13.1316 33.7363 13.1316H30.9756C30.8249 13.1316 30.7028 13.2538 30.7028 13.4044C30.7028 13.5551 30.8249 13.6773 30.9756 13.6773Z" fill="white"/>
<path d="M12.614 30.3054H10.0459C9.89525 30.3054 9.77307 30.4276 9.77307 30.5783C9.77307 30.729 9.89525 30.8511 10.0459 30.8511H12.614C12.7647 30.8511 12.8868 30.729 12.8868 30.5783C12.8868 30.4276 12.7647 30.3054 12.614 30.3054Z" fill="white"/>
<path d="M33.2869 31.7179H31.4572C31.3065 31.7179 31.1843 31.8401 31.1843 31.9908C31.1843 32.1414 31.3065 32.2636 31.4572 32.2636H33.2869C33.4376 32.2636 33.5598 32.1414 33.5598 31.9908C33.5598 31.8401 33.4376 31.7179 33.2869 31.7179Z" fill="white"/>
<path d="M23.9616 14.0143C23.9616 14.165 24.0838 14.2872 24.2345 14.2872H26.2247C26.3754 14.2872 26.4976 14.165 26.4976 14.0143C26.4976 13.8636 26.3754 13.7415 26.2247 13.7415H24.2345C24.0838 13.7415 23.9616 13.8636 23.9616 14.0143Z" fill="white"/>
<path d="M14.3987 19.5238L14.4311 19.524C14.9439 19.524 15.3904 19.3276 15.7583 18.9404C17.1191 17.5077 16.9468 13.8377 16.9387 13.6822C16.9348 13.6043 16.8976 13.5319 16.8367 13.4831C16.783 13.4402 15.5037 12.4318 13.8718 12.4318C13.4735 12.4318 13.0839 12.4931 12.7138 12.6139C10.5843 13.3092 9.65328 16.4899 9.61469 16.625C9.59062 16.7091 9.60846 16.7998 9.66265 16.8687C9.7465 16.9753 11.7484 19.481 14.3987 19.5238ZM12.8831 13.1326C13.1985 13.0297 13.5311 12.9774 13.8717 12.9774C15.0698 12.9774 16.0871 13.6196 16.3982 13.8377C16.4004 13.9207 16.4026 14.0415 16.4025 14.1908H14.861C14.7104 14.1908 14.5882 14.313 14.5882 14.4637C14.5882 14.6144 14.7104 14.7365 14.861 14.7365H16.3925C16.3512 15.8963 16.1551 17.7305 15.3623 18.5647C15.0979 18.843 14.7932 18.9783 14.431 18.9783L14.4075 18.9781C12.314 18.9443 10.5888 17.1078 10.1821 16.6389C10.3785 16.0425 11.2543 13.6645 12.8831 13.1326Z" fill="white"/>
<path d="M21.7187 21.5816C23.2079 21.9376 24.7478 22.3058 25.2711 22.682C25.3184 22.7159 25.3742 22.7333 25.4304 22.7333C25.4725 22.7333 25.5148 22.7235 25.5537 22.7037C25.6446 22.6576 25.7022 22.5647 25.7032 22.4629C25.7038 22.3962 25.7114 20.8098 25.1462 19.0224C24.3873 16.6218 22.9483 15.0314 20.985 14.4231C20.2843 14.206 18.2036 13.8149 18.1154 13.7984C17.974 13.772 17.8363 13.8597 17.8007 13.9992C17.6851 14.4533 16.6818 18.4709 17.0639 19.7023C17.3036 20.4743 18.9824 20.9273 21.7187 21.5816ZM17.9192 15.9564H19.3551C19.5058 15.9564 19.628 15.8343 19.628 15.6836C19.628 15.5329 19.5058 15.4107 19.3551 15.4107H18.0327C18.1165 15.0205 18.1985 14.6662 18.2676 14.3829C18.853 14.4957 20.292 14.7796 20.8236 14.9444C22.6302 15.5041 23.9081 16.927 24.6218 19.1734C24.7818 19.6772 24.8941 20.1684 24.9728 20.611H23.5283C23.3776 20.611 23.2554 20.7332 23.2554 20.8839C23.2554 21.0346 23.3776 21.1567 23.5283 21.1567H25.0049C25.0227 21.1567 25.04 21.1548 25.0568 21.1515C25.1012 21.4849 25.1262 21.7727 25.1401 21.9925C24.3881 21.6588 23.146 21.3618 21.8456 21.0509C20.8194 20.8056 19.7583 20.5518 18.9409 20.2789C17.8065 19.8999 17.6148 19.6363 17.5851 19.5405C17.3994 18.9421 17.643 17.3341 17.9192 15.9564Z" fill="white"/>
<path d="M22.8871 22.3262C20.249 21.4039 16.4757 20.1724 14.398 20.2125C14.2671 20.2149 14.1565 20.31 14.1342 20.4389C14.1078 20.5922 13.5164 24.212 16.0605 25.9368C16.8476 26.4705 17.8069 26.7191 19.0795 26.7191C19.8084 26.7191 20.5793 26.6394 21.3249 26.5624C22.0854 26.4838 22.8717 26.4026 23.6289 26.4026C24.2214 26.4026 24.7379 26.452 25.2082 26.5536C25.2874 26.5708 25.37 26.5518 25.4339 26.5019C25.4977 26.452 25.536 26.3763 25.5385 26.2953C25.5395 26.2645 25.5582 25.5304 25.2459 24.6766C24.8273 23.5321 24.0116 22.7193 22.8871 22.3262ZM23.629 25.8569C22.8437 25.8569 22.0431 25.9396 21.2689 26.0196C20.5033 26.0987 19.7803 26.1734 19.0795 26.1734C17.9213 26.1734 17.0593 25.9547 16.3667 25.4852C15.1683 24.6727 14.7642 23.3306 14.649 22.2482H16.2735C16.4242 22.2482 16.5464 22.126 16.5464 21.9753C16.5464 21.8247 16.4242 21.7025 16.2735 21.7025H14.6123C14.6004 21.2999 14.6228 20.966 14.6436 20.7594C16.929 20.8215 21.1113 22.2836 22.707 22.8414C23.4539 23.1025 23.9567 23.5385 24.2957 24.0137H22.3726C22.2219 24.0137 22.0997 24.1359 22.0997 24.2866C22.0997 24.4373 22.2219 24.5595 22.3726 24.5595H24.5554C24.5741 24.5595 24.5923 24.5575 24.6099 24.5539C24.8651 25.0985 24.9515 25.6293 24.9799 25.9558C24.5667 25.8893 24.1213 25.8569 23.629 25.8569Z" fill="white"/>
<path d="M25.0822 15.4868C25.0557 15.6023 25.1068 15.7217 25.2086 15.7822C26.5087 16.5561 26.5634 20.765 26.4747 22.3214C26.4666 22.4633 26.5688 22.5876 26.7095 22.6072C26.7627 22.6146 28.0313 22.7887 29.6702 22.7887C30.8412 22.7887 31.8965 22.6991 32.8065 22.5225C35.6395 21.9729 36.9957 20.0639 37.052 19.9829C37.1068 19.9042 37.1162 19.8026 37.0769 19.7152C35.3658 15.9078 30.5531 15.4866 27.6762 15.2348C27.4635 15.2163 27.2083 15.2068 26.9177 15.2068C26.1373 15.2068 25.3576 15.2731 25.3248 15.2759C25.2067 15.2861 25.1087 15.3713 25.0822 15.4868ZM26.9176 15.7526C27.1925 15.7526 27.4316 15.7613 27.63 15.7786C30.2543 16.0083 34.5615 16.3855 36.3316 19.4554H32.6018C32.4512 19.4554 32.329 19.5776 32.329 19.7283C32.329 19.879 32.4512 20.0012 32.6018 20.0012H36.3278C35.8244 20.5466 34.628 21.6133 32.7024 21.9868C31.8265 22.1568 30.8063 22.243 29.6701 22.243C28.4842 22.243 27.477 22.147 27.0307 22.0967C27.0482 21.6113 27.0695 20.5024 26.9675 19.305C26.8886 18.3794 26.7528 17.6052 26.5616 16.9837H28.0223C28.173 16.9837 28.2951 16.8615 28.2951 16.7108C28.2951 16.5602 28.173 16.438 28.0223 16.438H26.3623C26.2514 16.1816 26.1278 15.9609 25.9904 15.779C26.2616 15.7648 26.5919 15.7526 26.9176 15.7526Z" fill="white"/>
<path d="M37.0262 24.6945C36.59 23.9231 35.8055 22.7639 35.4274 22.6019C35.3571 22.5718 35.2775 22.5725 35.2078 22.604C35.1771 22.6179 32.0918 23.9898 28.4078 23.99C27.6959 23.99 26.9988 23.9384 26.3359 23.8367C26.2504 23.8234 26.1637 23.8517 26.1022 23.9127C26.0408 23.9737 26.012 24.0603 26.0245 24.1459C26.0322 24.1984 26.2223 25.4454 27.0523 26.7915C27.8224 28.0401 29.309 29.6056 32.0184 29.9726C32.0305 29.9742 32.0427 29.975 32.0547 29.975C32.1123 29.975 32.1689 29.9567 32.2159 29.9226C32.2326 29.9106 33.9379 28.6946 36.6428 28.7325L36.6788 28.7327C36.6789 28.7327 36.6789 28.7327 36.679 28.7327C37.6351 28.7327 37.8962 28.1568 37.9667 27.8135C38.1479 26.9305 37.5553 25.6299 37.0262 24.6945ZM37.4219 27.7475C37.3685 27.9521 37.2358 28.1869 36.679 28.1869H36.6789L36.6507 28.1868C34.0913 28.15 32.3989 29.1469 31.9884 29.4171C31.4831 29.3419 31.0083 29.2203 30.5639 29.0535H30.8473C30.998 29.0535 31.1202 28.9313 31.1202 28.7806C31.1202 28.6299 30.998 28.5078 30.8473 28.5078H29.9485C29.8434 28.5078 29.7534 28.5678 29.7078 28.6547C29.1504 28.339 28.6532 27.9364 28.2177 27.4484H29.4991C29.6497 27.4484 29.7719 27.3263 29.7719 27.1756C29.7719 27.0249 29.6497 26.9027 29.4991 26.9027H27.7818C27.694 26.78 27.6091 26.6535 27.5276 26.5223C27.0094 25.6873 26.7548 24.879 26.6422 24.4297C27.2138 24.5 27.8059 24.5356 28.4078 24.5356C31.7922 24.5354 34.6166 23.4445 35.2859 23.1644C35.5117 23.3781 36.0388 24.0546 36.5585 24.9767H34.7636C34.6129 24.9767 34.4907 25.0989 34.4907 25.2495C34.4907 25.4002 34.6129 25.5224 34.7636 25.5224H36.8483C37.3324 26.4969 37.5406 27.293 37.4219 27.7475Z" fill="white"/>
<path d="M27.3398 28.2334C26.2181 27.4785 24.9299 26.7799 23.1143 26.7799C22.1525 26.7799 21.1139 26.9849 20.0274 27.3892C16.5118 28.6973 14.3365 29.8618 14.315 29.8735C14.2255 29.9217 14.1702 30.0155 14.1715 30.1171C14.1728 30.2187 14.2304 30.3112 14.321 30.3571C14.3717 30.3828 19.453 32.9278 24.6232 32.9279C24.6233 32.9279 24.6233 32.9279 24.6234 32.9279C25.1341 32.9279 25.6365 32.9031 26.1165 32.854C28.1258 32.6487 29.2067 32.1329 29.4209 31.2771C29.763 29.9104 27.5888 28.4011 27.3398 28.2334ZM26.061 32.3111C25.5993 32.3582 25.1156 32.3821 24.6233 32.3821H24.6232C21.6311 32.3821 18.6634 31.5047 16.7362 30.787H19.2268C19.3774 30.787 19.4996 30.6648 19.4996 30.5141C19.4996 30.3634 19.3774 30.2413 19.2268 30.2413H15.8241C15.7389 30.2413 15.6638 30.2811 15.6137 30.3423C15.4007 30.2526 15.2164 30.1717 15.0645 30.1034C15.8872 29.6946 17.7047 28.8357 20.2177 27.9006C21.2431 27.5191 22.2177 27.3256 23.1143 27.3256C24.7836 27.3256 25.9852 27.9794 27.0351 28.686C27.6657 29.1104 28.4858 29.8397 28.7905 30.498H27.3803C27.2297 30.498 27.1075 30.6202 27.1075 30.7709C27.1075 30.9215 27.2297 31.0437 27.3803 31.0437H28.9076C28.9045 31.0779 28.8997 31.1116 28.8915 31.1445C28.7887 31.5553 28.2142 32.091 26.061 32.3111Z" fill="white"/>
<path d="M10.3022 28.5452C10.9178 28.9526 11.7409 29.1681 12.6824 29.1681C12.6826 29.1681 12.6826 29.1681 12.6827 29.1681C13.5687 29.1681 14.5206 28.974 15.2942 28.6355C16.125 28.272 16.5344 27.8814 16.5457 27.4413C16.5588 26.9308 16.026 26.6495 15.9652 26.6191C15.9623 26.6176 15.9595 26.6163 15.9566 26.6149C15.9247 26.6004 12.7599 25.1162 12.3701 21.6074C12.3601 21.5175 12.3061 21.4384 12.2261 21.3962C12.1461 21.3541 12.0504 21.3543 11.9705 21.3968C11.9374 21.4145 11.1503 21.8389 10.3925 22.6497C9.37528 23.738 8.90391 25.0048 9.02936 26.3131C9.12373 27.2977 9.55202 28.0487 10.3022 28.5452ZM11.8883 22.0906C12.1998 23.8578 13.1578 25.0935 13.937 25.8365C14.8168 26.6753 15.6422 27.0706 15.7243 27.1088C15.8024 27.149 16.0037 27.2931 16.0002 27.4273C15.9964 27.5758 15.7515 27.8398 15.0755 28.1356C14.3683 28.445 13.4962 28.6224 12.6827 28.6224C12.6827 28.6224 12.6825 28.6224 12.6824 28.6224C11.6055 28.6223 9.76947 28.3154 9.5725 26.261C9.36154 24.0602 11.1264 22.6091 11.8883 22.0906Z" fill="white"/>
<path d="M11.7493 20.0543C11.8134 19.7069 11.7087 19.4124 11.4441 19.2008C11.3648 19.1387 9.45523 17.6602 8.01712 17.7028C7.35071 17.723 6.98027 18.5128 7.00075 19.8698C7.0168 20.9298 7.35565 23.1187 8.30102 23.1188C8.36066 23.1188 8.4205 23.1093 8.47886 23.0907C9.29075 22.8309 11.5321 21.2313 11.7493 20.0543ZM8.31264 22.5709C8.30808 22.5724 8.30429 22.5731 8.30115 22.5731C8.25781 22.5731 8.05314 22.4395 7.84371 21.786C7.66748 21.2358 7.55634 20.5164 7.54646 19.8616C7.53227 18.9208 7.73258 18.2574 8.03375 18.2483C8.04967 18.2478 8.06546 18.2476 8.08158 18.2476C9.324 18.2476 11.0902 19.6168 11.1057 19.6288C11.1778 19.6864 11.2469 19.7704 11.2127 19.9553C11.0512 20.8297 9.09904 22.3193 8.31264 22.5709Z" fill="white"/>
<path d="M20.8532 19.7871C21.7352 19.7871 22.4529 19.0695 22.4529 18.1874C22.4529 17.3053 21.7353 16.5876 20.8532 16.5876C19.9711 16.5876 19.2535 17.3052 19.2535 18.1874C19.2535 19.0694 19.9711 19.7871 20.8532 19.7871ZM20.8532 17.1334C21.4343 17.1334 21.9072 17.6062 21.9072 18.1874C21.9072 18.7686 21.4344 19.2414 20.8532 19.2414C20.272 19.2414 19.7992 18.7686 19.7992 18.1874C19.7993 17.6062 20.272 17.1334 20.8532 17.1334Z" fill="white"/>
<path d="M18.3708 22.0663C17.5595 22.0663 16.8995 22.7263 16.8995 23.5376C16.8995 24.3488 17.5595 25.0089 18.3708 25.0089C19.182 25.0089 19.8421 24.3488 19.8421 23.5376C19.8421 22.7263 19.182 22.0663 18.3708 22.0663ZM18.3708 24.4632C17.8604 24.4632 17.4452 24.048 17.4452 23.5376C17.4452 23.0272 17.8604 22.612 18.3708 22.612C18.8812 22.612 19.2964 23.0272 19.2964 23.5376C19.2964 24.0479 18.8811 24.4632 18.3708 24.4632Z" fill="white"/>
<path d="M13.6626 17.2191C14.3795 17.2191 14.9627 16.6358 14.9627 15.919C14.9627 15.2021 14.3795 14.6189 13.6626 14.6189C12.9458 14.6189 12.3625 15.2021 12.3625 15.919C12.3625 16.6358 12.9458 17.2191 13.6626 17.2191ZM13.6626 15.1646C14.0786 15.1646 14.417 15.503 14.417 15.919C14.417 16.3349 14.0786 16.6733 13.6626 16.6733C13.2467 16.6733 12.9083 16.3349 12.9083 15.919C12.9083 15.503 13.2467 15.1646 13.6626 15.1646Z" fill="white"/>
<path d="M11.651 27.0633C12.1554 27.0633 12.5659 26.6528 12.5659 26.1484C12.5659 25.644 12.1554 25.2335 11.651 25.2335C11.1466 25.2335 10.7361 25.644 10.7361 26.1484C10.7361 26.6528 11.1465 27.0633 11.651 27.0633ZM11.651 25.7792C11.8545 25.7792 12.0202 25.9449 12.0202 26.1484C12.0202 26.3519 11.8545 26.5176 11.651 26.5176C11.4475 26.5176 11.2819 26.3519 11.2819 26.1484C11.2819 25.9449 11.4474 25.7792 11.651 25.7792Z" fill="white"/>
<path d="M8.99733 19.327C8.4929 19.327 8.08246 19.7375 8.08246 20.2419C8.08246 20.7463 8.4929 21.1568 8.99733 21.1568C9.50176 21.1568 9.9122 20.7463 9.9122 20.2419C9.9122 19.7375 9.50176 19.327 8.99733 19.327ZM8.99733 20.6111C8.79381 20.6111 8.62817 20.4454 8.62817 20.2419C8.62817 20.0384 8.79381 19.8727 8.99733 19.8727C9.20085 19.8727 9.36649 20.0384 9.36649 20.2419C9.36649 20.4454 9.20085 20.6111 8.99733 20.6111Z" fill="white"/>
<path d="M23.8065 28.5719C23.066 28.5719 22.4636 29.1743 22.4636 29.9148C22.4636 30.6553 23.066 31.2577 23.8065 31.2577C24.547 31.2577 25.1494 30.6553 25.1494 29.9148C25.1494 29.1743 24.5469 28.5719 23.8065 28.5719ZM23.8065 30.7119C23.3669 30.7119 23.0093 30.3543 23.0093 29.9147C23.0093 29.4752 23.3669 29.1175 23.8065 29.1175C24.2461 29.1175 24.6037 29.4752 24.6037 29.9147C24.6037 30.3543 24.2461 30.7119 23.8065 30.7119Z" fill="white"/>
<path d="M31.6391 24.934C30.9694 24.934 30.4246 25.4788 30.4246 26.1485C30.4246 26.8181 30.9694 27.363 31.6391 27.363C32.3087 27.363 32.8536 26.8181 32.8536 26.1485C32.8536 25.4788 32.3087 24.934 31.6391 24.934ZM31.6391 26.8172C31.2703 26.8172 30.9703 26.5172 30.9703 26.1484C30.9703 25.7796 31.2703 25.4796 31.6391 25.4796C32.0078 25.4796 32.3078 25.7796 32.3078 26.1484C32.3078 26.5172 32.0078 26.8172 31.6391 26.8172Z" fill="white"/>
<path d="M29.8413 19.9583C30.511 19.9583 31.0558 19.4135 31.0558 18.7438C31.0558 18.0741 30.511 17.5293 29.8413 17.5293C29.1717 17.5293 28.6268 18.0741 28.6268 18.7438C28.6269 19.4135 29.1717 19.9583 29.8413 19.9583ZM29.8413 18.0751C30.2101 18.0751 30.5101 18.3751 30.5101 18.7439C30.5101 19.1126 30.21 19.4126 29.8413 19.4126C29.4726 19.4126 29.1725 19.1126 29.1725 18.7439C29.1726 18.3751 29.4726 18.0751 29.8413 18.0751Z" fill="white"/>
<path d="M8.05569 14.4156H9.27552C9.4262 14.4156 9.54838 14.2934 9.54838 14.1427C9.54838 13.992 9.4262 13.8699 9.27552 13.8699H8.05569C7.90501 13.8699 7.78284 13.992 7.78284 14.1427C7.78284 14.2934 7.90501 14.4156 8.05569 14.4156Z" fill="white"/>
</g>
<defs>
<clipPath id="clip0">
<rect width="31" height="31" fill="white" transform="translate(7 7)"/>
</clipPath>
</defs>
</svg>
