<svg width="34" height="30" viewBox="0 0 34 30" fill="none" xmlns="http://www.w3.org/2000/svg">
<path d="M16.7345 14.672C20.4557 14.672 23.4726 11.3876 23.4726 7.33603C23.4726 3.2844 22.4821 0 16.7345 0C10.9869 0 9.99625 3.2844 9.99625 7.33603C9.99625 11.3876 13.0132 14.672 16.7345 14.672Z" fill="#FCD645"/>
<path d="M4.00758 25.8723C4.00643 25.6267 4.00528 25.8031 4.00758 25.8723V25.8723Z" fill="#FCD645"/>
<path d="M29.4609 26.0662C29.4645 25.9986 29.4621 25.597 29.4609 26.0662V26.0662Z" fill="#FCD645"/>
<path d="M29.4465 25.5764C29.3217 18.5185 28.2933 16.5074 20.424 15.2344C20.424 15.2344 19.3163 16.4996 16.7344 16.4996C14.1525 16.4996 13.0446 15.2344 13.0446 15.2344C5.26114 16.4935 4.17025 18.4748 4.02681 25.3471C4.01505 25.9083 4.0096 25.9378 4.00749 25.8726C4.00797 25.9947 4.00854 26.2205 4.00854 26.6142C4.00854 26.6142 5.88204 29.9995 16.7344 29.9995C27.5866 29.9995 29.4603 26.6142 29.4603 26.6142C29.4603 26.3612 29.4604 26.1853 29.4607 26.0657C29.4586 26.106 29.4544 26.0279 29.4465 25.5764Z" fill="#FCD645"/>
</svg>
