<svg width="30" height="30" viewBox="0 0 30 30" fill="none" xmlns="http://www.w3.org/2000/svg">
<g clip-path="url(#clip0)">
<path d="M29.4171 23.8548L26.0913 21.6374L23.1348 19.6668C22.5642 19.2871 21.7974 19.4116 21.3762 19.9523L19.5467 22.3042C19.1537 22.8145 18.4468 22.9612 17.8832 22.6492C16.6419 21.9586 15.174 21.3085 11.935 18.0654C8.69614 14.8223 8.04183 13.3586 7.35131 12.1172C7.0393 11.5537 7.18596 10.8467 7.69631 10.4538L10.0482 8.62437C10.5888 8.20321 10.7133 7.4364 10.3337 6.86576L8.42356 4.00027L6.14564 0.583354C5.75793 0.00175901 4.98181 -0.172848 4.3824 0.18662L1.75532 1.76266C1.04535 2.18095 0.523461 2.85641 0.297761 3.649C-0.420649 6.26829 -0.565491 12.0463 8.69456 21.3064C17.9546 30.5664 23.7321 30.4211 26.3514 29.7026C27.144 29.477 27.8195 28.9551 28.2377 28.2451L29.8138 25.6181C30.1733 25.0186 29.9987 24.2425 29.4171 23.8548Z" fill="#FCD645"/>
</g>
<defs>
<clipPath id="clip0">
<rect width="30" height="30" fill="white"/>
</clipPath>
</defs>
</svg>
