<svg width="96" height="96" viewBox="0 0 96 96" fill="none" xmlns="http://www.w3.org/2000/svg">
<path d="M48 0C58.7817 -1.28571e-07 69.2495 3.6299 77.7165 10.3048C86.1836 16.9797 92.1568 26.3108 94.6738 36.7946C97.1907 47.2784 96.1047 58.3043 91.5909 68.0957C87.077 77.887 79.3981 85.8735 69.7915 90.7683C60.185 95.6631 49.2102 97.1811 38.6357 95.0777C28.0611 92.9743 18.5027 87.372 11.5005 79.1735C4.49836 70.975 0.460297 60.6579 0.0370102 49.8845C-0.386284 39.1111 2.82985 28.5089 9.16718 19.7863L48 48V0Z" fill="url(#paint0_linear)"/>
<circle cx="48" cy="48" r="41" fill="white"/>
<path d="M32.8892 58.312C36.9192 58.312 39.1552 56.336 39.1552 53.736C39.1552 51.5 37.8032 50.278 36.0612 49.42V49.316C37.3612 48.484 38.4272 47.236 38.4272 45.702C38.4272 42.972 36.3212 41.178 33.0192 41.178C29.7432 41.178 27.4032 42.92 27.4032 45.728C27.4032 47.47 28.4432 48.666 29.8212 49.628V49.732C28.1052 50.564 26.7012 51.76 26.7012 53.788C26.7012 56.466 29.0672 58.312 32.8892 58.312ZM34.0332 48.38C32.1092 47.73 30.7572 47.08 30.7572 45.728C30.7572 44.454 31.7192 43.83 32.9412 43.83C34.4492 43.83 35.2812 44.688 35.2812 45.962C35.2812 46.82 34.8652 47.626 34.0332 48.38ZM32.9932 55.66C31.3032 55.66 30.0032 54.802 30.0032 53.346C30.0032 52.28 30.6792 51.396 31.6152 50.72C33.9812 51.604 35.5932 52.098 35.5932 53.606C35.5932 54.984 34.5272 55.66 32.9932 55.66ZM48.0631 58.312C51.4691 58.312 54.5371 56.206 54.5371 52.54C54.5371 49.03 51.9111 47.418 48.8691 47.418C48.0371 47.418 47.4391 47.522 46.6851 47.808L46.9711 44.714H53.7831V41.49H43.6691L43.2271 49.836L44.9171 50.928C46.0351 50.304 46.6071 50.096 47.6991 50.096C49.4411 50.096 50.7151 50.98 50.7151 52.644C50.7151 54.334 49.3891 55.218 47.5171 55.218C45.9571 55.218 44.7091 54.49 43.6171 53.58L41.9011 55.998C43.2531 57.298 45.2031 58.312 48.0631 58.312ZM60.7929 49.888C63.0029 49.888 64.6409 48.172 64.6409 45.494C64.6409 42.79 63.0029 41.152 60.7929 41.152C58.5829 41.152 56.9449 42.79 56.9449 45.494C56.9449 48.172 58.5829 49.888 60.7929 49.888ZM60.7929 47.834C60.1429 47.834 59.5449 47.262 59.5449 45.494C59.5449 43.726 60.1429 43.206 60.7929 43.206C61.4429 43.206 62.0409 43.726 62.0409 45.494C62.0409 47.262 61.4429 47.834 60.7929 47.834ZM58.7129 57.272L62.9249 52.098L61.5989 50.876L56.7629 55.374L58.7129 57.272ZM66.6429 48.198L71.4789 43.674L69.5289 41.776L65.3169 46.95L66.6429 48.198ZM67.3969 58.312C69.6069 58.312 71.2449 56.596 71.2449 53.918C71.2449 51.214 69.6069 49.576 67.3969 49.576C65.1869 49.576 63.5489 51.214 63.5489 53.918C63.5489 56.596 65.1869 58.312 67.3969 58.312ZM67.3969 56.258C66.7469 56.258 66.1489 55.686 66.1489 53.918C66.1489 52.15 66.7469 51.63 67.3969 51.63C68.0469 51.63 68.6449 52.15 68.6449 53.918C68.6449 55.686 68.0469 56.258 67.3969 56.258Z" fill="#1A3157"/>
<defs>
<linearGradient id="paint0_linear" x1="48" y1="0" x2="48" y2="96" gradientUnits="userSpaceOnUse">
<stop stop-color="#FFE344"/>
<stop offset="1" stop-color="#FD602A"/>
</linearGradient>
</defs>
</svg>
