<svg width="160" height="160" viewBox="0 0 160 160" fill="none" xmlns="http://www.w3.org/2000/svg">
<g filter="url(#filter0_d)">
<circle cx="80" cy="75" r="65" fill="#E01A38"/>
</g>
<path d="M94.9574 37.2188H65.7074C64.0918 37.2206 62.5429 37.8632 61.4005 39.0056C60.2581 40.148 59.6155 41.6969 59.6136 43.3125V106.688C59.6155 108.303 60.2581 109.852 61.4005 110.994C62.5429 112.137 64.0918 112.779 65.7074 112.781H94.9574C96.573 112.779 98.1219 112.137 99.2643 110.994C100.407 109.852 101.049 108.303 101.051 106.688V43.3125C101.049 41.6969 100.407 40.148 99.2643 39.0056C98.1219 37.8632 96.573 37.2206 94.9574 37.2188ZM88.5958 39.6562L87.8646 43.3125H72.8004L72.0691 39.6562H88.5958ZM98.6136 106.688C98.6126 107.657 98.227 108.586 97.5416 109.272C96.8561 109.957 95.9268 110.343 94.9574 110.344H65.7074C64.738 110.343 63.8087 109.957 63.1232 109.272C62.4378 108.586 62.0522 107.657 62.0511 106.688V43.3125C62.0522 42.3431 62.4378 41.4138 63.1232 40.7283C63.8087 40.0429 64.738 39.6573 65.7074 39.6562H69.5832L70.606 44.7703C70.6613 45.0466 70.8105 45.2952 71.0284 45.4738C71.2463 45.6524 71.5194 45.75 71.8011 45.75H88.8636C89.1454 45.75 89.4185 45.6524 89.6364 45.4738C89.8542 45.2952 90.0035 45.0466 90.0588 44.7703L91.0816 39.6562H94.9574C95.9268 39.6573 96.8561 40.0429 97.5416 40.7283C98.227 41.4138 98.6126 42.3431 98.6136 43.3125V106.688Z" fill="white"/>
<path d="M84.0995 105.136H76.787C76.4638 105.136 76.1538 105.265 75.9252 105.493C75.6966 105.722 75.5682 106.032 75.5682 106.355C75.5682 106.678 75.6966 106.988 75.9252 107.217C76.1538 107.445 76.4638 107.574 76.787 107.574H84.0995C84.4227 107.574 84.7327 107.445 84.9613 107.217C85.1898 106.988 85.3182 106.678 85.3182 106.355C85.3182 106.032 85.1898 105.722 84.9613 105.493C84.7327 105.265 84.4227 105.136 84.0995 105.136Z" fill="white"/>
<defs>
<filter id="filter0_d" x="0" y="0" width="160" height="160" filterUnits="userSpaceOnUse" color-interpolation-filters="sRGB">
<feFlood flood-opacity="0" result="BackgroundImageFix"/>
<feColorMatrix in="SourceAlpha" type="matrix" values="0 0 0 0 0 0 0 0 0 0 0 0 0 0 0 0 0 0 127 0"/>
<feOffset dy="5"/>
<feGaussianBlur stdDeviation="7.5"/>
<feColorMatrix type="matrix" values="0 0 0 0 0.159383 0 0 0 0 0.341667 0 0 0 0 0.121007 0 0 0 1 0"/>
<feBlend mode="normal" in2="BackgroundImageFix" result="effect1_dropShadow"/>
<feBlend mode="normal" in="SourceGraphic" in2="effect1_dropShadow" result="shape"/>
</filter>
</defs>
</svg>
