<svg width="400" height="30" viewBox="0 0 400 30" fill="none" xmlns="http://www.w3.org/2000/svg">
<rect width="400" height="30" rx="15" fill="#F5F5F5"/>
<path d="M335.183 22H344.723V19.52H341.703C341.043 19.52 340.123 19.6 339.403 19.68C341.863 17.52 344.063 15.24 344.063 13.1C344.063 10.66 342.243 9.06 339.583 9.06C337.623 9.06 336.363 9.74 335.043 11.08L336.623 12.66C337.343 11.98 338.163 11.36 339.183 11.36C340.503 11.36 341.263 12.04 341.263 13.28C341.263 15.1 338.823 17.26 335.183 20.32V22ZM352.836 22H355.576V18.96H357.176V16.72H355.576V9.3H352.016L346.716 16.94V18.96H352.836V22ZM349.556 16.72L351.476 13.96C351.916 13.24 352.436 12.52 352.856 11.8H352.936C352.896 12.6 352.836 13.78 352.836 14.58V16.72H349.556ZM361.468 15.76C363.168 15.76 364.428 14.44 364.428 12.38C364.428 10.3 363.168 9.04 361.468 9.04C359.768 9.04 358.508 10.3 358.508 12.38C358.508 14.44 359.768 15.76 361.468 15.76ZM361.468 14.18C360.968 14.18 360.508 13.74 360.508 12.38C360.508 11.02 360.968 10.62 361.468 10.62C361.968 10.62 362.428 11.02 362.428 12.38C362.428 13.74 361.968 14.18 361.468 14.18ZM359.868 21.44L363.108 17.46L362.088 16.52L358.368 19.98L359.868 21.44ZM365.968 14.46L369.688 10.98L368.188 9.52L364.948 13.5L365.968 14.46ZM366.548 22.24C368.248 22.24 369.508 20.92 369.508 18.86C369.508 16.78 368.248 15.52 366.548 15.52C364.848 15.52 363.588 16.78 363.588 18.86C363.588 20.92 364.848 22.24 366.548 22.24ZM366.548 20.66C366.048 20.66 365.588 20.22 365.588 18.86C365.588 17.5 366.048 17.1 366.548 17.1C367.048 17.1 367.508 17.5 367.508 18.86C367.508 20.22 367.048 20.66 366.548 20.66Z" fill="#919191"/>
<rect width="96" height="30" rx="15" fill="#50C7E1"/>
<mask id="mask0" mask-type="alpha" maskUnits="userSpaceOnUse" x="0" y="0" width="96" height="30">
<rect width="96" height="30" rx="15" fill="#50C7E1"/>
</mask>
<g mask="url(#mask0)">
<path d="M47.5 -15.5L-16 48" stroke="#21A1BD" stroke-width="15"/>
<path d="M89.5 -15.5L26 48" stroke="#21A1BD" stroke-width="15"/>
<path d="M131.5 -15.5L68 48" stroke="#21A1BD" stroke-width="15"/>
</g>
</svg>
