<svg width="25" height="25" viewBox="0 0 25 25" fill="none" xmlns="http://www.w3.org/2000/svg">
<path d="M17.299 14.835C20.3 10.5974 19.2963 4.72946 15.0586 1.72919C10.821 -1.27107 4.95309 -0.268117 1.95282 3.97025C-1.04744 8.2079 -0.0444841 14.0751 4.19388 17.0753C7.21852 19.2168 11.2174 19.3816 14.4077 17.4976L21.3395 24.3878C22.0879 25.1757 23.3332 25.2072 24.1211 24.4588C24.909 23.7111 24.9405 22.4658 24.1928 21.6779C24.1691 21.6528 24.1462 21.6299 24.1211 21.6062L17.299 14.835ZM9.62016 15.4774C6.27148 15.4781 3.55655 12.7653 3.5544 9.41661C3.55368 6.06792 6.26646 3.35299 9.61586 3.35156C12.9602 3.35012 15.6737 6.0586 15.6802 9.40298C15.6859 12.7524 12.9746 15.4716 9.62446 15.4774C9.62303 15.4774 9.62231 15.4774 9.62016 15.4774Z" fill="white"/>
</svg>
