<svg width="31" height="21" viewBox="0 0 31 21" fill="none" xmlns="http://www.w3.org/2000/svg">
<g clip-path="url(#clip0)">
<path d="M25.3449 15.3541C24.5898 15.3541 23.866 15.6491 23.3244 16.1821C22.7828 16.7203 22.4808 17.4241 22.4808 18.1745C22.4808 18.9248 22.7776 19.6286 23.3244 20.1668C23.8712 20.6999 24.5846 20.9948 25.3449 20.9948C26.8967 20.9948 28.1621 19.727 28.1621 18.1745C28.1569 16.622 26.8967 15.3541 25.3449 15.3541ZM25.3449 19.7477C24.4752 19.7477 23.741 19.0335 23.741 18.1796C23.741 17.3258 24.4752 16.6116 25.3449 16.6116C26.2041 16.6116 26.8967 17.3154 26.8967 18.1796C26.8967 19.0439 26.2041 19.7477 25.3449 19.7477ZM26.0739 5.95121C25.9594 5.84253 25.8083 5.78561 25.6521 5.78561H22.4131C22.0642 5.78561 21.783 6.07023 21.783 6.41178V11.5557C21.783 11.9024 22.0694 12.1819 22.4131 12.1819H27.5528C27.9017 12.1819 28.1829 11.8972 28.1829 11.5557V8.11434C28.1829 7.93839 28.1048 7.76762 27.9746 7.6486L26.0739 5.95121ZM26.9227 10.9347H23.0484V7.03795H25.4074L26.9227 8.39379V10.9347ZM9.93079 15.3541C9.17571 15.3541 8.45187 15.6491 7.9103 16.1821C7.36872 16.7203 7.06669 17.4241 7.06669 18.1745C7.06669 18.9248 7.36351 19.6286 7.9103 20.1668C8.45708 20.6999 9.1705 20.9948 9.93079 20.9948C11.4826 20.9948 12.748 19.727 12.748 18.1745C12.7428 16.622 11.4826 15.3541 9.93079 15.3541ZM9.93079 19.7477C9.06115 19.7477 8.32689 19.0335 8.32689 18.1796C8.32689 17.3258 9.06115 16.6116 9.93079 16.6116C10.79 16.6116 11.4826 17.3154 11.4826 18.1796C11.4826 19.0439 10.79 19.7477 9.93079 19.7477ZM5.71796 16.1252H4.45254V14.4588C4.45254 14.1121 4.16613 13.8327 3.82244 13.8327C3.47875 13.8327 3.19234 14.1173 3.19234 14.4588V16.7565C3.19234 17.1033 3.47875 17.3827 3.82244 17.3827H5.72316C6.07206 17.3827 6.35327 17.0981 6.35327 16.7565C6.35327 16.415 6.06686 16.1252 5.71796 16.1252ZM8.92054 12.7097C8.92054 12.363 8.63413 12.0835 8.29044 12.0835H0.635474C0.286574 12.0835 0.00537109 12.3682 0.00537109 12.7097C0.00537109 13.0513 0.291781 13.3359 0.635474 13.3359H8.29044C8.63413 13.3359 8.92054 13.0616 8.92054 12.7097ZM1.9113 10.4431L9.56627 10.4845C9.91517 10.4845 10.1964 10.2102 10.2016 9.86348C10.2068 9.51158 9.92558 9.23213 9.57668 9.23213L1.92172 9.19073C1.91651 9.19073 1.91651 9.19073 1.91651 9.19073C1.56761 9.19073 1.28641 9.46501 1.28641 9.81173C1.2812 10.1636 1.56761 10.4431 1.9113 10.4431ZM3.20275 7.59685H10.8577C11.2066 7.59685 11.4878 7.31222 11.4878 6.97067C11.4878 6.62913 11.2014 6.3445 10.8577 6.3445H3.20275C2.85385 6.3445 2.57265 6.62913 2.57265 6.97067C2.57265 7.31222 2.85385 7.59685 3.20275 7.59685ZM30.7658 6.74815L26.2458 3.02735C26.1312 2.9342 25.9958 2.88245 25.8396 2.88245H20.528V0.626171C20.528 0.279448 20.2416 0 19.8979 0H3.81723C3.46833 0 3.18713 0.284623 3.18713 0.626171V5.21636C3.18713 5.56309 3.47354 5.84253 3.81723 5.84253C4.16093 5.84253 4.44734 5.55791 4.44734 5.21636V1.25234H19.2678V16.1252H14.0916C13.7427 16.1252 13.4615 16.4098 13.4615 16.7514C13.4615 17.0929 13.7479 17.3775 14.0916 17.3775H21.7986C22.1475 17.3775 22.4287 17.0929 22.4287 16.7514C22.4287 16.4098 22.1423 16.1252 21.7986 16.1252H20.528V4.13997H25.6209L29.7348 7.52957L29.6931 16.1148H29.037C28.6881 16.1148 28.4069 16.3995 28.4069 16.741C28.4069 17.0826 28.6933 17.3672 29.037 17.3672H30.318C30.6669 17.3672 30.9481 17.0929 30.9481 16.7462L31.0002 7.2346C30.995 7.0483 30.9117 6.86718 30.7658 6.74815Z" fill="black"/>
</g>
<defs>
<clipPath id="clip0">
<rect width="31" height="21" fill="white"/>
</clipPath>
</defs>
</svg>
