<svg width="23" height="23" viewBox="0 0 23 23" fill="none" xmlns="http://www.w3.org/2000/svg">
<path d="M7.75127 17.605C7.74543 17.5763 7.73689 17.548 7.72566 17.5206C7.71443 17.4936 7.70051 17.4676 7.68434 17.4433C7.66816 17.4186 7.6493 17.3957 7.62863 17.375C7.60797 17.3544 7.58506 17.3355 7.56035 17.3193C7.53609 17.3032 7.51004 17.2892 7.48264 17.278C7.45568 17.2668 7.42738 17.2578 7.39863 17.2524C7.34068 17.2407 7.28094 17.2407 7.22344 17.2524C7.19469 17.2578 7.16639 17.2668 7.13898 17.278C7.11203 17.2892 7.08598 17.3032 7.06172 17.3193C7.03701 17.3355 7.0141 17.3544 6.99344 17.375C6.97277 17.3957 6.95391 17.4186 6.93773 17.4433C6.92111 17.4676 6.90764 17.4936 6.89641 17.5206C6.88518 17.548 6.87619 17.5763 6.8708 17.605C6.86496 17.6338 6.86182 17.6634 6.86182 17.6926C6.86182 17.7218 6.86496 17.7515 6.8708 17.7802C6.87619 17.809 6.88518 17.8373 6.89641 17.8642C6.90764 17.8917 6.92111 17.9177 6.93773 17.942C6.95391 17.9667 6.97277 17.9896 6.99344 18.0102C7.0141 18.0309 7.03701 18.0498 7.06172 18.0659C7.08598 18.0822 7.11203 18.0961 7.13898 18.1073C7.16639 18.1186 7.19469 18.1275 7.22344 18.1329C7.25219 18.1388 7.28184 18.1419 7.31104 18.1419C7.34023 18.1419 7.36988 18.1388 7.39863 18.1329C7.42738 18.1275 7.45568 18.1186 7.48264 18.1073C7.51004 18.0961 7.53609 18.0821 7.56035 18.0659C7.58506 18.0498 7.60797 18.0309 7.62863 18.0102C7.6493 17.9896 7.66816 17.9667 7.68434 17.942C7.70051 17.9177 7.71443 17.8917 7.72566 17.8642C7.73689 17.8373 7.74543 17.809 7.75127 17.7802C7.75711 17.7515 7.76025 17.7218 7.76025 17.6926C7.76025 17.6634 7.75711 17.6338 7.75127 17.605Z" fill="white"/>
<path d="M20.6637 17.7433C20.662 17.7388 20.6602 17.7344 20.6583 17.73C20.2449 16.7625 19.2752 16.4049 18.1276 16.7968L14.998 17.6623C14.817 17.1143 14.3657 16.6481 13.7275 16.4112C13.7236 16.4098 13.7196 16.4084 13.7156 16.407L10.2755 15.2394C9.98914 14.8693 9.09223 13.9222 7.41292 13.9222C6.23933 13.9222 5.20114 14.7273 4.60719 15.6049H0.449219C0.201115 15.6049 0 15.806 0 16.0541V21.7177C0 21.9658 0.201115 22.1669 0.449219 22.1669H3.12014C3.36824 22.1669 3.56936 21.9658 3.56936 21.7177V21.3299H4.82191C5.07002 21.3299 5.27113 21.1287 5.27113 20.8806V20.7514C6.00129 20.8151 6.24145 20.9535 6.91204 21.3402C7.42774 21.6376 8.20718 22.0871 9.61081 22.7182C9.61732 22.7211 9.62393 22.7239 9.63053 22.7265C9.89993 22.8325 10.4265 22.9989 11.0758 22.9989C11.5277 22.9989 12.0392 22.9182 12.5641 22.6803L19.4817 20.2034C19.494 20.199 19.5061 20.1941 19.518 20.1886C20.1791 19.8845 21.1643 19.0272 20.6637 17.7433ZM2.67092 21.2685H0.898438V16.5033H2.67092V21.2685ZM4.37269 20.4314H3.56936V16.5033H4.37269V20.4314ZM19.159 19.3646L12.2445 21.8403C12.2385 21.8425 12.2302 21.8457 12.2243 21.8481C12.2182 21.8506 12.2121 21.8532 12.2062 21.8559C11.2432 22.2985 10.3278 22.0336 9.96906 21.8941C8.61323 21.284 7.88958 20.8667 7.36085 20.5618C6.62575 20.1379 6.27154 19.9336 5.27113 19.851V16.2329C5.69695 15.535 6.5227 14.8206 7.41296 14.8206C8.93968 14.8206 9.5866 15.8136 9.61202 15.8537C9.66687 15.9429 9.75119 16.0102 9.85033 16.0438L13.4205 17.2555C13.9907 17.4695 14.292 17.9578 14.1535 18.4448C14.0896 18.6697 13.9419 18.8562 13.7377 18.97C13.5352 19.0828 13.3012 19.1107 13.0781 19.049L9.05342 17.7735C8.81677 17.6986 8.5644 17.8295 8.48947 18.0661C8.4145 18.3026 8.54549 18.555 8.782 18.63L12.8137 19.9076C12.818 19.909 12.8222 19.9103 12.8265 19.9115C12.9875 19.9573 13.1514 19.9799 13.3143 19.9799C13.6125 19.9799 13.9074 19.9039 14.175 19.7548C14.5889 19.5242 14.8881 19.1463 15.0177 18.6905C15.028 18.6541 15.0372 18.6177 15.0451 18.5814L18.418 17.647C18.9051 17.4806 19.5446 17.4206 19.8293 18.0763C20.124 18.8462 19.3581 19.2697 19.159 19.3646Z" fill="white"/>
<path d="M16.1296 5.90913C16.1238 5.88038 16.1153 5.85207 16.1036 5.82467C16.0924 5.79772 16.0789 5.77166 16.0623 5.74741C16.0461 5.7227 16.0272 5.69979 16.0066 5.67913C15.9859 5.65846 15.963 5.63959 15.9383 5.62342C15.914 5.60725 15.888 5.59333 15.861 5.58209C15.8336 5.57086 15.8053 5.56188 15.777 5.55649C15.7191 5.54481 15.6593 5.54481 15.6014 5.55649C15.5726 5.56188 15.5443 5.57086 15.5174 5.58209C15.49 5.59333 15.4639 5.60725 15.4396 5.62342C15.4149 5.63959 15.392 5.65846 15.3714 5.67913C15.3507 5.69979 15.3318 5.7227 15.3157 5.74741C15.2995 5.77166 15.2856 5.79772 15.2743 5.82467C15.2631 5.85207 15.2541 5.88038 15.2487 5.90913C15.2429 5.93788 15.2397 5.96752 15.2397 5.99672C15.2397 6.02592 15.2429 6.05557 15.2487 6.08432C15.2541 6.11307 15.2631 6.14137 15.2743 6.16833C15.2856 6.19573 15.2995 6.22178 15.3157 6.24604C15.3318 6.27075 15.3507 6.29366 15.3714 6.31432C15.392 6.33499 15.4149 6.35385 15.4396 6.37002C15.4639 6.3862 15.49 6.40012 15.5174 6.41135C15.5443 6.42258 15.5726 6.43112 15.6014 6.43696C15.6301 6.4428 15.6598 6.44594 15.689 6.44594C15.7182 6.44594 15.7478 6.4428 15.777 6.43696C15.8053 6.43112 15.8336 6.42258 15.861 6.41135C15.888 6.40012 15.914 6.3862 15.9383 6.37002C15.963 6.35385 15.9859 6.33499 16.0066 6.31432C16.0272 6.29366 16.0461 6.27075 16.0623 6.24604C16.0789 6.22178 16.0924 6.19573 16.1036 6.16833C16.1153 6.14137 16.1238 6.11307 16.1296 6.08432C16.1355 6.05557 16.1382 6.02592 16.1382 5.99672C16.1382 5.96752 16.1355 5.93788 16.1296 5.90913Z" fill="white"/>
<path d="M22.551 1.52238H19.8801C19.632 1.52238 19.4309 1.72349 19.4309 1.9716V2.35945H18.1783C17.9302 2.35945 17.7291 2.56057 17.7291 2.80867V2.93796C16.9989 2.87421 16.7588 2.73576 16.0882 2.34908C15.5725 2.05169 14.7931 1.60225 13.3894 0.971143C13.3829 0.968178 13.3763 0.965438 13.3696 0.962832C12.9127 0.783055 11.7153 0.42934 10.4363 1.00897L8.62863 1.6562L7.10493 0.132541C6.92951 -0.0428784 6.64506 -0.0428784 6.46964 0.132541L1.46723 5.13491C1.30543 5.29676 1.27439 5.57739 1.46723 5.77024L10.0153 14.3183C10.1521 14.4551 10.4724 14.4965 10.6506 14.3183L15.2176 9.75135C15.3363 9.76159 15.4595 9.76711 15.5873 9.76711C16.7609 9.76711 17.799 8.96202 18.3929 8.08452H22.551C22.7991 8.08452 23.0002 7.88341 23.0002 7.6353V1.9716C23.0002 1.72349 22.7991 1.52238 22.551 1.52238ZM6.78724 1.08547L7.8111 2.10933C7.50676 2.29755 7.15488 2.39827 6.78724 2.39827C6.41956 2.39827 6.06773 2.2976 5.76338 2.10933L6.78724 1.08547ZM3.44407 6.47645L2.42021 5.45255L3.44407 4.42869C3.63229 4.73304 3.733 5.08491 3.733 5.45255C3.733 5.82019 3.63233 6.17206 3.44407 6.47645ZM10.333 13.3653L9.30929 12.3416C9.93429 11.9559 10.7316 11.9559 11.3566 12.3416L10.333 13.3653ZM12.0038 11.6945C11.0112 10.9744 9.65478 10.9744 8.6621 11.6945L4.09126 7.1236C4.44205 6.64114 4.63144 6.0616 4.63144 5.45255C4.63144 4.84345 4.4421 4.26396 4.09126 3.7815L5.11624 2.75656C5.5987 3.10736 6.17819 3.29675 6.78729 3.29675C7.39638 3.29675 7.97587 3.10736 8.45834 2.75656L9.42995 3.72818C9.2203 3.75913 9.01586 3.82822 8.82521 3.93446C8.50321 4.11388 8.25057 4.38256 8.09326 4.70761C7.58654 4.80145 7.11742 5.04677 6.74942 5.41472C5.75103 6.41316 5.75103 8.03767 6.74946 9.0361C7.24863 9.53527 7.90436 9.7849 8.56013 9.7849C9.21585 9.7849 9.87162 9.53532 10.3708 9.0361C10.6956 8.71132 10.9232 8.31214 11.0371 7.87712L12.5539 8.39188C12.3831 9.18286 12.558 10.015 13.0297 10.6686L12.0038 11.6945ZM9.27268 7.27808C9.27663 7.27952 9.28059 7.28096 9.28458 7.28231L10.1828 7.58719C10.115 7.89333 9.96151 8.17481 9.73555 8.40082C9.08742 9.04886 8.03284 9.04895 7.38479 8.40082C6.73666 7.75273 6.73666 6.69819 7.38479 6.05005C7.54112 5.89364 7.72562 5.7714 7.92664 5.68852C8.00957 6.37861 8.50645 6.99373 9.27268 7.27808ZM13.677 10.0213C13.5036 9.73872 13.4055 9.41623 13.39 9.08709C13.6052 9.24265 13.8681 9.39507 14.1822 9.51605L13.677 10.0213ZM17.729 7.4562C17.3033 8.15419 16.4775 8.86859 15.5873 8.86859C15.4207 8.86859 15.2646 8.85673 15.1186 8.83562C15.118 8.83553 15.1175 8.83543 15.1169 8.83535C14.1467 8.69443 13.6249 8.14305 13.4529 7.92473C13.4437 7.91126 13.4047 7.86018 13.3989 7.85169C13.3466 7.75816 13.2608 7.68296 13.1513 7.64581L9.57967 6.4336C9.00971 6.21968 8.70842 5.7316 8.84651 5.24483C8.84659 5.24452 8.84669 5.2442 8.84678 5.24389C8.84691 5.24353 8.847 5.24312 8.84709 5.24276C8.91128 5.0186 9.05872 4.83267 9.26248 4.71915C9.4649 4.60636 9.6989 4.57837 9.92207 4.64023L13.9468 5.9156C14.1833 5.99067 14.4358 5.85959 14.5107 5.62307C14.5856 5.38656 14.4547 5.1341 14.2182 5.05912L11.0173 4.04479L10.9893 4.01685C10.9891 4.01658 10.9888 4.01626 10.9885 4.01599L9.3313 2.35882L10.7557 1.84878C10.7605 1.84703 10.7664 1.84483 10.7712 1.8429C10.7724 1.8424 10.7747 1.8415 10.7759 1.84101C10.782 1.83854 10.788 1.83593 10.794 1.83319C11.7569 1.39062 12.6723 1.65553 13.0311 1.79505C14.3869 2.40514 15.1106 2.82242 15.6394 3.1273C16.3745 3.55123 16.7287 3.75549 17.729 3.8381V7.4562ZM19.4309 7.18599H18.6275V3.25789H19.4309V7.18599ZM22.1018 7.18599H20.3293V2.42082H22.1018V7.18599Z" fill="white"/>
</svg>
