<svg width="18" height="18" viewBox="0 0 18 18" fill="none" xmlns="http://www.w3.org/2000/svg">
<g clip-path="url(#clip0)">
<path d="M17.7801 16.7202L12.6614 11.6015C13.6529 10.3768 14.2498 8.82052 14.2498 7.12555C14.2498 3.19709 11.0534 0.000610352 7.12491 0.000610352C3.19645 0.000610352 0 3.19706 0 7.12552C0 11.054 3.19648 14.2505 7.12494 14.2505C8.81991 14.2505 10.3762 13.6535 11.6009 12.662L16.7196 17.7807C16.8658 17.9269 17.0578 18.0004 17.2498 18.0004C17.4419 18.0004 17.6339 17.9269 17.7801 17.7807C18.0733 17.4874 18.0733 17.0134 17.7801 16.7202ZM7.12494 12.7505C4.02296 12.7505 1.5 10.2275 1.5 7.12552C1.5 4.02354 4.02296 1.50057 7.12494 1.50057C10.2269 1.50057 12.7499 4.02354 12.7499 7.12552C12.7499 10.2275 10.2269 12.7505 7.12494 12.7505Z" fill="#DADADA"/>
</g>
<defs>
<clipPath id="clip0">
<rect width="18" height="18" fill="white"/>
</clipPath>
</defs>
</svg>
