<svg width="154" height="157" viewBox="0 0 154 157" fill="none" xmlns="http://www.w3.org/2000/svg">
<mask id="mask0" mask-type="alpha" maskUnits="userSpaceOnUse" x="0" y="0" width="154" height="157">
<path d="M0 10C0 4.47715 4.47715 0 10 0H144C149.523 0 154 4.47715 154 10V147C154 152.523 149.523 157 144 157H10C4.47716 157 0 152.523 0 147V10Z" fill="white"/>
</mask>
<g mask="url(#mask0)">
<g opacity="0.8">
<path d="M4.47322 35.473C22.9181 48.8593 44.5561 63.2337 68.4709 57.3681C90.5914 52.0916 105.786 33.9212 123.924 21.4696C130.393 19.3025 136.78 16.8318 142.985 14.0846C139.98 18.2518 137.03 22.6213 134.181 26.9637C124.388 36.9625 113.561 45.9369 101.977 53.7043C100.319 54.7994 98.6599 55.8946 97.0011 56.9898C70.9444 54.8616 49.1827 72.4055 31.165 88.9463C30.7404 89.3854 31.0188 90.8292 31.6802 90.8689C45.2776 91.0213 59.8798 90.4707 72.3022 84.2139C78.9786 80.7982 84.4045 75.5485 89.4455 70.0765C94.9852 64.0371 100.633 58.4025 106.74 52.8618C106.74 52.8618 106.74 52.8618 106.814 52.7335C114.879 47.2107 122.476 41.1621 129.48 34.5136C126.833 38.8018 124.287 43.0629 121.897 47.4992C103.288 60.6194 85.1724 74.3666 77.932 97.1297C71.8279 116.443 73.3241 137.408 81.336 155.975C81.3902 156.178 81.8564 156.703 82.1058 156.42C82.7797 155.697 83.4536 154.974 84.1276 154.251C84.4781 153.94 84.3082 152.901 83.9431 152.348C95.8169 133.116 118.242 123.311 129.319 103.533C134.033 95.2203 135.433 86.2775 134.105 76.8723C132.663 66.6305 129.013 56.6545 129.244 46.1813C129.19 45.9789 129.237 45.7494 129.128 45.3447C146.653 17.6567 158.945 3.62631 159.518 2.93058C160.96 1.0259 158.637 -5.61815 156.346 -2.83521C152.734 1.49461 149.251 5.89851 145.794 10.4036C137.472 14.152 129.014 17.3944 120.447 20.2321C100.754 12.7113 79.7456 5.54307 58.3982 8.4433C48.7635 9.72346 40.0289 13.1484 31.8835 18.3677C22.9829 24.0062 14.7111 30.7776 4.33571 33.3408C3.60027 33.4294 4.0612 35.1496 4.47322 35.473ZM94.486 58.5313C92.2473 59.8904 90.0085 61.2494 87.6415 62.5344C83.1152 63.8556 78.7006 62.761 74.1723 62.456C80.5869 60.0865 87.3737 58.7018 94.486 58.5313ZM71.8992 63.282C76.4077 63.9176 81.4022 64.7484 85.8545 63.5554C84.2428 64.4211 82.5298 65.3139 80.9181 66.1796C78.6251 67.3363 76.3051 68.3917 73.8567 69.3731C68.2027 70.1289 62.3987 69.515 57.0086 70.8509C61.7625 67.9503 66.6989 65.3261 71.8992 63.282ZM55.4511 71.9189C60.8141 70.4819 66.5169 71.1229 72.0155 70.1918C70.8554 70.7196 69.5671 71.1732 68.4071 71.701C63.2048 72.1188 57.9556 72.7662 52.7877 73.7171C53.59 73.0683 54.5205 72.4936 55.4511 71.9189ZM33.9315 88.7473C37.3355 85.6661 40.7667 82.6861 44.4545 79.8543C46.8361 79.4331 49.2791 79.6461 51.6137 79.4543C49.1925 80.5369 46.8254 81.8219 44.5596 83.0797C41.1337 84.8653 37.4513 86.5027 34.3904 88.8412C34.161 88.7943 34.0598 88.8214 33.9315 88.7473ZM34.9235 88.8069C37.9049 87.7911 40.6225 86.1953 43.3942 84.8019C45.7884 83.6181 48.2096 82.5355 50.5495 81.1494C48.4808 83.5474 46.6686 86.0936 44.8293 88.5386C41.5027 88.6708 38.1489 88.7018 34.9235 88.8069ZM45.7942 88.4969C45.5647 88.45 45.2612 88.5313 45.0317 88.4843C46.7771 86.4983 48.6236 84.4852 50.443 82.3709C48.9814 84.6062 47.7492 86.8886 45.7942 88.4969ZM47.5217 88.4679C50.4271 85.9541 52.3312 81.3227 54.8048 78.8162C54.8048 78.8162 54.8048 78.8162 54.8788 78.6879L54.98 78.6608C55.0812 78.6337 55.0541 78.5325 54.9529 78.5596C54.9529 78.5596 54.9529 78.5596 54.8517 78.5867C54.8987 78.3572 54.7162 78.0808 54.5138 78.135C54.2373 78.3175 54.0621 78.4729 53.7856 78.6555C53.6844 78.6826 53.5833 78.7097 53.4821 78.7368C53.5833 78.7097 53.5561 78.6085 53.6573 78.5814C53.7314 78.4531 53.6229 78.0483 53.5218 78.0754C53.2453 78.258 53.0972 78.5146 52.8207 78.6971C50.3578 78.8148 47.7865 78.5277 45.3308 79.0772C47.5623 77.2863 49.848 75.6978 52.1065 74.0081C57.3286 73.2595 62.5507 72.511 67.7999 71.8637C64.1915 73.3728 60.5831 74.8819 57.1573 76.6675C57.0561 76.6946 57.1103 76.897 57.2115 76.8699C62.0758 76.0003 66.8713 74.0646 71.6398 72.0278C66.989 76.5275 63.9393 82.5504 59.032 86.902C55.2609 87.804 51.4554 88.173 47.5217 88.4679ZM61.0088 86.5893C60.4017 86.7519 59.8686 86.7863 59.2615 86.949C64.6007 82.5901 67.7985 76.3106 72.7998 71.5C73.1034 71.4187 73.2786 71.2633 73.5822 71.1819C68.7562 75.8371 66.7944 83.0869 61.0088 86.5893ZM71.8955 82.6961C69.0225 84.1166 66.1694 85.2065 63.1337 86.0199C68.1297 82.4037 70.2125 74.7962 74.8163 70.5259C76.7316 69.5789 78.6469 68.6319 80.5893 67.786C82.127 67.0486 83.5635 66.3384 85.074 65.4998C80.8227 71.0855 78.449 78.0119 72.6507 82.2768C72.4755 82.4322 72.199 82.6148 71.8955 82.6961ZM85.0964 72.8687C86.3087 70.917 87.3927 68.8913 88.193 66.6163L88.1388 66.4139C87.1632 68.8443 85.931 71.1267 84.4694 73.362C81.2677 76.389 77.9106 79.2407 73.9589 81.4925C79.2512 77.3631 81.7063 70.7403 85.5258 65.1619C87.0363 64.3233 88.574 63.5859 90.0846 62.7474C88.6917 66.0488 87.1434 69.175 85.4667 72.2272C85.4469 72.5578 85.2716 72.7132 85.0964 72.8687ZM90.0163 67.7545C88.8437 69.0448 87.5699 70.3622 86.3702 71.5513C88.101 68.7015 89.5752 65.7036 90.6917 62.5847C93.0587 61.2997 95.3986 59.9136 97.7385 58.5274C97.8397 58.5003 97.8397 58.5003 97.968 58.5744C98.0692 58.5473 98.1433 58.419 98.2174 58.2907C99.0467 57.7431 99.802 57.3238 100.53 56.8033C96.6473 60.1213 93.3119 64.2686 90.0163 67.7545ZM83.9466 87.601C87.7535 82.7851 92.2435 79.3045 98.3003 76.8139C101.329 75.5687 105.255 74.8419 108.506 73.2118C108.209 73.725 107.94 74.3394 107.772 74.9267C98.5443 77.7246 89.8043 82.344 83.0848 89.2418C83.3811 88.7286 83.6503 88.1142 83.9466 87.601ZM80.0966 95.899C80.85 93.8534 81.6575 92.0102 82.6675 90.1128C90.2924 84.1654 98.1342 79.0275 107.281 75.926C104.73 81.3814 102.381 86.7827 100.06 92.2851C93.3998 98.1909 80.5939 99.7785 76.865 107.719C77.535 103.743 78.6369 99.7606 80.0966 95.899ZM77.77 125.262C76.975 126.343 76.3354 127.599 75.8983 128.801C75.4189 122.964 75.4997 117.195 76.2419 111.465C79.7592 101.52 91.7629 100.582 99.2053 94.3578C97.5233 98.6043 95.8414 102.851 94.2607 107.07C93.5814 108.988 92.801 110.932 92.1217 112.849C87.7275 117.497 81.4955 120.143 77.77 125.262ZM81.7044 153.708C78.9698 146.74 77.0177 139.455 76.1316 132.1C77.3434 124.075 85.6878 121.623 90.9312 116.096C87.1718 126.756 83.6961 137.665 81.4419 148.681C81.4691 148.782 81.5233 148.984 81.5974 148.856C84.7985 139.756 87.669 130.636 90.8973 121.637C90.7424 127.535 92.3692 133.606 90.8175 139.553C87.2799 143.754 84.2554 148.252 82.0549 153.397C81.9808 153.525 81.8797 153.552 81.7044 153.708ZM91.7137 138.445C93.3864 132.14 91.8661 124.847 92.0607 118.288C93.0832 115.628 94.1058 112.968 95.1283 110.308C96.42 107.034 97.8129 103.732 99.2329 100.532C99.7282 102.785 100.784 105.106 101.933 106.967C103.921 110.338 106.287 113.5 106.811 117.481C107.084 120.119 106.595 122.745 105.592 125.074C100.685 129.426 95.9525 133.622 91.7137 138.445ZM106.367 124.324C107.222 122.251 107.563 119.882 107.344 117.447C106.641 110.369 100.865 105.409 100.189 98.4324C103.688 90.4453 107.518 82.478 111.659 74.8613C111.388 79.9226 112.468 85.1646 114.046 89.8391C116.721 97.7986 120.731 105.075 117.947 113.304C114.429 117.175 110.398 120.749 106.367 124.324ZM118.648 112.682C120.303 108.335 119.507 103.342 118.139 99.0452C116.981 95.126 115.215 91.3695 114.157 87.4231C113.751 85.9053 113.445 84.3604 113.241 82.7883C113.722 84.1778 114.202 85.5674 114.656 86.8557C117.871 95.2127 122.409 103.649 119.47 111.703C119.248 112.088 118.999 112.372 118.648 112.682ZM131.19 71.2547C133.62 82.7504 132.627 93.2111 126.087 103.206C124.625 105.441 123.008 107.501 121.364 109.46C121.886 105.742 121.179 101.484 120.521 98.624C119.375 93.9422 117.271 89.734 115.619 85.1878C113.785 80.3651 113.179 76.0809 113.605 71.1948C115.679 67.6023 117.652 64.037 119.578 60.7011C121.935 73.9515 133.663 85.3416 128.032 99.5395C128.032 99.5395 128.059 99.6407 128.032 99.5395C130.731 93.8274 130.042 87.6133 128.24 81.6974C125.822 73.8861 122.15 67.0615 120.366 59.1886C122.689 55.3125 124.864 51.6929 126.965 48.2017C127.38 56.2246 129.616 63.7595 131.19 71.2547ZM118.516 53.5023C115.783 58.6813 113.151 63.8332 110.545 69.0863C110.249 69.5995 110.054 70.0856 109.785 70.7C107.492 71.8566 104.908 72.3321 102.405 73.1111C99.5252 74.0998 96.7263 75.392 94.0828 76.8595C91.817 78.1173 89.6596 79.7799 87.7317 81.4895C95.6471 70.1501 106.777 61.0944 118.516 53.5023ZM40.0558 52.5097C35.175 50.8893 30.3611 48.7087 25.6953 46.2715C31.3783 47.2431 37.7062 45.7645 42.9065 43.7204C47.702 41.7847 52.2337 39.269 56.8738 37.158C59.7739 35.8387 62.7824 34.9241 65.7169 34.1378C69.4211 33.796 72.97 33.2789 76.62 32.7347C63.1983 38.5001 53.2664 50.8137 37.5982 51.433C44.9472 51.7414 51.6581 48.8586 57.9496 45.2207C63.0071 42.2387 67.882 38.9803 72.8383 36.0255C69.5751 38.4182 66.3933 41.1145 63.2584 43.5813C59.1189 46.7511 54.7228 49.7727 49.7447 51.4319C46.4597 52.5291 43.3626 52.7082 40.0558 52.5097ZM44.6257 53.7796C50.3339 53.2262 56.0528 50.284 60.4489 47.2623C67.96 42.1046 74.3092 35.8483 82.2469 31.8777C85.2627 31.395 88.2513 30.8111 91.24 30.2272C93.2909 29.7861 95.3418 29.345 97.3927 28.9039C84.1627 37.0039 74.7532 51.6719 59.4666 55.3342C54.4396 55.5966 49.4993 54.9682 44.6257 53.7796ZM118.946 23.1288C102.48 33.7227 88.3739 48.673 69.1482 53.8245C67.428 54.2855 65.7819 54.6181 64.1086 54.8495C77.3967 50.2044 87.3194 35.8327 99.2412 28.5171C105.873 26.9571 112.45 25.1947 118.946 23.1288ZM116.602 21.2624C113.29 22.2583 109.978 23.2542 106.537 24.1761C100.258 20.9783 94.1318 16.3295 87.5487 13.213C97.4168 15.2323 107.124 18.2709 116.602 21.2624ZM57.8419 11.629C66.2353 10.5731 74.6034 11.0421 82.8849 12.4021C90.6352 15.4227 97.3631 21.1032 105.047 24.684C101.606 25.6058 98.2399 26.3994 94.7724 27.2201C87.2462 25.4408 80.6288 21.7913 73.7818 18.0948C68.8323 15.4083 63.4509 12.729 57.7408 11.6561C57.7408 11.6561 57.7408 11.6561 57.8419 11.629ZM55.1297 12.0304C62.6215 13.2766 69.2317 16.4942 76.0046 20.319C81.2378 23.2549 86.7006 26.2378 92.5932 27.5871C91.9861 27.7497 91.3519 27.8112 90.7447 27.9739C90.5424 28.0281 90.34 28.0824 90.1376 28.1366C86.4658 27.3852 82.9692 26.4784 79.4581 24.7079C74.9748 22.5471 70.7336 19.6708 66.3984 17.2534C62.0904 14.9372 57.459 13.0331 52.647 12.4788C53.4836 12.3631 54.2931 12.1461 55.1297 12.0304ZM50.1173 13.1566C57.0344 13.4722 63.5705 16.8182 69.6007 20.2997C74.7327 23.2627 80.5678 27.2303 86.6159 28.7549C80.0042 29.9842 73.3113 30.9099 66.6924 31.7074C57.2853 31.4082 49.6613 26.8354 40.6967 24.1402C37.1459 23.031 33.3259 22.5362 29.7228 22.8509C36.2564 18.4974 42.8588 15.2099 50.1173 13.1566ZM28.5899 23.4799C38.9057 21.9087 49.9416 29.9054 60.6536 32.241C59.5875 32.3097 58.5213 32.3785 57.4552 32.4472C51.8661 31.0166 46.5462 28.9715 41.1251 26.9536C36.8045 25.4 32.437 24.0758 27.8346 23.8991C28.1382 23.8178 28.3134 23.6624 28.5899 23.4799ZM27.0324 24.5479C36.6419 24.7928 44.949 30.7009 53.9533 32.7348C42.9616 33.4025 32.0294 33.0782 21.1044 33.1858C21.0032 33.2129 21.0105 33.6447 21.1117 33.6176C33.2131 35.4724 45.7445 35.6935 58.0788 34.7745C53.3375 36.9126 48.7589 39.6578 44.3952 41.5862C36.5514 45.0978 28.7725 46.423 20.874 43.659C16.1269 40.9182 11.4267 37.948 7.03004 34.8964C14.3897 32.8159 20.748 28.6178 27.0324 24.5479Z" fill="#38851D"/>
<path d="M104.783 114.771C105.624 117.908 105.931 121.079 105.044 124.245C105.044 124.245 105.072 124.346 105.044 124.245C106.06 121.153 106.103 117.671 104.857 114.643C104.803 114.44 104.756 114.67 104.783 114.771Z" fill="#F4F4F4"/>
<path d="M103.112 110.555C103.274 111.162 103.538 111.742 103.775 112.221C103.802 112.322 103.876 112.194 103.849 112.093C103.686 111.486 103.524 110.879 103.361 110.272C103.178 109.995 103.057 110.353 103.112 110.555Z" fill="#F4F4F4"/>
<path d="M77.6567 109.459C80.9325 106.304 84.5733 103.702 88.5521 101.551C88.6533 101.524 88.5448 101.119 88.4707 101.247C84.2625 103.351 80.7228 105.926 77.6567 109.459C77.5284 109.385 77.5555 109.486 77.6567 109.459Z" fill="#F4F4F4"/>
<path d="M90.1635 100.685C91.4247 100.13 92.5848 99.602 93.8189 98.9459C93.9201 98.9188 93.8387 98.6153 93.7375 98.6424C92.4763 99.1972 91.3705 99.9273 90.1635 100.685C90.1364 100.583 90.1635 100.685 90.1635 100.685Z" fill="#F4F4F4"/>
<path d="M96.0723 98.4504C96.5782 98.3148 96.983 98.2063 97.3606 97.9967C97.563 97.9425 97.3732 97.2342 97.1979 97.3896C96.7191 97.6263 96.3686 97.9372 96.0181 98.248C95.9169 98.2751 95.9711 98.4775 96.0723 98.4504Z" fill="#F4F4F4"/>
<path d="M84.1726 90.4688C87.5912 88.2513 91.0911 86.3374 94.6923 84.3964C94.7934 84.3693 94.7392 84.1669 94.638 84.194C90.8544 85.8586 87.4087 87.9748 84.1726 90.4688Z" fill="#F4F4F4"/>
<path d="M116.271 99.7629C117.241 104.6 117.294 109.249 116.308 114.069L116.335 114.17C117.578 109.499 117.646 104.492 116.271 99.7629C116.318 99.5334 116.244 99.6617 116.271 99.7629Z" fill="#F4F4F4"/>
<path d="M83.8497 136.214C83.8497 136.214 83.978 136.288 83.8497 136.214C84.6011 132.542 85.6091 129.018 86.7183 125.468C86.7923 125.339 86.6098 125.063 86.5628 125.292C85.1971 128.695 84.3445 132.394 83.8497 136.214Z" fill="#F4F4F4"/>
<path d="M78.5706 129.06C78.5706 129.06 78.5977 129.162 78.5706 129.06C80.5924 126.892 82.7769 125.331 85.1095 123.513C85.2107 123.485 85.1294 123.182 85.0282 123.209C82.4046 124.346 80.2075 126.67 78.5706 129.06Z" fill="#F4F4F4"/>
<path d="M90.3203 135.673C90.1794 136.361 90.1397 137.023 89.9988 137.711L90.0259 137.812C90.1668 137.124 90.2336 136.564 90.3745 135.875C90.4215 135.646 90.3673 135.444 90.3203 135.673Z" fill="#F4F4F4"/>
<path d="M104.885 64.9629C105.641 64.5436 106.423 64.2255 107.28 63.7791C107.381 63.752 107.225 63.5767 107.253 63.6779C106.497 64.0972 105.715 64.4153 104.858 64.8617L104.885 64.9629Z" fill="#F4F4F4"/>
<path d="M127.208 92.8191C127.101 94.0406 127.123 95.3362 127.145 96.6318C127.145 96.6318 127.172 96.733 127.145 96.6318C127.251 95.4103 127.331 94.0875 127.309 92.792C127.336 92.8931 127.282 92.6908 127.208 92.8191Z" fill="#F4F4F4"/>
<path d="M76.1343 77.873C76.9293 76.7924 77.7243 75.7118 78.418 74.6583L78.3638 74.4559C77.5688 75.5365 76.9022 76.6912 76.1343 77.873Z" fill="#F4F4F4"/>
<path d="M80.3709 71.4236L80.4251 71.626C80.6473 71.2411 80.9436 70.7279 81.1658 70.343C81.2399 70.2147 81.0845 70.0394 80.9833 70.0665C80.7882 70.5526 80.5931 71.0387 80.3709 71.4236Z" fill="#F4F4F4"/>
<path d="M65.9061 51.4395C70.3438 49.3827 74.4635 46.5436 77.8061 42.8282C77.9073 42.8011 77.8259 42.4975 77.7247 42.5246C74.0984 45.9907 70.3366 48.9509 65.9061 51.4395Z" fill="#F4F4F4"/>
<path d="M79.4106 41.5306C79.4106 41.5306 79.4649 41.733 79.4378 41.6318C80.0846 40.8078 80.8868 40.159 81.8174 39.5843C82.0197 39.5301 81.8842 39.0242 81.6818 39.0784C80.6772 39.7814 79.9292 40.6325 79.4106 41.5306Z" fill="#F4F4F4"/>
<path d="M85.0139 15.0852C88.2142 16.5052 91.6168 17.871 94.5479 19.9054C94.5479 19.9054 94.5479 19.9054 94.5208 19.8042C91.4885 17.7969 88.4834 15.8908 84.9597 14.8828C84.8314 14.8087 84.8856 15.0111 85.0139 15.0852Z" fill="#F4F4F4"/>
<path d="M82.5291 13.9079C82.7585 13.9548 82.988 14.0018 83.1163 14.0759C83.2175 14.0487 83.1633 13.8464 83.1362 13.7452C82.9067 13.6982 82.6772 13.6513 82.5489 13.5772C82.4477 13.6043 82.4279 13.935 82.5291 13.9079Z" fill="#F4F4F4"/>
<path d="M55.9774 15.5989C59.4541 16.8363 62.5333 18.6141 65.8149 20.3377C63.0049 17.9455 59.5751 16.4786 55.9231 15.3965C55.7948 15.3224 55.8491 15.5248 55.9774 15.5989Z" fill="#F4F4F4"/>
<path d="M26.7648 43.3819C33.344 43.2458 39.9014 41.8141 45.7413 38.5141C45.8425 38.487 45.7611 38.1834 45.6599 38.2105C39.5291 40.8293 33.438 42.7868 26.7648 43.3819C26.7377 43.2807 26.7648 43.3819 26.7648 43.3819Z" fill="#F4F4F4"/>
<path d="M22.5598 42.6651C22.661 42.638 22.8634 42.5837 22.9917 42.6578C23.0929 42.6307 23.0115 42.3271 22.9103 42.3543L22.4785 42.3615C22.4785 42.3615 22.4315 42.591 22.5598 42.6651Z" fill="#F4F4F4"/>
<path d="M14.8038 34.7661C15.7958 34.8256 16.7879 34.8852 17.7799 34.9447C17.9823 34.8905 17.9208 34.2562 17.6172 34.3376C16.6523 34.3792 15.6874 34.4209 14.7225 34.4625C14.7225 34.4625 14.7767 34.6649 14.8038 34.7661Z" fill="#F4F4F4"/>
<path d="M68.4155 22.3525C69.3136 22.8711 70.2117 23.3896 71.2037 23.4491C70.3797 22.8023 69.3804 22.3109 68.4082 21.9207C68.2528 21.7454 68.2872 22.2785 68.4155 22.3525Z" fill="#F4F4F4"/>
<path d="M84.1017 42.4426C89.0362 38.1921 94.052 34.2453 98.9865 29.9948C99.0877 29.9677 98.9792 29.563 98.9051 29.6913C93.8424 33.8676 89.0362 38.1921 84.1017 42.4426C83.9734 42.3685 84.0005 42.4697 84.1017 42.4426Z" fill="#F4F4F4"/>
</g>
</g>
</svg>
