<svg width="40" height="50" viewBox="0 0 40 50" fill="none" xmlns="http://www.w3.org/2000/svg">
<path d="M8.56572 45.4107C8.56572 46.3352 8.21221 47.2599 7.50479 47.9653C6.79746 48.6706 5.87051 49.0235 4.94365 49.0235C4.01777 49.0235 3.09209 48.6717 2.38525 47.9683L2.38232 47.9653C1.00274 46.5891 0.968751 44.3792 2.28027 42.962C2.35879 42.8772 2.43652 42.7916 2.51094 42.7031L4.94365 39.8092L7.37578 42.7027C7.45039 42.7914 7.52842 42.8773 7.60723 42.9624C8.24639 43.653 8.56572 44.532 8.56572 45.4107Z" fill="#8EC9FF"/>
<path d="M21.3374 6.38501L33.2693 18.3169L29.9459 21.6403L18.014 9.70839L21.3374 6.38501Z" fill="#AEE65A"/>
<path d="M31.5467 16.5968L23.0639 8.11399L28.4445 2.73342C30.787 0.390942 34.5848 0.390942 36.9273 2.73342C39.2698 5.0759 39.2698 8.87375 36.9273 11.2162L31.5467 16.5968Z" fill="#AEE55A"/>
<path d="M5.3246 30.6887C4.92909 30.8262 4.55761 31.0529 4.24169 31.3688C3.12323 32.4873 3.12323 34.3006 4.24169 35.4191C5.36015 36.5376 7.17353 36.5376 8.29198 35.4191C8.608 35.1032 8.83466 34.7317 8.97206 34.3362C11.0837 35.0839 13.5306 34.6131 15.2201 32.9235L23.6416 24.502H6.67685C5.03661 26.1891 4.58583 28.6024 5.3246 30.6887Z" fill="#8EC9FF"/>
<path d="M27.7091 20.4344L28.2228 19.9207L19.74 11.4379L10.7434 20.4344" fill="#FAF7F5"/>
<path d="M10.7434 20.4344L8.68465 22.4932L6.73729 24.4405C6.71697 24.4609 6.69686 24.4814 6.67693 24.5019H23.6416L25.6503 22.4932L27.7091 20.4344" fill="#8EC9FF"/>
<path d="M8.12334 42.0742L5.69111 39.1808C5.50566 38.96 5.23203 38.8326 4.94365 38.8326C4.65527 38.8326 4.38164 38.9601 4.19619 39.1808L1.76348 42.0747C1.69844 42.1522 1.62607 42.2314 1.56357 42.2988C-0.115333 44.113 -0.0607428 46.9016 1.68691 48.6508C1.69004 48.6541 1.69326 48.6572 1.69648 48.6606C2.56426 49.5243 3.71758 50 4.94355 50C6.17129 50 7.32578 49.523 8.19424 48.6569C9.06338 47.7902 9.54219 46.6373 9.54219 45.4107C9.54219 44.253 9.10947 43.1479 8.32402 42.2993C8.25801 42.2278 8.18799 42.1511 8.12334 42.0742ZM6.81514 47.2738C6.31523 47.7723 5.65059 48.0469 4.94355 48.0469C4.23984 48.0469 3.57803 47.775 3.0792 47.2812C3.07685 47.2787 3.07432 47.2763 3.07197 47.2739C2.06553 46.27 2.03262 44.6674 2.99678 43.6255C3.0748 43.5413 3.1668 43.4405 3.2585 43.3315L4.94355 41.3269L6.62803 43.3308C6.71904 43.4391 6.81162 43.5406 6.89053 43.6258C7.34101 44.1124 7.58906 44.7464 7.58906 45.4107C7.58906 46.1146 7.31426 46.7762 6.81514 47.2738Z" fill="black"/>
<path d="M39.6606 6.9748C39.6606 5.11182 38.9351 3.36016 37.6178 2.04287C36.3005 0.725488 34.5489 0 32.6858 0C30.8227 0 29.0712 0.725488 27.7539 2.04287L23.0639 6.73281L22.029 5.69795C21.6476 5.31689 21.0295 5.3167 20.6478 5.69795L17.3239 9.02178C17.1408 9.20488 17.0379 9.45332 17.0379 9.71231C17.0379 9.97129 17.1408 10.2196 17.3239 10.4028L18.3589 11.4378L6.04667 23.75C6.02313 23.7735 5.99979 23.7974 5.97655 23.8212C5.97372 23.8241 5.97089 23.8271 5.96815 23.83C4.31581 25.5354 3.65936 27.9034 4.16405 30.1787C3.94501 30.3223 3.74022 30.4891 3.55116 30.6781C2.0538 32.1756 2.0538 34.612 3.55116 36.1094C4.27655 36.8349 5.241 37.2344 6.26688 37.2344C7.29266 37.2344 8.25722 36.8349 8.98261 36.1095C9.17216 35.9198 9.33934 35.7145 9.48329 35.4947C9.97216 35.601 10.4674 35.653 10.9609 35.653C12.7864 35.6528 14.5849 34.9396 15.9108 33.6139L28.2227 21.3018L29.2577 22.3367C29.4409 22.5198 29.6892 22.6228 29.9482 22.6228C30.2072 22.6228 30.4557 22.5198 30.6388 22.3367L33.9626 19.0128C34.3439 18.6314 34.3439 18.0131 33.9626 17.6316L32.9277 16.5968L37.6177 11.9067C38.9352 10.5895 39.6606 8.83789 39.6606 6.9748ZM11.148 21.4109H14.7134C15.2526 21.4109 15.6899 20.9736 15.6899 20.4344C15.6899 19.8951 15.2526 19.4578 14.7134 19.4578H13.1012L19.74 12.819L26.3788 19.4578H23.5426C23.0033 19.4578 22.566 19.8951 22.566 20.4344C22.566 20.9736 23.0033 21.4109 23.5426 21.4109H25.3513L23.2369 23.5253H9.03358L11.148 21.4109ZM14.5296 32.2328C13.1681 33.5942 11.1146 34.0589 9.29804 33.4154C9.05302 33.3287 8.78349 33.3432 8.54901 33.4559C8.31474 33.5685 8.13495 33.7699 8.0496 34.0154C7.95604 34.2847 7.80526 34.5245 7.60145 34.7283C7.24501 35.0848 6.77099 35.2812 6.26688 35.2812C5.76268 35.2812 5.28876 35.0848 4.93231 34.7283C4.57587 34.3719 4.37948 33.8979 4.37948 33.3937C4.37948 32.8896 4.57587 32.4156 4.93231 32.0592C5.13612 31.8554 5.37597 31.7046 5.6452 31.611C5.89081 31.5257 6.09218 31.3459 6.20477 31.1116C6.31737 30.8772 6.33202 30.6077 6.2452 30.3626C5.64677 28.6729 5.98075 26.8368 7.11093 25.4783H21.284L14.5296 32.2328ZM29.9482 20.265L19.3957 9.7124L21.3386 7.76953L31.8912 18.3222L29.9482 20.265ZM31.5467 15.2157L24.4449 8.11397L29.135 3.42402C30.0835 2.47549 31.3445 1.95312 32.6858 1.95312C34.0271 1.95312 35.2882 2.47549 36.2366 3.42402C37.1851 4.37246 37.7075 5.6335 37.7075 6.9748C37.7075 8.31611 37.1851 9.57715 36.2366 10.5256L31.5467 15.2157Z" fill="black"/>
<path d="M20.0116 20.0606C19.8596 19.6955 19.4938 19.4553 19.0986 19.4582C18.6883 19.4612 18.3184 19.7341 18.1862 20.1208C18.0546 20.5057 18.1837 20.9471 18.5032 21.1992C18.8242 21.4525 19.2778 21.4781 19.6255 21.2633C20.0283 21.0145 20.1902 20.4965 20.0116 20.0606Z" fill="black"/>
</svg>
