<svg width="153" height="133" viewBox="0 0 153 133" fill="none" xmlns="http://www.w3.org/2000/svg">
<path d="M15.3887 96.9595C18.7546 93.701 20.4375 90.1382 20.4375 86.271C20.4375 85.1073 20.0794 84.5343 19.3633 84.5522C18.2712 84.5881 17.3849 86.0203 16.7046 88.8491C16.4539 89.8875 16.2391 91.0423 16.0601 92.3135L15.3887 96.9595ZM7.92285 109.232C8.44206 107.549 8.74642 104.676 8.83594 100.612C8.90755 97.5145 9.09554 95.0975 9.3999 93.3608C9.65055 91.9285 10.1787 90.4604 10.9844 88.9565C12.2913 86.5216 13.7147 84.9551 15.2544 84.2568C14.3592 86.1904 13.9027 88.2673 13.8848 90.4873L14.1802 90.5947C14.6278 86.7096 15.7467 83.863 17.5371 82.0547C18.3786 81.2132 19.2469 80.7925 20.1421 80.7925C22.2726 80.7925 23.3379 82.3859 23.3379 85.5728C23.3379 90.8006 20.5449 95.366 14.959 99.269C14.207 103.799 12.9896 107.326 11.3066 109.85L11.8169 109.984L14.9053 110.763L18.2891 111.703C19.0052 111.9 19.6766 111.999 20.3032 111.999C21.5386 111.999 22.8545 111.3 24.251 109.904L24.9761 109.179C25.3162 108.839 25.6385 108.668 25.9429 108.668C26.5337 108.668 26.8291 109 26.8291 109.662C26.8291 110.754 26.0234 111.909 24.4121 113.126C23.0872 114.129 21.646 114.63 20.0884 114.63C18.6919 114.63 17.2148 114.263 15.6572 113.529L15.6035 113.852C17.2507 114.8 19.0052 115.275 20.8672 115.275C21.1357 115.275 21.3327 115.266 21.458 115.248C20.724 116.985 19.2738 117.853 17.1074 117.853C15.693 117.853 13.4193 116.85 10.2861 114.845C9.39095 114.272 8.6569 113.887 8.08398 113.69C6.06087 115.445 4.2168 116.322 2.55176 116.322C1.01204 116.322 0.242188 115.696 0.242188 114.442C0.242188 112.759 1.42383 111.918 3.78711 111.918C4.2526 111.918 4.7002 111.972 5.12988 112.079L5.37158 111.837C4.65544 111.515 3.9751 111.354 3.33057 111.354C3.15153 111.354 2.86507 111.372 2.47119 111.408C2.63232 109.761 3.68864 108.937 5.64014 108.937C6.12354 108.937 6.88444 109.035 7.92285 109.232ZM32.603 106.037C33.5161 105.607 34.3218 104.864 35.02 103.808C35.7362 102.751 36.0942 101.722 36.0942 100.719C36.0942 100.003 35.8346 99.645 35.3154 99.645C34.4023 99.645 33.6862 100.531 33.167 102.304C32.791 103.575 32.603 104.819 32.603 106.037ZM35.5303 115.248H35.8257C35.0379 116.143 33.9906 116.591 32.6836 116.591C31.5199 116.591 30.4725 116.242 29.5415 115.543C27.7511 114.201 26.856 112.079 26.856 109.179C26.856 107.299 27.2588 105.455 28.0645 103.646C28.9238 101.749 30.0786 100.281 31.5288 99.2422C30.8843 100.943 30.562 102.447 30.562 103.754H30.8306C31.1349 101.695 31.672 100.111 32.4419 99.0005C33.5877 97.3354 34.7515 96.5029 35.9331 96.5029C37.4012 96.5029 38.1353 97.2907 38.1353 98.8662C38.1353 99.9941 37.7593 101.203 37.0073 102.492L37.2222 102.599C38.3143 101.077 38.8604 99.6271 38.8604 98.2485C38.8604 97.5324 38.6007 96.9416 38.0815 96.4761C38.3859 96.2612 38.6992 96.1538 39.0215 96.1538C40.2031 96.1538 40.7939 96.9774 40.7939 98.6245C40.7939 100.576 39.8988 102.411 38.1084 104.13C36.5687 105.616 34.7694 106.69 32.7104 107.353C32.8537 108.534 33.2655 109.501 33.9458 110.253C34.6978 111.094 35.6377 111.515 36.7656 111.515C37.9473 111.515 39.0125 111.014 39.9614 110.011L40.8208 109.098C41.1431 108.758 41.4653 108.588 41.7876 108.588C42.2531 108.588 42.4858 108.83 42.4858 109.313C42.4858 109.635 42.3068 110.083 41.9487 110.656C40.3911 113.126 38.3411 114.362 35.7988 114.362C33.8831 114.362 32.4508 113.664 31.502 112.267C31.0365 111.587 30.75 110.799 30.6426 109.904L30.374 109.984C30.4993 111.524 31.0007 112.768 31.8779 113.717C32.8089 114.738 34.0264 115.248 35.5303 115.248ZM50.5425 118.229C49.0565 118.605 47.7764 119.527 46.7021 120.995C45.6279 122.463 45.0908 123.976 45.0908 125.534C45.0908 126.59 45.4937 127.118 46.2993 127.118C47.4272 127.118 48.6805 124.782 50.0591 120.109C50.1844 119.679 50.3455 119.053 50.5425 118.229ZM47.2661 115.006C46.6037 115.83 45.8517 116.242 45.0103 116.242C43.7928 116.242 42.8618 115.526 42.2173 114.093C41.716 112.965 41.4653 111.721 41.4653 110.36C41.4653 108.284 42.0114 106.153 43.1035 103.969C44.2135 101.767 45.619 100.119 47.3198 99.0273C46.4425 100.746 45.9054 102.348 45.7085 103.834H46.0308C46.729 100.898 48.0539 98.7051 50.0054 97.2549C50.9006 96.5924 51.8315 96.2612 52.7983 96.2612C54.1053 96.2612 55.099 96.8431 55.7793 98.0068C56.0837 98.526 56.2358 99.1079 56.2358 99.7524C56.2358 100.755 55.6092 101.4 54.356 101.686C54.3918 101.435 54.4097 101.229 54.4097 101.068C54.4097 100.137 54.0337 99.3496 53.2817 98.7051L53.1206 99.0005C53.5682 99.4481 53.792 100.03 53.792 100.746C53.792 101.785 53.237 102.304 52.127 102.304H51.7241C51.9569 101.713 52.0732 101.221 52.0732 100.827C52.0732 100.093 51.7868 99.7256 51.2139 99.7256C50.4798 99.7256 49.7189 100.621 48.9312 102.411C48.0002 104.542 47.5347 106.475 47.5347 108.212C47.5347 109.68 47.9733 110.414 48.8506 110.414C50.3366 110.414 51.3034 108.722 51.751 105.338C51.8584 104.569 52.0464 104.058 52.3149 103.808C52.6014 103.539 53.1475 103.342 53.9531 103.217C54.0068 103.718 54.0337 104.398 54.0337 105.258C54.0337 106.977 53.9889 108.642 53.8994 110.253L53.8726 110.736L54.2485 110.656C54.6066 108.257 54.7856 105.858 54.7856 103.458V102.921C54.8573 102.886 54.9468 102.85 55.0542 102.814C55.0721 102.796 55.099 102.787 55.1348 102.787H55.1616C55.7882 102.59 56.1821 102.492 56.3433 102.492C57.0773 102.492 57.4443 103.539 57.4443 105.634C57.4443 111.291 56.1911 116.931 53.6846 122.553C52.4671 125.274 51.2318 127.02 49.9785 127.79C51.0348 125.265 51.6883 123.206 51.939 121.613L51.6167 121.64C49.9696 127.387 47.8211 130.26 45.1714 130.26C43.4884 130.26 42.647 129.258 42.647 127.252C42.647 126.321 42.8439 125.399 43.2378 124.486L42.9961 124.352C42.3874 125.39 42.083 126.635 42.083 128.085C42.083 129.857 42.7365 130.914 44.0435 131.254C43.5601 131.755 42.9782 132.006 42.2979 132.006C41.152 132.006 40.3195 131.433 39.8003 130.287C39.5675 129.768 39.4512 129.159 39.4512 128.461C39.4512 126.814 40.1047 125.077 41.4116 123.251C42.5037 121.729 43.8376 120.395 45.4131 119.25C47.1497 117.996 48.967 117.164 50.8647 116.752C51.1691 115.427 51.3213 113.923 51.3213 112.24C51.3213 112.33 51.3034 112.016 51.2676 111.3C50.4798 113.001 49.4772 113.852 48.2598 113.852C46.2725 113.852 45.2788 112.357 45.2788 109.367C45.2788 109.188 45.2878 109.062 45.3057 108.991L45.0103 108.964C44.9565 109.465 44.9297 109.85 44.9297 110.119C44.9297 112.768 45.7085 114.398 47.2661 115.006ZM68.3745 118.229C66.8885 118.605 65.6084 119.527 64.5342 120.995C63.46 122.463 62.9229 123.976 62.9229 125.534C62.9229 126.59 63.3257 127.118 64.1313 127.118C65.2593 127.118 66.5125 124.782 67.8911 120.109C68.0164 119.679 68.1776 119.053 68.3745 118.229ZM65.0981 115.006C64.4357 115.83 63.6838 116.242 62.8423 116.242C61.6248 116.242 60.6938 115.526 60.0493 114.093C59.548 112.965 59.2974 111.721 59.2974 110.36C59.2974 108.284 59.8434 106.153 60.9355 103.969C62.0456 101.767 63.451 100.119 65.1519 99.0273C64.2746 100.746 63.7375 102.348 63.5405 103.834H63.8628C64.561 100.898 65.8859 98.7051 67.8374 97.2549C68.7326 96.5924 69.6636 96.2612 70.6304 96.2612C71.9373 96.2612 72.931 96.8431 73.6113 98.0068C73.9157 98.526 74.0679 99.1079 74.0679 99.7524C74.0679 100.755 73.4412 101.4 72.188 101.686C72.2238 101.435 72.2417 101.229 72.2417 101.068C72.2417 100.137 71.8657 99.3496 71.1138 98.7051L70.9526 99.0005C71.4002 99.4481 71.624 100.03 71.624 100.746C71.624 101.785 71.069 102.304 69.959 102.304H69.5562C69.7889 101.713 69.9053 101.221 69.9053 100.827C69.9053 100.093 69.6188 99.7256 69.0459 99.7256C68.3118 99.7256 67.5509 100.621 66.7632 102.411C65.8322 104.542 65.3667 106.475 65.3667 108.212C65.3667 109.68 65.8053 110.414 66.6826 110.414C68.1686 110.414 69.1354 108.722 69.583 105.338C69.6904 104.569 69.8784 104.058 70.147 103.808C70.4334 103.539 70.9795 103.342 71.7852 103.217C71.8389 103.718 71.8657 104.398 71.8657 105.258C71.8657 106.977 71.821 108.642 71.7314 110.253L71.7046 110.736L72.0806 110.656C72.4386 108.257 72.6177 105.858 72.6177 103.458V102.921C72.6893 102.886 72.7788 102.85 72.8862 102.814C72.9041 102.796 72.931 102.787 72.9668 102.787H72.9937C73.6203 102.59 74.0142 102.492 74.1753 102.492C74.9093 102.492 75.2764 103.539 75.2764 105.634C75.2764 111.291 74.0231 116.931 71.5166 122.553C70.2992 125.274 69.0638 127.02 67.8105 127.79C68.8669 125.265 69.5203 123.206 69.771 121.613L69.4487 121.64C67.8016 127.387 65.6532 130.26 63.0034 130.26C61.3205 130.26 60.479 129.258 60.479 127.252C60.479 126.321 60.6759 125.399 61.0698 124.486L60.8281 124.352C60.2194 125.39 59.915 126.635 59.915 128.085C59.915 129.857 60.5685 130.914 61.8755 131.254C61.3921 131.755 60.8102 132.006 60.1299 132.006C58.984 132.006 58.1515 131.433 57.6323 130.287C57.3996 129.768 57.2832 129.159 57.2832 128.461C57.2832 126.814 57.9367 125.077 59.2437 123.251C60.3358 121.729 61.6696 120.395 63.2451 119.25C64.9818 117.996 66.799 117.164 68.6968 116.752C69.0011 115.427 69.1533 113.923 69.1533 112.24C69.1533 112.33 69.1354 112.016 69.0996 111.3C68.3118 113.001 67.3092 113.852 66.0918 113.852C64.1045 113.852 63.1108 112.357 63.1108 109.367C63.1108 109.188 63.1198 109.062 63.1377 108.991L62.8423 108.964C62.7886 109.465 62.7617 109.85 62.7617 110.119C62.7617 112.768 63.5405 114.398 65.0981 115.006ZM82.769 94.3008C81.8201 93.9964 81.3457 93.5488 81.3457 92.958C81.3457 92.6178 81.4979 92.0897 81.8022 91.3735L82.7959 89.064C83.0286 88.509 83.333 88.2314 83.709 88.2314C83.9238 88.2314 84.1834 88.321 84.4878 88.5C84.5594 88.5358 84.6489 88.5895 84.7563 88.6611V88.7686C84.7563 89.0013 84.6937 89.4041 84.5684 89.9771C84.5505 90.0129 84.5146 90.1829 84.4609 90.4873L84.7832 90.5679C85.0339 89.7264 85.2756 89.055 85.5083 88.5537C86.4751 88.7327 86.9585 89.1266 86.9585 89.7354C86.9585 90.1113 86.8153 90.7559 86.5288 91.6689C85.7769 94.0859 85.0876 95.2944 84.4609 95.2944C84.085 95.2944 83.6642 95.1333 83.1987 94.811C83.6821 93.4683 83.9596 92.5552 84.0312 92.0718L83.7627 91.9912C83.5837 92.6178 83.2524 93.3877 82.769 94.3008ZM82.3662 114.818C81.2383 115.731 80.4058 116.188 79.8687 116.188C78.5259 116.188 77.8545 114.031 77.8545 109.716C77.8545 106.422 78.311 103.109 79.2241 99.7793C79.4569 98.9557 79.6449 98.3918 79.7881 98.0874C80.2715 97.1206 81.2293 96.5835 82.6616 96.4761L82.5542 96.9058C82.411 97.4608 82.1335 98.5618 81.7217 100.209C81.471 101.229 81.2741 102.25 81.1309 103.271L81.48 103.244L81.6143 102.707C81.7933 101.99 82.1514 100.683 82.6885 98.7856L83.1719 97.2817C83.1898 97.1922 83.2435 97.0311 83.333 96.7983C83.8522 96.6193 84.3893 96.5298 84.9443 96.5298C85.4098 96.5298 85.6426 96.7536 85.6426 97.2012C85.6426 97.5413 85.4367 98.5439 85.0249 100.209L84.2461 103.378C83.888 105.15 83.709 106.592 83.709 107.702C83.709 109.08 84.0939 109.77 84.8638 109.77C85.1502 109.77 85.571 109.537 86.126 109.071C86.8242 108.498 87.3076 108.212 87.5762 108.212C88.0059 108.212 88.2207 108.472 88.2207 108.991C88.2207 109.653 87.5404 110.611 86.1797 111.864C85.0339 112.921 84.1387 113.449 83.4941 113.449C82.599 113.449 81.8918 112.831 81.3726 111.596C80.9787 110.647 80.7817 109.653 80.7817 108.615V108.185L80.4863 108.292C80.4505 109.044 80.4326 109.367 80.4326 109.259C80.4326 111.64 81.0771 113.493 82.3662 114.818ZM94.6929 102.787L94.9077 102.465C96.1968 100.531 97.6917 98.8035 99.3926 97.2817C100.717 96.1001 101.675 95.5093 102.266 95.5093C102.785 95.5093 103.287 95.8494 103.77 96.5298C103.698 96.7088 103.645 96.8252 103.609 96.8789L102.776 98.5708C102.042 100.075 101.55 101.489 101.299 102.814L101.541 102.975C102.49 100.29 103.573 98.2485 104.791 96.8521C105.686 97.425 106.133 97.971 106.133 98.4902C106.133 98.6156 106.062 98.8304 105.918 99.1348L105.086 100.854C104.03 103.038 103.501 105.267 103.501 107.541C103.501 109.062 103.913 109.823 104.737 109.823C105.095 109.823 105.614 109.537 106.294 108.964C106.832 108.498 107.27 108.266 107.61 108.266C108.094 108.266 108.335 108.498 108.335 108.964C108.335 109.59 107.888 110.325 106.993 111.166C105.525 112.527 104.397 113.207 103.609 113.207C102.624 113.207 101.845 112.571 101.272 111.3C100.843 110.333 100.61 109.268 100.574 108.104L100.359 108.212C100.341 108.552 100.333 108.839 100.333 109.071C100.333 110.575 100.717 111.963 101.487 113.234C101.863 113.861 102.257 114.335 102.669 114.657C101.81 115.552 101.04 116 100.359 116C99.3747 116 98.6227 115.167 98.1035 113.502C97.7275 112.285 97.5396 111.05 97.5396 109.796C97.5396 108.078 97.826 106.117 98.3989 103.915C98.578 103.253 98.6675 102.886 98.6675 102.814C98.6675 102.528 98.5422 102.384 98.2915 102.384C96.7876 102.384 95.5791 103.942 94.666 107.057C93.9678 109.385 93.6187 111.524 93.6187 113.476V115.221C93.6187 115.902 93.2069 116.242 92.3833 116.242C91.9894 116.242 91.5597 116.188 91.0942 116.081C91.0226 115.15 90.9868 113.977 90.9868 112.562C90.9868 111.256 91.0226 110.181 91.0942 109.34L90.8794 109.313C90.5034 111.193 90.3154 112.974 90.3154 114.657C90.3154 115.033 90.3333 115.472 90.3691 115.973C89.3486 115.615 88.6862 115.311 88.3818 115.06C87.8984 114.648 87.6567 114.004 87.6567 113.126C87.6567 108.454 88.4087 103.879 89.9126 99.4033C90.1812 98.5798 90.3691 98.0695 90.4766 97.8726C90.9421 96.9416 91.7746 96.4761 92.9741 96.4761C93.189 96.4761 93.3411 96.485 93.4307 96.5029C92.6608 98.347 92.061 100.612 91.6313 103.297L91.9805 103.244C92.1953 102.348 92.5176 101.301 92.9473 100.102C93.0905 99.7077 93.368 98.9647 93.7798 97.8726L94.1826 96.7715C94.9346 96.6104 95.5522 96.5298 96.0356 96.5298C96.4474 96.5298 96.6533 96.7088 96.6533 97.0669C96.5459 97.3175 96.152 98.3649 95.4717 100.209C95.0957 101.229 94.8361 102.089 94.6929 102.787ZM116.392 118.229C114.906 118.605 113.626 119.527 112.552 120.995C111.478 122.463 110.94 123.976 110.94 125.534C110.94 126.59 111.343 127.118 112.149 127.118C113.277 127.118 114.53 124.782 115.909 120.109C116.034 119.679 116.195 119.053 116.392 118.229ZM113.116 115.006C112.453 115.83 111.701 116.242 110.86 116.242C109.642 116.242 108.711 115.526 108.067 114.093C107.566 112.965 107.315 111.721 107.315 110.36C107.315 108.284 107.861 106.153 108.953 103.969C110.063 101.767 111.469 100.119 113.169 99.0273C112.292 100.746 111.755 102.348 111.558 103.834H111.88C112.579 100.898 113.903 98.7051 115.855 97.2549C116.75 96.5924 117.681 96.2612 118.648 96.2612C119.955 96.2612 120.949 96.8431 121.629 98.0068C121.933 98.526 122.085 99.1079 122.085 99.7524C122.085 100.755 121.459 101.4 120.206 101.686C120.241 101.435 120.259 101.229 120.259 101.068C120.259 100.137 119.883 99.3496 119.131 98.7051L118.97 99.0005C119.418 99.4481 119.642 100.03 119.642 100.746C119.642 101.785 119.087 102.304 117.977 102.304H117.574C117.806 101.713 117.923 101.221 117.923 100.827C117.923 100.093 117.636 99.7256 117.063 99.7256C116.329 99.7256 115.569 100.621 114.781 102.411C113.85 104.542 113.384 106.475 113.384 108.212C113.384 109.68 113.823 110.414 114.7 110.414C116.186 110.414 117.153 108.722 117.601 105.338C117.708 104.569 117.896 104.058 118.165 103.808C118.451 103.539 118.997 103.342 119.803 103.217C119.856 103.718 119.883 104.398 119.883 105.258C119.883 106.977 119.839 108.642 119.749 110.253L119.722 110.736L120.098 110.656C120.456 108.257 120.635 105.858 120.635 103.458V102.921C120.707 102.886 120.796 102.85 120.904 102.814C120.922 102.796 120.949 102.787 120.984 102.787H121.011C121.638 102.59 122.032 102.492 122.193 102.492C122.927 102.492 123.294 103.539 123.294 105.634C123.294 111.291 122.041 116.931 119.534 122.553C118.317 125.274 117.081 127.02 115.828 127.79C116.884 125.265 117.538 123.206 117.789 121.613L117.466 121.64C115.819 127.387 113.671 130.26 111.021 130.26C109.338 130.26 108.497 129.258 108.497 127.252C108.497 126.321 108.694 125.399 109.087 124.486L108.846 124.352C108.237 125.39 107.933 126.635 107.933 128.085C107.933 129.857 108.586 130.914 109.893 131.254C109.41 131.755 108.828 132.006 108.147 132.006C107.002 132.006 106.169 131.433 105.65 130.287C105.417 129.768 105.301 129.159 105.301 128.461C105.301 126.814 105.954 125.077 107.261 123.251C108.353 121.729 109.687 120.395 111.263 119.25C112.999 117.996 114.817 117.164 116.714 116.752C117.019 115.427 117.171 113.923 117.171 112.24C117.171 112.33 117.153 112.016 117.117 111.3C116.329 113.001 115.327 113.852 114.109 113.852C112.122 113.852 111.128 112.357 111.128 109.367C111.128 109.188 111.137 109.062 111.155 108.991L110.86 108.964C110.806 109.465 110.779 109.85 110.779 110.119C110.779 112.768 111.558 114.398 113.116 115.006ZM131.458 99.8599C132.264 98.2127 132.926 96.682 133.445 95.2676C133.857 94.1217 134.314 93.5488 134.815 93.5488C135.71 93.5488 136.158 93.9696 136.158 94.811C136.158 95.0796 136.068 95.4466 135.889 95.9121L135.433 97.1206C135.164 97.8368 135.03 98.3918 135.03 98.7856C135.03 99.3765 135.316 100.066 135.889 100.854L137.205 102.68C138.494 104.47 139.139 106.332 139.139 108.266C139.139 111.202 138.235 113.055 136.426 113.825C136.713 112.571 136.856 111.605 136.856 110.924C136.856 109.438 136.534 108.122 135.889 106.977L135.647 107.245C136.095 108.194 136.319 109.215 136.319 110.307C136.319 112.634 135.567 114.407 134.063 115.624C133.383 116.179 132.622 116.457 131.78 116.457C129.668 116.457 128.37 115.141 127.886 112.509L127.591 112.375C127.645 113.646 128.003 114.774 128.665 115.758C127.412 115.4 126.445 114.612 125.765 113.395C125.156 112.321 124.852 111.085 124.852 109.689C124.852 107.541 125.335 106.466 126.302 106.466C126.696 106.466 127.197 106.851 127.806 107.621C127.555 108.266 127.43 108.883 127.43 109.474C127.43 109.617 127.439 109.725 127.457 109.796V110.28L127.698 110.307C127.698 108.427 128.074 107.487 128.826 107.487C129.345 107.487 129.909 107.89 130.518 108.695C130.178 109.304 130.008 109.949 130.008 110.629C130.008 112.759 130.617 113.825 131.834 113.825C133.034 113.825 133.633 112.876 133.633 110.978C133.633 108.722 132.72 106.681 130.894 104.855C130.303 105.643 129.802 106.037 129.39 106.037C128.817 106.037 128.531 105.768 128.531 105.231C128.531 105.034 128.647 104.748 128.88 104.372L129.471 103.432C129.918 102.733 130.375 101.937 130.84 101.042L131.082 100.585C132.299 101.319 133.454 102.671 134.546 104.64L134.734 104.425C134.161 102.886 133.069 101.364 131.458 99.8599Z" fill="white"/>
<path d="M22.3984 46.6523C18.375 48.293 15.1914 49.1133 12.8477 49.1133C10.6602 49.1133 8.88281 48.4492 7.51562 47.1211C6.14844 45.793 5.46484 44.0352 5.46484 41.8477C5.46484 40.0508 5.99219 38.625 7.04688 37.5703C7.47656 40.8516 9.87891 42.4922 14.2539 42.4922C14.918 42.4922 15.8555 42.4336 17.0664 42.3164V41.6719C16.793 41.7109 16.3633 41.7305 15.7773 41.7305C10.9727 41.7305 8.57031 40.1484 8.57031 36.9844C8.57031 34.5234 10.2109 32.3945 13.4922 30.5977C15.9922 29.2305 18.7266 28.3125 21.6953 27.8438L21.9883 28.5469C17.2227 29.9922 14.8398 32.1406 14.8398 34.9922C14.8398 36.125 15.3281 37.0625 16.3047 37.8047C17.2812 38.5078 18.3359 38.8594 19.4688 38.8594C20.0547 38.8594 21.4414 38.7031 23.6289 38.3906L24.0391 38.332L24.0977 37.9219L24.5664 34.9922C25.1523 31.3203 25.4453 27.668 25.4453 24.0352C25.4453 19.6602 24.4492 17.4727 22.457 17.4727C21.7539 17.4727 20.7578 17.8633 19.4688 18.6445C18.2188 19.4258 17.4375 19.8164 17.125 19.8164C15.9531 19.8164 15.3672 19.1719 15.3672 17.8828C15.3672 16.2031 16.5781 14.2305 19 11.9648C21.4609 9.69922 23.5508 8.56641 25.2695 8.56641C28.043 8.56641 29.8984 10.2852 30.8359 13.7227C31.3438 15.5977 31.6562 18.0977 31.7734 21.2227C31.7734 21.418 31.793 21.7695 31.832 22.2773L32.418 22.1016C32.457 21.75 32.4766 21.1836 32.4766 20.4023C32.4766 11.8086 30.2695 7.12109 25.8555 6.33984C28.082 3.87891 30.3086 2.64844 32.5352 2.64844C37.0273 2.64844 39.2734 7.72656 39.2734 17.8828C39.2734 23.4688 38.7852 29.6797 37.8086 36.5156L37.75 36.9258C39.2734 36.457 41.2656 36.2227 43.7266 36.2227C45.7188 36.2227 47.5938 36.457 49.3516 36.9258L49.5859 35.8711C50.5625 31.4961 52.4375 23.6445 55.2109 12.3164C55.8359 9.93359 56.4609 8.11719 57.0859 6.86719C58.1797 4.64062 59.5664 3.52734 61.2461 3.52734C62.2617 3.52734 63.5312 3.74219 65.0547 4.17188C62.4766 10.1094 60.6406 16.1641 59.5469 22.3359L60.1328 22.4531C60.7578 20.3047 61.5195 18.0195 62.418 15.5977L64.4102 10.3242C65.3086 7.94141 66.1289 5.96875 66.8711 4.40625C67.2227 4.44531 67.4961 4.50391 67.6914 4.58203C70.4258 5.08984 71.793 6.06641 71.793 7.51172C71.793 8.41016 71.4023 10.0117 70.6211 12.3164C66.7539 23.8008 63.8633 35.4219 61.9492 47.1797C60.8164 54.1328 60.25 60.7148 60.25 66.9258C60.25 68.293 60.2695 69.2305 60.3086 69.7383C60.4258 71.2227 60.4844 72.3359 60.4844 73.0781C60.4844 75.0312 59.7812 76.3398 58.375 77.0039C57.7109 77.3164 56.0898 77.6289 53.5117 77.9414C53.1602 75.2852 52.9844 72.3359 52.9844 69.0938C52.9844 65.8125 53.1797 62.5117 53.5703 59.1914L53.6875 58.1953H53.1016C52.2031 63.4688 51.7539 68.7617 51.7539 74.0742C51.7539 73.6055 51.793 74.9336 51.8711 78.0586C49.8398 78.293 48.4336 78.4102 47.6523 78.4102C45.3867 78.4102 44.2539 77.2578 44.2539 74.9531C44.2539 73.8203 44.5273 70.7344 45.0742 65.6953C45.543 61.3984 46.5781 53.8984 48.1797 43.1953L48.3555 42.0234C46.7539 41.75 45.25 41.6133 43.8438 41.6133C41.7734 41.6133 39.625 41.9258 37.3984 42.5508L36.9883 42.6094L36.9297 43.0195C36.9297 43.0586 36.8516 43.5273 36.6953 44.4258C35.5234 51.3008 34.0977 58.8594 32.418 67.1016C30.9727 74.0547 29.7422 78.0781 28.7266 79.1719C28.1797 79.7188 27.418 79.9922 26.4414 79.9922C24.918 79.9922 23.2188 79.6406 21.3438 78.9375L21.5781 78.293C22.7109 75.207 23.9805 71.2031 25.3867 66.2812C26.0508 63.9375 26.5 62.0234 26.7344 60.5391L26.207 60.4219C25.2305 64.3672 23.5508 69.1914 21.168 74.8945C20.582 76.3398 20.0352 77.4922 19.5273 78.3516C16.207 77.1797 14.5469 75.7148 14.5469 73.957C14.5469 73.2539 15.0156 71.5742 15.9531 68.918C17.9844 63.2148 20.0742 56.0273 22.2227 47.3555L22.3984 46.6523ZM116.617 36.2227L116.676 38.625C117.887 36.3203 119 33.2734 120.016 29.4844C120.719 26.8281 121.07 25.0117 121.07 24.0352C121.07 22.9805 120.699 22.4531 119.957 22.4531C119.176 22.4531 118.512 23.4883 117.965 25.5586C116.988 29.2305 116.539 32.7852 116.617 36.2227ZM130.797 73.957C128.062 77.707 124.82 79.582 121.07 79.582C114.469 79.582 110.055 74.2695 107.828 63.6445L107.594 62.5312C99.9766 73.8984 93.6875 79.582 88.7266 79.582C87.6328 79.582 86.5 79.3281 85.3281 78.8203C87.3203 74.3672 88.668 69.3086 89.3711 63.6445L88.7852 63.4688C87.6523 69.3281 86.0898 74.2305 84.0977 78.1758C81.0117 76.418 79.4688 74.7383 79.4688 73.1367C79.4688 72.3164 79.625 71.1836 79.9375 69.7383C82.4766 58.0195 83.7461 47.9219 83.7461 39.4453C83.7461 32.5312 83.1602 27.1602 81.9883 23.332C81.207 20.7539 79.9375 19.4648 78.1797 19.4648C76.9297 19.4648 75.8359 20.3242 74.8984 22.043C74.3125 23.0977 73.6484 23.625 72.9062 23.625C71.6172 23.625 70.9727 22.7461 70.9727 20.9883C70.9727 18.5273 71.8516 16.125 73.6094 13.7812C75.4844 11.2422 77.6133 9.97266 79.9961 9.97266C84.8008 9.97266 87.6328 13.8008 88.4922 21.457L89.2539 21.2812C88.3164 12.4531 85.2695 7.98047 80.1133 7.86328C81.9102 4.50391 84.0391 2.82422 86.5 2.82422C91.8125 2.82422 95.3477 7.96094 97.1055 18.2344C98.0039 23.4688 98.4531 29.582 98.4531 36.5742C98.4531 48.4102 97.2227 58.8789 94.7617 67.9805C98.082 64.9336 101.949 60.1484 106.363 53.625C106.246 51.75 106.188 50.3047 106.188 49.2891C106.188 44.1328 106.812 38.6445 108.062 32.8242C108.766 29.582 109.859 26.7305 111.344 24.2695C111.148 27.707 111.051 29.8945 111.051 30.832C111.051 32.3945 111.148 33.8008 111.344 35.0508L111.812 34.6406V34.1719C111.812 26.3203 113.355 20.5977 116.441 17.0039C117.926 15.2852 119.508 14.4258 121.188 14.4258C124.742 14.4258 126.52 17.1406 126.52 22.5703C126.52 28.9375 123.629 37.5703 117.848 48.4688C119.605 59.4844 122.516 64.9922 126.578 64.9922C129.82 64.9922 132.809 62.1406 135.543 56.4375C136.988 53.4688 138.199 50.207 139.176 46.6523C141.52 38.2148 142.691 31.1836 142.691 25.5586C142.691 21.6133 141.754 19.6406 139.879 19.6406C139.02 19.6406 138.355 20.168 137.887 21.2227L137.418 22.2773C136.988 23.2539 136.285 23.7422 135.309 23.7422C133.707 23.7422 132.906 22.4922 132.906 19.9922C132.906 17.7656 133.473 15.9102 134.605 14.4258C135.855 12.7852 137.555 11.9648 139.703 11.9648C142.164 11.9648 144.078 13.4688 145.445 16.4766L145.914 16.0664C144.82 12.043 142.535 10.0312 139.059 10.0312C137.73 10.0312 136.461 10.4805 135.25 11.3789C135.211 11.2227 135.191 10.9492 135.191 10.5586C135.191 8.76172 135.895 7.17969 137.301 5.8125C138.707 4.40625 140.309 3.70312 142.105 3.70312C147.73 3.70312 150.543 8.83984 150.543 19.1133C150.543 29.8164 148.551 40.7344 144.566 51.8672C142.73 56.9844 140.465 61.418 137.77 65.168C133.98 70.4023 130.055 73.0195 125.992 73.0195C121.773 73.0195 118.727 70.6367 116.852 65.8711L116.207 66.1641C118.082 71.75 121.441 74.543 126.285 74.543C127.574 74.543 129.078 74.3477 130.797 73.957Z" fill="#DF2E83"/>
</svg>
