<svg width="22" height="22" viewBox="0 0 22 22" fill="none" xmlns="http://www.w3.org/2000/svg">
<g clip-path="url(#clip0)">
<path d="M12.9444 9.74298C14.0184 10.817 14.0184 12.5582 12.9444 13.6322C11.8705 14.7062 10.1292 14.7062 9.05524 13.6322C7.98126 12.5582 7.98126 10.817 9.05524 9.74298C10.1292 8.66901 11.8705 8.66901 12.9444 9.74298Z" fill="#FFF500"/>
<path d="M19.2499 4.12485H17.3498L15.9741 1.37476H6.02455L4.65015 4.1262L2.75275 4.12958C1.24009 4.13228 0.00869271 5.36498 0.00738656 6.87832L0 17.8746C0 19.3913 1.23337 20.6254 2.7501 20.6254H19.2499C20.7667 20.6254 22 19.392 22 17.8753V6.8749C22 5.35823 20.7666 4.12485 19.2499 4.12485ZM10.9997 17.1877C7.9669 17.1877 5.49947 14.7203 5.49947 11.6876C5.49947 8.65479 7.9669 6.18737 10.9997 6.18737C14.0324 6.18737 16.4999 8.65479 16.4999 11.6876C16.4999 14.7203 14.0324 17.1877 10.9997 17.1877Z" fill="#FFF500"/>
</g>
<defs>
<clipPath id="clip0">
<rect width="22" height="22" fill="white"/>
</clipPath>
</defs>
</svg>
