<svg width="116" height="116" viewBox="0 0 116 116" fill="none" xmlns="http://www.w3.org/2000/svg">
<circle cx="58" cy="58" r="57" stroke="white" stroke-width="2"/>
<path d="M35.201 68.4216L42.6153 62.117C42.6496 62.088 42.6859 62.0613 42.7236 62.0373C44.6687 60.7991 47.1662 61.0733 48.797 62.7037L52.8394 66.7458C53.1194 67.0262 53.5371 67.109 53.9034 66.9579C58.468 65.0696 62.2179 62.2269 65.0488 58.5095C67.2075 55.6748 67.9857 53.4222 68.0883 53.1048C68.1005 53.0369 68.12 52.9694 68.1474 52.9034C68.2989 52.5372 68.2161 52.1202 67.9353 51.8403L63.8933 47.7971C62.2625 46.1663 61.9886 43.6688 63.2269 41.7237C63.2368 41.708 63.2471 41.6928 63.2578 41.6775L68.6121 34.237C70.2966 31.6235 73.966 31.2287 76.1682 33.4305L76.9777 34.24C76.9781 34.2408 76.9788 34.2415 76.9796 34.2419L79.8696 37.1319C83.3158 40.5785 83.8796 45.7573 81.4996 52.1096C79.4611 57.5508 75.3801 63.506 70.0086 68.8774C64.5101 74.3759 58.394 78.5324 52.7872 80.5813C47.2376 82.6088 41.3343 82.8587 37.1561 78.6801L34.4305 75.9548C32.2382 73.7622 32.6208 70.1168 35.201 68.4216ZM43.8253 63.6513L36.4175 69.9505C36.3836 69.9795 36.3474 70.0062 36.3096 70.0302C34.7273 71.0377 34.4877 73.2502 35.8118 74.5739L36.014 74.7765L48.6486 65.3168L47.4161 64.0847C46.4529 63.1211 44.985 62.9467 43.8253 63.6513ZM70.2436 35.31C70.2337 35.3257 70.2234 35.3413 70.2127 35.3562L64.8607 42.7941C64.1336 43.9579 64.3018 45.4438 65.2742 46.4161L66.4686 47.6109L75.0166 35.0407L74.7873 34.8114C73.4579 33.482 71.2473 33.7334 70.2436 35.31ZM52.1173 78.7468C57.4625 76.7937 63.326 72.7982 68.6277 67.4965C73.8065 62.3181 77.7284 56.6101 79.6713 51.4244C81.1296 47.5319 82.1081 42.1322 78.4887 38.5132L76.4223 36.4464L67.8743 49.0166L69.3159 50.4589C70.136 51.2776 70.3939 52.4891 69.9846 53.5679C69.6764 54.8329 68.2581 57.4585 66.8272 59.3933C64.7215 62.2406 60.8995 66.177 54.6499 68.7626C53.5516 69.217 52.2993 68.9675 51.4585 68.1271L50.0436 66.7118L37.409 76.1715L38.537 77.2991C42.4169 81.1795 48.0634 80.2281 52.1173 78.7468Z" fill="white"/>
</svg>
