<svg width="43" height="43" viewBox="0 0 43 43" fill="none" xmlns="http://www.w3.org/2000/svg">
<circle cx="21.5" cy="21.5" r="21" stroke="#FFE500"/>
<path d="M20.1215 27.8573C19.129 28.8499 19.129 30.46 20.1215 31.4527C21.1145 32.4452 22.7244 32.4452 23.7174 31.4527C24.7098 30.46 24.7098 28.8499 23.7174 27.8573C22.7244 26.8646 21.1145 26.8646 20.1215 27.8573Z" fill="white"/>
<path d="M21.9195 21.8113C19.8248 21.8113 17.8543 22.6272 16.3739 24.109C15.7924 24.6902 15.7924 25.6324 16.3739 26.2133C16.955 26.7946 17.8968 26.7946 18.4783 26.2133C19.3965 25.2938 20.619 24.7876 21.9195 24.7876C23.2199 24.7876 24.4425 25.2938 25.3607 26.2133C25.6517 26.504 26.0334 26.6492 26.4131 26.6492C26.7948 26.6492 27.1745 26.504 27.465 26.2133C28.0466 25.6324 28.0466 24.6903 27.465 24.109C25.9846 22.6272 24.0141 21.8113 21.9195 21.8113Z" fill="white"/>
<path d="M21.9194 16.9111C18.5152 16.9111 15.3149 18.2369 12.9082 20.6439C12.3271 21.2252 12.3271 22.1675 12.9082 22.7483C13.4897 23.3296 14.4319 23.3296 15.0125 22.7483C16.857 20.9032 19.3104 19.8873 21.9194 19.8873C24.5274 19.8873 26.9807 20.9032 28.8253 22.7483C29.1158 23.039 29.4975 23.1843 29.8772 23.1843C30.2589 23.1843 30.6392 23.039 30.9297 22.7483C31.5107 22.1675 31.5107 21.2252 30.9297 20.6439C28.523 18.2369 25.3237 16.9111 21.9194 16.9111Z" fill="white"/>
<path d="M34.4031 17.1716C31.0691 13.8364 26.6359 12 21.9195 12C17.203 12 12.7698 13.8364 9.43581 17.1716C8.85473 17.7529 8.85473 18.6952 9.43581 19.276C9.72682 19.5666 10.1075 19.7118 10.4882 19.7118C10.8689 19.7118 11.2507 19.5666 11.5402 19.276C14.3121 16.503 17.9987 14.9762 21.9195 14.9762C25.8402 14.9762 29.5257 16.503 32.2978 19.276C32.8788 19.8573 33.8205 19.8567 34.4022 19.2765C34.9831 18.6952 34.9831 17.7529 34.4031 17.1716Z" fill="white"/>
</svg>
