<svg width="17" height="17" viewBox="0 0 17 17" fill="none" xmlns="http://www.w3.org/2000/svg">
<g clip-path="url(#clip0)">
<path d="M1.79994 8.29082C1.79994 8.29082 2.47158 9.27752 3.87925 10.1127C3.87925 10.1127 2.85975 1.49643 9.50247 0C7.80058 6.24621 11.6673 8.00773 13.0768 4.70774C15.4307 7.85045 13.6435 10.5923 13.6435 10.5923C14.6086 10.7313 15.4194 9.67688 15.4194 9.67688C15.4266 9.80678 15.4307 9.93756 15.4307 10.0693C15.4307 13.897 12.3277 17 8.49997 17C4.67221 17 1.56921 13.897 1.56921 10.0692C1.56921 9.45439 1.6497 8.85839 1.79994 8.29082Z" fill="#FF6536"/>
<path d="M15.4195 9.67688C15.4195 9.67688 14.6087 10.7313 13.6435 10.5923C13.6435 10.5923 15.4308 7.85045 13.0769 4.70774C11.6674 8.00773 7.80064 6.24621 9.50253 0C9.14676 0.0801523 8.81314 0.180857 8.5 0.299426V17C12.3278 17 15.4308 13.897 15.4308 10.0692C15.4308 9.93753 15.4267 9.80678 15.4195 9.67688Z" fill="#FF421D"/>
<path d="M5.46045 13.9605C5.46045 15.6391 6.82131 17 8.5 17C10.1787 17 11.5395 15.6391 11.5395 13.9605C11.5395 13.0619 11.1497 12.2545 10.5299 11.6981C9.35471 13.2946 7.68001 10.8728 8.98516 9.10417C8.98516 9.10417 5.46045 9.54587 5.46045 13.9605Z" fill="#FBBF00"/>
<path d="M11.5395 13.9605C11.5395 13.0619 11.1497 12.2545 10.5299 11.6981C9.35471 13.2946 7.68002 10.8728 8.98516 9.10417C8.98516 9.10417 8.79365 9.12824 8.5 9.22091V17C10.1787 17 11.5395 15.6391 11.5395 13.9605Z" fill="#FFA900"/>
</g>
<defs>
<clipPath id="clip0">
<rect width="17" height="17" fill="white"/>
</clipPath>
</defs>
</svg>
