<svg width="148" height="51" fill="none" xmlns="http://www.w3.org/2000/svg"><path d="M74.15 12.302V16h-1.73V6.047h3.808c1.112 0 1.993.29 2.645.868.656.579.984 1.345.984 2.297 0 .975-.32 1.734-.963 2.276-.639.543-1.534.814-2.687.814h-2.058zm0-1.388h2.078c.615 0 1.084-.143 1.408-.43.323-.292.485-.711.485-1.258 0-.538-.164-.966-.492-1.285-.328-.324-.78-.49-1.354-.5H74.15v3.473zm6.658 1.32c0-.725.143-1.377.43-1.956a3.12 3.12 0 0 1 1.21-1.34c.52-.314 1.117-.471 1.791-.471.998 0 1.807.321 2.427.964.624.642.962 1.495 1.012 2.556l.007.39c0 .73-.142 1.38-.424 1.955a3.08 3.08 0 0 1-1.203 1.333c-.52.315-1.122.472-1.805.472-1.044 0-1.88-.347-2.509-1.04-.624-.697-.936-1.624-.936-2.781v-.083zm1.66.143c0 .761.158 1.358.472 1.791.315.429.752.643 1.313.643.56 0 .996-.22 1.306-.657.314-.437.471-1.077.471-1.92 0-.748-.162-1.34-.485-1.778-.32-.437-.754-.656-1.306-.656a1.52 1.52 0 0 0-1.292.65c-.319.428-.478 1.07-.478 1.927zm10.767 1.613a.751.751 0 0 0-.369-.676c-.241-.155-.645-.292-1.21-.41-.565-.119-1.037-.27-1.415-.452-.83-.4-1.244-.982-1.244-1.743 0-.638.269-1.171.807-1.6.537-.428 1.221-.642 2.05-.642.885 0 1.598.219 2.14.656.547.438.82 1.005.82 1.702h-1.66c0-.319-.12-.583-.356-.793-.237-.214-.552-.32-.944-.32-.364 0-.663.083-.895.252a.8.8 0 0 0-.342.677c0 .255.107.453.322.595.214.14.647.284 1.298.43.652.141 1.162.312 1.532.513.373.196.649.433.827.71.182.279.273.616.273 1.013 0 .665-.276 1.205-.827 1.62-.551.41-1.274.615-2.167.615-.606 0-1.146-.11-1.62-.328-.474-.219-.843-.52-1.108-.903a2.135 2.135 0 0 1-.396-1.237h1.613c.023.392.171.695.445.91.273.209.635.314 1.087.314.437 0 .77-.082.998-.246a.781.781 0 0 0 .341-.657zm5.168-7.184v1.798h1.306v1.23h-1.306v4.129c0 .283.055.488.164.615.114.123.315.185.602.185.191 0 .385-.023.581-.069v1.286a4.092 4.092 0 0 1-1.094.157c-1.276 0-1.914-.704-1.914-2.113v-4.19h-1.217v-1.23h1.217V6.806h1.661zm5.838 9.33c-1.053 0-1.907-.33-2.563-.99-.652-.666-.978-1.55-.978-2.653v-.205c0-.738.141-1.397.424-1.975a3.27 3.27 0 0 1 1.203-1.36 3.172 3.172 0 0 1 1.723-.486c1.007 0 1.784.321 2.331.964.551.642.827 1.552.827 2.727v.67h-4.833c.05.61.253 1.094.608 1.45.36.355.812.533 1.354.533.761 0 1.381-.308 1.859-.923l.896.854a3.009 3.009 0 0 1-1.19 1.032 3.72 3.72 0 0 1-1.661.363zm-.198-6.336c-.456 0-.825.16-1.107.478-.278.32-.456.764-.534 1.333h3.165v-.123c-.036-.556-.184-.975-.444-1.257-.26-.288-.62-.431-1.08-.431zm4.149 2.447c0-1.14.265-2.053.793-2.741.529-.693 1.238-1.04 2.126-1.04.784 0 1.418.274 1.901.821V5.5h1.661V16h-1.504l-.082-.765c-.497.601-1.16.902-1.989.902-.866 0-1.568-.349-2.106-1.046-.533-.697-.8-1.645-.8-2.844zm1.662.144c0 .752.143 1.34.43 1.763.292.42.704.63 1.237.63.68 0 1.176-.304 1.491-.91v-3.158c-.306-.592-.798-.889-1.477-.889-.538 0-.952.214-1.244.643-.292.424-.437 1.064-.437 1.92zm9.727-.158c0-.724.144-1.376.431-1.955.287-.583.69-1.03 1.21-1.34.519-.314 1.116-.471 1.791-.471.998 0 1.807.321 2.426.964.625.642.962 1.495 1.012 2.556l.007.39c0 .73-.141 1.38-.424 1.955a3.08 3.08 0 0 1-1.203 1.333c-.519.315-1.121.472-1.805.472-1.043 0-1.88-.347-2.508-1.04-.625-.697-.937-1.624-.937-2.781v-.083zm1.661.144c0 .761.157 1.358.472 1.791.314.429.752.643 1.312.643.561 0 .996-.22 1.306-.657.314-.437.472-1.077.472-1.92 0-.748-.162-1.34-.486-1.778-.319-.437-.754-.656-1.305-.656a1.52 1.52 0 0 0-1.292.65c-.319.428-.479 1.07-.479 1.927zm8.162-3.773l.048.854c.547-.66 1.265-.991 2.153-.991 1.541 0 2.325.882 2.352 2.645V16h-1.661v-4.792c0-.47-.103-.816-.308-1.039-.2-.228-.531-.342-.991-.342-.67 0-1.169.303-1.497.91V16h-1.661V8.604h1.565z" fill="#A7A7A7"/><path d="M12.361 25.5c0-2.526.697-4.893 1.906-6.92V9.983H5.67C2.258 14.414.408 19.815.408 25.5c0 5.686 1.85 11.087 5.262 15.518h8.597v-8.597a13.465 13.465 0 0 1-1.906-6.92z" fill="#FFBA00"/><path d="M25.908 39.047l-5.976 5.976L25.908 51c5.686 0 11.087-1.85 15.518-5.262V37.15h-8.588a13.545 13.545 0 0 1-6.93 1.897z" fill="#00AC47"/><path d="M14.267 32.42L5.67 41.019a25.904 25.904 0 0 0 2.207 2.514C12.693 48.348 19.097 51 25.908 51V39.047c-4.943 0-9.275-2.661-11.641-6.626z" fill="#00AC47"/><path d="M51.408 25.5c0-1.551-.14-3.105-.417-4.62l-.224-1.224H25.908v11.953h12.098a13.485 13.485 0 0 1-5.168 5.542l8.588 8.588a25.91 25.91 0 0 0 2.514-2.207c4.816-4.817 7.468-11.22 7.468-18.032z" fill="#3174F1"/><path d="M35.487 15.921l1.057 1.056 8.452-8.452L43.94 7.47C39.123 2.653 32.72 0 25.908 0l-5.976 5.977 5.976 5.976c3.619 0 7.02 1.41 9.58 3.968z" fill="#FC2C25"/><path d="M25.908 11.953V0C19.097 0 12.693 2.653 7.877 7.47A25.882 25.882 0 0 0 5.67 9.983l8.597 8.597c2.366-3.965 6.698-6.627 11.641-6.627z" fill="#FC2C25"/><path d="M90.17 31.865h-8.905v2.65h6.316c-.313 3.718-3.395 5.303-6.305 5.303-3.723 0-6.971-2.938-6.971-7.057 0-4.012 3.096-7.103 6.98-7.103 2.995 0 4.76 1.916 4.76 1.916l1.85-1.922S85.521 23 81.19 23c-5.515 0-9.782 4.67-9.782 9.714 0 4.942 4.013 9.761 9.922 9.761 5.197 0 9-3.571 9-8.852 0-1.115-.16-1.759-.16-1.759v.001zm7.28-1.959c-3.664 0-6.29 2.846-6.29 6.165 0 3.368 2.547 6.266 6.333 6.266 3.428 0 6.236-2.602 6.236-6.194 0-4.117-3.267-6.237-6.279-6.237zm.036 2.442c1.802 0 3.51 1.447 3.51 3.779 0 2.282-1.7 3.77-3.518 3.77-1.997 0-3.572-1.588-3.572-3.788 0-2.153 1.556-3.761 3.58-3.761zm13.569-2.442c-3.624 0-6.221 2.846-6.221 6.165 0 3.368 2.519 6.266 6.264 6.266 3.39 0 6.167-2.602 6.167-6.194 0-4.117-3.231-6.237-6.21-6.237zm.036 2.442c1.782 0 3.471 1.447 3.471 3.779 0 2.282-1.681 3.77-3.479 3.77-1.975 0-3.533-1.588-3.533-3.788 0-2.153 1.539-3.761 3.541-3.761zm13.292-2.442c-3.367 0-6.013 2.938-6.013 6.235 0 3.756 3.068 6.247 5.955 6.247 1.785 0 2.734-.706 3.435-1.516v1.23c0 2.153-1.312 3.442-3.292 3.442-1.914 0-2.873-1.417-3.207-2.221l-2.407 1.002c.854 1.8 2.573 3.675 5.633 3.675 3.348 0 5.899-2.1 5.899-6.506V30.281h-2.626v1.058c-.807-.867-1.912-1.433-3.377-1.433zm.244 2.446c1.65 0 3.345 1.405 3.345 3.803 0 2.437-1.691 3.78-3.382 3.78-1.795 0-3.465-1.452-3.465-3.757 0-2.396 1.735-3.826 3.502-3.826zm17.391-2.446c-3.169 0-5.831 2.505-5.831 6.201 0 3.91 2.967 6.23 6.136 6.23 2.644 0 4.268-1.437 5.236-2.725l-2.161-1.428c-.56.865-1.498 1.71-3.062 1.71-1.758 0-2.566-.956-3.066-1.882l8.382-3.455-.436-1.012c-.809-1.983-2.698-3.638-5.198-3.638zm.109 2.388c1.142 0 1.964.603 2.313 1.326l-5.597 2.324c-.241-1.799 1.475-3.65 3.284-3.65zm-9.945 9.766h2.762V23.69h-2.762v18.37z" fill="#4A8AF4"/></svg>