<svg width="27" height="27" viewBox="0 0 27 27" fill="none" xmlns="http://www.w3.org/2000/svg">
<g clip-path="url(#clip0)">
<path d="M24.1875 15.1875C25.7377 15.1875 27 13.9252 27 12.375V3.375C27 1.82477 25.7377 0.562515 24.1875 0.562515H20.8125C20.1791 0.562515 19.5964 0.776248 19.125 1.13178V15.1875H24.1875Z" fill="#9D9D9D"/>
<path d="M1.90735e-05 10.9688C1.90735e-05 11.6449 0.267752 12.2749 0.732395 12.7395C0.207003 13.3144 -0.0607319 14.0851 0.0124111 14.8871C0.144037 16.317 1.43218 17.4375 2.94639 17.4375H9.89552C9.55127 18.4827 9.00004 20.3985 9.00004 21.9375C9.00004 24.3776 11.0734 26.4375 12.375 26.4375C13.5439 26.4375 14.3787 25.7794 14.4146 25.7524C14.5474 25.6455 14.625 25.4835 14.625 25.3125V21.4977L17.865 14.4788L18 14.4102V2.35239C17.0843 1.92039 15.9255 1.68752 15.1875 1.68752H4.86113C3.636 1.68752 2.56386 2.51328 2.3119 3.65288C2.18254 4.23902 2.25789 4.82964 2.5155 5.34264C1.68414 5.76114 1.125 6.61728 1.125 7.59377C1.125 7.99202 1.21613 8.37339 1.38936 8.71875C0.558002 9.13725 1.90735e-05 9.99339 1.90735e-05 10.9688Z" fill="#9D9D9D"/>
</g>
<defs>
<clipPath id="clip0">
<rect width="27" height="27" fill="white" transform="translate(27 27) rotate(-180)"/>
</clipPath>
</defs>
</svg>
