<svg width="34" height="34" viewBox="0 0 34 34" fill="none" xmlns="http://www.w3.org/2000/svg">
<g clip-path="url(#clip0)">
<path d="M17 0C7.60984 0 0 7.60984 0 17C0 22.0665 2.21535 26.6177 5.73583 29.7366C8.74094 32.387 12.6831 34 17 34C21.3236 34 25.2657 32.387 28.2642 29.7299C31.7846 26.6177 34 22.0665 34 17C34 7.60984 26.3902 0 17 0Z" fill="#D9D9D9"/>
<path d="M26.9323 28.3512C26.0622 27.702 24.4827 26.6244 22.7626 25.828C21.0425 25.0382 20.0319 23.1843 20.3063 21.3169C20.3063 21.2902 20.313 21.2634 20.3197 21.2299C20.3197 21.2299 24.235 18.5795 23.6929 15.9961C23.6929 15.9961 23.8134 16.0028 23.9941 15.9894C25.7209 15.8287 25.8279 13.2587 24.1212 12.9843C24.1079 12.9843 24.0878 12.9776 24.0744 12.9776L24.0209 12.6965C24.5429 10.8693 25.8146 5.33425 21.9661 5.86969C21.9661 5.86969 19.202 1.29843 13.359 3.5004C7.50944 5.69567 9.03542 10.9362 9.03542 10.9362L9.75826 13.0244C8.18543 13.4126 8.33267 15.8421 10.0059 15.9961C10.1866 16.0095 10.3138 16.0028 10.3138 16.0028C9.76495 18.5862 13.6803 21.2366 13.6803 21.2366C13.687 21.2701 13.687 21.2969 13.6937 21.3236C13.9614 23.1909 12.9508 25.0449 11.2374 25.8346C9.51062 26.6311 7.93779 27.7154 7.06771 28.3579C6.54566 28.7394 6.08385 29.2012 5.72913 29.7433C8.74094 32.387 12.6831 34 17 34C21.3236 34 25.2657 32.387 28.2642 29.7299C27.9161 29.1945 27.4543 28.7327 26.9323 28.3512Z" fill="white"/>
</g>
<defs>
<clipPath id="clip0">
<rect width="34" height="34" fill="white"/>
</clipPath>
</defs>
</svg>
