<svg width="27" height="27" viewBox="0 0 27 27" fill="none" xmlns="http://www.w3.org/2000/svg">
<g clip-path="url(#clip0)">
<path d="M2.81248 11.8125C1.26225 11.8125 0 13.0748 0 14.625V23.625C0 25.1752 1.26225 26.4375 2.81248 26.4375H6.18748C6.82088 26.4375 7.40359 26.2238 7.87498 25.8682V11.8125H2.81248Z" fill="#9D9D9D"/>
<path d="M27 16.0312C27 15.3551 26.7322 14.7251 26.2676 14.2605C26.793 13.6856 27.0607 12.9149 26.9876 12.1129C26.856 10.683 25.5678 9.56246 24.0536 9.56246H17.1045C17.4487 8.51732 18 6.60148 18 5.06248C18 2.62236 15.9266 0.5625 14.625 0.5625C13.4561 0.5625 12.6213 1.22063 12.5854 1.24763C12.4526 1.35452 12.375 1.51652 12.375 1.68748V5.50234L9.135 12.5212L9 12.5898V24.6476C9.91573 25.0796 11.0745 25.3125 11.8125 25.3125H22.1389C23.364 25.3125 24.4361 24.4867 24.6881 23.3471C24.8175 22.761 24.7421 22.1704 24.4845 21.6574C25.3159 21.2389 25.875 20.3827 25.875 19.4062C25.875 19.008 25.7839 18.6266 25.6106 18.2812C26.442 17.8627 27 17.0066 27 16.0312Z" fill="#9D9D9D"/>
</g>
<defs>
<clipPath id="clip0">
<rect width="27" height="27" fill="white"/>
</clipPath>
</defs>
</svg>
