<svg width="43" height="43" viewBox="0 0 43 43" fill="none" xmlns="http://www.w3.org/2000/svg">
<g clip-path="url(#clip0)">
<path d="M30.1557 31.2561C27.3597 31.5661 25.1423 30.328 25.1202 30.3155C25.0448 30.2727 24.9557 30.2611 24.8721 30.2841C24.8368 30.2936 21.3195 31.2363 18.4869 30.6076C16.721 30.215 15.0552 28.9709 13.8389 28.0627C13.6755 27.9407 13.5207 27.8251 13.3755 27.7188C13.177 27.5737 12.8614 27.4528 12.5831 27.3463C12.4581 27.2986 12.2869 27.2331 12.2503 27.2101C12.2184 27.1852 12.201 27.1484 12.201 27.1066V26.3484C12.2167 25.7484 14.7323 16.5167 15.1223 15.3422C15.1319 15.3283 15.1695 15.3012 15.1971 15.2881L20.1753 13.0145L21.7846 15.1097C21.864 15.2183 21.8565 15.37 21.7671 15.4701L20.1768 17.2529C20.0727 17.3698 19.8976 17.3825 19.7888 17.2917L19.1457 16.6989C19.0705 16.6295 18.9634 16.6064 18.8627 16.6249C18.762 16.6429 18.6718 16.7148 18.6254 16.806C18.5716 16.9117 18.0848 17.0416 17.588 17.0453L17.4261 17.0289C17.2971 17.0135 17.1707 17.0811 17.1072 17.1956C17.0437 17.3097 17.0544 17.4508 17.1343 17.5544C17.2724 17.733 17.38 17.8764 17.441 17.9587L17.7593 23.3693C17.562 24.1377 17.3812 24.3561 17.3364 24.3997C17.2038 24.4417 17.1076 24.5654 17.1076 24.7117C17.1076 24.8924 17.2541 25.0389 17.4348 25.0389C17.8057 25.0389 18.1211 24.5514 18.3741 23.5997C20.9759 21.653 23.2466 23.4901 23.4246 23.6413C24.2509 24.4707 24.3022 25.0216 24.3038 25.0461C24.3078 25.2234 24.4528 25.366 24.631 25.366C24.8116 25.366 24.9581 25.2196 24.9581 25.0389C24.9581 24.9637 24.931 24.3182 24.0843 23.3858C24.8826 22.404 25.7919 21.8387 26.793 21.7155C28.5188 21.503 29.9708 22.6637 29.9851 22.6753C30.1252 22.7894 30.3311 22.7685 30.4452 22.6285C30.5592 22.4887 30.5386 22.283 30.399 22.1687C30.3315 22.1136 28.7254 20.8214 26.7199 21.0653C25.5477 21.2076 24.4955 21.8416 23.5883 22.951C22.8524 22.4504 20.7417 21.3174 18.381 22.7992L18.0882 17.8233C18.0853 17.7696 18.0688 17.7174 18.0407 17.6716C18.3334 17.637 18.682 17.5606 18.9349 17.3942L19.3565 17.7826C19.7485 18.1119 20.3236 18.071 20.6646 17.6886L22.255 15.9057C22.5483 15.5771 22.5729 15.0802 22.3081 14.7177L20.5354 12.4095C20.4429 12.2889 20.2792 12.248 20.14 12.3112L14.9293 14.6913C14.8748 14.7152 14.5985 14.8489 14.5075 15.1223C14.3223 15.6784 11.5469 25.5763 11.5469 26.3473V27.1068C11.5469 27.3504 11.6563 27.5758 11.8469 27.725C11.9422 27.7998 12.0846 27.8563 12.3495 27.9574C12.5655 28.0403 12.8614 28.1535 12.9893 28.2469C13.133 28.352 13.2861 28.4663 13.4475 28.5869C14.7112 29.5308 16.4419 30.8232 18.3453 31.2462C21.0545 31.8483 24.235 31.1203 24.9165 30.9486C25.3718 31.1838 27.042 31.9612 29.2285 31.9612C29.5512 31.9612 29.8852 31.9443 30.2281 31.9061C30.4077 31.8863 30.5369 31.7245 30.5171 31.5449C30.4971 31.3652 30.3347 31.2347 30.1557 31.2561Z" fill="#FF4F32"/>
<path d="M28.5545 27.2926C28.5365 27.1289 28.3978 27.0015 28.2293 27.0015C28.0487 27.0015 27.9022 27.1479 27.9022 27.3286C27.9022 27.5471 28.0635 28.2869 30.138 28.6326C30.1562 28.6355 30.1745 28.6371 30.1922 28.6371C30.3492 28.6371 30.4878 28.5237 30.5145 28.3638C30.5441 28.1855 30.4237 28.0171 30.2456 27.9873C28.7948 27.7455 28.5739 27.3361 28.5545 27.2926Z" fill="#FF4F32"/>
<path d="M24.9429 15.9342H25.9396V16.861C25.9396 17.0417 26.0861 17.1882 26.2667 17.1882H28.8835C29.0641 17.1882 29.2106 17.0417 29.2106 16.861V15.9342H30.192C30.3173 15.9342 30.4318 15.8627 30.4864 15.7497C30.541 15.6368 30.5265 15.5027 30.4489 15.4043L27.8242 12.0789C27.7 11.9216 27.4348 11.9216 27.3106 12.0789L24.6861 15.4044C24.6084 15.5027 24.5939 15.637 24.6485 15.7497C24.7032 15.8627 24.8174 15.9342 24.9429 15.9342ZM27.5674 12.8097L29.5172 15.2799H28.8835C28.7028 15.2799 28.5563 15.4264 28.5563 15.6071V16.534H26.5937V15.6071C26.5937 15.4264 26.4472 15.2799 26.2666 15.2799H25.6176L27.5674 12.8097Z" fill="#FF4F32"/>
<path d="M29.2106 17.8421C29.2106 17.6616 29.0641 17.5151 28.8835 17.5151H26.2666C26.0859 17.5151 25.9394 17.6616 25.9394 17.8421V18.8236C25.9394 19.0042 26.0859 19.1507 26.2666 19.1507H28.8835C29.0641 19.1507 29.2106 19.0042 29.2106 18.8236V17.8421ZM28.5563 18.4964H26.5937V18.1693H28.5563V18.4964Z" fill="#FF4F32"/>
<path d="M28.8835 19.478H26.2667C26.0861 19.478 25.9396 19.6245 25.9396 19.8052C25.9396 19.9858 26.0861 20.1323 26.2667 20.1323H28.8835C29.0641 20.1323 29.2106 19.9858 29.2106 19.8052C29.2106 19.6245 29.0641 19.478 28.8835 19.478Z" fill="#FF4F32"/>
<path d="M22.2729 28.9714C17.9884 29.8889 16.1553 26.9575 16.0793 26.8325C15.986 26.678 15.7852 26.6282 15.6309 26.721C15.476 26.8141 15.4258 27.015 15.5187 27.1698C15.5404 27.2058 16.0609 28.0603 17.174 28.7881C17.9408 29.2895 19.1102 29.8002 20.6921 29.8002C21.2188 29.8002 21.7915 29.7436 22.4099 29.6112C22.5865 29.5733 22.6991 29.3994 22.6612 29.2227C22.6234 29.0461 22.4488 28.9331 22.2729 28.9714Z" fill="#FF4F32"/>
</g>
<circle cx="21.5" cy="21.5" r="18" stroke="#FF4F32"/>
<circle cx="21.5" cy="21.5" r="20.5" stroke="#FF4F32" stroke-width="2"/>
<defs>
<clipPath id="clip0">
<rect width="20" height="20" fill="white" transform="translate(11 12)"/>
</clipPath>
</defs>
</svg>
