<svg width="480" height="80" viewBox="0 0 480 80" fill="none" xmlns="http://www.w3.org/2000/svg">
<mask id="mask0" mask-type="alpha" maskUnits="userSpaceOnUse" x="0" y="0" width="480" height="80">
<rect x="480" y="80" width="480" height="80" transform="rotate(-180 480 80)" fill="#EEF5FF"/>
</mask>
<g mask="url(#mask0)">
<path d="M-61 81.5C-61 70.9258 -52.9452 60.5979 -37.7342 51.0118C-22.5733 41.4572 -0.568714 32.8158 26.7113 25.5442C81.2568 11.0047 156.666 2.00001 240 2.00002C323.334 2.00003 398.743 11.0048 453.289 25.5442C480.569 32.8159 502.573 41.4573 517.734 51.0118C532.945 60.5979 541 70.9259 541 81.5C541 92.0742 532.945 102.402 517.734 111.988C502.573 121.543 480.569 130.184 453.289 137.456C398.743 151.995 323.334 161 240 161C156.666 161 81.2568 151.995 26.7113 137.456C-0.568723 130.184 -22.5733 121.543 -37.7342 111.988C-52.9452 102.402 -61 92.0741 -61 81.5Z" stroke="#EEF5FF" stroke-width="2"/>
<ellipse cx="240" cy="86.5" rx="274" ry="63.5" transform="rotate(-180 240 86.5)" fill="#EEF5FF"/>
</g>
</svg>
