<svg width="96" height="96" viewBox="0 0 96 96" fill="none" xmlns="http://www.w3.org/2000/svg">
<path d="M48 0C59.8184 -1.40933e-07 71.2213 4.36007 80.0248 12.2451C88.8282 20.1301 94.4132 30.9857 95.7101 42.7328C97.007 54.4798 93.9246 66.2923 87.0532 75.9078C80.1818 85.5234 70.0046 92.2659 58.4709 94.844C46.9371 97.4221 34.8577 95.6545 24.5462 89.8798C14.2347 84.1051 6.41608 74.7292 2.58791 63.548C-1.24027 52.3668 -0.808899 40.1664 3.79942 29.2835C8.40773 18.4006 16.869 9.60032 27.5626 4.5683L48 48V0Z" fill="url(#paint0_linear)"/>
<circle cx="48" cy="48" r="41" fill="white"/>
<path d="M32.4472 49.108C30.9652 49.108 29.9772 48.406 29.9772 46.716C29.9772 44.844 31.1992 44.038 32.4992 44.038C33.7992 44.038 35.0732 44.87 35.4892 47.47C34.5532 48.64 33.4352 49.108 32.4472 49.108ZM32.0052 58.312C35.6452 58.312 39.1032 55.53 39.1032 49.368C39.1032 43.57 35.8272 41.178 32.4212 41.178C29.2492 41.178 26.4932 43.284 26.4932 46.716C26.4932 50.2 28.7292 51.812 31.6152 51.812C32.8372 51.812 34.3972 51.136 35.5932 49.992C35.4372 53.892 33.6692 55.218 31.6672 55.218C30.5752 55.218 29.4312 54.672 28.7552 54.048L26.7272 56.336C27.8712 57.376 29.6652 58.312 32.0052 58.312ZM47.9591 58.312C51.4431 58.312 54.5111 56.57 54.5111 53.502C54.5111 51.37 52.8991 50.018 50.8191 49.472V49.368C52.7951 48.614 53.9651 47.418 53.9651 45.702C53.9651 42.816 51.4691 41.178 47.8811 41.178C45.7491 41.178 43.8771 41.984 42.2651 43.284L44.1891 45.624C45.3331 44.714 46.3991 44.168 47.6991 44.168C49.2071 44.168 50.1431 44.844 50.1431 45.988C50.1431 47.314 48.9471 48.198 45.6971 48.198V50.902C49.5711 50.902 50.6891 51.812 50.6891 53.268C50.6891 54.516 49.3891 55.218 47.5951 55.218C46.0871 55.218 44.6571 54.516 43.5651 53.554L41.7971 55.972C43.0711 57.376 45.1251 58.312 47.9591 58.312ZM60.7929 49.888C63.0029 49.888 64.6409 48.172 64.6409 45.494C64.6409 42.79 63.0029 41.152 60.7929 41.152C58.5829 41.152 56.9449 42.79 56.9449 45.494C56.9449 48.172 58.5829 49.888 60.7929 49.888ZM60.7929 47.834C60.1429 47.834 59.5449 47.262 59.5449 45.494C59.5449 43.726 60.1429 43.206 60.7929 43.206C61.4429 43.206 62.0409 43.726 62.0409 45.494C62.0409 47.262 61.4429 47.834 60.7929 47.834ZM58.7129 57.272L62.9249 52.098L61.5989 50.876L56.7629 55.374L58.7129 57.272ZM66.6429 48.198L71.4789 43.674L69.5289 41.776L65.3169 46.95L66.6429 48.198ZM67.3969 58.312C69.6069 58.312 71.2449 56.596 71.2449 53.918C71.2449 51.214 69.6069 49.576 67.3969 49.576C65.1869 49.576 63.5489 51.214 63.5489 53.918C63.5489 56.596 65.1869 58.312 67.3969 58.312ZM67.3969 56.258C66.7469 56.258 66.1489 55.686 66.1489 53.918C66.1489 52.15 66.7469 51.63 67.3969 51.63C68.0469 51.63 68.6449 52.15 68.6449 53.918C68.6449 55.686 68.0469 56.258 67.3969 56.258Z" fill="#1A3157"/>
<defs>
<linearGradient id="paint0_linear" x1="48" y1="0" x2="48" y2="96" gradientUnits="userSpaceOnUse">
<stop stop-color="#FFE344"/>
<stop offset="1" stop-color="#FD602A"/>
</linearGradient>
</defs>
</svg>
