<svg width="36" height="37" viewBox="0 0 36 37" fill="none" xmlns="http://www.w3.org/2000/svg">
<g clip-path="url(#clip0)">
<path d="M33.1114 24.4326C30.9073 24.4326 28.7432 24.0879 26.6924 23.4102C25.67 23.0615 24.5059 23.3321 23.8388 24.0118L19.791 27.0675C15.0967 24.5616 12.205 21.6709 9.73341 17.0118L12.6992 13.0695C13.4697 12.3 13.7461 11.1759 13.415 10.1212C12.7343 8.05964 12.3886 5.89655 12.3886 3.69155C12.3887 2.09864 11.0928 0.802734 9.49997 0.802734H2.88863C1.29591 0.802734 0 2.09864 0 3.69136C0 21.9493 14.8536 36.8027 33.1114 36.8027C34.7042 36.8027 36.0001 35.5068 36.0001 33.914V27.3212C36 25.7285 34.7041 24.4326 33.1114 24.4326ZM34 33.9141C34 34.4043 33.6016 34.8028 33.1114 34.8028C15.9561 34.8028 2.00006 20.8467 2.00006 3.69145C2.00006 3.20123 2.3985 2.8028 2.88872 2.8028H9.50006C9.99028 2.8028 10.3887 3.20123 10.3887 3.69145C10.3887 6.11039 10.7686 8.48442 11.5118 10.7335C11.6152 11.0655 11.5312 11.4092 11.1953 11.7589L7.75781 16.3115C7.52738 16.6171 7.49119 17.0264 7.66406 17.3671C10.4697 22.8818 13.8789 26.291 19.4326 29.1367C19.7705 29.3134 20.1846 29.2764 20.4912 29.0449L25.1484 25.5166C25.3838 25.2813 25.7363 25.1973 26.0547 25.3057C28.3193 26.0537 30.6934 26.4327 33.1114 26.4327C33.6016 26.4327 34 26.8311 34 27.3213V33.9141Z" fill="#FF3434"/>
</g>
<defs>
<clipPath id="clip0">
<rect width="36" height="36" fill="white" transform="translate(0 0.802734)"/>
</clipPath>
</defs>
</svg>
