<svg width="80" height="81" viewBox="0 0 80 81" fill="none" xmlns="http://www.w3.org/2000/svg">
<path d="M72.1937 75.0585H70.134V10.2614C70.134 9.93359 70.0038 9.61925 69.772 9.38748C69.5402 9.15572 69.2259 9.02551 68.8981 9.02551H45.7776C45.4499 9.02551 45.1355 9.15572 44.9038 9.38748C44.672 9.61925 44.5418 9.93359 44.5418 10.2614V15.6331H42.0701V10.2778C42.0701 9.95007 41.9399 9.63572 41.7081 9.40396C41.4764 9.17219 41.162 9.04199 40.8343 9.04199H35.4604V5.33447C35.4604 5.00671 35.3302 4.69237 35.0985 4.4606C34.8667 4.22884 34.5524 4.09863 34.2246 4.09863C33.8968 4.09863 33.5825 4.22884 33.3507 4.4606C33.119 4.69237 32.9887 5.00671 32.9887 5.33447V9.04199H27.6334C27.3057 9.04199 26.9913 9.17219 26.7596 9.40396C26.5278 9.63572 26.3976 9.95007 26.3976 10.2778V15.6331H22.6571C22.3294 15.6331 22.015 15.7633 21.7833 15.9951C21.5515 16.2269 21.4213 16.5412 21.4213 16.869V27.1862H11.1103C10.7825 27.1862 10.4682 27.3164 10.2364 27.5481C10.0046 27.7799 9.87443 28.0942 9.87443 28.422V75.0585H7.8147C7.48693 75.0585 7.17259 75.1887 6.94083 75.4204C6.70906 75.6522 6.57886 75.9666 6.57886 76.2943C6.57886 76.6221 6.70906 76.9364 6.94083 77.1682C7.17259 77.3999 7.48693 77.5302 7.8147 77.5302H72.1937C72.5215 77.5302 72.8358 77.3999 73.0676 77.1682C73.2993 76.9364 73.4295 76.6221 73.4295 76.2943C73.4295 75.9666 73.2993 75.6522 73.0676 75.4204C72.8358 75.1887 72.5215 75.0585 72.1937 75.0585ZM28.8569 11.4993H39.5881V15.6331H28.8569V11.4993ZM21.4213 75.0585H20.5974V70.939H24.7169V75.0585H21.4213ZM32.9784 43.2789V75.0585H27.205V69.7032C27.205 69.3754 27.0748 69.0611 26.8431 68.8293C26.6113 68.5975 26.2969 68.4673 25.9692 68.4673H19.3616C19.0338 68.4673 18.7195 68.5975 18.4877 68.8293C18.2559 69.0611 18.1257 69.3754 18.1257 69.7032V75.0585H12.3585V29.6599H32.9846V43.2789H32.9784ZM34.2143 27.1841H23.895V18.1048H44.5397V42.041H35.4604V37.9215H39.1679C39.4957 37.9215 39.8101 37.7913 40.0418 37.5595C40.2736 37.3278 40.4038 37.0134 40.4038 36.6857C40.4038 36.3579 40.2736 36.0436 40.0418 35.8118C39.8101 35.58 39.4957 35.4498 39.1679 35.4498H35.4604V31.3304H39.1679C39.4957 31.3304 39.8101 31.2001 40.0418 30.9684C40.2736 30.7366 40.4038 30.4223 40.4038 30.0945C40.4038 29.7668 40.2736 29.4524 40.0418 29.2206C39.8101 28.9889 39.4957 28.8587 39.1679 28.8587H35.4604V28.4467C35.464 28.282 35.4346 28.1183 35.374 27.9651C35.3133 27.8119 35.2227 27.6724 35.1073 27.5548C34.992 27.4371 34.8543 27.3437 34.7024 27.2801C34.5504 27.2164 34.3873 27.1838 34.2225 27.1841H34.2143ZM56.0886 75.0585H35.4604V44.5168H56.0969L56.0886 75.0585ZM67.6437 75.0585H58.5727V41.629C58.5727 41.3013 58.4425 40.9869 58.2107 40.7551C57.979 40.5234 57.6646 40.3932 57.3368 40.3932C57.0091 40.3932 56.6947 40.5234 56.463 40.7551C56.2312 40.9869 56.101 41.3013 56.101 41.629V42.041H53.6293V41.629C53.6293 41.3013 53.4991 40.9869 53.2674 40.7551C53.0356 40.5234 52.7213 40.3932 52.3935 40.3932C52.0657 40.3932 51.7514 40.5234 51.5196 40.7551C51.2879 40.9869 51.1576 41.3013 51.1576 41.629V42.041H47.0382V11.4993H67.652V75.0585H67.6437Z" fill="#FF3434"/>
<path d="M40.8259 72.5831C41.1537 72.5831 41.468 72.4529 41.6998 72.2211C41.9316 71.9893 42.0618 71.675 42.0618 71.3472V48.2329C42.0618 47.9051 41.9316 47.5908 41.6998 47.359C41.468 47.1273 41.1537 46.9971 40.8259 46.9971C40.4982 46.9971 40.1838 47.1273 39.9521 47.359C39.7203 47.5908 39.5901 47.9051 39.5901 48.2329V71.3452C39.5898 71.5077 39.6216 71.6686 39.6836 71.8188C39.7456 71.9689 39.8365 72.1054 39.9513 72.2204C40.0661 72.3354 40.2024 72.4266 40.3525 72.4888C40.5026 72.5511 40.6635 72.5831 40.8259 72.5831Z" fill="#FF3434"/>
<path d="M45.7776 72.5831C46.1054 72.5831 46.4197 72.4529 46.6515 72.2211C46.8832 71.9893 47.0134 71.675 47.0134 71.3472V48.2329C47.0134 47.9051 46.8832 47.5908 46.6515 47.359C46.4197 47.1273 46.1054 46.9971 45.7776 46.9971C45.4498 46.9971 45.1355 47.1273 44.9037 47.359C44.672 47.5908 44.5417 47.9051 44.5417 48.2329V71.3452C44.5415 71.5077 44.5732 71.6686 44.6352 71.8188C44.6972 71.9689 44.7882 72.1054 44.903 72.2204C45.0178 72.3354 45.1541 72.4266 45.3042 72.4888C45.4542 72.5511 45.6151 72.5831 45.7776 72.5831Z" fill="#FF3434"/>
<path d="M50.7312 72.5831C51.059 72.5831 51.3733 72.4529 51.6051 72.2211C51.8368 71.9893 51.967 71.675 51.967 71.3472V48.2329C51.967 47.9051 51.8368 47.5908 51.6051 47.359C51.3733 47.1273 51.059 46.9971 50.7312 46.9971C50.4034 46.9971 50.0891 47.1273 49.8573 47.359C49.6256 47.5908 49.4954 47.9051 49.4954 48.2329V71.3452C49.4951 71.5077 49.5269 71.6686 49.5888 71.8188C49.6508 71.9689 49.7418 72.1054 49.8566 72.2204C49.9714 72.3354 50.1077 72.4266 50.2578 72.4888C50.4079 72.5511 50.5687 72.5831 50.7312 72.5831Z" fill="#FF3434"/>
<path d="M52.381 19.7523C52.7087 19.7523 53.0231 19.6221 53.2548 19.3903C53.4866 19.1585 53.6168 18.8442 53.6168 18.5164V16.8687C53.6168 16.5409 53.4866 16.2265 53.2548 15.9948C53.0231 15.763 52.7087 15.6328 52.381 15.6328C52.0532 15.6328 51.7389 15.763 51.5071 15.9948C51.2753 16.2265 51.1451 16.5409 51.1451 16.8687V18.5164C51.1451 18.8442 51.2753 19.1585 51.5071 19.3903C51.7389 19.6221 52.0532 19.7523 52.381 19.7523Z" fill="#FF3434"/>
<path d="M57.3347 19.7523C57.6625 19.7523 57.9768 19.6221 58.2086 19.3903C58.4403 19.1585 58.5705 18.8442 58.5705 18.5164V16.8687C58.5705 16.5409 58.4403 16.2265 58.2086 15.9948C57.9768 15.763 57.6625 15.6328 57.3347 15.6328C57.0069 15.6328 56.6926 15.763 56.4609 15.9948C56.2291 16.2265 56.0989 16.5409 56.0989 16.8687V18.5164C56.0989 18.8442 56.2291 19.1585 56.4609 19.3903C56.6926 19.6221 57.0069 19.7523 57.3347 19.7523Z" fill="#FF3434"/>
<path d="M62.2863 19.7523C62.614 19.7523 62.9284 19.6221 63.1601 19.3903C63.3919 19.1585 63.5221 18.8442 63.5221 18.5164V16.8687C63.5221 16.5409 63.3919 16.2265 63.1601 15.9948C62.9284 15.763 62.614 15.6328 62.2863 15.6328C61.9585 15.6328 61.6441 15.763 61.4124 15.9948C61.1806 16.2265 61.0504 16.5409 61.0504 16.8687V18.5164C61.0504 18.8442 61.1806 19.1585 61.4124 19.3903C61.6441 19.6221 61.9585 19.7523 62.2863 19.7523Z" fill="#FF3434"/>
<path d="M52.381 28.0081C52.7087 28.0081 53.0231 27.8779 53.2548 27.6462C53.4866 27.4144 53.6168 27.1001 53.6168 26.7723V25.1245C53.6168 24.7967 53.4866 24.4824 53.2548 24.2506C53.0231 24.0189 52.7087 23.8887 52.381 23.8887C52.0532 23.8887 51.7389 24.0189 51.5071 24.2506C51.2753 24.4824 51.1451 24.7967 51.1451 25.1245V26.7723C51.1451 27.1001 51.2753 27.4144 51.5071 27.6462C51.7389 27.8779 52.0532 28.0081 52.381 28.0081Z" fill="#FF3434"/>
<path d="M57.3347 28.0081C57.6625 28.0081 57.9768 27.8779 58.2086 27.6462C58.4403 27.4144 58.5705 27.1001 58.5705 26.7723V25.1245C58.5705 24.7967 58.4403 24.4824 58.2086 24.2506C57.9768 24.0189 57.6625 23.8887 57.3347 23.8887C57.0069 23.8887 56.6926 24.0189 56.4609 24.2506C56.2291 24.4824 56.0989 24.7967 56.0989 25.1245V26.7723C56.0989 27.1001 56.2291 27.4144 56.4609 27.6462C56.6926 27.8779 57.0069 28.0081 57.3347 28.0081Z" fill="#FF3434"/>
<path d="M62.2863 28.0081C62.614 28.0081 62.9284 27.8779 63.1601 27.6462C63.3919 27.4144 63.5221 27.1001 63.5221 26.7723V25.1245C63.5221 24.7967 63.3919 24.4824 63.1601 24.2506C62.9284 24.0189 62.614 23.8887 62.2863 23.8887C61.9585 23.8887 61.6441 24.0189 61.4124 24.2506C61.1806 24.4824 61.0504 24.7967 61.0504 25.1245V26.7723C61.0504 27.1001 61.1806 27.4144 61.4124 27.6462C61.6441 27.8779 61.9585 28.0081 62.2863 28.0081Z" fill="#FF3434"/>
<path d="M52.381 36.263C52.7087 36.263 53.0231 36.1328 53.2548 35.901C53.4866 35.6693 53.6168 35.3549 53.6168 35.0272V33.3794C53.6168 33.0516 53.4866 32.7373 53.2548 32.5055C53.0231 32.2738 52.7087 32.1436 52.381 32.1436C52.0532 32.1436 51.7389 32.2738 51.5071 32.5055C51.2753 32.7373 51.1451 33.0516 51.1451 33.3794V35.0272C51.1451 35.3549 51.2753 35.6693 51.5071 35.901C51.7389 36.1328 52.0532 36.263 52.381 36.263Z" fill="#FF3434"/>
<path d="M57.3347 36.263C57.6625 36.263 57.9768 36.1328 58.2086 35.901C58.4403 35.6693 58.5705 35.3549 58.5705 35.0272V33.3794C58.5705 33.0516 58.4403 32.7373 58.2086 32.5055C57.9768 32.2738 57.6625 32.1436 57.3347 32.1436C57.0069 32.1436 56.6926 32.2738 56.4609 32.5055C56.2291 32.7373 56.0989 33.0516 56.0989 33.3794V35.0272C56.0989 35.3549 56.2291 35.6693 56.4609 35.901C56.6926 36.1328 57.0069 36.263 57.3347 36.263Z" fill="#FF3434"/>
<path d="M62.2863 36.263C62.614 36.263 62.9284 36.1328 63.1601 35.901C63.3919 35.6693 63.5221 35.3549 63.5221 35.0272V33.3794C63.5221 33.0516 63.3919 32.7373 63.1601 32.5055C62.9284 32.2738 62.614 32.1436 62.2863 32.1436C61.9585 32.1436 61.6441 32.2738 61.4124 32.5055C61.1806 32.7373 61.0504 33.0516 61.0504 33.3794V35.0272C61.0504 35.3549 61.1806 35.6693 61.4124 35.901C61.6441 36.1328 61.9585 36.263 62.2863 36.263Z" fill="#FF3434"/>
<path d="M17.7137 39.5648C18.0415 39.5648 18.3558 39.4346 18.5876 39.2028C18.8194 38.971 18.9496 38.6567 18.9496 38.3289V36.6812C18.9496 36.3534 18.8194 36.039 18.5876 35.8073C18.3558 35.5755 18.0415 35.4453 17.7137 35.4453C17.386 35.4453 17.0716 35.5755 16.8399 35.8073C16.6081 36.039 16.4779 36.3534 16.4779 36.6812V38.3289C16.4779 38.6567 16.6081 38.971 16.8399 39.2028C17.0716 39.4346 17.386 39.5648 17.7137 39.5648Z" fill="#FF3434"/>
<path d="M22.6571 39.5648C22.9849 39.5648 23.2992 39.4346 23.531 39.2028C23.7627 38.971 23.8929 38.6567 23.8929 38.3289V36.6812C23.8929 36.3534 23.7627 36.039 23.531 35.8073C23.2992 35.5755 22.9849 35.4453 22.6571 35.4453C22.3293 35.4453 22.015 35.5755 21.7832 35.8073C21.5515 36.039 21.4213 36.3534 21.4213 36.6812V38.3289C21.4213 38.6567 21.5515 38.971 21.7832 39.2028C22.015 39.4346 22.3293 39.5648 22.6571 39.5648Z" fill="#FF3434"/>
<path d="M27.619 39.5648C27.9468 39.5648 28.2611 39.4346 28.4929 39.2028C28.7247 38.971 28.8549 38.6567 28.8549 38.3289V36.6812C28.8549 36.3534 28.7247 36.039 28.4929 35.8073C28.2611 35.5755 27.9468 35.4453 27.619 35.4453C27.2913 35.4453 26.9769 35.5755 26.7451 35.8073C26.5134 36.039 26.3832 36.3534 26.3832 36.6812V38.3289C26.3832 38.6567 26.5134 38.971 26.7451 39.2028C26.9769 39.4346 27.2913 39.5648 27.619 39.5648Z" fill="#FF3434"/>
<path d="M17.7137 47.8187C18.0415 47.8187 18.3558 47.6885 18.5876 47.4567C18.8194 47.225 18.9496 46.9106 18.9496 46.5828V44.9351C18.9496 44.6073 18.8194 44.293 18.5876 44.0612C18.3558 43.8294 18.0415 43.6992 17.7137 43.6992C17.386 43.6992 17.0716 43.8294 16.8399 44.0612C16.6081 44.293 16.4779 44.6073 16.4779 44.9351V46.5828C16.4779 46.9106 16.6081 47.225 16.8399 47.4567C17.0716 47.6885 17.386 47.8187 17.7137 47.8187Z" fill="#FF3434"/>
<path d="M22.6571 47.8187C22.9849 47.8187 23.2992 47.6885 23.531 47.4567C23.7627 47.225 23.8929 46.9106 23.8929 46.5828V44.9351C23.8929 44.6073 23.7627 44.293 23.531 44.0612C23.2992 43.8294 22.9849 43.6992 22.6571 43.6992C22.3293 43.6992 22.015 43.8294 21.7832 44.0612C21.5515 44.293 21.4213 44.6073 21.4213 44.9351V46.5828C21.4213 46.9106 21.5515 47.225 21.7832 47.4567C22.015 47.6885 22.3293 47.8187 22.6571 47.8187Z" fill="#FF3434"/>
<path d="M27.619 47.8187C27.9468 47.8187 28.2611 47.6885 28.4929 47.4567C28.7247 47.225 28.8549 46.9106 28.8549 46.5828V44.9351C28.8549 44.6073 28.7247 44.293 28.4929 44.0612C28.2611 43.8294 27.9468 43.6992 27.619 43.6992C27.2913 43.6992 26.9769 43.8294 26.7451 44.0612C26.5134 44.293 26.3832 44.6073 26.3832 44.9351V46.5828C26.3832 46.9106 26.5134 47.225 26.7451 47.4567C26.9769 47.6885 27.2913 47.8187 27.619 47.8187Z" fill="#FF3434"/>
<path d="M17.7137 56.0736C18.0415 56.0736 18.3558 55.9434 18.5876 55.7116C18.8194 55.4798 18.9496 55.1655 18.9496 54.8377V53.1899C18.9496 52.8622 18.8194 52.5478 18.5876 52.3161C18.3558 52.0843 18.0415 51.9541 17.7137 51.9541C17.386 51.9541 17.0716 52.0843 16.8399 52.3161C16.6081 52.5478 16.4779 52.8622 16.4779 53.1899V54.8377C16.4779 55.1655 16.6081 55.4798 16.8399 55.7116C17.0716 55.9434 17.386 56.0736 17.7137 56.0736Z" fill="#FF3434"/>
<path d="M22.6571 56.0736C22.9849 56.0736 23.2992 55.9434 23.531 55.7116C23.7627 55.4798 23.8929 55.1655 23.8929 54.8377V53.1899C23.8929 52.8622 23.7627 52.5478 23.531 52.3161C23.2992 52.0843 22.9849 51.9541 22.6571 51.9541C22.3293 51.9541 22.015 52.0843 21.7832 52.3161C21.5515 52.5478 21.4213 52.8622 21.4213 53.1899V54.8377C21.4213 55.1655 21.5515 55.4798 21.7832 55.7116C22.015 55.9434 22.3293 56.0736 22.6571 56.0736Z" fill="#FF3434"/>
<path d="M27.619 56.0736C27.9468 56.0736 28.2611 55.9434 28.4929 55.7116C28.7247 55.4798 28.8549 55.1655 28.8549 54.8377V53.1899C28.8549 52.8622 28.7247 52.5478 28.4929 52.3161C28.2611 52.0843 27.9468 51.9541 27.619 51.9541C27.2913 51.9541 26.9769 52.0843 26.7451 52.3161C26.5134 52.5478 26.3832 52.8622 26.3832 53.1899V54.8377C26.3832 55.1655 26.5134 55.4798 26.7451 55.7116C26.9769 55.9434 27.2913 56.0736 27.619 56.0736Z" fill="#FF3434"/>
<path d="M17.7137 64.3294C18.0415 64.3294 18.3558 64.1992 18.5876 63.9674C18.8194 63.7357 18.9496 63.4213 18.9496 63.0936V61.4458C18.9496 61.118 18.8194 60.8037 18.5876 60.5719C18.3558 60.3402 18.0415 60.21 17.7137 60.21C17.386 60.21 17.0716 60.3402 16.8399 60.5719C16.6081 60.8037 16.4779 61.118 16.4779 61.4458V63.0936C16.4779 63.4213 16.6081 63.7357 16.8399 63.9674C17.0716 64.1992 17.386 64.3294 17.7137 64.3294Z" fill="#FF3434"/>
<path d="M22.6571 64.3294C22.9849 64.3294 23.2992 64.1992 23.531 63.9674C23.7627 63.7357 23.8929 63.4213 23.8929 63.0936V61.4458C23.8929 61.118 23.7627 60.8037 23.531 60.5719C23.2992 60.3402 22.9849 60.21 22.6571 60.21C22.3293 60.21 22.015 60.3402 21.7832 60.5719C21.5515 60.8037 21.4213 61.118 21.4213 61.4458V63.0936C21.4213 63.4213 21.5515 63.7357 21.7832 63.9674C22.015 64.1992 22.3293 64.3294 22.6571 64.3294Z" fill="#FF3434"/>
<path d="M27.619 64.3294C27.9468 64.3294 28.2611 64.1992 28.4929 63.9674C28.7247 63.7357 28.8549 63.4213 28.8549 63.0936V61.4458C28.8549 61.118 28.7247 60.8037 28.4929 60.5719C28.2611 60.3402 27.9468 60.21 27.619 60.21C27.2913 60.21 26.9769 60.3402 26.7451 60.5719C26.5134 60.8037 26.3832 61.118 26.3832 61.4458V63.0936C26.3832 63.4213 26.5134 63.7357 26.7451 63.9674C26.9769 64.1992 27.2913 64.3294 27.619 64.3294Z" fill="#FF3434"/>
<path d="M62.2863 44.5159C62.614 44.5159 62.9284 44.3857 63.1601 44.154C63.3919 43.9222 63.5221 43.6079 63.5221 43.2801V41.6323C63.5221 41.3046 63.3919 40.9902 63.1601 40.7585C62.9284 40.5267 62.614 40.3965 62.2863 40.3965C61.9585 40.3965 61.6441 40.5267 61.4124 40.7585C61.1806 40.9902 61.0504 41.3046 61.0504 41.6323V43.2801C61.0504 43.6079 61.1806 43.9222 61.4124 44.154C61.6441 44.3857 61.9585 44.5159 62.2863 44.5159Z" fill="#FF3434"/>
<path d="M62.2863 52.7718C62.614 52.7718 62.9284 52.6416 63.1601 52.4098C63.3919 52.1781 63.5221 51.8637 63.5221 51.536V49.8882C63.5221 49.5604 63.3919 49.2461 63.1601 49.0143C62.9284 48.7825 62.614 48.6523 62.2863 48.6523C61.9585 48.6523 61.6441 48.7825 61.4124 49.0143C61.1806 49.2461 61.0504 49.5604 61.0504 49.8882V51.536C61.0504 51.8637 61.1806 52.1781 61.4124 52.4098C61.6441 52.6416 61.9585 52.7718 62.2863 52.7718Z" fill="#FF3434"/>
<path d="M62.2863 61.0277C62.614 61.0277 62.9284 60.8975 63.1601 60.6657C63.3919 60.4339 63.5221 60.1196 63.5221 59.7918V58.144C63.5221 57.8163 63.3919 57.5019 63.1601 57.2702C62.9284 57.0384 62.614 56.9082 62.2863 56.9082C61.9585 56.9082 61.6441 57.0384 61.4124 57.2702C61.1806 57.5019 61.0504 57.8163 61.0504 58.144V59.7918C61.0504 60.1196 61.1806 60.4339 61.4124 60.6657C61.6441 60.8975 61.9585 61.0277 62.2863 61.0277Z" fill="#FF3434"/>
<path d="M62.2863 69.2806C62.614 69.2806 62.9284 69.1504 63.1601 68.9186C63.3919 68.6869 63.5221 68.3725 63.5221 68.0448V66.397C63.5221 66.0692 63.3919 65.7549 63.1601 65.5231C62.9284 65.2913 62.614 65.1611 62.2863 65.1611C61.9585 65.1611 61.6441 65.2913 61.4124 65.5231C61.1806 65.7549 61.0504 66.0692 61.0504 66.397V68.0448C61.0504 68.3725 61.1806 68.6869 61.4124 68.9186C61.6441 69.1504 61.9585 69.2806 62.2863 69.2806Z" fill="#FF3434"/>
<path d="M40.4119 23.4595C40.4119 23.1317 40.2817 22.8174 40.05 22.5856C39.8182 22.3538 39.5039 22.2236 39.1761 22.2236H29.2688C28.941 22.2236 28.6267 22.3538 28.3949 22.5856C28.1632 22.8174 28.033 23.1317 28.033 23.4595C28.033 23.7872 28.1632 24.1016 28.3949 24.3333C28.6267 24.5651 28.941 24.6953 29.2688 24.6953H39.174C39.3365 24.6956 39.4974 24.6638 39.6476 24.6018C39.7978 24.5398 39.9343 24.4489 40.0492 24.3341C40.1642 24.2193 40.2554 24.083 40.3177 23.9329C40.3799 23.7828 40.4119 23.6219 40.4119 23.4595Z" fill="#FF3434"/>
</svg>
