<svg width="80" height="81" viewBox="0 0 80 81" fill="none" xmlns="http://www.w3.org/2000/svg">
<path d="M18.0082 28.1602H15.8084C15.5167 28.1602 15.2369 28.276 15.0306 28.4823C14.8244 28.6886 14.7085 28.9683 14.7085 29.2601C14.7085 29.5518 14.8244 29.8315 15.0306 30.0378C15.2369 30.2441 15.5167 30.36 15.8084 30.36H18.0082C18.2999 30.36 18.5797 30.2441 18.7859 30.0378C18.9922 29.8315 19.1081 29.5518 19.1081 29.2601C19.1081 28.9683 18.9922 28.6886 18.7859 28.4823C18.5797 28.276 18.2999 28.1602 18.0082 28.1602Z" fill="#FF3434"/>
<path d="M54.2842 20.4652C54.2842 21.7688 54.6707 23.0431 55.395 24.127C56.1192 25.2109 57.1486 26.0557 58.353 26.5546C59.5574 27.0535 60.8826 27.184 62.1612 26.9297C63.4398 26.6753 64.6142 26.0476 65.536 25.1258C66.4578 24.204 67.0855 23.0296 67.3398 21.751C67.5942 20.4725 67.4636 19.1472 66.9648 17.9428C66.4659 16.7385 65.6211 15.7091 64.5372 14.9848C63.4533 14.2606 62.1789 13.874 60.8753 13.874C59.1272 13.874 57.4508 14.5684 56.2147 15.8045C54.9786 17.0406 54.2842 18.7171 54.2842 20.4652ZM60.8753 16.0697C61.7452 16.0697 62.5955 16.3277 63.3187 16.811C64.0419 17.2943 64.6055 17.9812 64.9383 18.7848C65.2711 19.5885 65.3581 20.4728 65.1882 21.3259C65.0184 22.179 64.5993 22.9626 63.9841 23.5775C63.3689 24.1924 62.5852 24.6111 61.732 24.7805C60.8788 24.95 59.9945 24.8626 59.191 24.5294C58.3875 24.1963 57.7009 23.6323 57.2179 22.9089C56.735 22.1854 56.4774 21.335 56.4778 20.4652C56.4778 19.8874 56.5917 19.3154 56.813 18.7817C57.0343 18.248 57.3586 17.7632 57.7674 17.3549C58.1762 16.9467 58.6615 16.623 59.1955 16.4025C59.7295 16.182 60.3017 16.0689 60.8795 16.0697H60.8753Z" fill="#FF3434"/>
<path d="M61.9794 10.4712V9.47223C61.9671 9.18903 61.846 8.92149 61.6413 8.72543C61.4365 8.52937 61.164 8.41992 60.8805 8.41992C60.5971 8.41992 60.3245 8.52937 60.1198 8.72543C59.9151 8.92149 59.7939 9.18903 59.7817 9.47223V10.4712C59.7752 10.6195 59.7989 10.7676 59.8512 10.9065C59.9036 11.0454 59.9835 11.1723 60.0861 11.2795C60.1888 11.3867 60.3121 11.4721 60.4487 11.5303C60.5852 11.5886 60.7321 11.6187 60.8805 11.6187C61.029 11.6187 61.1759 11.5886 61.3124 11.5303C61.4489 11.4721 61.5723 11.3867 61.6749 11.2795C61.7776 11.1723 61.8575 11.0454 61.9098 10.9065C61.9622 10.7676 61.9858 10.6195 61.9794 10.4712Z" fill="#FF3434"/>
<path d="M59.7817 30.4625V31.4614C59.7752 31.6097 59.7989 31.7578 59.8512 31.8967C59.9036 32.0356 59.9835 32.1625 60.0861 32.2698C60.1888 32.377 60.3121 32.4623 60.4487 32.5206C60.5852 32.5789 60.7321 32.6089 60.8805 32.6089C61.029 32.6089 61.1759 32.5789 61.3124 32.5206C61.4489 32.4623 61.5723 32.377 61.6749 32.2698C61.7776 32.1625 61.8575 32.0356 61.9098 31.8967C61.9622 31.7578 61.9858 31.6097 61.9794 31.4614V30.4625C61.9671 30.1793 61.846 29.9117 61.6413 29.7157C61.4365 29.5196 61.164 29.4102 60.8805 29.4102C60.5971 29.4102 60.3245 29.5196 60.1198 29.7157C59.9151 29.9117 59.7939 30.1793 59.7817 30.4625Z" fill="#FF3434"/>
<path d="M71.8723 19.3672H70.8734C70.5902 19.3795 70.3226 19.5006 70.1266 19.7054C69.9305 19.9101 69.821 20.1826 69.821 20.4661C69.821 20.7496 69.9305 21.0221 70.1266 21.2268C70.3226 21.4316 70.5902 21.5527 70.8734 21.565H71.8723C72.0206 21.5714 72.1687 21.5477 72.3076 21.4954C72.4465 21.4431 72.5734 21.3632 72.6806 21.2605C72.7879 21.1578 72.8732 21.0345 72.9315 20.898C72.9898 20.7615 73.0198 20.6146 73.0198 20.4661C73.0198 20.3177 72.9898 20.1707 72.9315 20.0342C72.8732 19.8977 72.7879 19.7744 72.6806 19.6717C72.5734 19.569 72.4465 19.4891 72.3076 19.4368C72.1687 19.3845 72.0206 19.3608 71.8723 19.3672Z" fill="#FF3434"/>
<path d="M50.8856 21.565C51.0339 21.5714 51.182 21.5477 51.3209 21.4954C51.4598 21.4431 51.5867 21.3632 51.6939 21.2605C51.8012 21.1578 51.8865 21.0345 51.9448 20.898C52.0031 20.7615 52.0331 20.6146 52.0331 20.4661C52.0331 20.3177 52.0031 20.1707 51.9448 20.0342C51.8865 19.8977 51.8012 19.7744 51.6939 19.6717C51.5867 19.569 51.4598 19.4891 51.3209 19.4368C51.182 19.3845 51.0339 19.3608 50.8856 19.3672H49.8867C49.6035 19.3795 49.3359 19.5006 49.1399 19.7054C48.9438 19.9101 48.8344 20.1826 48.8344 20.4661C48.8344 20.7496 48.9438 21.0221 49.1399 21.2268C49.3359 21.4316 49.6035 21.5527 49.8867 21.565H50.8856Z" fill="#FF3434"/>
<path d="M69.4315 11.9246C69.225 11.719 68.9454 11.6035 68.654 11.6035C68.3625 11.6035 68.0829 11.719 67.8764 11.9246L67.1699 12.6311C67.0165 12.785 66.9121 12.981 66.8699 13.1942C66.8277 13.4075 66.8497 13.6284 66.933 13.8292C67.0163 14.0299 67.1572 14.2015 67.3379 14.3222C67.5187 14.443 67.7312 14.5074 67.9485 14.5075C68.4964 14.5075 68.6838 14.2253 69.4315 13.4777C69.6365 13.2712 69.7516 12.9921 69.7516 12.7011C69.7516 12.4102 69.6365 12.1311 69.4315 11.9246Z" fill="#FF3434"/>
<path d="M52.3295 29.0214C52.5361 29.2271 52.8156 29.3425 53.1071 29.3425C53.3985 29.3425 53.6781 29.2271 53.8846 29.0214L54.5891 28.3149C54.781 28.1062 54.8848 27.8313 54.879 27.5478C54.8731 27.2643 54.7579 26.994 54.5576 26.7934C54.3572 26.5927 54.087 26.4772 53.8035 26.471C53.52 26.4647 53.2451 26.5682 53.036 26.7598L52.3295 27.4663C52.1239 27.6728 52.0084 27.9524 52.0084 28.2439C52.0084 28.5353 52.1239 28.8149 52.3295 29.0214Z" fill="#FF3434"/>
<path d="M68.725 26.7551C68.5172 26.5565 68.24 26.447 67.9526 26.4503C67.6651 26.4535 67.3904 26.5691 67.1871 26.7723C66.9839 26.9756 66.8683 27.2503 66.8651 27.5378C66.8618 27.8252 66.9713 28.1024 67.1699 28.3102C67.8043 28.9425 68.0679 29.3401 68.6529 29.3401C68.8703 29.34 69.0827 29.2755 69.2635 29.1548C69.4442 29.034 69.5851 28.8625 69.6684 28.6617C69.7517 28.4609 69.7737 28.24 69.7315 28.0268C69.6894 27.8135 69.5849 27.6176 69.4315 27.4636L68.725 26.7551Z" fill="#FF3434"/>
<path d="M53.8847 11.925C53.6769 11.7264 53.3996 11.617 53.1122 11.6202C52.8248 11.6234 52.5501 11.739 52.3468 11.9423C52.1436 12.1455 52.028 12.4203 52.0247 12.7077C52.0215 12.9951 52.1309 13.2724 52.3296 13.4801C52.964 14.1125 53.2276 14.51 53.8126 14.51C54.0318 14.5108 54.2462 14.446 54.4284 14.324C54.6106 14.2021 54.7521 14.0285 54.8349 13.8255C54.9177 13.6225 54.9379 13.3994 54.893 13.1848C54.8481 12.9702 54.7401 12.774 54.5829 12.6212L53.8847 11.925Z" fill="#FF3434"/>
<path d="M71.8723 68.8356C58.3069 68.8356 59.1596 68.9221 58.7497 68.6296L52.1957 63.9458C51.6382 63.5447 50.9689 63.3286 50.2822 63.3278H47.483C47.7528 62.5699 47.689 62.7099 47.689 57.3052L53.6622 46.8376H63.6951L70.9145 59.4803C70.9831 59.6111 71.0774 59.7268 71.1917 59.8204C71.306 59.9141 71.4379 59.9837 71.5797 60.0252C71.7215 60.0667 71.8702 60.0792 72.017 60.0619C72.1637 60.0447 72.3055 59.9981 72.4338 59.9249C72.5621 59.8516 72.6744 59.7533 72.7639 59.6357C72.8533 59.5182 72.9182 59.3838 72.9546 59.2406C72.991 59.0974 72.9982 58.9483 72.9758 58.8023C72.9533 58.6563 72.9016 58.5163 72.8239 58.3907L60.5829 36.9694C60.3907 36.633 60.1129 36.3533 59.7778 36.1588C59.4427 35.9642 59.062 35.8618 58.6745 35.8618C58.287 35.8618 57.9064 35.9642 57.5713 36.1588C57.2362 36.3533 56.9584 36.633 56.7662 36.9694L47.6848 52.8726V34.6234C48.2113 34.0861 48.5669 33.4049 48.7067 32.6657C48.8465 31.9265 48.7642 31.1625 48.4703 30.47C48.1764 29.7776 47.684 29.1877 47.0552 28.7747C46.4264 28.3617 45.6894 28.1443 44.9372 28.1497H36.6509L30.5623 22.0611C30.0412 21.544 29.4225 21.1357 28.7421 20.8599C28.0618 20.5841 27.3334 20.4463 26.5994 20.4545C26.5512 20.3214 26.4948 20.1914 26.4305 20.0652C27.2407 19.0927 27.7777 17.922 27.9862 16.6734C28.1947 15.4249 28.0673 14.1433 27.617 12.9602C27.1667 11.7771 26.4098 10.7352 25.4239 9.94119C24.4379 9.14722 23.2585 8.62985 22.0067 8.44215C20.7548 8.25446 19.4755 8.4032 18.3001 8.87312C17.1247 9.34304 16.0954 10.1172 15.318 11.1162C14.5406 12.1152 14.0429 13.3031 13.8761 14.5579C13.7092 15.8127 13.8792 17.0893 14.3687 18.2568H10.3131C9.43902 18.2568 8.60078 18.604 7.98274 19.222C7.3647 19.8401 7.01749 20.6783 7.01749 21.5523V24.8479C7.01542 25.2343 7.11572 25.6143 7.30819 25.9493C7.50067 26.2843 7.77844 26.5624 8.11327 26.7552V40.2527C8.11327 41.1267 8.46048 41.9649 9.07852 42.583C9.69656 43.201 10.5348 43.5482 11.4088 43.5482V71.0395H8.11327C7.83006 71.0517 7.56252 71.1729 7.36646 71.3776C7.1704 71.5823 7.06095 71.8549 7.06095 72.1383C7.06095 72.4218 7.1704 72.6943 7.36646 72.8991C7.56252 73.1038 7.83006 73.2249 8.11327 73.2372H22.4923C22.9683 73.2372 23.4386 73.1341 23.871 72.935C24.3034 72.7359 24.6875 72.4455 24.9969 72.0838L30.278 65.921C30.3829 65.8016 30.5118 65.7056 30.6562 65.6392C30.8006 65.5729 30.9574 65.5377 31.1164 65.5359C51.9197 65.5359 50.4984 65.4391 50.9227 65.7418L57.4665 70.4216C58.0234 70.8223 58.6919 71.0384 59.3779 71.0395H71.8661C72.0144 71.0459 72.1625 71.0222 72.3014 70.9699C72.4403 70.9176 72.5672 70.8377 72.6744 70.735C72.7816 70.6323 72.867 70.509 72.9252 70.3725C72.9835 70.236 73.0136 70.0891 73.0136 69.9406C73.0136 69.7922 72.9835 69.6452 72.9252 69.5087C72.867 69.3722 72.7816 69.2489 72.6744 69.1462C72.5672 69.0435 72.4403 68.9636 72.3014 68.9113C72.1625 68.859 72.0144 68.8353 71.8661 68.8417L71.8723 68.8356ZM58.69 38.0714L62.4511 44.6502H54.933L58.69 38.0714ZM43.6045 63.0065C43.5035 62.9073 43.4236 62.7886 43.3698 62.6576C43.316 62.5266 43.2893 62.386 43.2914 62.2444V35.8551C44.0244 35.9029 44.7602 35.8815 45.4892 35.7913V62.2382C45.4885 62.4563 45.4228 62.6693 45.3006 62.8499C45.1784 63.0306 45.0051 63.1707 44.8029 63.2525C44.6007 63.3343 44.3787 63.354 44.1653 63.309C43.9518 63.2641 43.7566 63.1567 43.6045 63.0003V63.0065ZM46.1648 30.9076C46.3818 31.1569 46.5198 31.465 46.5613 31.7929C46.6028 32.1207 46.5458 32.4535 46.3977 32.749C46.2495 33.0444 46.0169 33.2891 45.7293 33.4519C45.4417 33.6148 45.1122 33.6884 44.7827 33.6636H43.2914V30.368C45.069 30.368 45.5571 30.2506 46.1648 30.9097V30.9076ZM41.0937 30.3659V33.6615H35.7384C35.1868 33.6411 34.6465 33.499 34.1562 33.2455C33.6659 32.992 33.2377 32.6333 32.9021 32.195L34.9825 29.5997L35.104 29.7233C35.5158 30.1312 36.0712 30.3613 36.6509 30.3639L41.0937 30.3659ZM33.4068 28.0384L31.3285 30.6275L29.7796 29.0765C29.6259 28.9225 29.4299 28.8175 29.2166 28.7749C29.0032 28.7322 28.7819 28.7538 28.5808 28.837C28.3797 28.9201 28.2078 29.061 28.0868 29.2419C27.9658 29.4228 27.9012 29.6355 27.9011 29.8531V40.2527H25.7034V26.7552C26.0365 26.5639 26.3133 26.2882 26.506 25.9559C26.6987 25.6236 26.8005 25.2465 26.8012 24.8623V22.677C27.6274 22.7092 28.4118 23.0485 29.001 23.6286L33.4068 28.0384ZM12.5108 32.5698C12.2211 32.5699 11.9343 32.5126 11.6669 32.4014C11.3994 32.2902 11.1566 32.1272 10.9524 31.9218C10.7481 31.7164 10.5865 31.4727 10.4768 31.2046C10.3671 30.9365 10.3114 30.6494 10.3131 30.3598V27.0642H23.4953V30.3598C23.4953 30.9426 23.2638 31.5016 22.8516 31.9138C22.4395 32.3259 21.8805 32.5575 21.2976 32.5575L12.5108 32.5698ZM20.9433 10.5719C21.8668 10.5761 22.7705 10.8388 23.5523 11.3303C24.3341 11.8218 24.9625 12.5224 25.3664 13.3528C25.7704 14.1832 25.9337 15.1101 25.8378 16.0286C25.7419 16.947 25.3906 17.8202 24.8239 18.5493C23.9753 18.1744 24.1503 18.2671 16.8445 18.2671C16.3462 17.5235 16.0592 16.6586 16.014 15.7646C15.9689 14.8707 16.1673 13.9813 16.5881 13.1913C17.0089 12.4013 17.6363 11.7404 18.4033 11.279C19.1704 10.8177 20.0483 10.5733 20.9433 10.5719ZM9.20286 21.5647C9.20286 21.273 9.31875 20.9932 9.52502 20.787C9.73129 20.5807 10.011 20.4648 10.3028 20.4648H23.485C23.7768 20.4648 24.0565 20.5807 24.2628 20.787C24.4691 20.9932 24.5849 21.273 24.5849 21.5647V24.8603H9.21316L9.20286 21.5647ZM10.3028 40.2527V34.1455C10.9676 34.5428 11.7261 34.756 12.5005 34.7635V36.9612C12.5005 37.2529 12.6164 37.5327 12.8226 37.7389C13.0289 37.9452 13.3087 38.0611 13.6004 38.0611C13.8921 38.0611 14.1719 37.9452 14.3781 37.7389C14.5844 37.5327 14.7003 37.2529 14.7003 36.9612V34.7573H19.1061V36.955C19.1061 37.2467 19.2219 37.5265 19.4282 37.7328C19.6345 37.939 19.9142 38.0549 20.206 38.0549C20.4977 38.0549 20.7774 37.939 20.9837 37.7328C21.19 37.5265 21.3059 37.2467 21.3059 36.955V34.7573C22.0803 34.7498 22.8388 34.5366 23.5036 34.1394C23.5036 40.7305 23.5654 40.438 23.3573 40.7902C23.262 40.9587 23.1237 41.099 22.9566 41.1967C22.7894 41.2943 22.5994 41.346 22.4057 41.3464H11.4109C11.1206 41.3458 10.8423 41.2306 10.6367 41.0257C10.431 40.8208 10.3147 40.5429 10.3131 40.2527H10.3028ZM23.9155 43.1651C24.2584 42.9714 24.573 42.7316 24.8507 42.4524H27.8908C29.3481 42.4535 30.7455 43.0328 31.7761 44.0631C32.8068 45.0934 33.3866 46.4905 33.3882 47.9478V57.8345H27.7734L26.8012 50.0611C26.7809 49.4919 26.5405 48.9528 26.1305 48.5574C25.7205 48.162 25.173 47.9413 24.6035 47.9416H22.4057C21.8327 47.9371 21.2808 48.1582 20.8692 48.557C20.4577 48.9558 20.2195 49.5005 20.206 50.0735L19.1761 65.5359H13.6148V43.5503C23.275 43.5503 22.9825 43.6615 23.9258 43.1651H23.9155ZM13.6107 71.0395V67.7439H20.2018C20.7849 67.7439 21.3441 67.9754 21.7566 68.3875C22.1691 68.7996 22.4011 69.3586 22.4016 69.9416V71.0395H13.6107ZM24.5273 69.2496C24.3937 68.4198 24.0245 67.6459 23.4636 67.02C22.9027 66.3941 22.1737 65.9426 21.3635 65.7192L22.3934 50.1538H24.5911C24.5881 50.199 24.5881 50.2445 24.5911 50.2897C25.9011 60.7593 25.6828 57.8922 25.6828 63.3443C25.6847 63.8954 25.8937 64.4256 26.2684 64.8297C26.6431 65.2337 27.1561 65.4821 27.7054 65.5256L24.5273 69.2496ZM27.8949 63.3443V60.0487H34.4861C35.0691 60.0487 35.6284 60.2802 36.0408 60.6923C36.4533 61.1044 36.6853 61.6634 36.6859 62.2465V63.3464L27.8949 63.3443ZM35.5901 58.0034V47.9478C35.5855 46.2949 35.0482 44.6875 34.0579 43.364C33.0676 42.0406 31.6771 41.0716 30.0927 40.6007V32.5081L31.8331 34.2465C32.8668 35.2742 34.2643 35.8523 35.7219 35.8551H41.0772C41.0772 64.7243 40.9907 62.5328 41.2832 63.3381H38.8939V62.2382C38.8907 61.2665 38.5655 60.3232 37.9692 59.5558C37.3729 58.7885 36.5392 58.2404 35.5983 57.9972L35.5901 58.0034Z" fill="#FF3434"/>
</svg>
