<svg width="64" height="19" viewBox="0 0 64 19" fill="none" xmlns="http://www.w3.org/2000/svg">
<path d="M10.2013 0.306L12.6793 6.171L19.0233 6.716C19.4633 6.754 19.6423 7.303 19.3083 7.592L14.4963 11.761L15.9383 17.963C16.0383 18.394 15.5713 18.733 15.1933 18.504L9.74128 15.216L4.28928 18.504C3.91028 18.732 3.44428 18.393 3.54428 17.963L4.98628 11.761L0.173282 7.591C-0.160718 7.302 0.0172817 6.753 0.458282 6.715L6.80228 6.17L9.28028 0.306C9.45228 -0.102 10.0293 -0.102 10.2013 0.306Z" fill="#EB6E00"/>
<path d="M32.2013 0.306L34.6793 6.171L41.0233 6.716C41.4633 6.754 41.6423 7.303 41.3083 7.592L36.4963 11.761L37.9383 17.963C38.0383 18.394 37.5713 18.733 37.1933 18.504L31.7413 15.216L26.2893 18.504C25.9103 18.732 25.4443 18.393 25.5443 17.963L26.9863 11.761L22.1733 7.591C21.8393 7.302 22.0173 6.753 22.4583 6.715L28.8023 6.17L31.2803 0.306C31.4523 -0.102 32.0293 -0.102 32.2013 0.306Z" fill="#EB6E00"/>
<path d="M54.2013 0.306L56.6793 6.171L63.0233 6.716C63.4633 6.754 63.6423 7.303 63.3083 7.592L58.4963 11.761L59.9383 17.963C60.0383 18.394 59.5713 18.733 59.1933 18.504L53.7413 15.216L48.2893 18.504C47.9103 18.732 47.4443 18.393 47.5443 17.963L48.9863 11.761L44.1733 7.591C43.8393 7.302 44.0173 6.753 44.4583 6.715L50.8023 6.17L53.2803 0.306C53.4523 -0.102 54.0293 -0.102 54.2013 0.306Z" fill="#EB6E00"/>
</svg>
