<svg width="33" height="33" viewBox="0 0 33 33" fill="none" xmlns="http://www.w3.org/2000/svg">
<path d="M7.73438 16.4999C7.73438 14.865 8.18484 13.3334 8.96743 12.0219V6.45911H3.40461C1.19677 9.3265 0 12.8211 0 16.4999C0 20.1788 1.19677 23.6734 3.40461 26.5408H8.96743V20.9779C8.18484 19.6665 7.73438 18.1349 7.73438 16.4999Z" fill="#FBBD00"/>
<path d="M16.5 25.2657L12.6328 29.1329L16.5 33.0001C20.1789 33.0001 23.6734 31.8033 26.5408 29.5955V24.0386H20.9839C19.661 24.824 18.123 25.2657 16.5 25.2657Z" fill="#0F9D58"/>
<path d="M8.96748 20.978L3.40466 26.5408C3.84178 27.1086 4.31777 27.6522 4.83282 28.1673C7.94925 31.2837 12.0928 33 16.5001 33V25.2656C13.3016 25.2656 10.4984 23.5435 8.96748 20.978Z" fill="#31AA52"/>
<path d="M33 16.5C33 15.4961 32.9091 14.4904 32.7298 13.5108L32.5847 12.7181H16.5V20.4525H24.328C23.5678 21.9646 22.399 23.1983 20.9839 24.0386L26.5408 29.5954C27.1085 29.1583 27.6521 28.6823 28.1672 28.1673C31.2837 25.0508 33 20.9073 33 16.5Z" fill="#3C79E6"/>
<path d="M22.6983 10.3017L23.3819 10.9853L28.8509 5.51635L28.1673 4.83276C25.0509 1.71632 20.9074 0 16.5 0L12.6328 3.86719L16.5 7.73438C18.8413 7.73438 21.0426 8.64613 22.6983 10.3017Z" fill="#CF2D48"/>
<path d="M16.5001 7.73438V0C12.0928 0 7.94932 1.71632 4.83282 4.8327C4.31777 5.34774 3.84178 5.8914 3.40466 6.45917L8.96748 12.022C10.4984 9.45656 13.3017 7.73438 16.5001 7.73438Z" fill="#EB4132"/>
</svg>
