<svg width="41" height="41" viewBox="0 0 41 41" fill="none" xmlns="http://www.w3.org/2000/svg">
<g clip-path="url(#clip0)">
<path d="M19.8081 15.6331C20.0752 15.8867 20.5194 15.8354 20.7224 15.5292L24.7197 9.49645C24.903 9.21993 24.8273 8.84706 24.5508 8.66376C24.2746 8.48077 23.9017 8.55647 23.7184 8.83267L20.1162 14.2692L18.1145 12.3686C17.874 12.1403 17.4939 12.1503 17.2653 12.3908C17.0369 12.6314 17.0469 13.0114 17.2875 13.2398C17.2872 13.2398 19.8059 15.6312 19.8081 15.6331Z" fill="white"/>
<path d="M20.2178 24.7936C20.3326 24.8461 20.4596 24.874 20.586 24.874H20.591C20.7196 24.8733 20.8485 24.8439 20.9636 24.7889C30.0962 20.4456 31.644 11.0746 31.9005 8.30592C31.9593 7.67374 31.6033 7.08504 31.0149 6.84105C29.1969 6.08625 27.961 4.39836 27.7896 2.43613C27.7367 1.8321 27.2206 1.36133 26.6125 1.36133H26.6053L14.3015 1.43359C13.6812 1.43703 13.1772 1.90842 13.1297 2.52997C12.9783 4.49282 11.7605 6.19292 9.95158 6.9668C9.36914 7.21579 9.02193 7.80762 9.08824 8.43949C9.37727 11.205 11.0348 20.5576 20.2178 24.7936ZM10.4239 8.071C12.642 7.12258 14.1363 5.04023 14.3262 2.63445L26.5947 2.5625C26.8127 4.96297 28.3283 7.02623 30.5545 7.95026C30.654 7.99186 30.7143 8.09008 30.7046 8.19519C30.4638 10.7899 29.0227 19.5388 20.5838 23.6387C12.0965 19.6385 10.554 10.9066 10.2825 8.31468C10.2716 8.20989 10.3285 8.11198 10.4239 8.071Z" fill="white"/>
<path d="M11.9235 11.4005C11.9961 11.6676 12.3349 11.9123 12.6608 11.8225C12.9805 11.7343 13.1697 11.4055 13.0828 11.0855C12.9298 10.5218 12.8013 9.95034 12.7002 9.38416C14.3318 8.32093 15.5427 6.73407 16.1367 4.8807L24.8102 4.82971C25.4258 6.67558 26.6551 8.24867 28.2992 9.29251C28.205 9.86025 28.083 10.4336 27.9363 10.9995C27.8531 11.3207 28.0461 11.6486 28.3671 11.7318C28.6886 11.815 29.0161 11.622 29.0993 11.3007C29.2714 10.6363 29.4115 9.96191 29.5154 9.29626C29.5736 8.92433 29.4034 8.55866 29.0824 8.36473C27.551 7.43976 26.4189 5.98866 25.895 4.27886C25.777 3.89442 25.4145 3.62729 25.0122 3.62729H25.0066L15.9259 3.68047C15.5211 3.68297 15.1589 3.95542 15.0453 4.34267C14.5417 6.05841 13.4265 7.52265 11.906 8.46576C11.5873 8.66314 11.4218 9.03069 11.484 9.4023C11.596 10.0664 11.7437 10.7386 11.9235 11.4005Z" fill="white"/>
<path d="M27.8853 13.1813C27.5788 13.0543 27.2278 13.2007 27.1011 13.5073C25.7132 16.8712 23.5161 19.4287 20.5688 21.1119C17.5987 19.4612 15.3697 16.9253 13.9427 13.572C13.8125 13.267 13.4597 13.125 13.1547 13.2548C12.8494 13.3846 12.7074 13.7375 12.8372 14.0425C14.3947 17.7017 16.8483 20.4603 20.13 22.2411C20.2682 22.3165 20.4196 22.3537 20.5707 22.3537C20.7255 22.3537 20.8801 22.3146 21.0208 22.2361C24.2778 20.419 26.697 17.6363 28.2116 13.9652C28.3383 13.6586 28.1922 13.3077 27.8853 13.1813Z" fill="white"/>
<path d="M3.85343 32.0932C2.68198 32.0932 1.72855 33.0463 1.72855 34.2181C1.72855 35.3898 2.68198 36.3429 3.85343 36.3429C5.0252 36.3429 5.97863 35.3898 5.97863 34.2181C5.97863 33.0463 5.02551 32.0932 3.85343 32.0932ZM3.85343 35.1418C3.34419 35.1418 2.92972 34.7276 2.92972 34.2181C2.92972 33.7088 3.34419 33.2943 3.85343 33.2943C4.36299 33.2943 4.77746 33.7088 4.77746 34.2181C4.77746 34.7276 4.36299 35.1418 3.85343 35.1418Z" fill="white"/>
<path d="M40.5693 26.2134C39.7994 25.0823 38.2495 24.7826 37.1143 25.5452L29.2629 30.8L27.5869 30.7059L27.5441 30.2767C27.377 28.596 26.0923 27.2569 24.4201 27.0204C24.4094 27.0189 24.3991 27.0176 24.3885 27.0167L15.9284 26.2753C15.6421 26.2306 14.7259 25.9675 12.2085 24.5236C10.9 23.7732 9.42576 23.3497 7.92805 23.2921V21.7209C7.92805 20.9323 7.2868 20.291 6.49821 20.291H1.42983C0.641563 20.291 0 20.9326 0 21.7209V37.1957C0 37.9839 0.641563 38.6255 1.42983 38.6255H6.49821C7.28648 38.6255 7.92805 37.9839 7.92805 37.1957V36.7693L15.3234 39.5699C15.3397 39.5761 15.9402 39.8007 17.0444 39.6965C17.0476 39.6962 29.3324 37.9251 29.3324 37.9251C29.3355 37.9248 29.3383 37.9242 29.3414 37.9236C30.3912 37.7562 31.3812 37.3123 32.2049 36.6407C32.2124 36.6345 32.2196 36.6282 32.2267 36.622L40.1629 29.4841C41.0982 28.6536 41.2731 27.2475 40.5693 26.2134ZM39.3625 28.5885L31.4347 35.7189C30.7785 36.251 29.9908 36.6029 29.1563 36.7368L16.8774 38.5069C16.8746 38.5073 16.8705 38.5079 16.8668 38.5085C16.8649 38.5088 16.8627 38.5091 16.8608 38.5094C16.4936 38.5673 16.111 38.5429 15.7235 38.4369L7.92805 35.4849V28.6261C7.92805 28.2942 7.65903 28.0255 7.32746 28.0255C6.99557 28.0255 6.72687 28.2942 6.72687 28.6261V37.1957C6.72687 37.3217 6.62427 37.4243 6.49821 37.4243H1.42983C1.30377 37.4243 1.20117 37.3217 1.20117 37.1957V21.7209C1.20117 21.5948 1.30377 21.4922 1.42983 21.4922H6.49821C6.62427 21.4922 6.72687 21.5948 6.72687 21.7209V25.9131C6.72687 26.245 6.99589 26.5137 7.32746 26.5137C7.65935 26.5137 7.92805 26.2447 7.92805 25.9131V24.4945C9.21649 24.5515 10.484 24.9193 11.6107 25.5659C14.6471 27.3073 15.4951 27.4274 15.7738 27.4668C15.7845 27.4684 15.7948 27.4693 15.8054 27.4706L24.2665 28.2119C25.3819 28.3767 26.2372 29.2726 26.3488 30.3956L26.3807 30.7156L15.0531 31.415C15.0453 31.4144 15.0375 31.4138 15.0306 31.4131C14.6634 31.38 14.3318 31.2064 14.0963 30.9242C13.8839 30.6693 13.505 30.6349 13.2504 30.8476C12.9955 31.06 12.9611 31.4388 13.1738 31.6934C13.6145 32.2221 14.2364 32.5383 14.9236 32.6096C15.2946 32.6484 27.0414 31.8783 27.0414 31.8783L29.3962 32.0106C29.5263 32.0181 29.6555 31.9825 29.7637 31.9099L37.7834 26.5428C38.3724 26.1471 39.1767 26.3022 39.5761 26.889C39.9412 27.4258 39.8504 28.1553 39.3625 28.5885Z" fill="white"/>
</g>
<defs>
<clipPath id="clip0">
<rect width="41" height="41" fill="white"/>
</clipPath>
</defs>
</svg>
