<svg width="42" height="42" viewBox="0 0 42 42" fill="none" xmlns="http://www.w3.org/2000/svg">
<path d="M17.4482 11.2572C19.2758 11.2572 20.7627 9.77037 20.7627 7.9428C20.7627 6.11522 19.2758 4.62833 17.4482 4.62833C15.6207 4.62833 14.1339 6.11522 14.1339 7.9428C14.1339 9.77037 15.6207 11.2572 17.4482 11.2572ZM17.4482 5.85879C18.5974 5.85879 19.5322 6.79362 19.5322 7.9428C19.5322 9.09189 18.5974 10.0267 17.4482 10.0267C16.2991 10.0267 15.3643 9.09189 15.3643 7.9428C15.3643 6.79371 16.2991 5.85879 17.4482 5.85879Z" fill="white"/>
<path d="M16.229 35.8478C18.3204 35.8478 20.022 34.1463 20.022 32.0548C20.022 29.9633 18.3204 28.2618 16.229 28.2618C14.1375 28.2618 12.4359 29.9633 12.4359 32.0548C12.4359 34.1463 14.1375 35.8478 16.229 35.8478ZM16.229 29.4922C17.642 29.4922 18.7915 30.6418 18.7915 32.0548C18.7915 33.4678 17.6419 34.6174 16.229 34.6174C14.816 34.6174 13.6664 33.4678 13.6664 32.0548C13.6664 30.6418 14.8159 29.4922 16.229 29.4922Z" fill="white"/>
<path d="M10.7967 10.7979C8.57934 10.7979 6.77539 12.6019 6.77539 14.8193C6.77539 17.0367 8.57934 18.8406 10.7967 18.8406C13.0141 18.8406 14.8181 17.0367 14.8181 14.8193C14.8181 12.6019 13.0141 10.7979 10.7967 10.7979ZM10.7967 17.6102C9.25782 17.6102 8.00586 16.3583 8.00586 14.8193C8.00586 13.2804 9.2579 12.0285 10.7967 12.0285C12.3355 12.0285 13.5876 13.2804 13.5876 14.8193C13.5876 16.3583 12.3356 17.6102 10.7967 17.6102Z" fill="white"/>
<path d="M9.64499 28.6062C11.8624 28.6062 13.6663 26.8022 13.6663 24.5848C13.6663 22.3675 11.8624 20.5635 9.64499 20.5635C7.42761 20.5635 5.62366 22.3675 5.62366 24.5848C5.62366 26.8022 7.42761 28.6062 9.64499 28.6062ZM9.64499 21.7939C11.1839 21.7939 12.4359 23.0459 12.4359 24.5848C12.4359 26.1237 11.1838 27.3756 9.64499 27.3756C8.10617 27.3756 6.85413 26.1237 6.85413 24.5848C6.85413 23.0459 8.10609 21.7939 9.64499 21.7939Z" fill="white"/>
<path d="M13.6532 40.2322C13.9869 40.2937 14.3078 40.0718 14.3689 39.7375C14.43 39.4032 14.2084 39.0828 13.8742 39.0218C11.516 38.5912 9.40652 37.4214 7.7737 35.6387C3.01764 30.4462 0.900107 24.8458 1.47982 18.993C2.78796 5.78414 16.7171 -0.790452 29.5629 1.77883C31.2984 2.1259 31.9743 3.54044 32.0256 4.64621C32.0763 5.73771 31.5419 7.18957 29.8686 7.68946C27.7067 8.33529 25.9974 9.2779 24.7881 10.4911C22.0164 13.2716 21.7763 17.9632 24.4229 21.1235C25.7297 22.6839 26.5657 24.5762 26.8464 26.6053C25.4532 29.7719 24.0285 33.358 22.9259 36.6772C21.1544 38.1405 18.9131 39.0271 16.5946 39.1786C16.2555 39.2007 15.9986 39.4935 16.0207 39.8326C16.0421 40.158 16.3126 40.4078 16.6342 40.4078C16.6476 40.4078 16.6611 40.4074 16.6748 40.4064C18.6712 40.276 20.6167 39.6538 22.3082 38.6227C21.9504 39.8693 22.5345 41.1751 23.7094 41.7396C24.964 42.3426 26.4827 41.8648 27.1674 40.6535C28.3521 38.5573 29.6358 36.0132 30.8794 33.2962C31.0209 32.9873 30.885 32.6222 30.5762 32.4808C30.2671 32.3393 29.9021 32.4753 29.7607 32.7841C28.5313 35.47 27.2641 37.9818 26.0962 40.0481C25.729 40.6978 24.9148 40.9535 24.2423 40.6307C23.606 40.3249 23.2924 39.6141 23.4967 38.9407C25.0849 33.7018 27.7336 27.3247 30.1599 22.3937L33.4668 23.8092C32.6957 25.9103 31.8174 28.0981 30.9213 30.1724C30.7866 30.4844 30.9304 30.8464 31.2424 30.981C31.5549 31.1158 31.9165 30.9718 32.0511 30.6598C33.7391 26.7425 35.6231 21.8497 36.7225 17.7334C37.1133 17.593 37.3958 17.3103 37.5455 16.9606L38.0779 15.7167C38.192 15.4501 38.2172 15.1677 38.1674 14.9021C39.1915 14.2484 40.6249 13.0823 41.3677 11.347C42.2854 9.20358 41.6756 5.57217 41.2304 3.59835C41.1451 3.22019 40.8813 2.90322 40.5249 2.75065C40.1684 2.59807 39.7571 2.62588 39.4246 2.82529C37.6891 3.86585 34.6406 5.93138 33.7231 8.07468C32.9806 9.80922 33.126 11.6507 33.3597 12.843C33.1269 12.994 32.944 13.2103 32.8323 13.4711L32.2999 14.7151C32.1489 15.0675 32.1416 15.4657 32.3087 15.8439C30.6579 18.5492 29.0189 21.8325 27.6968 24.7133C27.2324 23.1102 26.4441 21.6206 25.3663 20.3336C24.3343 19.1012 23.811 17.6568 23.811 16.0404C23.811 12.5522 25.9676 10.1392 30.2209 8.86857C32.1579 8.28993 33.3487 6.61019 33.2548 4.58928C33.1771 2.91782 32.08 1.02759 29.8042 0.572405C16.2625 -2.13608 1.6392 4.90149 0.255264 18.8717C-0.360376 25.0875 1.86388 31.0084 6.86636 36.4698C8.68194 38.452 11.0288 39.7531 13.6532 40.2322ZM33.2524 16.66C34.0587 17.0051 34.6742 17.2687 35.4805 17.6138C35.0783 19.093 34.5335 20.8121 33.8844 22.6495L30.7106 21.2909C31.5923 19.5526 32.4599 17.9718 33.2524 16.66ZM36.9467 15.2323L36.4143 16.4763C36.3712 16.5767 36.2587 16.6085 36.1743 16.5723L33.527 15.4391C33.4412 15.4023 33.3884 15.2985 33.4309 15.1992L33.9634 13.9552C34.0049 13.8585 34.1146 13.8211 34.2035 13.8592L36.8507 14.9924C36.936 15.029 36.9885 15.1348 36.9467 15.2323ZM34.8541 8.55882C35.1235 7.92948 36.1677 6.21652 40.0354 3.8935C41.0248 8.29583 40.5058 10.2333 40.2364 10.8627C39.6012 12.3468 38.3233 13.3544 37.4356 13.9093C37.4027 13.892 37.3689 13.8759 37.3347 13.8613L34.6875 12.728H34.6874C34.6532 12.7134 34.6184 12.7001 34.5831 12.6883C34.372 11.6629 34.219 10.0428 34.8541 8.55882Z" fill="white"/>
</svg>
