<svg width="34" height="42" viewBox="0 0 34 42" fill="none" xmlns="http://www.w3.org/2000/svg">
<path d="M31.179 37.1647V41.3C31.179 41.6866 30.8656 42 30.479 42C30.0924 42 29.7789 41.6866 29.7789 41.3V37.1647C29.7789 33.945 27.1735 31.3394 23.9535 31.3394C22.4299 31.3394 21.0475 30.5632 20.2557 29.263C20.0545 28.9328 20.1591 28.5021 20.4894 28.301C20.8194 28.0997 21.2502 28.2044 21.4513 28.5348C21.987 29.4143 22.9225 29.9393 23.9535 29.9393C27.9469 29.9391 31.179 33.1709 31.179 37.1647ZM33.2333 24.3083C33.9384 23.2628 33.8772 21.902 33.081 20.9219L31.7415 19.2729C31.4376 18.899 31.3386 18.4029 31.4762 17.9459L32.268 15.3187C32.6301 14.1172 32.1672 12.8345 31.1163 12.127L29.5424 11.0676C29.0163 10.7134 28.7744 10.0727 28.9401 9.47306C29.4316 7.69688 28.1235 5.92437 26.2469 5.8443L25.5509 5.81472C24.362 5.76415 23.372 4.93468 23.1432 3.79782L23.0941 3.55376C22.705 1.62025 20.5135 0.679303 18.8173 1.63329C18.2287 1.96432 17.4833 1.86815 17.0046 1.39938L16.4199 0.826925C15.2939 -0.275642 13.4619 -0.275642 12.336 0.826925L11.0586 2.07764C10.8376 2.29413 10.557 2.43553 10.2473 2.48681L7.60642 2.92338C5.36655 3.29379 3.95334 5.48789 4.54925 7.62783L5.06798 9.49021C5.23223 10.0798 4.99491 10.71 4.47723 11.0584L2.87387 12.1379C1.83265 12.8389 1.37403 14.1098 1.73281 15.3002L2.534 17.959C2.6692 18.4077 2.57189 18.8948 2.2735 19.2622L0.913056 20.9369C0.124108 21.908 0.0634673 23.2565 0.762109 24.2923L2.07233 26.235C2.42261 26.7544 2.39312 27.4318 1.999 27.9206L1.805 28.161C0.752221 29.467 0.86379 31.3386 2.06463 32.5144C2.20096 32.6478 2.37772 32.7143 2.55439 32.7143C3.17664 32.7143 3.49332 31.9538 3.04433 31.5141C2.36118 30.8452 2.29713 29.7815 2.89496 29.0399L3.08887 28.7995C3.87108 27.8293 3.92919 26.4842 3.23317 25.4522L1.92287 23.5094C1.57127 22.9882 1.60216 22.309 1.9997 21.8196L3.36023 20.1449C3.9515 19.417 4.14384 18.4488 3.87458 17.555L3.0733 14.8962C2.89278 14.2971 3.12685 13.6554 3.65573 13.2993L5.25901 12.2199C6.27792 11.5342 6.7431 10.2862 6.4167 9.11464L5.89797 7.25226C5.51592 5.88097 6.44768 4.534 7.83481 4.30465L10.4758 3.86808C11.0704 3.76981 11.6107 3.49662 12.0381 3.07809L13.3155 1.82729C13.9013 1.25378 14.8546 1.2536 15.4403 1.82729L16.025 2.39983C16.9457 3.30105 18.3762 3.48779 19.5037 2.85363C20.4039 2.34698 21.5268 2.86247 21.7215 3.82993L21.7706 4.07398C22.1268 5.84439 23.6568 7.13544 25.4914 7.21367L26.1874 7.24325C27.1646 7.28481 27.8418 8.19268 27.5908 9.09985C27.2642 10.2806 27.7344 11.5382 28.7606 12.2291L30.3344 13.2886C30.873 13.6511 31.1114 14.3046 30.9275 14.9147L30.1356 17.542C29.8639 18.4439 30.0579 19.421 30.6549 20.1557L31.9944 21.8047C32.3993 22.303 32.4306 22.9945 32.0726 23.5254L30.7839 25.4363C30.0816 26.4776 30.1402 27.8353 30.9296 28.8144C31.1405 29.0758 31.3752 29.3265 31.4794 29.8046C31.562 30.1823 31.935 30.4215 32.3127 30.3392C32.6903 30.2568 32.9298 29.8838 32.8473 29.506C32.669 28.6892 32.2591 28.2328 32.0193 27.9355C31.618 27.4378 31.5879 26.7479 31.9446 26.219L33.2333 24.3083ZM26.072 33.5832C21.0041 34.9929 15.9709 33.8867 12.0607 30.848C13.3289 30.1832 14.2431 28.9005 14.3633 27.3655C20.338 29.1295 26.318 24.6424 26.366 18.4579C26.3664 18.4423 26.3662 14.822 26.3662 14.8064C26.3662 10.9464 23.2259 7.806 19.3658 7.806H16.964C14.5873 7.806 12.4103 9.16417 11.5467 11.1857C11.0193 12.4201 11.2456 13.2456 11.0646 14.2207C10.7672 15.8236 9.46241 17.3439 7.18666 18.7396C6.85711 18.9417 6.75377 19.3727 6.95591 19.7023C7.15805 20.0319 7.58892 20.1353 7.91864 19.9331C10.5467 18.3215 12.0683 16.4856 12.4412 14.4763C12.6496 13.3544 12.4284 12.6857 12.8342 11.7359C13.4807 10.2229 15.1403 9.20625 16.964 9.20625H19.3658C22.4539 9.20625 24.9662 11.7185 24.9662 14.8066V18.3849C24.9662 22.7757 21.394 26.3478 17.0032 26.3478C13.8904 26.3478 11.0446 24.517 9.75319 21.6835C9.59288 21.3317 9.17767 21.1765 8.8259 21.3368C8.47404 21.4972 8.3188 21.9123 8.4792 22.2641C9.40903 24.3042 11.0248 25.901 12.9778 26.8333V27.0221C12.9778 28.636 11.6701 29.9397 10.0528 29.9397C6.05093 29.9397 2.82723 33.1792 2.82723 37.1651V41.3003C2.82723 41.6869 3.14068 42.0003 3.52728 42.0003C3.91387 42.0003 4.22732 41.6869 4.22732 41.3003V37.1651C4.22732 33.9455 6.83279 31.3398 10.0528 31.3398C10.1817 31.3398 10.309 31.3333 10.4349 31.3223C14.7251 35.0636 20.557 36.571 26.4474 34.9323C26.8199 34.8287 27.0378 34.4427 26.9342 34.0702C26.8305 33.6975 26.4448 33.4794 26.072 33.5832Z" fill="white"/>
</svg>
