<svg width="92" height="92" viewBox="0 0 92 92" fill="none" xmlns="http://www.w3.org/2000/svg">
<circle cx="46" cy="46" r="46" fill="#FBC926"/>
<path d="M61.0698 52.0963L39.9027 31.027C39.5311 30.6554 38.9241 30.6554 38.5507 31.0288L34.7723 34.8073C34.3988 35.1807 34.3988 35.7878 34.7723 36.1612L36.0094 37.4003L30.0516 43.358C26.2005 47.2092 26.0089 53.301 29.3813 57.4337L23.2801 63.5349C22.9066 63.9084 22.9066 64.5155 23.2801 64.8889L27.1102 68.719C27.2979 68.9067 27.543 68.9986 27.7881 68.9986C28.0333 68.9986 28.2784 68.9048 28.4661 68.719L34.5674 62.6177C36.4978 64.1918 38.8342 65.0287 41.1954 65.0287C43.8918 65.0287 46.5901 64.0023 48.643 61.9493L54.6008 55.9916L55.8379 57.2287C56.2074 57.5983 56.8088 57.6021 57.1822 57.2383L61.0621 53.4599C61.2459 53.2799 61.3493 53.0348 61.3512 52.7801C61.3532 52.5253 61.2498 52.2763 61.0698 52.0963Z" fill="white"/>
<path d="M56.4277 24.0715C55.0029 22.6448 52.68 22.6448 51.2552 24.0715L43.4609 31.8658L48.6564 37.0383L56.4372 29.2555C57.1285 28.5642 57.5097 27.6468 57.5097 26.6683C57.5097 25.6897 57.1286 24.7724 56.4277 24.0715Z" fill="white"/>
<path d="M67.916 35.5617C66.4912 34.135 64.1683 34.135 62.7435 35.5617L54.9761 43.3292L60.1736 48.5017L67.9276 40.7476C68.6189 40.0563 69.0001 39.139 69.0001 38.1604C69.0001 37.1818 68.6189 36.2626 67.916 35.5617Z" fill="white"/>
<g filter="url(#filter0_d)">
<rect x="17" y="26.2427" width="6" height="67" transform="rotate(-45 17 26.2427)" fill="white"/>
</g>
<defs>
<filter id="filter0_d" x="13" y="22" width="59.6188" height="59.6188" filterUnits="userSpaceOnUse" color-interpolation-filters="sRGB">
<feFlood flood-opacity="0" result="BackgroundImageFix"/>
<feColorMatrix in="SourceAlpha" type="matrix" values="0 0 0 0 0 0 0 0 0 0 0 0 0 0 0 0 0 0 127 0"/>
<feOffset dy="4"/>
<feGaussianBlur stdDeviation="2"/>
<feColorMatrix type="matrix" values="0 0 0 0 0 0 0 0 0 0 0 0 0 0 0 0 0 0 0.25 0"/>
<feBlend mode="normal" in2="BackgroundImageFix" result="effect1_dropShadow"/>
<feBlend mode="normal" in="SourceGraphic" in2="effect1_dropShadow" result="shape"/>
</filter>
</defs>
</svg>
