<svg width="77" height="413" viewBox="0 0 77 413" fill="none" xmlns="http://www.w3.org/2000/svg">
<circle cx="38.5" cy="38.5" r="36" stroke="#FBC926" stroke-width="5"/>
<circle cx="38.5" cy="150.5" r="36" stroke="#FBC926" stroke-width="5"/>
<circle cx="38.5" cy="262.5" r="36" stroke="#FBC926" stroke-width="5"/>
<circle cx="38.5" cy="374.5" r="36" stroke="#FBC926" stroke-width="5"/>
<path d="M39 76V112" stroke="#FBC926" stroke-width="5"/>
<path d="M39 188V224" stroke="#FBC926" stroke-width="5"/>
<path d="M38 300V336" stroke="#FBC926" stroke-width="5"/>
<path d="M39.4399 41.7119C39.4399 45.1527 38.7279 47.7845 37.3037 49.6074C35.8796 51.4303 33.7946 52.3418 31.0488 52.3418C28.3372 52.3418 26.2637 51.4474 24.8281 49.6587C23.3926 47.87 22.6577 45.3065 22.6235 41.9683V37.3882C22.6235 33.9132 23.3413 31.2757 24.7769 29.4756C26.2238 27.6755 28.3031 26.7754 31.0146 26.7754C33.7262 26.7754 35.7998 27.6698 37.2354 29.4585C38.6709 31.2358 39.4058 33.7936 39.4399 37.1318V41.7119ZM34.501 36.6875C34.501 34.6253 34.2161 33.1271 33.6465 32.1929C33.0882 31.2472 32.2109 30.7744 31.0146 30.7744C29.8525 30.7744 28.9924 31.2244 28.4341 32.1245C27.8872 33.0132 27.5967 34.4089 27.5625 36.3115V42.3613C27.5625 44.3893 27.8359 45.8989 28.3828 46.8901C28.9411 47.87 29.8298 48.3599 31.0488 48.3599C32.2565 48.3599 33.1281 47.887 33.6636 46.9414C34.1991 45.9958 34.4782 44.5488 34.501 42.6006V36.6875ZM54.7866 52H49.8477V32.9619L43.9517 34.7905V30.7744L54.2568 27.083H54.7866V52Z" fill="#FBC926"/>
<path d="M36.4399 152.712C36.4399 156.153 35.7279 158.785 34.3037 160.607C32.8796 162.43 30.7946 163.342 28.0488 163.342C25.3372 163.342 23.2637 162.447 21.8281 160.659C20.3926 158.87 19.6577 156.306 19.6235 152.968V148.388C19.6235 144.913 20.3413 142.276 21.7769 140.476C23.2238 138.675 25.3031 137.775 28.0146 137.775C30.7262 137.775 32.7998 138.67 34.2354 140.458C35.6709 142.236 36.4058 144.794 36.4399 148.132V152.712ZM31.501 147.688C31.501 145.625 31.2161 144.127 30.6465 143.193C30.0882 142.247 29.2109 141.774 28.0146 141.774C26.8525 141.774 25.9924 142.224 25.4341 143.125C24.8872 144.013 24.5967 145.409 24.5625 147.312V153.361C24.5625 155.389 24.8359 156.899 25.3828 157.89C25.9411 158.87 26.8298 159.36 28.0488 159.36C29.2565 159.36 30.1281 158.887 30.6636 157.941C31.1991 156.996 31.4782 155.549 31.501 153.601V147.688ZM56.8452 163H39.7896V159.616L47.8389 151.037C48.944 149.829 49.7586 148.776 50.2827 147.875C50.8182 146.975 51.0859 146.121 51.0859 145.312C51.0859 144.207 50.8068 143.341 50.2485 142.714C49.6903 142.076 48.8927 141.757 47.856 141.757C46.7394 141.757 45.8564 142.145 45.207 142.919C44.569 143.683 44.25 144.691 44.25 145.944H39.2939C39.2939 144.429 39.6528 143.045 40.3706 141.792C41.0998 140.538 42.1252 139.558 43.4468 138.852C44.7684 138.134 46.2666 137.775 47.9414 137.775C50.5049 137.775 52.493 138.391 53.9058 139.621C55.3299 140.852 56.042 142.589 56.042 144.833C56.042 146.064 55.723 147.317 55.085 148.593C54.4469 149.869 53.3532 151.356 51.8037 153.054L46.147 159.018H56.8452V163Z" fill="#FBC926"/>
<path d="M36.4399 263.712C36.4399 267.153 35.7279 269.785 34.3037 271.607C32.8796 273.43 30.7946 274.342 28.0488 274.342C25.3372 274.342 23.2637 273.447 21.8281 271.659C20.3926 269.87 19.6577 267.306 19.6235 263.968V259.388C19.6235 255.913 20.3413 253.276 21.7769 251.476C23.2238 249.675 25.3031 248.775 28.0146 248.775C30.7262 248.775 32.7998 249.67 34.2354 251.458C35.6709 253.236 36.4058 255.794 36.4399 259.132V263.712ZM31.501 258.688C31.501 256.625 31.2161 255.127 30.6465 254.193C30.0882 253.247 29.2109 252.774 28.0146 252.774C26.8525 252.774 25.9924 253.224 25.4341 254.125C24.8872 255.013 24.5967 256.409 24.5625 258.312V264.361C24.5625 266.389 24.8359 267.899 25.3828 268.89C25.9411 269.87 26.8298 270.36 28.0488 270.36C29.2565 270.36 30.1281 269.887 30.6636 268.941C31.1991 267.996 31.4782 266.549 31.501 264.601V258.688ZM44.814 259.371H47.4458C48.6991 259.371 49.6276 259.058 50.2314 258.431C50.8353 257.805 51.1372 256.973 51.1372 255.936C51.1372 254.933 50.8353 254.153 50.2314 253.595C49.639 253.036 48.8187 252.757 47.7705 252.757C46.8249 252.757 46.033 253.019 45.395 253.543C44.757 254.056 44.438 254.728 44.438 255.56H39.499C39.499 254.261 39.8465 253.099 40.5415 252.074C41.2479 251.037 42.2277 250.228 43.481 249.647C44.7456 249.066 46.1356 248.775 47.6509 248.775C50.2827 248.775 52.3449 249.408 53.8374 250.672C55.3299 251.926 56.0762 253.657 56.0762 255.868C56.0762 257.007 55.7287 258.055 55.0337 259.012C54.3387 259.969 53.4272 260.704 52.2993 261.217C53.7007 261.718 54.7432 262.47 55.4268 263.473C56.1217 264.475 56.4692 265.66 56.4692 267.027C56.4692 269.238 55.6603 271.009 54.0425 272.342C52.436 273.675 50.3055 274.342 47.6509 274.342C45.1672 274.342 43.1335 273.687 41.5498 272.376C39.9775 271.066 39.1914 269.334 39.1914 267.181H44.1304C44.1304 268.115 44.4779 268.879 45.1729 269.471C45.8792 270.064 46.7451 270.36 47.7705 270.36C48.944 270.36 49.8612 270.052 50.522 269.437C51.1942 268.81 51.5303 267.984 51.5303 266.959C51.5303 264.475 50.1631 263.233 47.4287 263.233H44.814V259.371Z" fill="#FBC926"/>
<path d="M35.4399 375.712C35.4399 379.153 34.7279 381.785 33.3037 383.607C31.8796 385.43 29.7946 386.342 27.0488 386.342C24.3372 386.342 22.2637 385.447 20.8281 383.659C19.3926 381.87 18.6577 379.306 18.6235 375.968V371.388C18.6235 367.913 19.3413 365.276 20.7769 363.476C22.2238 361.675 24.3031 360.775 27.0146 360.775C29.7262 360.775 31.7998 361.67 33.2354 363.458C34.6709 365.236 35.4058 367.794 35.4399 371.132V375.712ZM30.501 370.688C30.501 368.625 30.2161 367.127 29.6465 366.193C29.0882 365.247 28.2109 364.774 27.0146 364.774C25.8525 364.774 24.9924 365.224 24.4341 366.125C23.8872 367.013 23.5967 368.409 23.5625 370.312V376.361C23.5625 378.389 23.8359 379.899 24.3828 380.89C24.9411 381.87 25.8298 382.36 27.0488 382.36C28.2565 382.36 29.1281 381.887 29.6636 380.941C30.1991 379.996 30.4782 378.549 30.501 376.601V370.688ZM53.4014 376.635H56.2212V380.617H53.4014V386H48.4624V380.617H38.2598L38.0376 377.506L48.4111 361.117H53.4014V376.635ZM42.9595 376.635H48.4624V367.851L48.1377 368.415L42.9595 376.635Z" fill="#FBC926"/>
</svg>
