<svg width="92" height="92" viewBox="0 0 92 92" fill="none" xmlns="http://www.w3.org/2000/svg">
<circle cx="46" cy="46" r="46" fill="#FBC926"/>
<g filter="url(#filter0_d)">
<path d="M46.4357 38.0076C43.2848 38.0077 40.7305 40.562 40.7306 43.7129C40.7307 46.8638 43.285 49.4181 46.4359 49.418C49.5869 49.4179 52.141 46.8636 52.141 43.7128C52.1374 40.5633 49.5852 38.0112 46.4357 38.0076ZM46.4357 47.7143C44.2257 47.7142 42.4341 45.9227 42.4343 43.7127C42.4344 41.5026 44.2259 39.7111 46.4359 39.7113C48.6458 39.7114 50.4374 41.5029 50.4374 43.7128C50.4348 45.9218 48.6447 47.7119 46.4357 47.7143Z" fill="white"/>
<path d="M56.3158 45.9533C56.0543 45.7278 55.9234 45.3861 55.9674 45.0434C56.1004 44.021 56.0738 42.984 55.8884 41.9697C55.8258 41.6294 55.9383 41.2803 56.1881 41.0409L57.1021 40.164L56.2496 38.2152L54.988 38.3081C54.6364 38.3342 54.2961 38.1783 54.0862 37.895C53.4796 37.0748 52.7356 36.3658 51.887 35.7995C51.5919 35.6028 51.4189 35.2677 51.4293 34.9132L51.4663 33.6528L49.4895 32.8899L48.6768 33.832C48.4512 34.0934 48.1095 34.2243 47.7669 34.1804C46.7445 34.0474 45.7075 34.074 44.6932 34.2593C44.3529 34.3223 44.0037 34.2097 43.7643 33.9598L42.8875 33.0456L40.9387 33.8982L41.0314 35.1597C41.0573 35.5112 40.9015 35.8515 40.6184 36.0615C39.7982 36.6682 39.0893 37.4122 38.5229 38.2607C38.3271 38.557 37.9916 38.7303 37.6366 38.7184L36.3763 38.6815L35.6134 40.6583L36.5554 41.4709C36.8169 41.6965 36.9478 42.0382 36.9038 42.3808C36.7709 43.4033 36.7975 44.4403 36.9828 45.4546C37.0454 45.7949 36.9329 46.1439 36.6831 46.3834L35.7691 47.2603L36.6217 49.2091L37.8832 49.1162C38.2348 49.0899 38.5752 49.2459 38.785 49.5293C39.3916 50.3495 40.1356 51.0585 40.9842 51.6247C41.2794 51.8215 41.4523 52.1565 41.4419 52.5111L41.4049 53.7715L43.3817 54.5344L44.1944 53.5923C44.42 53.3309 44.7617 53.1999 45.1043 53.2439C46.1268 53.3768 47.1637 53.3502 48.1781 53.165C48.5184 53.1023 48.8673 53.2149 49.1069 53.4645L49.9837 54.3786L51.9326 53.5261L51.8398 52.2646C51.814 51.9131 51.9697 51.5728 52.2528 51.3628C53.0731 50.7561 53.782 50.0121 54.3483 49.1636C54.5447 48.868 54.8799 48.6949 55.2346 48.7058L56.495 48.7427L57.2579 46.766L56.3158 45.9533ZM46.4357 51.4757C42.1484 51.4756 38.6727 47.9999 38.6729 43.7126C38.673 39.4253 42.1486 35.9496 46.4359 35.9498C50.7232 35.9499 54.1988 39.4254 54.1988 43.7127C54.1939 47.9981 50.7211 51.4708 46.4357 51.4757Z" fill="white"/>
<path d="M66.8845 27.3794H26.1155C23.8426 27.3794 22 29.222 22 31.4949V54.6445C22 56.9174 23.8426 58.76 26.1155 58.76H66.8845C69.1574 58.76 71 56.9174 71 54.6445V31.4949C71 29.222 69.1574 27.3794 66.8845 27.3794ZM59.4381 46.8309L58.152 50.1631C57.996 50.5712 57.5983 50.8353 57.1617 50.8211L55.7258 50.7789C55.2053 51.4757 54.603 52.1077 53.9321 52.6611L54.038 54.1015C54.07 54.5367 53.824 54.9447 53.4243 55.1196L50.1504 56.5519C49.7552 56.7247 49.2942 56.6328 48.9955 56.3215L47.9943 55.2776C47.1349 55.3934 46.2654 55.4156 45.4013 55.3439L44.4664 56.4275C44.1825 56.7566 43.7224 56.8719 43.3169 56.7153L39.9847 55.4293C39.5775 55.2721 39.3138 54.8752 39.3267 54.439L39.3689 53.0031C38.6721 52.4826 38.0401 51.8803 37.4867 51.2093L36.0463 51.3153C35.6111 51.3473 35.2031 51.1013 35.0282 50.7016L33.596 47.4277C33.4232 47.0325 33.5151 46.5714 33.8264 46.2728L34.8703 45.2716C34.7545 44.4122 34.7323 43.5428 34.8039 42.6786L33.7204 41.7437C33.3913 41.4598 33.276 40.9997 33.4326 40.5942L34.7187 37.262C34.8753 36.8544 35.2726 36.5905 35.7089 36.604L37.1449 36.6462C37.6653 35.9494 38.2676 35.3174 38.9386 34.764L38.8326 33.3236C38.8006 32.8884 39.0466 32.4804 39.4463 32.3055L42.7202 30.8732C43.1154 30.7003 43.5765 30.7923 43.8751 31.1035L44.8763 32.1474C45.7357 32.0317 46.6051 32.0094 47.4693 32.0812L48.4042 30.9975C48.6882 30.6684 49.1482 30.5532 49.5537 30.7097L52.886 31.9958C53.2931 32.153 53.5568 32.5499 53.5439 32.9861L53.5017 34.422C54.1985 34.9425 54.8305 35.5448 55.3839 36.2157L56.8243 36.1098C57.2596 36.0775 57.6678 36.3235 57.8424 36.7235L59.2746 39.9973C59.4474 40.3926 59.3555 40.8536 59.0443 41.1523L58.0005 42.1535C58.1161 43.0128 58.1383 43.8824 58.0667 44.7465L59.1502 45.6813C59.4793 45.9653 59.5946 46.4253 59.4381 46.8309Z" fill="white"/>
<path d="M54.2808 60.689H38.5905V66.4764H54.2808V60.689Z" fill="white"/>
<path d="M46.4357 45.6572C47.5096 45.6572 48.3803 44.7866 48.3803 43.7126C48.3803 42.6387 47.5096 41.7681 46.4357 41.7681C45.3617 41.7681 44.4911 42.6387 44.4911 43.7126C44.4911 44.7866 45.3617 45.6572 46.4357 45.6572Z" fill="white"/>
<path d="M58.2677 68.5342H34.6037C34.4616 68.5342 34.3465 68.6493 34.3465 68.7914V71.3636C34.3465 71.5057 34.4616 71.6208 34.6037 71.6208H58.2677C58.4098 71.6208 58.5249 71.5057 58.5249 71.3636V68.7914C58.5249 68.6493 58.4098 68.5342 58.2677 68.5342Z" fill="white"/>
</g>
<defs>
<filter id="filter0_d" x="18" y="25" width="57" height="57" filterUnits="userSpaceOnUse" color-interpolation-filters="sRGB">
<feFlood flood-opacity="0" result="BackgroundImageFix"/>
<feColorMatrix in="SourceAlpha" type="matrix" values="0 0 0 0 0 0 0 0 0 0 0 0 0 0 0 0 0 0 127 0"/>
<feOffset dy="4"/>
<feGaussianBlur stdDeviation="2"/>
<feColorMatrix type="matrix" values="0 0 0 0 0 0 0 0 0 0 0 0 0 0 0 0 0 0 0.25 0"/>
<feBlend mode="normal" in2="BackgroundImageFix" result="effect1_dropShadow"/>
<feBlend mode="normal" in="SourceGraphic" in2="effect1_dropShadow" result="shape"/>
</filter>
</defs>
</svg>
