<svg width="70" height="63" viewBox="0 0 70 63" fill="none" xmlns="http://www.w3.org/2000/svg">
<path d="M70 36.1023V59.8803C70 60.8276 69.2366 61.5954 68.2949 61.5954H60.8869C59.9453 61.5954 59.1819 60.8275 59.1819 59.8803V56.8267C59.0729 57.1613 58.8358 57.4459 58.493 57.502C51.0836 58.718 43.2165 63 35.3959 63C28.0634 63 18.5582 61.4991 13.2368 56.0258C7.30313 49.9222 2.19301 44.3975 0.878793 42.5097C-1.78933 38.6775 2.20228 35.3893 5.07468 38.4223C7.51302 40.9968 12.7999 46.6541 16.832 49.4244C17.4212 51.9895 20.8373 54.4415 24.3106 54.4415C27.784 54.4415 44.1069 54.4415 44.1069 54.4415C44.1069 54.4415 42.8162 52.7339 41.2549 52.5832C41.2549 52.5832 26.6014 52.5832 24.4379 52.5832C22.2743 52.5832 18.5833 50.8021 18.5833 46.8446C18.5833 42.0955 22.5694 41.1061 24.4379 41.1061C25.8511 41.1061 34.7416 41.1061 38.993 41.1061C38.993 41.1061 44.5988 37.1483 49.9092 37.1483C53.9862 37.1483 57.3094 38.6062 58.6337 39.2835C58.8987 39.419 59.0876 39.6533 59.1821 39.9261V36.1024C59.1821 35.1551 59.9455 34.3871 60.8871 34.3871H68.2952C69.2366 34.387 70 35.1549 70 36.1023ZM17.6037 43.4434C16.6783 41.8771 9.82943 36.0337 7.48557 35.0881C5.56846 34.3146 5.13336 35.992 5.13336 35.992C5.13336 35.992 15.2669 44.851 16.092 45.5723C17.0823 45.3292 18.0302 44.1654 17.6037 43.4434ZM16.4324 27.8329V6.42132C16.4324 2.87494 19.29 0.000115008 22.815 0.000115008H32.5681V4.83334H37.0963V0H46.7899C50.3149 0 53.1726 2.87482 53.1726 6.4212V27.8329C53.1726 31.3791 50.315 34.2541 46.7899 34.2541H37.005V30.4337H32.7543V34.2541H22.8149C19.29 34.2541 16.4324 31.3792 16.4324 27.8329ZM28.771 16.4845C28.9027 16.4845 30.9131 16.4845 33.2835 16.4845V26.2304H36.7608V16.4845C39.2104 16.4845 41.2733 16.4845 41.2733 16.4845L35.0221 8.98764L28.771 16.4845ZM19.5562 39.3387C18.6309 37.7724 13.9094 34.0696 11.5656 33.1237C9.64859 32.3502 9.21349 34.0276 9.21349 34.0276C9.21349 34.0276 17.2195 40.7461 18.0447 41.4676C19.0349 41.2243 19.9828 40.0605 19.5562 39.3387Z" fill="#897C8B"/>
</svg>
