<svg width="56" height="60" viewBox="0 0 56 60" fill="none" xmlns="http://www.w3.org/2000/svg">
<path d="M45.6747 39.0518C45.6845 39.3062 45.5901 39.5529 45.4145 39.7328C45.2388 39.9122 44.9981 40.008 44.7504 39.9968H10.5621C10.3143 40.008 10.0737 39.9122 9.89804 39.7328C9.72235 39.5529 9.62796 39.3062 9.63778 39.0518V20.625H0V48.75H55.3125V20.625H45.6747V39.0518Z" fill="#897C8B"/>
<path d="M45.9375 50.625H53.4375V60H45.9375V50.625Z" fill="#897C8B"/>
<path d="M1.875 50.625H9.375V60H1.875V50.625Z" fill="#897C8B"/>
<path d="M11.9138 19.7108V37.5H44.0567V19.7108C44.0567 19.1737 44.548 18.75 45.0884 18.75H50.625V4.55406C50.625 2.02639 48.5036 2.93028e-05 45.9608 2.93028e-05H10.2133C8.99597 -0.00431097 7.82774 0.473662 6.9663 1.3287C6.10486 2.18319 5.62228 3.34421 5.62501 4.55406V18.75H10.8821C11.4225 18.75 11.9138 19.1737 11.9138 19.7108Z" fill="#897C8B"/>
</svg>
