<svg width="83" height="15" viewBox="0 0 83 15" fill="none" xmlns="http://www.w3.org/2000/svg">
<path d="M0.0572021 14.453C0.255061 14.585 0.636156 14.382 0.900406 14.3926C0.984212 14.4356 1.13991 14.4119 1.28915 14.3943C1.39059 14.3159 1.53244 14.2503 1.73353 14.2038C1.74825 14.2286 1.84126 14.2227 1.92857 14.2188C2.019 14.2065 2.1055 14.1878 2.19094 14.1668C2.24688 14.1538 2.30278 14.1413 2.35823 14.1278C2.47331 14.1031 2.5891 14.0892 2.70456 14.077C2.94433 14.0519 3.18329 14.0342 3.40763 14.0062C3.30333 14.0225 3.19367 14.037 3.08163 14.0466C2.84274 14.067 2.63548 14.1292 2.5898 14.2304C2.59478 14.2421 2.60738 14.2513 2.62574 14.2587C2.57025 14.2683 2.51367 14.2771 2.46297 14.2904C2.43932 14.2966 2.43347 14.3165 2.41954 14.3301C2.45486 14.3265 2.50362 14.3266 2.52287 14.3186C2.56541 14.3011 2.59816 14.2808 2.63289 14.2612C2.64593 14.2657 2.6608 14.2696 2.67928 14.2723C2.91329 14.2961 3.12084 14.1843 3.3618 14.1538C3.2063 14.1796 3.07486 14.2139 3.04227 14.2624C2.99003 14.3401 3.18574 14.2957 3.29595 14.298C3.40138 14.3002 3.56188 14.2587 3.63157 14.2901C3.60286 14.2932 3.57411 14.2962 3.54545 14.2992C3.50833 14.3028 3.47121 14.3064 3.43391 14.3102L3.43396 14.3102C3.38306 14.3148 3.33217 14.3195 3.28127 14.3241C3.38933 14.4206 3.47348 14.4189 3.81735 14.3129C4.00613 14.2885 4.12453 14.3084 4.24768 14.3393C3.99182 14.4032 3.79672 14.4929 3.53644 14.4888C3.52578 14.4886 3.48802 14.5016 3.48575 14.5066C3.47951 14.52 3.4702 14.5384 3.48921 14.5442C3.73483 14.6202 4.05509 14.6344 4.47441 14.562C4.53991 14.5506 4.55731 14.5384 4.52801 14.5297C4.39516 14.4999 4.15516 14.5795 3.99496 14.5359C4.1928 14.5088 4.3488 14.4876 4.5048 14.4661C4.73692 14.4342 4.61101 14.3678 4.72484 14.3255C4.75356 14.3266 4.78209 14.3276 4.80839 14.329C4.86088 14.3301 4.91501 14.3297 4.97072 14.3276C5.17157 14.3929 5.41534 14.4312 5.7961 14.3943C5.94421 14.3799 6.08727 14.3914 6.17862 14.4253C6.25067 14.4518 6.33229 14.44 6.42133 14.3989C6.58397 14.3346 6.75594 14.3266 6.93191 14.3167C7.21259 14.3009 7.35351 14.2808 7.66719 14.2072C7.70947 14.2047 7.75136 14.2026 7.7924 14.2017C7.85674 14.1939 7.92068 14.1833 7.9831 14.1693C8.0185 14.1603 8.05169 14.1509 8.08363 14.1413C8.3436 14.1233 8.60156 14.0919 8.85231 14.0093C8.8689 14.0038 8.89427 14.0023 8.91558 13.9989C8.9436 14.0021 8.9746 14.0026 9.00873 14.0006C9.00869 14.0007 9.00864 14.0007 9.0086 14.0007C9.08346 14.0408 9.18518 14.0692 9.37196 14.0277C9.59696 13.9776 9.81975 13.9549 10.0431 13.9294C10.2333 13.9076 10.403 13.8758 10.5229 13.8036C10.6138 13.7488 10.7394 13.7263 10.882 13.7111C11.4173 13.654 11.9531 13.595 12.4885 13.5375C12.5679 13.529 12.6472 13.5215 12.7185 13.5217C12.7145 13.5299 12.7111 13.5381 12.7081 13.5462C12.7473 13.5577 12.7864 13.5692 12.8257 13.5806C12.9161 13.5548 13.0064 13.5289 13.0969 13.5031C13.0986 13.4976 13.0995 13.4923 13.1001 13.4871C13.1695 13.4662 13.2385 13.4455 13.3092 13.4242C13.2136 13.3982 13.0333 13.4164 12.9998 13.362C12.9988 13.3604 12.9988 13.3591 12.9981 13.3576C13.0739 13.3539 13.15 13.3495 13.2267 13.3444C13.6209 13.4019 14.1328 13.3679 14.6207 13.3525C14.6157 13.3651 14.6107 13.3777 14.6057 13.3902C14.6896 13.3819 14.7735 13.3735 14.8575 13.3651C14.9287 13.3971 15.1436 13.3372 15.1785 13.3925C15.1763 13.4206 15.1687 13.4498 15.2375 13.4621L15.233 13.4601C15.2684 13.4737 15.3112 13.4709 15.3625 13.4492C15.4033 13.4426 15.4437 13.4381 15.4835 13.4357C15.5063 13.421 15.5651 13.4098 15.6337 13.3995C15.6632 13.4057 15.6921 13.4124 15.7198 13.42C15.7327 13.4235 15.7391 13.4297 15.7486 13.4346C15.3505 13.5925 14.8436 13.7378 14.3581 13.8285C14.1381 13.8696 13.8985 13.8946 13.7887 13.997C13.7887 13.997 13.7912 13.998 13.7912 13.9979C13.7957 14.0603 13.5435 14.1224 13.5909 14.1892C13.9706 14.1561 14.3455 14.1142 14.7341 14.0539C15.1832 13.9842 15.637 13.9404 16.0876 13.8907C16.1643 13.8823 16.2345 13.9007 16.3077 13.9068C16.3076 13.9068 16.3049 13.9069 16.3049 13.9069C16.3407 13.9203 16.3812 13.9169 16.427 13.894C16.427 13.894 16.4259 13.8942 16.4259 13.8942C16.5321 13.8411 16.6702 13.8268 16.8041 13.8127C17.1399 13.7773 17.4758 13.7539 17.8105 13.7055C18 13.6781 18.1578 13.6621 18.3184 13.6712C18.7368 13.6946 19.1889 13.6725 19.6743 13.6013C19.7651 13.5909 19.856 13.5804 19.9468 13.5699C20.3102 13.5194 20.6698 13.4345 21.0357 13.406C21.1638 13.3541 21.3109 13.3328 21.4629 13.3196C21.5086 13.3142 21.5542 13.3089 21.5999 13.3036L21.6647 13.2931L21.7283 13.2889L21.7287 13.2895C21.7823 13.2695 21.8321 13.2634 21.8775 13.2737C21.8775 13.2737 21.8783 13.2728 21.8783 13.2728C22.0524 13.2531 22.2266 13.2334 22.4008 13.2138C22.4963 13.1753 22.6061 13.1622 22.7184 13.1497C23.1627 13.1001 23.6073 13.0497 24.0517 12.9996C24.097 12.9952 24.1423 12.9908 24.1876 12.9864C24.2776 12.9763 24.3675 12.9663 24.4575 12.9562C24.5633 12.9074 24.6922 12.8859 24.8301 12.8711C25.2961 12.8213 25.7623 12.7706 26.2285 12.7202C26.6568 12.6275 27.2774 12.5603 27.7416 12.5564C27.8198 12.5464 27.898 12.5364 27.9764 12.5265C28.0705 12.4875 28.18 12.4731 28.2928 12.4612C28.5147 12.4378 28.7368 12.4135 28.9588 12.3896C29.0044 12.3844 29.0501 12.3793 29.0957 12.3741C29.1825 12.3639 29.2692 12.3536 29.3561 12.3434C29.3561 12.3434 29.3584 12.3447 29.3584 12.3447C29.4669 12.3058 29.5668 12.3011 29.663 12.3115C29.6919 12.3032 29.7217 12.2983 29.7524 12.2968C29.7639 12.284 29.7754 12.2711 29.7873 12.2583C29.818 12.2441 29.8499 12.2319 29.8823 12.2205C29.8947 12.233 29.9163 12.2467 29.9469 12.2619C30.5682 12.2068 31.2082 12.1042 31.8181 12.0839C31.8716 12.105 31.9608 12.0938 32.0479 12.0845C32.1109 12.0769 32.1639 12.0623 32.2071 12.0409L32.2039 12.0431C32.3802 11.9791 32.598 12.0088 32.7714 11.9381L32.8269 11.9273L32.8803 11.9257C33.2027 11.8356 33.5426 11.8753 33.8637 11.7752L33.8566 11.7772C34.0379 11.7233 34.2135 11.6625 34.4295 11.6499C34.4866 11.6436 34.5426 11.6342 34.5982 11.6219C34.7068 11.5974 34.8201 11.5868 34.9287 11.5632C34.9825 11.5512 35.0342 11.5379 35.0833 11.5224C35.1523 11.4977 35.212 11.4711 35.263 11.4425L35.2629 11.4441C35.4059 11.4075 35.5187 11.3589 35.6397 11.3135C35.8843 11.2445 36.1946 11.249 36.4032 11.1395L36.4033 11.141C36.7645 11.0545 37.1061 11.061 37.4578 11.0205C37.4628 11.0201 37.4678 11.0196 37.4728 11.0192C37.4844 11.0218 37.5018 11.0227 37.5244 11.0217C37.6023 11.0184 37.686 11.0074 37.7672 10.9997C37.7781 10.9877 37.7858 10.9759 37.7916 10.9642C37.7943 10.9635 37.797 10.9627 37.7996 10.962C37.8044 10.9594 37.809 10.9568 37.8137 10.9542C37.9311 10.9382 38.0485 10.9222 38.166 10.9061C38.1197 10.8734 38.0325 10.8762 37.9377 10.8858C38.0359 10.8496 38.1445 10.8282 38.2556 10.8105C38.3301 10.8018 38.4046 10.7932 38.4791 10.7845C38.4817 10.7814 38.4845 10.7783 38.4872 10.7752C38.5393 10.7667 38.5909 10.7574 38.6409 10.7459C39.0587 10.6836 39.476 10.6087 39.8954 10.5535C40.3361 10.4352 40.7913 10.467 41.2331 10.3546L41.2287 10.3561C41.624 10.2704 42.0095 10.2623 42.4012 10.2108C42.4647 10.2048 42.5271 10.1955 42.5903 10.1825C42.6837 10.1229 42.7214 10.1789 42.7914 10.1659C42.8545 10.1564 42.9166 10.1443 42.9773 10.1298C43.3627 10.0509 43.7396 10.0099 44.1083 10.0039C44.2787 10.0378 44.5095 9.9769 44.708 9.96655C44.7837 9.96071 44.8487 9.94493 44.9032 9.91917L44.9001 9.92135C45.1428 9.84784 45.4049 9.87299 45.648 9.80167C45.7079 9.78709 45.7681 9.7731 45.8285 9.7595C45.9536 9.74424 46.0821 9.71706 46.1926 9.7146C46.7071 9.70313 47.2458 9.6193 47.7694 9.57643L47.7733 9.57523C47.8029 9.56541 47.8184 9.55579 47.821 9.54632C47.947 9.5343 48.0813 9.50999 48.1875 9.52739C48.1875 9.52739 48.1966 9.52286 48.1965 9.52293C48.3676 9.49382 48.5389 9.46466 48.7102 9.43548C48.7141 9.43392 48.7182 9.43239 48.7222 9.43085C48.7231 9.43128 48.7244 9.43159 48.7254 9.432C48.7234 9.43222 48.7214 9.43244 48.7194 9.43265C48.7278 9.43524 48.7366 9.4374 48.7454 9.43941C48.7651 9.44524 48.7891 9.44934 48.8182 9.45138C48.8226 9.45119 48.827 9.4509 48.8314 9.4507C48.9768 9.45894 49.1587 9.42498 49.319 9.41509C49.4848 9.40486 49.674 9.36521 49.7997 9.40123C49.9246 9.38868 50.0494 9.37611 50.1743 9.36351C50.1762 9.36307 50.1771 9.36261 50.1788 9.36217C50.1817 9.36233 50.1846 9.36237 50.1875 9.36255C50.2349 9.35809 50.2826 9.35266 50.3304 9.34674C50.3335 9.34699 50.3359 9.34739 50.3395 9.34757C50.3395 9.34757 50.3403 9.34644 50.3402 9.34646C50.9123 9.28604 51.4845 9.22561 52.0566 9.16518C52.415 9.13334 52.7723 9.10424 53.1291 9.07632C53.5527 9.01727 53.9285 9.04991 54.3558 8.98539C54.4224 8.98346 54.4905 8.97877 54.5605 8.97111C54.8995 8.93573 55.2385 8.89952 55.5782 8.86365C55.643 8.85686 55.707 8.85003 55.772 8.84291C55.9265 8.80896 56.0703 8.80851 56.2177 8.79657C56.391 8.77717 56.5634 8.76029 56.7367 8.7406C56.9043 8.7074 57.0716 8.67499 57.2313 8.6827C57.2854 8.68114 57.3409 8.67745 57.3976 8.67119C57.4832 8.66162 57.5699 8.65316 57.6344 8.61837L57.63 8.62111C58.2926 8.5054 58.9388 8.47514 59.5964 8.39297C59.6643 8.38574 59.7307 8.37887 59.7987 8.37191C59.977 8.34859 60.1573 8.29854 60.3306 8.30611C60.3843 8.30615 60.4395 8.30352 60.4974 8.29757C60.5821 8.28887 60.6666 8.28005 60.7512 8.27025C60.81 8.26246 60.8604 8.24878 60.9023 8.22916L60.8994 8.23065C61.3567 8.12178 61.8155 8.15466 62.2728 8.03926C62.4939 7.965 62.7469 7.99963 62.967 7.92183L63.0167 7.91022L63.0668 7.90737C63.3022 7.83703 63.5621 7.86695 63.7952 7.78735L63.8459 7.7764L63.8962 7.77392C63.94 7.76619 63.9621 7.75731 63.967 7.74755C63.9678 7.74745 63.9687 7.74735 63.9697 7.74727C64.1683 7.72613 64.367 7.70567 64.5659 7.68372C64.6359 7.6765 64.6975 7.66143 64.7504 7.63846L64.7471 7.64005C64.9224 7.58374 65.102 7.58885 65.2793 7.56224C65.3426 7.55461 65.3963 7.54009 65.4403 7.51865L65.4367 7.52065C65.5651 7.47049 65.7385 7.48643 65.8639 7.43181L65.8636 7.432C66.0799 7.36406 66.2983 7.37367 66.5154 7.33989C66.5817 7.33239 66.6391 7.31763 66.6874 7.29556L66.6837 7.29731C66.8123 7.24606 66.9871 7.26352 67.1131 7.20822L67.163 7.19639L67.2134 7.19371C67.3529 7.1474 67.5289 7.15913 67.6621 7.10294C67.8804 7.02733 68.1364 7.06488 68.3527 6.98334C68.5377 6.92561 68.7255 6.93055 68.9117 6.90356C69.005 6.8931 69.1005 6.88619 69.178 6.85039C69.4475 6.76763 69.7412 6.80579 70.0096 6.71728L70.0076 6.71799C70.3137 6.63876 70.6138 6.64389 70.9174 6.59938C70.9901 6.59332 71.0525 6.57795 71.1046 6.55326L71.1013 6.55527C71.3962 6.48055 71.6851 6.48334 71.9776 6.44185C72.0425 6.43522 72.1073 6.42692 72.1725 6.41678C72.3421 6.34884 72.5344 6.33708 72.7232 6.31663C72.7894 6.30891 72.8461 6.29423 72.8917 6.27143L72.8879 6.27371C73.0163 6.22395 73.1923 6.24089 73.3153 6.18347L73.3116 6.18458C73.4008 6.15102 73.5139 6.14455 73.6085 6.11728C73.6923 6.08486 73.8019 6.06565 73.8829 6.03183L73.8801 6.0329C73.9706 5.9999 74.0715 5.99145 74.1709 5.97953C74.2225 5.9706 74.2663 5.9575 74.301 5.93963L74.2973 5.9417C74.4234 5.89079 74.6036 5.9095 74.7226 5.8495C74.8198 5.81707 74.9394 5.81009 75.0373 5.77852C75.1472 5.72896 75.3177 5.73605 75.4254 5.68439C75.5098 5.65394 75.6277 5.64724 75.7033 5.61055C75.7639 5.59255 75.8128 5.57104 75.8595 5.54889C75.913 5.52951 75.9634 5.50934 76.0048 5.48692C76.0633 5.46756 76.1155 5.44672 76.1519 5.42216C76.2482 5.39129 76.2374 5.34942 76.3205 5.31721L76.3194 5.31781C76.3722 5.29677 76.4288 5.27653 76.4628 5.25156L76.4498 5.25502C76.4978 5.24093 76.5299 5.22434 76.546 5.20521C76.56 5.16987 76.5647 5.13478 76.6408 5.09793L76.6365 5.10058C76.7786 5.04392 76.7062 4.98803 76.8102 4.93151C76.8002 4.92131 76.8072 4.91005 76.8311 4.89775C77.0159 4.80924 76.8519 4.73355 77.0338 4.64514L77.0318 4.64632C77.1214 4.61161 77.1138 4.57087 77.1902 4.53535C77.2765 4.50261 77.4031 4.49745 77.4775 4.45646L77.4694 4.46021C77.5311 4.44288 77.5781 4.42069 77.6295 4.39997L77.631 4.39938C77.6796 4.37894 77.7296 4.35889 77.7757 4.33787C77.8291 4.31713 77.8844 4.2968 77.9208 4.27232C78.0151 4.24084 78.0051 4.19939 78.087 4.16669L78.0858 4.16741C78.1388 4.14754 78.1889 4.12688 78.2352 4.10519C78.2887 4.08542 78.3395 4.06497 78.383 4.04263C78.473 4.01067 78.4587 3.96891 78.5509 3.93714L78.5537 3.93547C78.5981 3.91384 78.6539 3.89432 78.6888 3.87086C78.8645 3.8019 78.725 3.73687 78.8803 3.66818L78.8755 3.66973C78.9554 3.64054 79.0219 3.60911 79.0644 3.57367C79.1868 3.46509 79.3586 3.36292 79.6221 3.26126C79.7706 3.43992 80.2001 3.29589 80.554 3.24172C80.6141 3.23548 80.6735 3.22642 80.7329 3.21421C80.8452 3.18641 80.9367 3.15155 81.0132 3.11117C81.0456 3.09156 81.0714 3.0719 81.0904 3.05178C81.103 3.02329 81.1239 2.99507 81.1836 2.96715L81.1809 2.9688C81.303 2.9235 81.2409 2.8699 81.372 2.82502C81.4533 2.78543 81.5701 2.76634 81.6694 2.73723C81.8118 2.68598 81.9464 2.63245 82.0693 2.57562C82.1343 2.54744 82.1846 2.5173 82.23 2.48651L82.2254 2.4905C82.4125 2.4212 82.2609 2.35518 82.4273 2.28609L82.426 2.28688C82.5598 2.23496 82.4725 2.18124 82.5994 2.12928C82.7181 2.05611 82.7564 1.99204 82.6364 1.94595L82.6463 1.94847C82.6222 1.92987 82.5751 1.92007 82.5278 1.91038L82.5298 1.9114C82.4613 1.89275 82.4989 1.84486 82.412 1.83128L82.4152 1.83503C82.3431 1.76644 82.0442 1.99295 82.0281 1.85133C81.551 1.79196 81.4398 2.06591 81.0468 2.08722C81.1158 2.005 81.3191 1.92092 81.3081 1.83302C81.2954 1.73164 81.1597 1.76124 80.9669 1.82619C80.9449 1.83121 80.923 1.83624 80.901 1.84124C80.6769 1.85616 80.4538 1.89314 80.2308 1.93215C80.1418 1.92377 80.0664 1.8991 80.011 1.85041C79.9938 1.83528 79.8443 1.87129 79.7651 1.89899C79.6596 1.94368 79.5905 1.99057 79.559 2.04063C79.5533 2.05156 79.5614 2.05547 79.5711 2.05671C79.5667 2.05723 79.5634 2.05752 79.5573 2.05838C79.5096 2.06507 79.4917 2.04738 79.4673 2.03873C79.4235 2.03006 79.3746 2.02653 79.323 2.02563C79.4224 1.98849 79.5191 1.95124 79.5495 1.90851C79.6617 1.91999 79.7791 1.90157 79.9017 1.8542C79.9522 1.83422 80.0028 1.81425 80.0534 1.79428C80.3023 1.76871 80.4554 1.69084 80.6195 1.62104C80.742 1.56893 80.7227 1.52529 80.5701 1.5245C80.4724 1.524 80.3597 1.53723 80.2538 1.54431L80.2537 1.54432L80.254 1.54419C80.2675 1.51382 80.2811 1.48344 80.2946 1.45302C80.2946 1.453 80.2947 1.45299 80.2948 1.45296C80.8364 1.38734 80.8364 1.38734 81.131 1.27134C80.9527 1.29019 80.7993 1.30789 80.6473 1.32184C80.5729 1.32867 80.5382 1.31622 80.6025 1.28702C80.6306 1.27426 80.686 1.26745 80.729 1.25795C80.729 1.25795 80.729 1.25795 80.729 1.25797C80.8407 1.25094 80.9405 1.23367 81.0079 1.18823L81.0079 1.18824C81.0079 1.18824 81.0079 1.18824 81.0079 1.18823C81.0079 1.18823 81.0095 1.1873 81.0095 1.18731L81.0095 1.18729C81.1569 1.14842 81.3044 1.11051 81.4666 1.09786C81.6514 1.08343 81.8192 1.03548 81.9912 0.996244C82.0309 0.988118 82.0707 0.98225 82.1107 0.97861C82.238 0.926114 82.4161 0.943669 82.5407 0.887382L82.5378 0.888211C82.6315 0.845736 82.8067 0.851607 82.87 0.791235C82.6722 0.659307 82.291 0.86223 82.0268 0.851676C81.943 0.808677 81.7873 0.832327 81.6381 0.849974C81.5366 0.92841 81.3948 0.993945 81.1937 1.04043C81.179 1.01563 81.086 1.02162 80.9987 1.02548C80.9082 1.0378 80.8217 1.05652 80.7363 1.0775C80.6803 1.09046 80.6244 1.10299 80.569 1.11649C80.4539 1.14114 80.3381 1.1551 80.2227 1.16726C79.9829 1.19237 79.7439 1.21009 79.5196 1.23806C79.6239 1.22175 79.7335 1.20729 79.8456 1.19772C80.0845 1.1773 80.2917 1.11512 80.3374 1.0139C80.3324 1.0022 80.3198 0.992968 80.3015 0.985605C80.357 0.975946 80.4136 0.967174 80.4643 0.953873C80.4879 0.947672 80.4938 0.927788 80.5077 0.914146C80.4724 0.917734 80.4236 0.917678 80.4044 0.925629C80.3618 0.943202 80.3291 0.963426 80.2943 0.983106C80.2813 0.978612 80.2664 0.9747 80.2479 0.971962C80.0139 0.948126 79.8064 1.05999 79.5654 1.09046C79.7209 1.06471 79.8524 1.03035 79.8849 0.981905C79.9371 0.904195 79.7414 0.948554 79.6312 0.946267C79.5258 0.944062 79.3653 0.985573 79.2956 0.954167C79.3243 0.951136 79.3531 0.948119 79.3817 0.945095C79.4189 0.941502 79.456 0.937854 79.4932 0.93413L79.4932 0.934117C79.5441 0.929476 79.595 0.924834 79.6459 0.920193C79.5378 0.823665 79.4537 0.825434 79.1098 0.931376C78.921 0.955768 78.8026 0.935861 78.6795 0.904953C78.9353 0.841052 79.1305 0.751337 79.3907 0.755475C79.4014 0.755651 79.4391 0.74268 79.4414 0.737718C79.4476 0.724316 79.4569 0.705925 79.4379 0.700055C79.1923 0.624056 78.872 0.609863 78.4528 0.682322C78.3873 0.693645 78.3699 0.70587 78.3992 0.714629C78.532 0.744332 78.772 0.664801 78.9322 0.708335C78.7343 0.735436 78.5783 0.756724 78.4224 0.778179C78.1903 0.810115 78.3162 0.876435 78.2023 0.918788C78.1736 0.917706 78.1451 0.916714 78.1188 0.915279C78.0663 0.914166 78.0122 0.91458 77.9565 0.916669C77.7556 0.851415 77.5118 0.813097 77.1311 0.850012C76.983 0.86437 76.8399 0.852891 76.7485 0.818936C76.6765 0.792459 76.5948 0.804303 76.5058 0.845374C76.3432 0.909659 76.1712 0.917712 75.9952 0.9276C75.7145 0.943398 75.5736 0.963525 75.2599 1.03707C75.2176 1.03962 75.1757 1.04166 75.1347 1.04254C75.0704 1.05036 75.0064 1.06097 74.944 1.07494C74.9086 1.08398 74.8754 1.09337 74.8435 1.10295C74.5835 1.12099 74.3256 1.15237 74.0748 1.235C74.0582 1.24047 74.0329 1.24198 74.0115 1.24533C73.9835 1.24221 73.9525 1.24162 73.9184 1.24362C73.9185 1.2436 73.9185 1.24359 73.9185 1.24357C73.8437 1.20346 73.742 1.17502 73.5552 1.21658C73.3302 1.26666 73.1074 1.28937 72.884 1.31488C72.6938 1.3366 72.5241 1.3684 72.4042 1.4407C72.3134 1.49549 72.1877 1.51799 72.0452 1.53319C71.5098 1.5903 70.9741 1.64927 70.4386 1.70674C70.3592 1.71527 70.28 1.72276 70.2086 1.72252C70.2127 1.71439 70.2161 1.7062 70.219 1.69803C70.1799 1.68655 70.1407 1.6751 70.1015 1.66365C70.0111 1.68949 69.9207 1.71534 69.8302 1.74115C69.8285 1.74666 69.8276 1.75197 69.8271 1.75714C69.7576 1.77803 69.6886 1.79878 69.6179 1.82005C69.7135 1.84611 69.8938 1.82788 69.9273 1.88228C69.9283 1.88385 69.9283 1.88518 69.929 1.88669C69.8533 1.89039 69.7771 1.89474 69.7004 1.89982C69.3062 1.84234 68.7943 1.87632 68.3064 1.89173C68.3114 1.87915 68.3165 1.86659 68.3215 1.85404C68.2375 1.86241 68.1536 1.8708 68.0697 1.87917C67.9984 1.84716 67.7835 1.90701 67.7486 1.85174C67.7509 1.82372 67.7585 1.79442 67.6896 1.78221L67.6941 1.78415C67.6586 1.77057 67.6159 1.77338 67.5646 1.79509C67.5238 1.80169 67.4834 1.80618 67.4436 1.80856C67.4208 1.82327 67.362 1.83447 67.2934 1.84475C67.2639 1.83853 67.2349 1.8319 67.2072 1.82428C67.1944 1.82076 67.1879 1.81459 67.1784 1.80967C67.5766 1.65173 68.0834 1.50647 68.569 1.41581C68.789 1.37473 69.0285 1.34963 69.1383 1.24727C69.1383 1.24727 69.1358 1.2463 69.1359 1.24633C69.1313 1.18395 69.3836 1.12184 69.3362 1.05504C68.9565 1.08815 68.5815 1.13014 68.193 1.19042C67.7439 1.26007 67.29 1.30389 66.8395 1.35355C66.7628 1.36201 66.6926 1.34354 66.6194 1.33749C66.6194 1.33747 66.6222 1.33734 66.6222 1.33734C66.5864 1.32394 66.5459 1.3274 66.5 1.35028C66.5 1.35028 66.5012 1.35011 66.5012 1.35007C66.395 1.40315 66.2569 1.4175 66.1231 1.43162C65.7872 1.46703 65.4514 1.49043 65.1166 1.53878C64.9271 1.56614 64.7693 1.58215 64.6087 1.57313C64.1903 1.54966 63.7382 1.57176 63.2529 1.64295C63.162 1.65342 63.0712 1.66389 62.9803 1.67434C62.6169 1.72492 62.2573 1.80974 61.8914 1.83831C61.7633 1.89023 61.6163 1.91148 61.4643 1.92472C61.4186 1.93004 61.3729 1.93536 61.3272 1.94067L61.2624 1.95122L61.1989 1.95541L61.1984 1.95475C61.1448 1.97481 61.095 1.98085 61.0496 1.97056C61.0496 1.97056 61.0488 1.97151 61.0489 1.97148C60.8747 1.99115 60.7005 2.01085 60.5263 2.03051C60.4309 2.06898 60.321 2.08203 60.2087 2.09457C59.7644 2.14418 59.3199 2.19457 58.8754 2.24467C58.8301 2.24906 58.7848 2.25345 58.7396 2.25783C58.6496 2.26794 58.5596 2.27802 58.4697 2.28811C58.3639 2.33688 58.235 2.3584 58.0971 2.37316C57.6311 2.42299 57.1649 2.47369 56.6987 2.52405C56.2704 2.6168 55.6498 2.68402 55.1856 2.68786C55.1074 2.69783 55.0291 2.70786 54.9508 2.71782C54.8567 2.7568 54.7472 2.77121 54.6344 2.78309C54.4126 2.80643 54.1904 2.83077 53.9684 2.8547C53.9228 2.85986 53.8772 2.86501 53.8316 2.87017C53.7448 2.88041 53.658 2.89065 53.5711 2.90087C53.5711 2.90086 53.5689 2.8996 53.5689 2.8996C53.4603 2.93843 53.3604 2.94317 53.2643 2.93276C53.2353 2.94104 53.2055 2.94595 53.1748 2.94745C53.1634 2.96027 53.1518 2.97313 53.14 2.98598C53.1092 3.00013 53.0773 3.01238 53.0449 3.02382C53.0325 3.01126 53.0109 2.99758 52.9803 2.98241C52.359 3.03747 51.7191 3.14005 51.1091 3.16033C51.0556 3.13931 50.9664 3.15051 50.8793 3.15974C50.8163 3.16743 50.7632 3.18197 50.7201 3.20338L50.7233 3.20118C50.5469 3.26517 50.3292 3.23549 50.1558 3.30615L50.1003 3.31699L50.0468 3.31854C49.7244 3.40871 49.3845 3.36896 49.0634 3.46908L49.0706 3.4671C48.8892 3.52102 48.7137 3.58183 48.4976 3.5944C48.4406 3.60073 48.3845 3.61012 48.329 3.62238C48.2203 3.64692 48.107 3.65752 47.9984 3.68113C47.9446 3.69306 47.8929 3.70643 47.8438 3.72192C47.7748 3.74656 47.7151 3.77315 47.6641 3.80174L47.6642 3.80022C47.5213 3.83677 47.4084 3.88543 47.2875 3.9308C47.0429 3.99975 46.7325 3.99532 46.524 4.10474L46.5239 4.10323C46.1627 4.18979 45.8211 4.18329 45.4694 4.22376C45.4643 4.22414 45.4593 4.22466 45.4544 4.22506C45.4427 4.22251 45.4253 4.22156 45.4027 4.22254C45.3248 4.2259 45.2411 4.23691 45.1599 4.24457C45.149 4.25656 45.1413 4.26836 45.1355 4.28005C45.1328 4.28082 45.1302 4.28155 45.1275 4.28231C45.1227 4.2849 45.1182 4.28749 45.1134 4.29007C44.9961 4.30612 44.8786 4.32213 44.7611 4.33816C44.8074 4.37091 44.8946 4.36804 44.9895 4.3585C44.8912 4.39473 44.7826 4.4161 44.6715 4.43381C44.5971 4.44245 44.5226 4.4511 44.4481 4.45974C44.4454 4.46286 44.4427 4.46599 44.44 4.46911C44.3878 4.47759 44.3363 4.48692 44.2862 4.49839C43.8684 4.56073 43.4512 4.63561 43.0318 4.69081C42.5911 4.80909 42.1358 4.77724 41.6941 4.88965L41.6984 4.88819C41.3031 4.97384 40.9176 4.98194 40.5259 5.03344C40.4624 5.03953 40.4 5.04881 40.3369 5.06179C40.2435 5.12135 40.2058 5.06536 40.1358 5.07839C40.0727 5.08788 40.0106 5.10002 39.9499 5.11444C39.5645 5.19341 39.1876 5.23439 38.8189 5.24034C38.6485 5.20647 38.4177 5.26738 38.2192 5.27772C38.1435 5.28357 38.0784 5.29935 38.0239 5.32509L38.0271 5.32291C37.7844 5.39642 37.5223 5.37127 37.2791 5.44259C37.2193 5.45717 37.1591 5.47116 37.0986 5.48476C36.9736 5.50002 36.8451 5.5272 36.7345 5.52967C36.2201 5.54114 35.6814 5.62496 35.1578 5.66784L35.1538 5.66904C35.1242 5.67885 35.1088 5.68848 35.1062 5.69794C34.9801 5.70997 34.8458 5.73425 34.7396 5.71687C34.7396 5.71687 34.7306 5.7214 34.7307 5.72133C34.5596 5.75044 34.3883 5.77962 34.217 5.8088C34.2131 5.81036 34.2089 5.81187 34.205 5.81343C34.204 5.813 34.2028 5.81268 34.2018 5.81226C34.2038 5.81204 34.2058 5.81183 34.2077 5.81161C34.1994 5.80902 34.1907 5.80686 34.1818 5.80485C34.162 5.79902 34.138 5.79492 34.109 5.79288C34.1046 5.79307 34.1001 5.79336 34.0958 5.79356C33.9504 5.78532 33.7685 5.81928 33.6082 5.82917C33.4424 5.8394 33.2532 5.87905 33.1274 5.84303C33.0026 5.85558 32.8777 5.86815 32.7528 5.88075C32.751 5.88119 32.7501 5.88165 32.7484 5.88209C32.7455 5.88193 32.7426 5.88189 32.7397 5.88173C32.6922 5.88619 32.6446 5.89161 32.5968 5.89754C32.5936 5.89729 32.5913 5.89689 32.5877 5.89671C32.5877 5.89671 32.5869 5.89784 32.5869 5.89782C32.0148 5.95824 31.4427 6.01867 30.8706 6.0791C30.5122 6.11094 30.1549 6.14004 29.7981 6.16796C29.3745 6.227 28.9987 6.19437 28.5714 6.25889C28.5048 6.26082 28.4366 6.26551 28.3667 6.27317C28.0277 6.30855 27.6887 6.34476 27.349 6.38063C27.2842 6.38742 27.2202 6.39425 27.1552 6.40137C27.0007 6.43532 26.8569 6.43577 26.7095 6.44771C26.5362 6.46711 26.3638 6.48399 26.1905 6.50368C26.0228 6.53688 25.8556 6.56931 25.6959 6.56158C25.6418 6.56313 25.5863 6.56683 25.5296 6.57309C25.444 6.58266 25.3573 6.59113 25.2927 6.6259L25.2972 6.62317C24.6345 6.73888 23.9883 6.76913 23.3308 6.85131C23.2629 6.85854 23.1964 6.86541 23.1285 6.87237C22.9501 6.89569 22.7699 6.94574 22.5966 6.93817C22.5429 6.93813 22.4877 6.94076 22.4298 6.94671C22.3451 6.95541 22.2606 6.96423 22.1759 6.97405C22.1172 6.98184 22.0668 6.99552 22.0248 7.01514L22.0278 7.01364C21.5705 7.12252 21.1116 7.08964 20.6544 7.20504C20.4332 7.2793 20.1803 7.24467 19.9602 7.32247L19.9105 7.33407L19.8604 7.33694C19.625 7.40729 19.3651 7.37735 19.1319 7.45694L19.0813 7.46789L19.031 7.47038C18.9872 7.4781 18.9651 7.48699 18.9602 7.49675C18.9593 7.49685 18.9584 7.49695 18.9575 7.49705C18.7589 7.51818 18.5602 7.53865 18.3613 7.56059C18.2912 7.56782 18.2297 7.58289 18.1768 7.60586L18.1801 7.60427C18.0048 7.66057 17.8252 7.65547 17.6479 7.68208C17.5846 7.68971 17.5308 7.70423 17.4868 7.72567L17.4905 7.72366C17.3621 7.77383 17.1887 7.75789 17.0633 7.81251L17.0636 7.81232C16.8473 7.88025 16.6289 7.87065 16.4118 7.90442C16.3455 7.91193 16.2881 7.92669 16.2398 7.94877L16.2435 7.94701C16.1148 7.99826 15.94 7.98081 15.8141 8.0361L15.7642 8.04793L15.7137 8.05061C15.5743 8.09692 15.3983 8.08519 15.2651 8.14138C15.0468 8.21698 14.7907 8.17945 14.5744 8.26098C14.3895 8.3187 14.2017 8.31376 14.0155 8.34076C13.9222 8.35122 13.8266 8.35813 13.7491 8.39393C13.4797 8.47668 13.1859 8.43853 12.9176 8.52704L12.9196 8.52633C12.6135 8.60556 12.3133 8.60043 12.0098 8.64493C11.9371 8.651 11.8747 8.66636 11.8226 8.69106L11.8259 8.68905C11.5309 8.76377 11.2421 8.76098 10.9495 8.80247C10.8847 8.8091 10.8199 8.8174 10.7547 8.82753C10.5851 8.89547 10.3928 8.90724 10.2041 8.92768C10.1378 8.93541 10.0811 8.95006 10.0356 8.97288L10.0393 8.9706C9.9109 9.02038 9.73496 9.00342 9.61195 9.06084L9.61565 9.05973C9.52643 9.0933 9.41336 9.09976 9.31868 9.12703C9.23495 9.15947 9.12536 9.17866 9.04437 9.21248L9.04718 9.21141C8.95669 9.2444 8.85569 9.25286 8.75635 9.26477C8.70479 9.27371 8.66099 9.2868 8.62624 9.30467L8.63002 9.3026C8.50388 9.35351 8.32375 9.33479 8.20467 9.3948C8.10755 9.42723 7.98791 9.43421 7.89007 9.46578C7.78012 9.51534 7.60963 9.50825 7.50195 9.55991C7.41757 9.59036 7.29963 9.59706 7.22405 9.63375C7.16342 9.65175 7.11452 9.67326 7.06783 9.69541C7.01429 9.71479 6.96394 9.73496 6.92249 9.75738C6.86403 9.77674 6.81176 9.79758 6.77539 9.82214C6.6791 9.85301 6.68996 9.89488 6.6068 9.92709L6.60787 9.92649C6.55503 9.94754 6.4985 9.96777 6.46451 9.99274L6.4775 9.98928C6.42954 10.0034 6.39746 10.02 6.38131 10.0391C6.36728 10.0745 6.36265 10.1095 6.28654 10.1464L6.29085 10.1437C6.14871 10.2004 6.22112 10.2563 6.11713 10.3128C6.12715 10.323 6.12013 10.3343 6.09619 10.3466C5.91146 10.4351 6.07541 10.5108 5.89354 10.5992L5.89559 10.598C5.80593 10.6327 5.81355 10.6734 5.7372 10.709C5.65082 10.7417 5.52422 10.7469 5.44991 10.7878L5.45792 10.7841C5.3963 10.8014 5.34929 10.8236 5.29783 10.8443L5.29631 10.8449C5.24776 10.8654 5.19772 10.8854 5.1516 10.9065C5.09821 10.9272 5.0429 10.9475 5.00653 10.972C4.91226 11.0035 4.92217 11.0449 4.84027 11.0776L4.84156 11.0769C4.78848 11.0968 4.73836 11.1174 4.69215 11.1391C4.63862 11.1589 4.58783 11.1793 4.5444 11.2017C4.45444 11.2336 4.46865 11.2754 4.37645 11.3072L4.37369 11.3088C4.32923 11.3305 4.2735 11.35 4.2386 11.3734C4.06285 11.4424 4.20236 11.5074 4.04707 11.5761L4.05184 11.5746C3.97201 11.6038 3.90546 11.6352 3.86295 11.6706C3.74053 11.7792 3.56877 11.8814 3.30527 11.9831C3.15681 11.8044 2.72722 11.9484 2.37336 12.0026C2.31322 12.0088 2.25387 12.0179 2.19442 12.0301C2.08207 12.0579 1.99057 12.0928 1.91414 12.1331C1.88166 12.1528 1.85588 12.1724 1.83697 12.1925C1.82433 12.221 1.80341 12.2492 1.74375 12.2772L1.74646 12.2755C1.62434 12.3208 1.68638 12.3744 1.55525 12.4193C1.47397 12.4589 1.35712 12.478 1.25781 12.5071C1.11543 12.5583 0.980827 12.6119 0.857947 12.6687C0.793011 12.6969 0.742696 12.727 0.697269 12.7578L0.701832 12.7538C0.51472 12.8231 0.666326 12.8892 0.499897 12.9582L0.50123 12.9575C0.367499 13.0094 0.454749 13.0631 0.32778 13.115C0.209084 13.1882 0.170826 13.2523 0.290892 13.2984L0.28101 13.2959C0.305058 13.3145 0.352101 13.3243 0.399456 13.3339L0.397474 13.3329C0.465937 13.3516 0.428331 13.3995 0.515269 13.413L0.512045 13.4093C0.584209 13.4779 0.883078 13.2514 0.899184 13.393C1.37626 13.4524 1.48748 13.1784 1.88047 13.1571C1.8115 13.2393 1.60822 13.3234 1.61919 13.4113C1.63185 13.5127 1.76756 13.4831 1.96032 13.4181C1.98229 13.4131 2.0043 13.4081 2.02622 13.4031C2.25036 13.3882 2.47351 13.3512 2.69649 13.3122C2.78552 13.3206 2.86086 13.3452 2.91631 13.3939C2.93351 13.409 3.08292 13.373 3.16215 13.3453C3.26771 13.3006 3.33676 13.2538 3.3683 13.2037C3.37394 13.1928 3.36588 13.1888 3.35615 13.1876C3.36057 13.1871 3.36384 13.1868 3.37001 13.1859C3.41761 13.1792 3.43556 13.1969 3.45988 13.2056C3.50369 13.2143 3.55263 13.2178 3.60426 13.2187C3.50478 13.2558 3.40821 13.2931 3.37771 13.3358C3.26554 13.3243 3.1481 13.3428 3.02551 13.3901C2.97493 13.4101 2.92436 13.4301 2.87379 13.4501C2.62484 13.4756 2.47182 13.5535 2.30768 13.6233C2.18515 13.6754 2.20444 13.7191 2.35708 13.7199C2.45483 13.7204 2.56746 13.7071 2.67339 13.7L2.67344 13.7C2.67344 13.7 2.67344 13.7 2.67344 13.7001L2.67322 13.7002C2.65962 13.7306 2.64607 13.761 2.6326 13.7914C2.63251 13.7914 2.63247 13.7914 2.63242 13.7914C2.09075 13.857 2.09075 13.857 1.79621 13.973C1.97449 13.9542 2.12794 13.9365 2.27987 13.9225C2.3542 13.9157 2.38892 13.9282 2.32462 13.9574C2.29652 13.9701 2.24113 13.9769 2.19813 13.9864C2.19809 13.9864 2.19809 13.9864 2.19809 13.9864C2.19809 13.9864 2.19809 13.9864 2.19813 13.9864C2.08642 13.9935 1.9866 14.0107 1.91924 14.0562L1.91928 14.0562L1.91924 14.0562C1.91924 14.0562 1.91759 14.0571 1.91759 14.0571L1.91759 14.0571C1.77022 14.096 1.62276 14.1339 1.46056 14.1465C1.27573 14.161 1.10797 14.2089 0.93589 14.2482C0.896275 14.2563 0.856453 14.2621 0.81647 14.2658C0.689103 14.3183 0.511047 14.3007 0.386458 14.357L0.389314 14.3562C0.295762 14.3985 0.120579 14.3926 0.0572021 14.453ZM79.6966 1.64378C79.6999 1.64243 79.7027 1.64129 79.7059 1.63998C79.7073 1.64077 79.7092 1.64144 79.7106 1.64222C79.706 1.64277 79.7013 1.64325 79.6966 1.64383C79.6966 1.64384 79.6965 1.64386 79.6965 1.64386C79.6966 1.64382 79.6966 1.6438 79.6966 1.64378ZM9.809 13.8712C9.80479 13.8711 9.80068 13.8711 9.79651 13.8711C9.83239 13.8653 9.86805 13.8596 9.90616 13.8528C9.87276 13.8596 9.84059 13.8656 9.809 13.8712ZM79.2753 1.73763C79.2779 1.7382 79.2806 1.73876 79.2833 1.73933C79.2832 1.73932 79.2753 1.73762 79.2754 1.73765C79.2732 1.7379 79.2711 1.73816 79.2689 1.73842C79.2621 1.73479 79.2553 1.73116 79.2487 1.72753C79.2583 1.73039 79.2674 1.73365 79.2753 1.73763ZM73.1183 1.37308C73.1225 1.37314 73.1266 1.37314 73.1308 1.37321C73.0949 1.37898 73.0593 1.38463 73.0211 1.39149C73.0546 1.38459 73.0867 1.37864 73.1183 1.37308ZM3.64408 13.5049C3.64417 13.5049 3.65202 13.5066 3.65202 13.5066C3.65417 13.5064 3.65627 13.5061 3.65846 13.5058C3.66531 13.5095 3.67212 13.5131 3.67874 13.5167C3.66904 13.5138 3.65995 13.5106 3.65207 13.5066C3.64937 13.5061 3.64673 13.5055 3.64408 13.5049ZM3.23064 13.6004C3.23068 13.6004 3.23073 13.6004 3.23073 13.6004C3.23073 13.6004 3.23068 13.6004 3.23068 13.6005C3.22739 13.6018 3.22463 13.6029 3.22142 13.6043C3.22002 13.6035 3.21813 13.6028 3.21669 13.602C3.22134 13.6015 3.22599 13.601 3.23064 13.6004Z" fill="#F20083"/>
</svg>
