<svg width="43" height="43" viewBox="0 0 43 43" fill="none" xmlns="http://www.w3.org/2000/svg">
<circle cx="21.5" cy="21.5" r="21" stroke="black"/>
<g clip-path="url(#clip0)">
<path d="M29.4752 24.6706C31.4546 24.4981 33.0008 23.142 33.0008 21.4999C33.0008 19.8578 31.4546 18.5017 29.4752 18.3292C28.7078 16.4011 27.2564 14.806 25.4068 13.859C25.3574 11.7485 23.6373 10 21.5009 10C19.3661 10 17.6444 11.7465 17.595 13.8591C15.7454 14.8061 14.2939 16.4012 13.5266 18.3292C11.5472 18.5017 10.001 19.8578 10.001 21.4999C10.001 23.1421 11.5474 24.4983 13.527 24.6707C14.1652 26.2703 15.2878 27.6558 16.7143 28.6198C15.5563 29.5303 14.695 30.7416 14.2445 32.1162C14.1286 32.4698 14.3214 32.8504 14.675 32.9663C15.0286 33.0822 15.4093 32.8894 15.5252 32.5358C15.9505 31.238 16.8294 30.1154 18.0173 29.3424C20.3117 30.3649 22.9093 30.3039 25.1079 29.2858C26.3413 30.0597 27.2517 31.2023 27.6886 32.5358C27.8045 32.8894 28.185 33.0821 28.5387 32.9663C28.8924 32.8504 29.0852 32.4698 28.9693 32.1162C28.505 30.6993 27.6093 29.4612 26.4017 28.5435C27.7346 27.6157 28.8351 26.2829 29.4752 24.6706ZM31.6532 21.4999C31.6532 22.2871 30.9112 22.9776 29.9051 23.2346C30.1393 22.0953 30.1398 20.9069 29.9051 19.7652C30.9112 20.0223 31.6532 20.7127 31.6532 21.4999ZM21.5009 11.3476C22.7979 11.3476 23.8727 12.3339 24.039 13.6081C22.4276 13.7466 21.0927 14.8602 20.6359 16.3648C19.6373 16.0096 18.9404 15.0592 18.9404 13.953C18.9404 12.5165 20.089 11.3476 21.5009 11.3476ZM11.3486 21.4999C11.3486 20.7127 12.0906 20.0223 13.0967 19.7652C12.8625 20.9045 12.862 22.0929 13.0967 23.2346C12.0906 22.9776 11.3486 22.2871 11.3486 21.4999ZM24.8285 27.9231C20.9518 29.9367 16.1275 28.0961 14.6401 23.7938C13.5595 20.5612 14.8872 17.0105 17.8209 15.2732C18.3127 16.6514 19.5548 17.678 21.0879 17.8393C21.459 17.8784 21.7909 17.6083 21.8288 17.2377C21.9691 15.8638 23.1695 14.8439 24.5696 14.9496C27.863 16.4947 29.5337 20.2875 28.3617 23.7938C27.7103 25.6824 26.4026 27.106 24.8285 27.9231Z" fill="black"/>
<path d="M19.8458 20.706C20.1089 20.4428 20.1089 20.0162 19.8458 19.753C18.8802 18.7875 17.3173 18.7873 16.3517 19.753C16.0885 20.0162 16.0885 20.4428 16.3517 20.706C16.6148 20.9691 17.0414 20.9691 17.3046 20.706C17.7435 20.2671 18.4539 20.267 18.8928 20.706C19.156 20.9691 19.5826 20.9691 19.8458 20.706Z" fill="black"/>
<path d="M26.6738 19.753C25.7083 18.7875 24.1454 18.7873 23.1797 19.753C22.9166 20.0162 22.9166 20.4428 23.1797 20.706C23.4428 20.9691 23.8695 20.9691 24.1327 20.706C24.5716 20.2671 25.2819 20.267 25.7209 20.706C25.984 20.9691 26.4106 20.9691 26.6738 20.706C26.937 20.4428 26.937 20.0162 26.6738 19.753Z" fill="black"/>
<path d="M22.8024 24.2574C22.0843 24.9755 20.9158 24.9755 20.1977 24.2574C19.9346 23.9943 19.5079 23.9943 19.2448 24.2574C18.9816 24.5206 18.9816 24.9472 19.2448 25.2103C20.4883 26.4539 22.5117 26.4539 23.7553 25.2103C24.0185 24.9472 24.0185 24.5206 23.7553 24.2574C23.4921 23.9943 23.0655 23.9943 22.8024 24.2574Z" fill="black"/>
</g>
<defs>
<clipPath id="clip0">
<rect width="23" height="23" fill="white" transform="translate(10 10)"/>
</clipPath>
</defs>
</svg>
