<svg width="24" height="24" viewBox="0 0 24 24" fill="none" xmlns="http://www.w3.org/2000/svg">
<path d="M21.3684 21.7516C17.696 24.7495 6.22904 24.7495 2.63155 21.7516C-1.04088 18.7537 -0.666144 5.93768 2.63155 2.56505C5.92924 -0.807574 18.0707 -0.807574 21.3684 2.56505C24.6661 5.93768 25.0408 18.7537 21.3684 21.7516Z" fill="#8DC640"/>
<g opacity="0.2">
<path opacity="0.2" d="M12.075 16.5053C8.77728 19.1284 5.10486 20.4775 1.65729 20.5524C-0.89094 16.2055 -0.366285 5.63791 2.63161 2.56508C5.32972 -0.207961 13.7988 -0.732616 18.6704 0.991167C19.8695 5.93771 17.3962 12.2332 12.075 16.5053Z" fill="white"/>
</g>
<path d="M10.2762 18.6787C9.75153 18.6787 9.22693 18.4539 8.92713 18.0042L4.7301 12.608C4.13051 11.8585 4.28044 10.8093 5.0299 10.2097C5.77936 9.61009 6.82862 9.76002 7.42821 10.5095L10.2762 14.1819L16.5718 6.01266C17.1714 5.2632 18.2206 5.11327 18.9701 5.71286C19.7195 6.31245 19.8695 7.36171 19.2699 8.11117L11.6252 18.0042C11.2505 18.3789 10.8008 18.6787 10.2762 18.6787Z" fill="white"/>
</svg>
