<svg width="128" height="128" viewBox="0 0 128 128" fill="none" xmlns="http://www.w3.org/2000/svg">
<circle cx="64" cy="64" r="57" fill="#282828"/>
<circle cx="64" cy="64" r="60.5" stroke="#1F1F1F" stroke-opacity="0.5" stroke-width="7"/>
<g clip-path="url(#clip0)">
<path d="M62.1475 71.3736C62.6133 70.9077 62.6133 70.1538 62.1475 69.6879C61.6812 69.2235 60.9258 69.2235 60.459 69.6879C59.9936 70.1538 59.9936 70.9077 60.459 71.3736C60.9258 71.8381 61.6812 71.8381 62.1475 71.3736Z" fill="#FFC700"/>
<path d="M56.4959 43.1018C56.4959 50.3261 62.3849 56.204 69.6233 56.204C76.8617 56.204 82.7507 50.3261 82.7507 43.1018C82.7507 35.8775 76.8617 30 69.6233 30C62.3849 30 56.4959 35.8775 56.4959 43.1018ZM80.3641 43.1018C80.3641 49.0127 75.5458 53.8216 69.6233 53.8216C63.7008 53.8216 58.8825 49.0127 58.8825 43.1018C58.8825 37.1913 63.7008 32.3823 69.6233 32.3823C75.5458 32.3823 80.3641 37.1913 80.3641 43.1018Z" fill="#FFC700"/>
<path d="M47.8059 90.6478C48.2684 91.1132 49.0215 91.1183 49.4902 90.6575L55.2761 84.9686C56.259 83.9875 56.5579 82.535 56.1257 81.2724L57.3702 80.0745C58.0403 79.4285 58.9226 79.0725 59.8552 79.0725H75.7202C78.5348 79.0725 81.1951 77.9937 83.2118 76.0349C83.2948 75.9544 82.5819 76.7925 94.0352 63.1305C95.734 61.1246 95.4798 58.1126 93.4682 56.4153C91.4692 54.7338 88.4746 54.9754 86.7711 56.9468L79.729 64.1706C78.8398 63.0783 77.4838 62.3975 76.0186 62.3975H62.7108C60.8171 61.6068 58.8078 61.2065 56.7347 61.2065C50.9879 61.2065 45.97 63.8555 43.2771 68.8222C42.1426 68.6077 40.9461 68.9502 40.0853 69.8093L34.408 75.4922C33.9445 75.9562 33.9436 76.7069 34.4062 77.1723L47.8059 90.6478ZM56.7342 63.5884C58.5621 63.5884 60.3294 63.9556 61.988 64.6797C62.1391 64.7458 62.3019 64.7798 62.4665 64.7798H76.0186C77.3126 64.7798 78.4057 65.833 78.4057 67.1617C78.4057 68.4755 77.335 69.544 76.0186 69.544H66.2818C65.6229 69.544 65.0885 70.0774 65.0885 70.735C65.0885 71.393 65.6229 71.9259 66.2818 71.9259H76.0186C78.6509 71.9259 80.7922 69.7888 80.7922 67.1617C80.7922 66.9523 80.7773 66.7447 80.7502 66.539C87.5625 59.5502 88.523 58.5682 88.5641 58.5193C89.4146 57.5173 90.9245 57.3903 91.9289 58.2354C92.9343 59.0839 93.0616 60.5899 92.2087 61.5974L81.5047 74.3688C79.9417 75.8664 77.8895 76.6906 75.7202 76.6906H59.8552C58.3005 76.6906 56.8288 77.284 55.7125 78.3605L54.6983 79.3373L45.3489 70.0066C47.534 65.9154 51.6342 63.5884 56.7342 63.5884ZM41.7742 71.4926C42.1678 71.0999 42.7721 71.0291 43.2519 71.3251C43.4585 71.4508 42.8654 70.9118 53.5885 81.5991C54.0655 82.0752 54.0399 82.8338 53.595 83.2778L48.6625 88.1277L36.9363 76.3351L41.7742 71.4926Z" fill="#FFC700"/>
<path d="M68.1913 35.9556V37.3513C66.8021 37.8427 65.8043 39.1668 65.8043 40.7198C65.8043 42.6898 67.4102 44.2931 69.3845 44.2931C70.0425 44.2931 70.5778 44.8274 70.5778 45.484C70.5778 46.1407 70.0425 46.675 69.3845 46.675C68.8749 46.675 68.3242 46.3552 67.835 45.774C67.4107 45.2704 66.6581 45.2057 66.1535 45.6288C65.649 46.0523 65.5837 46.8034 66.008 47.307C66.6459 48.0642 67.3962 48.5919 68.1913 48.8581V50.2483C68.1913 50.9063 68.7256 51.4392 69.3845 51.4392C70.0434 51.4392 70.5778 50.9063 70.5778 50.2483V48.8525C71.9669 48.3606 72.9648 47.0366 72.9648 45.484C72.9648 43.5136 71.3589 41.9107 69.3845 41.9107C68.7266 41.9107 68.1913 41.3765 68.1913 40.7198C68.1913 40.0631 68.7266 39.5284 69.3845 39.5284C69.8075 39.5284 70.2537 39.7439 70.6753 40.1511C71.149 40.6086 71.9044 40.596 72.3628 40.1236C72.8212 39.6508 72.8086 38.8969 72.3353 38.4394C71.7296 37.8544 71.1234 37.5235 70.5778 37.3429V35.9556C70.5778 35.2975 70.0434 34.7642 69.3845 34.7642C68.7256 34.7642 68.1913 35.2975 68.1913 35.9556Z" fill="#FFC700"/>
</g>
<defs>
<clipPath id="clip0">
<rect x="34" y="30" width="61" height="61" fill="white"/>
</clipPath>
</defs>
</svg>
