<svg width="128" height="128" viewBox="0 0 128 128" fill="none" xmlns="http://www.w3.org/2000/svg">
<circle cx="64" cy="64" r="57" fill="#282828"/>
<circle cx="64" cy="64" r="60.5" stroke="#1F1F1F" stroke-opacity="0.5" stroke-width="7"/>
<g clip-path="url(#clip0)">
<path d="M84.6468 46.4395C84.3588 46.0795 83.8549 45.9356 83.351 46.1515L81.4794 46.8714L75.7206 34.13C75.5047 33.6981 75.1447 33.4822 74.7128 33.4822H55.9967C55.6368 33.4822 55.3489 33.6261 55.1329 33.9141L44.5511 46.5834C44.3352 46.7994 44.2632 47.1593 44.3352 47.4473C44.4072 47.7352 44.5511 48.0231 44.7671 48.2391L55.3489 56.0855C55.8528 56.4454 56.5726 56.3734 56.9326 55.8695L63.8431 46.5115L67.1544 52.4142L65.0669 53.494C64.6349 53.71 64.419 54.1419 64.491 54.5738C64.563 55.0057 64.8509 55.4376 65.3548 55.5096L77.1603 58.389C77.2323 58.389 77.3043 58.389 77.4483 58.389C77.8082 58.389 78.1681 58.173 78.3841 57.8851L84.7187 47.7352C85.0067 47.3033 84.9347 46.7994 84.6468 46.4395ZM55.7808 53.566L47.0706 47.0873L56.5726 35.7137H58.0843L62.7633 44.4239L55.7808 53.566ZM76.8004 56.0855L68.8101 54.1419L69.242 53.9259C69.5299 53.7819 69.7459 53.566 69.8179 53.278C69.8898 52.9901 69.8898 52.7022 69.7459 52.4142L64.9949 43.92L60.5318 35.6417H73.921L79.8238 48.743C80.0397 49.1749 80.5436 49.4628 80.9755 49.3909L76.8004 56.0855Z" fill="#FFC700"/>
<path d="M59.74 75.5214L48.0784 75.0175L51.1018 68.9708L53.1174 70.1226C53.5493 70.3385 54.0532 70.3385 54.4131 69.9786C54.773 69.6907 54.917 69.1868 54.701 68.7549L50.4539 57.3812C50.31 56.9493 49.8781 56.6614 49.3742 56.6614L37.3527 57.0933C36.8488 57.0933 36.4889 57.4532 36.3449 57.8851C36.2009 58.317 36.4169 58.8209 36.7768 59.1089L38.4324 60.2606L31.162 72.2101C30.946 72.5701 30.946 73.0739 31.162 73.4339L39.2243 85.3114L42.3196 89.9904C42.5356 90.2784 42.8955 90.4943 43.2554 90.4943H59.668C60.3159 90.4943 60.8198 89.9904 60.8198 89.3425V76.6732C60.8198 76.0973 60.3159 75.5934 59.74 75.5214ZM40.9519 83.8717L33.4655 72.786L41.0239 60.5486C41.3118 60.1167 41.2399 59.6128 40.8799 59.2528L48.7263 58.8929L51.6057 66.6673L51.1738 66.4513C50.8858 66.3074 50.5979 66.2354 50.31 66.3793C50.022 66.4513 49.8061 66.6673 49.6621 66.9552L45.343 75.5934L40.9519 83.8717ZM58.5162 88.2628H43.8313L42.3916 86.0312L46.9987 77.2491L58.5162 77.753V88.2628Z" fill="#FFC700"/>
<path d="M97.8921 71.7782L90.6936 56.9493C90.5496 56.6613 90.3336 56.4454 90.0457 56.3734C89.7577 56.3014 89.4698 56.3014 89.1819 56.5173L77.6643 62.924C77.1604 63.2119 76.9444 63.9318 77.2324 64.4357L82.8472 74.5856L76.0806 75.1615L76.0086 72.8579C76.0086 72.354 75.6487 71.9941 75.2168 71.8501C74.7849 71.7062 74.281 71.8501 73.993 72.2101L66.5066 81.7841C66.2187 82.144 66.2186 82.7199 66.4346 83.0798L73.1292 93.0137C73.3452 93.3017 73.7051 93.5176 74.065 93.5176C74.137 93.5176 74.281 93.5176 74.353 93.4456C74.7849 93.3017 75.1448 92.8698 75.1448 92.4379L75.2168 90.4223H89.1819C89.6138 90.4223 90.0457 90.1343 90.1897 89.7744L97.8921 72.714C98.036 72.426 98.036 72.0661 97.8921 71.7782ZM88.606 88.2627H74.281C73.7771 88.2627 73.3452 88.6226 73.2012 89.0546L68.8101 82.5039L73.921 75.9533V76.4572C73.921 76.7451 74.065 77.0331 74.281 77.249C74.4969 77.465 74.7849 77.537 75.1448 77.537L84.7908 76.6731L94.1488 76.0253L88.606 88.2627ZM95.0846 73.6498L85.2227 74.3696L79.6798 64.2917L89.1819 58.9648L95.7325 72.2821L95.0846 73.6498Z" fill="#FFC700"/>
</g>
<defs>
<clipPath id="clip0">
<rect x="31" y="30" width="67" height="67" fill="white"/>
</clipPath>
</defs>
</svg>
