<svg width="131" height="131" viewBox="0 0 131 131" fill="none" xmlns="http://www.w3.org/2000/svg">
<g filter="url(#filter0_d)">
<path d="M126.501 61.2505C126.501 95.0783 99.0783 122.501 65.2505 122.501C31.4228 122.501 4 95.0783 4 61.2505C4 27.4228 31.4228 0 65.2505 0C99.0783 0 126.501 27.4228 126.501 61.2505Z" fill="#FFC700"/>
</g>
<g clip-path="url(#clip0)">
<path d="M70.4684 56.4408C71.0441 56.4408 71.5114 55.9736 71.5114 55.3979C71.5114 54.8223 71.0441 54.355 70.4684 54.355C69.8916 54.355 69.4255 54.8223 69.4255 55.3979C69.4255 55.9736 69.8916 56.4408 70.4684 56.4408Z" fill="#282828"/>
<path d="M60.0391 56.4408C60.6148 56.4408 61.0821 55.9736 61.0821 55.3979C61.0821 54.8223 60.6148 54.355 60.0391 54.355C59.4623 54.355 58.9962 54.8223 58.9962 55.3979C58.9962 55.9736 59.4623 56.4408 60.0391 56.4408Z" fill="#282828"/>
<path d="M42.3061 81.4765V83.7656C42.3061 84.3417 42.773 84.8085 43.349 84.8085H87.152C87.7281 84.8085 88.1949 84.3417 88.1949 83.7656V81.4744C88.1949 77.3268 85.8651 73.4936 81.5532 71.9198C83.1115 70.5587 84.0587 68.5649 84.0587 66.409C84.0587 65.8334 83.5918 65.3661 83.0157 65.3661C80.507 65.3661 78.3926 63.5919 77.8834 61.2384H80.8977C82.621 61.2384 84.0232 59.8349 84.0232 58.1096V53.3121C84.0232 51.9518 83.151 50.792 81.9374 50.3622V48.0975C81.9374 38.8965 74.4531 31.4106 65.2538 31.4106C56.0332 31.4106 48.5637 38.8729 48.5637 48.0975V50.3638C47.3501 50.7952 46.4778 51.9547 46.4778 53.3121V58.1096C46.4778 59.8349 47.8829 61.2384 49.6099 61.2384H52.6177C52.1092 63.5919 49.9969 65.3661 47.4906 65.3661C46.9146 65.3661 46.4477 65.8334 46.4477 66.409C46.4477 68.5678 47.3973 70.5636 48.9597 71.9255C44.6645 73.5005 42.3061 77.3724 42.3061 81.4765ZM81.8848 67.3648C81.5601 69.1137 80.3567 70.5982 78.675 71.2651L72.3567 70.4447L71.6816 67.8064C73.6514 66.6286 75.2211 64.9644 76.273 63.0109C77.2544 65.285 79.3622 66.9716 81.8848 67.3648ZM73.6127 50.1833C70.7316 50.1833 68.3875 47.8099 68.3875 44.8925C68.3875 44.3165 67.9206 43.8496 67.3445 43.8496C66.7689 43.8496 66.3016 44.3165 66.3016 44.8925C66.3016 47.8099 63.9575 50.1833 61.0756 50.1833H54.8245C54.8245 44.4326 59.503 39.7541 65.2538 39.7541C71.0156 39.7541 75.6831 44.4171 75.6831 50.1833H73.6127ZM54.8213 52.2692H61.0756C63.7334 52.2692 66.0645 50.8315 67.3445 48.6862C68.6246 50.8315 70.9553 52.2692 73.6127 52.2692H75.6798V57.0667C75.6798 61.0115 73.495 64.5749 69.9783 66.3662C68.5068 67.1158 66.9172 67.4959 65.2538 67.4959C63.5949 67.4959 62.0101 67.1187 60.5427 66.3748C59.558 65.8757 58.6613 65.2255 57.8771 64.4409C55.9066 62.4716 54.8213 59.8524 54.8213 57.0667V52.2692ZM60.7574 68.7499C62.1853 69.3015 63.6927 69.5818 65.2538 69.5818C66.821 69.5818 68.3341 69.2991 69.7681 68.7418L70.4301 71.3307C70.0826 73.9128 67.8921 75.8394 65.264 75.8394C62.6363 75.8394 60.4457 73.9136 60.0974 71.3324L60.7574 68.7499ZM81.9374 58.1096C81.9374 58.6848 81.4709 59.1525 80.8977 59.1525H77.7657V52.2692H80.8977C81.4709 52.2692 81.9374 52.7369 81.9374 53.3121V58.1096ZM65.2538 33.4965C73.3031 33.4965 79.8515 40.0466 79.8515 48.0975V50.1833H77.7689C77.7689 43.2687 72.1726 37.6682 65.2538 37.6682C58.3529 37.6682 52.7387 43.2825 52.7387 50.1833H50.6495V48.0975C50.6495 40.0303 57.1821 33.4965 65.2538 33.4965ZM48.5637 58.1096V53.3121C48.5637 52.7381 49.0322 52.2704 49.6099 52.2692H52.7354V59.1525H49.6099C49.033 59.1525 48.5637 58.6848 48.5637 58.1096ZM54.2297 63.0081C54.8013 64.0641 55.5289 65.0434 56.4023 65.9161C57.1373 66.6514 57.9566 67.2869 58.843 67.8162L58.1713 70.4451L51.8355 71.2672C50.1517 70.5999 48.9466 69.1145 48.6215 67.3648C51.1433 66.9712 53.2499 65.283 54.2297 63.0081ZM51.7251 73.3844L51.8399 73.3697H51.8408C51.8416 73.3693 51.8424 73.3693 51.8432 73.3693L58.2177 72.5423C59.0622 75.6805 61.9083 77.9252 65.264 77.9252C68.6197 77.9252 71.4653 75.6805 72.3094 72.5419C72.6272 72.5835 70.6351 72.3248 78.8017 73.3848C83.3738 73.9788 86.1091 77.4054 86.1091 81.4744V82.7227H44.392V81.4765C44.392 77.4836 47.1256 73.9816 51.7251 73.3844Z" fill="#282828"/>
<path d="M62.4656 63.6095C63.3411 64.0222 64.2793 64.2316 65.2534 64.2316C66.2051 64.2316 67.1245 64.0308 67.9874 63.6348C68.5109 63.3948 68.7403 62.7756 68.4999 62.2521C68.26 61.7286 67.6407 61.4988 67.1172 61.7392C66.5293 62.0089 65.9024 62.1458 65.2538 62.1458C64.5893 62.1458 63.9501 62.0036 63.3549 61.7229C62.8339 61.4772 62.2126 61.7005 61.9669 62.2215C61.7213 62.7426 61.9445 63.3643 62.4656 63.6095Z" fill="#282828"/>
<path d="M74.6401 80.0112H78.8118C79.3879 80.0112 79.8548 79.5443 79.8548 78.9682C79.8548 78.3922 79.3879 77.9253 78.8118 77.9253H74.6401C74.0641 77.9253 73.5972 78.3922 73.5972 78.9682C73.5972 79.5443 74.0641 80.0112 74.6401 80.0112Z" fill="#282828"/>
<path d="M82.9803 77.9253C83.556 77.9253 84.0232 78.3926 84.0232 78.9682C84.0232 79.5439 83.556 80.0112 82.9803 80.0112C82.4047 80.0112 81.9374 79.5439 81.9374 78.9682C81.9374 78.3926 82.4047 77.9253 82.9803 77.9253Z" fill="#282828"/>
</g>
<defs>
<filter id="filter0_d" x="0" y="0" width="130.501" height="130.501" filterUnits="userSpaceOnUse" color-interpolation-filters="sRGB">
<feFlood flood-opacity="0" result="BackgroundImageFix"/>
<feColorMatrix in="SourceAlpha" type="matrix" values="0 0 0 0 0 0 0 0 0 0 0 0 0 0 0 0 0 0 127 0"/>
<feOffset dy="4"/>
<feGaussianBlur stdDeviation="2"/>
<feColorMatrix type="matrix" values="0 0 0 0 0 0 0 0 0 0 0 0 0 0 0 0 0 0 0.25 0"/>
<feBlend mode="normal" in2="BackgroundImageFix" result="effect1_dropShadow"/>
<feBlend mode="normal" in="SourceGraphic" in2="effect1_dropShadow" result="shape"/>
</filter>
<clipPath id="clip0">
<rect x="38.5516" y="31.4106" width="53.3979" height="53.3979" fill="white"/>
</clipPath>
</defs>
</svg>
