<svg width="131" height="131" viewBox="0 0 131 131" fill="none" xmlns="http://www.w3.org/2000/svg">
<g filter="url(#filter0_d)">
<circle cx="65.2505" cy="61.2505" r="61.2505" fill="#FFC700"/>
</g>
<g clip-path="url(#clip0)">
<path d="M93.8891 72.1503H91.4301V44.1124C91.4301 41.8871 89.6196 40.0767 87.3943 40.0767H40.7511C38.5257 40.0767 36.7154 41.8871 36.7154 44.1124V72.1503H34.2563C33.5927 72.1503 33.0547 72.6882 33.0547 73.3519V75.7107C33.0547 78.9794 35.7139 81.6385 38.9826 81.6385H89.1627C92.4314 81.6385 95.0905 78.9794 95.0905 75.7107V73.3519C95.0907 72.6882 94.5528 72.1503 93.8891 72.1503ZM39.3854 44.1124C39.3854 43.3595 39.9982 42.7467 40.7511 42.7467H87.3941C88.1472 42.7467 88.7597 43.3594 88.7597 44.1124V72.1503H70.6821C70.5969 72.1475 70.5091 72.1548 70.4218 72.1716C69.8562 72.2804 69.4475 72.7755 69.4475 73.3514C69.4475 74.3657 68.6224 75.1907 67.6084 75.1907H60.5371C59.5229 75.1907 58.698 74.3656 58.698 73.3514C58.698 72.6786 58.1405 72.1357 57.4685 72.1501H39.3854V44.1124ZM92.6875 75.7107C92.6875 77.6543 91.1062 79.2354 89.1628 79.2354H38.9826C37.0391 79.2354 35.4579 77.6543 35.4579 75.7107V74.5535H56.4681C56.9875 76.3093 58.6151 77.594 60.537 77.594H67.6083C69.5302 77.594 71.1578 76.3092 71.6773 74.5535H92.6876V75.7107H92.6875Z" fill="#282828"/>
<path d="M84.2884 45.8833H43.857C43.1197 45.8833 42.5219 46.481 42.5219 47.2184V67.383C42.5219 68.1204 43.1197 68.7181 43.857 68.7181C44.5943 68.7181 45.1921 68.1204 45.1921 67.383V48.5534H82.9533V67.3829C82.9533 68.1203 83.5511 68.718 84.2884 68.718C85.0257 68.718 85.6235 68.1203 85.6235 67.3829V47.2183C85.6234 46.481 85.0256 45.8833 84.2884 45.8833Z" fill="#282828"/>
<path d="M66.0514 53.644C65.5299 53.1226 64.6848 53.1226 64.1632 53.644L55.7669 62.0406C55.2455 62.562 55.2455 63.4073 55.7669 63.9287C56.0277 64.1895 56.3693 64.3197 56.7109 64.3197C57.0526 64.3197 57.3941 64.1892 57.6549 63.9287L66.0514 55.5322C66.5728 55.0108 66.5728 54.1654 66.0514 53.644Z" fill="#282828"/>
<path d="M71.0281 58.5097C70.5066 57.9883 69.6615 57.9883 69.14 58.5097L65.7952 61.8545C65.2738 62.3759 65.2738 63.2213 65.7952 63.7427C66.0559 64.0035 66.3976 64.1337 66.7392 64.1337C67.081 64.1337 67.4224 64.0035 67.6831 63.7427L71.028 60.3979C71.5495 59.8765 71.5495 59.0312 71.0281 58.5097Z" fill="#282828"/>
</g>
<defs>
<filter id="filter0_d" x="0" y="0" width="130.501" height="130.501" filterUnits="userSpaceOnUse" color-interpolation-filters="sRGB">
<feFlood flood-opacity="0" result="BackgroundImageFix"/>
<feColorMatrix in="SourceAlpha" type="matrix" values="0 0 0 0 0 0 0 0 0 0 0 0 0 0 0 0 0 0 127 0"/>
<feOffset dy="4"/>
<feGaussianBlur stdDeviation="2"/>
<feColorMatrix type="matrix" values="0 0 0 0 0 0 0 0 0 0 0 0 0 0 0 0 0 0 0.25 0"/>
<feBlend mode="normal" in2="BackgroundImageFix" result="effect1_dropShadow"/>
<feBlend mode="normal" in="SourceGraphic" in2="effect1_dropShadow" result="shape"/>
</filter>
<clipPath id="clip0">
<rect x="33.0547" y="29.8398" width="62.0358" height="62.0358" fill="white"/>
</clipPath>
</defs>
</svg>
