<svg width="337" height="62" viewBox="0 0 337 62" fill="none" xmlns="http://www.w3.org/2000/svg">
<g clip-path="url(#clip0)">
<path d="M38.6631 21.6492H41.2193V17.1972C40.7783 17.1365 39.2616 17 37.4953 17C33.8098 17 31.2851 19.3182 31.2851 23.5788V27.5H27.2181V32.477H31.2851V45H36.2715V32.4782H40.174L40.7935 27.5012H36.2703V24.0723C36.2715 22.6338 36.6588 21.6492 38.6631 21.6492Z" fill="black"/>
</g>
<path d="M107.315 25.7673C106.959 24.4419 105.914 23.3972 104.588 23.0403C102.168 22.3779 92.4835 22.3779 92.4835 22.3779C92.4835 22.3779 82.7999 22.3779 80.3789 23.0152C79.0792 23.3717 78.0087 24.4421 77.6522 25.7673C77.0151 28.1881 77.0151 33.2084 77.0151 33.2084C77.0151 33.2084 77.0151 38.2541 77.6522 40.6496C78.0091 41.9748 79.0537 43.0195 80.3791 43.3764C82.8254 44.039 92.4839 44.039 92.4839 44.039C92.4839 44.039 102.168 44.039 104.588 43.4017C105.914 43.045 106.959 42.0003 107.316 40.6751C107.952 38.2541 107.952 33.2339 107.952 33.2339C107.952 33.2339 107.978 28.1881 107.315 25.7673ZM89.4003 37.8464V28.5705L97.4531 33.2084L89.4003 37.8464Z" fill="black"/>
<path d="M161.503 21H150.497C146.914 21 144 23.9143 144 27.4966V38.5036C144 42.0857 146.914 45 150.497 45H161.504C165.086 45 168 42.0857 168 38.5036V27.4966C168 23.9143 165.086 21 161.503 21V21ZM156 39.5623C152.381 39.5623 149.438 36.6185 149.438 33C149.438 29.3815 152.381 26.4377 156 26.4377C159.619 26.4377 162.562 29.3815 162.562 33C162.562 36.6185 159.619 39.5623 156 39.5623ZM162.719 27.9853C161.65 27.9853 160.78 27.1155 160.78 26.0462C160.78 24.9769 161.65 24.1069 162.719 24.1069C163.789 24.1069 164.658 24.9769 164.658 26.0462C164.658 27.1155 163.789 27.9853 162.719 27.9853Z" fill="black"/>
<path d="M156 27.8447C153.157 27.8447 150.845 30.1573 150.845 33C150.845 35.8425 153.157 38.1553 156 38.1553C158.843 38.1553 161.155 35.8425 161.155 33C161.155 30.1573 158.843 27.8447 156 27.8447Z" fill="black"/>
<path d="M162.719 25.5141C162.426 25.5141 162.187 25.7529 162.187 26.0462C162.187 26.3395 162.426 26.5783 162.719 26.5783C163.013 26.5783 163.251 26.3397 163.251 26.0462C163.251 25.7527 163.013 25.5141 162.719 25.5141Z" fill="black"/>
<line x1="0.5" y1="2.18557e-08" x2="0.499997" y2="62" stroke="#D2D2D2"/>
<line x1="192.5" y1="2.18557e-08" x2="192.5" y2="62" stroke="#D2D2D2"/>
<line x1="336.5" y1="2.18557e-08" x2="336.5" y2="62" stroke="#D2D2D2"/>
<line x1="264.5" y1="2.18557e-08" x2="264.5" y2="62" stroke="#D2D2D2"/>
<path d="M242.964 21.1429H216.036C215.464 21.1429 215 21.6066 215 22.1786V40.8214C215 41.3934 215.464 41.8571 216.036 41.8571H242.964C243.536 41.8571 244 41.3934 244 40.8214V22.1786C244 21.6066 243.536 21.1429 242.964 21.1429ZM241.266 23.2143L229.5 32.2644L217.734 23.2143H241.266ZM241.929 39.7857H217.071V25.3178L228.869 34.3927C229.241 34.6784 229.759 34.6784 230.131 34.3927L241.929 25.3178V39.7857Z" fill="black"/>
<g clip-path="url(#clip1)">
<path d="M305.991 33.4284C309.112 29.0212 308.068 22.9186 303.661 19.7984C299.254 16.6781 293.151 17.7212 290.031 22.1291C286.911 26.5362 287.954 32.6381 292.362 35.7584C295.507 37.9854 299.666 38.1569 302.984 36.1975L310.193 43.3633C310.971 44.1827 312.267 44.2155 313.086 43.4371C313.905 42.6595 313.938 41.3644 313.161 40.545C313.136 40.5189 313.112 40.4951 313.086 40.4705L305.991 33.4284ZM298.005 34.0964C294.522 34.0972 291.699 31.2759 291.697 27.7933C291.696 24.3106 294.517 21.4871 298.001 21.4856C301.479 21.4841 304.301 24.3009 304.307 27.7791C304.313 31.2625 301.494 34.0905 298.009 34.0964C298.008 34.0964 298.007 34.0964 298.005 34.0964Z" fill="black"/>
</g>
<defs>
<clipPath id="clip0">
<rect width="28" height="28" fill="white" transform="translate(20 17)"/>
</clipPath>
<clipPath id="clip1">
<rect width="26" height="26" fill="white" transform="translate(288 18)"/>
</clipPath>
</defs>
</svg>
