<svg width="19" height="19" viewBox="0 0 19 19" fill="none" xmlns="http://www.w3.org/2000/svg">
<g clip-path="url(#clip0)">
<path d="M9.49997 0.000976562C4.26166 0.000976562 0 4.26265 0 9.50094C0 14.7392 4.26166 19.0009 9.49997 19.0009C14.7383 19.0009 19 14.7393 19 9.50094C19 4.26264 14.7383 0.000976562 9.49997 0.000976562ZM5.21895 12.4793L4.0547 10.7745H3.75534V12.4793H2.57378V6.45334H3.75534V9.87987H4.02354L5.00088 8.31008H6.31685L4.96974 10.1961L6.52325 12.4793H5.21895ZM7.9027 11.3588C8.0259 11.5882 8.24577 11.7028 8.54947 11.7028C8.75194 11.7028 8.9173 11.6466 9.03936 11.5292C9.16133 11.4119 9.22547 11.2809 9.22547 11.0614H10.2573L10.269 11.0823C10.2793 11.5081 10.1191 11.8631 9.7881 12.1499C9.45718 12.4368 9.04638 12.5795 8.55578 12.5795C7.92756 12.5795 7.44238 12.3806 7.10229 11.9835C6.76227 11.5864 6.59113 11.076 6.59113 10.453V10.3361C6.59113 9.71577 6.76164 9.20576 7.10036 8.80598C7.43915 8.40628 7.92315 8.20636 8.55129 8.20636C9.0705 8.20636 9.48928 8.35432 9.80732 8.65023C10.1252 8.94615 10.2792 9.35462 10.2688 9.83744L10.2612 9.8799H9.22547C9.22547 9.64359 9.16572 9.46172 9.04636 9.31762C8.92694 9.17358 8.76216 9.09202 8.55183 9.09202C8.25075 9.09202 8.0259 9.2039 7.9027 9.43714C7.77934 9.67038 7.70515 9.96629 7.70515 10.3343V10.451C7.70515 10.8268 7.77934 11.1294 7.9027 11.3588ZM13.3878 12.4793C13.3463 12.4118 13.3105 12.291 13.2807 12.1845C13.2508 12.0781 13.2294 11.9735 13.2165 11.8619C13.0996 12.067 12.9459 12.2392 12.755 12.3741C12.5643 12.5092 12.3365 12.5777 12.0717 12.5777C11.6304 12.5777 11.2904 12.4648 11.0516 12.2376C10.8128 12.0105 10.6934 11.7012 10.6934 11.3093C10.6934 10.8965 10.8523 10.5798 11.1704 10.3525C11.4882 10.1255 11.9523 10.0149 12.5624 10.0149H13.2247V9.67426C13.2247 9.47179 13.1577 9.31473 13.0512 9.20309C12.9448 9.09153 12.7808 9.03569 12.5732 9.03569C12.3888 9.03569 12.2432 9.08043 12.1433 9.17C12.0434 9.25952 11.9917 9.3835 11.9917 9.54179L10.8928 9.53794L10.8885 9.51458C10.8704 9.159 11.0246 8.85205 11.3516 8.59376C11.6787 8.33547 12.1082 8.20632 12.6404 8.20632C13.1439 8.20632 13.5531 8.33423 13.8672 8.58982C14.1813 8.84556 14.3388 9.20957 14.3388 9.68198V11.4225C14.3388 11.6198 14.3532 11.7964 14.3831 11.9704C14.4129 12.1442 14.4599 12.3274 14.5248 12.4793H13.3878V12.4793ZM15.2334 12.4793V6.45334H16.415V12.4793H15.2334Z" fill="black"/>
<path d="M12.0131 10.8171C11.8885 10.9378 11.8262 11.091 11.8262 11.2624C11.8262 11.4025 11.8729 11.5191 11.9663 11.6048C12.0598 11.6904 12.1869 11.735 12.3479 11.735C12.5478 11.735 12.7394 11.6867 12.8952 11.5881C13.0509 11.4894 13.1401 11.3761 13.2245 11.2463V10.6216H12.5621C12.3206 10.6216 12.1376 10.6965 12.0131 10.8171Z" fill="black"/>
</g>
<defs>
<clipPath id="clip0">
<rect width="19" height="19" fill="white"/>
</clipPath>
</defs>
</svg>
