<svg width="80" height="80" viewBox="0 0 80 80" fill="none" xmlns="http://www.w3.org/2000/svg">
<circle cx="40" cy="40" r="38.5" stroke="#00AA63" stroke-width="3"/>
<g clip-path="url(#clip0)">
<path d="M61.7064 40.179C57.7073 35.3068 49.2406 29.6208 40 29.6208C30.7263 29.6208 22.2592 35.3454 18.2936 40.179C17.9021 40.6562 17.9021 41.3435 18.2936 41.8207C22.3875 46.8108 30.8741 52.3789 40 52.3789C49.4503 52.3789 57.8809 46.4815 61.7064 41.8208C62.0979 41.3435 62.0979 40.6562 61.7064 40.179ZM48.7908 40.9999C48.7908 45.8471 44.8472 49.7907 39.9999 49.7907C35.1525 49.7907 31.2091 45.8468 31.2091 40.9999C31.2091 36.1526 35.1526 32.209 39.9999 32.209C44.8477 32.2091 48.7908 36.1531 48.7908 40.9999ZM21.0422 41.0002C22.4988 39.4863 26.0109 36.2192 30.941 34.1223C27.847 38.1877 27.8458 43.8086 30.9395 47.8755C27.191 46.2868 23.7088 43.7767 21.0422 41.0002ZM49.059 47.8774C52.153 43.8119 52.1541 38.1911 49.0605 34.1242C52.8088 35.713 56.2911 38.2231 58.9578 40.9994C57.5012 42.5135 53.9892 45.7804 49.059 47.8774Z" fill="black"/>
<path d="M35.6 40.9998C35.6 43.4261 37.5738 45.3998 40 45.3998C42.4261 45.3998 44.4 43.4261 44.4 40.9998C44.4 38.5736 42.4261 36.5999 40 36.5999C37.5738 36.5999 35.6 38.5736 35.6 40.9998ZM41.8118 40.9998C41.8118 41.9989 40.999 42.8116 40 42.8116C39.0009 42.8116 38.1882 41.9989 38.1882 40.9998C38.1882 40.0008 39.0009 39.1881 40 39.1881C40.999 39.1881 41.8118 40.0008 41.8118 40.9998Z" fill="#00AA63"/>
<path d="M40 24.6078C40.7147 24.6078 41.2941 24.0284 41.2941 23.3137V20.2941C41.2941 19.5794 40.7147 19 40 19C39.2853 19 38.7059 19.5794 38.7059 20.2941V23.3137C38.7059 24.0284 39.2853 24.6078 40 24.6078Z" fill="black"/>
<path d="M47.7216 26.3388C48.342 26.6927 49.1326 26.4769 49.4868 25.8557L51.209 22.8361C51.5631 22.2153 51.347 21.425 50.7261 21.0709C50.1051 20.7168 49.315 20.9329 48.9608 21.5539L47.2386 24.5735C46.8845 25.1943 47.1007 25.9846 47.7216 26.3388Z" fill="black"/>
<path d="M30.5132 25.8557C30.8672 26.4765 31.6575 26.6927 32.2784 26.3387C32.8993 25.9846 33.1155 25.1942 32.7614 24.5734L31.0392 21.5538C30.6851 20.933 29.8947 20.7168 29.2739 21.0708C28.6531 21.4249 28.4369 22.2153 28.791 22.8361L30.5132 25.8557Z" fill="black"/>
<path d="M40 57.3921C39.2853 57.3921 38.7059 57.9715 38.7059 58.6862V61.7058C38.7059 62.4205 39.2853 62.9999 40 62.9999C40.7147 62.9999 41.2941 62.4205 41.2941 61.7058V58.6862C41.2941 57.9715 40.7147 57.3921 40 57.3921Z" fill="black"/>
<path d="M32.2784 55.6614C31.6576 55.3074 30.8673 55.5235 30.5132 56.1443L28.791 59.1639C28.4369 59.7848 28.6531 60.5751 29.2739 60.9292C29.8948 61.2833 30.6851 61.067 31.0392 60.4462L32.7614 57.4266C33.1156 56.8058 32.8993 56.0154 32.2784 55.6614Z" fill="black"/>
<path d="M49.4868 56.1444C49.1327 55.5235 48.3422 55.3074 47.7216 55.6613C47.1007 56.0154 46.8845 56.8058 47.2386 57.4266L48.9608 60.4462C49.3148 61.067 50.1051 61.2833 50.7261 60.9293C51.3469 60.5752 51.5631 59.7848 51.209 59.164L49.4868 56.1444Z" fill="black"/>
</g>
<defs>
<clipPath id="clip0">
<rect width="44" height="44" fill="white" transform="translate(18 19)"/>
</clipPath>
</defs>
</svg>
