<svg width="22" height="20" viewBox="0 0 22 20" fill="none" xmlns="http://www.w3.org/2000/svg">
<path d="M12.9442 8.74298C14.0182 9.81696 14.0182 11.5582 12.9442 12.6322C11.8702 13.7062 10.129 13.7062 9.055 12.6322C7.98102 11.5582 7.98102 9.81696 9.055 8.74298C10.129 7.66901 11.8702 7.66901 12.9442 8.74298Z" fill="black"/>
<path d="M19.2499 3.12485H17.3498L15.9741 0.374756H6.02455L4.65015 3.1262L2.75275 3.12958C1.24009 3.13228 0.00869271 4.36498 0.00738656 5.87832L0 16.8746C0 18.3913 1.23337 19.6254 2.7501 19.6254H19.2499C20.7667 19.6254 22 18.392 22 16.8753V5.8749C22 4.35823 20.7666 3.12485 19.2499 3.12485ZM10.9997 16.1877C7.9669 16.1877 5.49947 13.7203 5.49947 10.6876C5.49947 7.65479 7.9669 5.18737 10.9997 5.18737C14.0324 5.18737 16.4999 7.65479 16.4999 10.6876C16.4999 13.7203 14.0324 16.1877 10.9997 16.1877Z" fill="black"/>
</svg>
