<svg width="62" height="54" viewBox="0 0 62 54" fill="none" xmlns="http://www.w3.org/2000/svg">
<path d="M19.7827 35.6775H52.3941C53.1974 35.6775 53.9048 35.1542 54.1206 34.3812L61.3143 9.40696C61.4702 8.8718 61.3623 8.28907 61.0266 7.83715C60.6909 7.38524 60.1513 7.12361 59.5878 7.12361H15.6343L14.3514 1.37953C14.1596 0.582732 13.4282 0 12.589 0H1.79843C0.803297 0 0 0.796797 0 1.78387C0 2.77095 0.803297 3.56775 1.79843 3.56775H11.1502C11.378 4.5905 17.3009 31.0275 17.6486 32.5498C15.7422 33.3703 14.3994 35.2612 14.3994 37.4614C14.3994 40.4107 16.8213 42.813 19.7947 42.813H52.4061C53.4013 42.813 54.2046 42.0162 54.2046 41.0291C54.2046 40.042 53.4013 39.2452 52.4061 39.2452H19.7827C18.7876 39.2452 17.9843 38.4484 17.9843 37.4614C17.9843 36.4743 18.7876 35.6775 19.7827 35.6775ZM57.2019 10.7032L51.0393 32.1097H21.2214L16.4256 10.7032H57.2019Z" fill="#494949"/>
<path d="M17.9843 48.1649C17.9843 51.1142 20.4062 53.5165 23.3796 53.5165C26.353 53.5165 28.7749 51.1142 28.7749 48.1649C28.7749 45.2155 26.353 42.8132 23.3796 42.8132C20.4062 42.8132 17.9843 45.2155 17.9843 48.1649ZM23.3796 46.381C24.3747 46.381 25.178 47.1778 25.178 48.1649C25.178 49.1519 24.3747 49.9487 23.3796 49.9487C22.3845 49.9487 21.5812 49.1519 21.5812 48.1649C21.5812 47.1778 22.3845 46.381 23.3796 46.381Z" fill="#494949"/>
<path d="M43.402 48.1649C43.402 51.1142 45.8239 53.5165 48.7973 53.5165C51.7707 53.5165 54.1926 51.1142 54.1926 48.1649C54.1926 45.2155 51.7707 42.8132 48.7973 42.8132C45.8239 42.8132 43.402 45.2155 43.402 48.1649ZM48.7973 46.381C49.7924 46.381 50.5957 47.1778 50.5957 48.1649C50.5957 49.1519 49.7924 49.9487 48.7973 49.9487C47.8022 49.9487 46.9989 49.1519 46.9989 48.1649C46.9989 47.1778 47.8022 46.381 48.7973 46.381Z" fill="#494949"/>
</svg>
