<svg width="47" height="47" viewBox="0 0 47 47" fill="none" xmlns="http://www.w3.org/2000/svg">
<path d="M47 23.5C47 10.5425 36.4575 0 23.5 0C10.5425 0 0 10.5425 0 23.5C0 30.3441 2.94305 36.513 7.62767 40.8114L7.60545 40.831L8.36771 41.4737C8.41727 41.5155 8.47111 41.5497 8.52067 41.5907C8.92573 41.9266 9.34531 42.2453 9.77258 42.5538C9.91102 42.6538 10.0495 42.7538 10.1905 42.8512C10.6468 43.1657 11.1151 43.4639 11.5936 43.7467C11.6979 43.8083 11.803 43.8681 11.9081 43.9279C12.4319 44.2261 12.9669 44.5073 13.5146 44.7654C13.5548 44.7842 13.5958 44.8013 13.636 44.8201C15.4211 45.6498 17.3268 46.2591 19.3196 46.6189C19.3717 46.6283 19.4238 46.6377 19.4768 46.6471C20.0955 46.7539 20.721 46.8393 21.3542 46.8966C21.4311 46.9034 21.5081 46.9077 21.5858 46.9145C22.2165 46.9667 22.854 47 23.5 47C24.1401 47 24.7716 46.9667 25.3988 46.9163C25.4783 46.9094 25.5577 46.9051 25.6372 46.8983C26.2653 46.8411 26.8857 46.7582 27.4984 46.6531C27.5514 46.6437 27.6052 46.6343 27.6582 46.624C29.6211 46.2719 31.4994 45.6763 33.2615 44.8679C33.3264 44.838 33.3922 44.8098 33.4572 44.779C33.9844 44.5312 34.4997 44.2637 35.0047 43.9792C35.1304 43.9083 35.2551 43.8365 35.3799 43.763C35.8396 43.4921 36.2917 43.2092 36.7309 42.9084C36.889 42.8008 37.0437 42.6871 37.2001 42.5743C37.5752 42.3043 37.9435 42.0257 38.3016 41.7343C38.3811 41.6702 38.4665 41.6147 38.5443 41.5489L39.3262 40.896L39.3031 40.8763C44.0287 36.5763 47 30.3791 47 23.5ZM1.70909 23.5C1.70909 11.4842 11.4842 1.70909 23.5 1.70909C35.5158 1.70909 45.2909 11.4842 45.2909 23.5C45.2909 29.9749 42.4495 35.7961 37.9512 39.7902C37.7 39.6167 37.447 39.4612 37.1881 39.3313L29.9527 35.714C29.3032 35.3893 28.8999 34.7364 28.8999 34.0109V31.484C29.0674 31.2772 29.2443 31.0431 29.4271 30.7859C30.3637 29.463 31.1149 27.9915 31.6626 26.408C32.7453 25.8936 33.4443 24.8151 33.4443 23.5974V20.5681C33.4443 19.8272 33.1726 19.1085 32.6864 18.5436V14.5555C32.7308 14.1111 32.888 11.609 31.0773 9.54442C29.5023 7.74645 26.9532 6.83636 23.5 6.83636C20.0468 6.83636 17.4977 7.74646 15.9227 9.54356C14.112 11.6081 14.2692 14.112 14.3136 14.5546V18.5428C13.8283 19.1076 13.5557 19.8263 13.5557 20.5672V23.5966C13.5557 24.5374 13.9778 25.415 14.7007 26.0072C15.3929 28.7187 16.8175 30.7713 17.3439 31.4669V33.94C17.3439 34.6373 16.9636 35.2782 16.3509 35.6132L9.59398 39.2988C9.37864 39.4159 9.165 39.5526 8.95136 39.7056C4.50858 35.7132 1.70909 29.9279 1.70909 23.5Z" fill="white"/>
</svg>
