<svg width="60" height="60" viewBox="0 0 60 60" fill="none" xmlns="http://www.w3.org/2000/svg">
<g filter="url(#filter0_d)">
<circle cx="30" cy="26" r="26" fill="url(#paint0_linear)"/>
</g>
<path d="M27.127 25.291H31.873V26.873H27.127V25.291Z" fill="#424242"/>
<path d="M37.9047 26.873H33.4551V27.664C33.4551 28.1012 33.1012 28.4551 32.6641 28.4551H26.3359C25.8988 28.4551 25.5449 28.1012 25.5449 27.664V26.873H21.0953C20.0725 26.873 19.168 26.2211 18.8442 25.2508L16 16.7169V33.9922C16 35.3006 17.0646 36.3652 18.373 36.3652H40.627C41.9354 36.3652 43 35.3006 43 33.9922V16.7175L40.1556 25.2508C39.832 26.2211 38.9275 26.873 37.9047 26.873Z" fill="#424242"/>
<path d="M32.6641 12.6348H26.3359C25.0275 12.6348 23.9629 13.6993 23.9629 15.0078V15.7988H17.361L20.3444 24.7503C20.4525 25.0739 20.7545 25.291 21.0952 25.291H25.5449V24.5C25.5449 24.0629 25.8988 23.709 26.3359 23.709H32.6641C33.1012 23.709 33.4551 24.0629 33.4551 24.5V25.291H37.9047C38.2455 25.291 38.5474 25.0739 38.6556 24.7503L41.6392 15.7988H35.0371V15.0078C35.0371 13.6993 33.9725 12.6348 32.6641 12.6348ZM25.5449 15.7988V15.0078C25.5449 14.5713 25.8994 14.2168 26.3359 14.2168H32.6641C33.1006 14.2168 33.4551 14.5713 33.4551 15.0078V15.7988H25.5449Z" fill="#424242"/>
<defs>
<filter id="filter0_d" x="0" y="0" width="60" height="60" filterUnits="userSpaceOnUse" color-interpolation-filters="sRGB">
<feFlood flood-opacity="0" result="BackgroundImageFix"/>
<feColorMatrix in="SourceAlpha" type="matrix" values="0 0 0 0 0 0 0 0 0 0 0 0 0 0 0 0 0 0 127 0"/>
<feOffset dy="4"/>
<feGaussianBlur stdDeviation="2"/>
<feColorMatrix type="matrix" values="0 0 0 0 0 0 0 0 0 0 0 0 0 0 0 0 0 0 0.25 0"/>
<feBlend mode="normal" in2="BackgroundImageFix" result="effect1_dropShadow"/>
<feBlend mode="normal" in="SourceGraphic" in2="effect1_dropShadow" result="shape"/>
</filter>
<linearGradient id="paint0_linear" x1="30" y1="0" x2="30" y2="52" gradientUnits="userSpaceOnUse">
<stop stop-color="white"/>
<stop offset="1" stop-color="#8186DF"/>
</linearGradient>
</defs>
</svg>
