<svg width="43" height="43" viewBox="0 0 43 43" fill="none" xmlns="http://www.w3.org/2000/svg">
<circle cx="21.5" cy="21.5" r="21" stroke="black"/>
<path d="M28.7512 21.4263C28.947 21.4263 29.1055 21.2677 29.1055 21.0721V21.0379C29.1055 20.8423 28.947 20.6836 28.7512 20.6836C28.5557 20.6836 28.3969 20.8423 28.3969 21.0379V21.0721C28.3969 21.2677 28.5557 21.4263 28.7512 21.4263Z" fill="black"/>
<path d="M31.0944 22.3912C30.7886 20.5629 29.5682 19.1538 28.066 18.9604V10.1624C28.4632 9.88684 28.5838 9.33167 28.456 8.87098C28.3028 8.31855 27.7709 7.84943 26.9286 8.04536C23.3568 8.82941 19.8045 10.7998 16.9259 13.5932C16.8851 13.6328 16.8443 13.6723 16.8047 13.7117C16.6663 13.85 16.6661 14.0743 16.8043 14.2127C16.9426 14.3511 17.1669 14.3513 17.3053 14.2131C17.3421 14.1763 17.3802 14.1394 17.4188 14.1023C20.2052 11.3982 23.6371 9.4928 27.0826 8.73694C27.084 8.73658 27.0857 8.73621 27.0873 8.73584C27.5742 8.62195 27.7262 8.8902 27.7732 9.06031C27.8386 9.29578 27.7648 9.54535 27.615 9.60468C24.3239 10.3318 21.0366 12.1022 18.356 14.5914C18.1275 14.8036 17.9054 15.0202 17.6889 15.2401C17.6801 15.2481 17.6719 15.2566 17.664 15.2654C15.2879 17.688 13.6577 20.5547 13.0298 23.4351C12.6323 23.7841 12.3472 24.2622 12.2439 24.8124C12.2148 24.8079 12.1859 24.8027 12.1562 24.7994C11.9905 24.7817 11.8276 24.7863 11.6701 24.8106C12.1266 21.5378 13.7192 18.2126 16.1939 15.3897C16.323 15.2427 16.3081 15.0189 16.1611 14.8898C16.0139 14.7609 15.7901 14.7756 15.6612 14.9228C14.3394 16.4303 13.2605 18.0661 12.4543 19.7849C11.6364 21.5285 11.1211 23.3157 10.9195 25.1005C10.4667 25.3995 10.1457 25.8906 10.0837 26.4706L9.71398 29.9176C9.6607 30.4156 9.8059 30.9058 10.1227 31.2982C10.4394 31.6904 10.8882 31.9358 11.3863 31.9891C11.454 31.9964 11.5216 31.9999 11.5886 31.9999C12.016 31.9999 12.4283 31.8547 12.7674 31.5815C13.16 31.2651 13.4056 30.8163 13.459 30.3177L13.7562 27.5339C13.9541 27.6103 14.1632 27.6617 14.3799 27.6848C14.4666 27.6941 14.5529 27.6985 14.6382 27.6985C15.1258 27.6985 15.5865 27.5519 15.9736 27.2975L16.5484 27.9437C16.4601 28.105 16.4013 28.2859 16.3805 28.4798C16.34 28.8627 16.451 29.2385 16.693 29.538C16.9351 29.8379 17.2795 30.0253 17.6616 30.0657C17.7144 30.0714 17.7667 30.0741 17.8191 30.0741C18.1469 30.0741 18.4627 29.9632 18.7216 29.7543C19.0214 29.5124 19.2087 29.1685 19.2492 28.7864C19.3343 27.9963 18.7601 27.284 17.9693 27.1987C17.9689 27.1987 17.9687 27.1985 17.9683 27.1985C17.6272 27.1626 17.3009 27.2492 17.033 27.4226L16.5037 26.8273C16.8054 26.4692 17.0078 26.0211 17.0612 25.5218C17.1305 24.8751 16.9435 24.2401 16.5348 23.734C16.3396 23.4923 16.1049 23.2943 15.8425 23.1455C17.5888 21.0174 18.1337 18.072 18.2657 15.8209C21.3067 15.4307 25.2312 13.2983 27.3576 10.9472V18.9611C25.8679 19.1512 24.639 20.5274 24.3307 22.3911C23.5578 22.9929 23.1314 24.1148 23.1264 25.5754C23.1259 25.8915 23.1594 26.2405 23.4121 26.4338C23.5324 26.5258 23.6662 26.5591 23.8096 26.5591C23.9925 26.5591 24.1908 26.5049 24.3957 26.4489L24.9174 26.3053C25.0882 26.6977 25.2933 27.097 25.5339 27.5074L25.5654 27.561C25.9089 28.1477 25.8911 28.1691 25.792 28.2881L24.6813 29.6268C24.5316 29.8077 24.501 30.0404 24.5993 30.2494C24.7081 30.4806 24.9743 30.6619 25.2054 30.6619H25.8047L27.711 30.6658H27.7125L29.6182 30.6619H30.2195C30.4501 30.6619 30.7159 30.4806 30.8249 30.2492C30.9234 30.0401 30.893 29.8075 30.7434 29.6266L29.6327 28.288C29.5332 28.1684 29.5153 28.1468 29.863 27.5554L29.891 27.5076C30.1315 27.0969 30.3362 26.6973 30.507 26.3051L31.0299 26.449C31.2343 26.5049 31.4326 26.5591 31.6153 26.5591C31.7587 26.5591 31.8927 26.5258 32.0129 26.4337C32.2654 26.2401 32.2983 25.8909 32.2972 25.5753C32.2939 24.1163 31.868 22.994 31.0944 22.3912ZM17.085 28.5551C17.1255 28.1792 17.4456 27.899 17.8164 27.899C17.842 27.899 17.8678 27.9003 17.8938 27.9031C18.2961 27.9466 18.5882 28.3088 18.5448 28.7113C18.5243 28.9054 18.429 29.0799 18.2767 29.2027C18.1242 29.326 17.9328 29.3822 17.7369 29.3611C17.5424 29.3406 17.3674 29.2452 17.2442 29.0929C17.1209 28.9404 17.0644 28.749 17.085 28.5551ZM12.7546 30.2424C12.7213 30.5524 12.568 30.832 12.3229 31.0298C12.0777 31.2273 11.7717 31.3178 11.4617 31.2846C11.1517 31.2513 10.8719 31.0981 10.6738 30.8531C10.4761 30.6081 10.3852 30.3027 10.4184 29.9932L10.7883 26.5459C10.8309 26.146 11.0712 25.8144 11.4009 25.6368C11.409 25.6331 11.4169 25.6289 11.4247 25.6247C11.6203 25.5251 11.8457 25.4788 12.0795 25.5037C12.1258 25.5088 12.1711 25.5172 12.2156 25.5275C12.2648 25.9872 12.4441 26.4241 12.7414 26.7924C12.8454 26.9213 12.961 27.0379 13.0857 27.1412L12.7546 30.2424ZM15.9837 24.1791C16.2733 24.5378 16.4059 24.9879 16.3568 25.4464C16.323 25.7635 16.2041 26.0513 16.0262 26.2903L14.9028 25.0278C14.7728 24.8817 14.5489 24.8685 14.4027 24.9987C14.2566 25.1287 14.2434 25.3526 14.3734 25.4987L15.4961 26.7605C15.241 26.9068 14.9473 26.9899 14.6382 26.9899C14.5776 26.9899 14.5165 26.9868 14.4549 26.9802C14.1695 26.9498 13.9021 26.8513 13.6711 26.6953C13.6648 26.6905 13.6584 26.6862 13.652 26.6818C13.5187 26.5891 13.3977 26.477 13.2929 26.3472C13.0031 25.9883 12.8705 25.5377 12.9196 25.0787C13.0144 24.1945 13.7654 23.5362 14.6364 23.5362C14.6975 23.5362 14.7594 23.5395 14.8217 23.5461C15.2811 23.5953 15.6936 23.82 15.9837 24.1791ZM15.1386 22.8798C15.0594 22.8631 14.9786 22.8505 14.8969 22.8417C14.5419 22.8038 14.1966 22.845 13.8778 22.9501C14.5053 20.6426 15.787 18.414 17.5051 16.4722C17.307 18.5682 16.7124 21.091 15.1386 22.8798ZM18.9765 14.9766C21.1864 12.9529 23.8878 11.3758 26.7561 10.5537C24.9192 12.5327 21.6671 14.381 18.9765 14.9766ZM24.2084 25.7655C24.1113 25.7921 23.9475 25.8369 23.8539 25.8484C23.8447 25.8027 23.8347 25.7201 23.835 25.5773C23.8369 25.0437 23.9061 24.2091 24.2618 23.558C24.2882 24.254 24.418 24.9403 24.6586 25.6417L24.2084 25.7655ZM29.28 27.1492L29.2522 27.1963C28.9171 27.7665 28.6523 28.2169 29.0878 28.7406L30.0939 29.9535L27.7119 29.9573L25.8056 29.9535H25.3312L26.3372 28.741C26.7715 28.2186 26.5089 27.7703 26.1768 27.2031L26.1453 27.1494C25.3401 25.7763 24.9651 24.5495 24.9651 23.2886C24.9651 23.2101 24.9677 23.1325 24.9714 23.055C25.5796 23.2247 26.2209 23.3384 26.8848 23.3919C26.8945 23.3926 26.9042 23.3932 26.9137 23.3932C27.0965 23.3932 27.2516 23.2526 27.2664 23.0673C27.2822 22.8723 27.1368 22.7014 26.9418 22.6857C26.2855 22.6329 25.654 22.518 25.0594 22.3442C25.3784 20.7642 26.4597 19.6463 27.7119 19.6463C28.9795 19.6463 30.0491 20.7902 30.3649 22.3398C29.789 22.5011 29.204 22.6121 28.6192 22.6694C28.6005 22.6714 28.5064 22.6802 28.4885 22.6811C28.2931 22.6919 28.1435 22.8589 28.1541 23.0543C28.1645 23.2431 28.3209 23.3892 28.5075 23.3892C28.5141 23.3892 28.5207 23.389 28.5273 23.3886C28.554 23.3872 28.6653 23.3769 28.6911 23.3743C29.28 23.3165 29.8709 23.207 30.4533 23.0497C30.4574 23.1288 30.4599 23.2083 30.4599 23.2886C30.4599 24.5469 30.0849 25.7739 29.28 27.1492ZM31.5705 25.8483C31.4767 25.8367 31.3136 25.7921 31.2173 25.7657L30.7657 25.6415C31.0067 24.9395 31.1367 24.2534 31.1632 23.5582C31.519 24.2097 31.5875 25.0441 31.5888 25.5775C31.5893 25.7199 31.5796 25.8025 31.5705 25.8483Z" fill="black"/>
</svg>
