<svg width="79" height="18" viewBox="0 0 79 18" fill="none" xmlns="http://www.w3.org/2000/svg">
<path d="M12.2062 14.493V17H0.131238V0.899999H11.8842V3.407H3.12124V7.593H10.8952V10.054H3.12124V14.493H12.2062ZM20.7861 17.161C19.5135 17.161 18.3711 16.8927 17.3591 16.356C16.3471 15.8193 15.5575 15.0757 14.9901 14.125C14.4228 13.159 14.1391 12.0703 14.1391 10.859C14.1391 9.64767 14.4228 8.56667 14.9901 7.616C15.5575 6.66533 16.3395 5.92167 17.3361 5.385C18.3481 4.84833 19.4981 4.58 20.7861 4.58C21.9975 4.58 23.0555 4.82533 23.9601 5.316C24.8801 5.80667 25.5701 6.512 26.0301 7.432L23.8221 8.72C23.4695 8.15267 23.0248 7.731 22.4881 7.455C21.9668 7.16367 21.3918 7.018 20.7631 7.018C19.6898 7.018 18.8005 7.37067 18.0951 8.076C17.3898 8.766 17.0371 9.69367 17.0371 10.859C17.0371 12.0243 17.3821 12.9597 18.0721 13.665C18.7775 14.355 19.6745 14.7 20.7631 14.7C21.3918 14.7 21.9668 14.562 22.4881 14.286C23.0248 13.9947 23.4695 13.5653 23.8221 12.998L26.0301 14.286C25.5548 15.206 24.8571 15.919 23.9371 16.425C23.0325 16.9157 21.9821 17.161 20.7861 17.161ZM33.8557 17.161C32.6137 17.161 31.4944 16.8927 30.4977 16.356C29.501 15.8193 28.719 15.0757 28.1517 14.125C27.5997 13.159 27.3237 12.0703 27.3237 10.859C27.3237 9.64767 27.5997 8.56667 28.1517 7.616C28.719 6.66533 29.501 5.92167 30.4977 5.385C31.4944 4.84833 32.6137 4.58 33.8557 4.58C35.113 4.58 36.24 4.84833 37.2367 5.385C38.2334 5.92167 39.0077 6.66533 39.5597 7.616C40.127 8.56667 40.4107 9.64767 40.4107 10.859C40.4107 12.0703 40.127 13.159 39.5597 14.125C39.0077 15.0757 38.2334 15.8193 37.2367 16.356C36.24 16.8927 35.113 17.161 33.8557 17.161ZM33.8557 14.7C34.9137 14.7 35.7877 14.3473 36.4777 13.642C37.1677 12.9367 37.5127 12.009 37.5127 10.859C37.5127 9.709 37.1677 8.78133 36.4777 8.076C35.7877 7.37067 34.9137 7.018 33.8557 7.018C32.7977 7.018 31.9237 7.37067 31.2337 8.076C30.559 8.78133 30.2217 9.709 30.2217 10.859C30.2217 12.009 30.559 12.9367 31.2337 13.642C31.9237 14.3473 32.7977 14.7 33.8557 14.7ZM55.1889 15.942V17H44.0799V0.899999H54.8439V1.958H45.2529V8.306H53.8319V9.341H45.2529V15.942H55.1889ZM62.9435 4.902C64.4309 4.902 65.5732 5.28533 66.3705 6.052C67.1679 6.80333 67.5665 7.915 67.5665 9.387V17H66.4625V14.861C66.0792 15.5663 65.5195 16.1183 64.7835 16.517C64.0475 16.9003 63.1659 17.092 62.1385 17.092C60.8045 17.092 59.7465 16.7777 58.9645 16.149C58.1979 15.5203 57.8145 14.6923 57.8145 13.665C57.8145 12.6683 58.1672 11.8633 58.8725 11.25C59.5932 10.6213 60.7355 10.307 62.2995 10.307H66.4165V9.341C66.4165 8.22167 66.1099 7.37067 65.4965 6.788C64.8985 6.20533 64.0169 5.914 62.8515 5.914C62.0542 5.914 61.2875 6.052 60.5515 6.328C59.8309 6.604 59.2175 6.972 58.7115 7.432L58.1365 6.604C58.7345 6.06733 59.4552 5.65333 60.2985 5.362C61.1419 5.05533 62.0235 4.902 62.9435 4.902ZM62.2995 16.149C63.2962 16.149 64.1395 15.919 64.8295 15.459C65.5349 14.999 66.0639 14.332 66.4165 13.458V11.204H62.3225C61.1419 11.204 60.2832 11.4187 59.7465 11.848C59.2252 12.2773 58.9645 12.8677 58.9645 13.619C58.9645 14.401 59.2559 15.022 59.8385 15.482C60.4212 15.9267 61.2415 16.149 62.2995 16.149ZM78.2617 16.241C77.9704 16.517 77.6024 16.7317 77.1577 16.885C76.7284 17.023 76.276 17.092 75.8007 17.092C74.758 17.092 73.953 16.8083 73.3857 16.241C72.8184 15.6583 72.5347 14.8533 72.5347 13.826V5.983H70.3267V4.994H72.5347V2.372H73.6847V4.994H77.5027V5.983H73.6847V13.711C73.6847 14.493 73.8687 15.091 74.2367 15.505C74.62 15.9037 75.1797 16.103 75.9157 16.103C76.667 16.103 77.288 15.8807 77.7787 15.436L78.2617 16.241Z" fill="white"/>
</svg>
