<svg width="118" height="28" fill="none" xmlns="http://www.w3.org/2000/svg"><path d="M100.474 12.065L90.255 3.379h26.059l-13.796 21.46-2.044-12.774z" stroke="#000" stroke-width="2" stroke-linecap="round" stroke-linejoin="round"/><path d="M100.985 12.065l14.818-8.686" stroke="#000" stroke-width="2"/><path d="M71 26.485l-2.16-6.078a12.656 12.656 0 0 0 1.597-6.63c-.219-6.486-5.356-11.734-11.56-11.811-6.732-.083-12.178 5.777-11.838 12.878.297 6.238 5.145 11.302 11.105 11.61a11.256 11.256 0 0 0 6.254-1.513l6.165 2.023c.28.094.54-.193.438-.48z" stroke="#000" stroke-width="2" stroke-miterlimit="10"/><path d="M25.633 5.367c-4.272-5.465-10.959.628-11.585 1.22v-.055S6.9-.472 2.415 5.268c-3.085 3.947-.498 9.061 2.49 12.73 3.893 4.773 8.59 8.455 9.096 8.845v.138s5.024-3.828 9.14-8.881c2.99-3.671 5.574-8.785 2.492-12.733z" stroke="#000" stroke-width="2" stroke-miterlimit="10" stroke-linecap="round" stroke-linejoin="round"/></svg>