<svg width="43" height="43" viewBox="0 0 43 43" fill="none" xmlns="http://www.w3.org/2000/svg">
<circle cx="21.5" cy="21.5" r="18" stroke="#FF4F32"/>
<circle cx="21.5" cy="21.5" r="20.5" stroke="#FF4F32" stroke-width="2"/>
<g clip-path="url(#clip0)">
<path d="M31.9114 16.7684C31.1019 16.0632 30.0166 15.7626 28.9596 15.9507C28.9526 15.9507 28.9458 15.9541 28.9385 15.9552C28.6763 15.3718 28.2149 14.9007 27.637 14.6265V9.76673C27.637 9.34327 27.2937 9 26.8702 9H26.1035C25.68 9 25.3368 9.34327 25.3368 9.76673V14.6266C24.7602 14.9014 24.3 15.3724 24.0387 15.9553C24.0314 15.9553 24.0245 15.9519 24.0176 15.9507C22.9606 15.7622 21.8751 16.0629 21.0658 16.7685C20.1369 17.6118 19.8057 18.9885 20.069 20.5342C19.402 19.9 18.514 19.5509 17.5936 19.5612C16.5331 19.6238 15.5593 20.1675 14.9496 21.0375C14.3705 21.8617 14.1438 22.8827 14.3198 23.8744C13.3291 23.6985 12.3092 23.9244 11.4856 24.5024C10.6151 25.1111 10.0704 26.0842 10.0066 27.1445C9.92226 29.0506 11.6976 30.8696 14.4129 31.6681C15.2158 31.9048 16.0503 32.0161 16.8871 31.9982C18.4573 31.9654 20.0189 31.7584 21.5434 31.381C21.6836 31.3473 21.7931 31.2379 21.8267 31.0977C22.1863 29.5995 22.6766 26.9712 22.33 24.8785C23.5214 26.0465 24.8507 27.0649 26.2886 27.9112C26.4105 27.9848 26.5631 27.9848 26.685 27.9112C28.2119 26.9881 30.9337 25.133 31.988 23.0878C33.3628 20.5958 33.3299 18.0565 31.9114 16.7684ZM26.1036 9.76673H26.8703V14.7504C26.8703 14.9621 26.6987 15.1337 26.4869 15.1337C26.2752 15.1337 26.1036 14.9621 26.1036 14.7504V9.76673H26.1036ZM25.5323 15.391C25.746 15.7089 26.1039 15.8996 26.4869 15.8996C26.8699 15.8996 27.2278 15.7089 27.4415 15.391C27.7586 15.5741 28.0169 15.844 28.186 16.1688C27.5055 16.4487 26.9169 16.9135 26.4869 17.5106C26.0569 16.9135 25.4683 16.4487 24.7878 16.1688C24.9569 15.844 25.2152 15.5741 25.5323 15.391ZM21.1348 30.689H21.1356C19.6918 31.0205 16.6296 31.5837 14.6407 30.9355C12.2593 30.2354 10.7051 28.7254 10.7734 27.1785C10.8319 26.3555 11.2574 25.6024 11.9322 25.1276C12.4363 24.7712 13.0401 24.5833 13.6574 24.5908C14.017 24.5929 14.3745 24.6467 14.7189 24.7507C14.8535 24.7904 14.9991 24.7533 15.0984 24.6541C15.1977 24.5548 15.2347 24.4092 15.195 24.2745C14.8779 23.3366 15.0184 22.3043 15.5745 21.4852C16.0494 20.8114 16.8018 20.3867 17.624 20.3282C19.1708 20.2669 20.682 21.8171 21.3851 24.2062C22.0284 26.1791 21.4649 29.2444 21.1348 30.689ZM31.3107 22.727C30.3561 24.5813 27.7562 26.3497 26.4869 27.1329C25.2172 26.3486 22.6169 24.5797 21.6566 22.7166C20.4574 20.5434 20.426 18.3812 21.5799 17.3365C22.0885 16.8972 22.7403 16.6591 23.4123 16.6672C23.5727 16.6668 23.7329 16.6796 23.8911 16.7055C24.8687 16.8893 25.7049 17.518 26.153 18.4061C26.2265 18.5203 26.353 18.5893 26.4888 18.5893C26.6246 18.5893 26.7511 18.5203 26.8246 18.4061C27.2726 17.518 28.1088 16.8893 29.0864 16.7055C29.9111 16.5624 30.7567 16.7937 31.3939 17.3365C32.547 18.3812 32.5156 20.5433 31.3107 22.727Z" fill="#FF4F32"/>
<path d="M24.3555 17.6519C24.0598 17.5085 23.7354 17.4339 23.4067 17.4338C22.9265 17.4273 22.4601 17.5945 22.0933 17.9045C21.3814 18.5493 21.151 20.2147 22.3256 22.3434L22.3433 22.3757C22.5487 22.7569 22.7985 23.1126 23.0874 23.4353C23.2278 23.5875 23.4638 23.6005 23.6203 23.4648C23.7767 23.3291 23.7971 23.0936 23.6662 22.9331C23.4163 22.6547 23.2002 22.3478 23.0222 22.0188L22.9992 21.9762C22.0201 20.2024 22.1811 18.8595 22.6081 18.4727C22.8339 18.2907 23.1167 18.1943 23.4067 18.2005C23.6192 18.2007 23.8289 18.2491 24.02 18.342C24.1433 18.4019 24.2892 18.3915 24.4027 18.3147C24.5162 18.2379 24.5802 18.1064 24.5704 17.9697C24.5607 17.833 24.4788 17.7118 24.3555 17.6519Z" fill="#FF4F32"/>
<path d="M30.1362 22.4942C29.9668 22.3671 29.7265 22.4015 29.5995 22.5709C28.6546 23.7039 27.5323 24.6762 26.2761 25.4499C26.1342 25.5427 26.0701 25.7178 26.1185 25.8804C26.167 26.0429 26.3166 26.1543 26.4862 26.1541C26.561 26.154 26.6342 26.132 26.6967 26.0909C28.0272 25.2687 29.2148 24.2351 30.2129 23.0309C30.3399 22.8615 30.3055 22.6212 30.1362 22.4942Z" fill="#FF4F32"/>
<path d="M16.2049 29.6795V29.6815C15.8315 29.6612 15.4618 29.5968 15.1035 29.4898L15.0571 29.476C13.11 28.9147 12.2747 27.8513 12.3019 27.2759C12.333 26.9875 12.4654 26.7196 12.6753 26.5195C12.8253 26.37 13.0072 26.2564 13.2074 26.1872C13.4078 26.1182 13.5143 25.8997 13.4453 25.6993C13.3763 25.4989 13.1578 25.3924 12.9574 25.4614C12.6474 25.5688 12.3657 25.7448 12.1332 25.9763C11.7889 26.3114 11.5772 26.7596 11.5371 27.2383C11.4895 28.1967 12.5043 29.5385 14.8401 30.212L14.8761 30.2228C15.2907 30.3472 15.7186 30.4222 16.1508 30.4463H16.178C16.3897 30.4537 16.5674 30.2881 16.5748 30.0763C16.5822 29.8646 16.4166 29.687 16.2049 29.6795Z" fill="#FF4F32"/>
<path d="M20.4675 24.7969C20.258 24.8272 20.1127 25.0214 20.1428 25.2309C20.2755 26.7002 20.1693 28.1812 19.8284 29.6165C19.7856 29.8239 19.9189 30.0268 20.1263 30.0696C20.3336 30.1125 20.5365 29.9792 20.5794 29.7718C20.9385 28.2494 21.0472 26.6786 20.9014 25.1212C20.871 24.9119 20.6768 24.7668 20.4675 24.7969Z" fill="#FF4F32"/>
</g>
<defs>
<clipPath id="clip0">
<rect width="23" height="23" fill="white" transform="translate(10 9)"/>
</clipPath>
</defs>
</svg>
