<svg width="480" height="58" viewBox="0 0 480 58" fill="none" xmlns="http://www.w3.org/2000/svg">
<mask id="mask0" mask-type="alpha" maskUnits="userSpaceOnUse" x="0" y="0" width="480" height="58">
<rect x="480" y="58" width="480" height="58" transform="rotate(-180 480 58)" fill="#EEF5FF"/>
</mask>
<g mask="url(#mask0)">
<ellipse cx="240" cy="64.5" rx="274" ry="63.5" transform="rotate(-180 240 64.5)" fill="#FFF0D8"/>
<path d="M-5.99999 75.5C-5.99999 71.8409 -4.41158 68.1906 -1.23077 64.5719C1.95569 60.9469 6.7006 57.4025 12.8927 53.9945C25.2761 47.1788 43.2613 41.009 65.5714 35.8153C110.176 25.4318 171.846 19 240 19C308.154 19 369.824 25.4318 414.429 35.8153C436.739 41.009 454.724 47.1789 467.107 53.9945C473.299 57.4025 478.044 60.947 481.231 64.572C484.412 68.1906 486 71.841 486 75.5C486 79.1591 484.412 82.8095 481.231 86.4281C478.044 90.0531 473.299 93.5975 467.107 97.0055C454.724 103.821 436.739 109.991 414.429 115.185C369.824 125.568 308.154 132 240 132C171.846 132 110.176 125.568 65.5714 115.185C43.2613 109.991 25.2761 103.821 12.8927 97.0055C6.7006 93.5975 1.95569 90.053 -1.23077 86.428C-4.41159 82.8094 -6 79.159 -5.99999 75.5Z" stroke="white" stroke-width="2"/>
</g>
</svg>
