<svg width="22" height="22" viewBox="0 0 22 22" fill="none" xmlns="http://www.w3.org/2000/svg">
<g clip-path="url(#clip0)">
<path d="M2.22748 14.3642L14.7748 1.80767C14.9041 1.67751 15.0791 1.60417 15.2616 1.60417H15.2625C15.4449 1.60417 15.62 1.67659 15.7483 1.80584L20.1941 6.25167C20.3234 6.38092 20.3958 6.556 20.3958 6.7375C20.3958 6.91992 20.3234 7.095 20.1941 7.22425L7.63581 19.7734L2.22748 14.3642Z" fill="white"/>
<path d="M20.6873 5.44775L21.1392 4.99583C21.6938 4.44033 22 3.70792 22 2.93334C22 2.14134 21.692 1.40434 21.1411 0.863502C20.0392 -0.249331 18.1023 -0.248414 17.0032 0.861669L16.5513 1.31359L20.6873 5.44775Z" fill="white"/>
<path d="M1.85533 15.2882L0.0311653 21.1072C-0.044918 21.351 0.0201653 21.6177 0.201665 21.7983C0.331832 21.9294 0.507832 22 0.687499 22C0.756249 22 0.824999 21.9899 0.893749 21.9688L6.71183 20.1447L1.85533 15.2882Z" fill="white"/>
<path d="M6.38918 8.05566C6.56518 8.05566 6.74118 7.98874 6.87501 7.85399L11.3135 3.41549C11.5509 3.17899 11.8681 3.08549 12.1788 3.10841L13.2642 2.02216C12.3255 1.51983 11.132 1.65274 10.3409 2.44291L5.90243 6.88141C5.63384 7.14999 5.63384 7.58541 5.90243 7.85399C6.03718 7.98783 6.21226 8.05566 6.38918 8.05566Z" fill="white"/>
</g>
<defs>
<clipPath id="clip0">
<rect width="22" height="22" fill="white"/>
</clipPath>
</defs>
</svg>
