<svg width="43" height="43" viewBox="0 0 43 43" fill="none" xmlns="http://www.w3.org/2000/svg">
<circle cx="21.5" cy="21.5" r="18" stroke="#FF4F32"/>
<circle cx="21.5" cy="21.5" r="20.5" stroke="#FF4F32" stroke-width="2"/>
<g clip-path="url(#clip0)">
<path d="M21.9266 31.5145C21.1602 31.5145 20.3943 31.36 19.6849 31.0515L16.2931 29.577C15.0659 29.0433 13.7685 28.7052 12.4368 28.5721L11.3229 28.4607C11.1395 28.4424 11 28.2882 11 28.104V24.6099C11 24.5324 11.0252 24.4569 11.0718 24.395C11.1551 24.2836 13.1514 21.6755 16.2009 22.3541C17.9161 22.7352 19.297 23.4485 20.1535 23.9798C20.7752 24.3654 21.5041 24.5691 22.2612 24.5691H25.6531C26.2377 24.5691 26.7516 24.8785 27.039 25.3425L29.9603 21.9768C30.5266 21.2205 31.4532 20.7573 32.4233 20.7573H32.6416C32.7628 20.7573 32.8756 20.8185 32.9417 20.9198C33.0079 21.0211 33.0184 21.1493 32.9698 21.2601L30.3277 27.2648C29.75 28.578 28.5738 29.5701 27.1815 29.9182L26.7167 30.0343L24.0126 31.1159C23.3472 31.382 22.6368 31.5145 21.9266 31.5145ZM11.7171 27.7794L12.5081 27.8586C13.9139 27.9991 15.2836 28.3563 16.5792 28.9196L19.9709 30.3941C21.1635 30.9127 22.5389 30.933 23.7466 30.4499L26.4728 29.3594C26.488 29.3534 26.5034 29.3485 26.5191 29.3446L27.0076 29.2224C28.1865 28.9276 29.1824 28.0878 29.6712 26.9759L32.0811 21.4991C31.4641 21.59 30.8963 21.9225 30.518 22.4267L27.2818 26.1564C27.2822 26.1704 27.2824 26.1841 27.2824 26.1983C27.2824 27.0966 26.5516 27.8274 25.6533 27.8274H20.9209C20.3057 27.8274 19.6976 27.9261 19.114 28.1206L18.9823 27.7862L18.871 27.4455L18.8892 27.4395C19.5442 27.2213 20.2283 27.1103 20.9209 27.1103H25.6533C26.1561 27.1103 26.5655 26.7011 26.5655 26.1981C26.5655 25.6951 26.1563 25.2858 25.6533 25.2858H22.2614C21.3705 25.2858 20.511 25.0448 19.7758 24.5888C18.9668 24.0868 17.6625 23.4134 16.0459 23.0538C13.7365 22.5416 12.0747 24.3139 11.7174 24.7367V27.7794H11.7171Z" fill="#FF4F32"/>
<path d="M25.1193 20.6763C24.5679 20.6763 23.9496 20.5061 23.269 20.1658C23.1866 20.1243 23.123 20.0525 23.0918 19.9657C23.0641 19.888 22.4235 18.0453 23.4415 16.6826C24.1814 15.692 25.5727 15.2458 27.5789 15.3576C27.7618 15.3677 27.9077 15.5144 27.9167 15.6977C27.9239 15.8401 28.0718 19.2004 26.3583 20.3192C25.994 20.5573 25.58 20.6763 25.1193 20.6763ZM23.7263 19.5904C24.668 20.032 25.4209 20.0753 25.9665 19.719C26.9825 19.0554 27.2022 17.0855 27.2076 16.0602C25.6356 16.0219 24.5655 16.3761 24.0159 17.1115C23.3619 17.9872 23.6161 19.1918 23.7263 19.5904Z" fill="#FF4F32"/>
<path d="M19.6365 15.9794C19.0008 15.9794 18.2675 15.8432 17.6274 15.3745C16.5419 14.579 16.043 13.0645 16.1443 10.8733C16.1529 10.6901 16.2982 10.5428 16.4814 10.5319C16.6364 10.5231 20.3071 10.3272 21.5422 12.1812C22.1174 13.0442 22.0702 14.1745 21.4025 15.5413C21.3619 15.6244 21.2909 15.6886 21.2041 15.7204C21.1559 15.7382 20.4829 15.9794 19.6365 15.9794ZM21.0804 15.3839H21.0839H21.0804ZM16.85 11.2374C16.819 12.9925 17.2225 14.1888 18.051 14.796C19.0431 15.5228 20.3976 15.2139 20.8234 15.0898C21.3106 14.0325 21.3518 13.1884 20.9457 12.5787C20.1908 11.4456 17.977 11.224 16.85 11.2374Z" fill="#FF4F32"/>
<path d="M22.4364 25.1601C22.4251 25.1601 22.4138 25.1595 22.4023 25.1585C22.2113 25.1404 22.0684 24.9753 22.078 24.7835C22.0991 24.3617 22.1352 23.9617 22.1843 23.5826C22.3334 21.0456 22.2565 15.1373 18.521 13.5028C18.3397 13.4234 18.2568 13.2121 18.3362 13.0306C18.4154 12.8495 18.6273 12.7668 18.8084 12.846C21.0097 13.8091 22.3945 16.2069 22.8124 19.7801C22.8499 20.1003 22.878 20.416 22.899 20.7235C23.8828 18.2375 25.3878 17.3591 25.4775 17.3088C25.6498 17.2114 25.8685 17.2734 25.9657 17.4455C26.0623 17.6178 26.0016 17.8358 25.8299 17.9331C25.7919 17.9552 23.484 19.3403 22.9047 23.6116C22.8606 24.3423 22.797 24.8081 22.7911 24.8508C22.7662 25.0297 22.6134 25.1601 22.4364 25.1601Z" fill="#FF4F32"/>
</g>
<defs>
<clipPath id="clip0">
<rect width="22" height="22" fill="white" transform="translate(11 10)"/>
</clipPath>
</defs>
</svg>
