<svg width="34" height="34" viewBox="0 0 34 34" fill="none" xmlns="http://www.w3.org/2000/svg">
<g clip-path="url(#clip0)">
<path d="M18.8781 17.0008L33.6108 2.26808C34.1295 1.74939 34.1295 0.908419 33.6108 0.389787C33.0921 -0.128845 32.2511 -0.128912 31.7325 0.389787L16.9997 15.1225L2.26708 0.389787C1.74838 -0.128912 0.907411 -0.128912 0.388779 0.389787C-0.129852 0.908485 -0.129919 1.74945 0.388779 2.26808L15.1214 17.0007L0.388779 31.7335C-0.129919 32.2522 -0.129919 33.0931 0.388779 33.6118C0.648095 33.8711 0.988028 34.0007 1.32796 34.0007C1.66789 34.0007 2.00776 33.8711 2.26714 33.6118L16.9997 18.8791L31.7324 33.6118C31.9917 33.8711 32.3316 34.0007 32.6716 34.0007C33.0115 34.0007 33.3514 33.8711 33.6108 33.6118C34.1295 33.0931 34.1295 32.2521 33.6108 31.7335L18.8781 17.0008Z" fill="white"/>
</g>
<defs>
<clipPath id="clip0">
<rect width="34" height="34" fill="white"/>
</clipPath>
</defs>
</svg>
