<svg width="26" height="26" viewBox="0 0 26 26" fill="none" xmlns="http://www.w3.org/2000/svg">
<g clip-path="url(#clip0)">
<path d="M17.2348 13.1332L26.0001 18.6744V7.35791L17.2348 13.1332Z" fill="#B5ECFF"/>
<path d="M0 7.35791V18.6744L8.76525 13.1332L0 7.35791Z" fill="#B5ECFF"/>
<path d="M24.375 4.0625H1.62496C0.814081 4.0625 0.170581 4.667 0.0487061 5.44538L13 13.9783L25.9512 5.44538C25.8293 4.667 25.1858 4.0625 24.375 4.0625Z" fill="#B5ECFF"/>
<path d="M15.7463 14.1149L13.4469 15.6294C13.3104 15.7188 13.156 15.7627 13 15.7627C12.844 15.7627 12.6896 15.7188 12.5531 15.6294L10.2538 14.1133L0.052002 20.5662C0.177127 21.338 0.817377 21.9377 1.625 21.9377H24.375C25.1826 21.9377 25.8229 21.338 25.948 20.5662L15.7463 14.1149Z" fill="#B5ECFF"/>
</g>
<defs>
<clipPath id="clip0">
<rect width="26" height="26" fill="white"/>
</clipPath>
</defs>
</svg>
