<svg width="40" height="40" viewBox="0 0 40 40" fill="none" xmlns="http://www.w3.org/2000/svg">
<circle cx="20" cy="20" r="20" fill="url(#paint0_linear)"/>
<g clip-path="url(#clip0)">
<path d="M14.6204 20.0884L21.5584 13.1696C21.7857 12.9431 22.1537 12.9435 22.3806 13.1708C22.6074 13.3981 22.6068 13.7663 22.3795 13.9931L15.8545 20.5L22.3797 27.007C22.607 27.2337 22.6076 27.6017 22.3809 27.8291C22.2671 27.943 22.1181 28 21.969 28C21.8204 28 21.6719 27.9434 21.5584 27.8302L14.6204 20.9116C14.5109 20.8027 14.4495 20.6545 14.4495 20.5C14.4495 20.3456 14.5111 20.1975 14.6204 20.0884Z" fill="white"/>
</g>
<defs>
<linearGradient id="paint0_linear" x1="20" y1="0" x2="20" y2="40" gradientUnits="userSpaceOnUse">
<stop stop-color="#9EFCFF"/>
<stop offset="1" stop-color="#1DBBFF"/>
</linearGradient>
<clipPath id="clip0">
<rect width="15" height="15" transform="matrix(-1 0 0 1 26 13)" fill="white"/>
</clipPath>
</defs>
</svg>
