<svg width="70" height="70" viewBox="0 0 70 70" fill="none" xmlns="http://www.w3.org/2000/svg">
<circle cx="35" cy="35" r="35" fill="url(#paint0_linear)"/>
<path d="M48.8281 33.8281H21.1719C20.5246 33.8281 20 34.3528 20 35C20 35.6472 20.5246 36.1719 21.1719 36.1719H48.8281C49.4754 36.1719 50 35.6472 50 35C50 34.3528 49.4754 33.8281 48.8281 33.8281Z" fill="white"/>
<path d="M48.8281 24.4531H21.1719C20.5246 24.4531 20 24.9778 20 25.625C20 26.2722 20.5246 26.7969 21.1719 26.7969H48.8281C49.4754 26.7969 50 26.2722 50 25.625C50 24.9778 49.4754 24.4531 48.8281 24.4531Z" fill="white"/>
<path d="M48.8281 43.2031H21.1719C20.5246 43.2031 20 43.7278 20 44.375C20 45.0222 20.5246 45.5469 21.1719 45.5469H48.8281C49.4754 45.5469 50 45.0222 50 44.375C50 43.7278 49.4754 43.2031 48.8281 43.2031Z" fill="white"/>
<defs>
<linearGradient id="paint0_linear" x1="35" y1="0" x2="35" y2="70" gradientUnits="userSpaceOnUse">
<stop stop-color="#9EFCFF"/>
<stop offset="1" stop-color="#1DBBFF"/>
</linearGradient>
</defs>
</svg>
