<svg width="90" height="121" viewBox="0 0 90 121" fill="none" xmlns="http://www.w3.org/2000/svg">
<g opacity="0.8">
<path d="M2.8106 4.93524C18.6577 16.9413 37.272 29.8664 58.2352 25.1795C77.6228 20.9742 91.2015 5.39892 107.244 -5.13576C112.925 -6.90985 118.54 -8.95015 124.001 -11.2348C121.306 -7.65426 118.654 -3.89619 116.091 -0.159953C107.371 8.38514 97.7668 16.0182 87.5244 22.5849C86.058 23.5104 84.5917 24.4358 83.1254 25.3612C60.4375 23.0377 41.1428 37.9488 25.1315 52.0521C24.7533 52.4275 24.9702 53.6917 25.5463 53.7382C37.403 54.115 50.1484 53.8967 61.0952 48.6625C66.9795 45.8031 71.806 41.3218 76.3008 36.6397C81.2407 31.4716 86.2679 26.6585 91.6937 21.9356C91.6937 21.9356 91.6938 21.9356 91.7607 21.825C98.893 17.1528 105.628 12.0136 111.855 6.34062C109.47 10.0332 107.173 13.7039 105.009 17.5303C88.5435 28.6397 72.4969 40.3048 65.7738 60.0283C60.1035 76.7636 61.0324 95.0751 67.6872 111.413C67.7308 111.591 68.128 112.058 68.3506 111.815C68.9514 111.196 69.5521 110.578 70.1529 109.959C70.4642 109.695 70.3346 108.785 70.0261 108.297C80.7271 91.7354 100.462 83.5861 110.478 66.5346C114.738 59.3692 116.119 51.5946 115.13 43.3678C114.056 34.4093 111.052 25.643 111.441 16.5126C111.397 16.3352 111.442 16.1358 111.355 15.7809C127.136 -8.05357 138.109 -20.0701 138.621 -20.6666C139.912 -22.302 138.006 -28.1384 135.958 -25.7523C132.73 -22.0407 129.613 -18.2622 126.517 -14.395C119.191 -11.275 111.756 -8.59873 104.234 -6.27742C87.1927 -13.1901 68.9982 -19.8189 50.3275 -17.6722C41.9014 -16.7285 34.2219 -13.898 27.024 -9.49202C19.16 -4.73388 11.8241 1.02365 2.72891 3.07311C2.0859 3.13719 2.45705 4.64578 2.8106 4.93524ZM80.9041 26.6606C78.9271 27.8058 76.9502 28.951 74.8627 30.0292C70.8912 31.1004 67.0606 30.0665 63.1166 29.7193C68.7537 27.7677 74.6979 26.6817 80.9041 26.6606ZM61.1192 30.3989C65.04 31.0342 69.3812 31.8484 73.2858 30.8877C71.8645 31.6139 70.3545 32.3618 68.9333 33.0879C66.9127 34.0556 64.8702 34.9346 62.7172 35.7466C57.7724 36.3044 52.7213 35.6649 47.9962 36.7333C52.1945 34.2887 56.547 32.0885 61.1192 30.3989ZM46.6186 37.6369C51.3218 36.4797 56.2842 37.1411 61.0966 36.4276C60.0754 36.8671 58.9436 37.2397 57.9224 37.6791C53.3777 37.9503 48.7878 38.4207 44.2635 39.1574C44.9748 38.6059 45.7967 38.1214 46.6186 37.6369ZM27.5479 51.9282C30.5721 49.3019 33.6181 46.7644 36.8853 44.3606C38.97 44.036 41.097 44.2656 43.1366 44.1402C41.0054 45.041 38.9179 46.1193 36.9191 47.1757C33.8991 48.6716 30.658 50.0337 27.9465 52.0184C27.7472 51.9733 27.6584 51.9951 27.5479 51.9282ZM28.412 51.9979C31.0306 51.1655 33.4294 49.8224 35.8719 48.6568C37.9812 47.6673 40.1124 46.7665 42.1781 45.5995C40.3307 47.6539 38.7045 49.8421 37.0565 51.9416C34.1527 51.9972 31.2271 51.9641 28.412 51.9979ZM37.8988 51.9226C37.6995 51.8775 37.4332 51.943 37.2339 51.8979C38.7918 50.1971 40.4385 48.4744 42.0632 46.663C40.7483 48.5864 39.6327 50.5549 37.8988 51.9226ZM39.406 51.9282C41.9851 49.7879 43.7289 45.7826 45.9312 43.6409C45.9312 43.6409 45.9312 43.6409 45.9981 43.5303L46.0868 43.5085C46.1756 43.4867 46.1538 43.3979 46.065 43.4198C46.065 43.4198 46.065 43.4198 45.9763 43.4416C46.0214 43.2423 45.8671 42.9979 45.6896 43.0416C45.4452 43.1958 45.2896 43.3282 45.0452 43.4824C44.9565 43.5043 44.8677 43.5261 44.779 43.5479C44.8677 43.5261 44.8459 43.4374 44.9346 43.4155C45.0015 43.305 44.9142 42.95 44.8255 42.9718C44.5811 43.1261 44.4473 43.3472 44.2029 43.5014C42.0527 43.5599 39.8152 43.2634 37.6636 43.6986C39.6419 42.1767 41.6639 40.8322 43.6641 39.399C48.2321 38.8398 52.8001 38.2806 57.39 37.8101C54.2157 39.0616 51.0415 40.3132 48.0215 41.8091C47.9328 41.8309 47.9765 42.0084 48.0652 41.9865C52.3233 41.3154 56.5406 39.7131 60.736 38.0221C56.599 41.8633 53.8312 47.0616 49.473 50.769C46.1678 51.4881 42.8422 51.7416 39.406 51.9282ZM51.2028 50.5317C50.6703 50.6627 50.2048 50.6831 49.6724 50.8141C54.4073 47.1081 57.309 41.6886 61.7573 37.5827C62.0235 37.5172 62.1791 37.3848 62.4454 37.3193C58.1527 41.2928 56.3117 47.5807 51.2028 50.5317ZM60.7677 47.3314C58.2365 48.5188 55.7285 49.4182 53.0663 50.0732C57.4885 47.0088 59.4416 40.4111 63.5335 36.7692C65.221 35.9776 66.9084 35.186 68.6177 34.4831C69.9721 33.8676 71.2377 33.2739 72.5702 32.5696C68.7621 37.3651 66.5675 43.3635 61.434 46.9793C61.2783 47.1117 61.0339 47.2659 60.7677 47.3314ZM72.4575 38.9969C73.5499 37.3165 74.5316 35.5691 75.2704 33.5993L75.2268 33.4218C74.3323 35.5241 73.2167 37.4925 71.9018 39.416C69.0551 41.9986 66.0759 44.4255 62.589 46.3186C67.2789 42.812 69.5389 37.0798 72.9702 32.2829C74.3028 31.5787 75.6571 30.9631 76.9896 30.2588C75.7155 33.1133 74.3091 35.8121 72.792 38.444C72.7688 38.7321 72.6131 38.8645 72.4575 38.9969ZM76.8403 34.6247C75.7944 35.729 74.6598 36.8552 73.5921 37.8708C75.1528 35.4163 76.4924 32.8281 77.5221 30.1278C79.6096 29.0496 81.6752 27.8826 83.7409 26.7156C83.8297 26.6937 83.8297 26.6937 83.9402 26.7606C84.029 26.7388 84.0959 26.6282 84.1628 26.5177C84.896 26.055 85.5622 25.7028 86.2066 25.2619C82.7605 28.0861 79.7772 31.6435 76.8403 34.6247ZM71.1904 51.8255C74.5971 47.6934 78.5756 44.7383 83.9029 42.6747C86.5665 41.6429 90.0041 41.0795 92.8685 39.716C92.6008 40.1583 92.355 40.6894 92.198 41.1986C84.0994 43.4734 76.3937 47.3455 70.4094 53.2411C70.677 52.7988 70.9228 52.2678 71.1904 51.8255ZM67.6838 58.9937C68.3775 57.2231 69.1149 55.63 70.0298 53.9933C76.7867 48.9429 83.7183 44.6024 91.7514 42.0613C89.4287 46.7737 87.2834 51.4424 85.16 56.1999C79.2454 61.2313 68.0479 62.3863 64.6532 69.2446C65.3089 65.7894 66.3414 62.3356 67.6838 58.9937ZM65.1278 84.5622C64.4151 85.4904 63.8348 86.5743 63.4319 87.6145C63.1185 82.5155 63.2925 77.4848 64.0426 72.5005C67.2887 63.8906 77.7748 63.2871 84.3775 57.9923C82.8344 61.6658 81.2913 65.3394 79.8369 68.9911C79.2101 70.6511 78.4946 72.333 77.8677 73.993C73.9519 77.9679 68.469 80.1639 65.1278 84.5622ZM68.0492 109.442C65.7891 103.316 64.2172 96.9266 63.5763 90.4965C64.7771 83.5191 72.0989 81.5295 76.7712 76.8038C73.3011 86.0334 70.074 95.4857 67.9104 105.053C67.9323 105.141 67.9759 105.319 68.0428 105.208C70.998 97.3288 73.6652 89.426 76.6423 81.6352C76.4014 86.7765 77.7113 92.1009 76.2513 97.2598C73.0905 100.861 70.3719 104.729 68.3605 109.177C68.2936 109.288 68.2048 109.309 68.0492 109.442ZM77.0528 96.3097C78.6248 90.8409 77.4296 84.453 77.717 78.7356C78.6565 76.434 79.5961 74.1324 80.5356 71.8308C81.7209 68.9982 82.995 66.1437 84.2909 63.378C84.6824 65.3521 85.5614 67.3945 86.5305 69.0383C88.2039 72.0146 90.2104 74.8149 90.5963 78.2962C90.7872 80.602 90.3132 82.8832 89.3969 84.8968C85.0387 88.6041 80.8363 92.1791 77.0528 96.3097ZM90.0864 84.2566C90.8689 82.4642 91.209 80.4041 91.0618 78.2758C90.5752 72.09 85.6269 67.6607 85.1621 61.5637C88.3574 54.6603 91.8409 47.7801 95.5891 41.2112C95.2623 45.6208 96.1096 50.212 97.4019 54.3173C99.5922 61.3074 102.959 67.7256 100.384 74.853C97.2462 78.1659 93.6663 81.2112 90.0864 84.2566ZM101.006 74.3233C102.528 70.561 101.923 66.1923 100.807 62.4202C99.8669 58.9811 98.3942 55.6731 97.5428 52.2122C97.2153 50.8811 96.9765 49.5282 96.8265 48.1534C97.2209 49.3739 97.6153 50.5945 97.9879 51.7263C100.642 59.0727 104.449 66.5121 101.741 73.4838C101.54 73.8155 101.318 74.0585 101.006 74.3233ZM112.689 38.416C114.601 48.4859 113.548 57.5916 107.664 66.1917C106.349 68.1151 104.902 69.8828 103.433 71.5618C103.955 68.3277 103.414 64.6021 102.892 62.0955C101.976 57.9916 100.217 54.2835 98.8577 50.2888C97.3442 46.0497 96.8927 42.3022 97.3519 38.0483C99.2254 34.9523 101.01 31.878 102.75 29.0032C104.568 40.6021 114.593 50.7466 109.427 63.0287C109.427 63.0287 109.449 63.1174 109.427 63.0287C111.883 58.0952 111.394 52.663 109.928 47.471C107.959 40.6147 104.879 34.5966 103.464 27.6981C105.56 24.3591 107.522 21.2412 109.417 18.2339C109.635 25.2388 111.45 31.8506 112.689 38.416ZM101.953 22.7054C99.4761 27.1734 97.0879 31.6196 94.7214 36.1545C94.4538 36.5968 94.2749 37.0172 94.0291 37.5482C92.0085 38.5159 89.7463 38.8843 87.5497 39.5188C85.0199 40.3295 82.5556 41.4063 80.2237 42.6388C78.2249 43.6952 76.3135 45.1066 74.6013 46.5631C81.7083 36.815 91.5782 29.1165 101.953 22.7054ZM33.5393 20.4325C29.3115 18.9316 25.152 16.9434 21.1263 14.7341C26.0654 15.6834 31.611 14.5073 36.1832 12.8177C40.4005 11.2155 44.3981 9.10264 48.4829 7.34475C51.036 6.24607 53.6764 5.50235 56.2498 4.8692C59.4867 4.6375 62.5912 4.25015 65.7845 3.84097C53.975 8.62868 45.0918 19.1901 31.4152 19.4493C37.8193 19.8501 43.724 17.4562 49.2766 14.3961C53.7411 11.886 58.0514 9.13155 62.4271 6.64332C59.5381 8.67166 56.7146 10.9662 53.9362 13.0615C50.269 15.7518 46.3806 18.3084 42.0091 19.6662C39.1243 20.5642 36.4199 20.6649 33.5393 20.4325ZM37.5024 21.622C42.4908 21.2417 47.5314 18.7781 51.4198 16.2216C58.0633 11.8578 63.7132 6.51515 70.7074 3.19445C73.3464 2.82752 75.9635 2.37186 78.5807 1.91619C80.3773 1.56827 82.174 1.22036 83.9706 0.872448C72.2864 7.69978 63.8166 20.3241 50.4183 23.244C46.0292 23.3828 41.7316 22.7461 37.5024 21.622ZM102.872 -3.77791C88.321 5.1665 75.7501 17.9528 58.8894 22.101C57.3809 22.4722 55.9392 22.7327 54.4757 22.9046C66.1485 19.0916 75.0606 6.73491 85.5898 0.568199C91.4015 -0.673439 97.1697 -2.09256 102.872 -3.77791ZM100.862 -5.44778C97.9549 -4.63856 95.0483 -3.82935 92.0312 -3.08703C86.6117 -5.98871 81.3521 -10.1532 75.6664 -12.9894C84.2368 -11.0511 92.6488 -8.22692 100.862 -5.44778ZM49.7852 -14.9037C57.1246 -15.6742 64.4147 -15.1149 71.6132 -13.7803C78.3187 -11.0068 84.0847 -5.93167 90.7219 -2.6708C87.7047 -1.92849 84.7545 -1.29676 81.7155 -0.643185C75.1832 -2.32997 69.4771 -5.6317 63.5716 -8.97849C59.303 -11.4104 54.6575 -13.8437 49.6965 -14.8819C49.6965 -14.8819 49.6965 -14.8819 49.7852 -14.9037ZM47.4125 -14.6023C53.9243 -13.381 59.6319 -10.4561 65.4704 -6.99872C69.982 -4.34425 74.693 -1.6447 79.8083 -0.362177C79.2758 -0.23118 78.7215 -0.188923 78.1891 -0.0579262C78.0116 -0.0142617 77.8341 0.0294029 77.6567 0.0730692C74.4676 -0.648134 71.4343 -1.50174 68.4037 -3.10893C64.5323 -5.0739 60.8848 -7.65866 57.1471 -9.84478C53.4313 -11.9422 49.426 -13.686 45.239 -14.2558C45.9708 -14.3417 46.6807 -14.5163 47.4125 -14.6023ZM43.0205 -13.7099C49.0478 -13.3106 54.6885 -10.2751 59.8854 -7.13045C64.3083 -4.45414 69.3263 -0.889018 74.574 0.549156C68.7854 1.50274 62.9314 2.19011 57.1443 2.76691C48.945 2.33727 42.3775 -1.78778 34.6071 -4.29929C31.5301 -5.33037 28.2072 -5.83042 25.0591 -5.62055C30.8357 -9.30044 36.6531 -12.0493 43.0205 -13.7099ZM24.0597 -5.09234C33.0851 -6.27763 42.5669 0.894868 51.8678 3.12397C50.9367 3.16481 50.0056 3.20565 49.0745 3.2465C44.2255 1.89848 39.6223 0.0194283 34.9304 -1.83779C31.1899 -3.27032 27.4044 -4.50354 23.3934 -4.7402C23.6597 -4.8057 23.8153 -4.9381 24.0597 -5.09234ZM22.6821 -4.18875C31.0589 -3.80277 38.1982 1.49913 46.0151 3.43454C36.4164 3.81975 26.8874 3.3408 17.357 3.23865C17.2682 3.26048 17.2668 3.63728 17.3556 3.61545C27.8769 5.45016 38.8025 5.86783 49.5767 5.28753C45.4031 7.06725 41.3605 9.37941 37.52 10.9831C30.6159 13.9051 23.8075 14.9214 16.9682 12.369C12.877 9.89346 8.83085 7.21857 5.05095 4.47817C11.5072 2.79565 17.1281 -0.751841 22.6821 -4.18875Z" fill="white"/>
<path d="M88.8765 75.8961C89.5533 78.647 89.7646 81.4184 88.9343 84.1637C88.9343 84.1637 88.9561 84.2524 88.9343 84.1637C89.8752 81.4853 89.9752 78.4491 88.9434 75.7855C88.8998 75.608 88.8547 75.8073 88.8765 75.8961Z" fill="white"/>
<path d="M87.4939 72.19C87.6249 72.7225 87.8447 73.2331 88.0426 73.6549C88.0644 73.7437 88.1313 73.6331 88.1095 73.5444C87.9785 73.0119 87.8475 72.4795 87.7165 71.947C87.5623 71.7026 87.4503 72.0125 87.4939 72.19Z" fill="white"/>
<path d="M65.3125 70.7766C68.2261 68.0834 71.4483 65.879 74.957 64.0746C75.0458 64.0528 74.9584 63.6978 74.8915 63.8084C71.1835 65.5677 68.0501 67.7503 65.3125 70.7766C65.2019 70.7097 65.2238 70.7984 65.3125 70.7766Z" fill="white"/>
<path d="M76.378 63.3496C77.488 62.8883 78.5092 62.4488 79.5973 61.8988C79.6861 61.877 79.6206 61.6107 79.5318 61.6326C78.4219 62.0939 77.4443 62.7108 76.378 63.3496C76.3562 63.2609 76.378 63.3496 76.378 63.3496Z" fill="white"/>
<path d="M81.5716 61.5061C82.0153 61.3969 82.3703 61.3096 82.7034 61.1335C82.8809 61.0899 82.728 60.4687 82.5724 60.6011C82.1505 60.799 81.8392 61.0638 81.5279 61.3286C81.4392 61.3504 81.4829 61.5279 81.5716 61.5061Z" fill="white"/>
<path d="M71.3361 54.332C74.3575 52.4593 77.4444 50.8529 80.6201 49.2246C80.7088 49.2027 80.6651 49.0253 80.5764 49.0471C77.2465 50.431 74.2033 52.215 71.3361 54.332Z" fill="white"/>
<path d="M70.234 94.2233C70.234 94.2233 70.3446 94.2902 70.234 94.2233C70.9552 91.0342 71.8976 87.979 72.9286 84.902C72.9955 84.7914 72.8413 84.5471 72.7962 84.7464C71.544 87.6896 70.7341 90.9004 70.234 94.2233Z" fill="white"/>
<path d="M65.758 87.8902C65.758 87.8902 65.7799 87.979 65.758 87.8902C67.5603 86.0352 69.4936 84.7125 71.5607 83.1687C71.6494 83.1469 71.5839 82.8807 71.4952 82.9025C69.1865 83.8469 67.2286 85.8344 65.758 87.8902Z" fill="white"/>
<path d="M75.8872 93.8678C75.752 94.4657 75.7055 95.0418 75.5703 95.6398L75.5921 95.7285C75.7273 95.1306 75.7956 94.6432 75.9309 94.0453C75.9759 93.846 75.9323 93.6685 75.8872 93.8678Z" fill="white"/>
<path d="M89.8589 32.458C90.5251 32.1059 91.2132 31.8425 91.9682 31.4685C92.057 31.4467 91.9246 31.291 91.9464 31.3798C91.2801 31.7319 90.5921 31.9953 89.8371 32.3693L89.8589 32.458Z" fill="white"/>
<path d="M64.5512 43.2012C65.264 42.2729 65.9767 41.3447 66.6007 40.4383L66.5571 40.2608C65.8443 41.189 65.2421 42.1842 64.5512 43.2012Z" fill="white"/>
<path d="M68.3619 37.6526L68.4056 37.8301C68.6063 37.4984 68.874 37.0561 69.0747 36.7243C69.1416 36.6138 69.0092 36.4581 68.9204 36.48C68.7416 36.9004 68.5627 37.3209 68.3619 37.6526Z" fill="white"/>
<path d="M56.1045 19.9629C60.0119 18.2487 63.6559 15.8464 66.6379 12.6658C66.7266 12.644 66.6611 12.3777 66.5724 12.3996C63.3474 15.3576 60.0133 17.8719 56.1045 19.9629Z" fill="white"/>
<path d="M68.0606 11.5632C68.0606 11.5632 68.1043 11.7407 68.0824 11.6519C68.6614 10.9448 69.3727 10.3934 70.1946 9.90881C70.3721 9.86514 70.2629 9.42144 70.0854 9.46511C69.1966 10.0602 68.529 10.7892 68.0606 11.5632Z" fill="white"/>
<path d="M22.111 12.2333C27.8516 12.2326 33.5965 11.1016 38.7491 8.32811C38.8378 8.30628 38.7723 8.04005 38.6836 8.06189C33.2895 10.236 27.9418 11.834 22.111 12.2333C22.0892 12.1446 22.111 12.2333 22.111 12.2333Z" fill="white"/>
<path d="M18.4563 11.5326C18.5448 11.5108 18.722 11.4672 18.8324 11.534C18.9209 11.5122 18.8556 11.2465 18.767 11.2683L18.3909 11.2669C18.3909 11.2669 18.3459 11.4658 18.4563 11.5326Z" fill="white"/>
<path d="M11.8334 4.50408C12.6975 4.5738 13.5617 4.64353 14.4259 4.71325C14.6033 4.66959 14.5611 4.11532 14.2949 4.18082C13.4525 4.19983 12.6102 4.21884 11.7679 4.23785C11.7679 4.23785 11.8116 4.41534 11.8334 4.50408Z" fill="white"/>
<path d="M72.1357 12.4426C76.5157 8.82399 80.9611 5.4716 85.3411 1.85298C85.4298 1.83115 85.3425 1.47619 85.2756 1.58676C80.785 5.13847 76.5157 8.82399 72.1357 12.4426C72.0251 12.3757 72.0469 12.4644 72.1357 12.4426Z" fill="white"/>
</g>
</svg>
