<svg width="48" height="48" viewBox="0 0 48 48" fill="none" xmlns="http://www.w3.org/2000/svg">
<path d="M38.9535 16.5405C36.8275 11.6043 36.1892 6.18499 37.0694 0.937622H10.9306C11.8108 6.18499 11.1724 11.6043 9.04653 16.5405C5.16697 25.5487 4.71632 35.6648 7.77969 44.9822L8.46369 47.0626H21.75V39.7813H26.243V47.0626H39.5363L40.2203 44.9822C43.2837 35.6648 42.8331 25.5487 38.9535 16.5405Z" fill="#FFBF9E"/>
<path d="M6.00018 27.9479C12.2136 29.9293 17.8283 33.9446 21.757 39.7814H26.2429C30.1717 33.9446 35.7864 29.9293 41.9998 27.9479L40.914 24.0001H7.08599L6.00018 27.9479Z" fill="#BA87D8"/>
<path d="M37.994 1.09272C38.0797 0.582157 37.7351 0.0986884 37.2245 0.013001C36.7143 -0.0724051 36.2304 0.271938 36.1447 0.7825C35.2281 6.24718 35.9016 11.8244 38.0924 16.9113C38.9549 18.9139 39.6419 20.9717 40.1566 23.0625H28.2307C27.7129 23.0625 27.2932 23.4823 27.2932 24C27.2932 24.5177 27.7129 24.9375 28.2307 24.9375H40.5693C40.7226 25.7245 40.8527 26.5149 40.9572 27.3083C37.9942 28.3374 35.2216 29.8004 32.7061 31.6658C30.0165 33.6603 27.679 36.074 25.7501 38.8437H22.2497C20.3208 36.0739 17.9832 33.6602 15.2937 31.6658C12.7783 29.8004 10.0057 28.3374 7.04263 27.3083C7.14725 26.515 7.27728 25.7245 7.43056 24.9375H19.793C20.3108 24.9375 20.7305 24.5177 20.7305 24C20.7305 23.4823 20.3108 23.0625 19.793 23.0625H7.84334C8.35803 20.9716 9.04512 18.9138 9.90753 16.9112C12.0984 11.8244 12.7719 6.24709 11.8552 0.7825C11.7695 0.271938 11.2859 -0.0724051 10.7755 0.013001C10.2648 0.0986884 9.92028 0.582063 10.006 1.09272C10.8629 6.20096 10.2333 11.4146 8.18544 16.1698C4.21204 25.3957 3.75163 35.7322 6.88906 45.2749L7.57297 47.3553C7.70272 47.75 8.06947 48.0003 8.46341 48.0003C8.56044 48.0003 8.65916 47.9851 8.75637 47.9531C9.24828 47.7913 9.51594 47.2615 9.35422 46.7697L8.67022 44.6893C7.01778 39.6632 6.41328 34.4066 6.83872 29.2244C12.5403 31.2957 17.3481 35.0218 20.8124 40.0623V47.0625C20.8124 47.5802 21.2321 48 21.7499 48C22.2677 48 22.6874 47.5802 22.6874 47.0625V40.7187H25.3124V47.0625C25.3124 47.5802 25.7321 48 26.2499 48C26.7677 48 27.1874 47.5802 27.1874 47.0625V40.0623C30.6518 35.0218 35.4596 31.2957 41.1611 29.2244C41.5866 34.4066 40.9821 39.6632 39.3296 44.6894L38.6456 46.7697C38.4839 47.2615 38.7516 47.7913 39.2434 47.9531C39.3406 47.9851 39.4393 48.0003 39.5363 48.0003C39.9303 48.0003 40.297 47.75 40.4268 47.3553L41.1108 45.275C44.2482 35.7322 43.7878 25.3957 39.8144 16.1696C37.7666 11.4147 37.137 6.20115 37.994 1.09272Z" fill="black"/>
<path d="M24 19.8517C24.5178 19.8517 24.9375 19.4319 24.9375 18.9142V18.1642C24.9375 17.6465 24.5178 17.2267 24 17.2267C23.4822 17.2267 23.0625 17.6465 23.0625 18.1642V18.9142C23.0625 19.4319 23.4822 19.8517 24 19.8517Z" fill="black"/>
<path d="M47.0625 8.65611H44.2112C44.4093 8.29948 44.3577 7.84132 44.0549 7.5385C43.6888 7.1726 43.0952 7.1725 42.7291 7.5385L41.3369 8.9307C41.1611 9.10648 41.0623 9.34499 41.0623 9.59361C41.0623 9.84224 41.1611 10.0806 41.3369 10.2565L42.7291 11.6488C42.9122 11.8318 43.1521 11.9234 43.392 11.9234C43.6319 11.9234 43.8719 11.8318 44.0549 11.6488C44.3577 11.346 44.4094 10.8877 44.2112 10.5311H47.0625C47.5803 10.5311 48 10.1113 48 9.59361C48 9.07592 47.5803 8.65611 47.0625 8.65611Z" fill="black"/>
<path d="M6.66314 10.2566C6.83892 10.0807 6.93773 9.84227 6.93773 9.59365C6.93773 9.34502 6.83892 9.10652 6.66314 8.93074L5.27094 7.53854C4.90485 7.17254 4.31122 7.17254 3.94512 7.53854C3.64231 7.84135 3.59074 8.29951 3.78884 8.65614H0.937506C0.419722 8.65614 0 9.07596 0 9.59365C0 10.1113 0.419722 10.5312 0.937506 10.5312H3.78884C3.59065 10.8878 3.64231 11.346 3.94512 11.6488C4.12822 11.8318 4.36812 11.9234 4.60803 11.9234C4.84794 11.9234 5.08794 11.8318 5.27094 11.6488L6.66314 10.2566Z" fill="black"/>
<path d="M24.0122 23.0626C23.7656 23.0626 23.5237 23.1628 23.3493 23.3373C23.174 23.5117 23.0747 23.7536 23.0747 24.0001C23.0747 24.2467 23.174 24.4886 23.3493 24.6629C23.5237 24.8372 23.7656 24.9376 24.0122 24.9376C24.2587 24.9376 24.5006 24.8373 24.675 24.6629C24.8494 24.4886 24.9497 24.2467 24.9497 24.0001C24.9497 23.7536 24.8494 23.5117 24.675 23.3373C24.4997 23.1628 24.2587 23.0626 24.0122 23.0626Z" fill="black"/>
</svg>
