<?xml version="1.0"?>
<!--Icons from directory ""-->
<svg xmlns="http://www.w3.org/2000/svg" width="64" height="528" viewBox="0 0 64 528"><svg data-name="Layer 1" viewBox="0 0 64 28" width="32" height="32" id="Android" y="0"><path d="M15.73 12.36a.85.85 0 0 0-.85.85v3.54a.85.85 0 0 0 1.7 0v-3.54a.86.86 0 0 0-.85-.85zM7 18a.92.92 0 0 0 .92.92h.6v1.87a.85.85 0 0 0 1.7 0v-1.88h1.13v1.87a.85.85 0 0 0 1.7 0v-1.87h.61a.92.92 0 0 0 .91-.92v-5.48H7zM29.89 10.4a1.06 1.06 0 0 0 1-.58v.51h.63V5.66h-.71V7.5a1 1 0 0 0-.81-.44 1.28 1.28 0 0 0-1 .45 1.84 1.84 0 0 0-.42 1.26 1.8 1.8 0 0 0 .35 1.23 1.22 1.22 0 0 0 .96.4zm-.4-2.47a.77.77 0 0 1 1.1-.14.84.84 0 0 1 .26.43 1.3 1.3 0 0 1 0 .23V9a.89.89 0 0 1-.21.59.7.7 0 0 1-.56.26.73.73 0 0 1-.62-.32 1.21 1.21 0 0 1-.22-.77 1.36 1.36 0 0 1 .25-.83zM20.88 8.51c0-.61.05-1.24.08-1.91.12.55.27 1.12.46 1.72l.63 2h.54l.69-2c.21-.59.38-1.15.52-1.68 0 .41 0 1 .06 1.87l.1 1.86h.69l-.26-4.44h-.89l-.66 1.93c-.16.45-.31 1-.45 1.52a17.5 17.5 0 0 0-.41-1.52l-.64-1.93h-.94l-.29 4.44h.66zM12.63 9.17l.6-1.08a.13.13 0 0 0-.05-.17A.11.11 0 0 0 13 8l-.61 1.09a4.1 4.1 0 0 0-3.27 0L8.53 8a.12.12 0 0 0-.16 0 .13.13 0 0 0 0 .17l.6 1.08a3.44 3.44 0 0 0-1.93 3h7.57a3.44 3.44 0 0 0-1.98-3.08zM9 10.82a.32.32 0 1 1 .32-.31.32.32 0 0 1-.32.31zm3.49 0a.32.32 0 0 1 0-.63.32.32 0 1 1 0 .63zM37.27 10.33H38V7.66h.71v-.53H38V7c0-.54.18-.81.56-.81a.77.77 0 0 1 .34.07l.1-.59a1.54 1.54 0 0 0-.5-.08 1.13 1.13 0 0 0-.81.3A1.46 1.46 0 0 0 37.27 7v.14h-.44v.53h.44zM42.6 10.33h.71V8.65a1.07 1.07 0 0 1 .18-.65.67.67 0 0 1 .58-.28.78.78 0 0 1 .22 0v-.64h-.17a.84.84 0 0 0-.52.18 1 1 0 0 0-.35.5v-.61h-.62v1zM5.83 12.36a.85.85 0 0 0-.85.85v3.54a.85.85 0 0 0 1.7 0v-3.54a.86.86 0 0 0-.85-.85zM50.55 13.08h1.43v1.3h-1.43zM46.78 14.84a2.48 2.48 0 0 0-2.07.86 3.11 3.11 0 0 0-.69 2 3.07 3.07 0 0 0 .69 2 2.5 2.5 0 0 0 2.07.84 2.52 2.52 0 0 0 2.07-.84 3.12 3.12 0 0 0 .68-2 3.16 3.16 0 0 0-.68-2 2.5 2.5 0 0 0-2.07-.86zm.94 4.16a1.25 1.25 0 0 1-1.9 0 2 2 0 0 1-.33-1.24 2 2 0 0 1 .33-1.25 1.26 1.26 0 0 1 1.9 0 2 2 0 0 1 .33 1.25 2 2 0 0 1-.33 1.24zM50.55 15.02h1.43v5.38h-1.43zM43.34 14.89a1.53 1.53 0 0 0-1 .33 2.82 2.82 0 0 0-.57.74V15H40.4v5.4h1.42v-2.57a2.14 2.14 0 0 1 .17-1 1.15 1.15 0 0 1 1.14-.55h.4V14.9h-.19z"/><path d="M59.09 1h-54a3.85 3.85 0 0 0-3.85 3.81v18.4a3.86 3.86 0 0 0 3.85 3.84H58.9a3.8 3.8 0 0 0 3.84-3.84V4.81A3.67 3.67 0 0 0 59.09 1zM62 23.21a3.05 3.05 0 0 1-3.1 3.09H5.09A3.1 3.1 0 0 1 2 23.21V4.81a3.09 3.09 0 0 1 3.1-3.09h54A2.9 2.9 0 0 1 62 4.81z"/><path d="M56.82 15.7a1.87 1.87 0 0 0-.62-.6 1.75 1.75 0 0 0-.87-.21 2.07 2.07 0 0 0-1.7.79 3.4 3.4 0 0 0-.63 2.17 3 3 0 0 0 .64 2 2 2 0 0 0 1.59.76 1.77 1.77 0 0 0 1.65-.91v.74h1.37v-7.31h-1.43zm-.27 3.24a1 1 0 0 1-.91.44 1 1 0 0 1-.89-.44 2.13 2.13 0 0 1-.3-1.2 2.16 2.16 0 0 1 .29-1.15 1 1 0 0 1 .91-.47 1 1 0 0 1 .71.26 1.76 1.76 0 0 1 .5 1.41 2 2 0 0 1-.31 1.15zM37.71 15.7a1.84 1.84 0 0 0-.61-.6 1.81 1.81 0 0 0-.87-.21 2.06 2.06 0 0 0-1.7.79 3.4 3.4 0 0 0-.64 2.17 3 3 0 0 0 .65 2 2 2 0 0 0 1.59.76 1.89 1.89 0 0 0 1-.22 2 2 0 0 0 .68-.69v.74h1.37v-7.31h-1.47zm-.27 3.24a1 1 0 0 1-.91.44 1 1 0 0 1-.89-.44 2.13 2.13 0 0 1-.29-1.2 2.07 2.07 0 0 1 .29-1.15 1 1 0 0 1 .9-.47 1 1 0 0 1 .71.26 1.73 1.73 0 0 1 .5 1.41 2 2 0 0 1-.31 1.15zM31 14.89a1.73 1.73 0 0 0-1.09.33 2.43 2.43 0 0 0-.52.59V15h-1.32v5.4h1.41v-2.91a1.92 1.92 0 0 1 .14-.82 1 1 0 0 1 1-.61.81.81 0 0 1 .79.41 1.64 1.64 0 0 1 .11.66v3.27h1.44v-3.62a1.75 1.75 0 0 0-.53-1.45 2 2 0 0 0-1.43-.44zM27.89 8.39c0-.88-.42-1.33-1.26-1.33a2.11 2.11 0 0 0-1.1.28l.15.47a1.47 1.47 0 0 1 .83-.24c.45 0 .67.21.67.63v.06a2.57 2.57 0 0 0-1.38.31 1 1 0 0 0-.49.89.88.88 0 0 0 .25.65.94.94 0 0 0 .73.29 1.1 1.1 0 0 0 .94-.44l.05.37h.64a5 5 0 0 1-.05-.76zm-.69.84v.13a.64.64 0 0 1-.25.38.77.77 0 0 1-.44.14.45.45 0 0 1-.48-.5c0-.44.39-.66 1.18-.64zM41.63 9.92a1.73 1.73 0 0 0 .43-1.22 1.72 1.72 0 0 0-.41-1.17 1.63 1.63 0 0 0-2.3 0 1.72 1.72 0 0 0-.43 1.22 1.72 1.72 0 0 0 .42 1.18 1.43 1.43 0 0 0 1.12.46 1.5 1.5 0 0 0 1.17-.47zm-1.79-.43a1.41 1.41 0 0 1-.19-.76 1.41 1.41 0 0 1 .19-.73.73.73 0 0 1 1.29 0 1.49 1.49 0 0 1 .19.75 1.43 1.43 0 0 1-.2.76.71.71 0 0 1-.64.39.72.72 0 0 1-.64-.41zM34.81 9.7a2.39 2.39 0 0 1-.86.15 1 1 0 0 1-.7-.22.94.94 0 0 1-.31-.73h2.13a1.45 1.45 0 0 0 0-.32 1.72 1.72 0 0 0-.28-1 1.2 1.2 0 0 0-1-.51 1.37 1.37 0 0 0-1.12.51 1.85 1.85 0 0 0-.39 1.21 1.61 1.61 0 0 0 .4 1.21 1.55 1.55 0 0 0 1.17.44 2.69 2.69 0 0 0 1.07-.2zm-1.66-1.86a.7.7 0 0 1 .57-.29.61.61 0 0 1 .56.3.89.89 0 0 1 .14.55h-1.48a1 1 0 0 1 .21-.56zM23 13.12l-2.6 7.28h1.59l.5-1.5h2.68l.48 1.5h1.65l-2.58-7.28zm-.1 4.53l.95-2.86.92 2.86z"/></svg><svg xmlns:xlink="http://www.w3.org/1999/xlink" width="64" height="64" id="Warranty" y="32"><defs><path id="Warranty-a" d="M0 .626h33.995v39.48H0z"/></defs><g fill="none" fill-rule="evenodd"><path d="M35.917 29.388h-.005a7.61 7.61 0 0 0-5.398 2.222 7.532 7.532 0 0 0-2.24 5.375c-.002 4.108 3.232 7.445 7.37 7.596h.087c.59-.03 1.052-.511 1.052-1.1 0-.52-.356-.962-.876-1.076l-.18-.025c-2.943-.094-5.247-2.46-5.245-5.385.002-2.97 2.434-5.387 5.424-5.387 2.928.002 5.303 2.275 5.408 5.153l-.005.06a1.12 1.12 0 0 0 1.12 1.118c.547 0 1.022-.408 1.107-.957l.012-.18c-.1-4.088-3.523-7.414-7.63-7.414" fill="#000"/><path d="M35.912 39.104a2.096 2.096 0 0 1-2.1-2.012.804.804 0 0 0-.802-.8c-.44 0-.8.36-.802.816a3.68 3.68 0 0 0 3.695 3.593c2.04 0 3.702-1.66 3.702-3.702a3.68 3.68 0 0 0-3.596-3.694h-.005a.793.793 0 0 0-.788.797c0 .44.352.8.788.798h.003c1.127.05 2.01.973 2.01 2.1 0 1.16-.945 2.104-2.105 2.104" fill="#000"/><path d="M35.912 39.104a2.096 2.096 0 0 1-2.1-2.012.804.804 0 0 0-.802-.8c-.44 0-.8.36-.802.816a3.68 3.68 0 0 0 3.695 3.593c2.04 0 3.702-1.66 3.702-3.702a3.68 3.68 0 0 0-3.596-3.694h-.005a.793.793 0 0 0-.788.797c0 .44.352.8.788.798h.003c1.127.05 2.01.973 2.01 2.1 0 1.16-.945 2.104-2.105 2.104z" stroke="#000" stroke-width=".4"/><path d="M41.587 42.103a1.155 1.155 0 0 0-.343.812v7.482l-3.15-2.193a1.179 1.179 0 0 0-1.3 0l-3.15 2.193v-4.24a1.146 1.146 0 0 0-.388-.86 1.16 1.16 0 0 0-.89-.31c-.569.062-1.038.597-1.025 1.167V52.6c.006.388.252.757.645.96.391.204.834.196 1.155-.024l4.304-2.973 4.303 2.973c.167.115.366.171.575.171.192 0 .393-.048.58-.146.392-.204.64-.573.646-.964v-9.68a1.157 1.157 0 0 0-.344-.814 1.137 1.137 0 0 0-1.618 0M42.903 15.262H21.003c-.603.028-1.126.604-1.097 1.207.013.29.153.578.385.79.22.198.5.31.767.31h21.845c.287 0 .578-.125.8-.343.225-.223.355-.518.355-.81 0-.294-.13-.589-.355-.81a1.155 1.155 0 0 0-.8-.344" fill="#000"/><g transform="translate(15 9.183)"><mask id="Warranty-b" fill="#fff"><use xlink:href="#Warranty-a"/></mask><path d="M32.843.626H1.045C.475.68-.002 1.21 0 1.78v37.173c0 .603.55 1.154 1.153 1.154h12.683c.289 0 .58-.126.802-.344a1.16 1.16 0 0 0 .354-.81c0-.293-.13-.588-.355-.81a1.155 1.155 0 0 0-.799-.344H2.305V2.932H31.69V37.8h-.329c-.289 0-.58.125-.8.344a1.154 1.154 0 0 0-.356.81c0 .292.13.588.355.81.221.218.512.344.799.344H32.843c.603 0 1.152-.55 1.152-1.154V1.78c0-.603-.55-1.154-1.152-1.154" fill="#000" mask="url(#Warranty-b)"/></g><path d="M42.904 20.219H21.004a1.152 1.152 0 0 0-.787.386 1.15 1.15 0 0 0-.312.82c.013.29.154.578.386.79.22.198.5.31.767.31H42.89c.302 0 .589-.121.813-.342.226-.223.356-.518.356-.812 0-.293-.13-.588-.356-.81a1.151 1.151 0 0 0-.798-.342M31.324 25.518a1.14 1.14 0 0 0-.813-.343h-9.507c-.604.028-1.127.603-1.098 1.207.013.29.154.578.385.789.22.199.499.311.767.311h9.452c.285.003.59-.122.814-.343.225-.222.355-.518.355-.81 0-.293-.13-.589-.355-.811" fill="#000"/></g></svg><svg data-name="Layer 1" viewBox="0 0 40 40" width="32" height="32" id="cart_icon" y="96"><defs><clipPath id="cart_icon-a"><path d="M30.8 30.8a3.6 3.6 0 1 0 3.6 3.6 3.59 3.59 0 0 0-3.6-3.6zM2 2v4h3.56L12 19.43l-2.4 4.33a3.49 3.49 0 0 0-.43 2.11A3.68 3.68 0 0 0 12.85 29H34v-3H13.56c-.26-.6-.45-.8-.45-1.05l.05-.22L14.78 22h13.47a3.54 3.54 0 0 0 3.11-1.83l6.37-11.54a1.76 1.76 0 0 0 .21-.85A1.78 1.78 0 0 0 36.16 6H9.58L7.89 2zm10.8 28.8a3.6 3.6 0 1 0 3.6 3.6 3.59 3.59 0 0 0-3.6-3.6z" clip-rule="evenodd"/></clipPath></defs><path d="M30.8 30.8a3.6 3.6 0 1 0 3.6 3.6 3.59 3.59 0 0 0-3.6-3.6zM2 2v4h3.56L12 19.43l-2.4 4.33a3.49 3.49 0 0 0-.43 2.11A3.68 3.68 0 0 0 12.85 29H34v-3H13.56c-.26-.6-.45-.8-.45-1.05l.05-.22L14.78 22h13.47a3.54 3.54 0 0 0 3.11-1.83l6.37-11.54a1.76 1.76 0 0 0 .21-.85A1.78 1.78 0 0 0 36.16 6H9.58L7.89 2zm10.8 28.8a3.6 3.6 0 1 0 3.6 3.6 3.59 3.59 0 0 0-3.6-3.6z" fill-rule="evenodd"/><g clip-path="url(#cart_icon-a)"><path opacity=".5" d="M-5-5h51v51H-5z"/></g></svg><svg xmlns:xlink="http://www.w3.org/1999/xlink" width="64" height="64" id="delivery" y="128"><defs><path id="delivery-a" d="M.453.626h45.273v32.48H.453z"/><path id="delivery-c" d="M0 .308h9.483v2.369H0z"/></defs><g fill="none" fill-rule="evenodd"><g transform="translate(13.737 15.27)"><mask id="delivery-b" fill="#fff"><use xlink:href="#delivery-a"/></mask><path d="M43.268 26.832H40.67c-.632-1.812-2.388-3.136-4.495-3.136-1.88 0-3.51 1.138-4.248 2.74V7.804h4.741c4.072 0 6.6 2.998 6.6 7.876v11.152zm-7.093 3.972c-1.262 0-2.316-1.045-2.316-2.3 0-1.254 1.054-2.3 2.316-2.3 1.265 0 2.319 1.046 2.319 2.3 0 1.255-1.054 2.3-2.319 2.3zM29.47 6.62h-.07v20.281H15.005c-.14 0-.281 0-.35.07a4.702 4.702 0 0 0-4.495-3.206c-2.106 0-3.861 1.394-4.494 3.206a1.3 1.3 0 0 0-.49-.139H2.84V2.925h26.63V6.62zM10.16 30.804c-1.263 0-2.317-1.045-2.317-2.3 0-1.254 1.054-2.3 2.318-2.3s2.317 1.046 2.317 2.3c0 1.255-1.053 2.3-2.317 2.3zm32.968-22.72c-1.616-1.743-3.862-2.65-6.39-2.65h-4.81V1.742c-.07-.07-.07-.14-.07-.21v-.069c0-.07 0-.07-.07-.14 0-.07-.071-.07-.071-.14 0 0 0-.069-.07-.069-.07-.069-.102-.081-.141-.139-.237-.348-.727-.348-.727-.348H1.434s-.33.051-.63.348c-.07.07-.07.14-.14.14l-.07.069c0 .07-.07.07-.07.14s0 .07-.071.14v26.553c0 .627.562 1.185 1.193 1.185h3.6c.14 0 .21 0 .35-.07.352 2.231 2.318 3.974 4.705 3.974 2.318 0 4.283-1.673 4.635-3.904h16.747c.42 2.231 2.317 3.904 4.634 3.904 2.316 0 4.284-1.673 4.634-3.904h3.581c.632 0 1.194-.558 1.194-1.185V15.68c0-3.136-.913-5.785-2.598-7.597z" fill="#000" mask="url(#delivery-b)"/></g><path d="M29.547 25.187h-.006a.825.825 0 0 0-.822.827c0 .455.368.827.822.826h.004a2.18 2.18 0 0 1 2.096 2.174 2.19 2.19 0 0 1-2.196 2.18 2.18 2.18 0 0 1-2.192-2.084.834.834 0 0 0-.835-.828.839.839 0 0 0-.838.843c.061 2.087 1.754 3.722 3.857 3.722 2.128 0 3.861-1.719 3.861-3.833 0-2.088-1.647-3.769-3.751-3.827" fill="#000"/><path d="M29.165 36.699h.083a.975.975 0 0 0 .937-.972.97.97 0 0 0-.769-.948l-.169-.025c-3.162-.101-5.638-2.624-5.636-5.745.003-3.17 2.614-5.748 5.826-5.748h.002c3.146.003 5.7 2.438 5.812 5.521l-.004.046c0 .547.448.992.999.992.495 0 .913-.368.987-.842l.008-.083.002-.04.001-.006v-.036c-.103-4.143-3.598-7.515-7.793-7.515h-.005c-2.082 0-4.04.8-5.514 2.253a7.609 7.609 0 0 0-2.288 5.448c-.001 4.164 3.298 7.546 7.52 7.7M11.36 35.48H6.634c-.632 0-1.194.558-1.194 1.185 0 .626.562 1.184 1.194 1.184h4.724c.633 0 1.195-.558 1.195-1.184 0-.697-.493-1.185-1.195-1.185" fill="#000"/><g transform="translate(3 28.69)"><mask id="delivery-d" fill="#fff"><use xlink:href="#delivery-c"/></mask><path d="M9.483 1.492C9.483.866 8.92.308 8.289.308H1.193C.561.308-.001.866-.001 1.492a1.18 1.18 0 0 0 1.194 1.185h7.096c.632 0 1.194-.558 1.194-1.185" fill="#000" mask="url(#delivery-d)"/></g><path d="M11.36 22.516H6.634c-.632 0-1.194.557-1.194 1.185s.562 1.184 1.194 1.184h4.724c.633 0 1.195-.556 1.195-1.184 0-.628-.562-1.185-1.195-1.185" fill="#000"/></g></svg><svg data-name="Layer 1" viewBox="0 0 64 28" width="32" height="32" id="iOS" y="192"><path d="M25.8 8.57a1 1 0 0 0-.49.89.88.88 0 0 0 .25.65.94.94 0 0 0 .73.29 1.1 1.1 0 0 0 .94-.44l.05.37h.64a5 5 0 0 1-.05-.76V8.39c0-.88-.42-1.33-1.26-1.33a2.11 2.11 0 0 0-1.1.28l.15.47a1.47 1.47 0 0 1 .83-.24c.45 0 .67.21.67.63v.06a2.57 2.57 0 0 0-1.36.31zm1.4.17v.62a.64.64 0 0 1-.25.38.76.76 0 0 1-.43.14.51.51 0 0 1-.35-.12.51.51 0 0 1-.17-.38c0-.44.41-.66 1.2-.64zM11.09 10.53a3.1 3.1 0 0 0 2.42-3V6.98A3 3 0 0 0 11 9.92a3.74 3.74 0 0 0 .05.53zM16.36 18.17a2.88 2.88 0 0 1-1.67-2.71A2.93 2.93 0 0 1 15.94 13a3 3 0 0 0-2.35-1.33c-.78 0-1.42.76-2.49.76-.84 0-1.19-.72-2.12-.72a4 4 0 0 0-3.78 3.92 10.31 10.31 0 0 0 1.26 4.58c.62 1.16 1.4 1.92 2.26 1.92.63 0 1.36-.57 2.25-.57s1.49.51 2.19.51c1.67 0 3.22-2.17 3.22-3.62v-.19zM39.34 9.94a1.43 1.43 0 0 0 1.12.46 1.54 1.54 0 0 0 1.18-.48 1.77 1.77 0 0 0 .42-1.22 1.72 1.72 0 0 0-.41-1.17 1.63 1.63 0 0 0-2.3 0 1.72 1.72 0 0 0-.43 1.22 1.72 1.72 0 0 0 .42 1.19zm.5-2a.73.73 0 0 1 1.29 0 1.49 1.49 0 0 1 .19.75 1.43 1.43 0 0 1-.2.76.71.71 0 0 1-.64.39.72.72 0 0 1-.64-.38 1.41 1.41 0 0 1-.19-.76 1.41 1.41 0 0 1 .19-.7zM20.35 15.49h1.47v6.64h-1.47z"/><path d="M59.09 1h-54a3.85 3.85 0 0 0-3.85 3.81v18.4a3.86 3.86 0 0 0 3.85 3.84H58.9a3.8 3.8 0 0 0 3.84-3.84V4.81A3.67 3.67 0 0 0 59.09 1zM62 23.21a3.05 3.05 0 0 1-3.1 3.09H5.09A3.1 3.1 0 0 1 2 23.21V4.81a3.09 3.09 0 0 1 3.1-3.09h54A2.9 2.9 0 0 1 62 4.81z"/><path d="M33.85 10.39a2.69 2.69 0 0 0 1.07-.2l-.11-.49a2.35 2.35 0 0 1-.86.15 1 1 0 0 1-.7-.22.94.94 0 0 1-.31-.73h2.13a1.45 1.45 0 0 0 0-.32 1.72 1.72 0 0 0-.28-1 1.2 1.2 0 0 0-1-.51 1.37 1.37 0 0 0-1.12.51 1.85 1.85 0 0 0-.39 1.21 1.61 1.61 0 0 0 .4 1.21 1.57 1.57 0 0 0 1.17.39zm-.7-2.55a.7.7 0 0 1 .57-.29.64.64 0 0 1 .57.3 1 1 0 0 1 .13.55h-1.48a1 1 0 0 1 .21-.56zM21.08 12.64a.87.87 0 0 0-.64.25.82.82 0 0 0-.26.62.9.9 0 0 0 .25.64.85.85 0 0 0 .63.25.89.89 0 0 0 .66-.25.8.8 0 0 0 .26-.64.79.79 0 0 0-.26-.62.86.86 0 0 0-.64-.25zM38 10.33V7.66h.71v-.53H38V7c0-.54.18-.81.56-.81a.77.77 0 0 1 .34.07l.1-.59a1.54 1.54 0 0 0-.5-.08 1.13 1.13 0 0 0-.81.3A1.46 1.46 0 0 0 37.27 7v.14h-.44v.53h.44v2.67zM33.85 15.36a2.26 2.26 0 0 0-2 1.07v-4h-1.5v9.68h1.48v-4a1.62 1.62 0 0 1 .07-.53 1.39 1.39 0 0 1 1.4-1c.89 0 1.34.59 1.34 1.79v3.78h1.47v-3.97a3 3 0 0 0-.75-2.18 2 2 0 0 0-1.51-.64zM43.6 7.24a1 1 0 0 0-.35.5v-.61h-.62v3.19h.71V8.65a1.07 1.07 0 0 1 .15-.65.67.67 0 0 1 .58-.28.78.78 0 0 1 .22 0v-.64h-.17a.84.84 0 0 0-.52.16zM40.58 15.36a3.07 3.07 0 0 0-2.41 1 3.59 3.59 0 0 0-.89 2.53 3.52 3.52 0 0 0 .86 2.44 3 3 0 0 0 2.33 1 3.13 3.13 0 0 0 2.43-1 3.65 3.65 0 0 0 .87-2.51 3.53 3.53 0 0 0-.84-2.44 3.07 3.07 0 0 0-2.35-1.02zm1.25 5a1.47 1.47 0 0 1-1.32.8 1.49 1.49 0 0 1-1.34-.79 3 3 0 0 1-.39-1.56 3.08 3.08 0 0 1 .39-1.6 1.49 1.49 0 0 1 1.35-.79 1.47 1.47 0 0 1 1.33.79 3 3 0 0 1 .39 1.57 2.91 2.91 0 0 1-.41 1.59zM48.25 15.36a2.48 2.48 0 0 0-1.34.37 2.05 2.05 0 0 0-.76.79l-.07-1h-1.3c0 .69.06 1.32.06 1.9v4.74h1.47v-3.98a1.72 1.72 0 0 1 .37-1.18 1.34 1.34 0 0 1 1.07-.48c.89 0 1.33.58 1.33 1.76v3.81h1.48v-4a2.9 2.9 0 0 0-.77-2.09 2.11 2.11 0 0 0-1.54-.64zM54.68 15.34a2.83 2.83 0 0 0-2.32 1.07 3.76 3.76 0 0 0-.82 2.5 3.35 3.35 0 0 0 .88 2.43 3.22 3.22 0 0 0 2.43.91 5.6 5.6 0 0 0 2.22-.41l-.23-1a4.87 4.87 0 0 1-1.79.31 2.21 2.21 0 0 1-1.45-.46 2 2 0 0 1-.6-1.53h4.43a4 4 0 0 0 0-.66 3.58 3.58 0 0 0-.59-2.09 2.47 2.47 0 0 0-2.16-1.07zM53 18.11a2.21 2.21 0 0 1 .4-1.11 1.4 1.4 0 0 1 1.17-.6 1.3 1.3 0 0 1 1.18.61 2 2 0 0 1 .25 1.1zM23.83 6.6c0 .41 0 1 .06 1.87l.1 1.86h.69l-.26-4.44h-.92l-.66 1.93c-.16.45-.31 1-.45 1.52A14.53 14.53 0 0 0 22 7.82l-.64-1.93h-.96l-.29 4.44h.66l.11-1.82c0-.61.05-1.24.08-1.91.12.55.27 1.12.46 1.72l.63 2h.54l.69-2c.21-.59.38-1.15.52-1.68zM30.92 9.82v.51h.63V5.66h-.71V7.5a1 1 0 0 0-.84-.44 1.28 1.28 0 0 0-1 .45 1.84 1.84 0 0 0-.42 1.26 1.8 1.8 0 0 0 .35 1.23 1.22 1.22 0 0 0 1 .45 1.06 1.06 0 0 0 .99-.63zm-.82 0a.73.73 0 0 1-.62-.32 1.21 1.21 0 0 1-.22-.77 1.36 1.36 0 0 1 .23-.81.77.77 0 0 1 1.1-.14.84.84 0 0 1 .26.43 1.3 1.3 0 0 1 0 .23V9a.89.89 0 0 1-.21.59.7.7 0 0 1-.54.24zM25.81 12.86a13.39 13.39 0 0 0-2.41.19v9.08h1.48v-3.57a3.69 3.69 0 0 0 .84.07 3.75 3.75 0 0 0 2.82-1 2.79 2.79 0 0 0 .75-2 2.48 2.48 0 0 0-.85-2 4 4 0 0 0-2.63-.77zM27.27 17a2.27 2.27 0 0 1-1.54.48 3.76 3.76 0 0 1-.85-.08v-3.3a4.39 4.39 0 0 1 1-.09 2.21 2.21 0 0 1 1.44.43 1.51 1.51 0 0 1 .52 1.24 1.64 1.64 0 0 1-.57 1.32z"/></svg><svg data-name="Layer 1" viewBox="0 0 40 40" width="32" height="32" id="language-selector" y="224"><defs><clipPath id="language-selector-a"><path d="M27.94 23a28.83 28.83 0 0 0 .24-3.5 28.83 28.83 0 0 0-.24-3.5h5.91a14.41 14.41 0 0 1 .46 3.5 14.41 14.41 0 0 1-.46 3.5zm-3.28 10.41A28.42 28.42 0 0 0 27.15 27h5.31a14.51 14.51 0 0 1-7.8 6.41zM24.1 23h-8.2a26.94 26.94 0 0 1-.28-3.5 26.8 26.8 0 0 1 .28-3.5h8.2a26.8 26.8 0 0 1 .28 3.5 26.94 26.94 0 0 1-.28 3.5zM20 34.13A25.7 25.7 0 0 1 16.56 27h6.88A25.7 25.7 0 0 1 20 34.13zM12.85 13H7.54a14.42 14.42 0 0 1 7.8-6.41A28.42 28.42 0 0 0 12.85 13zM7.54 27h5.31a28.42 28.42 0 0 0 2.49 6.41A14.42 14.42 0 0 1 7.54 27zm-1.39-4a14.41 14.41 0 0 1-.46-3.5 14.41 14.41 0 0 1 .46-3.5h5.91a28.83 28.83 0 0 0-.24 3.5 28.83 28.83 0 0 0 .24 3.5zM20 5.87A25.7 25.7 0 0 1 23.44 13h-6.88A25.7 25.7 0 0 1 20 5.87zM32.46 13h-5.31a28.42 28.42 0 0 0-2.49-6.41 14.51 14.51 0 0 1 7.8 6.41zM20 2a18 18 0 1 0 18 18A18 18 0 0 0 20 2z" clip-rule="evenodd"/></clipPath></defs><path d="M27.94 23a28.83 28.83 0 0 0 .24-3.5 28.83 28.83 0 0 0-.24-3.5h5.91a14.41 14.41 0 0 1 .46 3.5 14.41 14.41 0 0 1-.46 3.5zm-3.28 10.41A28.42 28.42 0 0 0 27.15 27h5.31a14.51 14.51 0 0 1-7.8 6.41zM24.1 23h-8.2a26.94 26.94 0 0 1-.28-3.5 26.8 26.8 0 0 1 .28-3.5h8.2a26.8 26.8 0 0 1 .28 3.5 26.94 26.94 0 0 1-.28 3.5zM20 34.13A25.7 25.7 0 0 1 16.56 27h6.88A25.7 25.7 0 0 1 20 34.13zM12.85 13H7.54a14.42 14.42 0 0 1 7.8-6.41A28.42 28.42 0 0 0 12.85 13zM7.54 27h5.31a28.42 28.42 0 0 0 2.49 6.41A14.42 14.42 0 0 1 7.54 27zm-1.39-4a14.41 14.41 0 0 1-.46-3.5 14.41 14.41 0 0 1 .46-3.5h5.91a28.83 28.83 0 0 0-.24 3.5 28.83 28.83 0 0 0 .24 3.5zM20 5.87A25.7 25.7 0 0 1 23.44 13h-6.88A25.7 25.7 0 0 1 20 5.87zM32.46 13h-5.31a28.42 28.42 0 0 0-2.49-6.41 14.51 14.51 0 0 1 7.8 6.41zM20 2a18 18 0 1 0 18 18A18 18 0 0 0 20 2z" fill-rule="evenodd"/><g clip-path="url(#language-selector-a)"><path opacity=".5" d="M-7-7h54v54H-7z"/></g></svg><svg viewBox="0 0 713.49 284.55" width="32" height="32" id="pivo-logo-dark" y="256"><style>.st0{display:none}.st1{display:inline}.st4{fill:#606161}.st7{fill:#ec2544}.st8{fill:#636466}</style><g id="pivo-logo-dark-gray" class="st0"><g class="st1"><linearGradient id="pivo-logo-dark-SVGID_1_" gradientUnits="userSpaceOnUse" x1="38.621" y1="94.954" x2="152.589" y2="94.954"><stop offset="0" stop-color="#7e1323"/><stop offset=".006" stop-color="#7e1323"/><stop offset=".091" stop-color="#8c1528"/><stop offset=".373" stop-color="#b61c35"/><stop offset=".628" stop-color="#d4203f"/><stop offset=".846" stop-color="#e62345"/><stop offset="1" stop-color="#ed2447"/></linearGradient><path d="M97.19 37.98c-5.53 0-10.01 4.55-10.01 10.17 0 5.63 4.48 10.19 10.01 10.19.06 0 .11-.02.17-.02 19.48.87 35.03 16.9 35.03 36.6 0 20.27-16.43 36.68-36.7 36.68-19.75 0-35.82-15.62-36.61-35.19-.02-5.62-4.58-10.19-10.22-10.19s-10.21 4.57-10.24 10.19v.05c0 .05.01.08.01.13.88 30.71 26 55.35 56.93 55.35 31.5 0 57.03-25.54 57.03-57.02 0-30.94-24.65-56.07-55.39-56.94h-.01" fill="url(#pivo-logo-dark-SVGID_1_)"/><linearGradient id="pivo-logo-dark-SVGID_2_" gradientUnits="userSpaceOnUse" x1="2.305" y1="94.724" x2="189.043" y2="94.724"><stop offset="0" stop-color="#7e1323"/><stop offset=".006" stop-color="#7e1323"/><stop offset=".091" stop-color="#8c1528"/><stop offset=".373" stop-color="#b61c35"/><stop offset=".628" stop-color="#d4203f"/><stop offset=".846" stop-color="#e62345"/><stop offset="1" stop-color="#ed2447"/></linearGradient><path d="M2.3 94.73c-.02 50.17 39.95 91.01 89.93 92.84h.93c5.24-.25 9.42-4.53 9.42-9.82 0-5.3-4.17-9.59-9.41-9.83v-.03c-39.49-1.26-71.12-33.42-71.09-73.01.02-40.36 32.93-73.08 73.52-73.06 39.68.02 71.91 31.34 73.31 70.47-.01.11-.05.23-.05.34 0 5.57 4.53 10.09 10.09 10.09 5.51 0 9.97-4.41 10.06-9.9h.02c0-.03 0-.08-.01-.13 0 0 .01-.02.01-.05 0-.06-.01-.09-.01-.15-1.23-50.23-42.5-90.6-93.28-90.61C44.16 1.84 2.33 43.42 2.3 94.73" fill="url(#pivo-logo-dark-SVGID_2_)"/></g><g class="st1"><path class="st4" d="M329.25 137.93c-.01-.02 0-.04 0-.06 0-5.96-4.52-10.79-10.1-10.79s-10.1 4.83-10.1 10.79c0 .02.01.04.01.06h-.04v93.29h.02c0 .04-.01.07-.01.11 0 5.96 4.53 10.79 10.11 10.79 5.58 0 10.11-4.83 10.11-10.79 0-.04-.01-.07-.01-.11h.03v-93.29zM467.98 128.5c-4.94-2.62-11.44-.01-14.53 5.81-.01.02-.02.04-.03.07l-.03-.02-40.63 76.69-40.72-76.77h-.01a.488.488 0 0 1-.03-.07c-3.09-5.82-9.6-8.42-14.53-5.81-4.94 2.62-6.43 9.46-3.35 15.29.01.02.03.04.04.06l-.03.02L402.51 235l.02-.01c.02.04.03.08.05.11 1.02 1.92 2.41 3.48 3.99 4.62.54.49 1.14.93 1.8 1.28 2.05 1.08 4.36 1.26 6.59.7.74-.17 1.47-.42 2.17-.79.01-.01.02-.01.03-.02 2.3-1.14 4.37-3.09 5.75-5.7.02-.04.03-.08.05-.11l.02.01 48.33-91.24h-.01c.01-.02.03-.04.04-.06 3.08-5.83 1.58-12.67-3.36-15.29zM541.36 127.24c-31.75 0-57.37 25.62-57.37 57.37 0 31.47 25.62 57.37 57.37 57.37s57.37-25.9 57.37-57.37c.01-31.75-25.62-57.37-57.37-57.37zm0 94.86c-20.7 0-37.49-16.78-37.49-37.49 0-20.7 16.78-37.49 37.49-37.49 20.7 0 37.49 16.78 37.49 37.49s-16.78 37.49-37.49 37.49zM226.2 127.19c-31.65 0-56.93 25.91-56.93 57.35v83.65c-.02.27-.04.54-.04.81 0 5.41 4.39 9.8 9.8 9.8 5.41 0 9.8-4.39 9.8-9.8v-.08l-.03-16.19-.03-23.34.03-39.52s.02-4.03.03-5.27c.32-20.24 16.44-37.57 37.23-37.57s37.59 16.62 37.59 37.45c0 20.84-16.83 37.28-37.63 37.28-2.45 0-4.89-.31-7.22-.77l-.06-.01c-1.52-.32-3.08-.21-4.67.26-5.19 1.51-8.19 7.24-6.68 12.43a9.759 9.759 0 0 0 6.6 6.64l-.02.07c4.63 1.05 7.39 1.4 12.22 1.4 31.65 0 57.19-25.59 57.19-57.3.01-31.43-25.53-57.29-57.18-57.29z"/></g></g><g id="pivo-logo-dark-balck" class="st0"><g class="st1"><linearGradient id="pivo-logo-dark-SVGID_3_" gradientUnits="userSpaceOnUse" x1="38.621" y1="94.954" x2="152.589" y2="94.954"><stop offset="0" stop-color="#7e1323"/><stop offset=".006" stop-color="#7e1323"/><stop offset=".091" stop-color="#8c1528"/><stop offset=".373" stop-color="#b61c35"/><stop offset=".628" stop-color="#d4203f"/><stop offset=".846" stop-color="#e62345"/><stop offset="1" stop-color="#ed2447"/></linearGradient><path d="M97.19 37.98c-5.53 0-10.01 4.55-10.01 10.17 0 5.63 4.48 10.19 10.01 10.19.06 0 .11-.02.17-.02 19.48.87 35.03 16.9 35.03 36.6 0 20.27-16.43 36.68-36.7 36.68-19.75 0-35.82-15.62-36.61-35.19-.02-5.62-4.58-10.19-10.22-10.19s-10.21 4.57-10.24 10.19v.05c0 .05.01.08.01.13.88 30.71 26 55.35 56.93 55.35 31.5 0 57.03-25.54 57.03-57.02 0-30.94-24.65-56.07-55.39-56.94h-.01" fill="url(#pivo-logo-dark-SVGID_3_)"/><linearGradient id="pivo-logo-dark-SVGID_4_" gradientUnits="userSpaceOnUse" x1="2.305" y1="94.724" x2="189.043" y2="94.724"><stop offset="0" stop-color="#7e1323"/><stop offset=".006" stop-color="#7e1323"/><stop offset=".091" stop-color="#8c1528"/><stop offset=".373" stop-color="#b61c35"/><stop offset=".628" stop-color="#d4203f"/><stop offset=".846" stop-color="#e62345"/><stop offset="1" stop-color="#ed2447"/></linearGradient><path d="M2.3 94.73c-.02 50.17 39.95 91.01 89.93 92.84h.93c5.24-.25 9.42-4.53 9.42-9.82 0-5.3-4.17-9.59-9.41-9.83v-.03c-39.49-1.26-71.12-33.42-71.09-73.01.02-40.36 32.93-73.08 73.52-73.06 39.68.02 71.91 31.34 73.31 70.47-.01.11-.05.23-.05.34 0 5.57 4.53 10.09 10.09 10.09 5.51 0 9.97-4.41 10.06-9.9h.02c0-.03 0-.08-.01-.13 0 0 .01-.02.01-.05 0-.06-.01-.09-.01-.15-1.23-50.23-42.5-90.6-93.28-90.61C44.16 1.84 2.33 43.42 2.3 94.73" fill="url(#pivo-logo-dark-SVGID_4_)"/></g><g class="st1"><path d="M329.25 137.93c-.01-.02 0-.04 0-.06 0-5.96-4.52-10.79-10.1-10.79s-10.1 4.83-10.1 10.79c0 .02.01.04.01.06h-.04v93.29h.02c0 .04-.01.07-.01.11 0 5.96 4.53 10.79 10.11 10.79 5.58 0 10.11-4.83 10.11-10.79 0-.04-.01-.07-.01-.11h.03v-93.29zM467.98 128.5c-4.94-2.62-11.44-.01-14.53 5.81-.01.02-.02.04-.03.07l-.03-.02-40.63 76.69-40.72-76.77h-.01a.488.488 0 0 1-.03-.07c-3.09-5.82-9.6-8.42-14.53-5.81-4.94 2.62-6.43 9.46-3.35 15.29.01.02.03.04.04.06l-.03.02L402.51 235l.02-.01c.02.04.03.08.05.11 1.02 1.92 2.41 3.48 3.99 4.62.54.49 1.14.93 1.8 1.28 2.05 1.08 4.36 1.26 6.59.7.74-.17 1.47-.42 2.17-.79.01-.01.02-.01.03-.02 2.3-1.14 4.37-3.09 5.75-5.7.02-.04.03-.08.05-.11l.02.01 48.33-91.24h-.01c.01-.02.03-.04.04-.06 3.08-5.83 1.58-12.67-3.36-15.29zM541.36 127.24c-31.75 0-57.37 25.62-57.37 57.37 0 31.47 25.62 57.37 57.37 57.37s57.37-25.9 57.37-57.37c.01-31.75-25.62-57.37-57.37-57.37zm0 94.86c-20.7 0-37.49-16.78-37.49-37.49 0-20.7 16.78-37.49 37.49-37.49 20.7 0 37.49 16.78 37.49 37.49s-16.78 37.49-37.49 37.49zM226.2 127.19c-31.65 0-56.93 25.91-56.93 57.35v83.65c-.02.27-.04.54-.04.81 0 5.41 4.39 9.8 9.8 9.8 5.41 0 9.8-4.39 9.8-9.8v-.08l-.03-16.19-.03-23.34.03-39.52s.02-4.03.03-5.27c.32-20.24 16.44-37.57 37.23-37.57s37.59 16.62 37.59 37.45c0 20.84-16.83 37.28-37.63 37.28-2.45 0-4.89-.31-7.22-.77l-.06-.01c-1.52-.32-3.08-.21-4.67.26-5.19 1.51-8.19 7.24-6.68 12.43a9.759 9.759 0 0 0 6.6 6.64l-.02.07c4.63 1.05 7.39 1.4 12.22 1.4 31.65 0 57.19-25.59 57.19-57.3.01-31.43-25.53-57.29-57.18-57.29z"/></g></g><g id="pivo-logo-dark-white"><path class="st7" d="M97.19 37.98c-5.53 0-10.01 4.55-10.01 10.17 0 5.63 4.48 10.19 10.01 10.19.06 0 .11-.02.17-.02 19.48.87 35.03 16.9 35.03 36.6 0 20.27-16.43 36.68-36.7 36.68-19.75 0-35.82-15.62-36.61-35.19-.02-5.62-4.58-10.19-10.22-10.19s-10.21 4.57-10.24 10.19v.05c0 .05.01.08.01.13.88 30.71 26 55.35 56.93 55.35 31.5 0 57.03-25.54 57.03-57.02 0-30.94-24.65-56.07-55.39-56.94h-.01"/><path class="st7" d="M2.3 94.73c-.02 50.17 39.95 91.01 89.93 92.84h.93c5.24-.25 9.42-4.53 9.42-9.82 0-5.3-4.17-9.59-9.41-9.83v-.03c-39.49-1.26-71.12-33.42-71.09-73.01.02-40.36 32.93-73.08 73.52-73.06 39.68.02 71.91 31.34 73.31 70.47-.01.11-.05.23-.05.34 0 5.57 4.53 10.09 10.09 10.09 5.51 0 9.97-4.41 10.06-9.9h.02c0-.03 0-.08-.01-.13 0 0 .01-.02.01-.05 0-.06-.01-.09-.01-.15-1.23-50.23-42.5-90.6-93.28-90.61C44.16 1.84 2.33 43.42 2.3 94.73"/><path class="st8" d="M329.25 137.93c-.01-.02 0-.04 0-.06 0-5.96-4.52-10.79-10.1-10.79s-10.1 4.83-10.1 10.79c0 .02.01.04.01.06h-.04v93.29h.02c0 .04-.01.07-.01.11 0 5.96 4.53 10.79 10.11 10.79 5.58 0 10.11-4.83 10.11-10.79 0-.04-.01-.07-.01-.11h.03v-93.29zM467.98 128.5c-4.94-2.62-11.44-.01-14.53 5.81-.01.02-.02.04-.03.07l-.03-.02-40.63 76.69-40.72-76.77h-.01a.488.488 0 0 1-.03-.07c-3.09-5.82-9.6-8.42-14.53-5.81-4.94 2.62-6.43 9.46-3.35 15.29.01.02.03.04.04.06l-.03.02L402.51 235l.02-.01c.02.04.03.08.05.11 1.02 1.92 2.41 3.48 3.99 4.62.54.49 1.14.93 1.8 1.28 2.05 1.08 4.36 1.26 6.59.7.74-.17 1.47-.42 2.17-.79.01-.01.02-.01.03-.02 2.3-1.14 4.37-3.09 5.75-5.7.02-.04.03-.08.05-.11l.02.01 48.33-91.24h-.01c.01-.02.03-.04.04-.06 3.08-5.83 1.58-12.67-3.36-15.29zM541.36 127.24c-31.75 0-57.37 25.62-57.37 57.37 0 31.47 25.62 57.37 57.37 57.37s57.37-25.9 57.37-57.37c.01-31.75-25.62-57.37-57.37-57.37zm0 94.86c-20.7 0-37.49-16.78-37.49-37.49 0-20.7 16.78-37.49 37.49-37.49 20.7 0 37.49 16.78 37.49 37.49s-16.78 37.49-37.49 37.49zM226.2 127.19c-31.65 0-56.93 25.91-56.93 57.35v83.65c-.02.27-.04.54-.04.81 0 5.41 4.39 9.8 9.8 9.8 5.41 0 9.8-4.39 9.8-9.8v-.08l-.03-16.19-.03-23.34.03-39.52s.02-4.03.03-5.27c.32-20.24 16.44-37.57 37.23-37.57s37.59 16.62 37.59 37.45c0 20.84-16.83 37.28-37.63 37.28-2.45 0-4.89-.31-7.22-.77l-.06-.01c-1.52-.32-3.08-.21-4.67.26-5.19 1.51-8.19 7.24-6.68 12.43a9.759 9.759 0 0 0 6.6 6.64l-.02.07c4.63 1.05 7.39 1.4 12.22 1.4 31.65 0 57.19-25.59 57.19-57.3.01-31.43-25.53-57.29-57.18-57.29z"/></g></svg><svg id="pivo-logo" viewBox="0 0 1080 1080" width="32" height="32" y="288"><defs><style>.cls-2{fill:#ec2544}</style></defs><path fill="#fff" d="M0 0h1080v1080H0z"/><path class="cls-2" d="M546.76 287.06c-24.63 0-44.6 20.28-44.6 45.32s20 45.42 44.6 45.42c.26 0 .51-.1.77-.1 86.85 3.89 156.13 75.32 156.13 163.15a163.51 163.51 0 0 1-163.56 163.5c-88 0-159.66-69.64-163.2-156.85a45.6 45.6 0 0 0-91.2 0v.21c0 .2.05.36.05.56C289.69 685.15 401.64 795 539.49 795c140.41 0 254.2-113.83 254.2-254.14 0-137.91-109.9-249.9-246.88-253.79"/><path class="cls-2" d="M123.83 540c-.1 223.62 178.05 405.67 400.86 413.81h4.15a43.85 43.85 0 0 0 0-87.62v-.15c-176-5.63-317-149-316.88-325.43.15-179.86 146.81-325.71 327.73-325.61 176.88.1 320.52 139.69 326.76 314.11-.05.51-.2 1-.2 1.53a44.91 44.91 0 0 0 89.82.82h.1a2.36 2.36 0 0 0 0-.56.52.52 0 0 0 0-.2v-.67c-5.53-223.87-189.47-403.82-415.81-403.87C310.38 126 123.93 311.33 123.83 540"/></svg><svg data-name="Layer 1" viewBox="0 0 53.36 53.36" width="32" height="32" id="play-button-02" y="320"><defs><clipPath id="play-button-02-a" transform="translate(3 3)"><circle cx="23.68" cy="23.68" r="21.68" fill="none"/></clipPath></defs><g clip-path="url(#play-button-02-a)"><path fill="#fff" d="M0 0h53.36v53.36H0z"/></g><path d="M22 33.86l.08-13.28a.84.84 0 0 1 .83-.82.85.85 0 0 1 .35.08l12.9 6.21a.82.82 0 0 1 .38 1.1.79.79 0 0 1-.34.36l-13 7.08a.83.83 0 0 1-1.12-.33.82.82 0 0 1-.08-.4z" fill="#636466"/></svg><svg width="48" height="48" id="play-button" y="352"><g fill="none" fill-rule="evenodd"><g transform="translate(2 2)"><circle fill="#FFF" cx="21.681" cy="21.681" r="21.681"/><path d="M16.418 28.858L16.5 15.58a.824.824 0 0 1 1.181-.737l12.895 6.204a.824.824 0 0 1 .037 1.465l-12.978 7.074a.824.824 0 0 1-1.217-.728z" fill="#636466" fill-rule="nonzero"/></g></g></svg><svg xmlns:xlink="http://www.w3.org/1999/xlink" width="64" height="64" id="secure_pay" y="400"><defs><path id="secure_pay-a" d="M0 0h43.773v31.284H0z"/></defs><g transform="translate(13 16)" fill="none" fill-rule="evenodd"><mask id="secure_pay-b" fill="#fff"><use xlink:href="#secure_pay-a"/></mask><path d="M39.308 25.724v.017l-.005.033a.408.408 0 0 1-.81-.062l.001-.017a2.361 2.361 0 0 0-2.371-2.272h-.002a2.374 2.374 0 0 0-2.377 2.364 2.358 2.358 0 0 0 2.3 2.363l.069.01a.4.4 0 0 1-.068.789h-.035a3.164 3.164 0 0 1-2.136-5.406 3.174 3.174 0 0 1 2.251-.927h.002c1.712.001 3.14 1.387 3.18 3.09v.018zm-3.187 1.642a1.567 1.567 0 0 1-1.573-1.53c0-.195.153-.348.34-.348.188 0 .342.153.343.34a.891.891 0 0 0 .894.857.897.897 0 0 0 .896-.896.893.893 0 0 0-.855-.894h-.002a.337.337 0 0 1-.335-.34c0-.187.15-.339.335-.339h.003c.858.024 1.53.715 1.53 1.573 0 .87-.707 1.577-1.576 1.577zm-2.363-9.047c0-1.193.971-2.164 2.165-2.164h.403c1.194 0 2.165.971 2.165 2.164v1.961h-4.733v-1.96zm8.025 1.961h-.967v-1.96a4.495 4.495 0 0 0-4.49-4.49h-.403a4.495 4.495 0 0 0-4.49 4.49v1.96h-.967c-1.1 0-1.99.892-1.99 1.991v7.024c0 1.099.89 1.99 1.99 1.99h11.317c1.1 0 1.99-.891 1.99-1.99v-7.024c0-1.1-.89-1.99-1.99-1.99zM2.46 4.058c0-.82.647-1.467 1.468-1.467h29.515c.82 0 1.468.647 1.468 1.467V6.28H2.418V4.058h.043zm23.883 20.473H3.973a1.457 1.457 0 0 1-1.469-1.469V10.21h32.494v1.825h2.245V4.1c0-2.244-1.857-4.1-4.102-4.1H4.102C1.856 0 0 1.856 0 4.1v18.874c0 2.246 1.857 4.103 4.103 4.103H26.43V24.53h-.085z" fill="#000" mask="url(#secure_pay-b)"/></g></svg><svg xmlns:xlink="http://www.w3.org/1999/xlink" width="64" height="64" id="support" y="464"><defs><path id="support-a" d="M0 0h47.772v42.471H0z"/></defs><g transform="translate(8 8)" fill="none" fill-rule="evenodd"><mask id="support-b" fill="#fff"><use xlink:href="#support-a"/></mask><path d="M45.782 38.49H29.274l-.704.705a.996.996 0 0 1-.705.29h-7.962a.999.999 0 0 1-.704-.29l-.701-.704H1.99c0 1.096.895 1.99 1.991 1.99h39.81c1.098 0 1.99-.894 1.99-1.99zM2.855 36.5H18.91c.264 0 .517.105.704.29l.705.705h7.138l.705-.705a.984.984 0 0 1 .7-.29h16.052l-2.653-3.981H5.508L2.855 36.5zm44.917.995v.996a3.981 3.981 0 0 1-3.98 3.98H3.981A3.98 3.98 0 0 1 0 38.492v-.996c0-.032.016-.057.018-.089a.882.882 0 0 1 .038-.191.863.863 0 0 1 .078-.19c.013-.025.015-.055.034-.082l3.813-5.72v-20.6a3.981 3.981 0 0 1 3.98-3.981h13.17c.25 0 .412.256.31.484-.16.362-.306.73-.435 1.107a.582.582 0 0 1-.55.4H7.963c-1.095 0-1.99.896-1.99 1.99V30.53H41.8v-5.183c0-.187.097-.358.256-.457.45-.28.88-.585 1.293-.912a.27.27 0 0 1 .441.208v7.04l3.813 5.718c.013.023.015.05.03.075a.991.991 0 0 1 .083.205.84.84 0 0 1 .036.173c.004.033.02.063.02.1zm-23.915-24.71c0 4.943 3.378 9.1 7.944 10.315.222.017.252.024.254.025.547.034.982.483.982 1.036v2.206l3.332-2.98c.193-.168.436-.259.688-.26l.149-.017c4.603-1.188 8.02-5.355 8.02-10.324 0-5.892-4.793-10.685-10.684-10.685-5.892 0-10.685 4.793-10.685 10.685zm-2.1 0c0-7.05 5.735-12.784 12.785-12.784 7.049 0 12.785 5.735 12.785 12.785 0 6.043-4.225 11.09-9.871 12.41v.015l-4.775 4.246a1.064 1.064 0 0 1-1.125.166 1.047 1.047 0 0 1-.615-.95v-3.634l.006-.01c-5.301-1.56-9.19-6.446-9.19-12.243zM34.32 18.59h.066a.778.778 0 0 0 .133-1.535l-.134-.02c-2.51-.08-4.475-2.097-4.473-4.592.001-2.535 2.074-4.596 4.623-4.596h.003c2.497.002 4.522 1.949 4.612 4.414l-.004.037c0 .437.356.792.793.792a.797.797 0 0 0 .783-.673l.008-.065.001-.033.002-.005v-.028c-.083-3.313-2.857-6.009-6.186-6.01h-.004a6.164 6.164 0 0 0-4.375 1.802 6.1 6.1 0 0 0-1.817 4.356c-.001 3.33 2.618 6.034 5.969 6.156zm3.28-6.145a3.069 3.069 0 0 1-3.065 3.065 3.045 3.045 0 0 1-3.06-2.974c.001-.378.299-.676.664-.676.365 0 .663.298.664.662a1.736 1.736 0 0 0 1.74 1.667c.96 0 1.742-.782 1.742-1.744 0-.932-.731-1.695-1.664-1.737h-.002a.657.657 0 0 1-.653-.661c0-.365.293-.662.653-.662h.004a3.048 3.048 0 0 1 2.977 3.06z" fill="#000" mask="url(#support-b)"/></g></svg></svg>
