<svg width="20" height="13" viewBox="0 0 20 13" fill="none" xmlns="http://www.w3.org/2000/svg">
<path fill-rule="evenodd" clip-rule="evenodd" d="M9.99996 0C12.4381 0 14.7695 1.16238 16.9422 3.07218C17.6834 3.72373 18.354 4.41932 18.9443 5.11517C19.3005 5.53507 19.5534 5.86544 19.692 6.06222L20 6.5L19.692 6.93778C19.5534 7.13456 19.3005 7.46493 18.9443 7.88483C18.354 8.58065 17.6834 9.27631 16.9422 9.92786C14.7695 11.8376 12.4381 13 9.99996 13C7.56185 13 5.23047 11.8376 3.05777 9.92786C2.31654 9.27631 1.64596 8.58065 1.05563 7.88483C0.699417 7.46493 0.446509 7.13456 0.308036 6.93778L0 6.5L0.308036 6.06222C0.446509 5.86544 0.699417 5.53507 1.05563 5.11517C1.64596 4.41932 2.31654 3.72373 3.05777 3.07218C5.23047 1.16238 7.56185 0 9.99996 0ZM17.5286 6.10748C16.988 5.47032 16.3736 4.83291 15.6994 4.24032C13.828 2.59543 11.8817 1.625 9.99996 1.625C8.11828 1.625 6.17189 2.59543 4.30057 4.24032C3.6264 4.83291 3.01189 5.47032 2.47141 6.10748C2.35468 6.24504 2.24681 6.37634 2.1482 6.5C2.24681 6.62366 2.35468 6.75496 2.47141 6.89252C3.01189 7.52968 3.6264 8.16709 4.30057 8.75964C6.17189 10.4046 8.11828 11.375 9.99996 11.375C11.8817 11.375 13.828 10.4046 15.6994 8.75964C16.3736 8.16709 16.988 7.52968 17.5286 6.89252C17.6453 6.75496 17.7531 6.62366 17.8518 6.5C17.7531 6.37634 17.6453 6.24504 17.5286 6.10748ZM6.42442 6.5C6.42442 8.29489 8.02525 9.75 9.99996 9.75C11.9747 9.75 13.5755 8.29489 13.5755 6.5C13.5755 4.70507 11.9747 3.25 9.99996 3.25C8.02525 3.25 6.42442 4.70507 6.42442 6.5ZM11.7877 6.5C11.7877 7.39749 10.9874 8.125 9.99996 8.125C9.01266 8.125 8.21218 7.39749 8.21218 6.5C8.21218 5.60251 9.01266 4.875 9.99996 4.875C10.9874 4.875 11.7877 5.60251 11.7877 6.5Z" fill="#BBBBBB"/>
</svg>
