<svg width="25" height="25" viewBox="0 0 25 25" fill="none" xmlns="http://www.w3.org/2000/svg">
<path fill-rule="evenodd" clip-rule="evenodd" d="M12.6085 20.1977L5 25V20.1977H2.5C1.11929 20.1977 0 19.0674 0 17.673V2.52472C0 1.13035 1.11929 0 2.5 0H22.5C23.8808 0 25 1.13035 25 2.52472V17.673C25 19.0674 23.8808 20.1977 22.5 20.1977H12.6085ZM7.5 20.4449L11.8915 17.673H22.5V2.52472H2.5V17.673H7.5V20.4449ZM11.25 5.04943V8.83651H7.5V11.3612H11.25V15.1483H13.75V11.3612H17.5V8.83651H13.75V5.04943H11.25Z" fill="white"/>
</svg>
