<svg width="30" height="30" viewBox="0 0 30 30" fill="none" xmlns="http://www.w3.org/2000/svg">
<path fill-rule="evenodd" clip-rule="evenodd" d="M0 15C0 6.71575 6.71575 0 15 0C23.2843 0 30 6.71575 30 15C30 23.2843 23.2843 30 15 30C6.71575 30 0 23.2843 0 15Z" fill="#F68634"/>
<path fill-rule="evenodd" clip-rule="evenodd" d="M16.6501 11.371C16.6501 10.4872 15.9054 9.76855 14.9897 9.76855C14.0749 9.76855 13.3295 10.4872 13.3295 11.371C13.3295 12.2541 14.0749 12.9732 14.9897 12.9732C15.9054 12.9732 16.6501 12.2541 16.6501 11.371ZM18.9997 11.3709C18.9997 13.5049 17.2018 15.2409 14.9899 15.2409C12.7783 15.2409 10.9798 13.5049 10.9798 11.3709C10.9798 9.23635 12.7783 7.5 14.9899 7.5C17.2018 7.5 18.9997 9.23635 18.9997 11.3709ZM18.951 17.4694C18.2259 17.909 17.4387 18.2207 16.6224 18.4002L18.8641 20.5643C19.3233 21.0067 19.3233 21.725 18.8641 22.1679C18.4054 22.6107 17.6619 22.6107 17.2036 22.1679L14.9996 20.0413L12.7975 22.1679C12.5679 22.3891 12.267 22.4998 11.9662 22.4998C11.6658 22.4998 11.3653 22.3891 11.1357 22.1679C10.677 21.725 10.677 21.0071 11.1352 20.5643L13.3772 18.4002C12.5609 18.2207 11.7737 17.9085 11.0487 17.4694C10.5 17.1355 10.3351 16.4358 10.6808 15.9056C11.0256 15.3747 11.7507 15.215 12.3004 15.549C13.942 16.5458 16.0567 16.5459 17.6993 15.549C18.249 15.215 18.9737 15.3747 19.3193 15.9056C19.665 16.4353 19.4997 17.1355 18.951 17.4694Z" fill="white"/>
</svg>
