<svg width="30" height="30" viewBox="0 0 30 30" fill="none" xmlns="http://www.w3.org/2000/svg">
<path fill-rule="evenodd" clip-rule="evenodd" d="M15 0C6.71575 0 0 6.71575 0 15C0 23.2843 6.71575 30 15 30C23.2843 30 30 23.2843 30 15C30 6.71575 23.2843 0 15 0ZM11.7021 7.04835C12.5551 7.0095 12.8277 7 14.9983 7C17.1716 7 17.4433 7.0095 18.2966 7.04835C19.1483 7.08735 19.73 7.22215 20.24 7.42C20.7667 7.62415 21.2117 7.8975 21.6567 8.3425C22.1017 8.7872 22.375 9.2335 22.58 9.7597C22.7766 10.2683 22.9116 10.8497 22.9517 11.7014C22.99 12.5547 23 12.8274 23 15.0001C23 17.1728 22.99 17.4447 22.9517 18.2981C22.9116 19.1495 22.7766 19.7309 22.58 20.2398C22.375 20.7658 22.1017 21.2121 21.6567 21.6568C21.2122 22.1018 20.7665 22.3759 20.2405 22.5802C19.7315 22.778 19.1495 22.9129 18.2978 22.9519C17.4445 22.9907 17.1726 23.0002 14.9998 23.0002C12.8273 23.0002 12.5547 22.9907 11.7014 22.9519C10.8499 22.9129 10.2683 22.778 9.75935 22.5802C9.2335 22.3759 8.78715 22.1018 8.3427 21.6568C7.89785 21.2121 7.6245 20.7658 7.42 20.2397C7.2223 19.731 7.0875 19.1497 7.04835 18.298C7.00965 17.4446 7 17.1728 7 15.0001C7 12.8274 7.01 12.5545 7.04815 11.7012C7.0865 10.8498 7.2215 10.2684 7.41985 9.75955C7.62485 9.2335 7.89815 8.7872 8.34315 8.3425C8.78785 7.8977 9.2342 7.62435 9.7604 7.42C10.269 7.22215 10.8504 7.08735 11.7021 7.04835Z" fill="#BFBFBF"/>
<path fill-rule="evenodd" clip-rule="evenodd" d="M14.283 8.4417C14.4224 8.44145 14.5723 8.44155 14.7341 8.4416L15.0007 8.4417C17.1367 8.4417 17.3899 8.44935 18.2334 8.4877C19.0134 8.52335 19.4367 8.6537 19.7188 8.7632C20.0921 8.9082 20.3583 9.0815 20.6381 9.3615C20.9181 9.64155 21.0914 9.9082 21.2368 10.2815C21.3463 10.5632 21.4768 10.9865 21.5123 11.7665C21.5506 12.6099 21.5589 12.8632 21.5589 14.9982C21.5589 17.1332 21.5506 17.3866 21.5123 18.2299C21.4766 19.0099 21.3463 19.4333 21.2368 19.7149C21.0918 20.0883 20.9181 20.3541 20.6381 20.634C20.3581 20.914 20.0923 21.0873 19.7188 21.2323C19.4371 21.3423 19.0134 21.4723 18.2334 21.508C17.3901 21.5463 17.1367 21.5546 15.0007 21.5546C12.8645 21.5546 12.6113 21.5463 11.768 21.508C10.988 21.472 10.5646 21.3416 10.2825 21.2321C9.90916 21.0871 9.64246 20.9138 9.36246 20.6338C9.08246 20.3538 8.90911 20.0878 8.76376 19.7143C8.65431 19.4326 8.52381 19.0093 8.48826 18.2293C8.44996 17.3859 8.44226 17.1326 8.44226 14.9962C8.44226 12.8599 8.44996 12.6079 8.48826 11.7645C8.52396 10.9845 8.65431 10.5612 8.76376 10.2792C8.90876 9.90585 9.08246 9.6392 9.36246 9.3592C9.64246 9.0792 9.90916 8.90585 10.2825 8.7605C10.5645 8.6505 10.988 8.5205 11.768 8.4847C12.506 8.45135 12.792 8.44135 14.283 8.4397V8.4417ZM19.2711 9.77005C18.7411 9.77005 18.3111 10.1995 18.3111 10.7297C18.3111 11.2597 18.7411 11.6897 19.2711 11.6897C19.8011 11.6897 20.2311 11.2597 20.2311 10.7297C20.2311 10.1997 19.8011 9.7697 19.2711 9.7697V9.77005ZM10.8923 15.0001C10.8923 12.7312 12.7318 10.8917 15.0007 10.8917C17.2694 10.8917 19.1084 12.7312 19.1084 15.0001C19.1084 17.2689 17.2695 19.1076 15.0007 19.1076C12.7318 19.1076 10.8923 17.2689 10.8923 15.0001Z" fill="#BFBFBF"/>
<path fill-rule="evenodd" clip-rule="evenodd" d="M15.0007 12.3334C16.4734 12.3334 17.6674 13.5273 17.6674 15.0001C17.6674 16.4728 16.4734 17.6668 15.0007 17.6668C13.5279 17.6668 12.334 16.4728 12.334 15.0001C12.334 13.5273 13.5279 12.3334 15.0007 12.3334Z" fill="#BFBFBF"/>
</svg>
