<svg width="50" height="50" viewBox="0 0 50 50" fill="none" xmlns="http://www.w3.org/2000/svg">
<circle cx="25" cy="25" r="20.5" stroke="#FF4F32"/>
<circle cx="25" cy="25" r="24" stroke="#FF4F32" stroke-width="2"/>
<path d="M29.197 33.7756C29.099 33.6775 28.9629 33.6211 28.8242 33.6211C28.6855 33.6211 28.5495 33.6775 28.4514 33.7756C28.3533 33.8737 28.2969 34.0097 28.2969 34.1484C28.2969 34.2871 28.3532 34.4232 28.4514 34.5212C28.5495 34.6193 28.6855 34.6758 28.8242 34.6758C28.9629 34.6758 29.099 34.6194 29.197 34.5212C29.2951 34.4232 29.3516 34.2871 29.3516 34.1484C29.3516 34.0092 29.2951 33.8737 29.197 33.7756Z" fill="#FF4F32"/>
<path d="M35.7852 20.6484H30.5117C29.8362 20.6484 29.2308 20.9528 28.8242 21.4311C28.7462 21.3392 28.6608 21.2539 28.5689 21.1758C29.0472 20.7692 29.3516 20.1638 29.3516 19.4883V14.2148C29.3516 12.9936 28.358 12 27.1367 12H21.8633C20.642 12 19.6484 12.9936 19.6484 14.2148V19.4883C19.6484 20.1638 19.9528 20.7692 20.4311 21.1758C20.3392 21.2538 20.2539 21.3392 20.1758 21.4311C19.7692 20.9528 19.1638 20.6484 18.4883 20.6484H13.2148C11.9936 20.6484 11 21.642 11 22.8633V28.1367C11 29.358 11.9936 30.3516 13.2148 30.3516H18.4883C19.1638 30.3516 19.7692 30.0472 20.1758 29.5689C20.2538 29.6608 20.3392 29.7461 20.4311 29.8242C19.9528 30.2308 19.6484 30.8362 19.6484 31.5117V36.7852C19.6484 38.0064 20.642 39 21.8633 39H27.1367C28.358 39 29.3516 38.0064 29.3516 36.7852V36.36C29.3516 36.0688 29.1154 35.8326 28.8242 35.8326C28.533 35.8326 28.2969 36.0688 28.2969 36.36V36.7852C28.2969 37.4249 27.7764 37.9453 27.1367 37.9453H21.8633C21.2236 37.9453 20.7031 37.4249 20.7031 36.7852V31.5117C20.7031 30.872 21.2236 30.3516 21.8633 30.3516H27.1367C27.7764 30.3516 28.2969 30.872 28.2969 31.5117V31.96C28.2969 32.2512 28.533 32.4873 28.8242 32.4873C29.1154 32.4873 29.3516 32.2512 29.3516 31.96V31.5117C29.3516 30.8362 29.0472 30.2308 28.5689 29.8242C28.6608 29.7462 28.7461 29.6608 28.8242 29.5689C29.2308 30.0472 29.8362 30.3516 30.5117 30.3516H35.7852C37.0064 30.3516 38 29.358 38 28.1367V22.8633C38 21.642 37.0064 20.6484 35.7852 20.6484ZM19.6484 28.1367C19.6484 28.7764 19.128 29.2969 18.4883 29.2969H13.2148C12.5751 29.2969 12.0547 28.7764 12.0547 28.1367V22.8633C12.0547 22.2236 12.5751 21.7031 13.2148 21.7031H18.4883C19.128 21.7031 19.6484 22.2236 19.6484 22.8633V28.1367ZM28.2969 28.1367C28.2969 28.7764 27.7764 29.2969 27.1367 29.2969H21.8633C21.2236 29.2969 20.7031 28.7764 20.7031 28.1367V22.8633C20.7031 22.2236 21.2236 21.7031 21.8633 21.7031H27.1367C27.7764 21.7031 28.2969 22.2236 28.2969 22.8633V28.1367ZM28.2969 19.4883C28.2969 20.128 27.7764 20.6484 27.1367 20.6484H21.8633C21.2236 20.6484 20.7031 20.128 20.7031 19.4883V14.2148C20.7031 13.5751 21.2236 13.0547 21.8633 13.0547H27.1367C27.7764 13.0547 28.2969 13.5751 28.2969 14.2148V19.4883ZM36.9453 28.1367C36.9453 28.7764 36.4249 29.2969 35.7852 29.2969H30.5117C29.872 29.2969 29.3516 28.7764 29.3516 28.1367V22.8633C29.3516 22.2236 29.872 21.7031 30.5117 21.7031H35.7852C36.4249 21.7031 36.9453 22.2236 36.9453 22.8633V28.1367Z" fill="#FF4F32"/>
<path d="M24.5 16.3674C24.1499 16.3674 23.8652 16.1308 23.8652 15.84C23.8652 15.5492 24.1499 15.3127 24.5 15.3127C24.85 15.3127 25.1348 15.5492 25.1348 15.84C25.1348 16.1312 25.3709 16.3674 25.6621 16.3674C25.9533 16.3674 26.1894 16.1312 26.1894 15.84C26.1894 14.9677 25.4316 14.258 24.5 14.258C23.5684 14.258 22.8105 14.9677 22.8105 15.84C22.8105 16.7124 23.5684 17.4221 24.5 17.4221C24.85 17.4221 25.1348 17.6586 25.1348 17.9494C25.1348 18.2402 24.85 18.4767 24.5 18.4767C24.1499 18.4767 23.8652 18.2402 23.8652 17.9494C23.8652 17.6582 23.6291 17.4221 23.3379 17.4221C23.0467 17.4221 22.8105 17.6582 22.8105 17.9494C22.8105 18.8217 23.5684 19.5314 24.5 19.5314C25.4316 19.5314 26.1894 18.8217 26.1894 17.9494C26.1894 17.0771 25.4316 16.3674 24.5 16.3674Z" fill="#FF4F32"/>
<path d="M33.9873 27.082H32.8547C32.8442 27.082 32.8357 27.0734 32.8357 27.063V26.0273H33.4544C33.7456 26.0273 33.9817 25.7912 33.9817 25.5C33.9817 25.2088 33.7456 24.9727 33.4544 24.9727H32.8357V23.937C32.8356 23.9265 32.8442 23.918 32.8547 23.918H33.9873C34.2785 23.918 34.5146 23.6818 34.5146 23.3906C34.5146 23.0994 34.2785 22.8633 33.9873 22.8633H32.8547C32.2626 22.8633 31.781 23.345 31.781 23.937V27.063C31.781 27.655 32.2627 28.1367 32.8547 28.1367H33.9873C34.2785 28.1367 34.5146 27.9005 34.5146 27.6093C34.5146 27.3181 34.2785 27.082 33.9873 27.082Z" fill="#FF4F32"/>
<path d="M25.494 35.8326H23.9854C23.975 35.8326 23.9664 35.8241 23.9664 35.8136V32.6876C23.9664 32.6772 23.975 32.6686 23.9854 32.6686H25.494C25.7852 32.6686 26.0214 32.4325 26.0214 32.1413C26.0214 31.8501 25.7852 31.6139 25.494 31.6139H23.9854C23.3934 31.6139 22.9117 32.0956 22.9117 32.6876V35.8136C22.9117 36.4057 23.3934 36.8873 23.9854 36.8873H25.494C25.7852 36.8873 26.0214 36.6512 26.0214 36.36C26.0214 36.0688 25.7852 35.8326 25.494 35.8326Z" fill="#FF4F32"/>
<path d="M26.5759 27.4308L24.9938 23.2121C24.9165 23.0064 24.7198 22.87 24.5 22.87C24.2802 22.87 24.0835 23.0064 24.0062 23.2121L22.4242 27.4309C22.322 27.7036 22.4601 28.0076 22.7328 28.1098C23.0058 28.2121 23.3095 28.0739 23.4118 27.8012L23.5471 27.4403H23.6657H25.453L25.5883 27.8012C25.6677 28.013 25.8686 28.1435 26.0822 28.1435C26.1437 28.1435 26.2063 28.1327 26.2673 28.1098C26.54 28.0075 26.6781 27.7036 26.5759 27.4308ZM23.9426 26.3856L24.5 24.8992L25.0574 26.3856H23.9426Z" fill="#FF4F32"/>
<path d="M17.577 24.3397C17.577 23.5256 16.9147 22.8633 16.1006 22.8633H14.6522C14.361 22.8633 14.1249 23.0994 14.1249 23.3906V25.5V27.6094C14.1249 27.9006 14.361 28.1367 14.6522 28.1367H16.1006C16.9147 28.1367 17.577 27.4744 17.577 26.6603V26.4491C17.577 26.0879 17.4465 25.7568 17.2304 25.5C17.4465 25.2432 17.577 24.9121 17.577 24.5509V24.3397ZM16.5223 26.6603C16.5223 26.8928 16.3331 27.082 16.1006 27.082H15.1796V26.0273H16.1006C16.3331 26.0273 16.5223 26.2166 16.5223 26.4491V26.6603ZM16.5223 24.5509C16.5223 24.7834 16.3331 24.9727 16.1006 24.9727H15.1796V23.918H16.1006C16.3331 23.918 16.5223 24.1072 16.5223 24.3397V24.5509Z" fill="#FF4F32"/>
</svg>
