<svg width="98" height="99" viewBox="0 0 98 99" fill="none" xmlns="http://www.w3.org/2000/svg">
<rect y="49.9502" width="69.2284" height="69.2284" rx="34.6142" transform="rotate(-45 0 49.9502)" fill="#FF4F32"/>
<path d="M52.7975 48.4678C53.1613 48.4678 53.4566 48.179 53.4566 47.8232C53.4566 47.4675 53.1613 47.1787 52.7975 47.1787C52.433 47.1787 52.1384 47.4675 52.1384 47.8232C52.1384 48.179 52.433 48.4678 52.7975 48.4678Z" fill="white"/>
<path d="M46.2066 48.4678C46.5704 48.4678 46.8657 48.179 46.8657 47.8232C46.8657 47.4675 46.5704 47.1787 46.2066 47.1787C45.842 47.1787 45.5475 47.4675 45.5475 47.8232C45.5475 48.179 45.842 48.4678 46.2066 48.4678Z" fill="white"/>
<path d="M35 63.9398V65.3545C35 65.7105 35.295 65.999 35.6591 65.999H63.3409C63.705 65.999 64 65.7105 64 65.3545V63.9385C64 61.3753 62.5276 59.0064 59.8027 58.0338C60.7874 57.1926 61.386 55.9604 61.386 54.6281C61.386 54.2723 61.091 53.9836 60.7269 53.9836C59.1415 53.9836 57.8053 52.8871 57.4835 51.4326H59.3884C60.4775 51.4326 61.3636 50.5653 61.3636 49.499V46.5342C61.3636 45.6935 60.8124 44.9767 60.0455 44.7111V43.3115C60.0455 37.6253 55.3157 32.999 49.5021 32.999C43.675 32.999 38.9545 37.6107 38.9545 43.3115V44.7121C38.1876 44.9787 37.6364 45.6953 37.6364 46.5342V49.499C37.6364 50.5653 38.5243 51.4326 39.6157 51.4326H41.5165C41.1952 52.8871 39.8603 53.9836 38.2764 53.9836C37.9124 53.9836 37.6173 54.2723 37.6173 54.6281C37.6173 55.9622 38.2174 57.1956 39.2048 58.0373C36.4904 59.0106 35 61.4035 35 63.9398ZM60.0122 55.2187C59.807 56.2996 59.0465 57.217 57.9837 57.6292L53.9908 57.1221L53.5642 55.4917C54.809 54.7638 55.801 53.7353 56.4658 52.5281C57.086 53.9334 58.4181 54.9758 60.0122 55.2187ZM54.7846 44.6006C52.9638 44.6006 51.4824 43.1338 51.4824 41.3308C51.4824 40.9748 51.1874 40.6863 50.8233 40.6863C50.4595 40.6863 50.1642 40.9748 50.1642 41.3308C50.1642 43.1338 48.6828 44.6006 46.8616 44.6006H42.9112C42.9112 41.0466 45.8678 38.1553 49.5021 38.1553C53.1433 38.1553 56.093 41.037 56.093 44.6006H54.7846ZM42.9091 45.8896H46.8616C48.5412 45.8896 50.0144 45.0012 50.8233 43.6753C51.6323 45.0012 53.1052 45.8896 54.7846 45.8896H56.0909V48.8545C56.0909 51.2924 54.7102 53.4946 52.4878 54.6016C51.5579 55.0649 50.5533 55.2998 49.5021 55.2998C48.4537 55.2998 47.4522 55.0667 46.5248 54.6069C45.9025 54.2985 45.3359 53.8967 44.8403 53.4118C43.595 52.1947 42.9091 50.5761 42.9091 48.8545V45.8896ZM46.6605 56.0748C47.5629 56.4156 48.5155 56.5889 49.5021 56.5889C50.4925 56.5889 51.4487 56.4141 52.3549 56.0697L52.7733 57.6697C52.5537 59.2654 51.1694 60.4561 49.5085 60.4561C47.8479 60.4561 46.4635 59.2659 46.2434 57.6707L46.6605 56.0748ZM60.0455 49.499C60.0455 49.8545 59.7507 50.1436 59.3884 50.1436H57.4091V45.8896H59.3884C59.7507 45.8896 60.0455 46.1787 60.0455 46.5342V49.499ZM49.5021 34.2881C54.5889 34.2881 58.7273 38.336 58.7273 43.3115V44.6006H57.4111C57.4111 40.3273 53.8745 36.8662 49.5021 36.8662C45.141 36.8662 41.593 40.3359 41.593 44.6006H40.2727V43.3115C40.2727 38.326 44.4011 34.2881 49.5021 34.2881ZM38.9545 49.499V46.5342C38.9545 46.1794 39.2506 45.8904 39.6157 45.8896H41.5909V50.1436H39.6157C39.2511 50.1436 38.9545 49.8545 38.9545 49.499ZM42.5353 52.5263C42.8965 53.1789 43.3563 53.7841 43.9083 54.3234C44.3727 54.7779 44.8905 55.1706 45.4507 55.4977L45.0262 57.1224L41.0222 57.6304C39.9581 57.218 39.1966 56.3001 38.9911 55.2187C40.5848 54.9755 41.9161 53.9322 42.5353 52.5263ZM40.9524 58.9389L41.025 58.9298C41.0255 58.9296 41.0266 58.9296 41.0271 58.9296L45.0555 58.4185C45.5892 60.3579 47.3878 61.7451 49.5085 61.7451C51.6292 61.7451 53.4275 60.3579 53.961 58.4182C54.1618 58.4439 52.9028 58.284 58.0638 58.9391C60.9532 59.3062 62.6818 61.4239 62.6818 63.9385V64.71H36.3182V63.9398C36.3182 61.4722 38.0457 59.308 40.9524 58.9389Z" fill="white"/>
<path d="M47.74 52.8979C48.2933 53.153 48.8862 53.2824 49.5018 53.2824C50.1032 53.2824 50.6843 53.1583 51.2296 52.9135C51.5604 52.7653 51.7054 52.3826 51.5535 52.059C51.4018 51.7355 51.0105 51.5935 50.6796 51.7421C50.3081 51.9087 49.9119 51.9933 49.502 51.9933C49.0821 51.9933 48.6782 51.9055 48.302 51.732C47.9727 51.5802 47.5801 51.7181 47.4249 52.0402C47.2696 52.3622 47.4107 52.7464 47.74 52.8979Z" fill="white"/>
<path d="M55.4339 63.0342H58.0702C58.4343 63.0342 58.7293 62.7457 58.7293 62.3896C58.7293 62.0336 58.4343 61.7451 58.0702 61.7451H55.4339C55.0698 61.7451 54.7748 62.0336 54.7748 62.3896C54.7748 62.7457 55.0698 63.0342 55.4339 63.0342Z" fill="white"/>
<path d="M60.7045 61.7451C61.0683 61.7451 61.3636 62.0339 61.3636 62.3896C61.3636 62.7454 61.0683 63.0342 60.7045 63.0342C60.3408 63.0342 60.0455 62.7454 60.0455 62.3896C60.0455 62.0339 60.3408 61.7451 60.7045 61.7451Z" fill="white"/>
</svg>
