<svg width="21" height="21" viewBox="0 0 21 21" fill="none" xmlns="http://www.w3.org/2000/svg">
<g clip-path="url(#clip0)">
<path d="M20.4615 17.0373L4.0038 0.579585C3.28603 -0.138182 2.12235 -0.138182 1.4057 0.579585L0.538326 1.44562C-0.179442 2.16361 -0.179442 3.32729 0.538326 4.04393L16.9961 20.5017C17.7141 21.2194 18.8777 21.2194 19.5944 20.5017L20.4604 19.6356C21.1795 18.919 21.1795 17.7551 20.4615 17.0373Z" fill="#F44336"/>
<path d="M16.996 0.58015L0.538325 17.0379C-0.179442 17.7557 -0.179442 18.9196 0.538325 19.6362L1.40436 20.5022C2.12235 21.22 3.28603 21.22 4.00267 20.5022L20.4615 4.04562C21.1795 3.32785 21.1795 2.16417 20.4615 1.44753L19.5955 0.581495C18.8777 -0.137618 17.714 -0.137618 16.996 0.58015Z" fill="#F44336"/>
</g>
<defs>
<clipPath id="clip0">
<rect width="21" height="21" fill="white"/>
</clipPath>
</defs>
</svg>
