<svg width="347" height="25" viewBox="0 0 347 25" fill="none" xmlns="http://www.w3.org/2000/svg">
<path d="M328.254 24.325V1.16064H346.188V24.325L336.965 15.2607L328.254 24.325Z" stroke="black" stroke-linecap="round" stroke-linejoin="round"/>
<path d="M91.4387 10.9145L82.1987 2.9751H105.761L93.2867 22.5901L91.4387 10.9145Z" stroke="black" stroke-linecap="round" stroke-linejoin="round"/>
<path d="M91.8996 10.914L105.298 2.97461" stroke="black"/>
<path d="M64.7669 23.6588L62.8135 18.307C63.7926 16.6031 64.331 14.6056 64.2571 12.4698C64.0594 6.75878 59.414 2.13757 53.8038 2.06961C47.7171 1.9968 42.793 7.15683 43.1003 13.4091C43.3695 18.9016 47.7529 23.3602 53.1415 23.6321C55.1998 23.734 57.1342 23.2389 58.797 22.2996L64.3715 24.0811C64.624 24.1636 64.8598 23.9112 64.7669 23.6588Z" stroke="black" stroke-miterlimit="10"/>
<path d="M22.8891 5.89123C19.1746 1.28742 13.3613 6.42011 12.8166 6.9187V6.8721C12.8166 6.8721 6.60224 0.972886 2.70316 5.80736C0.0209714 9.13207 2.27018 13.44 4.86805 16.5294C8.25212 20.5507 12.3358 23.6518 12.7756 23.9803V24.0968C12.7756 24.0968 17.1441 20.8723 20.7219 16.6156C23.322 13.5239 25.569 9.21595 22.8891 5.89123Z" stroke="black" stroke-miterlimit="10" stroke-linecap="round" stroke-linejoin="round"/>
</svg>
