<svg width="80" height="80" viewBox="0 0 80 80" fill="none" xmlns="http://www.w3.org/2000/svg">
<circle cx="40" cy="40" r="38.5" stroke="#00AA63" stroke-width="3"/>
<g clip-path="url(#clip0)">
<path d="M40 54C36.6225 54 33.875 51.2525 33.875 47.875C33.875 44.4975 36.6225 41.75 40 41.75C43.3775 41.75 46.125 44.4975 46.125 47.875C46.125 51.2525 43.3775 54 40 54ZM40 44.375C38.0697 44.375 36.5 45.9447 36.5 47.875C36.5 49.8053 38.0697 51.375 40 51.375C41.9302 51.375 43.5 49.8053 43.5 47.875C43.5 45.9447 41.9302 44.375 40 44.375Z" fill="black"/>
<path d="M40 61C31.7032 61 23.9245 56.3485 19.1907 48.5575C18.937 48.1393 18.937 47.6125 19.1907 47.1943C23.1667 40.6475 29.3967 36.234 36.2847 35.0843C36.9987 34.96 37.676 35.4483 37.795 36.1623C37.914 36.878 37.431 37.5535 36.717 37.6725C30.823 38.656 25.4505 42.359 21.863 47.875C26.1452 54.4655 32.8722 58.375 40 58.375C47.1295 58.375 53.8565 54.4638 58.1387 47.8733C57.2707 46.531 56.282 45.2885 55.1952 44.172C54.6895 43.6523 54.7 42.821 55.2197 42.3153C55.7412 41.8095 56.5707 41.8218 57.0765 42.3398C58.487 43.7888 59.7435 45.4233 60.8127 47.1995C61.0647 47.6178 61.063 48.141 60.811 48.5575C56.0755 56.3485 48.2967 61 40 61Z" fill="black"/>
<path d="M49.625 41.75C43.353 41.75 38.25 36.647 38.25 30.375C38.25 24.103 43.353 19 49.625 19C55.897 19 61 24.103 61 30.375C61 36.647 55.897 41.75 49.625 41.75ZM49.625 21.625C44.8003 21.625 40.875 25.5503 40.875 30.375C40.875 35.1997 44.8003 39.125 49.625 39.125C54.4498 39.125 58.375 35.1997 58.375 30.375C58.375 25.5503 54.4498 21.625 49.625 21.625Z" fill="black"/>
<path d="M47.875 35.1876C47.5267 35.1876 47.1925 35.0493 46.9475 34.8026L43.4475 31.3026C42.9347 30.7898 42.9347 29.9586 43.4475 29.4458C43.9602 28.9331 44.7915 28.9331 45.3042 29.4458L47.812 31.9536L53.013 26.0106C53.4907 25.4646 54.3185 25.4103 54.8645 25.8863C55.4105 26.3641 55.4665 27.1936 54.9887 27.7378L48.8637 34.7378C48.624 35.0108 48.2827 35.1736 47.9187 35.1858C47.9047 35.1876 47.889 35.1876 47.875 35.1876Z" fill="#00AA63"/>
</g>
<defs>
<clipPath id="clip0">
<rect width="42" height="42" fill="white" transform="translate(19 19)"/>
</clipPath>
</defs>
</svg>
