<svg width="23" height="23" viewBox="0 0 23 23" fill="none" xmlns="http://www.w3.org/2000/svg">
<path d="M15.9798 17.2848C11.5185 17.2848 7.9018 13.6682 7.9018 9.20685C7.9018 6.41895 9.31415 3.96088 11.4624 2.50914C11.2134 2.49103 10.962 2.48169 10.7084 2.48169C5.04239 2.48169 0.449219 7.07486 0.449219 12.7409C0.449219 18.4068 5.04239 23 10.7084 23C15.262 23 19.1227 20.0332 20.463 15.9271C19.1803 16.7846 17.6385 17.2848 15.9798 17.2848Z" fill="black"/>
<path d="M19.7416 4.22297L22.2573 0H17.6544V1.34766H19.8858L17.3701 5.57063H22.5509V4.22297H19.7416Z" fill="black"/>
<path d="M15.8909 5.13257H11.7289V6.48022H13.5195L11.5781 9.73899H15.8467V8.39134H13.9496L15.8909 5.13257Z" fill="black"/>
<path d="M18.3988 12.7918L19.6276 10.7292H16.1499V12.0769H17.2561L16.0273 14.1395H19.6763V12.7918H18.3988Z" fill="black"/>
</svg>
