<svg width="42" height="42" viewBox="0 0 42 42" fill="none" xmlns="http://www.w3.org/2000/svg">
<circle cx="21" cy="21" r="21" fill="#FE5757"/>
<path d="M29.6363 19.1818H22.8181V12.3636C22.8181 11.6109 22.2072 11 21.4545 11H20.5455C19.7927 11 19.1818 11.6109 19.1818 12.3636V19.1818H12.3636C11.6109 19.1818 11 19.7927 11 20.5455V21.4545C11 22.2072 11.6109 22.8181 12.3636 22.8181H19.1818V29.6363C19.1818 30.389 19.7927 30.9999 20.5455 30.9999H21.4545C22.2072 30.9999 22.8181 30.389 22.8181 29.6363V22.8181H29.6363C30.389 22.8181 30.9999 22.2072 30.9999 21.4545V20.5455C30.9999 19.7927 30.389 19.1818 29.6363 19.1818Z" fill="white"/>
</svg>
