<svg width="100" height="100" viewBox="0 0 100 100" fill="none" xmlns="http://www.w3.org/2000/svg">
<circle cx="50" cy="50" r="50" fill="white"/>
<path d="M25.5953 37.9417L28.4642 49.4184L25.0877 56.1719L27.5486 61.0937H25.2812V64.375H28.5625V70.9375H25.2812V74.2187H74.7188V70.9375H71.4375V64.375H74.7188V61.0937H72.4514L74.9123 56.1719L71.5358 49.4184L74.4047 37.9417C76.476 37.3611 78 35.4573 78 33.2031C78 30.4893 75.792 28.2812 73.0781 28.2812C70.3643 28.2812 68.1562 30.4893 68.1562 33.2031C68.1562 33.9593 68.328 34.6763 68.6343 35.3171L60.2539 43.6138L54.2575 32.3867C54.6792 31.6612 54.9219 30.8195 54.9219 29.9219C54.9219 27.208 52.7139 25 50 25C47.2861 25 45.0781 27.208 45.0781 29.9219C45.0781 30.8195 45.3208 31.6612 45.7425 32.3867L39.7461 43.6134L31.3657 35.3171C31.672 34.6763 31.8438 33.9593 31.8438 33.2031C31.8438 30.4893 29.6357 28.2812 26.9219 28.2812C24.208 28.2812 22 30.4893 22 33.2031C22 35.4573 23.524 37.3611 25.5953 37.9417ZM31.6502 56.1719L30.2031 59.066L28.756 56.1719L30.2031 53.2777L31.6502 56.1719ZM31.8438 70.9375V64.375H68.1562V70.9375H31.8438ZM71.244 56.1719L69.7969 59.066L68.3498 56.1719L69.7969 53.2777L71.244 56.1719ZM73.0781 31.5625C73.9826 31.5625 74.7188 32.2986 74.7188 33.2031C74.7188 34.1076 73.9826 34.8437 73.0781 34.8437C72.1736 34.8437 71.4375 34.1076 71.4375 33.2031C71.4375 32.2986 72.1736 31.5625 73.0781 31.5625ZM50 28.2812C50.9045 28.2812 51.6406 29.0174 51.6406 29.9219C51.6406 30.8264 50.9045 31.5625 50 31.5625C49.0955 31.5625 48.3594 30.8264 48.3594 29.9219C48.3594 29.0174 49.0955 28.2812 50 28.2812ZM40.5664 49.0428L48.3098 34.5447C48.837 34.7382 49.4066 34.8437 50 34.8437C50.5934 34.8437 51.163 34.7382 51.6902 34.5447L59.4336 49.0428L70.9509 37.6409C70.9944 37.6619 71.0389 37.6811 71.0829 37.7007L68.249 49.0369L64.6815 56.1719L67.1424 61.0937H52.6545L55.1154 56.1719L50 45.941L44.8846 56.1719L47.3455 61.0937H32.8576L35.3185 56.1719L31.751 49.0369L28.9171 37.7007C28.9611 37.6811 29.006 37.6619 29.0491 37.6409L40.5664 49.0428ZM48.5529 56.1719L50 53.2777L51.4471 56.1719L50 59.066L48.5529 56.1719ZM26.9219 31.5625C27.8264 31.5625 28.5625 32.2986 28.5625 33.2031C28.5625 34.1076 27.8264 34.8437 26.9219 34.8437C26.0174 34.8437 25.2812 34.1076 25.2812 33.2031C25.2812 32.2986 26.0174 31.5625 26.9219 31.5625Z" fill="#FE5757"/>
</svg>
