<svg width="100" height="100" viewBox="0 0 100 100" fill="none" xmlns="http://www.w3.org/2000/svg">
<circle cx="50" cy="50" r="50" fill="white"/>
<path d="M67.4385 20V23.6735H71.5823L63.4984 31.3386C60.6366 28.4101 56.646 26.589 52.2377 26.589C46.3076 26.589 41.1331 29.8834 38.4462 34.7376C38.2161 34.7275 37.9847 34.7214 37.752 34.7214C29.0663 34.7214 22 41.7877 22 50.4736C22 58.5379 28.0919 65.2052 35.9152 66.1179V70.9995H30.4159V74.673H35.9154V80H39.5889V74.6729H45.3284V70.9994H39.5889V66.1177C44.7391 65.5169 49.1383 62.4225 51.5436 58.0768C51.7737 58.0869 52.0049 58.093 52.2375 58.093C60.9234 58.093 67.9896 51.0267 67.9896 42.341C67.9896 39.3894 67.173 36.6253 65.7548 34.2616L74.5343 25.9368V30.4993H78.2078V20H67.4385ZM37.7522 62.552C31.0921 62.552 25.6737 57.1336 25.6737 50.4733C25.6737 44.0727 30.6782 38.82 36.9796 38.4202C36.6572 39.6741 36.4857 40.9878 36.4857 42.341C36.4857 49.4266 41.1886 55.4339 47.6369 57.4068C45.4495 60.5162 41.8343 62.552 37.7522 62.552ZM49.2889 54.0547C44.0495 52.7352 40.1593 47.9841 40.1593 42.341C40.1593 41.0946 40.3491 39.8916 40.7012 38.7596C45.9406 40.0791 49.8309 44.8303 49.8309 50.4734C49.8309 51.7198 49.6409 52.9227 49.2889 54.0547ZM53.0104 54.3939C53.3328 53.14 53.5043 51.8265 53.5043 50.4733C53.5043 43.3877 48.8014 37.3804 42.3532 35.4073C44.5407 32.2981 48.1559 30.2622 52.2379 30.2622C58.8981 30.2622 64.3165 35.6806 64.3165 42.3409C64.3163 48.7415 59.3118 53.9943 53.0104 54.3939Z" fill="#FE5757"/>
</svg>
