<svg width="43" height="43" viewBox="0 0 43 43" fill="none" xmlns="http://www.w3.org/2000/svg">
<circle cx="21.5" cy="21.5" r="21" stroke="#FFE500"/>
<g clip-path="url(#clip0)">
<path d="M13.584 18.5839C14.0442 18.5839 14.4173 18.2108 14.4173 17.7506C14.4173 17.2903 14.0442 16.9172 13.584 16.9172C13.1238 16.9172 12.7507 17.2903 12.7507 17.7506C12.7507 18.2108 13.1238 18.5839 13.584 18.5839Z" fill="white"/>
<path d="M14.7927 21.0835H12.3753C12.1229 21.0835 11.9174 21.2735 11.9174 21.5068V23.2651C12.4349 23.468 12.9957 23.5834 13.584 23.5834C14.1724 23.5834 14.7332 23.468 15.2506 23.2651V21.5068C15.2506 21.2735 15.0452 21.0835 14.7927 21.0835Z" fill="white"/>
<path d="M23.5837 13.1671C24.0439 13.1671 24.417 12.794 24.417 12.3338C24.417 11.8736 24.0439 11.5005 23.5837 11.5005C23.1235 11.5005 22.7504 11.8736 22.7504 12.3338C22.7504 12.794 23.1235 13.1671 23.5837 13.1671Z" fill="white"/>
<path d="M24.7924 15.667H22.375C22.1225 15.667 21.9171 15.857 21.9171 16.0903V17.8486C22.4345 18.0515 22.9954 18.1669 23.5837 18.1669C24.172 18.1669 24.7328 18.0515 25.2503 17.8486V16.0903C25.2503 15.857 25.0448 15.667 24.7924 15.667Z" fill="white"/>
<path d="M29.0002 24.0001C29.4604 24.0001 29.8335 23.627 29.8335 23.1668C29.8335 22.7066 29.4604 22.3335 29.0002 22.3335C28.5399 22.3335 28.1668 22.7066 28.1668 23.1668C28.1668 23.627 28.5399 24.0001 29.0002 24.0001Z" fill="white"/>
<path d="M30.2089 26.5H27.7915C27.539 26.5 27.3336 26.69 27.3336 26.9233V28.6816C27.851 28.8845 28.4118 28.9999 29.0002 28.9999C29.5885 28.9999 30.1493 28.8845 30.6667 28.6816V26.9233C30.6667 26.6904 30.4613 26.5 30.2089 26.5Z" fill="white"/>
<path d="M29.0002 19.8339C28.9444 19.8339 28.8902 19.8401 28.8352 19.8422L27.0682 16.5515C27.7023 15.8091 28.1002 14.8628 28.1543 13.8253L30.7755 15.0907C30.7084 15.2711 30.6668 15.464 30.6668 15.6674C30.6668 16.5865 31.4142 17.334 32.3334 17.334C33.2525 17.334 34 16.5865 34 15.6674C34 14.7482 33.2525 14.0008 32.3334 14.0008C31.9238 14.0008 31.5534 14.1549 31.263 14.4007L28.1056 12.8762C27.7206 10.4108 25.3703 8.588 22.7107 9.08174C20.8916 9.41922 19.4283 10.8779 19.0846 12.6958C19.0404 12.9291 19.0154 13.1599 19.0058 13.3874L16.5363 15.5003C15.838 14.9103 14.9622 14.5253 14.0006 14.4382V12.2745C14.7172 12.0883 15.2505 11.4417 15.2505 10.6671C15.2505 9.74792 14.503 9.00049 13.5839 9.00049C12.6648 9.00049 11.9173 9.74797 11.9173 10.6671C11.9173 11.4416 12.4507 12.0883 13.1673 12.2745V14.4382C10.8349 14.6499 9.00078 16.6136 9.00078 19.0002C9.00078 20.6051 9.83161 22.0176 11.0841 22.8367V21.5068C11.0841 20.8139 11.6636 20.2502 12.3753 20.2502H14.7927C15.5047 20.2502 16.0839 20.8139 16.0839 21.5068V22.8367C17.1247 22.1564 17.8659 21.0631 18.0896 19.7931L19.97 21.2589C19.8829 21.461 19.8333 21.683 19.8333 21.9168C19.8333 22.8359 20.5808 23.5834 21.4999 23.5834C22.419 23.5834 23.1665 22.8359 23.1665 21.9168C23.1665 20.9976 22.419 20.2502 21.4999 20.2502C21.1166 20.2502 20.7674 20.3856 20.4854 20.6039L18.1558 18.7882C18.1092 17.7686 17.733 16.8336 17.1242 16.0937L19.0783 14.4212C19.3112 15.6728 20.0541 16.747 21.0832 17.4198V16.0899C21.0832 15.397 21.6628 14.8333 22.3744 14.8333H24.7918C25.5038 14.8333 26.083 15.397 26.083 16.0899V16.5266C26.083 16.7011 26.1839 16.8357 26.3168 16.9053L27.9559 19.9581C25.9309 20.4327 24.4168 22.2493 24.4168 24.4167C24.4168 24.9346 24.5114 25.4288 24.6706 25.8929L22.9836 27.1583C22.1944 25.7721 20.7062 24.8334 19 24.8334C16.6134 24.8334 14.6493 26.6675 14.4381 28.9999H12.2741C12.0878 28.2833 11.4407 27.75 10.6666 27.75C9.74748 27.7499 9 28.4973 9 29.4165C9 30.3357 9.74748 31.0831 10.6666 31.0831C11.4407 31.0831 12.0878 30.5498 12.2741 29.8331H14.4436C14.574 31.2631 15.3577 32.506 16.5002 33.2531V31.9231C16.5002 31.2302 17.0798 30.6665 17.7914 30.6665H20.2088C20.9208 30.6665 21.5 31.2302 21.5 31.9231V33.2531C22.4779 32.6139 23.1921 31.6102 23.4612 30.4382L26.1919 31.7569C26.1248 31.9373 26.0832 32.1302 26.0832 32.3335C26.0832 33.2527 26.8307 34.0001 27.7498 34.0001C28.6689 34.0001 29.4164 33.2526 29.4164 32.3335C29.4164 31.4144 28.6689 30.6669 27.7498 30.6669C27.3402 30.6669 26.9698 30.8211 26.6794 31.0669L23.5737 29.5674C23.5753 29.5166 23.5833 29.4678 23.5833 29.4169C23.5833 28.8987 23.4928 28.4024 23.3337 27.9374L25.0174 26.6745C25.3803 27.3103 25.8886 27.8532 26.5002 28.2532V26.9233C26.5002 26.2304 27.0798 25.6666 27.7915 25.6666H30.2089C30.9209 25.6666 31.5001 26.2304 31.5001 26.9233V28.2532C32.7525 27.4341 33.5834 26.0216 33.5834 24.4167C33.5834 21.89 31.5272 19.8339 29.0002 19.8339ZM13.584 19.4172C12.6649 19.4172 11.9174 18.6697 11.9174 17.7506C11.9174 16.8315 12.6649 16.084 13.584 16.084C14.5031 16.084 15.2506 16.8315 15.2506 17.7506C15.2506 18.6697 14.5027 19.4172 13.584 19.4172ZM23.5837 14.0008C22.6645 14.0008 21.9171 13.2533 21.9171 12.3342C21.9171 11.4151 22.6646 10.6676 23.5837 10.6676C24.5028 10.6676 25.2503 11.4151 25.2503 12.3342C25.2503 13.2533 24.5024 14.0008 23.5837 14.0008ZM19.0005 29.8335C18.0813 29.8335 17.3339 29.0861 17.3339 28.1669C17.3339 27.2478 18.0814 26.5003 19.0005 26.5003C19.9196 26.5003 20.6671 27.2478 20.6671 28.1669C20.6671 29.0861 19.9192 29.8335 19.0005 29.8335ZM29.0002 24.8337C28.081 24.8337 27.3336 24.0862 27.3336 23.1671C27.3336 22.2479 28.0811 21.5005 29.0002 21.5005C29.9193 21.5005 30.6668 22.248 30.6668 23.1671C30.6668 24.0867 29.9189 24.8337 29.0002 24.8337Z" fill="white"/>
<path d="M19.0005 29.0001C19.4607 29.0001 19.8338 28.6271 19.8338 28.1668C19.8338 27.7066 19.4607 27.3335 19.0005 27.3335C18.5403 27.3335 18.1672 27.7066 18.1672 28.1668C18.1672 28.6271 18.5403 29.0001 19.0005 29.0001Z" fill="white"/>
<path d="M20.2092 31.5H17.7918C17.5393 31.5 17.3339 31.69 17.3339 31.9233V33.6816C17.8514 33.8845 18.4122 33.9999 19.0005 33.9999C19.5888 33.9999 20.1497 33.8845 20.6671 33.6816V31.9233C20.6671 31.6904 20.4617 31.5 20.2092 31.5Z" fill="white"/>
</g>
<defs>
<clipPath id="clip0">
<rect x="9" y="9" width="25" height="25" fill="white"/>
</clipPath>
</defs>
</svg>
