<svg width="26" height="26" viewBox="0 0 26 26" fill="none" xmlns="http://www.w3.org/2000/svg">
<path d="M25.6743 12.7974C26.1456 12.279 26.1001 11.4846 25.5727 11.0233L13.9529 0.856C13.4255 0.394773 12.5799 0.404435 12.0636 0.877782L0.404374 11.5654C-0.111942 12.0388 -0.137283 12.8322 0.348267 13.3369L0.640581 13.6414C1.12554 14.1461 1.90942 14.2062 2.39031 13.7754L3.26166 12.995V24.4191C3.26166 25.12 3.82959 25.6874 4.52999 25.6874H9.07479C9.77519 25.6874 10.3431 25.12 10.3431 24.4191V16.4269H16.1401V24.4191C16.13 25.1195 16.6311 25.6869 17.3315 25.6869H22.1479C22.8483 25.6869 23.4162 25.1195 23.4162 24.4186V13.1559C23.4162 13.1559 23.6569 13.3668 23.9538 13.6277C24.2502 13.8882 24.8727 13.6793 25.344 13.1605L25.6743 12.7974Z" fill="#010002"/>
</svg>
