<svg width="67" height="67" viewBox="0 0 67 67" fill="none" xmlns="http://www.w3.org/2000/svg">
<path d="M46.5 34.485C46.2501 34.485 46.0001 34.735 46.0001 34.985C46.0001 35.285 46.2 35.4849 46.5 35.4849C46.8 35.4849 47 35.285 47 34.985C47 34.685 46.8 34.485 46.5 34.485Z" fill="white"/>
<path d="M48 32.985C47.75 32.985 47.5 33.235 47.5 33.485C47.5 33.785 47.7 33.985 48 33.985C48.3 33.985 48.5 33.785 48.5 33.485C48.5 33.185 48.3 32.985 48 32.985Z" fill="white"/>
<path d="M45 32.985C44.75 32.985 44.5001 33.235 44.5001 33.485C44.5001 33.785 44.7 33.985 45 33.985C45.3 33.985 45.5 33.785 45.5 33.485C45.5 33.185 45.3 32.985 45 32.985Z" fill="white"/>
<path d="M43.5 34.485C43.25 34.485 43 34.735 43 34.985C43 35.285 43.2 35.4849 43.5 35.4849C43.8 35.4849 44 35.285 44 34.985C44 34.685 43.8 34.485 43.5 34.485Z" fill="white"/>
<path d="M40.5 34.485C40.25 34.485 40.0001 34.735 40.0001 34.985C40.0001 35.285 40.2 35.4849 40.5 35.4849C40.8 35.4849 41 35.285 41 34.985C41 34.685 40.8 34.485 40.5 34.485Z" fill="white"/>
<path d="M42 32.985C41.7501 32.985 41.5001 33.235 41.5001 33.485C41.5001 33.785 41.7 33.985 42 33.985C42.3 33.985 42.5 33.785 42.5 33.485C42.5 33.185 42.3 32.985 42 32.985Z" fill="white"/>
<path d="M38.9999 32.985C38.75 32.985 38.5 33.235 38.5 33.485C38.5 33.785 38.6999 33.985 38.9999 33.985C39.2999 33.985 39.4999 33.785 39.4999 33.485C39.4999 33.185 39.2999 32.985 38.9999 32.985Z" fill="white"/>
<path d="M37.5 34.485C37.25 34.485 37 34.735 37 34.985C37 35.285 37.2 35.4849 37.5 35.4849C37.8 35.4849 37.9999 35.285 37.9999 34.985C37.9999 34.685 37.8 34.485 37.5 34.485Z" fill="white"/>
<path d="M34.5 34.485C34.25 34.485 34 34.735 34 34.985C34 35.285 34.2 35.4849 34.5 35.4849C34.8 35.4849 34.9999 35.285 34.9999 34.985C34.9999 34.685 34.8 34.485 34.5 34.485Z" fill="white"/>
<path d="M36 32.985C35.75 32.985 35.5001 33.235 35.5001 33.485C35.5001 33.785 35.7 33.985 36 33.985C36.3 33.985 36.5 33.785 36.5 33.485C36.5 33.185 36.3 32.985 36 32.985Z" fill="white"/>
<path d="M46.5 31.485C46.2501 31.4849 46.0001 31.7349 46.0001 31.985C46.0001 32.285 46.2 32.4849 46.5 32.4849C46.8 32.4849 47 32.285 47 31.985C47 31.685 46.8 31.485 46.5 31.485Z" fill="white"/>
<path d="M46.5 28.485C46.2501 28.485 46.0001 28.735 46.0001 28.985C46.0001 29.285 46.2 29.485 46.5 29.485C46.8 29.485 47 29.285 47 28.985C47 28.685 46.8 28.485 46.5 28.485Z" fill="white"/>
<path d="M48 29.985C47.75 29.985 47.5 30.235 47.5 30.485C47.5 30.785 47.7 30.9849 48 30.9849C48.3 30.9849 48.5 30.785 48.5 30.485C48.5 30.185 48.3 29.985 48 29.985Z" fill="white"/>
<path d="M45 29.985C44.75 29.985 44.5001 30.235 44.5001 30.485C44.5001 30.785 44.7 30.9849 45 30.9849C45.3 30.9849 45.5 30.785 45.5 30.485C45.5 30.185 45.3 29.985 45 29.985Z" fill="white"/>
<path d="M43.5 31.485C43.25 31.4849 43 31.7349 43 31.985C43 32.285 43.2 32.4849 43.5 32.4849C43.8 32.4849 44 32.285 44 31.985C44 31.685 43.8 31.485 43.5 31.485Z" fill="white"/>
<path d="M40.5 31.485C40.25 31.4849 40.0001 31.7349 40.0001 31.985C40.0001 32.285 40.2 32.4849 40.5 32.4849C40.8 32.4849 41 32.285 41 31.985C41 31.685 40.8 31.485 40.5 31.485Z" fill="white"/>
<path d="M43.5 28.485C43.25 28.485 43 28.735 43 28.985C43 29.285 43.2 29.485 43.5 29.485C43.8 29.485 44 29.285 44 28.985C44 28.685 43.8 28.485 43.5 28.485Z" fill="white"/>
<path d="M40.5 28.485C40.25 28.485 40.0001 28.735 40.0001 28.985C40.0001 29.285 40.2 29.485 40.5 29.485C40.8 29.485 41 29.285 41 28.985C41 28.685 40.8 28.485 40.5 28.485Z" fill="white"/>
<path d="M42 29.985C41.7501 29.985 41.5001 30.235 41.5001 30.485C41.5001 30.785 41.7 30.9849 42 30.9849C42.3 30.9849 42.5 30.785 42.5 30.485C42.5 30.185 42.3 29.985 42 29.985Z" fill="white"/>
<path d="M38.9999 29.985C38.75 29.985 38.5 30.235 38.5 30.485C38.5 30.785 38.6999 30.9849 38.9999 30.9849C39.2999 30.9849 39.4999 30.785 39.4999 30.485C39.4999 30.185 39.2999 29.985 38.9999 29.985Z" fill="white"/>
<path d="M37.5 31.485C37.25 31.4849 37 31.7349 37 31.985C37 32.285 37.2 32.4849 37.5 32.4849C37.8 32.4849 37.9999 32.285 37.9999 31.985C38 31.685 37.8 31.485 37.5 31.485Z" fill="white"/>
<path d="M34.5 31.485C34.25 31.4849 34 31.7349 34 31.985C34 32.285 34.2 32.4849 34.5 32.4849C34.8 32.4849 34.9999 32.285 34.9999 31.985C34.9999 31.685 34.8 31.485 34.5 31.485Z" fill="white"/>
<path d="M37.5 28.485C37.25 28.485 37 28.735 37 28.985C37 29.285 37.2 29.485 37.5 29.485C37.8 29.485 37.9999 29.285 37.9999 28.985C37.9999 28.685 37.8 28.485 37.5 28.485Z" fill="white"/>
<path d="M34.5 28.485C34.25 28.485 34 28.735 34 28.985C34 29.285 34.2 29.485 34.5 29.485C34.8 29.485 34.9999 29.285 34.9999 28.985C34.9999 28.685 34.8 28.485 34.5 28.485Z" fill="white"/>
<path d="M36 29.985C35.75 29.985 35.5001 30.235 35.5001 30.485C35.5001 30.785 35.7 30.9849 36 30.9849C36.3 30.9849 36.5 30.785 36.5 30.485C36.5 30.185 36.3 29.985 36 29.985Z" fill="white"/>
<path d="M46.5 25.485C46.2501 25.485 46.0001 25.735 46.0001 25.985C46.0001 26.285 46.2 26.4849 46.5 26.4849C46.8 26.4849 47 26.285 47 25.985C47 25.685 46.8 25.485 46.5 25.485Z" fill="white"/>
<path d="M48 26.985C47.75 26.985 47.5 27.235 47.5 27.485C47.5 27.785 47.7 27.985 48 27.985C48.3 27.985 48.5 27.785 48.5 27.485C48.5 27.185 48.3 26.985 48 26.985Z" fill="white"/>
<path d="M45 26.985C44.75 26.985 44.5001 27.235 44.5001 27.485C44.5001 27.785 44.7 27.985 45 27.985C45.3 27.985 45.5 27.785 45.5 27.485C45.5 27.185 45.3 26.985 45 26.985Z" fill="white"/>
<path d="M48 23.985C47.75 23.985 47.5 24.235 47.5 24.485C47.5 24.785 47.7 24.985 48 24.985C48.3 24.985 48.5 24.785 48.5 24.485C48.5 24.185 48.3 23.985 48 23.985Z" fill="white"/>
<path d="M45 23.985C44.75 23.985 44.5001 24.235 44.5001 24.485C44.5001 24.785 44.7 24.985 45 24.985C45.3 24.985 45.5 24.785 45.5 24.485C45.5 24.185 45.3 23.985 45 23.985Z" fill="white"/>
<path d="M43.5 25.485C43.25 25.485 43 25.735 43 25.985C43 26.285 43.2 26.4849 43.5 26.4849C43.8 26.4849 44 26.285 44 25.985C44 25.685 43.8 25.485 43.5 25.485Z" fill="white"/>
<path d="M40.5 25.485C40.25 25.485 40.0001 25.735 40.0001 25.985C40.0001 26.285 40.2 26.4849 40.5 26.4849C40.8 26.4849 41 26.285 41 25.985C41 25.685 40.8 25.485 40.5 25.485Z" fill="white"/>
<path d="M42 26.985C41.7501 26.985 41.5001 27.235 41.5001 27.485C41.5001 27.785 41.7 27.985 42 27.985C42.3 27.985 42.5 27.785 42.5 27.485C42.5 27.185 42.3 26.985 42 26.985Z" fill="white"/>
<path d="M38.9999 26.985C38.75 26.985 38.5 27.235 38.5 27.485C38.5 27.785 38.6999 27.985 38.9999 27.985C39.2999 27.985 39.4999 27.785 39.4999 27.485C39.4999 27.185 39.2999 26.985 38.9999 26.985Z" fill="white"/>
<path d="M42 23.985C41.7501 23.985 41.5001 24.235 41.5001 24.485C41.5001 24.785 41.7 24.985 42 24.985C42.3 24.985 42.5 24.785 42.5 24.485C42.5 24.185 42.3 23.985 42 23.985Z" fill="white"/>
<path d="M38.9999 23.985C38.75 23.985 38.5 24.235 38.5 24.485C38.5 24.785 38.6999 24.985 38.9999 24.985C39.2999 24.985 39.4999 24.785 39.4999 24.485C39.4999 24.185 39.2999 23.985 38.9999 23.985Z" fill="white"/>
<path d="M37.5 25.485C37.25 25.485 37 25.735 37 25.985C37 26.285 37.2 26.4849 37.5 26.4849C37.8 26.4849 37.9999 26.285 37.9999 25.985C37.9999 25.685 37.8 25.485 37.5 25.485Z" fill="white"/>
<path d="M34.5 25.485C34.25 25.485 34 25.735 34 25.985C34 26.285 34.2 26.4849 34.5 26.4849C34.8 26.4849 34.9999 26.285 34.9999 25.985C34.9999 25.685 34.8 25.485 34.5 25.485Z" fill="white"/>
<path d="M36 26.985C35.75 26.985 35.5001 27.235 35.5001 27.485C35.5001 27.785 35.7 27.985 36 27.985C36.3 27.985 36.5 27.785 36.5 27.485C36.5 27.185 36.3 26.985 36 26.985Z" fill="white"/>
<path d="M36 23.985C35.75 23.985 35.5001 24.235 35.5001 24.485C35.5001 24.785 35.7 24.985 36 24.985C36.3 24.985 36.5 24.785 36.5 24.485C36.5 24.185 36.3 23.985 36 23.985Z" fill="white"/>
<path d="M46.5 22.485C46.2501 22.485 46.0001 22.735 46.0001 22.985C46.0001 23.285 46.2 23.485 46.5 23.485C46.8 23.485 47 23.285 47 22.985C47 22.685 46.8 22.485 46.5 22.485Z" fill="white"/>
<path d="M46.5 19.485C46.2501 19.485 46.0001 19.735 46.0001 19.985C46.0001 20.285 46.2 20.485 46.5 20.485C46.8 20.485 47 20.285 47 19.985C47 19.685 46.8 19.485 46.5 19.485Z" fill="white"/>
<path d="M48 20.985C47.75 20.985 47.5 21.2351 47.5 21.485C47.5 21.785 47.7 21.985 48 21.985C48.3 21.985 48.5 21.785 48.5 21.485C48.5 21.185 48.3 20.985 48 20.985Z" fill="white"/>
<path d="M45 20.985C44.75 20.985 44.5001 21.2351 44.5001 21.485C44.5001 21.785 44.7 21.985 45 21.985C45.3 21.985 45.5 21.785 45.5 21.485C45.5 21.185 45.3 20.985 45 20.985Z" fill="white"/>
<path d="M43.5 22.485C43.25 22.485 43 22.735 43 22.985C43 23.285 43.2 23.485 43.5 23.485C43.8 23.485 44 23.285 44 22.985C44 22.685 43.8 22.485 43.5 22.485Z" fill="white"/>
<path d="M40.5 22.485C40.25 22.485 40.0001 22.735 40.0001 22.985C40.0001 23.285 40.2 23.485 40.5 23.485C40.8 23.485 41 23.285 41 22.985C41 22.685 40.8 22.485 40.5 22.485Z" fill="white"/>
<path d="M43.5 19.485C43.25 19.485 43 19.735 43 19.985C43 20.285 43.2 20.485 43.5 20.485C43.8 20.485 44 20.285 44 19.985C44 19.685 43.8 19.485 43.5 19.485Z" fill="white"/>
<path d="M40.5 19.485C40.25 19.485 40.0001 19.735 40.0001 19.985C40.0001 20.285 40.2 20.485 40.5 20.485C40.8 20.485 41 20.285 41 19.985C41 19.685 40.8 19.485 40.5 19.485Z" fill="white"/>
<path d="M42 20.985C41.7501 20.985 41.5001 21.2351 41.5001 21.485C41.5001 21.785 41.7 21.985 42 21.985C42.3 21.985 42.5 21.785 42.5 21.485C42.5 21.185 42.3 20.985 42 20.985Z" fill="white"/>
<path d="M38.9999 20.985C38.75 20.985 38.5 21.2351 38.5 21.485C38.5 21.785 38.6999 21.985 38.9999 21.985C39.2999 21.985 39.4999 21.785 39.4999 21.485C39.4999 21.185 39.2999 20.985 38.9999 20.985Z" fill="white"/>
<path d="M37.5 22.485C37.25 22.485 37 22.735 37 22.985C37 23.285 37.2 23.485 37.5 23.485C37.8 23.485 37.9999 23.285 37.9999 22.985C37.9999 22.685 37.8 22.485 37.5 22.485Z" fill="white"/>
<path d="M34.5 22.485C34.25 22.485 34 22.735 34 22.985C34 23.285 34.2 23.485 34.5 23.485C34.8 23.485 34.9999 23.285 34.9999 22.985C34.9999 22.685 34.8 22.485 34.5 22.485Z" fill="white"/>
<path d="M37.5 19.485C37.25 19.485 37 19.735 37 19.985C37 20.285 37.2 20.485 37.5 20.485C37.8 20.485 37.9999 20.285 37.9999 19.985C38 19.685 37.8 19.485 37.5 19.485Z" fill="white"/>
<path d="M34.5 19.485C34.25 19.485 34 19.735 34 19.985C34 20.285 34.2 20.485 34.5 20.485C34.8 20.485 34.9999 20.285 34.9999 19.985C34.9999 19.685 34.8 19.485 34.5 19.485Z" fill="white"/>
<path d="M36 20.985C35.75 20.985 35.5001 21.2351 35.5001 21.485C35.5001 21.785 35.7 21.985 36 21.985C36.3 21.985 36.5 21.785 36.5 21.485C36.5 21.185 36.3 20.985 36 20.985Z" fill="white"/>
<path d="M49 19.5C49 19.2 48.8 19 48.5 19H34H19.5C19.2 19 19 19.2 19 19.5V48.5C19 48.8 19.2 49 19.5 49H34C34.3 49 34.5 48.8 34.4999 48.4999V42.5H46.5C47.9 42.5 49 40.95 49 39C49 39 49 39 49 38.9999V19.5ZM34.5001 20H48V36.1863C47.8635 36.0444 47.7157 35.9223 47.5591 35.8215C47.5361 35.8066 47.5132 35.7919 47.4898 35.7781C47.4754 35.7696 47.4607 35.7617 47.4461 35.7535C47.4266 35.7426 47.407 35.7317 47.3873 35.7214C47.3687 35.7118 47.35 35.7027 47.3312 35.6937C47.3164 35.6866 47.3016 35.6796 47.2866 35.6728C47.2641 35.6626 47.2415 35.6528 47.2187 35.6435C47.2095 35.6397 47.2003 35.6362 47.191 35.6326C47.0743 35.5869 46.9539 35.5525 46.8305 35.5304C46.8181 35.5281 46.8058 35.5259 46.7934 35.5239C46.7713 35.5204 46.7492 35.5172 46.7269 35.5145C46.7069 35.512 46.6868 35.5101 46.6668 35.5083C46.6499 35.5068 46.633 35.5051 46.6161 35.504C46.5774 35.5016 46.5387 35.5 46.5 35.5H46.5H34.5001V20ZM32 41.4999C31.525 41.4999 31.0853 41.0945 30.8063 40.4825C30.6155 40.0638 30.5 39.5483 30.5 38.9999C30.5 38.7047 30.5335 38.4189 30.5942 38.1527C30.811 37.2019 31.3749 36.5 32 36.5H33.9986C33.9991 36.5 33.9995 36.5 34 36.5H44.739C44.2808 37.1327 44 38.0151 44 39C44 39.9849 44.2808 40.8673 44.7389 41.4999H32ZM33.5001 48H20V20H33.5V35.5H32H32C30.6 35.5 29.5 37.05 29.5 39C29.5 40.95 30.5999 42.5 32 42.5H32H33.5V48H33.5001ZM46.5 41.4999C46.0251 41.4999 45.5853 41.0945 45.3064 40.4825C45.1156 40.0638 45 39.5483 45 38.9999C45 38.7047 45.0335 38.4189 45.0942 38.1527C45.3109 37.2025 45.8742 36.501 46.4987 36.5H46.5001C47.0414 36.5 47.5368 37.0271 47.8006 37.7861C47.9266 38.1486 48.0001 38.5636 48 38.9999C48 40.3499 47.3 41.4999 46.5 41.4999Z" fill="white"/>
<circle cx="33.5" cy="33.5" r="32.5" stroke="#FFBE00" stroke-width="2"/>
</svg>
