<svg width="171" height="25" viewBox="0 0 171 25" fill="none" xmlns="http://www.w3.org/2000/svg">
<path d="M11.8203 19H9.62891V11.0078H2.77344V19H0.582031V1.86719H2.77344V9.08594H9.62891V1.86719H11.8203V19ZM26.2578 12.9766H17.1875C17.25 15.9062 18.5938 17.3711 21.2188 17.3711C22.7422 17.3711 24.1875 17.0742 25.5547 16.4805V18.3555C24.2578 18.9414 22.8359 19.2344 21.2891 19.2344C19.375 19.2344 17.8438 18.6523 16.6953 17.4883C15.5469 16.3164 14.9727 14.707 14.9727 12.6602C14.9727 10.582 15.5 8.9375 16.5547 7.72656C17.6172 6.50781 19.0352 5.89844 20.8086 5.89844C22.4648 5.89844 23.7852 6.42188 24.7695 7.46875C25.7617 8.51562 26.2578 9.91016 26.2578 11.6523V12.9766ZM17.2344 11.2422H23.9492C23.9492 8.85938 22.8867 7.66797 20.7617 7.66797C18.6133 7.66797 17.4375 8.85938 17.2344 11.2422ZM38.3164 19L37.8828 17.2188H37.7891C37.1875 17.9766 36.5703 18.5039 35.9375 18.8008C35.3047 19.0898 34.4883 19.2344 33.4883 19.2344C32.2148 19.2344 31.2148 18.8984 30.4883 18.2266C29.7695 17.5547 29.4102 16.6133 29.4102 15.4023C29.4102 12.8086 31.4023 11.4492 35.3867 11.3242L37.7656 11.2422V10.4336C37.7656 8.58984 36.8125 7.66797 34.9062 7.66797C33.7578 7.66797 32.4766 7.98828 31.0625 8.62891L30.3242 7.02344C31.8555 6.27344 33.3516 5.89844 34.8125 5.89844C36.5859 5.89844 37.8672 6.23828 38.6562 6.91797C39.4531 7.59766 39.8516 8.6875 39.8516 10.1875V19H38.3164ZM37.7422 12.707L35.8438 12.7891C34.3125 12.8516 33.2266 13.0938 32.5859 13.5156C31.9453 13.9297 31.625 14.5664 31.625 15.4258C31.625 16.8164 32.4062 17.5117 33.9688 17.5117C35.1172 17.5117 36.0312 17.1953 36.7109 16.5625C37.3984 15.9219 37.7422 15.0234 37.7422 13.8672V12.707ZM48.4766 2.44141L45.3359 2.19531V0.765625H50.6211V17.3242L54.7461 17.5586V19H44.4453V17.5586L48.4766 17.3242V2.44141ZM68.6094 17.2422V18.8594C67.5938 19.1094 66.6094 19.2344 65.6562 19.2344C62.8281 19.2344 61.4141 17.8906 61.4141 15.2031V7.73828H58.2852V6.63672L61.4141 6.0625L62.3164 2.69922H63.5469V6.13281H68.6797V7.73828H63.5469V15.2031C63.5469 16.7266 64.2969 17.4883 65.7969 17.4883C66.5234 17.4883 67.4609 17.4062 68.6094 17.2422ZM81.4648 19V10.7148C81.4648 8.68359 80.5352 7.66797 78.6758 7.66797C76.2773 7.66797 75.0781 9.22266 75.0781 12.332V19H72.9453V0.765625H75.0781V6.17969L74.9844 7.86719H75.1016C75.9062 6.55469 77.2188 5.89844 79.0391 5.89844C82.0781 5.89844 83.5977 7.46484 83.5977 10.5977V19H81.4648ZM86.4453 6.13281H88.6484L91.7188 13.7969C92.3594 15.3984 92.707 16.5312 92.7617 17.1953H92.832C93.0117 16.3203 93.3633 15.1797 93.8867 13.7734L96.6875 6.13281H98.9023L93.3359 20.6758C92.8125 22.0352 92.2031 23.0547 91.5078 23.7344C90.8125 24.4219 89.8516 24.7656 88.625 24.7656C87.9531 24.7656 87.2969 24.6992 86.6562 24.5664V22.8672C87.1406 22.9609 87.6719 23.0078 88.25 23.0078C89 23.0078 89.582 22.8477 89.9961 22.5273C90.418 22.207 90.793 21.6562 91.1211 20.875L91.8008 19.1172L86.4453 6.13281ZM117.043 19V1.86719H119.234V17.0547H126.676V19H117.043ZM136.145 0.835938C136.973 0.835938 137.387 1.28125 137.387 2.17188C137.387 2.625 137.262 2.96484 137.012 3.19141C136.77 3.41016 136.48 3.51953 136.145 3.51953C135.309 3.51953 134.891 3.07031 134.891 2.17188C134.891 1.28125 135.309 0.835938 136.145 0.835938ZM135.066 7.82031L131.914 7.57422V6.13281H137.199V17.3242L141.324 17.5586V19H131.035V17.5586L135.066 17.3242V7.82031ZM155.375 7.73828H150.816V19H148.684V7.73828H144.969V6.44922L148.684 6.0625V4.9375C148.684 3.42969 149.035 2.33594 149.738 1.65625C150.441 0.976562 151.609 0.636719 153.242 0.636719C154.25 0.636719 155.234 0.773438 156.195 1.04688L155.715 2.72266C154.902 2.50391 154.094 2.39453 153.289 2.39453C152.328 2.39453 151.676 2.58984 151.332 2.98047C150.988 3.37109 150.816 4.01562 150.816 4.91406V6.13281H155.375V7.73828ZM170.398 12.9766H161.328C161.391 15.9062 162.734 17.3711 165.359 17.3711C166.883 17.3711 168.328 17.0742 169.695 16.4805V18.3555C168.398 18.9414 166.977 19.2344 165.43 19.2344C163.516 19.2344 161.984 18.6523 160.836 17.4883C159.688 16.3164 159.113 14.707 159.113 12.6602C159.113 10.582 159.641 8.9375 160.695 7.72656C161.758 6.50781 163.176 5.89844 164.949 5.89844C166.605 5.89844 167.926 6.42188 168.91 7.46875C169.902 8.51562 170.398 9.91016 170.398 11.6523V12.9766ZM161.375 11.2422H168.09C168.09 8.85938 167.027 7.66797 164.902 7.66797C162.754 7.66797 161.578 8.85938 161.375 11.2422Z" fill="#424242"/>
</svg>
