<svg width="32" height="32" viewBox="0 0 32 32" fill="none" xmlns="http://www.w3.org/2000/svg">
<path d="M0 16C0 7.16344 7.16344 0 16 0C24.8366 0 32 7.16344 32 16C32 24.8366 24.8366 32 16 32C7.16344 32 0 24.8366 0 16Z" fill="#4492E0"/>
<path fill-rule="evenodd" clip-rule="evenodd" d="M15.307 21.614C11.2715 21.614 8 18.3426 8 14.307C8 10.2715 11.2715 7 15.307 7C19.3426 7 22.614 10.2715 22.614 14.307C22.614 15.9956 22.0412 17.5504 21.0795 18.7877L26 23.7083L24.7083 25L19.7877 20.0795C18.5504 21.0412 16.9956 21.614 15.307 21.614ZM20.7873 14.307C20.7873 17.3337 18.3337 19.7873 15.307 19.7873C12.2803 19.7873 9.82675 17.3337 9.82675 14.307C9.82675 11.2803 12.2803 8.82675 15.307 8.82675C18.3337 8.82675 20.7873 11.2803 20.7873 14.307Z" fill="white"/>
</svg>
