<svg width="68" height="68" viewBox="0 0 68 68" fill="none" xmlns="http://www.w3.org/2000/svg">
<circle cx="34" cy="34" r="33" stroke="black" stroke-width="2"/>
<path d="M34.9219 41.4375C34.9219 39.8164 32.8903 38.5469 30.2969 38.5469C27.7034 38.5469 25.6719 39.8164 25.6719 41.4375C25.6719 43.0586 27.7034 44.3281 30.2969 44.3281C32.8903 44.3281 34.9219 43.0586 34.9219 41.4375ZM26.8281 41.4375C26.8281 40.6171 28.2526 39.7031 30.2969 39.7031C32.3411 39.7031 33.7656 40.6171 33.7656 41.4375C33.7656 42.2579 32.3411 43.1719 30.2969 43.1719C28.2526 43.1719 26.8281 42.2579 26.8281 41.4375Z" fill="#0077C0"/>
<path d="M22.2031 41.4375H21.0469C21.0469 43.6858 22.132 45.7006 24.1028 47.1106L24.7758 46.17C23.1165 44.9837 22.2031 43.3025 22.2031 41.4375Z" fill="#0077C0"/>
<path d="M38.3906 41.4375C38.3906 45.0629 34.9109 47.7969 30.2969 47.7969C29.136 47.7969 28.03 47.6258 27.0091 47.2893L26.6466 48.3866C27.7843 48.7629 29.0123 48.9531 30.2969 48.9531C35.57 48.9531 39.5469 45.722 39.5469 41.4375H38.3906Z" fill="#0077C0"/>
<path d="M41.2812 23.5156C40.7777 23.5156 40.2805 23.5538 39.7891 23.6145C39.1699 22.6155 38.438 21.6807 37.5963 20.8389C34.8883 18.1315 31.3664 16.5781 27.9335 16.5781C27.6543 16.5781 27.3779 16.5914 27.105 16.6169C24.589 16.8024 22.2864 17.8246 20.5549 19.556C18.0718 22.0385 17.0723 25.5847 17.8117 29.2853C18.1828 31.1417 19.0026 32.9807 20.182 34.6353C18.5424 36.4818 17.5781 38.8215 17.5781 41.4375C17.5781 47.6997 23.046 52.4219 30.2969 52.4219C34.7658 52.4219 38.5519 50.6239 40.8037 47.7813C40.9627 47.7876 41.1205 47.7969 41.2812 47.7969C47.9754 47.7969 53.4219 42.3504 53.4219 35.6562C53.4219 28.9616 47.9754 23.5156 41.2812 23.5156ZM20.5312 21.35C19.8796 22.8988 19.712 24.6805 20.0797 26.5201C20.1207 26.7248 20.1681 26.9289 20.2219 27.1318L21.34 26.8364C21.292 26.6554 21.2504 26.4733 21.2134 26.2924C20.7046 23.7492 21.3591 21.3448 23.0079 19.6965C24.1138 18.5906 25.5892 17.9194 27.2201 17.7673C27.4565 17.7506 27.693 17.7344 27.9335 17.7344C31.0617 17.7344 34.2859 19.1641 36.7788 21.657C37.4454 22.3235 38.0403 23.052 38.5571 23.8272C37.0228 24.1805 35.5867 24.8303 34.316 25.7206C33.931 24.9043 33.3812 24.1232 32.6909 23.4324C31.5832 22.3247 30.2454 21.5691 28.9232 21.3049C27.5126 21.0239 26.2858 21.324 25.4603 22.1495C23.7924 23.8174 24.3561 26.993 26.7431 29.3801C27.2178 29.8548 27.7346 30.2595 28.2723 30.593C26.8015 30.7803 25.4244 31.1584 24.1849 31.7186C23.2501 30.7584 22.4702 29.6432 21.9326 28.4765L20.8827 28.9604C21.4261 30.1409 22.1991 31.2677 23.116 32.2621C22.3413 32.7038 21.6394 33.2229 21.0052 33.8005C19.9825 32.3216 19.2726 30.6948 18.9454 29.0581C18.3748 26.2051 18.9541 23.4647 20.5312 21.35ZM30.3957 30.2918C29.4129 30.0166 28.4 29.4021 27.5606 28.5627C25.6961 26.6982 25.1094 24.136 26.2777 22.967C26.8212 22.423 27.6809 22.2357 28.6966 22.438C29.7968 22.6583 30.9253 23.3017 31.8734 24.2493C32.5383 24.9141 33.0424 25.6703 33.3696 26.4513C32.148 27.5012 31.1317 28.7997 30.3957 30.2918ZM30.2969 51.2656C23.7051 51.2656 18.7344 47.0401 18.7344 41.4375C18.7344 35.8349 23.7051 31.6094 30.2969 31.6094C36.8886 31.6094 41.8594 35.8349 41.8594 41.4375C41.8594 47.0401 36.8886 51.2656 30.2969 51.2656ZM39.3121 33.5478C39.8429 33.0535 40.5459 32.7656 41.2812 32.7656C42.8751 32.7656 44.1719 34.0624 44.1719 35.6562C44.1719 36.794 43.5093 37.7999 42.5115 38.2688C41.9149 36.4333 40.8089 34.822 39.3121 33.5478ZM41.5998 46.6244C42.0438 45.8746 42.3837 45.0664 42.6225 44.2154C46.8266 43.5633 49.9531 39.9558 49.9531 35.6562C49.9531 34.1317 49.5519 32.6321 48.7922 31.3197L47.7921 31.899C48.4488 33.0356 48.7969 34.3347 48.7969 35.6562C48.7969 39.232 46.3046 42.2584 42.885 42.9979C42.9619 42.4885 43.0156 41.9711 43.0156 41.4375C43.0156 40.7357 42.937 40.0564 42.8052 39.3979C44.3124 38.7856 45.3281 37.3218 45.3281 35.6562C45.3281 33.4247 43.5122 31.6094 41.2812 31.6094C40.1857 31.6094 39.1416 32.062 38.3848 32.8367C37.4356 32.1794 36.366 31.6423 35.2005 31.2452C36.6059 29.316 38.8722 28.1406 41.2812 28.1406C42.8277 28.1406 44.3124 28.6066 45.5756 29.4877L46.2375 28.539C44.7789 27.522 43.0653 26.9844 41.2812 26.9844C38.3646 26.9844 35.6272 28.4765 34.0316 30.9023C33.247 30.7081 32.4278 30.5722 31.578 30.5052C33.4731 26.9358 37.1945 24.6719 41.2812 24.6719C47.3383 24.6719 52.2656 29.5992 52.2656 35.6562C52.2656 41.6057 47.5082 46.4539 41.5998 46.6244Z" fill="#0077C0"/>
</svg>
