<svg width="68" height="68" viewBox="0 0 68 68" fill="none" xmlns="http://www.w3.org/2000/svg">
<circle cx="34" cy="34" r="33" stroke="black" stroke-width="2"/>
<path d="M46.2187 32.4062V34C46.2187 40.7373 40.7373 46.2188 34 46.2188C31.5807 46.2188 29.2687 45.5239 27.2754 44.2032L29.486 41.9698L18.9093 39.0899L21.7228 49.8095L24.2415 47.2658C27.047 49.3345 30.4932 50.4688 34 50.4688C43.0806 50.4688 50.4687 43.0807 50.4687 34V32.4062H46.2187ZM49.4062 34C49.4062 42.4952 42.4952 49.4062 34 49.4062C30.5708 49.4062 27.2042 48.2471 24.5198 46.1422L24.1474 45.8506L22.278 47.7387L20.4032 40.5976L27.4497 42.5165L25.6445 44.3403L26.1391 44.7052C28.4266 46.3903 31.1451 47.2812 34 47.2812C41.3233 47.2812 47.2812 41.3233 47.2812 34V33.4688H49.4062V34Z" fill="#0077C0"/>
<path d="M21.7812 34C21.7812 27.2627 27.2627 21.7812 34 21.7812C36.4586 21.7812 38.8041 22.4995 40.8228 23.8637L38.5783 26.0849L49.0785 28.9032L46.4291 18.3106L43.885 20.8298C41.0534 18.6995 37.562 17.5312 34 17.5312C24.9193 17.5312 17.5312 24.9193 17.5312 34V35.5938H21.7812V34ZM20.7188 34.5312H18.5938V34C18.5938 25.5048 25.5048 18.5938 34 18.5938C37.4807 18.5938 40.8887 19.7859 43.5965 21.9497L43.9657 22.245L45.8511 20.3782L47.609 27.4088L40.6406 25.5388L42.4559 23.7426L41.964 23.3729C39.6514 21.6368 36.8974 20.7188 34 20.7188C26.6767 20.7188 20.7188 26.6767 20.7188 34V34.5312Z" fill="#0077C0"/>
<path d="M36.125 26.0312C36.125 24.5666 34.9334 23.375 33.4688 23.375C32.0041 23.375 30.8125 24.5666 30.8125 26.0312C30.8125 27.4959 32.0041 28.6875 33.4688 28.6875C34.9334 28.6875 36.125 27.4959 36.125 26.0312ZM31.875 26.0312C31.875 25.1526 32.5901 24.4375 33.4688 24.4375C34.3474 24.4375 35.0625 25.1526 35.0625 26.0312C35.0625 26.9099 34.3474 27.625 33.4688 27.625C32.5901 27.625 31.875 26.9099 31.875 26.0312Z" fill="#0077C0"/>
<path d="M28.6875 27.625C28.6875 26.7463 27.9724 26.0312 27.0938 26.0312C26.2151 26.0312 25.5 26.7463 25.5 27.625C25.5 28.5037 26.2151 29.2188 27.0938 29.2188C27.9724 29.2188 28.6875 28.5037 28.6875 27.625ZM26.5625 27.625C26.5625 27.3323 26.801 27.0938 27.0938 27.0938C27.3865 27.0938 27.625 27.3323 27.625 27.625C27.625 27.9177 27.3865 28.1562 27.0938 28.1562C26.801 28.1562 26.5625 27.9177 26.5625 27.625Z" fill="#0077C0"/>
<path d="M38.7812 37.7188H43.0312C44.2032 37.7188 45.1562 36.7657 45.1562 35.5938C45.1562 35.0269 44.9347 34.4935 44.5331 34.0919C44.1315 33.6903 43.5981 33.4688 43.0312 33.4688H39.0028C38.3711 31.9127 36.8433 30.8125 35.0625 30.8125C34.5817 30.8125 34.1062 30.9012 33.6536 31.0595C32.9614 29.9115 31.7263 29.2188 30.2812 29.2188C28.2306 29.2188 26.5625 30.8869 26.5625 32.9375C26.5625 33.4953 26.6889 34.0382 26.9248 34.5312H26.0312C24.8593 34.5312 23.9062 35.4843 23.9062 36.6562C23.9062 37.2231 24.1278 37.7565 24.5294 38.1581C24.931 38.5597 25.4644 38.7812 26.0312 38.7812H32.4062C32.699 38.7812 32.9375 39.0198 32.9375 39.3125C32.9375 39.4543 32.8833 39.585 32.7749 39.6908C32.6788 39.7896 32.5481 39.8438 32.4062 39.8438H31.875C30.9963 39.8438 30.2812 40.5588 30.2812 41.4375C30.2812 41.8683 30.4497 42.2689 30.7456 42.5574C31.0436 42.8628 31.4442 43.0312 31.875 43.0312H39.8438C41.0157 43.0312 41.9688 42.0782 41.9688 40.9062C41.9688 40.3394 41.7472 39.806 41.3456 39.4044C40.944 39.0028 40.4106 38.7812 39.8438 38.7812H38.7812C38.4885 38.7812 38.25 38.5427 38.25 38.25C38.25 38.1082 38.3042 37.9775 38.4126 37.8717C38.5087 37.7729 38.6394 37.7188 38.7812 37.7188ZM38.2059 34.5312H31.9196C32.0801 33.5862 32.6623 32.7484 33.5171 32.2713C33.9888 32.0121 34.5233 31.875 35.0625 31.875C36.6392 31.875 37.952 33.0257 38.2059 34.5312ZM27.625 32.9375C27.625 31.4728 28.8166 30.2812 30.2812 30.2812C31.3257 30.2812 32.1895 30.7445 32.699 31.5361C31.6768 32.2251 30.9995 33.3173 30.846 34.5312H28.1748C27.8247 34.0738 27.625 33.5198 27.625 32.9375ZM38.7812 39.8438H39.8438C40.1269 39.8438 40.3936 39.9543 40.5944 40.1556C40.7952 40.3569 40.9062 40.6231 40.9062 40.9062C40.9062 41.4922 40.4297 41.9688 39.8438 41.9688H31.875C31.7332 41.9688 31.6025 41.9146 31.4967 41.8062C31.3979 41.71 31.3438 41.5793 31.3438 41.4375C31.3438 41.1448 31.5823 40.9062 31.875 40.9062H32.4062C32.8371 40.9062 33.2377 40.7378 33.5261 40.4419C33.8316 40.1439 34 39.7433 34 39.3125C34 38.4338 33.2849 37.7188 32.4062 37.7188H26.0312C25.7481 37.7188 25.4814 37.6082 25.2806 37.4069C25.0798 37.2056 24.9688 36.9394 24.9688 36.6562C24.9688 36.0703 25.4453 35.5938 26.0312 35.5938H39.3125V35.0625C39.3125 34.8824 39.3013 34.7055 39.2796 34.5312H43.0312C43.3144 34.5312 43.5811 34.6418 43.7819 34.8431C43.9827 35.0444 44.0938 35.3106 44.0938 35.5938C44.0938 36.1797 43.6172 36.6562 43.0312 36.6562H38.7812C38.3504 36.6562 37.9498 36.8247 37.6614 37.1206C37.3559 37.4186 37.1875 37.8192 37.1875 38.25C37.1875 39.1287 37.9026 39.8438 38.7812 39.8438Z" fill="#0077C0"/>
<path d="M34 36.7012H36.125V37.7637H34V36.7012Z" fill="#0077C0"/>
<path d="M36.125 39.8438H37.1875V40.9062H36.125V39.8438Z" fill="#0077C0"/>
<path d="M38.7812 28.1562H39.8438V29.2188H38.7812V28.1562Z" fill="#0077C0"/>
<path d="M40.9062 30.8125H41.9688V31.875H40.9062V30.8125Z" fill="#0077C0"/>
</svg>
