<svg width="68" height="68" viewBox="0 0 68 68" fill="none" xmlns="http://www.w3.org/2000/svg">
<circle cx="34" cy="34" r="33" stroke="black" stroke-width="2"/>
<path d="M50.3269 21.0359C49.8691 19.8853 48.8401 19.1705 47.6414 19.1705C47.1813 19.1705 46.7139 19.2735 46.2453 19.4775C45.3896 18.3697 44.3809 18.1861 43.8075 18.1861C43.2949 18.1861 42.7917 18.3292 42.3443 18.5883C41.129 17.7295 39.7849 17.0709 38.3746 16.6327C38.3242 16.6107 38.2709 16.5942 38.2154 16.5838C36.9276 16.2 35.5871 16 34.2413 16C30.4742 16 26.801 17.5589 24.1636 20.277C21.6114 22.9074 20.2649 26.3221 20.3724 29.892L20.6695 39.7518C20.2048 39.9635 19.7713 40.3543 19.4891 40.9846C18.2721 40.904 17.2924 41.605 17.0257 42.7265C16.7584 43.8509 17.3034 45.005 18.3512 45.5332C19.0158 45.8683 19.76 46.0102 20.8603 46.0814L20.9551 49.2297C20.9627 49.4795 21.0942 49.7093 21.306 49.8423C21.4273 49.9185 21.5657 49.9571 21.7049 49.9571C21.8086 49.9571 21.9126 49.9356 22.0101 49.8922L27.199 47.5798L30.4236 51.7114C30.5659 51.8938 30.7842 52 31.0149 52C31.0212 52 31.0275 51.9999 31.0338 51.9998C31.2714 51.9938 31.4921 51.8756 31.6287 51.6811L34.2413 47.961L36.854 51.6811C36.9882 51.8721 37.2036 51.9897 37.4368 51.9994C37.4472 51.9998 37.4575 52 37.4679 52C37.6898 52 37.9011 51.9015 38.0439 51.7302L41.5041 47.5795L46.4613 49.8871C46.562 49.934 46.67 49.9571 46.7779 49.9571C46.9149 49.9571 47.0513 49.9197 47.1715 49.8456C47.3862 49.7132 47.52 49.4818 47.5276 49.2298L48.1104 29.8919C48.1519 28.5089 47.9747 27.145 47.5849 25.8272C48.398 25.4596 49.0082 25.0785 49.5228 24.5918C50.5022 23.6653 50.8178 22.2695 50.3269 21.0359ZM21.6734 44.62C20.3836 44.5726 19.5909 44.4785 19.0263 44.1938C18.528 43.9427 18.3954 43.4502 18.485 43.0736C18.5379 42.8513 18.7137 42.4784 19.2976 42.4784C19.4492 42.4784 19.6168 42.5041 19.796 42.5546C19.995 42.611 20.2085 42.5823 20.3857 42.4758C20.563 42.3693 20.6885 42.1944 20.7324 41.9922C20.8645 41.3849 21.1695 41.0506 21.5913 41.0506C21.8302 41.0506 22.0803 41.1605 22.2602 41.3445C22.3928 41.4801 22.5491 41.7182 22.541 42.0833C22.5268 42.7154 22.2374 43.4596 21.6734 44.62ZM30.983 49.9903L28.3094 46.5648L29.1091 44.9344L33.1264 46.9383L30.983 49.9903ZM26.5088 33.2358V28.6154H26.509H41.9736V33.2358C41.9736 35.9669 40.5503 38.3718 38.4065 39.7478C38.3592 39.771 38.3147 39.7986 38.2737 39.8307C37.0989 40.5517 35.7178 40.968 34.2411 40.968C32.7644 40.968 31.3832 40.5516 30.2082 39.8304C30.1673 39.7985 30.123 39.7708 30.0761 39.7479C27.9321 38.3719 26.5088 35.9669 26.5088 33.2358ZM34.2413 45.8179L30.4972 43.9504V41.6739C31.6421 42.184 32.9091 42.468 34.2413 42.468C35.5735 42.468 36.8404 42.184 37.9854 41.6739V43.9504L34.2413 45.8179ZM37.5186 50.0176L35.356 46.9383L39.4188 44.9118L40.3855 46.5786L37.5186 50.0176ZM46.6108 29.8468L46.0622 48.0468L41.8277 46.0756L40.3631 43.5499C40.1839 43.2409 39.816 43.1065 39.4855 43.2127V40.8296C41.8933 39.1617 43.4738 36.3801 43.4738 33.2357V27.8653C43.4738 27.4511 43.1379 27.1153 42.7237 27.1153H30.9076V24.9686C30.9076 24.5544 30.5718 24.2185 30.1576 24.2185C29.7435 24.2185 29.4076 24.5544 29.4076 24.9686V27.1153H27.8058V24.9686C27.8058 24.5544 27.47 24.2185 27.0558 24.2185C26.6416 24.2185 26.3058 24.5544 26.3058 24.9686V27.1153H25.7589C25.3447 27.1153 25.0089 27.4511 25.0089 27.8653V33.2357C25.0089 36.38 26.5893 39.1617 28.997 40.8295V43.2128C28.8452 43.1641 28.6809 43.164 28.528 43.2157C28.3388 43.2797 28.1829 43.4166 28.0949 43.5959L26.8756 46.0816L22.4209 48.0669L22.3615 46.0976C22.5507 46.0368 22.7125 45.9031 22.8042 45.7188C23.6243 44.0718 24.0184 43.1127 24.0405 42.1165C24.056 41.4248 23.8047 40.7781 23.3327 40.2955C23.0092 39.9647 22.6019 39.7329 22.1664 39.6228L21.8717 29.8467C21.7765 26.6858 22.9728 23.6582 25.2401 21.3214C27.5966 18.8927 30.8776 17.4999 34.2413 17.4999C35.2819 17.4999 36.3189 17.6342 37.3251 17.8927V20.2166C37.3251 20.6308 37.661 20.9666 38.0752 20.9666C38.4894 20.9666 38.8252 20.6308 38.8252 20.2166V18.38C39.672 18.7143 40.4845 19.1399 41.2443 19.6513C40.7315 20.4632 40.6102 21.45 40.9152 22.3924C41.332 23.6809 42.239 24.7977 43.9908 26.6682C44.135 26.8221 44.3342 26.9055 44.5384 26.9055C44.6168 26.9055 44.6958 26.8932 44.7726 26.868C45.2911 26.6973 45.7592 26.5385 46.1849 26.3849C46.5028 27.509 46.646 28.6702 46.6108 29.8468ZM48.4918 23.5019C48.0091 23.9584 47.3653 24.3153 46.4149 24.6953C46.4125 24.6962 46.4101 24.6967 46.4078 24.6974C46.3914 24.7032 46.3761 24.7102 46.3606 24.717C45.9022 24.8984 45.3739 25.0857 44.7589 25.292C43.376 23.7981 42.6482 22.8761 42.3423 21.9306C42.0983 21.177 42.3848 20.6206 42.5773 20.3561C42.6507 20.255 42.7334 20.164 42.8227 20.0838C42.8273 20.0798 42.8317 20.0756 42.8363 20.0714C43.1156 19.8259 43.46 19.686 43.8073 19.686C44.3885 19.686 44.9316 20.0899 45.3368 20.8231C45.4368 21.0041 45.6071 21.1358 45.8076 21.1871C46.0081 21.2384 46.2207 21.2045 46.3952 21.0936C46.8374 20.8128 47.2566 20.6705 47.6413 20.6705C48.2208 20.6705 48.7038 21.0144 48.9331 21.5905C49.1421 22.1152 49.1358 22.8929 48.4918 23.5019Z" fill="#0077C0"/>
<path d="M31.1191 32.3818C31.1448 32.7788 31.4746 33.0837 31.867 33.0837C31.8831 33.0837 31.8995 33.0832 31.9158 33.0821C32.3292 33.0555 32.6427 32.6989 32.6161 32.2856C32.5499 31.2569 31.5343 30.4512 30.3041 30.4512C29.0741 30.4512 28.0586 31.2568 27.9921 32.2853C27.9653 32.6988 28.2789 33.0555 28.6922 33.0822C29.1062 33.1086 29.4624 32.7954 29.4891 32.382C29.5003 32.2064 29.8236 31.9512 30.3041 31.9512C30.7847 31.9511 31.1079 32.2062 31.1191 32.3818Z" fill="#0077C0"/>
<path d="M36.5667 33.0821C36.9795 33.1091 37.3368 32.7953 37.3633 32.3818C37.3746 32.2062 37.6976 31.9512 38.1783 31.9512C38.659 31.9512 38.9821 32.2062 38.9934 32.3818C39.0189 32.7788 39.3488 33.0837 39.7411 33.0837C39.7573 33.0837 39.7736 33.0832 39.7899 33.0821C40.2034 33.0555 40.5168 32.6989 40.4903 32.2856C40.4241 31.2569 39.4085 30.4512 38.1783 30.4512C36.9481 30.4512 35.9326 31.2569 35.8664 32.2856C35.8398 32.6989 36.1533 33.0556 36.5667 33.0821Z" fill="#0077C0"/>
<path d="M31.547 36.8145C31.547 37.9945 33.4312 38.122 34.2414 38.122C35.0515 38.122 36.9357 37.9946 36.9357 36.8145C36.9357 36.4003 36.5999 36.0645 36.1857 36.0645C35.9048 36.0645 35.6599 36.2189 35.5314 36.4476C35.342 36.5199 34.8944 36.6219 34.2414 36.6219C33.5883 36.6219 33.1406 36.5199 32.9513 36.4475C32.8228 36.2189 32.578 36.0645 32.297 36.0645C31.8827 36.0645 31.547 36.4003 31.547 36.8145Z" fill="#0077C0"/>
<path d="M30.1576 22.0488C29.7435 22.0488 29.4076 22.3846 29.4076 22.7989V22.8396C29.4076 23.2538 29.7435 23.5896 30.1576 23.5896C30.5718 23.5896 30.9077 23.2538 30.9077 22.8396V22.7989C30.9077 22.3846 30.572 22.0488 30.1576 22.0488Z" fill="#0077C0"/>
<path d="M38.0752 21.5957C37.661 21.5957 37.3251 21.9316 37.3251 22.3457V22.3866C37.3251 22.8008 37.661 23.1366 38.0752 23.1366C38.4894 23.1366 38.8252 22.8008 38.8252 22.3866V22.3457C38.8252 21.9316 38.4893 21.5957 38.0752 21.5957Z" fill="#0077C0"/>
<path d="M44.1162 40.0566C43.702 40.0566 43.3662 40.3925 43.3662 40.8067V43.7034C43.3662 44.1176 43.702 44.4534 44.1162 44.4534C44.5303 44.4534 44.8662 44.1176 44.8662 43.7034V40.8067C44.8662 40.3925 44.5304 40.0566 44.1162 40.0566Z" fill="#0077C0"/>
<path d="M18.1857 38.4358C18.5999 38.4358 18.9357 38.1 18.9357 37.6858V34.7891C18.9357 34.3749 18.5999 34.0391 18.1857 34.0391C17.7715 34.0391 17.4357 34.3749 17.4357 34.7891V37.6858C17.4357 38.1 17.7716 38.4358 18.1857 38.4358Z" fill="#0077C0"/>
<path d="M50.2917 28.1436C49.8775 28.1436 49.5417 28.4794 49.5417 28.8936V31.7902C49.5417 32.2045 49.8775 32.5403 50.2917 32.5403C50.7059 32.5403 51.0417 32.2045 51.0417 31.7902V28.8936C51.0417 28.4793 50.7059 28.1436 50.2917 28.1436Z" fill="#0077C0"/>
</svg>
