<svg width="136" height="136" viewBox="0 0 136 136" fill="none" xmlns="http://www.w3.org/2000/svg">
<g filter="url(#filter0_d)">
<circle cx="67.6316" cy="63.6316" r="63.6316" fill="white"/>
</g>
<g clip-path="url(#clip0)">
<path d="M69.3633 76.896H83.2817C83.8036 76.896 84.1516 76.5481 84.1516 76.0262V68.197C84.1516 67.6751 83.8036 67.3271 83.2817 67.3271H69.3633C68.8413 67.3271 68.4934 67.6751 68.4934 68.197V76.0262C68.4933 76.548 68.8413 76.896 69.3633 76.896ZM70.2331 69.0669H82.4118V75.1562H70.2331V69.0669Z" fill="black"/>
<path d="M45.8759 65.5874H52.8351C53.3571 65.5874 53.705 65.2395 53.705 64.7175C53.705 64.1956 53.3571 63.8477 52.8351 63.8477H45.8759C45.3539 63.8477 45.006 64.1956 45.006 64.7175C45.006 65.2395 45.3539 65.5874 45.8759 65.5874Z" fill="black"/>
<path d="M56.3147 65.5874H63.274C63.7959 65.5874 64.1438 65.2395 64.1438 64.7175C64.1438 64.1956 63.7959 63.8477 63.274 63.8477H56.3147C55.7928 63.8477 55.4448 64.1956 55.4448 64.7175C55.4448 65.2395 55.7928 65.5874 56.3147 65.5874Z" fill="black"/>
<path d="M45.8759 69.0669H57.1846C57.7065 69.0669 58.0544 68.719 58.0544 68.197C58.0544 67.6751 57.7065 67.3271 57.1846 67.3271H45.8759C45.3539 67.3271 45.006 67.6751 45.006 68.197C45.006 68.719 45.3539 69.0669 45.8759 69.0669Z" fill="black"/>
<path d="M63.2739 67.3271H60.6642C60.1422 67.3271 59.7943 67.6751 59.7943 68.197C59.7943 68.719 60.1422 69.0669 60.6642 69.0669H63.2739C63.7958 69.0669 64.1437 68.719 64.1437 68.197C64.1437 67.6751 63.7958 67.3271 63.2739 67.3271Z" fill="black"/>
<path d="M92.9376 56.5403C92.3287 55.7574 91.5458 55.3224 90.5889 55.2354L88.5011 54.9824V52.5387V50.7989C88.5011 48.8852 86.9353 47.3193 85.0215 47.3193H45.0059C43.0921 47.3192 41.5263 48.8851 41.5263 50.7989V52.5388V59.498V78.6359C41.5263 80.2071 42.5821 81.543 44.0191 81.9712C43.9753 83.7309 45.3067 85.2586 47.0938 85.4211L87.2833 89.9446C87.3703 89.9446 87.5443 89.9446 87.6312 89.9446C89.3711 89.9446 90.9369 88.6397 91.1108 86.9869L93.7205 59.063C93.8075 58.1931 93.5465 57.2361 92.9376 56.5403ZM43.2662 53.4086H86.7614V55.6704V58.628H43.2662V53.4086ZM45.0059 49.0591H85.0214C85.9784 49.0591 86.7613 49.842 86.7613 50.7989V51.6688H43.2662V50.7989C43.2662 49.842 44.0491 49.0591 45.0059 49.0591ZM43.2662 78.6358V60.3678H86.7614V78.6358C86.7614 79.5927 85.9785 80.3756 85.0215 80.3756H45.093H45.006C44.0491 80.3756 43.2662 79.5927 43.2662 78.6358ZM91.9807 58.715L89.371 86.6389C89.284 87.5958 88.4141 88.2917 87.4572 88.2047L47.3546 83.6813C46.4848 83.5943 45.8758 82.8984 45.7888 82.1154H85.0214C86.9352 82.1154 88.501 80.5496 88.501 78.6359V59.4979V56.6272L90.5018 56.8013C90.9368 56.8013 91.3717 57.0622 91.6327 57.4102C91.8937 57.7581 92.0678 58.28 91.9807 58.715Z" fill="black"/>
</g>
<defs>
<filter id="filter0_d" x="0" y="0" width="135.263" height="135.263" filterUnits="userSpaceOnUse" color-interpolation-filters="sRGB">
<feFlood flood-opacity="0" result="BackgroundImageFix"/>
<feColorMatrix in="SourceAlpha" type="matrix" values="0 0 0 0 0 0 0 0 0 0 0 0 0 0 0 0 0 0 127 0"/>
<feOffset dy="4"/>
<feGaussianBlur stdDeviation="2"/>
<feColorMatrix type="matrix" values="0 0 0 0 0 0 0 0 0 0 0 0 0 0 0 0 0 0 0.25 0"/>
<feBlend mode="normal" in2="BackgroundImageFix" result="effect1_dropShadow"/>
<feBlend mode="normal" in="SourceGraphic" in2="effect1_dropShadow" result="shape"/>
</filter>
<clipPath id="clip0">
<rect x="41.5263" y="42.5264" width="52.2105" height="52.2105" fill="white"/>
</clipPath>
</defs>
</svg>
