<svg width="136" height="136" viewBox="0 0 136 136" fill="none" xmlns="http://www.w3.org/2000/svg">
<g filter="url(#filter0_d)">
<circle cx="67.6316" cy="63.6316" r="63.6316" fill="white"/>
</g>
<g clip-path="url(#clip0)">
<path d="M97.3834 74.9553H94.8288V45.8274C94.8288 43.5156 92.948 41.6348 90.6362 41.6348H42.1797C39.8678 41.6348 37.9871 43.5156 37.9871 45.8274V74.9553H35.4325C34.7431 74.9553 34.1842 75.514 34.1842 76.2036V78.6541C34.1842 82.0498 36.9468 84.8123 40.3425 84.8123H92.4733C95.869 84.8123 98.6316 82.0498 98.6316 78.6541V76.2036C98.6317 75.514 98.0729 74.9553 97.3834 74.9553ZM40.761 45.8274C40.761 45.0452 41.3975 44.4087 42.1797 44.4087H90.6359C91.4184 44.4087 92.0547 45.0451 92.0547 45.8274V74.9553H73.2743C73.1858 74.9524 73.0945 74.9599 73.0039 74.9774C72.4163 75.0904 71.9917 75.6048 71.9917 76.203C71.9917 77.2567 71.1345 78.1138 70.0811 78.1138H62.7349C61.6813 78.1138 60.8243 77.2566 60.8243 76.203C60.8243 75.5041 60.2452 74.94 59.5471 74.955H40.761V45.8274ZM96.1351 78.6541C96.1351 80.6732 94.4923 82.3157 92.4734 82.3157H40.3425C38.3234 82.3157 36.6808 80.6732 36.6808 78.6541V77.4518H58.5077C59.0473 79.2759 60.7382 80.6105 62.7348 80.6105H70.081C72.0776 80.6105 73.7684 79.2758 74.3082 77.4518H96.1352V78.6541H96.1351Z" fill="black"/>
<path d="M87.4095 47.667H45.4064C44.6404 47.667 44.0194 48.2879 44.0194 49.054V70.0025C44.0194 70.7685 44.6404 71.3895 45.4064 71.3895C46.1723 71.3895 46.7934 70.7685 46.7934 70.0025V50.4409H86.0225V70.0023C86.0225 70.7684 86.6436 71.3893 87.4095 71.3893C88.1755 71.3893 88.7965 70.7684 88.7965 70.0023V49.0539C88.7964 48.2879 88.1753 47.667 87.4095 47.667Z" fill="black"/>
<path d="M68.4636 55.7295C67.9218 55.1878 67.0439 55.1878 66.502 55.7295L57.7793 64.4525C57.2376 64.9942 57.2376 65.8724 57.7793 66.414C58.0502 66.6849 58.4051 66.8202 58.76 66.8202C59.1149 66.8202 59.4698 66.6847 59.7406 66.414L68.4636 57.6911C69.0052 57.1495 69.0052 56.2712 68.4636 55.7295Z" fill="black"/>
<path d="M73.6337 60.7842C73.092 60.2425 72.214 60.2425 71.6722 60.7842L68.1974 64.259C67.6557 64.8007 67.6557 65.6789 68.1974 66.2207C68.4682 66.4915 68.8232 66.6269 69.178 66.6269C69.5331 66.6269 69.8879 66.4915 70.1587 66.2207L73.6336 62.7458C74.1754 62.2041 74.1754 61.3259 73.6337 60.7842Z" fill="black"/>
</g>
<defs>
<filter id="filter0_d" x="0" y="0" width="135.263" height="135.263" filterUnits="userSpaceOnUse" color-interpolation-filters="sRGB">
<feFlood flood-opacity="0" result="BackgroundImageFix"/>
<feColorMatrix in="SourceAlpha" type="matrix" values="0 0 0 0 0 0 0 0 0 0 0 0 0 0 0 0 0 0 127 0"/>
<feOffset dy="4"/>
<feGaussianBlur stdDeviation="2"/>
<feColorMatrix type="matrix" values="0 0 0 0 0 0 0 0 0 0 0 0 0 0 0 0 0 0 0.25 0"/>
<feBlend mode="normal" in2="BackgroundImageFix" result="effect1_dropShadow"/>
<feBlend mode="normal" in="SourceGraphic" in2="effect1_dropShadow" result="shape"/>
</filter>
<clipPath id="clip0">
<rect x="34.1842" y="31" width="64.4474" height="64.4474" fill="white"/>
</clipPath>
</defs>
</svg>
