<?xml version="1.0" encoding="UTF-8"?>
<svg width="22px" height="22px" viewBox="0 0 22 22" version="1.1" xmlns="http://www.w3.org/2000/svg" xmlns:xlink="http://www.w3.org/1999/xlink">
    <title>Shape</title>
    <g id="Landings" stroke="none" stroke-width="1" fill="none" fill-rule="evenodd">
        <g id="Landing-29---var1" transform="translate(-757.000000, -231.000000)" fill="#168C44" fill-rule="nonzero">
            <g id="hero" transform="translate(0.000000, 74.000000)">
                <g id="list" transform="translate(757.000000, 151.000000)">
                    <path d="M11,6 C4.92485081,6 0,10.9248508 0,17 C0,23.0751492 4.92485081,28 11,28 C17.0751492,28 22,23.0751492 22,17 C22,10.9248508 17.0751492,6 11,6 Z M11,26.5806452 C5.73667742,26.5806452 1.41935484,22.3201411 1.41935484,17 C1.41935484,11.7367218 5.67985887,7.41935484 11,7.41935484 C16.2633226,7.41935484 20.5806452,11.6798589 20.5806452,17 C20.5806452,22.2632782 16.3201411,26.5806452 11,26.5806452 Z M17.2819758,14.3847944 L9.27681452,22.3257298 C9.068125,22.5327339 8.73111694,22.5314032 8.5241129,22.3227137 L4.71500806,18.4828266 C4.50800403,18.2741371 4.50933468,17.937129 4.71802419,17.730125 L5.09592742,17.3552823 C5.30461694,17.1482782 5.641625,17.1496089 5.84862903,17.3582984 L8.90804839,20.4424234 L16.1574476,13.2511734 C16.3661371,13.0441694 16.7031452,13.0455 16.9101492,13.2541895 L17.2849919,13.6320927 C17.4920403,13.8407823 17.4906653,14.1777903 17.2819758,14.3847944 L17.2819758,14.3847944 Z" id="Shape"></path>
                </g>
            </g>
        </g>
    </g>
</svg>