<svg width="80" height="80" viewBox="0 0 80 80" fill="none" xmlns="http://www.w3.org/2000/svg">
<circle cx="40" cy="40" r="38.5" stroke="#00AA63" stroke-width="3"/>
<path d="M39.5 31.502C35.0899 31.502 31.502 35.0899 31.502 39.5C31.502 43.9101 35.0899 47.498 39.5 47.498C43.9101 47.498 47.498 43.9101 47.498 39.5C47.498 35.0899 43.9101 31.502 39.5 31.502ZM39.5 45.2129C36.3499 45.2129 33.7871 42.6501 33.7871 39.5C33.7871 36.3499 36.3499 33.7871 39.5 33.7871C42.6501 33.7871 45.2129 36.3499 45.2129 39.5C45.2129 42.6501 42.6501 45.2129 39.5 45.2129Z" fill="#00AA63"/>
<path d="M39.5 36.0723C37.6099 36.0723 36.0723 37.6099 36.0723 39.5C36.0723 41.3901 37.6099 42.9277 39.5 42.9277C41.3901 42.9277 42.9277 41.3901 42.9277 39.5C42.9277 37.6099 41.3901 36.0723 39.5 36.0723ZM39.5 40.6426C38.87 40.6426 38.3574 40.13 38.3574 39.5C38.3574 38.87 38.87 38.3574 39.5 38.3574C40.13 38.3574 40.6426 38.87 40.6426 39.5C40.6426 40.13 40.13 40.6426 39.5 40.6426Z" fill="black"/>
<path d="M47.1934 22.2852H57.8574C58.4884 22.2852 59 21.7736 59 21.1426C59 20.5116 58.4884 20 57.8574 20H47.1934C46.5624 20 46.0508 20.5116 46.0508 21.1426C46.0508 21.7736 46.5624 22.2852 47.1934 22.2852Z" fill="black"/>
<path d="M57.8574 24.5703H48.7168C48.0858 24.5703 47.5742 25.0819 47.5742 25.7129C47.5742 26.3439 48.0858 26.8555 48.7168 26.8555H57.8574C58.4884 26.8555 59 26.3439 59 25.7129C59 25.0819 58.4884 24.5703 57.8574 24.5703Z" fill="black"/>
<path d="M55.5723 52.1445C54.3489 52.1445 53.2739 52.7892 52.6671 53.7562L49.8594 53.1323V48.5937C50.9706 47.8634 52.0784 47.0232 53.1735 46.0777C56.5459 43.1658 58.6233 40.2865 58.7102 40.1654C58.9951 39.7675 58.9951 39.2324 58.7102 38.8346C58.6233 38.7134 56.546 35.8341 53.1735 32.9223C51.1787 31.1998 49.1414 29.8241 47.1185 28.8333C44.5418 27.5715 41.9786 26.9316 39.5 26.9316C37.0214 26.9316 34.4582 27.5715 31.8815 28.8333C31.7297 28.9077 31.5777 28.9849 31.4258 29.0637V24.9512C31.4258 24.4157 31.0538 23.9519 30.5311 23.8358L26.8295 23.0132C26.6241 21.3181 25.1774 20 23.4277 20C21.5377 20 20 21.5377 20 23.4277C20 25.3178 21.5377 26.8555 23.4277 26.8555C24.6511 26.8555 25.7262 26.2108 26.3329 25.2437L29.1406 25.8677V30.4063C28.0294 31.1366 26.9216 31.9768 25.8265 32.9223C22.4541 35.8342 20.3767 38.7135 20.2898 38.8346C20.0049 39.2325 20.0049 39.7676 20.2898 40.1654C20.3767 40.2866 22.454 43.1659 25.8265 46.0777C26.9215 47.0233 28.0294 47.8636 29.1406 48.5938V53.1323L26.3329 53.7563C25.7261 52.7892 24.6511 52.1445 23.4277 52.1445C21.5377 52.1445 20 53.6822 20 55.5723C20 57.4623 21.5377 59 23.4277 59C25.1774 59 26.6241 57.6819 26.8295 55.9868L30.5311 55.1642C31.0538 55.048 31.4258 54.5843 31.4258 54.0488V49.9363C31.5777 50.015 31.7297 50.0922 31.8815 50.1667C34.4582 51.4285 37.0214 52.0684 39.5 52.0684C41.9786 52.0684 44.5418 51.4285 47.1185 50.1667C47.2703 50.0923 47.4223 50.0151 47.5742 49.9363V54.0488C47.5742 54.5843 47.9462 55.048 48.4689 55.1642L52.1705 55.9868C52.3759 57.6819 53.8226 59 55.5723 59C57.4623 59 59 57.4623 59 55.5723C59 53.6822 57.4623 52.1445 55.5723 52.1445ZM23.4277 24.5703C22.7977 24.5703 22.2852 24.0578 22.2852 23.4277C22.2852 22.7977 22.7977 22.2852 23.4277 22.2852C24.0578 22.2852 24.5703 22.7977 24.5703 23.4277C24.5703 24.0578 24.0578 24.5703 23.4277 24.5703ZM23.4277 56.7148C22.7977 56.7148 22.2852 56.2023 22.2852 55.5723C22.2852 54.9422 22.7977 54.4297 23.4277 54.4297C24.0578 54.4297 24.5703 54.9422 24.5703 55.5723C24.5703 56.2023 24.0578 56.7148 23.4277 56.7148ZM39.5 49.7832C34.6517 49.7832 30.2212 46.8456 27.3583 44.3812C25.1131 42.4485 23.4495 40.4921 22.6593 39.5004C24.5536 37.1264 31.4695 29.2168 39.5 29.2168C44.3483 29.2168 48.7788 32.1544 51.6417 34.6188C53.8867 36.5513 55.5503 38.5076 56.3407 39.4996C54.4464 41.8736 47.5305 49.7832 39.5 49.7832ZM55.5723 56.7148C54.9422 56.7148 54.4297 56.2023 54.4297 55.5723C54.4297 54.9422 54.9422 54.4297 55.5723 54.4297C56.2023 54.4297 56.7148 54.9422 56.7148 55.5723C56.7148 56.2023 56.2023 56.7148 55.5723 56.7148Z" fill="black"/>
</svg>
