<svg width="481" height="161" viewBox="0 0 481 161" fill="none" xmlns="http://www.w3.org/2000/svg">
<path d="M415.947 121.635C417.379 120.953 418.818 120.338 420.173 119.595C420.803 119.195 421.531 118.959 422.286 118.909C423.04 118.86 423.795 119 424.476 119.315C424.903 119.564 425.412 119.65 425.903 119.557C426.393 119.463 426.829 119.196 427.123 118.81C427.509 118.463 427.987 118.225 428.505 118.122C430.452 117.568 432.323 116.904 434.481 117.05C437.027 117.19 438.777 115.656 439.013 113.616C437.625 112.648 436.148 111.948 434.328 112.1C432.317 112.265 430.471 110.682 428.352 111.491C428.193 111.552 427.855 111.01 427.543 110.883C426.194 110.469 424.571 109.482 423.515 109.872C421.217 110.724 419.836 109.02 417.946 109.056C417.914 108.873 417.882 108.691 417.857 108.514L421.262 106.931L418.792 106.194L420.065 104.764C414.178 105.671 413.382 105.373 410.518 103.692C411.062 103.426 411.671 103.304 412.281 103.339C413.239 103.254 414.191 103.118 415.132 102.931C415.642 102.822 416.163 102.769 416.685 102.773C418.595 102.919 420.358 102.103 420.861 100.496C421.556 98.6233 421.984 96.6695 422.134 94.6875C422.403 94.5745 422.649 94.4157 422.859 94.2188C423.095 93.9935 423.992 94.4258 424.59 94.5171C426.207 94.7545 427.83 95.3329 429.332 94.0361C429.707 93.7073 430.497 93.8473 431.05 93.6525C431.604 93.4577 432.489 93.2203 432.699 92.7758C433.087 91.9417 432.438 91.3389 431.579 91.0589C429.427 90.3648 427.251 89.7316 425.106 89.0132C425.411 88.2826 425.742 87.552 426.035 86.8275C426.442 85.896 426.888 85.0009 427.27 84.0329C427.69 82.9979 428.04 81.9386 428.46 80.9036C428.549 80.6905 428.797 80.5322 429.039 80.2947L430.821 80.9036C431.101 80.6661 431.286 80.5748 431.356 80.4347C432.89 77.561 435.175 75.8563 438.516 75.6006C438.624 75.8684 438.911 76.2094 439.07 76.2094C439.265 76.1887 439.452 76.1223 439.614 76.0162C439.776 75.91 439.908 75.7672 439.999 75.6006C440.008 75.5625 440.008 75.523 439.999 75.4849C440.861 75.2916 441.643 74.8571 442.246 74.2368C443.094 73.4931 444.148 72.9985 445.282 72.8121C446.684 72.6354 448.105 72.6354 449.508 72.8121C449.565 73.2809 450.011 73.3296 451.042 73.2444C451.482 73.176 451.926 73.1313 452.372 73.1104C452.887 73.1104 453.562 73.1104 453.867 73.3783C454.173 73.6462 454.192 74.3403 454.383 75.0283C456.197 73.8106 457.177 75.2475 458.234 76.0816C459.418 75.5945 459.895 74.5229 459.227 73.9932C457.839 72.8851 457.317 70.9064 455.802 69.8836C456.362 69.754 456.946 69.755 457.506 69.8863C458.065 70.0177 458.583 70.2757 459.017 70.6385C459.818 69.5 460.538 68.4955 461.289 67.4361C463.465 67.1317 463.465 67.1317 464.21 66.0053C466.056 65.226 466.902 68.051 469.085 66.8882C468.347 65.7131 467.685 64.672 467.074 63.704L464.14 64.3493L463.822 63.6979C464.388 63.3143 464.91 62.7237 465.534 62.5898C467.952 62.0905 470.422 61.7983 472.847 61.299C474.756 60.9094 475.183 61.1286 475.393 63.0647C475.456 63.6065 475.571 64.1484 475.749 65.2017L478.499 62.1575L476.468 60.4893C476.685 59.3569 477.194 59.0159 478.059 59.2108C478.64 59.4193 479.249 59.5504 479.867 59.6004C480.262 59.6004 480.624 59.0829 481 58.8028C480.688 58.5471 480.414 58.1514 480.064 58.0723C479.43 58.0107 478.792 57.9903 478.155 58.0113C477.048 57.9383 476.545 57.4025 476.825 56.3309C480.16 54.4009 480.644 52.7266 478.32 50.8514C477.226 51.9108 478.46 53.7739 476.78 54.8637L475.151 50.7053L471.969 52.9276C471.733 52.0082 471.536 51.2228 471.37 50.5592C469.27 49.4511 466.667 49.6521 465.158 47.6246C464.696 48.3078 464.132 48.9231 463.484 49.4511C463.165 49.6431 462.807 49.7711 462.434 49.8276C462.061 49.8841 461.68 49.8679 461.314 49.7799C460.901 49.6399 460.582 48.6657 460.601 48.0752C460.639 46.7114 460.977 45.3598 461.072 43.996C461.086 43.0306 461.046 42.0652 460.951 41.104C459.042 40.8483 458.476 41.8225 458.215 42.9305C457.909 44.2578 457.807 45.6337 457.616 46.9853C457.508 47.7829 457.693 48.7144 456.343 49.2685C455.822 47.7585 455.338 46.3765 454.918 45.1649L446.956 45.4815C446.709 45.0745 446.361 44.7316 445.944 44.483C445.829 44.2882 445.714 44.0934 445.606 43.8742C445.401 43.3552 445.036 42.9077 444.56 42.5905C444.085 42.2732 443.52 42.101 442.939 42.0964C442.526 42.0711 442.122 41.9653 441.752 41.7856C441.383 41.6058 441.055 41.3558 440.79 41.051C440.525 40.7461 440.328 40.3927 440.211 40.0124C440.093 39.6321 440.058 39.2329 440.107 38.8391C440.139 38.3277 440.413 37.7493 440.241 37.3231C440.011 36.646 439.566 36.0543 438.968 35.6305C438.739 35.4905 437.778 36.1664 437.415 36.6534C436.947 37.4264 436.561 38.2423 436.263 39.0888C434.812 38.0477 433.647 38.4799 432.342 39.0096C431.093 39.4542 429.787 39.7387 428.46 39.8559C426.251 40.1603 423.807 39.8924 421.841 40.7022C416.857 42.7661 411.556 43.5394 406.381 44.8301L406.216 44.8727C405.867 44.3083 405.57 43.7154 405.331 43.101C405.299 43.0157 405.019 43.0219 404.523 42.9123C404.561 43.7464 404.599 44.5134 404.631 45.2988C403.905 45.4876 403.18 45.6763 402.454 45.9077C402.045 45.7757 401.69 45.5219 401.442 45.1832C400.545 44.0203 401.868 43.5881 402.511 42.9731C403.585 41.9924 404.426 40.8016 404.975 39.4819C405.524 38.1622 405.769 36.7447 405.694 35.3261C405.605 33.2804 404.51 32.282 402.435 32.5133C400.634 32.7264 399.208 32.8299 398.094 31.0095C397.458 29.9319 395.968 29.7919 394.683 30.3398C393.575 30.8208 393.276 31.6853 393.257 32.8543C393.247 34.0379 392.996 35.2083 392.519 36.3003C391.978 37.518 390.979 37.725 389.916 36.8726C388.503 35.7402 387.243 35.9471 385.702 36.5499C384.707 36.8402 383.658 36.9171 382.628 36.7752C381.947 36.7265 381.304 36.2759 380.611 36.1055C378.701 35.6306 377.473 36.416 377.199 38.2668C377.199 38.4251 377.155 38.5713 377.136 38.7296C376.773 38.693 376.404 38.6687 376.041 38.626L374.819 38.4738C375.729 37.865 376.353 37.0004 376.225 36.3185C375.914 34.6929 374.437 34.6382 373.132 34.352C372.241 34.1511 371.076 34.4616 370.586 33.1343C371.331 32.4314 372.034 31.6895 372.693 30.9121C373.654 29.6944 373.654 28.3306 372.846 27.3504C372.038 26.3702 369.734 25.7066 368.391 26.1327C367.692 26.3128 367.071 26.6983 366.614 27.2348C366.157 27.7712 365.888 28.4314 365.845 29.1221C365.756 29.8771 365.737 30.6382 365.692 31.2105L358.818 34.0781C359.156 32.9761 359.378 32.4281 359.455 31.8619C359.735 30.2911 359.111 29.3353 357.609 28.9213C356.968 28.6951 356.261 28.7168 355.637 28.9817C355.013 29.2466 354.522 29.7338 354.267 30.3398C353.593 31.6184 353.93 32.8117 355.254 33.6762C355.492 33.7928 355.739 33.8925 355.992 33.9745C357.303 34.5834 356.947 35.3505 356.12 36.4099C355.082 35.8924 354.108 35.3201 353.065 34.9061C351.512 34.2972 349.85 33.2074 348.348 33.3596C344.816 33.7188 341.665 32.5682 338.356 31.9715C339.431 28.5072 338.674 25.8284 336.275 24.8969C335.371 24.5216 334.387 24.3587 333.404 24.422C332.332 24.4892 331.305 24.8577 330.451 25.4813C329.331 26.4555 328.542 27.7827 327.574 29.0247C325.792 28.6716 325.792 28.6716 324.201 27.2531C321.19 27.1556 318.123 27.18 315.653 25.4874C313.413 23.9471 311.3 22.3154 308.538 21.7431C305.871 21.1829 303.408 20.0687 300.575 19.8008C297.641 19.5208 294.726 19.2894 291.786 19.1372C289.876 19.0337 287.967 18.3884 286.128 17.9926C286.16 17.7187 286.185 17.5056 286.217 17.2864C287.401 17.8953 288.661 17.7735 290.067 17.2864C291.061 17.0088 292.077 16.8052 293.103 16.6776L293.237 17.2316C294.217 16.9941 295.337 16.9698 296.139 16.4766C297.081 15.8982 297.298 13.1402 296.744 12.1356C296.62 11.9111 296.461 11.7058 296.273 11.5268C296.362 11.3381 296.438 11.1615 296.547 10.918L295.789 11.1067C295.397 10.8375 294.95 10.652 294.476 10.5627C294.003 10.4734 293.515 10.4825 293.046 10.5893C291.086 11.125 289.227 11.6729 287.127 11.3198C286.866 11.3135 286.612 11.3955 286.408 11.5512C286.292 11.2294 286.085 10.9449 285.809 10.7298C285.534 10.5146 285.201 10.3774 284.849 10.3335C284.548 10.2552 284.234 10.2369 283.926 10.2799C283.618 10.3228 283.322 10.426 283.057 10.5832C282.793 10.7403 282.565 10.9478 282.388 11.193C282.211 11.4381 282.089 11.7155 282.029 12.0078C281.97 12.4802 282.095 12.9568 282.379 13.3472C282.277 13.3578 282.178 13.3888 282.089 13.4383C282 13.4877 281.923 13.5546 281.863 13.6345C281.803 13.7143 281.761 13.8054 281.741 13.9017C281.72 13.998 281.72 14.0974 281.742 14.1935C281.812 14.711 282.506 15.2346 283.054 15.5695C283.601 15.9043 284.651 15.9592 285.141 16.4401L285.198 16.4888C284.455 16.7448 283.671 16.8746 282.882 16.8724C280.495 16.6837 278.121 16.361 275.741 16.0931C277.014 15.6425 278.675 17.1586 279.343 15.2833C279.43 14.9712 279.44 14.6443 279.374 14.3277C279.308 14.011 279.167 13.7131 278.961 13.4568C277.561 12.2818 276.581 13.7612 275.779 14.1326C274.383 13.6033 272.957 13.15 271.508 12.7749C270.279 12.6058 269.039 12.5223 267.798 12.5253C265.615 12.4035 264.246 13.4446 263.979 15.4173L261.764 15.3686C260.039 13.1707 255.603 12.6471 253.21 14.6867C252.892 14.9607 252.573 15.2285 252.293 15.472C247.316 15.6608 242.345 16.0078 237.375 16.3122C237.252 16.0642 237.086 15.8378 236.885 15.6425C235.714 14.5649 234.415 14.9424 233.13 15.4538C232.391 15.7872 231.576 15.9339 230.762 15.88C229.963 15.4427 229.312 14.7963 228.884 14.0169C228.887 14.583 228.745 15.1412 228.471 15.6425C227.979 15.7268 227.518 15.9276 227.129 16.2265C226.74 16.5253 226.435 16.9128 226.243 17.3534L225.855 17.4934C223.82 18.1538 221.746 18.6966 219.643 19.119C219.021 19.2152 218.383 19.1326 217.81 18.8816C217.81 18.7537 217.759 18.6137 217.74 18.4858C217.658 17.7932 217.357 17.141 216.877 16.6166C216.397 16.0921 215.761 15.7204 215.054 15.5512C214.158 15.2738 213.212 15.1725 212.274 15.253C211.335 15.3336 210.424 15.5944 209.593 16.02C208.861 16.4279 207.957 16.5315 207.194 16.8907C206.572 17.1106 206.037 17.5081 205.66 18.0292C205.271 18.8146 205.972 19.1982 206.71 19.4904C207.171 19.7351 207.599 20.0337 207.983 20.3793C207.926 20.568 207.862 20.7628 207.798 20.9516C205.493 21.3169 203.141 21.3169 200.835 20.9516C200.43 19.9781 199.965 19.0287 199.441 18.1083C198.716 17.0064 197.57 16.3305 196.259 16.9394C194.948 17.5482 193.713 17.4629 192.351 17.4629C191.466 17.4755 190.602 17.7244 189.856 18.1814C188.316 19.1616 188.068 22.0475 189.443 22.8633C190.124 23.3036 190.763 23.8008 191.352 24.3489C188.914 24.4037 186.47 24.562 184.249 25.9866C182.77 26.9439 181.103 27.6027 179.348 27.9228C175.765 28.5316 172.481 30.5225 168.662 30.0354C168.497 30.0453 168.341 30.1075 168.217 30.212C163.418 30.212 163.838 30.626 159.071 28.6716C157.32 27.9532 155.748 28.6716 155.137 30.4981C154.964 30.942 154.919 31.4223 155.008 31.8885C155.096 32.3547 155.315 32.7893 155.64 33.1465C154.189 33.2805 152.731 33.4327 151.287 33.6153C149.072 33.8954 146.889 34.4312 144.687 34.833C142.268 35.2653 139.837 35.661 137.412 36.0507C137.099 35.7753 136.706 35.5985 136.284 35.544C135.863 35.4896 135.435 35.5602 135.057 35.7463C134.657 35.9516 134.33 36.265 134.115 36.6473C133.071 36.8361 132.021 37.0066 130.977 37.2136C129.8 37.451 128.641 37.725 127.483 38.005C127.267 36.0811 127.057 34.1572 126.815 32.008C125.682 31.6732 124.301 31.3322 122.996 30.833C122.774 30.7219 122.581 30.5628 122.435 30.3683C122.288 30.1739 122.19 29.9494 122.149 29.7127C122.149 29.4265 122.786 29.1039 123.161 28.836C123.374 28.7275 123.604 28.6554 123.843 28.6229C124.479 25.938 121.564 25.7553 120.584 23.8374C121.248 23.5696 121.939 23.3657 122.646 23.2286C124.04 23.1068 125.459 23.1495 126.859 23.0582C128.597 22.9425 130.201 22.9912 131.614 24.2758C132.25 24.836 133.262 24.976 134.242 25.3656C134.274 22.8694 133.377 21.7553 131.423 21.4508C130.455 21.3047 129.252 21.4509 128.571 20.9333C126.662 19.4843 124.415 19.5148 122.207 19.2591C121.634 19.1921 121.08 19.0581 119.915 18.845L122.461 17.2742L120.157 15.8739C121.214 15.3016 122.239 15.0703 122.703 14.4614C124.67 11.6851 126.592 8.83577 125.033 5.21929C122.665 -0.260223 117.395 -1.47787 112.392 1.81592C111.584 2.47032 111.026 3.36354 110.808 4.35472C110.171 6.97271 109.719 9.64556 109.115 12.7202C109.833 12.3659 110.661 12.2712 111.447 12.4534C112.232 12.6357 112.923 13.0827 113.392 13.7125C114.327 14.7901 116.695 14.1387 116.956 16.5436L111.056 16.5863C110.865 15.673 110.738 15.052 110.61 14.4614C109.242 14.3762 107.956 13.8526 106.792 14.3396C106.219 13.6882 105.741 12.9637 105.576 13.0246C104.974 13.215 104.471 13.6178 104.169 14.1509C104.042 14.4675 104.64 15.0581 104.914 15.5208L106.079 14.8571C105.955 14.9662 105.84 15.0843 105.735 15.2103C104.729 16.5315 103.272 16.7445 101.77 16.1053C99.2813 15.0398 97.7475 15.6425 96.6273 18.1509C97.9003 18.8267 99.084 19.6608 100.669 18.7598C100.904 18.6258 101.515 19.1068 102.165 19.3991C101.681 19.874 101.394 20.4036 101.089 20.4158C96.8756 20.5862 92.6558 20.6898 88.4806 20.8054C87.7932 19.5086 87.8441 17.8465 85.9347 18.0231C84.0254 18.1997 84.2927 19.9896 83.6944 21.0673C81.7552 22.0167 79.5452 22.3352 77.3997 21.9744C76.4832 21.8344 75.4903 22.2057 74.5229 22.3884C70.3031 23.2042 66.0771 23.8253 61.7491 23.2895C59.3879 22.9973 57.1093 23.186 55.079 24.5742C54.709 24.809 54.2933 24.9705 53.8569 25.0491C50.8783 25.6579 47.9252 26.4494 44.9147 26.699C42.3477 26.9623 39.8198 27.5015 37.379 28.3063C35.6514 28.7504 33.9009 29.108 32.1345 29.3779C28.1057 30.1694 24.0769 30.9486 20.0417 31.7767C19.6153 31.868 19.2525 32.2515 18.4442 32.7691C23.2177 33.5301 27.1255 31.4723 31.5616 31.1374C31.1606 31.6671 31.0843 31.8801 30.9251 31.9228C28.6211 32.6047 26.2281 33.0856 24.0132 33.9745C21.7983 34.8634 19.1761 34.2607 17.0121 35.5027C16.7639 35.6488 16.2039 35.2713 15.7774 35.1739C15.0007 34.9748 14.2122 34.8204 13.4162 34.7113C12.6606 34.6109 11.8913 34.6611 11.157 34.8587C10.4227 35.0564 9.7391 35.3972 9.14913 35.8598C8.55915 36.3224 8.07565 36.8968 7.72889 37.5468C7.38214 38.1967 7.17965 38.9083 7.13423 39.6367C6.95602 41.5606 7.82167 43.0157 9.74379 43.655C11.6659 44.2943 13.7534 44.41 15.701 43.3262C16.3102 42.9927 16.9796 42.7718 17.6741 42.6748C19.628 42.4252 21.5947 42.3156 23.5423 42.066C27.1578 41.6359 30.6535 40.5467 33.8402 38.8574C33.2801 35.7341 33.6302 35.1009 36.6343 34.279C38.7856 33.6701 40.975 33.2318 43.1708 32.7995C44.9784 32.4464 45.4429 32.8604 45.4047 34.626C45.4047 35.1375 45.2901 35.6488 45.2901 36.1663C45.2318 37.6784 45.6185 39.1757 46.4061 40.4878C47.1938 41.8 48.3508 42.8742 49.7454 43.5881C52.3803 44.9884 55.2699 45.9442 58.0704 47.0523C58.5286 47.2349 59.3879 47.4237 59.5406 47.235C60.5717 45.9077 62.7229 45.3049 62.3538 43.0218C62.1183 41.5058 63.2448 40.5317 64.5495 39.7707C65.9752 38.9366 66.6372 40.0264 67.4901 40.7083C67.6046 40.7996 67.8338 40.757 68.4702 40.83C68.6535 40.66 68.7928 40.4516 68.8775 40.2212C69.514 38.072 71.3152 37.7128 73.2182 37.451C74.2747 37.311 75.3376 37.177 76.4005 37.0492C77.9182 36.9326 79.4271 36.7293 80.9193 36.4403C81.2096 36.3009 81.4616 36.0983 81.6551 35.8488C81.8485 35.5992 81.978 35.3097 82.0331 35.0035C82.0777 34.693 81.3204 34.0233 80.8367 33.9198C79.8645 33.7944 78.8826 33.7516 77.9025 33.7919C76.4068 33.7371 75.0894 33.7127 73.8802 32.3672C72.55 30.8938 70.7488 29.5848 68.3047 30.4555C67.7781 30.5619 67.2339 30.5619 66.7072 30.4555C64.7978 30.2789 62.9712 30.4555 61.4245 31.7645C61.2336 31.9288 60.7881 31.8497 60.1516 31.9167C60.4889 31.2287 60.578 30.5772 60.8962 30.4555C67.1272 28.0688 73.2945 25.4022 79.831 25.2439C80.7348 26.7538 81.5877 27.7766 81.9823 28.9456C82.5488 30.6077 83.4334 31.6244 85.2728 31.3809C86.4884 33.8162 83.3633 34.0233 82.9878 35.8315C86.1702 36.4403 88.2641 34.6138 90.4981 33.457C90.6572 32.2394 90.7973 31.1313 90.9818 29.6762L86.2211 26.8938C86.2211 26.492 86.2212 25.8648 86.2593 25.2073C83.2616 25.67 83.1152 25.664 82.4087 25.0247C82.8447 24.8908 83.289 24.7831 83.739 24.702C85.502 24.4767 87.2712 24.2515 89.0406 24.0932C90.7018 23.941 92.2739 24.4159 94.0624 24.0567C96.9583 23.4478 100.045 23.7278 103.049 23.6243C104.799 23.5574 105.34 23.6791 106.683 24.5254C104.418 24.5254 102.298 24.5254 100.427 25.8466C100.071 26.0901 99.2749 25.7492 98.2629 25.6335C97.8365 26.632 97.3719 27.7766 96.8691 28.903C96.7864 29.0917 96.5318 29.2135 96.3599 29.3657C95.9908 28.6534 95.6599 28.0263 95.2907 27.3078C93.1713 29.4144 92.7003 30.559 93.324 31.7706C94.5078 32.0202 95.0298 29.8832 96.7291 31.0034C95.8699 31.6914 94.9788 32.1603 94.4888 32.8848C93.9987 33.6093 93.6995 34.6138 93.9859 35.2044C94.2723 35.795 95.3861 36.1542 96.1817 36.2212C96.8076 36.3018 97.4445 36.2024 98.0112 35.9357C98.5779 35.669 99.0488 35.2469 99.364 34.7234C100.637 32.8543 101.744 32.5803 103.819 33.457C104.545 33.7675 105.22 34.1998 105.926 34.553C106.868 35.0218 110.057 34.626 110.706 33.8528C110.967 33.5423 110.859 32.9457 110.935 32.3551C109.891 32.2956 108.853 32.1653 107.829 31.9654C106.251 31.5453 105.92 30.1389 107.046 28.9882C108.656 27.4052 110.305 25.8466 112.023 24.1906L114.022 25.2804C114.976 25.1829 115.683 23.6852 116.962 24.9151C115.963 26.9242 119.152 28.4098 117.694 30.8086C116.969 30.8634 116.09 30.8938 115.225 31.0095C114.359 31.1252 113.538 31.3139 112.271 31.5514C113.5 32.3977 114.41 32.9395 114.035 34.3459C113.767 35.3444 115.237 36.8848 116.116 37.037C117.191 37.2257 118.025 36.4708 118.585 34.8086C118.643 34.6442 118.636 34.4677 118.7 34.3033C119.139 33.0857 120.094 32.7143 121.157 33.4023C121.75 33.7875 122.247 34.2925 122.614 34.8817C123.302 35.8609 123.814 36.9433 124.129 38.0842C124.179 38.3642 124.179 38.6504 124.129 38.9305C119.112 40.3991 114.19 42.1495 109.388 44.1725C109.165 43.9629 108.919 43.7753 108.656 43.6124C108.16 44.1178 107.676 44.5987 107.193 45.0797C105.746 45.6966 104.303 46.3197 102.865 46.9488C101.394 46.547 100.586 46.9488 98.4093 48.3309C98.1986 48.4879 97.9591 48.6056 97.7029 48.6779C94.6691 49.2989 91.6289 49.9078 88.5824 50.5044C88.4391 50.238 88.3239 49.9586 88.2387 49.6703C87.7804 46.6261 87.2776 46.2609 84.0825 46.6627C83.4461 46.7358 82.8479 46.6627 82.2305 46.6627C82.0777 46.6627 81.9249 46.8088 81.6894 46.9245C81.6894 47.4481 81.7404 48.0021 81.7786 48.751C78.7236 48.751 76.3432 49.8347 75.3694 52.5867C74.4783 55.0829 75.5477 57.0616 77.3552 58.7176C76.1446 59.5728 75.0021 60.513 73.9374 61.5304C73.6891 61.5304 73.4409 61.5304 73.18 61.4878C68.3747 61.0129 63.5758 60.4649 58.7642 60.0205C57.8477 59.9353 56.702 59.9291 55.9955 60.3736C54.7608 61.1529 53.9652 61.226 53.1059 59.9839C52.7482 59.6301 52.294 59.3791 51.7948 59.2595C50.0217 58.6198 48.081 58.5409 46.2576 59.0342C45.4811 59.2168 44.5519 59.5943 43.9091 59.3569C40.224 57.9931 36.9079 59.5152 33.471 60.3249C32.8345 60.4771 31.8608 60.9642 31.7781 61.4208C31.3707 63.6248 29.7032 64.2336 27.8256 64.7085C27.5816 64.8124 27.3644 64.9661 27.1892 65.159C26.9537 65.3503 26.7517 65.5765 26.5909 65.8288C25.9545 66.0967 25.318 66.3585 24.6816 66.6446C24.2294 66.9062 23.8785 67.3016 23.6823 67.771C23.3449 68.4955 23.0458 69.2321 22.7212 69.9688C19.9462 69.7984 17.1776 69.6279 14.409 69.4391C12.3532 69.2991 10.2975 68.8303 8.26078 68.9277C6.0398 69.0246 3.83992 69.3845 1.71155 69.9993C-0.0769081 70.5168 -0.197793 71.217 0.164991 73.2809C0.750537 73.2383 1.34885 73.1896 1.95349 73.153C2.74431 73.05 3.54414 73.0256 4.34023 73.08C6.24961 73.3539 6.75232 73.981 6.46591 75.8197C6.37672 76.1899 6.39868 76.5766 6.52931 76.9354C6.65994 77.2941 6.89401 77.6102 7.20431 77.8472C7.76179 78.2808 8.19899 78.8391 8.47723 79.4727C9.29191 81.8533 11.0675 82.6144 13.4734 82.4013C15.2556 82.2366 17.0501 82.5597 18.6479 83.3328C20.1627 84.039 21.7411 84.4652 23.555 83.8442C24.0226 83.6932 24.5191 83.6422 25.0096 83.6948C25.5 83.7474 25.9725 83.9023 26.3936 84.1486C25.1207 85.6646 25.038 86.3526 25.318 88.7636L27.2274 87.278C26.9792 88.033 26.7308 88.7757 26.4699 89.5307C26.3292 89.9507 26.2479 90.3869 26.2281 90.8275C25.7189 89.9021 25.407 89.001 23.6504 89.6098C24.1914 90.864 24.7388 91.5703 26.2345 91.0954C26.2261 91.6868 26.4254 92.2638 26.8004 92.7341C27.1754 93.2043 27.7045 93.5406 28.303 93.6891C28.8636 93.8754 29.4727 93.881 30.0369 93.7051C30.6012 93.5292 31.0897 93.1814 31.428 92.7149C31.6916 93.0973 32.0134 93.44 32.3827 93.7317C33.07 92.581 33.5219 91.4242 34.2921 90.5719C35.444 89.3542 36.6789 87.9538 38.2 87.3389C39.3958 86.8688 40.694 86.6869 41.9806 86.8092L42.1206 87.0101L42.3878 86.8458C42.9196 86.9148 43.4424 87.0372 43.9473 87.2111C43.7511 87.3846 43.5641 87.5675 43.3871 87.759C42.3561 88.9097 42.4643 90.5658 43.5654 92.0209C44.2782 92.9463 45.0866 92.9646 46.6714 92.307C47.8679 91.8078 47.7851 90.9311 47.7279 89.9569C47.6779 89.4908 47.741 89.0199 47.9125 88.5809H47.9951C48.7412 88.7549 49.4729 88.9807 50.1845 89.2568C50.4329 91.3872 50.4329 93.5374 50.1845 95.6678C50.015 95.6539 49.8471 95.6274 49.6818 95.5886C49.4973 95.5339 49.0454 95.9539 48.8926 96.2401C48.8175 96.436 48.7029 96.616 48.5553 96.7697L46.4613 96.7028C46.4613 96.8063 46.4613 96.8793 46.4613 96.9706C45.6275 96.6297 45.3665 95.9417 45.7675 94.998C45.7709 94.9616 45.7709 94.9249 45.7675 94.8885C45.9839 94.8885 46.2577 94.785 46.6523 94.7363C46.1686 94.304 45.9839 94.0361 45.7229 93.9447C45.6733 93.9294 45.6198 93.9294 45.5702 93.9447C45.5702 93.9082 45.5702 93.8778 45.5702 93.8413C45.131 93.9631 44.8001 93.9569 44.6601 94.1091C43.4508 95.3816 42.6616 97.0011 40.7013 97.6282C40.1476 97.8048 39.7912 99.0468 39.6703 99.8505C39.5932 100.848 39.2703 101.814 38.7282 102.669C38.0535 103.65 37.5762 105.239 37.9262 106.28C38.093 106.769 38.2228 107.27 38.3145 107.777C38.3145 107.777 38.3145 107.82 38.2827 107.844C38.2509 107.869 38.3146 107.936 38.3337 107.978C38.5462 109.361 38.5053 110.768 38.2128 112.137L40.4404 114.475C40.4485 113.993 40.3553 113.515 40.1666 113.068C40.0866 112.509 40.0484 111.946 40.0521 111.382C40.8007 111.684 41.4419 112.187 41.8979 112.831C43.2154 114.377 45.0802 115.126 46.2831 114.134C46.5443 113.914 46.8497 113.749 47.1804 113.647C46.9352 113.96 46.7895 114.334 46.7604 114.724C46.7166 114.955 46.7248 115.192 46.7845 115.419C46.8442 115.646 46.9538 115.858 47.1063 116.042C47.2588 116.225 47.4506 116.375 47.6687 116.482C47.8867 116.589 48.126 116.649 48.3707 116.66C48.6708 116.733 48.9832 116.746 49.2887 116.698C49.5942 116.65 49.8863 116.543 50.1469 116.384C50.4075 116.224 50.6312 116.015 50.804 115.769C50.9769 115.524 51.0953 115.247 51.152 114.956C51.1837 114.703 51.1624 114.447 51.0892 114.203C51.016 113.959 50.8925 113.731 50.7259 113.533C50.5592 113.335 50.3527 113.171 50.1188 113.05C49.8848 112.93 49.6281 112.855 49.3636 112.831C49.1169 112.794 48.8656 112.794 48.6188 112.831L47.4795 111.674C48.8479 110.657 49.93 110.359 51.2411 111.418C52.2048 112.116 53.2123 112.757 54.258 113.336C54.258 112.362 53.4942 111.637 53.6215 111.163C54.0098 109.902 53.1823 109.239 52.6286 108.398C52.0034 107.564 51.454 106.68 50.9865 105.756C50.7128 105.147 50.5155 103.972 50.8656 103.662C51.9603 102.688 52.094 101.506 52.3358 100.271C53.0232 100.423 53.6851 100.685 54.3725 100.837L55.3527 101.062C55.0978 101.456 54.753 101.79 54.3441 102.039C53.9351 102.288 53.4728 102.445 52.9914 102.499C53.0232 104.472 52.8323 106.493 54.5635 107.577C56.6373 108.75 58.8111 109.755 61.0617 110.578C61.2461 110.666 61.4528 110.701 61.6575 110.68C61.8621 110.658 62.0561 110.581 62.2162 110.457C62.3764 110.334 62.4961 110.168 62.561 109.982C62.626 109.795 62.6337 109.594 62.583 109.403C62.4327 108.934 62.1884 108.498 61.8637 108.118C61.2426 107.308 60.6953 106.449 60.2279 105.549C59.6487 104.131 60.6163 103.242 61.4564 102.347C61.7046 102.383 61.9528 102.432 62.201 102.462C63.1461 102.594 64.0727 102.827 64.9633 103.156C65.0333 103.698 65.1096 104.246 65.1732 104.776C65.5297 107.82 66.5098 108.612 69.794 108.599C70.5769 108.655 71.3491 108.806 72.0917 109.05C72.6008 109.178 73.0908 109.561 73.5745 109.549C74.019 109.437 74.4306 109.229 74.7775 108.94C75.1463 109.007 75.5024 109.126 75.834 109.294C76.4339 109.512 76.9478 109.903 77.3043 110.414C77.6989 111.138 76.426 111.467 76.8779 112.301C78.5502 111.936 80.2826 111.901 81.9696 112.198C83.2425 112.368 83.6753 113.342 83.0388 114.426C82.834 114.723 82.5638 114.973 82.2471 115.159C81.9304 115.345 81.575 115.463 81.2057 115.504C79.7546 115.845 78.3163 116.252 76.8779 116.63C75.1467 116.794 73.3137 116.466 71.7862 117.592H71.7352C68.2983 117.628 64.9887 118.511 61.6791 119.224C60.5971 119.461 59.5024 119.638 58.4077 119.796C58.4077 119.723 58.4713 119.656 58.4904 119.583C58.7704 118.566 57.0202 116.021 55.9445 115.838C54.8689 115.656 53.6087 117.087 53.2141 118.883C53.0886 119.401 53.1264 119.943 53.3224 120.441C50.7317 120.697 48.1627 121.124 45.6339 121.72C42.2445 122.619 38.745 123.084 35.2276 123.102C34.4811 123.063 33.735 123.182 33.042 123.451C32.349 123.719 31.7263 124.13 31.218 124.654C31.4472 125.3 31.7463 125.689 32.5927 125.367C36.8952 123.747 41.4459 123.753 45.9585 123.54C49.0771 122.931 52.1321 122.097 55.3272 121.915C55.3999 121.879 55.4702 121.838 55.5373 121.793C56.0817 121.8 56.6166 121.656 57.0775 121.379C61.3927 120.77 65.7143 120.161 70.0359 119.552C70.7806 119.455 71.9834 119.138 71.3915 120.667C71.2121 120.695 71.0446 120.771 70.9078 120.886C70.2821 120.901 69.6675 121.046 69.1067 121.312C66.5608 122.852 64.015 124.356 61.4309 125.89C61.2209 126.499 61.5136 127.047 62.1309 126.724C65.0077 125.202 68.2347 124.356 70.9651 122.566L72.238 122.42L72.8363 121.872C72.9392 121.99 73.0847 122.066 73.2437 122.085C73.287 122.037 73.3138 121.977 73.3206 121.914C73.3275 121.851 73.3139 121.788 73.2818 121.732L73.4409 121.665C73.5102 121.527 73.6312 121.419 73.7798 121.363C73.9284 121.307 74.0936 121.306 74.2428 121.361L75.9105 120.752L77.8961 120.898C77.9798 120.876 78.0672 120.871 78.153 120.883C78.2388 120.895 78.3212 120.923 78.3951 120.966C78.469 121.01 78.5329 121.067 78.5828 121.135C78.6327 121.203 78.6675 121.279 78.6853 121.361C78.7787 121.552 78.8348 121.759 78.8508 121.969C80.1238 122.676 81.0085 122.103 81.7722 121.154C81.9705 121.08 82.1639 120.994 82.3514 120.898C82.5472 120.996 82.7744 121.02 82.9878 120.965C83.0174 120.802 83.0344 120.637 83.0388 120.472C84.2472 119.996 85.5739 119.867 86.8576 120.1L89.1298 119.729C89.5126 119.426 89.964 119.214 90.4481 119.108C90.9322 119.002 91.4353 119.006 91.9174 119.12L93.8268 118.901C95.0997 118.292 96.5828 118.189 97.2256 119.424C97.3988 119.799 97.6934 120.111 98.0658 120.313C96.7228 120.466 95.4753 120.502 94.8006 120.039C91.9493 118.079 92.0192 121.099 90.4599 121.014C91.9683 121.184 93.3432 121.622 94.718 121.622C96.0927 121.622 97.6838 122.231 98.7785 121.148C98.991 120.936 99.2382 120.759 99.5104 120.624C99.8391 120.634 100.166 120.679 100.484 120.758L101.935 120.514C102.279 120.606 102.623 120.709 102.96 120.807C104.265 121.184 105.328 122.024 106.925 121.555C107.009 121.52 107.099 121.501 107.191 121.5C107.282 121.499 107.373 121.516 107.458 121.549C107.542 121.583 107.619 121.633 107.683 121.695C107.746 121.758 107.796 121.833 107.829 121.915C106.689 122.579 105.399 122.969 104.068 123.053L104.029 123.004C102.712 120.685 100.783 121.89 98.8486 122.189C97.8621 122.341 97.4229 123.284 96.0736 122.925C90.9818 121.58 87.2268 122.767 84.0508 126.511C84.4773 127.065 85.2536 126.858 85.8392 126.938C88.8115 127.327 92.2039 128.977 94.0433 125.415C94.0984 125.348 94.1677 125.293 94.2467 125.253C94.3256 125.213 94.4124 125.19 94.5015 125.184C95.8444 125.184 97.2383 124.995 98.6003 124.934C98.4613 125.189 98.4093 125.478 98.4516 125.762C98.4938 126.046 98.6283 126.31 98.8359 126.517L97.8111 126.737C97.7536 126.844 97.6572 126.927 97.5399 126.971C97.4227 127.014 97.2927 127.016 97.1746 126.974L95.9527 127.479C96.9392 128.338 98.0848 127.613 99.135 127.79C99.3029 127.715 99.4843 127.671 99.6695 127.662C99.7586 127.589 99.8606 127.54 99.9497 127.479C101.681 128.557 104.335 128.46 105.805 129.915C106.212 130.304 107.021 129.872 107.594 129.702L107.969 129.586C108.094 129.715 108.233 129.831 108.383 129.933C108.542 129.756 108.771 129.61 108.765 129.47C108.76 129.427 108.745 129.385 108.72 129.348L110.585 128.74C110.558 129.032 110.608 129.326 110.73 129.595C110.853 129.864 111.043 130.099 111.285 130.28C110.123 130.867 108.825 131.164 107.511 131.145C106.117 131.059 105.601 132.74 106.48 133.909C106.881 134.444 107.67 134.298 108.109 134.712C105.385 135.09 102.705 135.693 99.835 135.626C95.7871 135.528 94.7434 135.626 94.4951 137.385L94.1705 137.422L93.044 137.653C92.8769 137.834 92.6679 137.975 92.4336 138.065C92.1993 138.155 91.9463 138.191 91.6948 138.171C91.1646 138.333 90.6689 138.585 90.2309 138.913C89.8355 138.934 89.4421 138.981 89.0533 139.053C88.4169 139.175 88.2451 139.735 88.3215 140.362C87.1886 141.081 85.8457 141.738 86.2912 143.954C87.0191 143.086 87.8547 142.305 88.7797 141.629C88.8141 141.696 88.8523 141.761 88.8942 141.824C89.3652 142.487 90.1672 142.962 89.5307 143.814C91.4401 143.047 93.3495 143.066 95.4689 143.175C98.6513 143.339 101.865 142.773 105.073 142.524C105.09 142.469 105.123 142.42 105.168 142.382C105.213 142.344 105.269 142.32 105.328 142.311L106.442 142.359C106.69 142.359 106.938 142.396 107.193 142.414C109.019 142.712 110.839 143.023 112.711 142.718C114.582 142.414 116.421 142.024 118.299 141.769C118.604 141.769 118.935 141.769 119.222 141.769C120.871 141.831 122.523 141.764 124.161 141.568C124.352 141.627 124.523 141.731 124.659 141.872C124.795 142.013 124.891 142.185 124.937 142.371C125.402 144.125 123.155 144.423 121.908 144.855C120.068 145.464 118.089 146.262 116.141 144.77C115.027 143.918 113.723 144.35 112.488 144.862C110.262 145.872 107.847 146.445 105.385 146.548C105.06 148.375 103.628 148.478 102.114 148.429C100.892 148.734 99.6823 149.136 98.4475 149.33C96.6527 149.617 95.6407 150.548 95.4243 152.241C96.2867 152.025 97.1909 152.012 98.0594 152.204C98.2104 152.139 98.3786 152.12 98.5414 152.149C98.7042 152.179 98.8537 152.255 98.9695 152.369C99.5217 152.154 100.132 152.12 100.707 152.271C101.347 152.162 102.006 152.201 102.627 152.385C103.248 152.569 103.814 152.894 104.277 153.331C105.455 154.317 107.517 154.347 109.191 154.798C109.191 155.151 109.191 155.504 109.147 155.857L107.434 156.204C105.627 156.868 103.966 157.891 101.999 158.177C101.713 158.219 101.509 158.786 101.267 159.072L101.216 159.139C101.422 159.069 101.647 159.069 101.853 159.139C102.726 158.927 103.636 158.888 104.526 159.023C105.36 158.859 106.187 158.682 107.014 158.512H107.886C107.897 158.692 107.952 158.867 108.045 159.023L110.299 158.475L112.208 158.658L116.027 158.408C116.835 159.169 118.534 158.244 118.859 159.346C119.572 161.781 120.94 160.959 122.512 160.417C123.932 159.924 125.478 160.162 126.967 160.156C128.355 160.156 129.742 160.204 131.13 160.156C139.563 159.924 147.92 158.804 156.315 158.079C158.74 157.866 161.114 157.099 163.602 157.288C164.424 157.038 165.296 156.976 166.148 157.105L168.058 156.819C168.108 156.393 169.241 155.79 167.892 155.601C167.254 155.567 166.614 155.596 165.983 155.687C161.527 155.991 157.028 156.411 152.541 156.569C151.019 156.624 149.498 156.685 147.977 156.764C148.264 156.503 148.493 156.296 148.474 156.156C148.423 155.748 148.015 155.376 147.761 154.987C147.627 155.09 147.455 155.187 147.296 155.291C147.298 155.265 147.298 155.238 147.296 155.212C147.301 155.113 147.283 155.014 147.244 154.922C147.204 154.831 147.144 154.749 147.067 154.682L147.595 154.524C148.701 154.162 149.864 153.985 151.032 154C151.465 154 151.891 154 152.305 154C152.292 154.11 152.304 154.221 152.34 154.325C152.376 154.43 152.436 154.526 152.514 154.606C152.593 154.687 152.689 154.75 152.796 154.791C152.903 154.833 153.017 154.852 153.132 154.846C153.236 154.853 153.339 154.839 153.437 154.805C153.534 154.772 153.623 154.718 153.697 154.649C153.772 154.581 153.83 154.497 153.869 154.406C153.907 154.314 153.925 154.215 153.922 154.116C153.918 154.042 153.905 153.968 153.884 153.897C155.24 153.767 156.584 153.544 157.906 153.227C157.993 153.126 158.113 153.056 158.246 153.025C158.379 152.994 158.518 153.005 158.644 153.057L158.778 153.014C158.775 153.052 158.775 153.091 158.778 153.13C158.811 153.357 158.932 153.563 159.117 153.709C159.302 153.854 159.538 153.928 159.777 153.915C160.015 153.881 160.231 153.765 160.386 153.589C160.541 153.413 160.623 153.189 160.617 152.959C160.61 152.831 160.573 152.706 160.509 152.594C160.953 152.529 161.403 152.5 161.852 152.509C162.527 151.65 163.494 151.729 164.449 151.778L165.174 151.681C165.141 151.779 165.124 151.882 165.123 151.985C165.153 152.244 165.284 152.482 165.49 152.651C165.696 152.821 165.963 152.909 166.234 152.897C166.506 152.885 166.763 152.775 166.953 152.589C167.142 152.402 167.251 152.154 167.256 151.894C167.247 151.725 167.197 151.56 167.109 151.413L168.153 151.267L166.155 150.232C165.968 150.268 165.775 150.268 165.588 150.232L152.789 151.26C154.698 149.781 161.827 148.916 171.176 148.679C175.765 148.21 180.348 147.693 184.962 147.461C184.764 147.587 184.601 147.758 184.49 147.959C184.379 148.16 184.322 148.385 184.325 148.612C184.331 148.793 184.374 148.971 184.451 149.136C184.528 149.3 184.639 149.449 184.776 149.573C184.913 149.697 185.075 149.794 185.252 149.859C185.428 149.923 185.616 149.954 185.805 149.948C185.994 149.943 186.18 149.902 186.353 149.829C186.525 149.755 186.68 149.649 186.81 149.517C186.94 149.386 187.041 149.231 187.109 149.062C187.176 148.893 187.208 148.714 187.202 148.533C187.195 148.296 187.121 148.066 186.989 147.866C186.857 147.666 186.671 147.503 186.451 147.394H186.553C187.75 147.206 187.902 148.192 188.348 148.849C189.315 148.691 190.289 148.582 191.257 148.472C191.413 148.622 191.602 148.736 191.81 148.808C192.018 148.88 192.239 148.907 192.459 148.887C192.68 148.867 192.892 148.801 193.083 148.694C193.273 148.586 193.436 148.44 193.561 148.265C196.647 148.034 199.747 148.034 202.834 148.265C202.892 148.204 202.972 148.167 203.058 148.159C203.143 148.151 203.229 148.174 203.298 148.222C204.812 147.822 206.383 147.661 207.951 147.747C208.928 147.381 209.978 147.225 211.025 147.291L215.48 146.773L217.135 145.684C215.824 145.623 214.468 145.75 213.151 145.221C213.415 144.916 213.549 144.527 213.526 144.131C213.526 144.07 213.488 144.015 213.482 143.954C214.136 143.794 214.814 143.739 215.487 143.79L216.811 143.754C216.938 144.049 217.151 144.304 217.426 144.488C217.7 144.671 218.023 144.775 218.357 144.789C218.715 144.787 219.064 144.678 219.354 144.477C219.644 144.276 219.861 143.993 219.974 143.668C221.361 143.62 222.744 143.563 224.123 143.498C224.389 143.629 224.684 143.693 224.983 143.687C225.29 143.665 225.585 143.564 225.836 143.394C228.063 143.266 230.291 143.114 232.512 142.913V144.076C232.939 144.076 233.276 144.076 233.613 144.076C235.071 143.954 235.879 143.991 236.509 144.399C235.974 144.399 235.434 144.399 234.899 144.332C233.419 144.143 231.913 144.354 230.552 144.941C228.076 144.661 225.696 145.55 223.232 145.464C221.177 144.983 219.165 145.507 217.135 145.696L215.48 146.786H218.535C218.675 147.175 218.822 147.565 218.968 147.961L219.446 148.046C219.112 148.056 218.794 148.181 218.547 148.396C218.301 148.612 218.143 148.904 218.103 149.221C218.089 149.585 218.218 149.941 218.466 150.219C218.713 150.496 219.061 150.675 219.439 150.719C219.785 150.722 220.12 150.611 220.389 150.403C220.657 150.195 220.841 149.904 220.909 149.58C220.959 149.315 220.925 149.042 220.812 148.796C220.698 148.55 220.511 148.342 220.273 148.198L220.795 148.302C220.795 148.095 220.75 147.888 220.725 147.693C222.144 147.422 223.587 147.281 225.034 147.273C224.777 147.515 224.625 147.841 224.607 148.186C224.593 148.368 224.618 148.55 224.68 148.723C224.741 148.895 224.838 149.054 224.965 149.19C225.092 149.326 225.247 149.436 225.419 149.513C225.592 149.591 225.779 149.634 225.969 149.641C226.352 149.649 226.724 149.517 227.01 149.273C227.296 149.029 227.474 148.691 227.51 148.326C227.516 148.095 227.461 147.865 227.349 147.66C227.238 147.454 227.074 147.279 226.873 147.151C227.785 147.074 228.684 146.896 229.553 146.621C230.018 146.929 230.548 147.137 231.105 147.23C231.124 147.422 231.182 147.609 231.277 147.78C231.372 147.95 231.501 148.101 231.658 148.223C231.814 148.345 231.995 148.436 232.188 148.49C232.382 148.544 232.585 148.561 232.786 148.539C233.163 148.493 233.509 148.316 233.758 148.042C234.008 147.769 234.144 147.417 234.141 147.053C234.107 146.789 234.002 146.538 233.836 146.325C233.669 146.111 233.448 145.943 233.193 145.836C234.466 145.184 235.924 145.227 237.356 145.227C237.451 145.367 237.553 145.519 237.655 145.696C237.607 145.816 237.581 145.944 237.578 146.073C237.59 146.427 237.733 146.766 237.981 147.029C238.229 147.292 238.567 147.463 238.934 147.51C239.321 147.879 239.805 148.141 240.335 148.268C240.865 148.394 241.422 148.381 241.944 148.228C243.854 147.668 245.668 148.003 247.501 148.277C249.181 148.527 250.855 148.795 252.529 149.069H252.478L252.363 149.111C250.89 149.746 249.323 150.157 247.717 150.329C247.585 150.181 247.418 150.066 247.23 149.993C247.041 149.92 246.838 149.891 246.635 149.909C246.433 149.924 246.237 149.987 246.067 150.094C245.896 150.2 245.757 150.346 245.661 150.518C244.739 150.566 243.816 150.597 242.886 150.627L240.417 151.066C240.417 151.066 240.372 151.102 240.353 151.127C240.254 151.117 240.154 151.117 240.054 151.127C239.894 151.149 239.741 151.201 239.602 151.281C239.463 151.36 239.342 151.465 239.246 151.589H239.106L237.928 151.863L239.055 152.539C239.124 152.798 239.276 153.03 239.489 153.202C239.703 153.374 239.967 153.479 240.245 153.501C240.592 153.488 240.919 153.346 241.157 153.105C241.395 152.863 241.525 152.542 241.518 152.21C242.869 151.942 244.252 151.849 245.63 151.936H245.814C245.932 152.074 246.081 152.184 246.249 152.259C246.418 152.334 246.602 152.371 246.788 152.369C246.996 152.367 247.201 152.314 247.381 152.215C247.562 152.116 247.713 151.974 247.819 151.802C248.02 151.745 248.233 151.734 248.44 151.77C248.647 151.806 248.842 151.888 249.009 152.009C252.399 151.723 255.747 151.091 258.995 150.122C259.104 150.122 259.218 150.177 259.326 150.213H259.39L259.823 150.402C262.19 151.522 264.227 151.62 267.091 150.676L263.037 149.708C263.113 149.708 263.183 149.708 263.253 149.653H263.495L263.801 149.726L264.119 149.671C265.335 150.06 266.645 150.092 267.88 149.763L270.382 149.312C271.374 149.394 272.371 149.424 273.367 149.404C273.186 149.228 272.992 149.065 272.787 148.916C276.681 148.251 280.632 147.942 284.587 147.991C284.62 147.832 284.663 147.676 284.715 147.522L286.471 147.273L287.744 147.199C288.686 147.199 289.616 147.151 290.538 147.059C290.835 147.27 291.201 147.372 291.569 147.346C292.576 147.211 293.572 147.007 294.548 146.737V146.779C295.368 147.049 296.227 147.194 297.094 147.212C297.638 147.242 298.173 147.355 298.679 147.547C298.8 147.632 298.927 147.711 299.054 147.79C298.869 147.997 298.76 148.255 298.742 148.527C298.739 148.885 298.883 149.231 299.144 149.488C299.405 149.746 299.762 149.895 300.136 149.903C300.447 149.878 300.739 149.751 300.964 149.544L301.524 149.367H302.759L303.917 149.976C304.188 149.826 304.486 149.727 304.795 149.684C304.913 149.821 305.004 149.978 305.063 150.146C303.911 150.591 302.173 149.489 301.81 151.218C301.792 151.571 301.865 151.922 302.024 152.241C302.183 152.56 302.422 152.836 302.72 153.044C304.248 153.708 304.802 152.192 305.826 151.297C307.799 152.399 309.601 152.588 311.268 151.437C312.057 151.601 312.853 151.723 313.648 151.839C313.537 151.929 313.446 152.039 313.38 152.164C313.314 152.288 313.276 152.424 313.267 152.563C313.261 152.693 313.282 152.822 313.329 152.944C313.377 153.066 313.449 153.177 313.542 153.271C313.636 153.365 313.748 153.441 313.872 153.493C313.996 153.545 314.13 153.573 314.266 153.574C314.475 153.575 314.68 153.517 314.856 153.409C315.032 153.301 315.172 153.147 315.259 152.965C315.747 152.889 316.214 152.722 316.633 152.472L316.933 152.259L317.41 152.308C317.67 152.324 317.923 152.402 318.145 152.534C318.366 152.665 318.551 152.847 318.683 153.063L319.841 153.148C322.794 152.265 325.321 153.544 327.892 154.597L329.655 154.828C330.616 154.079 331.565 154 332.405 154.962L333.551 155.053C334.505 154.365 335.415 154.28 336.262 155.218V155.455C337.853 155.175 339.61 155.267 341.144 154.846C341.199 154.901 341.266 154.943 341.339 154.973C341.412 155.002 341.491 155.017 341.57 155.017C341.786 155.017 342.022 154.761 342.054 154.499C342.994 154.046 343.744 153.298 344.18 152.381C344.243 152.238 344.357 152.122 344.502 152.053C344.646 151.984 344.812 151.966 344.969 152.003L346.089 151.839C346.374 151.726 346.671 151.64 346.974 151.583C350.016 151.248 350.022 151.254 350.411 148.679C349.92 147.778 349.443 146.853 348.928 145.976C349.443 146.871 349.92 147.802 350.411 148.673C352.091 149.163 353.855 149.333 355.604 149.172L356.17 148.825C356.227 148.914 356.308 148.986 356.404 149.033C356.501 149.081 356.61 149.101 356.718 149.093C357.354 150.098 358.494 150.207 359.474 150.14C361.052 150.031 362.554 150.445 364.101 150.463C364.288 150.588 364.502 150.673 364.727 150.712C364.953 150.751 365.184 150.743 365.406 150.688L369.619 151.455C372.54 147.979 373.902 147.577 378.027 148.935C378.491 149.172 379.009 149.295 379.535 149.294C380.496 149.099 381.877 149.136 381.833 147.723C381.788 146.037 382.813 145.391 384.238 144.965C385.155 144.691 385.817 144.277 385.511 143.376C386.19 143.147 386.765 142.702 387.141 142.116V142.073C387.008 141.896 386.943 141.681 386.956 141.464C386.966 141.253 387.049 141.051 387.192 140.889C387.335 140.727 387.529 140.615 387.745 140.569C387.873 139.871 387.816 139.153 387.58 138.481C388.153 136.709 390.005 137.014 391.189 136.387C392.977 138.018 394.002 138.664 395.459 138C398.247 136.721 400.22 138.676 402.346 139.425C403.708 139.912 404.847 140.795 406.47 140.642C407.164 140.621 407.858 140.691 408.532 140.849C409.57 142.104 410.104 143.193 411.002 143.717C412.103 144.326 414.419 142.999 414.878 141.708C415.336 140.417 414.623 139.376 412.803 138.761C411.971 138.544 411.226 138.097 410.658 137.476C410.319 136.981 409.861 136.569 409.324 136.275C408.786 135.981 408.183 135.813 407.565 135.784C406.566 135.656 405.153 135.784 404.796 134.365L407.087 132.247C405.515 130.998 405.503 130.956 404.128 131.297C401.315 131.997 398.782 130.773 395.777 130.651C398.323 128.216 400.627 127.492 404.65 127.431L409.143 129.829C409.232 130.164 409.379 130.718 409.538 131.303C411.568 131.516 413.7 129.872 415.699 132.52C415.228 130.578 414.776 129.604 413.376 129.111C412.676 128.861 412.186 128.07 411.581 127.504C412.389 126.749 413.236 126.329 413.433 125.714C413.91 124.216 415.171 123.887 416.405 123.388L418.353 122.67C417.436 122.243 416.31 122.877 415.947 121.635ZM101.948 32.2577C102.19 30.285 102.928 29.2134 103.915 29.2561C104.691 29.2561 104.914 29.6396 105.188 31.6914L101.948 32.2577ZM111.61 18.7537C113.621 17.3168 115.276 18.0475 116.911 18.4067C115.346 19.1068 113.742 19.2103 111.61 18.7537ZM90.3518 125.16C90.1863 125.16 89.9381 125.087 89.8872 124.977C89.8362 124.867 89.9826 124.667 90.1672 124.587C90.3517 124.508 90.4981 124.648 90.5109 124.886C90.4663 124.983 90.3963 125.166 90.3518 125.16ZM96.7164 123.942C96.6336 123.942 96.5446 123.832 96.4746 123.753C96.4046 123.674 96.5573 123.607 96.5828 123.613C96.7064 123.651 96.8276 123.696 96.9456 123.747C96.8692 123.839 96.7928 123.96 96.7164 123.96V123.942ZM229.807 146.098C230.062 145.769 230.488 145.537 230.609 145.136C230.495 145.562 230.068 145.787 229.814 146.116L229.807 146.098ZM262.642 139.4H261.369L259.683 139.449C259.365 139.275 259.008 139.177 258.643 139.163C258.277 139.149 257.913 139.22 257.582 139.37L255.533 139.419C254.695 139.24 253.825 139.24 252.987 139.419C252.929 139.377 252.86 139.35 252.787 139.342C252.714 139.333 252.641 139.343 252.573 139.37L251.994 139.187C252.307 139.035 252.571 138.805 252.758 138.521C252.945 138.237 253.048 137.909 253.057 137.574C253.055 137.207 252.944 136.848 252.735 136.541C252.526 136.233 252.229 135.989 251.88 135.839L252.866 135.796C253.83 135.724 254.797 135.71 255.762 135.753C255.631 136.034 255.576 136.342 255.603 136.648C255.667 137.145 255.925 137.6 256.325 137.922C256.725 138.244 257.238 138.409 257.761 138.384C258.242 138.33 258.688 138.119 259.025 137.786C259.361 137.453 259.567 137.019 259.606 136.557C260.507 136.748 261.422 136.872 262.343 136.928L263.031 136.971C263.376 137.183 263.779 137.293 264.189 137.288C264.474 137.278 264.754 137.209 265.01 137.087C266.531 137.19 268.052 137.269 269.567 137.361C269.567 137.403 269.567 137.44 269.567 137.483L268.733 138.091C266.868 139.333 264.628 138.792 262.649 139.425L262.642 139.4ZM246.482 143.601C246.264 143.469 246.019 143.382 245.763 143.346C245.573 143.329 245.381 143.357 245.203 143.425C243.443 143.232 241.713 142.842 240.048 142.262C241.473 142.158 242.893 142.055 244.312 141.933C246.223 141.76 248.15 141.834 250.04 142.152C250.254 142.106 250.477 142.127 250.677 142.213L251.994 142.25C251.68 142.297 251.386 142.43 251.149 142.633C250.912 142.836 250.741 143.1 250.658 143.394C249.385 143.437 248.112 143.534 246.839 143.65L246.482 143.601ZM207.136 133.452C205.723 132.91 205.361 133.452 205.52 134.426C205.692 134.939 205.892 135.443 206.118 135.936C206.296 136.545 207.073 137.397 206.073 137.763C205.976 137.801 205.873 137.828 205.768 137.842C205.594 137.649 205.378 137.494 205.135 137.389C204.892 137.284 204.628 137.231 204.361 137.233C204.218 137.04 204.093 136.837 203.986 136.624C203.778 136.09 203.359 135.656 202.82 135.415C202.281 135.174 201.664 135.144 201.103 135.333C199.951 135.686 197.92 134.871 197.736 136.874C197.647 137.982 196.514 138.091 195.374 137.483C194.235 136.874 192.638 136.423 191.638 136.941C189.856 137.866 189.239 137.403 188.838 136.569C189.192 136.814 189.617 136.944 190.054 136.941C190.33 136.951 190.605 136.907 190.863 136.811C191.121 136.716 191.356 136.571 191.553 136.386C191.75 136.2 191.906 135.979 192.01 135.734C192.115 135.489 192.166 135.226 192.16 134.962C192.137 134.611 192.026 134.271 191.836 133.97C192.714 133.811 193.675 133.872 194.49 133.513C194.461 133.664 194.449 133.816 194.452 133.97C194.486 134.534 194.753 135.063 195.195 135.44C195.636 135.817 196.216 136.01 196.807 135.979C197.357 135.924 197.865 135.672 198.229 135.273C198.592 134.874 198.783 134.357 198.764 133.828C198.745 133.299 198.516 132.797 198.124 132.423C197.732 132.049 197.207 131.832 196.654 131.814C196.247 131.814 195.848 131.922 195.502 132.126C195.156 132.33 194.876 132.623 194.693 132.971C194.514 132.984 194.334 132.96 194.165 132.901C193.996 132.842 193.842 132.75 193.713 132.63L192.479 132.752C192.105 133.04 191.671 133.248 191.206 133.361C190.848 133.13 190.428 133.005 189.996 133.001C189.67 133.007 189.351 133.098 189.074 133.263C188.914 133.221 188.749 133.166 188.583 133.111C187.89 133.245 187.19 133.361 186.496 133.476C186.131 133.029 185.837 132.532 185.624 132.003C185.279 132.534 185.05 133.126 184.949 133.744C183.364 133.988 181.767 134.158 180.163 134.286C180.265 134.134 180.386 133.982 180.507 133.836C177.324 133.562 174.021 134.548 171.03 133.014C171.216 132.743 171.324 132.43 171.342 132.107C171.351 131.999 171.351 131.891 171.342 131.784C172.22 131.711 173.098 131.595 173.977 131.522C174.095 131.919 174.346 132.269 174.69 132.518C175.034 132.767 175.454 132.903 175.886 132.904C176.314 132.911 176.734 132.794 177.091 132.569C177.449 132.344 177.727 132.022 177.891 131.644C179.215 131.745 180.534 131.829 181.85 131.893C182.057 131.95 182.271 131.976 182.486 131.973C182.608 131.969 182.729 131.957 182.849 131.936C187.4 132.183 191.964 131.812 196.405 130.834C196.463 130.755 196.532 130.683 196.609 130.621C196.662 130.786 196.733 130.945 196.819 131.096C196.837 131.238 196.896 131.374 196.987 131.487C197.079 131.601 197.202 131.689 197.341 131.741C198.048 132.411 199.142 132.642 200.479 132.259C200.695 132.192 200.899 132.107 201.115 132.04C201.023 132.269 200.973 132.512 200.969 132.758C200.969 133.312 201.199 133.843 201.608 134.235C202.018 134.626 202.573 134.846 203.152 134.846C203.731 134.846 204.286 134.626 204.696 134.235C205.105 133.843 205.335 133.312 205.335 132.758C205.328 132.619 205.311 132.481 205.284 132.344L205.628 132.417C206.298 132.58 206.982 132.681 207.671 132.721C207.874 133.053 208.166 133.328 208.515 133.519C208.865 133.709 209.261 133.808 209.663 133.805C210.02 133.802 210.37 133.719 210.686 133.561C211.002 133.403 211.274 133.175 211.48 132.897C211.686 132.619 211.819 132.297 211.87 131.96C211.92 131.622 211.886 131.278 211.77 130.956C212.228 131.09 212.655 131.309 212.928 131.352C213.362 131.42 213.788 131.528 214.201 131.674C214.405 132.001 214.691 132.274 215.034 132.469C215.376 132.664 215.763 132.773 216.161 132.788C216.415 132.788 216.667 132.746 216.906 132.667C217.855 132.96 218.879 132.941 219.815 132.612C221.419 132.849 222.997 133.002 224.588 133.105C224.589 133.314 224.548 133.52 224.467 133.714L221.336 132.892C220.997 133.244 220.684 133.618 220.4 134.012C220.042 134.675 219.592 135.289 219.064 135.839C218.889 135.549 218.639 135.309 218.338 135.14C218.036 134.971 217.694 134.881 217.345 134.877C216.879 134.878 216.428 135.038 216.072 135.327L215.64 135.114C214.309 134.457 212.457 134.676 211.235 133.647C209.714 135.699 208.454 133.994 207.143 133.476L207.136 133.452ZM188.042 135.193L187.66 134.798L188.062 134.749C188.062 134.81 188.023 134.858 188.023 134.913C188.025 135.014 188.038 135.114 188.062 135.212L188.042 135.193ZM162.883 131.437C162.43 131.443 161.996 131.609 161.665 131.904C161.333 132.199 161.128 132.601 161.088 133.032C161.066 133.317 161.122 133.603 161.251 133.861C161.379 134.12 161.575 134.341 161.82 134.505C160.495 134.521 159.172 134.6 157.855 134.743C157.935 134.549 157.97 134.342 157.957 134.134C157.926 133.733 157.732 133.36 157.416 133.095C157.101 132.83 156.69 132.694 156.27 132.715C155.876 132.726 155.501 132.884 155.225 133.154C154.95 133.425 154.795 133.787 154.794 134.164C152.337 133.3 149.976 132.216 147.258 131.973C147.213 131.973 147.207 131.717 147.162 131.437C149.352 131.333 151.49 131.126 153.374 132.344C154.316 132.953 154.647 132.454 155.01 131.979C155.524 132.066 156.053 132.021 156.542 131.849C157.032 131.677 157.465 131.383 157.798 130.998C159.236 128.953 162.66 129.336 164.003 129.848C165.216 130.312 166.452 130.719 167.707 131.065C167.515 131.338 167.404 131.656 167.389 131.985C167.397 132.477 167.598 132.949 167.951 133.307C168.304 133.666 168.785 133.884 169.299 133.921C169.423 133.936 169.549 133.936 169.674 133.921C169.702 134.225 169.642 134.53 169.502 134.804C168.617 134.774 167.731 134.79 166.848 134.852L166.415 134.694C165.743 134.424 165.043 134.22 164.328 134.085C164.511 133.832 164.618 133.536 164.637 133.229C164.656 132.922 164.586 132.616 164.436 132.344C164.286 132.072 164.06 131.845 163.784 131.687C163.508 131.529 163.192 131.447 162.87 131.449L162.883 131.437ZM124.142 134.98C123.957 135.321 124.428 135.686 124.593 136.052C123.802 136.225 122.998 136.335 122.188 136.381C122.111 136.355 122.032 136.335 121.952 136.32C120.749 136.094 119.553 135.656 119.177 134.566C119.115 134.35 118.977 134.162 118.785 134.034C118.593 133.906 118.36 133.847 118.127 133.866C119.481 133.679 120.822 133.415 122.143 133.075C122.021 133.185 121.947 133.335 121.933 133.495C121.953 133.649 122.027 133.793 122.142 133.904C122.257 134.014 122.408 134.084 122.57 134.104C122.732 134.086 122.884 134.017 123 133.906C123.115 133.795 123.188 133.65 123.206 133.495C123.194 133.361 123.143 133.232 123.058 133.125C122.974 133.017 122.86 132.934 122.729 132.886C123.232 132.734 123.734 132.557 124.231 132.356C124.949 132.13 125.603 131.746 126.14 131.236C126.246 131.124 126.327 130.993 126.38 130.851C126.432 130.709 126.454 130.558 126.446 130.408C127.694 130.53 128.952 130.53 130.201 130.408C130.538 130.569 130.902 130.672 131.276 130.712C131.45 130.744 131.628 130.741 131.8 130.703C131.972 130.665 132.134 130.594 132.276 130.493C133.052 130.597 133.809 130.712 134.567 130.834C134.462 131.02 134.424 131.234 134.459 131.443C134.517 131.701 134.667 131.932 134.882 132.097C135.098 132.263 135.366 132.352 135.642 132.35C135.946 132.313 136.223 132.166 136.416 131.94C136.609 131.713 136.704 131.424 136.68 131.132C138.227 131.365 139.791 131.483 141.358 131.486C141.256 131.494 141.156 131.513 141.059 131.54C139.601 131.954 136.953 130.323 136.737 133.05C136.699 133.482 136.018 133.312 135.598 133.05C135.032 132.715 134.484 132.161 133.606 132.837C134.319 134.14 136.209 133.72 138.125 134.737L137.87 134.779C135.922 134.651 133.981 134.39 132.034 134.085C130.563 133.854 129.042 134.402 127.578 134.98C126.44 134.93 125.299 134.938 124.161 135.005L124.142 134.98ZM109.802 121.586L109.878 121.464L109.917 121.604L109.802 121.586ZM261.134 133.476C260.837 133.347 260.533 133.233 260.224 133.135L261.694 132.734L266.378 132.886C266.182 133.135 266.001 133.395 265.837 133.665C265.758 133.797 265.692 133.936 265.64 134.079C265.447 133.872 265.212 133.704 264.95 133.586C264.687 133.468 264.402 133.401 264.112 133.391C263.826 133.377 263.541 133.424 263.276 133.529C263.012 133.634 262.776 133.795 262.585 134C262.12 133.878 261.63 133.714 261.153 133.501L261.134 133.476ZM239.844 139.747C239.832 139.596 239.8 139.447 239.749 139.303L240.557 139.711L239.844 139.747ZM247.119 139.139C246.842 139.231 246.553 139.286 246.26 139.303C246.332 139.131 246.379 138.951 246.4 138.767C246.413 138.52 246.373 138.272 246.283 138.04C246.193 137.808 246.054 137.596 245.875 137.416C245.697 137.237 245.482 137.094 245.244 136.997C245.006 136.899 244.749 136.849 244.49 136.849C244.199 136.857 243.913 136.93 243.657 137.062C242.969 136.795 242.256 136.569 241.62 136.253C240.983 135.936 239.863 135.863 240.347 135.035C240.748 134.353 241.531 134.883 242.065 135.126C242.397 135.274 242.766 135.332 243.13 135.292C243.494 135.252 243.839 135.117 244.128 134.901C245.867 135.197 247.609 135.484 249.353 135.76C249.663 135.806 249.975 135.836 250.289 135.851C249.963 135.991 249.684 136.213 249.48 136.492C249.276 136.772 249.155 137.1 249.13 137.44C249.109 137.751 249.172 138.062 249.312 138.343C249.453 138.625 249.666 138.867 249.932 139.047C249.422 139.078 248.911 139.059 248.405 138.992L247.119 139.139ZM239.698 134.597C239.389 134.554 239.095 134.443 238.839 134.274C238.867 134.176 238.888 134.076 238.902 133.976L239.539 134.097C239.583 134.27 239.643 134.439 239.717 134.603L239.698 134.597ZM428.555 62.188C427.967 62.2571 427.392 62.4003 426.843 62.6141C426.649 62.7027 426.449 62.78 426.245 62.8455C426.244 62.8232 426.244 62.8008 426.245 62.7785C426.593 62.2258 426.841 61.6205 426.977 60.9885L430.159 61.3538C430.159 61.5121 430.159 61.6765 430.159 61.8348L428.555 62.188ZM425.583 46.3034C425.204 45.9775 424.732 45.7658 424.228 45.6946C425.615 45.3963 427.117 45.5302 428.53 45.0858L428.867 45.6946C427.881 46.3217 426.741 46.3217 425.602 46.3217L425.583 46.3034ZM428.441 49.5547C428.174 49.6156 427.893 49.646 427.613 49.6825C427.553 49.6329 427.496 49.58 427.442 49.5242C427.881 49.4207 428.39 49.3476 429.001 49.2563C429.154 49.2563 429.306 49.2563 429.459 49.2076C429.144 49.3714 428.808 49.4962 428.46 49.579L428.441 49.5547ZM228.846 133.306C228.596 133.565 228.426 133.885 228.356 134.231C227.686 134.051 227.078 133.704 226.593 133.227C227.344 133.263 228.095 133.288 228.846 133.306ZM257.875 132.636L259.396 132.685C259.508 132.786 259.61 132.896 259.702 133.014C259.1 132.857 258.491 132.731 257.875 132.636ZM115.238 136.24C115.051 136.255 114.865 136.221 114.697 136.143C114.529 136.065 114.386 135.945 114.283 135.796C114.366 135.663 114.418 135.513 114.434 135.359C114.451 135.204 114.432 135.048 114.378 134.901C114.549 134.723 114.77 134.596 115.015 134.536L115.651 134.377C115.59 134.466 115.561 134.57 115.568 134.676C115.583 134.759 115.619 134.837 115.674 134.903C115.728 134.969 115.799 135.021 115.88 135.053C115.877 135.082 115.877 135.11 115.88 135.139C115.954 135.511 115.905 135.896 115.74 136.24H115.238ZM180.901 135.546C180.731 135.742 180.495 135.876 180.233 135.924C180.137 135.809 180.058 135.682 179.998 135.546H180.901ZM234.676 135.546C234.453 135.163 233.874 134.7 234.491 134.329C234.605 134.26 234.73 134.21 234.861 134.183C234.997 134.567 235.245 134.906 235.577 135.158C235.909 135.411 236.31 135.567 236.732 135.607C237.807 136.697 238.928 137.738 241.225 137.245C241.532 137.207 241.843 137.229 242.14 137.308C242.437 137.388 242.715 137.524 242.956 137.708C242.774 137.969 242.669 138.271 242.651 138.585C242.639 138.885 242.709 139.183 242.855 139.449C241.843 139.144 240.782 139.02 239.723 139.084C239.587 138.764 239.351 138.491 239.049 138.302C238.747 138.113 238.391 138.016 238.03 138.024C237.787 138.019 237.545 138.06 237.318 138.146C237.092 138.233 236.886 138.362 236.714 138.526C236.541 138.691 236.405 138.887 236.314 139.103C236.223 139.319 236.179 139.551 236.184 139.784C236.184 139.784 236.184 139.784 236.184 139.827C235.185 139.827 234.18 139.827 233.174 139.778C236.286 138.42 236.248 138.304 234.676 135.565V135.546ZM389.438 42.8514C389.031 42.9899 388.595 43.0358 388.165 42.9853C387.723 42.7095 387.298 42.4086 386.893 42.0843L386.409 41.6946C387.472 41.7677 388.592 41.7615 389.438 42.8696V42.8514ZM367.907 35.9715C368.215 36.3588 368.496 36.7656 368.747 37.1892C368.862 37.4327 368.97 37.6276 369.078 37.798L366.481 37.4875L366.596 37.3597C366.952 36.9396 367.379 36.5804 367.907 35.9715ZM359.34 36.8482L359.105 36.9153C358.563 37.0891 358.004 37.2074 357.437 37.2684C357.666 37.0135 357.976 36.837 358.319 36.7656C358.663 36.6942 359.021 36.7317 359.34 36.8726V36.8482ZM314.628 30.151C314.628 30.3154 314.686 30.4798 314.711 30.6442L313.305 30.8695C313.305 30.7112 313.247 30.5529 313.222 30.3885L314.628 30.151ZM166.81 32.3672C165.625 32.5598 164.428 32.6819 163.227 32.7326C164.442 31.5819 164.881 31.4296 166.81 32.3733V32.3672ZM73.8864 106.864C73.4335 106.953 72.9919 107.088 72.569 107.266H72.4735C71.2896 106.724 70.2332 106.048 70.0041 104.666C70.7152 104.747 71.4354 104.717 72.1361 104.575C72.3907 104.526 72.7727 105.153 72.8554 105.184L76.4577 103.717L75.4903 102.736C75.5081 102.691 75.523 102.644 75.5349 102.596C75.9059 102.826 76.2609 103.078 76.5977 103.351C77.9598 104.301 78.558 104.246 79.78 102.858C81.4561 103.382 83.13 103.913 84.8018 104.453C81.174 105.239 77.5333 106.067 73.8864 106.87V106.864ZM107.619 120.07C107.504 120.011 107.409 119.923 107.344 119.816C107.279 119.708 107.246 119.585 107.25 119.461C107.25 119.406 107.25 119.339 107.25 119.278C108.268 118.825 109.401 118.66 110.515 118.804C110.515 119.303 109.878 119.351 109.376 119.583C108.825 119.816 108.245 119.982 107.651 120.076L107.619 120.07ZM103.234 122.505L103.336 122.633L103.208 122.73C103.17 122.688 103.107 122.645 103.113 122.609C103.119 122.572 103.221 122.566 103.266 122.536L103.234 122.505ZM94.2088 141.069C93.5277 141.233 93.4004 140.825 93.235 140.381C93.6499 140.256 94.076 140.168 94.5079 140.119C94.6606 140.527 94.9089 140.941 94.2406 141.099L94.2088 141.069ZM146.717 155.821C146.797 155.82 146.875 155.801 146.946 155.766C147.03 156.135 147.181 156.487 147.392 156.807C143.489 156.992 139.599 157.372 135.738 157.945C133.268 158.329 130.684 159.127 128.272 157.598L130.818 157.373C130.99 157.543 131.2 157.673 131.432 157.753C131.664 157.834 131.912 157.862 132.158 157.837C132.403 157.812 132.64 157.733 132.849 157.608C133.058 157.482 133.234 157.312 133.364 157.111H133.428C133.383 157.141 133.342 157.176 133.307 157.215C133.192 157.355 133.307 157.562 133.504 157.653C133.701 157.745 134.083 157.598 134.045 157.361C134.02 157.25 133.97 157.146 133.898 157.057C135.84 156.819 137.781 156.582 139.709 156.289C139.709 156.289 139.709 156.326 139.709 156.35C139.723 156.417 139.75 156.479 139.79 156.535C139.83 156.591 139.881 156.638 139.941 156.674C140.001 156.71 140.067 156.734 140.137 156.744C140.207 156.754 140.278 156.751 140.346 156.734C140.479 156.719 140.6 156.654 140.684 156.553C140.767 156.453 140.806 156.326 140.791 156.198C140.794 156.174 140.794 156.149 140.791 156.125C142.594 155.832 144.378 155.448 146.138 154.974C146.098 155.168 146.14 155.369 146.255 155.533C146.369 155.697 146.547 155.811 146.749 155.851L146.717 155.821ZM201.599 143.133C197.78 143.565 194.038 144.143 190.143 144.137C187.807 144.137 185.363 144.996 182.957 145.099C179.597 145.245 176.503 146.615 173.117 146.646C169.731 146.676 166.53 147.254 163.227 147.486C161.763 147.601 160.293 147.693 158.829 147.79C159.111 147.723 159.361 147.566 159.537 147.345C159.713 147.123 159.805 146.851 159.796 146.572C159.789 146.423 159.749 146.276 159.68 146.142C159.61 146.008 159.513 145.888 159.394 145.791C159.275 145.694 159.136 145.622 158.986 145.578C158.836 145.534 158.679 145.521 158.523 145.537C158.367 145.547 158.214 145.587 158.074 145.654C157.933 145.72 157.808 145.813 157.705 145.926C157.602 146.039 157.524 146.171 157.474 146.313C157.424 146.455 157.405 146.605 157.416 146.755C157.455 147.027 157.588 147.278 157.795 147.468C158.002 147.658 158.27 147.776 158.555 147.802C156.703 147.924 154.851 148.034 152.999 148.161H152.967C153.046 148.024 153.085 147.868 153.082 147.711C153.06 147.481 152.956 147.266 152.788 147.101C152.62 146.936 152.398 146.831 152.159 146.804C151.97 146.781 151.778 146.811 151.606 146.89C151.435 146.97 151.292 147.096 151.194 147.252C151.096 147.408 151.048 147.588 151.055 147.77C151.063 147.953 151.125 148.129 151.236 148.277L146.36 148.612C146.29 148.456 146.175 148.321 146.029 148.224C145.883 148.127 145.711 148.072 145.533 148.064C145.348 148.079 145.172 148.151 145.033 148.27C144.894 148.388 144.8 148.547 144.763 148.722L143.096 148.831C142.725 148.781 142.361 148.697 142.007 148.582C144.623 148.082 146.787 147.674 148.945 147.242C149.74 147.084 150.746 147.181 150.854 146.024C145.234 146.445 139.608 146.889 133.981 147.242C132.887 147.315 131.614 147.76 130.863 146.402C130.5 145.757 129.952 146.122 129.52 146.402C128.807 146.871 128.107 147.333 126.872 146.944C128.476 145.623 125.567 144.277 127.139 142.816C128.088 141.945 129.004 141.142 130.417 141.172C131.059 140.806 131.781 140.587 132.526 140.532C133.272 140.477 134.02 140.588 134.713 140.855L142.535 140.308C146.055 140.308 149.536 140.143 153.075 140.265C153.988 140.288 154.902 140.266 155.812 140.198C155.51 140.359 155.255 140.592 155.074 140.874C154.953 141.081 155.475 141.951 155.71 141.964C156.098 141.924 156.468 141.79 156.786 141.574C156.966 141.682 157.172 141.744 157.384 141.757C157.571 141.774 157.76 141.755 157.939 141.7C158.119 141.645 158.284 141.555 158.425 141.436C158.567 141.317 158.681 141.172 158.761 141.01C158.842 140.847 158.886 140.67 158.892 140.49C158.908 140.298 158.871 140.105 158.784 139.93C160.006 139.808 161.228 139.693 162.45 139.662C162.533 139.995 162.731 140.291 163.012 140.503C163.292 140.715 163.639 140.831 163.997 140.831C164.324 140.822 164.64 140.719 164.904 140.534C165.168 140.349 165.366 140.092 165.473 139.796C166.414 139.917 167.338 140.136 168.229 140.448C168.415 140.496 168.61 140.496 168.796 140.448C172.08 139.656 175.237 140.216 178.559 140.527C180.322 140.691 182.104 140.782 183.893 140.862C183.607 141.002 183.371 141.219 183.214 141.486C183.057 141.754 182.985 142.059 183.008 142.365C183.025 142.796 183.217 143.203 183.545 143.499C183.872 143.795 184.308 143.957 184.758 143.948C185.207 143.916 185.627 143.722 185.933 143.406C186.239 143.09 186.408 142.674 186.407 142.244C186.396 141.98 186.317 141.723 186.177 141.496C186.037 141.269 185.84 141.078 185.605 140.941C186.878 140.996 188.151 141.062 189.379 141.154C189.379 141.154 189.379 141.154 189.379 141.19C189.381 141.621 189.552 142.035 189.859 142.349C190.166 142.664 190.585 142.857 191.034 142.889C191.48 142.929 191.927 142.809 192.286 142.553C192.646 142.296 192.894 141.922 192.981 141.501C194.375 141.671 195.776 141.769 197.182 141.824C197.328 141.875 197.48 141.907 197.634 141.921C197.825 141.936 198.017 141.918 198.2 141.866C202.496 141.994 206.818 141.866 211.089 142.353C207.951 142.633 204.781 142.804 201.631 143.163L201.599 143.133ZM226.173 139.437C226.697 139.44 227.22 139.476 227.739 139.546C227.496 139.654 227.229 139.703 226.962 139.691C226.695 139.678 226.435 139.603 226.205 139.473L226.173 139.437ZM228.553 139.668L228.808 139.711C228.757 139.735 228.668 139.711 228.585 139.699L228.553 139.668ZM276.104 146.786C275.537 146.807 274.972 146.856 274.41 146.932C274.433 146.862 274.451 146.791 274.461 146.719C274.446 146.353 274.296 146.005 274.039 145.735C273.782 145.464 273.433 145.289 273.055 145.239C272.638 145.215 272.227 145.347 271.91 145.607C271.593 145.868 271.394 146.235 271.355 146.633C271.346 146.811 271.372 146.989 271.432 147.157L269.026 147.236C268.798 147.342 268.559 147.426 268.313 147.486H267.817C267.721 147.187 267.528 146.924 267.266 146.737C267.004 146.55 266.686 146.448 266.359 146.445C266.078 146.456 265.807 146.548 265.581 146.707C265.354 146.866 265.182 147.087 265.086 147.34C261.989 147.078 258.945 146.404 256.042 145.337C256.074 144.782 256.106 144.326 256.131 143.894C256.634 143.894 257.137 143.948 257.646 143.961C257.922 144.225 258.295 144.378 258.686 144.387C259.077 144.396 259.457 144.261 259.746 144.009C262.343 144.009 264.94 143.954 267.53 143.912L271.985 143.212C273.469 143.076 274.964 143.106 276.441 143.303C276.492 143.224 276.543 143.145 276.6 143.072C276.543 143.145 276.492 143.224 276.441 143.303C276.568 143.772 276.829 144.094 277.395 144.07L278.242 144.679H278.299H278.242C278.242 144.709 278.242 144.728 278.242 144.758C278.036 145.011 277.918 145.32 277.905 145.641C277.913 145.713 277.928 145.784 277.949 145.854C277.78 146.168 277.517 146.426 277.194 146.597C276.872 146.769 276.503 146.845 276.135 146.816L276.104 146.786ZM294.408 146.396L294.682 146.438L294.612 146.67L294.408 146.396ZM363.35 149.13C363.974 148.786 364.669 148.578 365.386 148.521C364.682 148.593 364.002 148.811 363.394 149.16L363.35 149.13ZM386.549 136.551C386.479 136.472 386.428 136.387 386.358 136.308C386.132 136.191 385.951 136.007 385.842 135.784C385.575 135.522 385.333 135.248 385.072 134.986C385.225 134.377 385.919 134.03 387.714 133.16L389.897 134.475C389.109 135.553 387.925 136.306 386.581 136.581L386.549 136.551ZM411.886 106.773C413.509 105.72 414.623 105.793 415.953 106.943C414.534 107.851 413.452 107.254 411.918 106.803L411.886 106.773Z" fill="#FFC700"/>
</svg>
