<svg width="46" height="46" viewBox="0 0 46 46" fill="none" xmlns="http://www.w3.org/2000/svg">
<circle cx="23" cy="23" r="23" fill="url(#paint0_linear)"/>
<path d="M28.5629 17.7761H27.9154C27.6583 17.7761 27.4498 17.9846 27.4498 18.2417C27.4498 18.4989 27.6583 18.7074 27.9154 18.7074H28.5629C28.8201 18.7074 29.0286 18.4989 29.0286 18.2417C29.0286 17.9846 28.8201 17.7761 28.5629 17.7761Z" fill="white"/>
<path d="M34.3 16.2936C33.9648 15.9584 33.5192 15.7738 33.0451 15.7738C32.5711 15.7738 32.1254 15.9584 31.7903 16.2936C31.6084 16.4754 31.6084 16.7703 31.7903 16.9521C31.9721 17.134 32.267 17.1339 32.4488 16.9521C32.6081 16.7928 32.8198 16.7051 33.0451 16.7051C33.2704 16.7051 33.4821 16.7928 33.6414 16.9521C33.7323 17.043 33.8515 17.0885 33.9707 17.0885C34.0898 17.0885 34.209 17.0429 34.3 16.9521C34.4818 16.7702 34.4818 16.4753 34.3 16.2936Z" fill="white"/>
<path d="M29.4941 16.2934C28.8021 15.6015 27.6763 15.6015 26.9844 16.2934C26.8025 16.4753 26.8025 16.7701 26.9844 16.9519C27.1662 17.1338 27.4611 17.1338 27.6429 16.9519C27.8021 16.7927 28.014 16.7049 28.2392 16.7049C28.4644 16.7049 28.6762 16.7927 28.8355 16.9519C28.9264 17.0428 29.0456 17.0883 29.1647 17.0883C29.2839 17.0883 29.4031 17.0428 29.4941 16.9519C29.6759 16.7701 29.6759 16.4752 29.4941 16.2934Z" fill="white"/>
<path d="M33.3689 17.7761H32.7214C32.4642 17.7761 32.2557 17.9846 32.2557 18.2417C32.2557 18.4989 32.4642 18.7074 32.7214 18.7074H33.3689C33.626 18.7074 33.8345 18.4989 33.8345 18.2417C33.8345 17.9846 33.626 17.7761 33.3689 17.7761Z" fill="white"/>
<path d="M38 17.2877C38 16.4174 37.3518 15.6961 36.5129 15.5796L36.4866 15.3076L36.8193 15.3662C36.8466 15.3711 36.8737 15.3733 36.9005 15.3733C37.1223 15.3733 37.3188 15.2143 37.3585 14.9884C37.4031 14.7351 37.2339 14.4936 36.9807 14.449L36.3838 14.344C36.3588 14.1798 36.3277 14.0171 36.2892 13.8567L36.4639 13.8853C36.4893 13.8894 36.5145 13.8915 36.5396 13.8915C36.7636 13.8915 36.9613 13.7292 36.9986 13.5008C37.04 13.247 36.868 13.0076 36.6142 12.9662L35.9504 12.8577C35.6257 12.1273 35.1505 11.4659 34.5468 10.9176C33.4758 9.94507 32.0891 9.40942 30.642 9.40942C29.5548 9.40942 28.4937 9.71239 27.5736 10.2856C27.3553 10.4216 27.2886 10.7087 27.4246 10.9271C27.5605 11.1454 27.8477 11.2121 28.0661 11.0761C28.8383 10.5951 29.7291 10.3408 30.642 10.3408C31.8571 10.3408 33.0215 10.7905 33.9206 11.6071C34.2739 11.9279 34.5739 12.2954 34.8161 12.696C34.6224 12.726 34.4612 12.877 34.4279 13.0809C34.3864 13.3347 34.5585 13.5741 34.8123 13.6156L35.2738 13.691C35.3259 13.8491 35.3695 14.0105 35.4053 14.174C35.1677 14.1539 34.9501 14.3179 34.9079 14.5571C34.8633 14.8104 35.0325 15.0518 35.2858 15.0964L35.5346 15.1403L35.8812 18.7266C35.9765 19.7117 35.6713 20.6717 35.0388 21.4145C34.884 21.2849 34.7203 21.1193 34.528 20.9207C34.0767 20.4547 33.5652 19.9264 32.7641 19.5964C32.2728 19.3943 31.8537 19.3576 31.5104 19.4005V18.2506C31.5104 17.9935 31.3019 17.785 31.0448 17.785C30.7876 17.785 30.5792 17.9935 30.5792 18.2506V19.6903C30.5558 19.6749 30.532 19.6601 30.5078 19.6461C30.108 19.4148 29.4385 19.2182 28.52 19.5965C27.7187 19.9264 27.2071 20.4547 26.7558 20.9208C26.5636 21.1194 26.3997 21.285 26.245 21.4146C25.6129 20.6722 25.3077 19.7121 25.4026 18.7265L25.7492 15.1403L25.9982 15.0964C26.2514 15.0518 26.4206 14.8104 26.376 14.5571C26.3339 14.3178 26.1161 14.1539 25.8785 14.174C25.9145 14.0106 25.9585 13.8493 26.0107 13.6909L26.4716 13.6156C26.7254 13.5741 26.8976 13.3347 26.8561 13.0809C26.8227 12.8774 26.6621 12.7265 26.4689 12.6961C26.6737 12.3569 26.9193 12.0413 27.2033 11.7592C27.3858 11.5779 27.3867 11.2831 27.2054 11.1007C27.0241 10.9182 26.7293 10.9173 26.5469 11.0986C26.035 11.6071 25.6269 12.2057 25.3368 12.8574L24.6698 12.9664C24.416 13.0079 24.2439 13.2472 24.2854 13.501C24.3227 13.7295 24.5203 13.8917 24.7444 13.8917C24.7694 13.8917 24.7947 13.8897 24.8201 13.8855L24.9963 13.8567C24.9575 14.0174 24.9255 14.18 24.9004 14.3441L24.3033 14.4492C24.0501 14.4938 23.8809 14.7353 23.9255 14.9886C23.9653 15.2146 24.1617 15.3736 24.3835 15.3736C24.4103 15.3736 24.4374 15.3712 24.4647 15.3664L24.7973 15.3079L24.771 15.5797C23.9322 15.6961 23.2841 16.4176 23.2841 17.2879C23.2841 18.0475 23.7717 18.6933 24.4571 18.9231C24.4217 19.9519 24.731 20.9456 25.3328 21.7635C25.1934 21.8075 25.0793 21.9154 25.0311 22.0593C24.9674 22.249 25.0321 22.4581 25.1917 22.5788C25.4216 22.7526 25.6888 22.9173 25.9752 23.0629C25.9763 23.0731 25.9777 23.0837 25.9789 23.0941C24.7644 23.8485 24.0228 25.1675 24.0228 26.6146V33.6747C24.0228 33.9318 24.2313 34.1403 24.4885 34.1403H26.9424C26.943 34.1403 26.9436 34.1404 26.9442 34.1404C26.9449 34.1404 26.9454 34.1403 26.9461 34.1403H30.6403C30.6409 34.1403 30.6415 34.1404 30.6421 34.1404C30.6427 34.1404 30.6433 34.1403 30.6439 34.1403H34.3374C34.3381 34.1403 34.3386 34.1404 34.3392 34.1404C34.3399 34.1404 34.3404 34.1403 34.3411 34.1403H36.7956C37.0527 34.1403 37.2612 33.9318 37.2612 33.6747V26.6146C37.2612 25.7994 37.0242 25.0097 36.5756 24.3307C36.4339 24.1161 36.145 24.057 35.9305 24.1989C35.7159 24.3406 35.6568 24.6295 35.7986 24.8441C36.1462 25.3703 36.3299 25.9825 36.3299 26.6145V33.2089H34.8049V26.6573C34.8049 26.4002 34.5964 26.1917 34.3392 26.1917C34.0821 26.1917 33.8736 26.4002 33.8736 26.6573V33.2087H31.1078V27.2319L32.1783 25.9606L32.1948 26.0133C32.2323 26.1332 32.3166 26.2329 32.4286 26.2897C32.5407 26.3466 32.671 26.3557 32.7897 26.3151C34.0862 25.8724 34.766 24.9011 35.0847 24.0193C35.1143 24.0251 35.1439 24.029 35.1737 24.029C35.3232 24.029 35.47 23.9572 35.56 23.8239C35.7039 23.6108 35.6479 23.3214 35.4347 23.1774C35.3926 23.1489 35.3483 23.1223 35.3047 23.0952C35.3059 23.0843 35.3073 23.0732 35.3085 23.0625C35.5949 22.917 35.862 22.7523 36.0919 22.5785C36.2515 22.4578 36.3161 22.2486 36.2525 22.0589C36.2043 21.9151 36.0903 21.8072 35.9508 21.7632C36.553 20.945 36.8624 19.9511 36.8267 18.9227C37.5124 18.6929 38 18.0472 38 17.2877ZM24.5439 17.9317C24.3444 17.7875 24.2156 17.5526 24.2156 17.2877C24.2156 16.9694 24.4044 16.6949 24.6756 16.5686L24.5439 17.9317ZM30.1766 33.2087H27.4101V26.6573C27.4101 26.4002 27.2016 26.1917 26.9444 26.1917C26.6873 26.1917 26.4788 26.4002 26.4788 26.6573V33.2087H24.9543V26.6144C24.9543 25.5981 25.426 24.6632 26.2149 24.0611C26.5401 24.9316 27.2186 25.8794 28.4947 26.3151C28.6136 26.3557 28.7438 26.3466 28.8558 26.2897C28.9678 26.2329 29.0521 26.1332 29.0896 26.0133L29.106 25.9606L30.1766 27.2319V33.2087ZM32.9297 25.2421L32.814 24.8719C32.7633 24.7096 32.6281 24.5878 32.4614 24.5543C32.2947 24.5208 32.1229 24.5807 32.0134 24.7108L30.6423 26.339L29.2712 24.7108C29.1616 24.5807 28.9899 24.5208 28.8231 24.5543C28.6564 24.5878 28.5212 24.7096 28.4705 24.8719L28.3546 25.2426C27.51 24.7889 27.1524 24.0297 27.0009 23.4695C27.7134 23.6791 28.6952 23.8224 29.5919 23.4527C30.015 23.2782 30.3661 23.0118 30.6421 22.657C30.918 23.0119 31.269 23.2782 31.692 23.4526C32.0933 23.6181 32.5117 23.6809 32.9154 23.6809C33.4124 23.6809 33.8865 23.5857 34.2796 23.4703C34.1262 24.0302 33.768 24.7896 32.9297 25.2421ZM34.6694 22.3367C33.6981 22.773 32.7178 22.8681 32.0471 22.5916C31.5946 22.405 31.2773 22.0607 31.077 21.5388C31.0079 21.3588 30.8351 21.24 30.6424 21.24C30.6424 21.24 30.6424 21.24 30.6423 21.24C30.4496 21.24 30.2767 21.3588 30.2076 21.5388C30.0073 22.0606 29.6898 22.405 29.2371 22.5917C28.5663 22.8682 27.5859 22.7729 26.6151 22.3369C26.605 22.3323 26.5949 22.3277 26.5848 22.3231C26.8959 22.1151 27.1627 21.8395 27.425 21.5685C27.832 21.1482 28.2528 20.7136 28.8748 20.4575C29.3306 20.2697 29.7232 20.2679 30.0414 20.4521C30.1263 20.5012 30.1958 20.5688 30.2481 20.6528C30.333 20.7889 30.4819 20.8717 30.6424 20.8721C30.6426 20.8721 30.643 20.8721 30.6434 20.8721C30.8034 20.8721 30.9522 20.79 31.0375 20.6545C31.0948 20.5635 31.1741 20.4888 31.2674 20.4383C31.5805 20.2682 31.9648 20.2745 32.4098 20.4576C33.0314 20.7136 33.4523 21.1482 33.8592 21.5686C34.1215 21.8395 34.3884 22.1151 34.6996 22.3231C34.6895 22.3277 34.6795 22.3322 34.6694 22.3367ZM36.7402 17.9317L36.6085 16.5686C36.8798 16.695 37.0687 16.9694 37.0687 17.2877C37.0686 17.5526 36.9398 17.7874 36.7402 17.9317Z" fill="white"/>
<path d="M20.7973 25.1616C20.5711 25.0395 20.2884 25.124 20.1664 25.3503C20.0442 25.5766 20.1287 25.8591 20.355 25.9812C21.3978 26.544 22.0458 27.629 22.0458 28.8129V33.209H20.5208V28.8555C20.5208 28.5984 20.3123 28.3899 20.0552 28.3899C19.798 28.3899 19.5895 28.5984 19.5895 28.8555V33.209H13.1258V28.8555C13.1258 28.5984 12.9173 28.3899 12.6601 28.3899C12.403 28.3899 12.1945 28.5984 12.1945 28.8555V33.209H10.67V31.4641C10.67 31.2069 10.4615 30.9984 10.2044 30.9984C9.9472 30.9984 9.73871 31.2069 9.73871 31.4641V33.6746C9.73871 33.9317 9.9472 34.1402 10.2044 34.1402H22.5113C22.7685 34.1402 22.977 33.9317 22.977 33.6746V28.8129C22.977 27.2863 22.1418 25.8872 20.7973 25.1616Z" fill="white"/>
<path d="M18.7399 26.5615C18.4828 26.5615 18.2743 26.77 18.2743 27.0271C18.2743 28.0838 17.4147 28.9434 16.3581 28.9434C15.3014 28.9434 14.4418 28.0837 14.4418 27.0271C14.4418 26.77 14.2333 26.5615 13.9762 26.5615C13.719 26.5615 13.5105 26.77 13.5105 27.0271C13.5105 28.5973 14.7879 29.8747 16.3581 29.8747C17.9283 29.8747 19.2057 28.5973 19.2057 27.0271C19.2056 26.77 18.9971 26.5615 18.7399 26.5615Z" fill="white"/>
<path d="M23.7156 19.3261C23.7157 18.4558 23.0675 17.7344 22.2286 17.6179L22.1397 16.698C22.0006 15.2578 21.3339 13.9289 20.2628 12.9562C19.99 12.7085 19.6966 12.4896 19.3872 12.3003C19.4034 12.1725 19.412 12.0434 19.412 11.9135C19.412 10.2296 18.042 8.85965 16.3581 8.85965C14.9133 8.85965 13.6549 9.88541 13.3657 11.2986C13.3141 11.5505 13.4766 11.7966 13.7285 11.8482C13.9805 11.8998 14.2265 11.7373 14.2781 11.4853C14.479 10.5035 15.3537 9.79105 16.358 9.79105C17.5067 9.79105 18.4445 10.7084 18.479 11.8488C17.8095 11.5862 17.0916 11.4479 16.3578 11.4479C14.911 11.4479 13.5242 11.9836 12.4529 12.9562C11.3817 13.9289 10.7151 15.2578 10.576 16.698L10.487 17.6179C9.64814 17.7342 9 18.4557 9 19.3261C9 20.0858 9.48779 20.7317 10.1734 20.9614C10.1247 22.4592 10.8258 23.9076 12.0466 24.7946L12.3022 24.9803C10.7788 25.6097 9.73871 27.1118 9.73871 28.8131V30.1149C9.73871 30.372 9.9472 30.5805 10.2043 30.5805C10.4615 30.5805 10.67 30.372 10.67 30.1149V28.8131C10.67 27.2858 11.75 25.9653 13.2414 25.6627L14.2623 26.4044C14.889 26.8597 15.6234 27.0874 16.3578 27.0874C17.0922 27.0874 17.8266 26.8597 18.4533 26.4044L20.669 24.7946C21.8899 23.9076 22.591 22.4592 22.5422 20.9613C23.2278 20.7315 23.7156 20.0857 23.7156 19.3261ZM10.2597 19.9702C10.0602 19.826 9.93129 19.5911 9.93129 19.3261C9.93129 19.0077 10.1202 18.7332 10.3915 18.6069L10.2597 19.9702ZM13.079 13.6457C13.9784 12.829 15.1429 12.3792 16.3578 12.3792C17.5728 12.3792 18.7373 12.829 19.6367 13.6457C20.5362 14.4624 21.0958 15.5782 21.2127 16.7876L21.2232 16.8962C19.3039 16.5658 18.1855 14.4956 18.1739 14.4735C18.0939 14.3212 17.9364 14.2254 17.7644 14.2243C17.7635 14.2243 17.7625 14.2243 17.7616 14.2243C17.5907 14.2243 17.4334 14.318 17.3519 14.4685C17.3393 14.4919 16.0735 16.7284 11.5692 16.3305C11.7681 15.299 12.294 14.3584 13.079 13.6457ZM11.4578 17.2549C15.1411 17.5881 16.9633 16.2965 17.7214 15.497C18.2927 16.302 19.51 17.6596 21.3153 17.8489L21.4015 18.7412L20.4784 19.5374C20.1599 18.8718 19.4798 18.411 18.694 18.411C17.7643 18.411 16.9828 19.0563 16.7729 19.9224H15.9427C15.7328 19.0562 14.9513 18.411 14.0216 18.411C13.2358 18.411 12.5557 18.8718 12.2372 19.5374L11.3142 18.7411L11.4578 17.2549ZM19.7398 20.3881C19.7398 20.9647 19.2706 21.4338 18.694 21.4338C18.1174 21.4338 17.6483 20.9647 17.6483 20.3881C17.6483 19.8115 18.1174 19.3423 18.694 19.3423C19.2706 19.3423 19.7398 19.8115 19.7398 20.3881ZM15.0673 20.3881C15.0673 20.9647 14.5982 21.4338 14.0216 21.4338C13.445 21.4338 12.9759 20.9647 12.9759 20.3881C12.9759 19.8115 13.445 19.3423 14.0216 19.3423C14.5982 19.3423 15.0673 19.8115 15.0673 20.3881ZM20.1217 24.0411L17.9059 25.6509C16.98 26.3237 15.7357 26.3237 14.8097 25.6509L12.594 24.0411C11.5612 23.2908 10.9959 22.0352 11.1187 20.7645L11.2045 19.8765L12.0577 20.6126C12.1696 21.5973 13.0075 22.365 14.0216 22.365C14.9514 22.365 15.7328 21.7197 15.9428 20.8536H16.4472V21.7291H16.1031C15.846 21.7291 15.6375 21.9376 15.6375 22.1948C15.6375 22.4519 15.846 22.6604 16.1031 22.6604H16.9128C17.17 22.6604 17.3785 22.4519 17.3785 22.1948V21.8621C17.7282 22.1746 18.1893 22.365 18.694 22.365C19.7082 22.365 20.5461 21.5973 20.6579 20.6126L21.5112 19.8765L21.597 20.7645C21.7198 22.0352 21.1545 23.2908 20.1217 24.0411ZM22.4559 19.97L22.3242 18.607C22.5954 18.7334 22.7844 19.0078 22.7844 19.326C22.7844 19.591 22.6555 19.8258 22.4559 19.97Z" fill="white"/>
<path d="M17.7558 23.1893C17.5739 23.0074 17.2791 23.0074 17.0972 23.1893C16.6894 23.5968 16.0262 23.597 15.6185 23.1893C15.4366 23.0074 15.1418 23.0074 14.96 23.1893C14.7781 23.3711 14.7781 23.6659 14.96 23.8478C15.3455 24.2332 15.8516 24.4258 16.3579 24.4258C16.864 24.4258 17.3704 24.2331 17.7558 23.8478C17.9377 23.6659 17.9377 23.3711 17.7558 23.1893Z" fill="white"/>
<path d="M19.0178 19.6525H18.3703C18.1131 19.6525 17.9046 19.861 17.9046 20.1181C17.9046 20.3753 18.1131 20.5837 18.3703 20.5837H19.0178C19.2749 20.5837 19.4834 20.3753 19.4834 20.1181C19.4834 19.861 19.275 19.6525 19.0178 19.6525Z" fill="white"/>
<path d="M14.3454 19.6525H13.6979C13.4407 19.6525 13.2322 19.861 13.2322 20.1181C13.2322 20.3753 13.4407 20.5837 13.6979 20.5837H14.3454C14.6025 20.5837 14.811 20.3753 14.811 20.1181C14.811 19.861 14.6025 19.6525 14.3454 19.6525Z" fill="white"/>
<path d="M31.9657 28.5984C32.2228 28.5984 32.4313 28.3899 32.4313 28.1327C32.4313 27.8756 32.2228 27.6671 31.9657 27.6671C31.7085 27.6671 31.5 27.8756 31.5 28.1327C31.5 28.3899 31.7085 28.5984 31.9657 28.5984Z" fill="white"/>
<path d="M31.9657 30.5088C32.2228 30.5088 32.4313 30.3003 32.4313 30.0432C32.4313 29.786 32.2228 29.5775 31.9657 29.5775C31.7085 29.5775 31.5 29.786 31.5 30.0432C31.5 30.3003 31.7085 30.5088 31.9657 30.5088Z" fill="white"/>
<path d="M31.9657 32.4194C32.2228 32.4194 32.4313 32.211 32.4313 31.9538C32.4313 31.6966 32.2228 31.4882 31.9657 31.4882C31.7085 31.4882 31.5 31.6966 31.5 31.9538C31.5 32.211 31.7085 32.4194 31.9657 32.4194Z" fill="white"/>
<defs>
<linearGradient id="paint0_linear" x1="0" y1="0" x2="51.4762" y2="52.5714" gradientUnits="userSpaceOnUse">
<stop stop-color="#FF5C01"/>
<stop offset="1" stop-color="#FFBB01"/>
</linearGradient>
</defs>
</svg>
