<svg width="46" height="46" viewBox="0 0 46 46" fill="none" xmlns="http://www.w3.org/2000/svg">
<circle cx="23" cy="23" r="23" fill="url(#paint0_linear)"/>
<g clip-path="url(#clip0)">
<path d="M36.451 22.451H34.131L34.6962 21.8858C34.9106 21.6714 34.9106 21.3238 34.6962 21.1093C34.4817 20.895 34.1342 20.895 33.9197 21.1093L32.5781 22.451H30.1779L31.8353 20.7937C32.0496 20.5793 32.0496 20.2317 31.8353 20.0172C31.6208 19.8029 31.2733 19.8029 31.0588 20.0172L28.625 22.4511H24.3255L27.3658 19.4109H30.8076C31.1108 19.4109 31.3566 19.165 31.3566 18.8619C31.3566 18.5587 31.1108 18.3128 30.8076 18.3128H28.4638L30.1611 16.6156H33.6029C33.9061 16.6156 34.1519 16.3697 34.1519 16.0666C34.1519 15.7634 33.906 15.5176 33.6029 15.5176H31.2591L32.8996 13.8771C33.114 13.6628 33.114 13.3151 32.8996 13.1007C32.6852 12.8864 32.3376 12.8864 32.1231 13.1007L30.4827 14.7411V12.3972C30.4827 12.094 30.2368 11.8482 29.9337 11.8482C29.6305 11.8482 29.3847 12.0941 29.3847 12.3972V15.839L27.6874 17.5362V15.1924C27.6874 14.8892 27.4416 14.6434 27.1384 14.6434C26.8353 14.6434 26.5894 14.8893 26.5894 15.1924V18.6343L23.5492 21.6745V17.375L25.983 14.9413C26.1974 14.7269 26.1974 14.3792 25.983 14.1648C25.7687 13.9506 25.4211 13.9505 25.2065 14.1648L23.5492 15.8222V13.4219L25.983 10.9882C26.1974 10.7738 26.1974 10.4261 25.983 10.2117C25.7687 9.9975 25.4212 9.99739 25.2066 10.2117L23.5493 11.8691V9.54901C23.549 9.24588 23.3032 9 23 9C22.6968 9 22.451 9.24588 22.451 9.54901V11.869L20.7936 10.2117C20.5792 9.99734 20.2317 9.99734 20.0172 10.2117C19.8028 10.426 19.8028 10.7737 20.0172 10.9881L22.451 13.4219V15.8221L20.7937 14.1647C20.5793 13.9504 20.2317 13.9504 20.0172 14.1647C19.8029 14.3791 19.8029 14.7268 20.0172 14.9412L22.4511 17.375V21.6745L19.4109 18.6342V15.1924C19.4109 14.8892 19.165 14.6434 18.8619 14.6434C18.5587 14.6434 18.3128 14.8892 18.3128 15.1924V17.5362L16.6156 15.8389V12.3972C16.6156 12.094 16.3697 11.8482 16.0666 11.8482C15.7634 11.8482 15.5176 12.0941 15.5176 12.3972V14.7409L13.8769 13.1005C13.6625 12.8861 13.315 12.8861 13.1005 13.1005C12.8861 13.3148 12.8861 13.6625 13.1005 13.8769L14.7409 15.5174H12.3972C12.094 15.5174 11.8482 15.7633 11.8482 16.0664C11.8482 16.3696 12.0941 16.6154 12.3972 16.6154H15.839L17.5362 18.3126H15.1924C14.8892 18.3126 14.6434 18.5585 14.6434 18.8616C14.6434 19.1648 14.8893 19.4106 15.1924 19.4106H18.6343L21.6745 22.4509H17.375L14.9412 20.0171C14.7269 19.8028 14.3794 19.8028 14.1648 20.0171C13.9504 20.2314 13.9504 20.5791 14.1648 20.7935L15.8222 22.4508H13.4219L10.9882 20.017C10.7738 19.8028 10.4262 19.8027 10.2117 20.017C9.99734 20.2314 9.99734 20.579 10.2117 20.7935L11.8691 22.4508H9.54901C9.24587 22.451 9 22.6968 9 23C9 23.3032 9.24587 23.549 9.54901 23.549H11.869L10.2117 25.2064C9.99728 25.4207 9.99728 25.7684 10.2117 25.9828C10.3189 26.09 10.4594 26.1436 10.5999 26.1436C10.7404 26.1436 10.8809 26.09 10.9881 25.9828L13.4219 23.549H15.8222L14.1648 25.2063C13.9504 25.4207 13.9504 25.7683 14.1648 25.9828C14.272 26.09 14.4125 26.1435 14.553 26.1435C14.6935 26.1435 14.834 26.0899 14.9412 25.9828L17.3751 23.5489H21.6746L18.6344 26.5891H15.1925C14.8893 26.5891 14.6435 26.835 14.6435 27.1382C14.6435 27.4413 14.8894 27.6872 15.1925 27.6872H17.5363L15.8391 29.3844H12.3972C12.094 29.3844 11.8482 29.6303 11.8482 29.9334C11.8482 30.2365 12.0941 30.4824 12.3972 30.4824H14.7409L13.1005 32.1231C12.8861 32.3375 12.8861 32.6851 13.1005 32.8995C13.2077 33.0067 13.3482 33.0603 13.4887 33.0603C13.6292 33.0603 13.7697 33.0067 13.8769 32.8995L15.5174 31.2591V33.6028C15.5174 33.906 15.7633 34.1518 16.0664 34.1518C16.3695 34.1518 16.6154 33.9059 16.6154 33.6028V30.161L18.3126 28.4638V30.8076C18.3126 31.1108 18.5585 31.3566 18.8616 31.3566C19.1648 31.3566 19.4106 31.1107 19.4106 30.8076V27.3657L22.4509 24.3255V28.625L20.0171 31.0588C19.8027 31.2731 19.8027 31.6208 20.0171 31.8352C20.2316 32.0495 20.5791 32.0496 20.7936 31.8352L22.4509 30.1778V32.5781L20.0171 35.0118C19.8027 35.2262 19.8027 35.5739 20.0171 35.7883C20.2315 36.0026 20.579 36.0027 20.7935 35.7883L22.4508 34.1309V36.4509C22.4508 36.7541 22.6967 36.9999 22.9998 36.9999C23.303 36.9999 23.5488 36.7541 23.5488 36.4509V34.1309L25.2062 35.7883C25.3134 35.8955 25.4539 35.9491 25.5944 35.9491C25.7349 35.9491 25.8754 35.8954 25.9827 35.7883C26.197 35.5739 26.197 35.2263 25.9827 35.0118L23.5488 32.5781V30.1778L25.2062 31.8352C25.3134 31.9424 25.4539 31.996 25.5944 31.996C25.7349 31.996 25.8754 31.9423 25.9827 31.8352C26.197 31.6208 26.197 31.2732 25.9827 31.0588L23.5488 28.625V24.3255L26.5891 27.3657V30.8076C26.5891 31.1108 26.835 31.3566 27.1381 31.3566C27.4412 31.3566 27.6871 31.1107 27.6871 30.8076V28.4638L29.3843 30.161V33.6028C29.3843 33.906 29.6302 34.1518 29.9333 34.1518C30.2365 34.1518 30.4823 33.9059 30.4823 33.6028V31.2591L32.1228 32.8995C32.23 33.0067 32.3705 33.0603 32.511 33.0603C32.6515 33.0603 32.792 33.0067 32.8993 32.8995C33.1136 32.6852 33.1136 32.3375 32.8993 32.1231L31.2588 30.4826H33.6025C33.9057 30.4826 34.1515 30.2367 34.1515 29.9336C34.1515 29.6305 33.9057 29.3846 33.6025 29.3846H30.1607L28.4635 27.6874H30.8073C31.1105 27.6874 31.3563 27.4415 31.3563 27.1384C31.3563 26.8352 31.1104 26.5894 30.8073 26.5894H27.3657L24.3255 23.5491H28.625L31.0588 25.9829C31.166 26.0901 31.3065 26.1437 31.447 26.1437C31.5875 26.1437 31.728 26.0901 31.8353 25.9829C32.0496 25.7686 32.0496 25.4209 31.8353 25.2065L30.178 23.5492H32.5782L35.0119 25.983C35.1192 26.0902 35.2597 26.1438 35.4002 26.1438C35.5407 26.1438 35.6812 26.0901 35.7884 25.983C36.0028 25.7686 36.0028 25.421 35.7884 25.2065L34.1311 23.5492H36.4511C36.7543 23.5492 37.0001 23.3034 37.0001 23.0002C37 22.6968 36.7541 22.451 36.451 22.451Z" fill="white"/>
<path d="M35.4002 22.4509C34.6936 22.4509 34.6924 23.5489 35.4002 23.5489C36.1067 23.5489 36.1078 22.4509 35.4002 22.4509Z" fill="white"/>
</g>
<defs>
<linearGradient id="paint0_linear" x1="0" y1="0" x2="51.4762" y2="52.5714" gradientUnits="userSpaceOnUse">
<stop stop-color="#FF5C01"/>
<stop offset="1" stop-color="#FFBB01"/>
</linearGradient>
<clipPath id="clip0">
<rect width="28" height="28" fill="white" transform="translate(9 9)"/>
</clipPath>
</defs>
</svg>
