<svg width="108" height="108" viewBox="0 0 108 108" fill="none" xmlns="http://www.w3.org/2000/svg">
<circle cx="54" cy="54" r="54" fill="#008E64"/>
<path d="M75.7738 31.2261C69.8243 25.2766 61.9139 22 53.5 22C46.3728 22 39.6496 24.322 34.0573 28.7148C33.656 29.0301 33.5861 29.6109 33.9014 30.0123C34.2167 30.4138 34.7977 30.4835 35.199 30.1682C40.4625 26.0336 46.7909 23.8482 53.5 23.8482C61.4203 23.8482 68.8664 26.9325 74.467 32.533C80.0675 38.1336 83.1518 45.5797 83.1518 53.5C83.1518 61.4203 80.0675 68.8664 74.467 74.467C68.8664 80.0675 61.4203 83.1518 53.5 83.1518C45.5797 83.1518 38.1336 80.0675 32.533 74.467C26.9325 68.8664 23.8482 61.4203 23.8482 53.5C23.8482 45.68 26.8674 38.3005 32.3496 32.7209C32.7072 32.3568 32.7021 31.7718 32.3381 31.4141C31.9741 31.0564 31.389 31.0616 31.0313 31.4256C25.2074 37.3529 22 45.1923 22 53.5C22 61.914 25.2766 69.8243 31.2261 75.7738C37.1756 81.7233 45.086 84.9999 53.4999 84.9999C61.9137 84.9999 69.8242 81.7233 75.7737 75.7738C81.7231 69.8243 84.9998 61.9139 84.9998 53.5C84.9998 45.0861 81.7234 37.1757 75.7738 31.2261Z" fill="white"/>
<path d="M36.956 37.3726C39.1385 35.1332 41.6939 33.3843 44.5514 32.1743C47.517 30.9187 50.6638 30.3092 53.9008 30.3648C55.8629 30.3981 57.8098 30.6786 59.6875 31.1987C60.1795 31.3351 60.6886 31.0467 60.8248 30.5548C60.9609 30.0629 60.6727 29.5537 60.1809 29.4175C58.1527 28.8558 56.0503 28.5528 53.9322 28.5169C50.4337 28.4576 47.0356 29.1154 43.8307 30.4725C40.7457 31.7788 37.9874 33.6663 35.6325 36.0827C33.2761 38.5003 31.4591 41.3084 30.2319 44.4285C28.9571 47.6695 28.3866 51.0862 28.5361 54.5839C28.6863 58.0988 29.5536 61.4721 31.1139 64.6099C31.3451 65.075 31.7677 65.4094 32.2732 65.5275C32.4043 65.558 32.5367 65.573 32.6683 65.573C33.0429 65.573 33.4099 65.4511 33.7148 65.2189L70.0546 37.5473C70.4662 37.2337 70.7141 36.7575 70.7346 36.2406C70.7552 35.7209 70.5441 35.2234 70.1556 34.8757C68.3212 33.234 66.2607 31.8752 64.0312 30.8371C63.5684 30.6217 63.0187 30.8221 62.8034 31.2847C62.5879 31.7474 62.7883 32.2972 63.251 32.5125C65.2749 33.4549 67.1483 34.6826 68.8218 36.1629L61.9428 41.401C60.5471 40.4332 59.0196 39.7241 57.4083 39.2868L57.7872 36.9411C57.8687 36.4373 57.5261 35.9629 57.0223 35.8814C56.519 35.8001 56.0441 36.1425 55.9627 36.6464L55.5961 38.9157C54.9073 38.8191 54.208 38.7674 53.4999 38.7674C52.5869 38.7674 51.6755 38.851 50.7811 39.0166L50.1052 37.5899C50.6777 36.8892 50.8515 35.9159 50.5053 35.0328C49.989 33.7158 48.4974 33.0645 47.1806 33.5806L44.6306 34.5802C43.3137 35.0963 42.6622 36.5878 43.1783 37.9049C43.5046 38.7372 44.2303 39.3201 45.0732 39.4851L45.5688 41.0605C44.6745 41.6259 43.8443 42.2841 43.0887 43.0268L41.7293 42.2197C41.8127 41.3189 41.4134 40.4143 40.633 39.8752C40.0691 39.4857 39.3875 39.3388 38.7134 39.4622C38.0393 39.5854 37.4536 39.9636 37.0641 40.5275L35.507 42.7809C35.1174 43.3446 34.9708 44.0263 35.094 44.7004C35.2172 45.3745 35.5955 45.9603 36.1593 46.3498C36.8948 46.858 37.8222 46.9362 38.6135 46.6021L39.9032 47.6312C39.5499 48.4317 39.2687 49.2619 39.0626 50.1125L37.4847 50.1436C37.0805 49.3343 36.2642 48.7766 35.3167 48.73C34.6328 48.6964 33.9757 48.9313 33.468 49.3917C32.9603 49.8519 32.6622 50.4822 32.6286 51.1666L32.4945 53.9024C32.4609 54.5867 32.6959 55.2432 33.1561 55.751C33.6163 56.2587 34.2467 56.5568 34.9311 56.5904C35.8229 56.6329 36.6533 56.2114 37.1493 55.5103L38.7899 55.7045C38.9242 56.6619 39.1532 57.6015 39.4708 58.5129L32.7074 63.663C31.3016 60.7937 30.5196 57.7134 30.3825 54.505C30.2441 51.267 30.7721 48.1043 31.9517 45.1051C33.0886 42.2149 34.7722 39.6133 36.956 37.3726ZM46.1684 52.4484C45.4155 51.2876 45.8953 49.6347 47.2381 48.7637C47.9041 48.3317 48.6755 48.1571 49.4091 48.2725C50.1056 48.3819 50.6845 48.7431 51.0388 49.2894C51.0998 49.3834 51.1508 49.4826 51.1964 49.5844L46.6973 53.0103C46.4882 52.8541 46.3089 52.665 46.1684 52.4484ZM40.5451 54.7909C40.5064 54.3553 40.1676 54.0064 39.7332 53.955L36.7304 53.5995C36.2878 53.5466 35.8721 53.8173 35.7395 54.242C35.6423 54.5537 35.3478 54.7607 35.0216 54.7443C34.6267 54.725 34.3211 54.3879 34.3406 53.993L34.4747 51.2571C34.4841 51.0658 34.5674 50.8896 34.7093 50.7609C34.8513 50.6323 35.0349 50.5665 35.2262 50.5761C35.5728 50.5931 35.8565 50.8552 35.9008 51.1992C35.9611 51.6672 36.3661 52.0138 36.8356 52.0052L39.83 51.9459C40.2673 51.9373 40.6386 51.6232 40.7197 51.1935C40.9438 50.007 41.3329 48.8585 41.876 47.7804C42.0727 47.3899 41.9688 46.9151 41.627 46.6423L39.2654 44.758C38.9177 44.4806 38.4215 44.4904 38.0848 44.7812C37.8379 44.9947 37.4781 45.0145 37.2098 44.8293C37.0522 44.7204 36.9465 44.5567 36.912 44.3683C36.8777 44.1799 36.9187 43.9893 37.0276 43.8317L38.5847 41.5782C38.6936 41.4206 38.8572 41.3149 39.0457 41.2804C39.2342 41.2457 39.4247 41.2871 39.5823 41.3959C39.8678 41.5931 39.9706 41.9655 39.8268 42.2812C39.6312 42.7104 39.7903 43.2181 40.1959 43.4589L42.773 44.989C43.1487 45.2122 43.6291 45.1417 43.925 44.8201C44.8542 43.81 45.9303 42.9569 47.1232 42.2845C47.5036 42.0701 47.682 41.6186 47.5509 41.2022L46.6442 38.3195C46.5107 37.8951 46.094 37.6257 45.6518 37.6794C45.3274 37.7183 45.0181 37.534 44.8993 37.2306C44.7551 36.8625 44.9372 36.4455 45.3053 36.3012L47.8553 35.3016C48.2233 35.1573 48.6405 35.3394 48.7847 35.7076C48.9114 36.0307 48.7887 36.3968 48.4931 36.5785C48.0911 36.8253 47.9395 37.3352 48.1415 37.7616L49.4232 40.4673C49.6102 40.862 50.0477 41.0718 50.4726 40.9705C51.4604 40.7351 52.4789 40.6157 53.5 40.6157C55.9681 40.6157 58.3239 41.2954 60.3843 42.5878L52.6889 48.4476C52.6567 48.3924 52.6242 48.3373 52.5893 48.2835C51.9455 47.2909 50.9181 46.6385 49.696 46.4465C48.5112 46.2606 47.2813 46.5325 46.2323 47.2129C44.0346 48.6385 43.3104 51.4381 44.6178 53.4539C44.7835 53.7093 44.9787 53.9423 45.1964 54.1528L41.0293 57.3259C40.7845 56.5012 40.6216 55.6528 40.5451 54.7909Z" fill="white"/>
<path d="M70.0439 69.628C67.8614 71.8674 65.3058 73.6164 62.4485 74.8261C59.4829 76.0818 56.3364 76.6908 53.0991 76.6356C52.0214 76.6174 50.9373 76.5235 49.8763 76.3566C49.3721 76.2771 48.8991 76.6216 48.8199 77.1258C48.7405 77.63 49.0849 78.103 49.5891 78.1822C50.7344 78.3624 51.9048 78.4638 53.0677 78.4835C53.2127 78.4859 53.3573 78.4872 53.5019 78.4872C56.8467 78.4872 60.097 77.8287 63.1691 76.528C66.2541 75.2216 69.0123 73.3343 71.3674 70.9178C73.7238 68.5001 75.5408 65.6922 76.768 62.5719C78.0428 59.3309 78.6134 55.9141 78.4639 52.4166C78.3137 48.9015 77.4464 45.5283 75.8862 42.3905C75.6549 41.9253 75.2323 41.5909 74.7268 41.473C74.2224 41.3551 73.6971 41.4676 73.2854 41.7814L36.9454 69.4532C36.5338 69.7667 36.2859 70.243 36.2654 70.7598C36.2448 71.2796 36.4559 71.7771 36.8444 72.1248C39.4082 74.4193 42.3568 76.1312 45.6086 77.2133C46.0925 77.3747 46.6161 77.1125 46.7771 76.6283C46.9383 76.144 46.6763 75.6207 46.1921 75.4597C43.2243 74.472 40.5287 72.9173 38.1781 70.8376L44.8892 65.7272C45.3814 66.0781 45.8908 66.3985 46.4168 66.6847L45.8863 68.1264C45.71 68.6055 45.9554 69.1365 46.4343 69.3128C46.5396 69.3515 46.6474 69.3699 46.7533 69.3699C47.1296 69.3699 47.4831 69.1384 47.6208 68.7646L48.0989 67.465C49.2632 67.9194 50.4841 68.2271 51.74 68.3752L51.96 69.9397C51.2047 70.4379 50.7485 71.315 50.8157 72.2612C50.8642 72.9447 51.176 73.5684 51.6936 74.0175C52.1643 74.4257 52.7537 74.6451 53.3706 74.6451C53.4322 74.6451 53.4941 74.6429 53.5562 74.6385L56.2883 74.4447C57.6992 74.3446 58.7658 73.1152 58.6656 71.7041C58.6023 70.8125 58.0834 70.0397 57.3281 69.631L57.3248 67.9811C58.3485 67.7092 59.3379 67.3287 60.2804 66.8442L61.3353 68.0176C60.9869 68.8527 61.0986 69.835 61.6827 70.5824C62.1047 71.1223 62.7117 71.4655 63.3918 71.5489C64.0717 71.6323 64.7438 71.4459 65.2836 71.0239L67.4417 69.3372C68.5562 68.4661 68.7542 66.8508 67.8832 65.7362C67.3326 65.0318 66.4708 64.6802 65.6158 64.7634L64.6898 63.3939C65.2658 62.7348 65.7822 62.027 66.2329 61.2787L67.7491 61.7196C67.8937 62.6128 68.5065 63.3885 69.3971 63.7154C70.0404 63.9516 70.7371 63.923 71.3589 63.635C71.9807 63.3472 72.4532 62.8343 72.6893 62.1911L73.6331 59.6198C74.1205 58.2919 73.4367 56.8149 72.1087 56.3276C71.2692 56.0195 70.3518 56.1759 69.6693 56.6971L68.1618 56.0229C68.2905 55.2308 68.3557 54.4266 68.3557 53.6233C68.3557 53.2874 68.3438 52.9533 68.3217 52.6209L69.8799 52.393C70.3849 52.3192 70.7345 51.85 70.6605 51.345C70.5867 50.8399 70.1177 50.4901 69.6125 50.5643L68.0851 50.7877C67.9374 50.0236 67.7299 49.2728 67.4621 48.5384L74.2924 43.3373C75.6981 46.2066 76.4802 49.287 76.6173 52.4954C76.7557 55.7335 76.2277 58.8961 75.0481 61.8955C73.9113 64.7858 72.2276 67.3874 70.0439 69.628ZM62.3499 53.5004C62.3499 54.5537 61.493 55.4107 60.4396 55.4107C59.9439 55.4107 59.4765 55.2155 59.1272 54.8854L62.1233 52.6039C62.269 52.877 62.3499 53.1831 62.3499 53.5004ZM66.5076 53.6236C66.5076 54.5478 66.4093 55.4734 66.2154 56.3744C66.1235 56.8012 66.3429 57.2342 66.7415 57.4124L69.4998 58.6461C69.9059 58.8277 70.3839 58.6943 70.637 58.3282C70.8228 58.0596 71.1663 57.9506 71.472 58.0628C71.8433 58.199 72.0344 58.6119 71.8981 58.9831L70.9543 61.5544C70.818 61.9257 70.4049 62.1167 70.0339 61.9805C69.7081 61.861 69.5154 61.5262 69.5758 61.1847C69.6578 60.72 69.3767 60.2683 68.9237 60.1368L66.0484 59.3008C65.6289 59.1786 65.1816 59.367 64.9757 59.7521C64.4069 60.815 63.692 61.795 62.8509 62.6646C62.5471 62.9787 62.5048 63.4627 62.7496 63.8247L64.4438 66.33C64.6931 66.6986 65.1697 66.8372 65.5776 66.6598C65.877 66.5296 66.2266 66.6179 66.4272 66.8748C66.6707 67.1863 66.6153 67.638 66.3039 67.8815L64.1458 69.5681C63.9948 69.6862 63.8071 69.7384 63.6169 69.7149C63.4268 69.6916 63.2572 69.5956 63.1392 69.4447C62.9256 69.1713 62.9384 68.7852 63.1699 68.5267C63.4846 68.1753 63.4841 67.6433 63.1687 67.2925L61.1667 65.0655C60.8743 64.7404 60.3942 64.6644 60.0159 64.8839C58.8296 65.5719 57.5486 66.0647 56.2082 66.3484C55.7804 66.439 55.4746 66.817 55.4755 67.2544L55.4815 70.2759C55.4824 70.7208 55.8003 71.102 56.2378 71.1827C56.5589 71.242 56.7993 71.5103 56.8223 71.8354C56.8504 72.2298 56.5522 72.5734 56.1577 72.6014L53.4255 72.7953C53.2352 72.8083 53.0495 72.7473 52.9049 72.6217C52.7601 72.4962 52.673 72.3218 52.6594 72.1307C52.6348 71.7846 52.8611 71.4715 53.1975 71.3864C53.6548 71.2707 53.9515 70.8291 53.8858 70.362L53.4687 67.3943C53.4078 66.9612 53.0518 66.6301 52.6155 66.6009C50.3995 66.4522 48.2876 65.7456 46.4395 64.5472L57.6488 56.0116C58.351 56.7904 59.3615 57.2592 60.4398 57.2592C62.5122 57.2592 64.1983 55.5732 64.1983 53.5007C64.1983 52.7738 63.9879 52.0743 63.605 51.4762L65.9108 49.7204C66.3066 50.9769 66.5076 52.285 66.5076 53.6236Z" fill="white"/>
<path d="M56.7819 58.9248C55.2187 58.9248 53.947 60.1965 53.947 61.7597C53.947 63.3229 55.2187 64.5946 56.7819 64.5946C58.3451 64.5946 59.6168 63.3229 59.6168 61.7597C59.6168 60.1965 58.3451 58.9248 56.7819 58.9248ZM56.7819 62.7464C56.2378 62.7464 55.7952 62.3038 55.7952 61.7597C55.7952 61.2156 56.2378 60.773 56.7819 60.773C57.326 60.773 57.7686 61.2156 57.7686 61.7597C57.7686 62.3038 57.326 62.7464 56.7819 62.7464Z" fill="white"/>
</svg>
