<svg width="20" height="20" viewBox="0 0 20 20" fill="none" xmlns="http://www.w3.org/2000/svg">
<g clip-path="url(#clip0)">
<path d="M15.5173 6.20695C15.8982 6.20695 16.207 5.89818 16.207 5.51729C16.207 5.13641 15.8982 4.82764 15.5173 4.82764C15.1364 4.82764 14.8276 5.13641 14.8276 5.51729C14.8276 5.89818 15.1364 6.20695 15.5173 6.20695Z" fill="black"/>
<path d="M15.5173 9.99992C15.8982 9.99992 16.207 9.69115 16.207 9.31026C16.207 8.92938 15.8982 8.62061 15.5173 8.62061C15.1364 8.62061 14.8276 8.92938 14.8276 9.31026C14.8276 9.69115 15.1364 9.99992 15.5173 9.99992Z" fill="black"/>
<path d="M15.5173 13.7931C15.8982 13.7931 16.207 13.4844 16.207 13.1035C16.207 12.7226 15.8982 12.4138 15.5173 12.4138C15.1364 12.4138 14.8276 12.7226 14.8276 13.1035C14.8276 13.4844 15.1364 13.7931 15.5173 13.7931Z" fill="black"/>
<path d="M15.6835 0.0427543C15.5802 -0.0139259 15.4551 -0.0139259 15.3518 0.0427543C14.6638 0.417927 12.0693 2.16482 12.0693 6.55172V19.6552C12.0693 19.8456 12.2237 20 12.4142 20H18.6211C18.8115 20 18.9659 19.8456 18.9659 19.6552V6.55172C18.9659 2.16482 16.3714 0.417927 15.6835 0.0427543ZM15.5176 14.4828C14.7558 14.4828 14.1383 13.8652 14.1383 13.1034C14.1383 12.3417 14.7558 11.7241 15.5176 11.7241C16.2794 11.7241 16.8969 12.3417 16.8969 13.1034C16.8969 13.8652 16.2794 14.4828 15.5176 14.4828ZM15.5176 10.6896C14.7558 10.6896 14.1383 10.0721 14.1383 9.31034C14.1383 8.54857 14.7558 7.93103 15.5176 7.93103C16.2794 7.93103 16.8969 8.54857 16.8969 9.31034C16.8969 10.0721 16.2794 10.6896 15.5176 10.6896ZM15.5176 6.89655C14.7558 6.89655 14.1383 6.27901 14.1383 5.51724C14.1383 4.75546 14.7558 4.13793 15.5176 4.13793C16.2794 4.13793 16.8969 4.75546 16.8969 5.51724C16.8969 6.27901 16.2794 6.89655 15.5176 6.89655Z" fill="black"/>
<path d="M5.51729 4.48282C5.89818 4.48282 6.20695 4.17406 6.20695 3.79317C6.20695 3.41228 5.89818 3.10352 5.51729 3.10352C5.13641 3.10352 4.82764 3.41228 4.82764 3.79317C4.82764 4.17406 5.13641 4.48282 5.51729 4.48282Z" fill="black"/>
<path d="M5.51729 8.27579C5.89818 8.27579 6.20695 7.96702 6.20695 7.58614C6.20695 7.20525 5.89818 6.89648 5.51729 6.89648C5.13641 6.89648 4.82764 7.20525 4.82764 7.58614C4.82764 7.96702 5.13641 8.27579 5.51729 8.27579Z" fill="black"/>
<path d="M8.62106 0H2.41416C2.22372 0 2.06934 0.154385 2.06934 0.344828V10.3448H8.96589V0.344828C8.96589 0.154385 8.8115 0 8.62106 0ZM5.51761 8.96552C4.75584 8.96552 4.1383 8.34798 4.1383 7.58621C4.1383 6.82443 4.75584 6.2069 5.51761 6.2069C6.27938 6.2069 6.89692 6.82443 6.89692 7.58621C6.89692 8.34798 6.27938 8.96552 5.51761 8.96552ZM5.51761 5.17241C4.75584 5.17241 4.1383 4.55488 4.1383 3.7931C4.1383 3.03133 4.75584 2.41379 5.51761 2.41379C6.27938 2.41379 6.89692 3.03133 6.89692 3.7931C6.89692 4.15892 6.7516 4.50975 6.49293 4.76842C6.23426 5.02709 5.88343 5.17241 5.51761 5.17241Z" fill="black"/>
<path d="M8.9657 11.0344H2.06915C1.49782 11.0344 1.03467 11.4976 1.03467 12.0689V18.9655C1.03467 19.5368 1.49782 19.9999 2.06915 19.9999H8.9657C9.53703 19.9999 10.0002 19.5368 10.0002 18.9655V12.0689C10.0002 11.4976 9.53703 11.0344 8.9657 11.0344ZM8.62087 18.2758C8.62087 18.4662 8.46649 18.6206 8.27605 18.6206C8.0856 18.6206 7.93122 18.4662 7.93122 18.2758V13.1034H5.86225V15.1724C5.86225 15.3628 5.70787 15.5172 5.51743 15.5172C5.32698 15.5172 5.1726 15.3628 5.1726 15.1724V13.1034H3.10363V18.2758C3.10363 18.4662 2.94925 18.6206 2.75881 18.6206C2.56836 18.6206 2.41398 18.4662 2.41398 18.2758V12.7586C2.41398 12.5681 2.56836 12.4137 2.75881 12.4137H8.27605C8.46649 12.4137 8.62087 12.5681 8.62087 12.7586V18.2758Z" fill="black"/>
</g>
<defs>
<clipPath id="clip0">
<rect width="20" height="20" fill="white"/>
</clipPath>
</defs>
</svg>
