<svg width="43" height="40" viewBox="0 0 43 40" fill="none" xmlns="http://www.w3.org/2000/svg">
<path d="M38.7263 10.296C38.6759 9.24365 38.6759 8.23916 38.6759 7.23468C38.6759 6.42152 38.0214 5.7997 37.1654 5.7997C30.8717 5.7997 26.0884 4.07773 22.1108 0.394619C21.5066 -0.13154 20.6003 -0.13154 19.9961 0.394619C16.0184 4.07773 11.2352 5.7997 4.94139 5.7997C4.08544 5.7997 3.43089 6.42152 3.43089 7.23468C3.43089 8.23916 3.43089 9.24365 3.38054 10.296C3.17914 20.3408 2.87704 34.1166 20.5499 39.9043L21.0534 40L21.5569 39.9043C39.1794 34.1166 38.9277 20.3886 38.7263 10.296ZM19.845 24.2152C19.5429 24.4544 19.1905 24.5979 18.7877 24.5979H18.7373C18.3345 24.5979 17.9317 24.4066 17.68 24.1196L12.9974 19.1928L15.2632 17.2795L18.9387 21.154L27.0954 13.7877L29.1598 15.8924L19.845 24.2152Z" fill="#FFD601"/>
</svg>
