<svg width="43" height="40" viewBox="0 0 43 40" fill="none" xmlns="http://www.w3.org/2000/svg">
<g clip-path="url(#clip0)">
<path d="M14.8712 6.57004C12.8484 9.03418 13.0341 11.4942 13.0341 13.0584H28.5702C28.5702 11.5697 28.7796 9.06316 26.7331 6.57004L31.1338 1.97035C31.5932 1.49027 31.5576 0.745896 31.0544 0.307692C30.5513 -0.130511 29.7711 -0.0966044 29.3118 0.383474L24.935 4.95808C22.4127 3.31785 19.195 3.31574 16.6693 4.95808L12.2926 0.383474C11.8331 -0.0966044 11.053 -0.130511 10.5499 0.307692C10.0467 0.745896 10.0111 1.49027 10.4705 1.97035L14.8712 6.57004Z" fill="#FFD601"/>
<path d="M37.5888 33.2531C37.3575 33.0324 37.0437 32.9084 36.7166 32.9084H31.7422C32.5325 30.837 32.4238 29.4049 32.4238 27.2648H39.1836C39.8649 27.2648 40.4172 26.7378 40.4172 26.0879C40.4172 25.4379 39.8649 24.911 39.1836 24.911H32.4238V19.2673H36.7165C37.0437 19.2673 37.3575 19.1433 37.5887 18.9226L40.0969 16.5295C40.5787 16.0699 40.5787 15.3248 40.0969 14.8652C39.6153 14.4055 38.8342 14.4055 38.3524 14.8652L36.2056 16.9134H32.065C31.8115 16.3406 31.4333 15.8302 30.9635 15.4121H22.2027C22.2035 15.4874 22.2033 39.8885 22.2033 39.9999C25.6465 39.6684 28.6414 37.8659 30.4839 35.2622H36.2057L38.3525 37.3105C38.5934 37.5403 38.9091 37.6552 39.2247 37.6552C40.3139 37.6552 40.8763 36.3895 40.0969 35.6461L37.5888 33.2531Z" fill="#FFD601"/>
<path d="M11.1456 15.4121C10.6752 15.8302 10.2956 16.3401 10.0419 16.9134H5.89827L3.7514 14.8652C3.26974 14.4055 2.48865 14.4055 2.00691 14.8652C1.52516 15.3248 1.52516 16.0699 2.00691 16.5295L4.51513 18.9226C4.74646 19.1433 5.0602 19.2673 5.38733 19.2673H9.68306V24.911H2.92023C2.23898 24.911 1.68668 25.438 1.68668 26.0879C1.68668 26.7379 2.23898 27.2648 2.92023 27.2648H9.68306C9.68306 29.3737 9.57015 30.8259 10.3647 32.9084H5.38733C5.06011 32.9084 4.74638 33.0324 4.51513 33.2531L2.00691 35.6462C1.52516 36.1058 1.52516 36.8509 2.00691 37.3105C2.48857 37.7702 3.26965 37.7702 3.7514 37.3105L5.89827 35.2623H11.6231C13.4355 37.8236 16.3635 39.6085 19.7362 39.9814C19.7362 39.8711 19.7359 15.4876 19.7368 15.4123H11.1456V15.4121Z" fill="#FFD601"/>
</g>
<defs>
<clipPath id="clip0">
<rect width="42.1053" height="40" fill="white"/>
</clipPath>
</defs>
</svg>
