<svg width="43" height="40" viewBox="0 0 43 40" fill="none" xmlns="http://www.w3.org/2000/svg">
<path d="M28.0494 35.625H26.1428C26.252 35.2244 26.3158 34.8075 26.3158 34.375C26.3158 33.3412 27.2013 32.5 28.2895 32.5H30.2632V31.25H28.2895C26.4757 31.25 25 32.6519 25 34.375C25 36.4431 23.2296 38.125 21.0526 38.125C18.8757 38.125 17.1053 36.4431 17.1053 34.375C17.1053 32.6519 15.6296 31.25 13.8158 31.25H11.8421V32.5H13.8158C14.904 32.5 15.7895 33.3412 15.7895 34.375C15.7895 34.8075 15.8533 35.2244 15.9625 35.625H14.0559C10.3612 35.625 7.30263 32.8744 7.23816 29.4925C7.19605 27.2812 8.40395 25.1906 10.3921 24.0375C13.1033 22.4631 14.9586 19.9438 15.4822 17.1238L18.3151 1.875H23.7901L26.623 17.1238C27.1467 19.9438 29.002 22.4631 31.7132 24.0375C33.7007 25.1906 34.9092 27.2806 34.8671 29.4925C34.802 32.8744 31.7441 35.625 28.0494 35.625Z" fill="#FFD601"/>
</svg>
