<svg width="30" height="30" viewBox="0 0 30 30" fill="none" xmlns="http://www.w3.org/2000/svg">
<g clip-path="url(#clip0)">
<path d="M29.2282 22.127L25.4987 18.3975C24.4705 17.3694 22.7975 17.3694 21.7693 18.3975L20.0741 20.0927C19.2952 20.8716 18.0277 20.8714 17.249 20.093L9.90135 12.7391C9.12059 11.9583 9.12047 10.6946 9.90135 9.91372C10.1744 9.64067 10.9584 8.85663 11.5965 8.21854C12.6202 7.19491 12.6345 5.52704 11.5955 4.48817L7.86709 0.771446C6.83889 -0.256699 5.16586 -0.256699 4.14041 0.768751C3.37306 1.52942 3.12556 1.77481 2.7815 2.11588C-0.926322 5.82364 -0.926323 11.8566 2.78132 15.5643L14.4235 27.2125C18.1399 30.929 24.1552 30.9293 27.872 27.2125L29.2282 25.8563C30.2564 24.8281 30.2564 23.1552 29.2282 22.127ZM5.38084 2.01457C5.72355 1.67186 6.28113 1.6718 6.62496 2.01551L10.3534 5.73223C10.6969 6.07577 10.6969 6.63176 10.3534 6.97536L9.73178 7.59692L4.76244 2.62758L5.38084 2.01457ZM15.6668 25.9695L4.02462 14.3212C1.15599 11.4526 0.99831 6.94817 3.5397 3.89116L8.49463 8.84608C7.19268 10.322 7.24694 12.571 8.65793 13.982L16.0054 21.3356C16.0054 21.3356 16.0055 21.3358 16.0056 21.3358C17.4151 22.7454 19.664 22.8031 21.1417 21.4994L26.0968 26.4545C23.0495 28.9915 18.5552 28.8579 15.6668 25.9695ZM27.9851 24.6132L27.3635 25.2348L22.3909 20.2622L23.0124 19.6406C23.3552 19.2979 23.9128 19.2979 24.2556 19.6406L27.9851 23.3701C28.3278 23.7129 28.3278 24.2706 27.9851 24.6132Z" fill="#757575"/>
</g>
<defs>
<clipPath id="clip0">
<rect width="30" height="30" fill="white"/>
</clipPath>
</defs>
</svg>
