<svg width="98" height="98" viewBox="0 0 98 98" fill="none" xmlns="http://www.w3.org/2000/svg">
<g filter="url(#filter0_d)">
<circle cx="49" cy="45" r="45" fill="#FFD601"/>
</g>
<g clip-path="url(#clip0)">
<path d="M42.8712 31.57C40.8484 34.0342 41.0341 36.4942 41.0341 38.0584H56.5702C56.5702 36.5697 56.7796 34.0632 54.7331 31.57L59.1338 26.9703C59.5932 26.4903 59.5576 25.7459 59.0544 25.3077C58.5513 24.8695 57.7711 24.9034 57.3118 25.3835L52.935 29.9581C50.4127 28.3178 47.195 28.3157 44.6693 29.9581L40.2926 25.3835C39.8331 24.9034 39.053 24.8695 38.5499 25.3077C38.0467 25.7459 38.0111 26.4903 38.4705 26.9703L42.8712 31.57Z" fill="white"/>
<path d="M65.5888 58.2532C65.3575 58.0325 65.0437 57.9085 64.7166 57.9085H59.7422C60.5325 55.8371 60.4238 54.405 60.4238 52.2648H67.1836C67.8649 52.2648 68.4172 51.7379 68.4172 51.0879C68.4172 50.438 67.8649 49.9111 67.1836 49.9111H60.4238V44.2673H64.7165C65.0437 44.2673 65.3575 44.1433 65.5887 43.9226L68.0969 41.5296C68.5787 41.07 68.5787 40.3248 68.0969 39.8652C67.6153 39.4056 66.8342 39.4056 66.3524 39.8652L64.2056 41.9135H60.065C59.8115 41.3407 59.4333 40.8302 58.9635 40.4122H50.2027C50.2035 40.4875 50.2033 64.8886 50.2033 65C53.6465 64.6685 56.6414 62.8659 58.4839 60.2622H64.2057L66.3525 62.3105C66.5934 62.5404 66.9091 62.6552 67.2247 62.6552C68.3139 62.6552 68.8763 61.3896 68.0969 60.6462L65.5888 58.2532Z" fill="white"/>
<path d="M39.1456 40.4122C38.6752 40.8302 38.2956 41.3401 38.0419 41.9135H33.8983L31.7514 39.8652C31.2697 39.4056 30.4887 39.4056 30.0069 39.8652C29.5252 40.3248 29.5252 41.07 30.0069 41.5296L32.5151 43.9226C32.7465 44.1433 33.0602 44.2673 33.3873 44.2673H37.6831V49.9111H30.9202C30.239 49.9111 29.6867 50.438 29.6867 51.0879C29.6867 51.738 30.239 52.2648 30.9202 52.2648H37.6831C37.6831 54.3738 37.5701 55.826 38.3647 57.9085H33.3873C33.0601 57.9085 32.7464 58.0325 32.5151 58.2532L30.0069 60.6462C29.5252 61.1058 29.5252 61.851 30.0069 62.3106C30.4886 62.7702 31.2697 62.7703 31.7514 62.3106L33.8983 60.2623H39.6231C41.4355 62.8237 44.3635 64.6086 47.7362 64.9815C47.7362 64.8712 47.7359 40.4876 47.7368 40.4123H39.1456V40.4122Z" fill="white"/>
</g>
<defs>
<filter id="filter0_d" x="0" y="0" width="98" height="98" filterUnits="userSpaceOnUse" color-interpolation-filters="sRGB">
<feFlood flood-opacity="0" result="BackgroundImageFix"/>
<feColorMatrix in="SourceAlpha" type="matrix" values="0 0 0 0 0 0 0 0 0 0 0 0 0 0 0 0 0 0 127 0"/>
<feOffset dy="4"/>
<feGaussianBlur stdDeviation="2"/>
<feColorMatrix type="matrix" values="0 0 0 0 0 0 0 0 0 0 0 0 0 0 0 0 0 0 0.25 0"/>
<feBlend mode="normal" in2="BackgroundImageFix" result="effect1_dropShadow"/>
<feBlend mode="normal" in="SourceGraphic" in2="effect1_dropShadow" result="shape"/>
</filter>
<clipPath id="clip0">
<rect x="28" y="25" width="42.1053" height="40" fill="white"/>
</clipPath>
</defs>
</svg>
