<svg width="88" height="88" viewBox="0 0 88 88" fill="none" xmlns="http://www.w3.org/2000/svg">
<g filter="url(#filter0_d)">
<circle cx="44" cy="40" r="40" fill="#49A600"/>
</g>
<g clip-path="url(#clip0)">
<path d="M51.2989 44.0761C51.0791 43.8669 50.7811 43.7494 50.4703 43.7494C50.1594 43.7494 49.8613 43.8669 49.6416 44.0761C48.8174 44.8605 46.2449 47.3087 45.3041 48.204C41.2125 45.882 37.7991 42.6334 35.3594 38.7395L39.6968 34.6115C39.9166 34.4023 40.0401 34.1187 40.0401 33.8228C40.0401 33.527 39.9167 33.2434 39.6968 33.0342L31.4093 25.147C30.9517 24.7115 30.2096 24.7114 29.7519 25.147L26.443 28.2959C26.441 28.2979 26.4387 28.2994 26.4367 28.3014C26.4347 28.3033 26.4329 28.3054 26.4309 28.3075L26.4133 28.3242C23.991 30.6294 23.3168 34.1397 24.7356 37.0591C26.6339 40.9651 29.0834 44.5595 32.0163 47.7424C36.2226 52.3074 41.3246 55.899 47.1806 58.4176C50.1773 59.7065 53.8053 59.0423 56.2065 56.7572L59.5863 53.5406C60.044 53.1051 60.044 52.3988 59.5863 51.9632L51.2989 44.0761ZM30.5807 27.5131L37.2106 33.8228L35.5526 35.4008L28.9231 29.0905L30.5807 27.5131ZM48.1459 56.3848C36.1967 51.2455 29.9768 42.5295 26.8631 36.1227C26.0145 34.3767 26.2244 32.3291 27.344 30.7426L33.8952 36.9782L33.0669 37.7664C32.697 38.1185 32.617 38.6615 32.8711 39.0968C35.6882 43.9228 39.8577 47.8909 44.9286 50.5721C45.3861 50.8139 45.9566 50.7379 46.3266 50.3857L47.1553 49.5971L53.7151 55.8409C52.0656 56.925 49.9411 57.157 48.1459 56.3848ZM55.442 54.3298L48.8126 48.0197L50.4702 46.4423L57.1 52.752L55.442 54.3298Z" fill="white"/>
<path d="M53.4517 21C47.6356 21 42.9037 25.5033 42.9037 31.0387C42.9037 32.7336 43.3706 34.4076 44.2586 35.9125L42.9639 39.6091C42.8235 40.0099 42.9331 40.4519 43.247 40.7506C43.5626 41.0509 44.0275 41.153 44.4464 41.0201L48.3306 39.7878C49.912 40.633 51.6708 41.0772 53.4518 41.0772C59.268 41.0772 63.9998 36.5739 63.9998 31.0386C63.9998 25.5033 59.2679 21 53.4517 21ZM53.4517 38.8465C51.9296 38.8465 50.4231 38.4242 49.0953 37.6253C48.9057 37.5113 48.6883 37.4528 48.4689 37.4528C48.3444 37.4528 48.2193 37.4716 48.0984 37.51L45.9288 38.1983L46.652 36.1335C46.7632 35.8159 46.7187 35.4677 46.5307 35.1848C45.6914 33.921 45.2476 32.4873 45.2476 31.0387C45.2476 26.7334 48.928 23.2308 53.4517 23.2308C57.9754 23.2308 61.6557 26.7334 61.6557 31.0387C61.6557 35.3439 57.9754 38.8465 53.4517 38.8465Z" fill="white"/>
<path d="M48.7637 32.1542C49.411 32.1542 49.9357 31.6548 49.9357 31.0387C49.9357 30.4227 49.411 29.9233 48.7637 29.9233C48.1165 29.9233 47.5917 30.4227 47.5917 31.0387C47.5917 31.6548 48.1165 32.1542 48.7637 32.1542Z" fill="white"/>
<path d="M53.4518 32.1542C54.0991 32.1542 54.6238 31.6548 54.6238 31.0387C54.6238 30.4227 54.0991 29.9233 53.4518 29.9233C52.8045 29.9233 52.2798 30.4227 52.2798 31.0387C52.2798 31.6548 52.8045 32.1542 53.4518 32.1542Z" fill="white"/>
<path d="M58.1398 32.1542C58.787 32.1542 59.3118 31.6548 59.3118 31.0387C59.3118 30.4227 58.787 29.9233 58.1398 29.9233C57.4925 29.9233 56.9678 30.4227 56.9678 31.0387C56.9678 31.6548 57.4925 32.1542 58.1398 32.1542Z" fill="white"/>
</g>
<defs>
<filter id="filter0_d" x="0" y="0" width="88" height="88" filterUnits="userSpaceOnUse" color-interpolation-filters="sRGB">
<feFlood flood-opacity="0" result="BackgroundImageFix"/>
<feColorMatrix in="SourceAlpha" type="matrix" values="0 0 0 0 0 0 0 0 0 0 0 0 0 0 0 0 0 0 127 0"/>
<feOffset dy="4"/>
<feGaussianBlur stdDeviation="2"/>
<feColorMatrix type="matrix" values="0 0 0 0 0 0 0 0 0 0 0 0 0 0 0 0 0 0 0.25 0"/>
<feBlend mode="normal" in2="BackgroundImageFix" result="effect1_dropShadow"/>
<feBlend mode="normal" in="SourceGraphic" in2="effect1_dropShadow" result="shape"/>
</filter>
<clipPath id="clip0">
<rect x="24" y="21" width="40" height="38.0684" fill="white"/>
</clipPath>
</defs>
</svg>
