<svg width="88" height="88" viewBox="0 0 88 88" fill="none" xmlns="http://www.w3.org/2000/svg">
<g filter="url(#filter0_d)">
<circle cx="44" cy="40" r="40" fill="#49A600"/>
</g>
<path d="M62.8281 37.2656H61.6562V27.4219C61.6562 26.7747 61.1316 26.25 60.4844 26.25H58.5312V21.1719C58.5312 20.5247 58.0066 20 57.3594 20H28.2969C25.9276 20 24 21.9276 24 24.2969V54.1406C24 57.3715 26.6285 60 29.8594 60H60.4844C61.1316 60 61.6562 59.4753 61.6562 58.8281V48.9844H62.8281C63.4753 48.9844 64 48.4597 64 47.8125V38.4375C64 37.7903 63.4753 37.2656 62.8281 37.2656ZM59.3125 32.1094H26.3438V28.1237L26.349 28.1249C26.9341 28.4239 27.5959 28.5938 28.2969 28.5938H57.3594H59.3125V32.1094ZM28.2969 22.3438H56.1875V26.25H28.2969C27.2199 26.25 26.3438 25.3738 26.3438 24.2969C26.3438 23.2199 27.2199 22.3438 28.2969 22.3438ZM29.8594 57.6562C27.9209 57.6562 26.3438 56.0791 26.3438 54.1406H59.3125V57.6562H29.8594ZM59.3125 51.7969H26.3438V34.4531H59.3125V37.2656H54.2344C51.0035 37.2656 48.375 39.8941 48.375 43.125C48.375 46.3559 51.0035 48.9844 54.2344 48.9844H59.3125V51.7969ZM61.6562 46.6406H54.2344C52.2959 46.6406 50.7188 45.0635 50.7188 43.125C50.7188 41.1865 52.2959 39.6094 54.2344 39.6094H61.6562V46.6406Z" fill="white"/>
<path d="M54.2344 44.2969C54.8816 44.2969 55.4062 43.7722 55.4062 43.125C55.4062 42.4778 54.8816 41.9531 54.2344 41.9531C53.5872 41.9531 53.0625 42.4778 53.0625 43.125C53.0625 43.7722 53.5872 44.2969 54.2344 44.2969Z" fill="white"/>
<defs>
<filter id="filter0_d" x="0" y="0" width="88" height="88" filterUnits="userSpaceOnUse" color-interpolation-filters="sRGB">
<feFlood flood-opacity="0" result="BackgroundImageFix"/>
<feColorMatrix in="SourceAlpha" type="matrix" values="0 0 0 0 0 0 0 0 0 0 0 0 0 0 0 0 0 0 127 0"/>
<feOffset dy="4"/>
<feGaussianBlur stdDeviation="2"/>
<feColorMatrix type="matrix" values="0 0 0 0 0 0 0 0 0 0 0 0 0 0 0 0 0 0 0.25 0"/>
<feBlend mode="normal" in2="BackgroundImageFix" result="effect1_dropShadow"/>
<feBlend mode="normal" in="SourceGraphic" in2="effect1_dropShadow" result="shape"/>
</filter>
</defs>
</svg>
