<svg width="117" height="17" viewBox="0 0 117 17" fill="none" xmlns="http://www.w3.org/2000/svg">
<g clip-path="url(#clip0)">
<path d="M66.5488 6.08139L61.3227 5.2831L58.9802 0.293598C58.8053 -0.0789857 58.194 -0.0789857 58.019 0.293598L55.6773 5.2831L50.4512 6.08139C50.0219 6.14726 49.8505 6.66931 50.1516 6.97743L53.9482 10.869L53.0508 16.3706C52.9792 16.8077 53.446 17.1356 53.8321 16.921L58.5 14.3413L63.1679 16.9217C63.5504 17.1342 64.0214 16.8126 63.9492 16.3713L63.0517 10.8697L66.8484 6.97814C67.1494 6.66931 66.9773 6.14726 66.5488 6.08139Z" fill="#FFC107"/>
</g>
<g clip-path="url(#clip1)">
<path d="M91.5488 6.08139L86.3227 5.2831L83.9802 0.293598C83.8053 -0.0789857 83.194 -0.0789857 83.019 0.293598L80.6773 5.2831L75.4512 6.08139C75.0219 6.14726 74.8505 6.66931 75.1516 6.97743L78.9482 10.869L78.0508 16.3706C77.9792 16.8077 78.446 17.1356 78.8321 16.921L83.5 14.3413L88.1679 16.9217C88.5504 17.1342 89.0214 16.8126 88.9492 16.3713L88.0517 10.8697L91.8484 6.97814C92.1494 6.66931 91.9773 6.14726 91.5488 6.08139Z" fill="#FFC107"/>
</g>
<g clip-path="url(#clip2)">
<path d="M116.549 6.08139L111.323 5.2831L108.98 0.293598C108.805 -0.0789857 108.194 -0.0789857 108.019 0.293598L105.677 5.2831L100.451 6.08139C100.022 6.14726 99.8505 6.66931 100.152 6.97743L103.948 10.869L103.051 16.3706C102.979 16.8077 103.446 17.1356 103.832 16.921L108.5 14.3413L113.168 16.9217C113.55 17.1342 114.021 16.8126 113.949 16.3713L113.052 10.8697L116.848 6.97814C117.149 6.66931 116.977 6.14726 116.549 6.08139Z" fill="#FFC107"/>
</g>
<g clip-path="url(#clip3)">
<path d="M41.5488 6.08139L36.3227 5.2831L33.9802 0.293598C33.8053 -0.0789857 33.194 -0.0789857 33.019 0.293598L30.6773 5.2831L25.4512 6.08139C25.0219 6.14726 24.8505 6.66931 25.1516 6.97743L28.9482 10.869L28.0508 16.3706C27.9792 16.8077 28.446 17.1356 28.8321 16.921L33.5 14.3413L38.1679 16.9217C38.5504 17.1342 39.0214 16.8126 38.9492 16.3713L38.0517 10.8697L41.8484 6.97814C42.1494 6.66931 41.9773 6.14726 41.5488 6.08139Z" fill="#FFC107"/>
</g>
<g clip-path="url(#clip4)">
<path d="M16.5488 6.08139L11.3227 5.2831L8.98023 0.293598C8.80527 -0.0789857 8.19398 -0.0789857 8.01902 0.293598L5.67728 5.2831L0.451192 6.08139C0.021942 6.14726 -0.149475 6.66931 0.151567 6.97743L3.94823 10.869L3.05078 16.3706C2.97923 16.8077 3.44603 17.1356 3.83207 16.921L8.49998 14.3413L13.1679 16.9217C13.5504 17.1342 14.0214 16.8126 13.9492 16.3713L13.0517 10.8697L16.8484 6.97814C17.1494 6.66931 16.9773 6.14726 16.5488 6.08139Z" fill="#FFC107"/>
</g>
<defs>
<clipPath id="clip0">
<rect x="50" width="17" height="17" fill="white"/>
</clipPath>
<clipPath id="clip1">
<rect x="75" width="17" height="17" fill="white"/>
</clipPath>
<clipPath id="clip2">
<rect x="100" width="17" height="17" fill="white"/>
</clipPath>
<clipPath id="clip3">
<rect x="25" width="17" height="17" fill="white"/>
</clipPath>
<clipPath id="clip4">
<rect width="17" height="17" fill="white"/>
</clipPath>
</defs>
</svg>
