<svg width="17" height="19" viewBox="0 0 17 19" fill="none" xmlns="http://www.w3.org/2000/svg">
<path d="M16.4752 4.89058C16.4525 4.39073 16.4525 3.9136 16.4525 3.43647C16.4525 3.05022 16.1571 2.75486 15.7709 2.75486C12.9308 2.75486 10.7724 1.93692 8.97744 0.187444C8.70479 -0.0624813 8.29583 -0.0624813 8.02318 0.187444C6.22826 1.93692 4.06982 2.75486 1.22976 2.75486C0.843513 2.75486 0.548147 3.05022 0.548147 3.43647C0.548147 3.9136 0.548147 4.39073 0.525427 4.89058C0.434545 9.66188 0.298222 16.2054 8.27311 18.9546L8.50031 19L8.72751 18.9546C16.6797 16.2054 16.5661 9.6846 16.4752 4.89058ZM7.95502 11.5022C7.8187 11.6158 7.65965 11.684 7.47789 11.684H7.45517C7.2734 11.684 7.09164 11.5931 6.97804 11.4568L4.86504 9.11659L5.88746 8.20777L7.54605 10.0481L11.2268 6.54918L12.1583 7.54888L7.95502 11.5022Z" fill="#FFF500"/>
</svg>
