<svg width="20" height="20" viewBox="0 0 20 20" fill="none" xmlns="http://www.w3.org/2000/svg">
<path d="M13.2357 12.5034C12.8547 11.9068 12.3483 11.4004 11.7518 11.0194V2.62296C11.7518 1.17432 10.5774 0 9.1288 0C7.68016 0 6.50585 1.17432 6.50585 2.62296V11.0194C4.23765 12.468 3.57324 15.4811 5.02188 17.7493C6.47052 20.0175 9.48356 20.6819 11.7518 19.2332C14.02 17.7846 14.6843 14.7716 13.2357 12.5034ZM11.6843 15.3634C11.502 16.6347 10.4112 17.5775 9.12694 17.574V17.5703C7.70407 17.5742 6.54742 16.4239 6.54346 15.001C6.53991 13.7167 7.48279 12.626 8.75409 12.4437V6.79135C8.75409 6.58545 8.92103 6.41851 9.12694 6.41851C9.33284 6.41851 9.49978 6.58545 9.49978 6.79135V12.4474C10.9082 12.6494 11.8863 13.9549 11.6843 15.3634Z" fill="#FFF500"/>
<path d="M9.12705 16.8247C10.1381 16.8247 10.9577 16.005 10.9577 14.994C10.9577 13.9829 10.1381 13.1633 9.12705 13.1633C8.116 13.1633 7.29639 13.9829 7.29639 14.994C7.29639 16.005 8.116 16.8247 9.12705 16.8247Z" fill="#FFF500"/>
<path d="M15.3721 2.56323H13.0418C12.8359 2.56323 12.6689 2.73017 12.6689 2.93608C12.6689 3.14198 12.8359 3.30892 13.0418 3.30892H15.3721C15.578 3.30892 15.7449 3.14198 15.7449 2.93608C15.7449 2.73017 15.578 2.56323 15.3721 2.56323Z" fill="#FFF500"/>
<path d="M14.8911 4.42749H13.5227C13.3168 4.42749 13.1499 4.59443 13.1499 4.80033C13.1499 5.00624 13.3168 5.17318 13.5227 5.17318H14.8911C15.097 5.17318 15.2639 5.00624 15.2639 4.80033C15.2639 4.59443 15.097 4.42749 14.8911 4.42749Z" fill="#FFF500"/>
<path d="M15.3721 6.29175H13.0418C12.8359 6.29175 12.6689 6.45869 12.6689 6.66459C12.6689 6.8705 12.8359 7.03744 13.0418 7.03744H15.3721C15.578 7.03744 15.7449 6.8705 15.7449 6.66459C15.7449 6.45869 15.578 6.29175 15.3721 6.29175Z" fill="#FFF500"/>
<path d="M14.8911 8.15601H13.5227C13.3168 8.15601 13.1499 8.32295 13.1499 8.52885C13.1499 8.73475 13.3168 8.90169 13.5227 8.90169H14.8911C15.097 8.90169 15.2639 8.73475 15.2639 8.52885C15.2639 8.32295 15.097 8.15601 14.8911 8.15601Z" fill="#FFF500"/>
<path d="M15.3721 10.0203H13.0418C12.8359 10.0203 12.6689 10.1872 12.6689 10.3931C12.6689 10.599 12.8359 10.7659 13.0418 10.7659H15.3721C15.578 10.7659 15.7449 10.599 15.7449 10.3931C15.7449 10.1872 15.578 10.0203 15.3721 10.0203Z" fill="#FFF500"/>
</svg>
