<svg width="23" height="21" viewBox="0 0 23 21" fill="none" xmlns="http://www.w3.org/2000/svg">
<path d="M16.2369 12.0111L15.8726 10.5542L14.8285 13.4256C14.7296 13.6978 14.4678 13.8765 14.1783 13.8689C13.8888 13.8617 13.6364 13.6703 13.5512 13.3935L12.3154 9.37721L10.3287 14.344C10.2258 14.6013 9.97696 14.7677 9.7033 14.7677C9.68654 14.7677 9.66965 14.767 9.65276 14.7658C9.35956 14.7438 9.11446 14.5343 9.04712 14.2482L7.7943 8.92358L6.74856 12.0608C6.65683 12.3359 6.39934 12.5215 6.10932 12.5215H3.01416L11.0235 20.5309C11.1551 20.6624 11.3275 20.7282 11.4999 20.7282C11.6724 20.7282 11.8449 20.6625 11.9764 20.5309L19.9857 12.5215H16.8906C16.5814 12.5215 16.3118 12.3111 16.2369 12.0111Z" fill="#FFF500"/>
<path d="M7.26834 6.24399C7.36362 5.95811 7.63693 5.76988 7.93813 5.78394C8.23915 5.7976 8.49449 6.00945 8.56353 6.30275L9.87152 11.8618L11.7741 7.10528C11.8802 6.84006 12.1422 6.67057 12.4274 6.68225C12.7128 6.69397 12.9598 6.88435 13.0438 7.15734L14.2499 11.0771L15.3603 8.02366C15.4615 7.74532 15.7315 7.56532 16.0285 7.581C16.3243 7.59636 16.5754 7.80314 16.6472 8.0905L17.4181 11.1739H21.3224C23.6323 8.61344 23.5544 4.6503 21.0886 2.18458C18.5423 -0.361683 14.3994 -0.361683 11.8531 2.18458L11.5013 2.53636L11.1495 2.18458C9.91613 0.951114 8.27617 0.271851 6.53181 0.271851C4.78744 0.271851 3.14748 0.951114 1.91406 2.18458C-0.551701 4.6503 -0.629595 8.61344 1.68024 11.1739H5.62501L7.26834 6.24399Z" fill="#FFF500"/>
<path d="M1.67891 11.1738H0.673828C0.301695 11.1738 0 11.4755 0 11.8477C0 12.2198 0.301695 12.5215 0.673828 12.5215H3.01421L1.91273 11.42C1.83223 11.3395 1.75433 11.2574 1.67891 11.1738Z" fill="#FFF500"/>
<path d="M22.3262 11.1738H21.3211C21.2457 11.2574 21.1678 11.3395 21.0873 11.42L19.9858 12.5215H22.3262C22.6983 12.5215 23 12.2198 23 11.8477C23 11.4755 22.6983 11.1738 22.3262 11.1738Z" fill="#FFF500"/>
</svg>
