<svg width="14" height="14" viewBox="0 0 14 14" fill="none" xmlns="http://www.w3.org/2000/svg">
<path d="M6.99999 13.2211C6.80068 13.2211 6.60852 13.1489 6.45877 13.0178C5.89321 12.5232 5.34794 12.0585 4.86686 11.6485L4.8644 11.6464C3.45396 10.4445 2.23599 9.40646 1.38855 8.38396C0.441238 7.24086 0 6.15704 0 4.97304C0 3.82268 0.394454 2.7614 1.11062 1.98456C1.83534 1.19853 2.82975 0.765625 3.911 0.765625C4.71914 0.765625 5.45923 1.02112 6.11068 1.52495C6.43944 1.77927 6.73744 2.09052 6.99999 2.45357C7.26264 2.09052 7.56053 1.77927 7.8894 1.52495C8.54085 1.02112 9.28094 0.765625 10.0891 0.765625C11.1702 0.765625 12.1647 1.19853 12.8895 1.98456C13.6056 2.7614 14 3.82268 14 4.97304C14 6.15704 13.5588 7.24086 12.6115 8.38385C11.7641 9.40646 10.5462 10.4444 9.136 11.6462C8.65407 12.0568 8.10794 12.5223 7.54109 13.018C7.39145 13.1489 7.19919 13.2211 6.99999 13.2211Z" fill="#FF0000"/>
</svg>
