<svg width="31" height="31" viewBox="0 0 31 31" fill="none" xmlns="http://www.w3.org/2000/svg">
<g clip-path="url(#clip0)">
<path d="M23.2585 25.7133C21.1705 26.6944 18.4535 25.252 17.9956 24.2776C17.5377 23.3032 18.1617 20.291 20.2497 19.3098C22.8089 18.1074 26.4995 18.8703 27.8779 19.225C28.1713 19.3005 28.3221 19.6213 28.1929 19.8953C27.5861 21.1828 25.8177 24.5108 23.2585 25.7133Z" fill="#AFD755"/>
<path d="M27.8779 19.225C26.4995 18.8703 22.8088 18.1074 20.2497 19.3098C18.1616 20.291 17.5377 23.3031 17.9955 24.2776C18.0049 24.2974 18.0208 24.3185 18.0319 24.3387C19.7557 23.296 24.4309 20.6051 28.2364 19.6723C28.2288 19.4683 28.0931 19.2803 27.8779 19.225Z" fill="#BEE86E"/>
<path d="M17.2764 3.93643C17.6688 5.43248 16.3869 7.04786 15.6887 7.23101C14.9906 7.41417 13.0809 6.63578 12.6885 5.13974C12.2391 3.42633 13.0415 1.27063 13.4765 0.289233C13.6032 0.00339304 13.9586 -0.0898486 14.2093 0.0970585C15.07 0.738609 16.8271 2.22303 17.2764 3.93643Z" fill="#AFD755"/>
<path d="M15.6993 7.22714C16.3996 7.03133 17.667 5.42534 17.2764 3.93644C16.8271 2.22303 15.0699 0.738613 14.2093 0.0970012C14.0672 -0.00889462 13.8951 -0.0165235 13.7464 0.0416012C14.1128 1.0612 14.9291 3.53501 15.6993 7.22714Z" fill="#BEE86E"/>
<path d="M11.2642 15.0845C13.6564 15.7928 14.8147 18.9111 14.4842 20.0275C14.1537 21.1439 11.4844 23.1289 9.09223 22.4207C6.13047 21.5438 3.67749 18.2165 2.84261 16.9676C2.67429 16.7158 2.77492 16.3759 3.05319 16.2563C4.43341 15.6632 8.30246 14.2076 11.2642 15.0845Z" fill="#AFD755"/>
<path d="M11.2642 15.0845C8.30246 14.2076 4.43342 15.6632 3.0532 16.2563C2.81816 16.3573 2.72116 16.6133 2.79455 16.8428C5.10797 17.0343 11.7293 17.7767 14.4406 20.1348C14.4551 20.0991 14.474 20.0618 14.4842 20.0275C14.8147 18.9111 13.6565 15.7927 11.2642 15.0845Z" fill="#BEE86E"/>
<path d="M13.269 8.48351C14.577 9.309 14.7428 11.3645 14.3576 11.9749C13.9724 12.5853 12.0456 13.3201 10.7376 12.4946C9.23959 11.5492 8.35452 9.4261 8.00244 8.412C7.89993 8.11666 8.09605 7.80587 8.40677 7.77136C9.47366 7.65275 11.771 7.53808 13.269 8.48351Z" fill="#AFD755"/>
<path d="M13.269 8.48351C11.771 7.53808 9.47362 7.65275 8.4068 7.77136C8.17835 7.79673 8.01433 7.97232 7.98291 8.18035C9.23041 8.72006 12.2669 10.1451 14.3286 12.0122C14.3376 11.9997 14.3498 11.9872 14.3575 11.9749C14.7428 11.3646 14.577 9.309 13.269 8.48351Z" fill="#BEE86E"/>
<path d="M21.9859 14.4063C20.5861 15.064 18.7646 14.0971 18.4577 13.4438C18.1507 12.7906 18.569 10.7712 19.9689 10.1134C21.5721 9.36011 23.8377 9.75742 24.8818 10.0068C25.1859 10.0793 25.3422 10.412 25.204 10.6924C24.7295 11.6554 23.5891 13.653 21.9859 14.4063Z" fill="#AFD755"/>
<path d="M24.8818 10.0069C23.8377 9.75754 21.5721 9.36024 19.9688 10.1136C18.569 10.7713 18.1508 12.7907 18.4577 13.4439C18.488 13.5085 18.5369 13.5764 18.5949 13.6452C20.0651 12.1249 23.662 11.0077 25.2315 10.5759C25.2843 10.3262 25.1447 10.0697 24.8818 10.0069Z" fill="#BEE86E"/>
<path d="M15.3153 26.7722C15.1851 26.7722 15.0548 26.7209 14.957 26.6192C14.7676 26.4217 14.7744 26.1078 14.9725 25.918C15.1366 25.7612 19.0592 22.0473 24.6282 20.4202C24.8911 20.3427 25.1662 20.4943 25.2432 20.7572C25.3202 21.0202 25.1691 21.2953 24.9062 21.3723C19.5676 22.9316 15.6969 26.5975 15.6582 26.6348C15.5623 26.7267 15.4389 26.7722 15.3153 26.7722Z" fill="#96BE4B"/>
<path d="M7.06786 17.039C6.72838 17.0032 6.5313 16.992 6.5313 16.992C6.25866 16.9746 6.02332 17.1843 6.00733 17.4579C5.99135 17.731 6.19957 17.9659 6.47269 17.9819C6.47899 17.9823 6.65863 17.9935 6.96518 18.025C6.98261 18.0269 7.00005 18.0279 7.01701 18.0279C7.26785 18.0279 7.48333 17.8385 7.50949 17.5833C7.53807 17.3112 7.34051 17.0671 7.06786 17.039Z" fill="#96BE4B"/>
<path d="M22.2505 11.6777C22.1803 11.4133 21.9086 11.2574 21.6437 11.3256C21.4476 11.378 21.2582 11.4351 21.0752 11.4966C20.8152 11.5838 20.6752 11.8646 20.7624 12.1242C20.8321 12.3319 21.0253 12.4627 21.2326 12.4627C21.2849 12.4627 21.3382 12.4545 21.3899 12.437C21.5536 12.3823 21.7226 12.331 21.8984 12.2845C22.1629 12.2138 22.3207 11.9426 22.2505 11.6777Z" fill="#96BE4B"/>
<path d="M19.2224 12.378C18.2001 13.0357 17.5007 13.826 17.0234 14.5585C16.9347 10.9637 16.4022 6.9992 15.0946 2.914C15.0113 2.65347 14.7333 2.50912 14.4713 2.59292C14.2103 2.67623 14.0665 2.95566 14.1503 3.21619C15.2528 6.66092 15.7883 10.0156 15.971 13.1275C14.0423 10.474 11.5085 9.39466 11.3817 9.34265C11.1304 9.23899 10.8388 9.35815 10.7342 9.61142C10.6296 9.86468 10.7497 10.1548 11.003 10.2589C11.036 10.2728 14.3002 11.6582 16.0416 15.1442C16.0658 17.1601 15.9513 19.0485 15.7576 20.7631C14.3436 18.7941 11.4827 17.8224 9.0882 17.3461C8.81653 17.2894 8.5589 17.4672 8.50514 17.7355C8.45137 18.0043 8.62623 18.2653 8.89451 18.3186C11.0801 18.7536 14.8232 19.8811 15.5213 22.5464C14.8051 27.2437 13.6096 30.2554 13.5846 30.3167C13.4815 30.5705 13.603 30.8596 13.8563 30.9632C13.9178 30.9884 13.9813 31 14.0437 31C14.2388 31 14.4243 30.8838 14.5028 30.6915C14.5287 30.628 15.7793 27.4852 16.5137 22.5947C16.5147 22.5896 16.5153 22.5846 16.516 22.5795C16.7694 20.8888 16.962 18.9941 17.0196 16.9399C17.1109 16.5516 17.6683 14.5571 19.759 13.2121C19.9895 13.0639 20.0558 12.7574 19.9076 12.5269C19.7595 12.2966 19.4524 12.2303 19.2224 12.378Z" fill="#96BE4B"/>
</g>
<defs>
<clipPath id="clip0">
<rect width="31" height="31" fill="white"/>
</clipPath>
</defs>
</svg>
