<svg width="45" height="45" viewBox="0 0 45 45" fill="none" xmlns="http://www.w3.org/2000/svg">
<circle cx="22.5" cy="22.5" r="22.5" fill="#3E5581"/>
<path d="M22.7836 20.6974C22.7836 20.179 22.5139 19.7004 22.024 19.3497C21.5727 19.0265 20.979 18.8485 20.3526 18.8485C19.726 18.8485 19.1324 19.0265 18.6811 19.3497C18.1913 19.7004 17.9215 20.1791 17.9215 20.6974C17.9215 21.2157 18.1913 21.6943 18.6811 22.045C19.1325 22.3682 19.7261 22.5462 20.3526 22.5462C20.979 22.5462 21.5727 22.3682 22.024 22.045C22.5139 21.6942 22.7836 21.2156 22.7836 20.6974ZM20.3526 21.7849C19.4474 21.7849 18.6827 21.2869 18.6827 20.6974C18.6827 20.1078 19.4474 19.6097 20.3526 19.6097C21.2577 19.6097 22.0224 20.1078 22.0224 20.6974C22.0224 21.2869 21.2577 21.7849 20.3526 21.7849Z" fill="white"/>
<path d="M21.1474 20.2351C20.9742 20.1158 20.7373 20.1595 20.618 20.3325C20.5547 20.4243 20.4331 20.4808 20.3221 20.4697C20.2329 20.4608 20.1406 20.4048 20.0869 20.3269C19.9675 20.1539 19.7304 20.1105 19.5574 20.2298C19.3845 20.3493 19.341 20.5863 19.4604 20.7593C19.6412 21.0212 19.9351 21.1961 20.2467 21.2271C20.281 21.2305 20.3153 21.2323 20.3496 21.2323C20.701 21.2323 21.0442 21.0556 21.2448 20.7645C21.3641 20.5913 21.3205 20.3544 21.1474 20.2351Z" fill="white"/>
<path d="M28.0785 20.6974C28.0785 20.179 27.8087 19.7004 27.3189 19.3497C26.8675 19.0265 26.2739 18.8485 25.6474 18.8485C25.0209 18.8485 24.4273 19.0265 23.976 19.3497C23.4861 19.7004 23.2164 20.1791 23.2164 20.6974C23.2164 21.2157 23.4861 21.6942 23.976 22.045C24.4273 22.3682 25.0209 22.5462 25.6474 22.5462C26.274 22.5462 26.8675 22.3682 27.3189 22.045C27.8087 21.6942 28.0785 21.2156 28.0785 20.6974ZM25.6474 21.7849C24.7423 21.7849 23.9776 21.2869 23.9776 20.6974C23.9776 20.1078 24.7422 19.6097 25.6474 19.6097C26.5526 19.6097 27.3173 20.1078 27.3173 20.6974C27.3173 21.2869 26.5526 21.7849 25.6474 21.7849Z" fill="white"/>
<path d="M26.4425 20.2299C26.2694 20.1105 26.0324 20.1539 25.9131 20.3269C25.8593 20.4047 25.767 20.4608 25.6778 20.4697C25.5669 20.4808 25.4452 20.4244 25.382 20.3325C25.2627 20.1595 25.0257 20.1158 24.8526 20.2351C24.6795 20.3544 24.6359 20.5914 24.7551 20.7645C24.9558 21.0556 25.2989 21.2323 25.6504 21.2323C25.6846 21.2323 25.719 21.2306 25.7532 21.2272C26.0648 21.1962 26.3588 21.0213 26.5396 20.7593C26.659 20.5863 26.6155 20.3492 26.4425 20.2299Z" fill="white"/>
<path d="M24.6715 24.1018C24.2201 23.7786 23.6265 23.6006 23 23.6006C22.3735 23.6006 21.7799 23.7786 21.3286 24.1018C20.8387 24.4525 20.569 24.9312 20.569 25.4494C20.569 25.9678 20.8387 26.4464 21.3286 26.7971C21.7799 27.1202 22.3735 27.2983 23 27.2983C23.6265 27.2983 24.2201 27.1203 24.6715 26.7971C25.1613 26.4463 25.4311 25.9677 25.4311 25.4494C25.4311 24.9311 25.1613 24.4525 24.6715 24.1018ZM23 26.537C22.0948 26.537 21.3302 26.039 21.3302 25.4494C21.3302 24.8599 22.0948 24.3618 23 24.3618C23.9052 24.3618 24.6699 24.8599 24.6699 25.4494C24.6699 26.039 23.9052 26.537 23 26.537Z" fill="white"/>
<path d="M23.5745 25.0281C23.4373 25.0923 23.2676 25.1331 23.0964 25.1433C22.8624 25.1571 22.6109 25.1136 22.4242 25.0272C22.2334 24.9388 22.0072 25.0218 21.9188 25.2126C21.8305 25.4033 21.9135 25.6295 22.1042 25.7179C22.3679 25.84 22.6919 25.907 23.0104 25.907C23.0541 25.907 23.0978 25.9057 23.1412 25.9031C23.4101 25.8872 23.6715 25.8231 23.8971 25.7175C24.0875 25.6284 24.1696 25.4018 24.0805 25.2115C23.9914 25.0211 23.7649 24.939 23.5745 25.0281Z" fill="white"/>
<path d="M30.3018 31.2958L26.2722 30.165C25.8559 30.0482 25.5872 29.6372 25.647 29.209C25.6478 29.2031 25.6485 29.1972 25.6491 29.1913L25.7331 28.281C26.1891 27.9176 26.5902 27.5394 26.9276 27.1524C28.4803 25.3715 29.2842 23.5709 29.3854 21.6477C29.3912 21.5373 29.3954 21.4023 29.3983 21.2522L29.8712 20.4614C30.0722 20.1253 30.2489 19.7842 30.3966 19.4475C31.2595 17.4806 30.5721 15.0434 29.5082 13.5005C29.3519 13.2737 29.1822 13.0554 29.004 12.8518C28.8655 12.6936 28.6251 12.6776 28.4669 12.816C28.3087 12.9545 28.2927 13.1949 28.4312 13.3531C28.5902 13.5348 28.7417 13.7297 28.8816 13.9325C30.1917 15.8325 30.2364 17.9178 29.6996 19.1417C29.5646 19.4493 29.4026 19.7619 29.2179 20.0707L29.1935 20.1114C28.8785 18.9008 28.2865 17.7555 27.4266 16.6956C26.4682 15.5144 25.1635 14.4453 23.6538 13.6037C22.2718 12.8335 20.691 12.3851 19.0822 12.3073C18.9777 12.3022 18.8778 12.2984 18.7825 12.2957C19.2653 11.9637 19.7367 11.6631 20.2659 11.4851C21.4253 11.0953 22.7185 11.03 23.9252 11.16C25.1632 11.2934 26.2536 11.6621 27.166 12.256C27.3423 12.3706 27.578 12.3208 27.6926 12.1447C27.8073 11.9685 27.7574 11.7327 27.5813 11.618C27.0888 11.2975 26.5514 11.0368 25.9737 10.836C26.0175 10.1175 25.8499 9.51511 25.4698 9.0398C24.6439 8.00691 23.1317 7.99842 23 8.0001C22.8682 7.99837 21.356 8.00701 20.5302 9.0398C20.163 9.49901 19.9944 10.0771 20.0229 10.7637C19.8361 10.8266 19.6569 10.9018 19.4835 10.9856C18.3821 11.4762 16.6596 12.5771 15.7125 14.8831C15.7116 14.8853 15.7108 14.8874 15.7099 14.8894C15.4386 15.5851 15.2659 16.3864 15.2237 17.1454C15.1753 18.0146 15.297 18.8097 15.5755 19.4447C15.7235 19.782 15.9005 20.1236 16.1017 20.46L16.602 21.2966C16.6049 21.4188 16.6091 21.5366 16.615 21.6477C16.7161 23.5709 17.5201 25.3715 19.0728 27.1524C19.4101 27.5392 19.8111 27.9173 20.2669 28.2807L20.3509 29.1912C20.3515 29.1972 20.3522 29.2031 20.353 29.2089C20.4129 29.6371 20.1441 30.0482 19.7279 30.1649L18.7073 30.4514C18.5048 30.5081 18.3868 30.7183 18.4437 30.9206C18.5004 31.123 18.7105 31.241 18.9129 31.1842L19.9335 30.8978C20.7118 30.6794 21.2153 29.9132 21.1082 29.113L21.0839 28.8495C21.6815 29.1786 22.3407 29.3436 23.0003 29.3436C23.6595 29.3436 24.3187 29.1786 24.9162 28.8497L24.892 29.113C24.7848 29.9133 25.2884 30.6794 26.0666 30.8978L30.0963 32.0286C30.6809 32.1927 31.1203 32.6653 31.2572 33.2387H14.7428C14.8797 32.6652 15.3192 32.1926 15.9038 32.0286L17.2249 31.6579C17.4273 31.6011 17.5453 31.391 17.4885 31.1886C17.4316 30.9863 17.2215 30.8681 17.0191 30.925L15.6981 31.2957C14.661 31.5868 13.9368 32.5423 13.9368 33.6193C13.9368 33.8295 14.1072 33.9999 14.3174 33.9999H31.6825C31.8927 33.9999 32.0631 33.8295 32.0631 33.6193C32.0631 32.5423 31.3389 31.5868 30.3018 31.2958ZM21.1224 9.518C21.714 8.77441 22.912 8.76126 22.9899 8.76126H22.9939C22.9977 8.76131 23.0023 8.76131 23.0061 8.76126C23.0183 8.76121 24.2689 8.75298 24.8776 9.518C25.1041 9.80268 25.2177 10.1697 25.2192 10.6136C24.8305 10.5186 24.4261 10.4483 24.0067 10.4031C23.4775 10.3461 22.9587 10.3253 22.4644 10.3415C21.8781 10.3606 21.3153 10.4324 20.7814 10.5531C20.7927 10.1362 20.9062 9.78973 21.1224 9.518ZM16.755 20.0694C16.5701 19.7602 16.4078 19.4471 16.2726 19.139C15.7601 17.9705 15.9761 16.3041 16.4178 15.1693C16.7409 14.3838 17.1874 13.6966 17.7511 13.1134C17.8802 13.077 18.2141 13.0274 19.0453 13.0676C20.1081 13.1191 21.1567 13.3454 22.135 13.7286C21.159 14.1389 20.2416 14.7448 19.4307 15.5279C18.1241 16.7899 17.2026 18.3872 16.7759 20.1047L16.755 20.0694ZM24.9033 27.9578C23.765 28.7898 22.2354 28.7898 21.0971 27.9578C20.526 27.5404 20.0379 27.1011 19.6465 26.6521C18.21 25.0045 17.467 23.3544 17.3751 21.6077C17.3665 21.4442 17.3617 21.2639 17.3593 21.075C17.636 19.2247 18.5786 17.4093 19.9597 16.0754C20.8908 15.1762 21.9727 14.5331 23.1189 14.1803C23.1739 14.2094 23.2289 14.2384 23.2832 14.2686C27.4474 16.5898 28.4228 19.6129 28.6337 21.2083C28.6345 21.2144 28.6364 21.2203 28.6375 21.2264C28.6348 21.3723 28.6308 21.5026 28.6253 21.6077C28.5334 23.3544 27.7905 25.0044 26.3539 26.6521C25.9624 27.1011 25.4744 27.5404 24.9033 27.9578Z" fill="white"/>
</svg>
