<svg width="45" height="45" viewBox="0 0 45 45" fill="none" xmlns="http://www.w3.org/2000/svg">
<circle cx="22.5" cy="22.5" r="22.5" fill="#3E5581"/>
<path d="M19.6562 23.3438H18.7188C18.5944 23.3438 18.4752 23.3931 18.3873 23.481C18.2994 23.569 18.25 23.6882 18.25 23.8125C18.2496 24.1853 18.1013 24.5428 17.8376 24.8064C17.574 25.07 17.2166 25.2183 16.8438 25.2188H15.9062C15.5334 25.2183 15.176 25.07 14.9124 24.8064C14.6487 24.5428 14.5004 24.1853 14.5 23.8125C14.5 23.6882 14.4506 23.569 14.3627 23.481C14.2748 23.3931 14.1556 23.3438 14.0312 23.3438H13.0938C12.9694 23.3438 12.8502 23.3931 12.7623 23.481C12.6744 23.569 12.625 23.6882 12.625 23.8125C12.625 23.9368 12.6744 24.056 12.7623 24.144C12.8502 24.2319 12.9694 24.2812 13.0938 24.2812H13.6094C13.6923 24.6856 13.8807 25.0608 14.1556 25.3687L13.6996 25.8248C13.6116 25.9127 13.5623 26.0319 13.5623 26.1562C13.5623 26.2806 13.6116 26.3998 13.6996 26.4877C13.7875 26.5756 13.9067 26.625 14.031 26.625C14.1553 26.625 14.2746 26.5756 14.3625 26.4877L14.9143 25.9359C15.2247 26.0814 15.5634 26.1567 15.9062 26.1562V26.625C15.9062 26.7493 15.9556 26.8685 16.0435 26.9565C16.1315 27.0444 16.2507 27.0938 16.375 27.0938C16.4993 27.0938 16.6185 27.0444 16.7065 26.9565C16.7944 26.8685 16.8438 26.7493 16.8438 26.625V26.1562C17.1865 26.1566 17.5251 26.0814 17.8354 25.9359L18.3873 26.4877C18.4308 26.5312 18.4825 26.5658 18.5394 26.5893C18.5962 26.6129 18.6572 26.625 18.7188 26.625C18.7803 26.625 18.8413 26.6129 18.8981 26.5893C18.955 26.5658 19.0067 26.5312 19.0502 26.4877C19.0937 26.4442 19.1283 26.3925 19.1518 26.3356C19.1754 26.2788 19.1875 26.2178 19.1875 26.1562C19.1875 26.0947 19.1754 26.0337 19.1518 25.9769C19.1283 25.92 19.0937 25.8683 19.0502 25.8248L18.5942 25.3687C18.8691 25.0608 19.0577 24.6856 19.1406 24.2812H19.6562C19.7806 24.2812 19.8998 24.2319 19.9877 24.144C20.0756 24.056 20.125 23.9368 20.125 23.8125C20.125 23.6882 20.0756 23.569 19.9877 23.481C19.8998 23.3931 19.7806 23.3438 19.6562 23.3438Z" fill="white"/>
<path d="M29.9688 23.3438C29.8444 23.3438 29.7252 23.3931 29.6373 23.481C29.5494 23.569 29.5 23.6882 29.5 23.8125C29.4996 24.1853 29.3513 24.5428 29.0876 24.8064C28.824 25.07 28.4666 25.2183 28.0938 25.2188H27.1562C26.7834 25.2183 26.426 25.07 26.1624 24.8064C25.8987 24.5428 25.7504 24.1853 25.75 23.8125C25.75 23.6882 25.7006 23.569 25.6127 23.481C25.5248 23.3931 25.4056 23.3438 25.2812 23.3438H24.3438C24.2194 23.3438 24.1002 23.3931 24.0123 23.481C23.9244 23.569 23.875 23.6882 23.875 23.8125C23.875 23.9368 23.9244 24.056 24.0123 24.144C24.1002 24.2319 24.2194 24.2812 24.3438 24.2812H24.8594C24.9423 24.6856 25.1307 25.0608 25.4056 25.3687L24.9496 25.8248C24.8616 25.9127 24.8123 26.0319 24.8123 26.1562C24.8123 26.2806 24.8616 26.3998 24.9496 26.4877C25.0375 26.5756 25.1567 26.625 25.281 26.625C25.4053 26.625 25.5246 26.5756 25.6125 26.4877L26.1643 25.9359C26.4747 26.0814 26.8134 26.1567 27.1562 26.1562V26.625C27.1562 26.7493 27.2056 26.8685 27.2935 26.9565C27.3815 27.0444 27.5007 27.0938 27.625 27.0938C27.7493 27.0938 27.8685 27.0444 27.9565 26.9565C28.0444 26.8685 28.0938 26.7493 28.0938 26.625V26.1562C28.4365 26.1566 28.7751 26.0814 29.0854 25.9359L29.6373 26.4877C29.7252 26.5756 29.8444 26.625 29.9688 26.625C30.0931 26.625 30.2123 26.5756 30.3002 26.4877C30.3881 26.3998 30.4375 26.2806 30.4375 26.1562C30.4375 26.0319 30.3881 25.9127 30.3002 25.8248L29.8442 25.3687C30.1191 25.0609 30.3077 24.6856 30.3906 24.2812H30.9062C31.0306 24.2812 31.1498 24.2319 31.2377 24.144C31.3256 24.056 31.375 23.9368 31.375 23.8125C31.375 23.6882 31.3256 23.569 31.2377 23.481C31.1498 23.3931 31.0306 23.3438 30.9062 23.3438H29.9688Z" fill="white"/>
<path d="M35.5938 22.875H32.8984C32.5202 21.9085 31.8594 21.0785 31.0023 20.4932C30.1452 19.9078 29.1316 19.5944 28.0938 19.5938H15.9651C14.9206 19.5934 13.8998 19.9057 13.0343 20.4905C12.1687 21.0752 11.498 21.9057 11.1086 22.875H8.40625C8.28193 22.875 8.1627 22.9244 8.07479 23.0123C7.98689 23.1002 7.9375 23.2194 7.9375 23.3438V26.1563C7.9375 26.2806 7.98689 26.3998 8.07479 26.4877C8.1627 26.5756 8.28193 26.625 8.40625 26.625H11.1016C11.4798 27.5915 12.1406 28.4215 12.9977 29.0069C13.8548 29.5922 14.8684 29.9056 15.9062 29.9063H17.3125C17.9672 29.9047 18.6126 29.7515 19.1981 29.4587C19.7837 29.166 20.2935 28.7416 20.6875 28.2188C20.7313 28.1607 20.7879 28.1135 20.853 28.081C20.918 28.0484 20.9898 28.0314 21.0625 28.0313H22.9375C23.0102 28.0314 23.082 28.0484 23.147 28.081C23.2121 28.1135 23.2687 28.1607 23.3125 28.2188C23.7065 28.7415 24.2163 29.166 24.8019 29.4587C25.3874 29.7515 26.0328 29.9047 26.6875 29.9063H28.0352C29.0797 29.9066 30.1005 29.5943 30.966 29.0095C31.8316 28.4248 32.5023 27.5943 32.8917 26.625H35.5938C35.7181 26.625 35.8373 26.5756 35.9252 26.4877C36.0131 26.3998 36.0625 26.2806 36.0625 26.1563V23.3438C36.0625 23.2194 36.0131 23.1002 35.9252 23.0123C35.8373 22.9244 35.7181 22.875 35.5938 22.875ZM8.875 25.6875V23.8125H10.8368C10.7813 24.1087 10.7523 24.4092 10.75 24.7105C10.7477 25.0381 10.7763 25.3652 10.8353 25.6875H8.875ZM28.0352 28.9688H26.6875C26.1783 28.9675 25.6763 28.8484 25.2209 28.6207C24.7655 28.393 24.369 28.0629 24.0625 27.6563C23.9312 27.482 23.7612 27.3405 23.566 27.2429C23.3709 27.1453 23.1557 27.0943 22.9375 27.0938H21.0625C20.8443 27.0943 20.6291 27.1453 20.434 27.2429C20.2388 27.3405 20.0689 27.482 19.9375 27.6563C19.631 28.0629 19.2345 28.393 18.7791 28.6207C18.3237 28.8484 17.8217 28.9675 17.3125 28.9688H15.9062C15.3495 28.9688 14.7982 28.8586 14.2843 28.6445C13.7703 28.4305 13.3038 28.1168 12.9116 27.7216C12.5194 27.3264 12.2093 26.8575 11.9993 26.3419C11.7892 25.8263 11.6832 25.2742 11.6875 24.7175C11.7051 22.4092 13.6237 20.5313 15.9648 20.5313H28.0938C28.6505 20.5312 29.2018 20.6414 29.7157 20.8555C30.2297 21.0695 30.6962 21.3832 31.0884 21.7784C31.4806 22.1736 31.7907 22.6425 32.0007 23.1581C32.2108 23.6737 32.3168 24.2258 32.3125 24.7825C32.2949 27.0908 30.3762 28.9688 28.0352 28.9688ZM35.125 25.6875H33.1632C33.2187 25.3913 33.2478 25.0908 33.25 24.7895C33.2523 24.4619 33.2237 24.1348 33.1647 23.8125H35.125V25.6875Z" fill="white"/>
<path d="M28.0938 15.8438H29.7746L27.7623 17.856C27.6967 17.9216 27.6521 18.0051 27.634 18.096C27.6159 18.187 27.6252 18.2812 27.6607 18.3669C27.6962 18.4525 27.7562 18.5258 27.8333 18.5773C27.9104 18.6288 28.0011 18.6563 28.0938 18.6562H30.9063C31.0306 18.6562 31.1498 18.6069 31.2377 18.519C31.3256 18.431 31.375 18.3118 31.375 18.1875C31.375 18.0632 31.3256 17.944 31.2377 17.856C31.1498 17.7681 31.0306 17.7188 30.9063 17.7188H29.2254L31.2377 15.7065C31.3033 15.6409 31.3479 15.5574 31.366 15.4665C31.3841 15.3755 31.3748 15.2813 31.3393 15.1956C31.3039 15.11 31.2438 15.0367 31.1667 14.9852C31.0896 14.9337 30.999 14.9062 30.9063 14.9063H28.0938C27.9694 14.9063 27.8502 14.9556 27.7623 15.0435C27.6744 15.1315 27.625 15.2507 27.625 15.375C27.625 15.4993 27.6744 15.6185 27.7623 15.7065C27.8502 15.7944 27.9694 15.8438 28.0938 15.8438Z" fill="white"/>
<path d="M32.7813 13.0312H34.4621L32.4498 15.0435C32.3842 15.1091 32.3396 15.1926 32.3215 15.2835C32.3034 15.3745 32.3127 15.4687 32.3482 15.5544C32.3837 15.64 32.4437 15.7133 32.5208 15.7648C32.5979 15.8163 32.6886 15.8438 32.7813 15.8438H35.5938C35.7181 15.8438 35.8373 15.7944 35.9252 15.7065C36.0131 15.6185 36.0625 15.4993 36.0625 15.375C36.0625 15.2507 36.0131 15.1315 35.9252 15.0435C35.8373 14.9556 35.7181 14.9062 35.5938 14.9062H33.9129L35.9252 12.894C35.9908 12.8284 36.0354 12.7449 36.0535 12.654C36.0716 12.563 36.0623 12.4688 36.0268 12.3831C35.9914 12.2975 35.9313 12.2242 35.8542 12.1727C35.7771 12.1212 35.6865 12.0937 35.5938 12.0938H32.7813C32.6569 12.0938 32.5377 12.1431 32.4498 12.231C32.3619 12.319 32.3125 12.4382 32.3125 12.5625C32.3125 12.6868 32.3619 12.806 32.4498 12.894C32.5377 12.9819 32.6569 13.0312 32.7813 13.0312Z" fill="white"/>
</svg>
