<svg width="45" height="45" viewBox="0 0 45 45" fill="none" xmlns="http://www.w3.org/2000/svg">
<circle cx="22.5" cy="22.5" r="22.5" fill="#3E5581"/>
<g clip-path="url(#clip0)">
<path d="M10 29.5834C10 31.8401 16.7017 32.0834 19.5833 32.0834C23.1525 32.0834 26.0554 31.7367 27.6358 31.1284C28.213 31.6961 28.9764 32.0354 29.7846 32.0834C30.1233 32.0834 30.1142 32.0655 32.3079 31.5717C33.5104 31.3009 34.3875 30.0576 34.7796 28.0717C35.1365 25.8742 35.047 23.6272 34.5163 21.4651C33.3613 16.3363 30.5833 12.7388 28.1883 13.2796L26.1563 13.738C25.3017 13.9305 24.6325 14.6267 24.1729 15.668C21.1779 14.8546 20.8554 17.0834 17.9758 16.6709C15.4583 16.3113 15.4167 13.4542 15.4167 13.3334C15.4168 13.1558 15.3043 12.9976 15.1364 12.9394C14.9686 12.8812 14.7823 12.9359 14.6725 13.0755C14.5854 13.1863 12.635 15.7134 13.0296 18.7496C10.7471 19.1113 10.4167 19.563 10.4167 20.0001V21.4167C10.1702 21.5502 10.0119 21.8033 10 22.0834L10 29.5834ZM14.1408 21.3976C17.2737 21.7073 20.4272 21.751 23.5675 21.528C23.6117 21.9446 23.6671 22.3696 23.7421 22.8026C20.9696 22.9634 13.6588 23.0551 11.25 22.2255V20.8334C12.1885 21.1328 13.1586 21.3222 14.1408 21.3976ZM10.8333 29.5834V24.6063C12.5925 25.0851 14.4016 25.357 16.2238 25.4167C16.3726 25.426 16.5151 25.3552 16.5976 25.231C16.6801 25.1067 16.69 24.9479 16.6237 24.8143C16.5573 24.6807 16.4247 24.5927 16.2758 24.5834C13.2296 24.3938 11.6496 24.0305 10.8333 23.7267V22.9584C13.3371 23.9201 21.0592 23.8001 23.9038 23.6288C24.4067 25.9742 25.4038 28.6626 26.9846 30.4763C25.44 30.9705 22.8038 31.2501 19.5833 31.2501C13.5479 31.2501 10.8333 30.2755 10.8333 29.5834ZM33.7033 21.6476C34.209 23.6966 34.2968 25.8264 33.9617 27.9101C33.6425 29.5292 32.9733 30.5676 32.125 30.7588C30.4554 31.1338 27.9167 28.1876 26.7917 23.2038C25.6667 18.2201 26.7029 14.4684 28.3717 14.0926C28.4683 14.0711 28.5669 14.0604 28.6658 14.0605C30.3258 14.0605 32.645 16.9484 33.7033 21.6476ZM26.3392 14.5505L26.5917 14.4934C23.9921 18.4276 26.3092 28.7197 30.3454 31.1601L30.0925 31.2172C29.2438 31.408 28.1938 30.7588 27.2113 29.4313C26.0155 27.6923 25.182 25.7305 24.7604 23.6626C24.5651 22.7917 24.4275 21.909 24.3483 21.0201C24.0454 17.3971 24.9817 14.8563 26.3392 14.5505ZM14.2163 15.7109C14.2579 17.6301 15.2021 18.9788 16.9517 19.5621C17.1703 19.6349 17.4064 19.5166 17.4792 19.298C17.5519 19.0794 17.4336 18.8432 17.215 18.7705C15.4233 18.173 15.0067 16.7155 15.0513 15.3746C15.5462 16.5277 16.6131 17.3339 17.8575 17.4951C21.0133 17.9471 21.3454 15.8226 23.8813 16.4534C23.5123 17.8359 23.3827 19.2713 23.4979 20.6976C20.4879 20.9099 17.4655 20.8747 14.4613 20.5926C13.6775 19.0773 13.5882 17.297 14.2163 15.7109ZM13.1883 19.5684C13.271 19.877 13.3737 20.1799 13.4958 20.4751C12.7848 20.4017 12.0852 20.2425 11.4125 20.0009C11.9846 19.7847 12.5809 19.6395 13.1883 19.5684Z" fill="white"/>
<path d="M17.9167 25.4167C18.1468 25.4167 18.3333 25.2302 18.3333 25C18.3333 24.7699 18.1468 24.5834 17.9167 24.5834C17.6865 24.5834 17.5 24.7699 17.5 25C17.5 25.2302 17.6865 25.4167 17.9167 25.4167Z" fill="white"/>
<path d="M27.5571 19.2763C27.5801 19.5052 27.7844 19.6722 28.0134 19.6492C28.2423 19.6262 28.4093 19.4219 28.3863 19.1929C28.1875 17.2046 28.5879 16.5754 28.8446 16.3775C29.0328 16.2474 29.2718 16.2149 29.4879 16.29C29.7011 16.3703 29.9392 16.2645 30.0225 16.0526C30.1059 15.8407 30.0036 15.6011 29.7929 15.5146C29.3101 15.3332 28.7686 15.4053 28.35 15.7067C27.6405 16.2404 27.375 17.4413 27.5571 19.2763Z" fill="white"/>
<path d="M31.0417 28.7205C31.5247 28.9019 32.0664 28.8296 32.485 28.528C33.1934 27.9942 33.4613 26.7934 33.2767 24.9584C33.2537 24.7294 33.0494 24.5625 32.8204 24.5855C32.5915 24.6085 32.4245 24.8128 32.4475 25.0417C32.6467 27.0301 32.2459 27.6588 31.9892 27.8572C31.8013 27.9876 31.5623 28.0202 31.3463 27.9451C31.2078 27.8905 31.0507 27.914 30.9342 28.0067C30.8176 28.0994 30.7594 28.2472 30.7814 28.3944C30.8035 28.5416 30.9023 28.6659 31.0409 28.7205H31.0417Z" fill="white"/>
</g>
<defs>
<clipPath id="clip0">
<rect width="25" height="25" fill="white" transform="translate(10 10)"/>
</clipPath>
</defs>
</svg>
