<svg width="45" height="45" viewBox="0 0 45 45" fill="none" xmlns="http://www.w3.org/2000/svg">
<circle cx="22.5" cy="22.5" r="22.5" fill="#3E5581"/>
<g clip-path="url(#clip0)">
<path d="M19.8843 16.2316L16.5408 15.447C14.7428 15.032 12.8686 15.0822 11.0954 15.593C9.32217 16.1037 7.70845 17.0581 6.40668 18.366L6.13082 18.645C6.06022 18.7166 6.01556 18.8097 6.00394 18.9096C5.99232 19.0095 6.0144 19.1104 6.06668 19.1963C6.11897 19.2822 6.19845 19.3482 6.29251 19.3837C6.38657 19.4193 6.48982 19.4224 6.58586 19.3926L8.40602 18.8254C9.99165 18.333 11.6756 18.2469 13.3032 18.5748L18.4166 19.6092C18.4975 19.6259 18.5799 19.6345 18.6626 19.635C18.8274 19.6349 18.9904 19.6014 19.1419 19.5364C19.2934 19.4715 19.4301 19.3765 19.5438 19.2573L20.4897 18.2722C20.6392 18.1162 20.7449 17.9235 20.7958 17.7136C20.8468 17.5037 20.8413 17.284 20.78 17.0768C20.7186 16.8697 20.6035 16.6825 20.4464 16.5342C20.2893 16.386 20.0957 16.2819 19.8854 16.2326L19.8843 16.2316ZM19.8374 17.6467L18.8913 18.6331C18.8536 18.6723 18.8068 18.7013 18.7549 18.7176C18.7031 18.7338 18.648 18.7367 18.5948 18.7259L13.4821 17.6916C11.7757 17.3474 10.0114 17.4203 8.33925 17.904C9.48507 17.0916 10.7899 16.5309 12.1679 16.2589C13.5459 15.9868 14.9659 16.0096 16.3345 16.3257L19.6784 17.1102C19.7337 17.1231 19.7846 17.1505 19.826 17.1895C19.8674 17.2285 19.8976 17.2777 19.9138 17.3322C19.93 17.3867 19.9314 17.4445 19.918 17.4998C19.9046 17.555 19.8768 17.6057 19.8374 17.6467Z" fill="white"/>
<path d="M26.3383 19.6346C26.4208 19.6342 26.503 19.6256 26.5838 19.6089L31.6975 18.5745C33.3255 18.2463 35.0099 18.3325 36.5959 18.8251L38.4158 19.3923C38.5119 19.4222 38.6152 19.4192 38.7093 19.3836C38.8034 19.3481 38.883 19.2821 38.9353 19.1962C38.9876 19.1103 39.0097 19.0093 38.9981 18.9094C38.9865 18.8094 38.9418 18.7163 38.8711 18.6446L38.5955 18.3657C37.2936 17.0575 35.6796 16.103 33.9061 15.5922C32.1326 15.0815 30.2581 15.0314 28.4599 15.4467L25.116 16.2313C24.9055 16.2804 24.7117 16.3844 24.5544 16.5327C24.397 16.681 24.2818 16.8684 24.2203 17.0757C24.1589 17.2829 24.1534 17.5028 24.2044 17.7129C24.2555 17.923 24.3612 18.1159 24.5109 18.2718L25.4563 19.258C25.5702 19.3772 25.7071 19.4721 25.8587 19.5368C26.0103 19.6016 26.1735 19.6349 26.3383 19.6346ZM25.0869 17.3319C25.1025 17.2771 25.1325 17.2276 25.1739 17.1885C25.2153 17.1495 25.2665 17.1223 25.322 17.1099L28.6659 16.3254C29.3968 16.1539 30.1451 16.0674 30.8959 16.0675C32.9613 16.0689 34.9754 16.7102 36.6614 17.9032C34.9892 17.4192 33.2249 17.3463 31.5186 17.6907L26.4046 18.7253C26.3516 18.7359 26.2967 18.733 26.2451 18.7168C26.1936 18.7007 26.1469 18.6717 26.1094 18.6328L25.1632 17.6464C25.1234 17.6057 25.0953 17.555 25.0818 17.4996C25.0684 17.4443 25.0701 17.3863 25.0869 17.3319Z" fill="white"/>
<path d="M32.0007 20.364C28.2366 20.364 25.2548 23.3688 25.1295 23.4967C25.047 23.581 25.0009 23.6943 25.0009 23.8123C25.0009 23.9302 25.047 24.0435 25.1295 24.1278C25.2548 24.2567 28.2374 27.2605 32.0007 27.2605C35.764 27.2605 38.7464 24.2557 38.8711 24.1278C38.9536 24.0435 38.9997 23.9302 38.9997 23.8123C38.9997 23.6943 38.9536 23.581 38.8711 23.4967C38.7464 23.3688 35.7635 20.364 32.0007 20.364ZM28.7827 22.0529C28.4859 22.5918 28.3302 23.197 28.3302 23.8123C28.3302 24.4275 28.4859 25.0327 28.7827 25.5716C27.8192 25.107 26.9225 24.5153 26.1164 23.8123C26.9223 23.109 27.8191 22.5173 28.7827 22.0529ZM30.6131 26.2037C30.1933 25.9616 29.8447 25.6131 29.6023 25.1935C29.3598 24.7738 29.2322 24.2977 29.2322 23.813C29.2322 23.3284 29.3598 22.8523 29.6023 22.4326C29.8447 22.0129 30.1933 21.6645 30.6131 21.4223C31.5264 21.2154 32.4744 21.2154 33.3877 21.4223C33.8076 21.6647 34.1563 22.0133 34.3986 22.4332C34.641 22.853 34.7685 23.3293 34.7682 23.8141C34.768 24.2989 34.6401 24.7751 34.3974 25.1948C34.1547 25.6145 33.8058 25.9628 33.3857 26.2048C32.4732 26.411 31.5261 26.411 30.6137 26.2048L30.6131 26.2037ZM35.2161 25.5752C35.5137 25.0361 35.6699 24.4304 35.6701 23.8146C35.6704 23.1989 35.5147 22.5931 35.2177 22.0537C36.1814 22.5182 37.0784 23.1102 37.8845 23.8135C37.0786 24.518 36.1812 25.1104 35.2166 25.5744L35.2161 25.5752Z" fill="white"/>
<path d="M38.9193 26.8812C38.851 26.783 38.7464 26.7159 38.6287 26.6947C38.5109 26.6736 38.3896 26.7 38.2913 26.7683C38.085 26.9111 37.8754 27.0495 37.6651 27.1808C37.5661 27.2451 37.4963 27.3457 37.4707 27.4609C37.445 27.5762 37.4654 27.6969 37.5277 27.7972C37.5899 27.8975 37.689 27.9694 37.8036 27.9976C37.9183 28.0257 38.0394 28.0078 38.141 27.9478C38.3643 27.8091 38.588 27.6621 38.8064 27.5095C38.9046 27.441 38.9716 27.3365 38.9928 27.2187C39.0139 27.1009 38.9875 26.9795 38.9193 26.8812Z" fill="white"/>
<path d="M35.954 28.0768C35.5121 28.2676 35.0584 28.4299 34.5958 28.5628C34.4808 28.5956 34.3834 28.6727 34.3253 28.7772C34.2671 28.8818 34.2529 29.0051 34.2856 29.1202C34.3184 29.2352 34.3956 29.3325 34.5001 29.3907C34.6046 29.4488 34.728 29.4631 34.843 29.4303C35.3428 29.287 35.8329 29.1118 36.3102 28.9057C36.4181 28.857 36.5025 28.768 36.5453 28.6578C36.5881 28.5475 36.586 28.4249 36.5392 28.3162C36.4925 28.2076 36.405 28.1216 36.2956 28.0768C36.1861 28.032 36.0634 28.032 35.954 28.0768Z" fill="white"/>
<path d="M32.7176 28.9074C32.2427 28.9453 31.7654 28.9453 31.2904 28.9074C31.1711 28.8979 31.0529 28.9361 30.9618 29.0136C30.8707 29.0912 30.8141 29.2018 30.8045 29.3211C30.795 29.4404 30.8332 29.5586 30.9108 29.6497C30.9883 29.7408 31.0989 29.7974 31.2182 29.8069C31.4783 29.8278 31.7418 29.8384 32.0007 29.8384C32.2595 29.8384 32.5266 29.8276 32.7901 29.8064C32.85 29.8028 32.9086 29.7873 32.9624 29.7607C33.0162 29.7342 33.0642 29.6972 33.1035 29.6519C33.1429 29.6066 33.1728 29.5539 33.1915 29.4969C33.2102 29.4398 33.2174 29.3797 33.2126 29.3199C33.2078 29.26 33.1911 29.2018 33.1634 29.1485C33.1358 29.0952 33.0979 29.048 33.0518 29.0096C33.0057 28.9711 32.9524 28.9423 32.895 28.9247C32.8377 28.9071 32.7774 28.9012 32.7176 28.9072V28.9074Z" fill="white"/>
<path d="M29.4117 28.5643C28.9491 28.432 28.4954 28.2701 28.0536 28.0796C27.9992 28.0562 27.9407 28.0437 27.8814 28.0429C27.8222 28.0421 27.7634 28.0529 27.7084 28.0749C27.6534 28.0968 27.6032 28.1293 27.5607 28.1706C27.5183 28.2119 27.4844 28.2612 27.461 28.3156C27.4376 28.37 27.4251 28.4285 27.4243 28.4877C27.4235 28.5469 27.4344 28.6057 27.4563 28.6608C27.4782 28.7158 27.5107 28.766 27.552 28.8084C27.5933 28.8509 27.6426 28.8848 27.697 28.9082C28.1745 29.1144 28.6649 29.2895 29.165 29.4326C29.2793 29.4626 29.4008 29.4467 29.5035 29.3881C29.6062 29.3296 29.6818 29.2331 29.7141 29.1194C29.7464 29.0057 29.7328 28.8839 29.6763 28.7801C29.6197 28.6763 29.5248 28.5988 29.4117 28.5643Z" fill="white"/>
<path d="M26.336 27.1797C26.1254 27.0508 25.9148 26.9108 25.709 26.7685C25.6604 26.7348 25.6055 26.7109 25.5476 26.6984C25.4898 26.6858 25.43 26.6848 25.3717 26.6953C25.3134 26.7059 25.2578 26.7278 25.208 26.7598C25.1582 26.7919 25.1151 26.8334 25.0814 26.8821C25.0132 26.9804 24.9869 27.1017 25.0082 27.2194C25.0295 27.3371 25.0967 27.4416 25.195 27.5097C25.4131 27.6611 25.6368 27.808 25.8601 27.9467C25.9617 28.0068 26.0828 28.0247 26.1975 27.9965C26.3121 27.9684 26.4112 27.8964 26.4734 27.7961C26.5357 27.6958 26.5561 27.5751 26.5304 27.4599C26.5048 27.3447 26.435 27.2441 26.336 27.1797Z" fill="white"/>
<path d="M12.9996 20.364C9.23662 20.364 6.25372 23.3688 6.12894 23.4967C6.04637 23.581 6.00012 23.6943 6.00012 23.8123C6.00012 23.9302 6.04637 24.0435 6.12894 24.1278C6.25398 24.2567 9.23687 27.2605 12.9999 27.2605C16.7629 27.2605 19.7453 24.2557 19.8703 24.1278C19.9529 24.0435 19.9992 23.9302 19.9992 23.8123C19.9992 23.6943 19.9529 23.581 19.8703 23.4967C19.7453 23.3688 16.7627 20.364 12.9996 20.364ZM9.78163 22.0529C9.4849 22.5919 9.3293 23.1971 9.3293 23.8123C9.3293 24.4275 9.4849 25.0327 9.78163 25.5716C8.81821 25.1071 7.92151 24.5154 7.11559 23.8123C7.92141 23.109 8.81812 22.5172 9.78163 22.0529ZM11.6121 26.2037C11.1922 25.9616 10.8435 25.6131 10.6011 25.1934C10.3586 24.7737 10.231 24.2976 10.231 23.8129C10.231 23.3282 10.3586 22.8521 10.6011 22.4324C10.8435 22.0127 11.1922 21.6642 11.6121 21.4221C12.5251 21.2153 13.4729 21.2153 14.3859 21.4221C14.8059 21.6644 15.1546 22.013 15.397 22.4329C15.6394 22.8528 15.767 23.3291 15.7668 23.8139C15.7666 24.2988 15.6387 24.775 15.396 25.1947C15.1533 25.6144 14.8042 25.9628 14.3841 26.2048C13.4718 26.4108 12.525 26.4108 11.6126 26.2048L11.6121 26.2037ZM16.2148 25.5749C16.5122 25.0358 16.6683 24.4301 16.6686 23.8144C16.6688 23.1987 16.5133 22.5929 16.2164 22.0535C17.1801 22.5179 18.077 23.1098 18.8829 23.8133C18.0773 24.5178 17.1802 25.1102 16.2159 25.5744L16.2148 25.5749Z" fill="white"/>
<path d="M7.33498 27.1797C7.12383 27.049 6.9132 26.9106 6.70876 26.7685C6.66012 26.7347 6.60529 26.7107 6.5474 26.6981C6.48952 26.6854 6.4297 26.6842 6.37137 26.6947C6.31304 26.7051 6.25734 26.727 6.20745 26.759C6.15756 26.7909 6.11445 26.8324 6.0806 26.8811C6.04674 26.9297 6.02279 26.9845 6.01013 27.0424C5.99746 27.1003 5.99632 27.1601 6.00677 27.2184C6.01722 27.2768 6.03905 27.3325 6.07103 27.3824C6.10301 27.4323 6.1445 27.4754 6.19313 27.5092C6.41047 27.6606 6.63451 27.8075 6.8588 27.9475C6.96051 28.0106 7.08311 28.0307 7.19963 28.0033C7.31616 27.976 7.41705 27.9035 7.48013 27.8018C7.54321 27.7001 7.5633 27.5775 7.53598 27.461C7.50866 27.3445 7.43618 27.2436 7.33447 27.1805L7.33498 27.1797Z" fill="white"/>
<path d="M13.7099 28.9077C13.2348 28.9457 12.7575 28.9457 12.2824 28.9077C12.2227 28.9017 12.1624 28.9076 12.105 28.9252C12.0476 28.9428 11.9943 28.9716 11.9483 29.01C11.9022 29.0485 11.8642 29.0957 11.8366 29.149C11.809 29.2023 11.7923 29.2605 11.7875 29.3203C11.7826 29.3802 11.7898 29.4403 11.8085 29.4973C11.8273 29.5544 11.8572 29.6071 11.8965 29.6524C11.9358 29.6977 11.9838 29.7347 12.0377 29.7612C12.0915 29.7878 12.1501 29.8033 12.2099 29.8069C12.4734 29.8281 12.739 29.8389 12.9994 29.8389C13.2598 29.8389 13.5217 29.8283 13.7818 29.8074C13.9011 29.7979 14.0117 29.7414 14.0893 29.6503C14.1669 29.5592 14.2052 29.441 14.1956 29.3217C14.1861 29.2024 14.1296 29.0918 14.0385 29.0142C13.9474 28.9366 13.8292 28.8984 13.7099 28.9079V28.9077Z" fill="white"/>
<path d="M10.4042 28.5627C9.94166 28.4299 9.48809 28.2676 9.04632 28.0767C8.99178 28.0527 8.93303 28.0397 8.87343 28.0384C8.81384 28.0372 8.75459 28.0478 8.69912 28.0696C8.64364 28.0914 8.59303 28.124 8.55022 28.1654C8.50741 28.2069 8.47324 28.2565 8.44968 28.3112C8.42613 28.366 8.41366 28.4249 8.41299 28.4845C8.41233 28.5441 8.42348 28.6032 8.4458 28.6585C8.46812 28.7137 8.50117 28.764 8.54305 28.8065C8.58492 28.8489 8.63479 28.8826 8.68976 28.9056C9.16709 29.1117 9.65717 29.287 10.157 29.4303C10.2139 29.4465 10.2735 29.4514 10.3324 29.4446C10.3912 29.4377 10.4481 29.4194 10.4999 29.3906C10.5517 29.3618 10.5972 29.3231 10.634 29.2767C10.6708 29.2303 10.6981 29.1771 10.7144 29.1201C10.7306 29.0631 10.7355 29.0035 10.7287 28.9447C10.7219 28.8859 10.7035 28.8289 10.6747 28.7772C10.6459 28.7254 10.6072 28.6798 10.5608 28.643C10.5144 28.6063 10.4612 28.579 10.4042 28.5627Z" fill="white"/>
<path d="M16.9467 28.0795C16.5048 28.27 16.051 28.4319 15.5883 28.5642C15.4748 28.5984 15.3793 28.6758 15.3224 28.7798C15.2655 28.8838 15.2518 29.006 15.2842 29.12C15.3166 29.234 15.3926 29.3307 15.4957 29.3892C15.5988 29.4477 15.7208 29.4632 15.8353 29.4325C16.3353 29.2894 16.8255 29.1142 17.303 28.9081C17.3574 28.8847 17.4067 28.8509 17.448 28.8084C17.4893 28.766 17.5219 28.7158 17.5438 28.6608C17.5657 28.6058 17.5766 28.547 17.5758 28.4878C17.575 28.4286 17.5626 28.3701 17.5392 28.3157C17.5158 28.2613 17.4819 28.212 17.4395 28.1707C17.397 28.1294 17.3469 28.0968 17.2919 28.0749C17.2369 28.053 17.1781 28.0421 17.1188 28.0429C17.0596 28.0437 17.0011 28.0561 16.9467 28.0795Z" fill="white"/>
<path d="M19.2905 26.7686C19.0843 26.9114 18.8739 27.0496 18.6643 27.1798C18.6139 27.211 18.5702 27.2519 18.5356 27.3C18.501 27.3481 18.4763 27.4025 18.4627 27.4602C18.4492 27.5179 18.4472 27.5777 18.4567 27.6362C18.4663 27.6946 18.4873 27.7506 18.5185 27.801C18.5497 27.8514 18.5905 27.8951 18.6387 27.9297C18.6868 27.9643 18.7412 27.989 18.7989 28.0026C18.8566 28.0161 18.9164 28.0181 18.9748 28.0086C19.0333 27.999 19.0893 27.978 19.1397 27.9468C19.3627 27.8086 19.5865 27.6617 19.8051 27.5098C19.8538 27.476 19.8953 27.4328 19.9273 27.3829C19.9593 27.333 19.9812 27.2773 19.9917 27.219C20.0021 27.1606 20.001 27.1008 19.9884 27.0428C19.9757 26.9849 19.9518 26.9301 19.9179 26.8814C19.8841 26.8327 19.8409 26.7912 19.791 26.7592C19.7411 26.7272 19.6854 26.7053 19.6271 26.6948C19.5687 26.6844 19.5089 26.6855 19.4509 26.6981C19.393 26.7108 19.3382 26.7347 19.2895 26.7686H19.2905Z" fill="white"/>
</g>
<defs>
<clipPath id="clip0">
<rect width="33" height="33" fill="white" transform="translate(6 6)"/>
</clipPath>
</defs>
</svg>
