<svg width="60" height="61" viewBox="0 0 60 61" fill="none" xmlns="http://www.w3.org/2000/svg">
<path d="M59 30.5C59 46.808 46.0007 60 30 60C13.9993 60 1 46.808 1 30.5C1 14.192 13.9993 1 30 1C46.0007 1 59 14.192 59 30.5Z" stroke="black" stroke-width="2"/>
<path d="M24.5756 10C24.1657 10 23.8334 10.3324 23.8334 10.7422C23.8334 11.1522 24.1657 11.4845 24.5756 11.4845C28.7684 11.4845 32.1794 14.9841 32.1794 19.2859C32.1794 19.6958 32.5118 20.0281 32.9217 20.0281C33.3316 20.0281 33.6639 19.6957 33.6639 19.2859C33.664 14.1656 29.5869 10 24.5756 10Z" fill="black"/>
<path d="M24.5743 13.5215C24.1644 13.5215 23.832 13.8539 23.832 14.2637C23.832 14.6736 24.1644 15.006 24.5743 15.006C26.8702 15.006 28.738 16.9259 28.738 19.2858C28.738 19.6957 29.0704 20.0281 29.4803 20.0281C29.8902 20.0281 30.2225 19.6956 30.2225 19.2858C30.2226 16.1074 27.6887 13.5215 24.5743 13.5215Z" fill="black"/>
<path d="M24.5873 16.7656C24.1774 16.7656 23.8451 17.0979 23.8451 17.5079C23.8451 17.9178 24.1775 18.2501 24.5873 18.2501C25.1237 18.2501 25.56 18.7046 25.56 19.2633C25.56 19.6732 25.8923 20.0056 26.3022 20.0056C26.7121 20.0056 27.0445 19.6732 27.0445 19.2633C27.0445 17.8861 25.9422 16.7656 24.5873 16.7656Z" fill="black"/>
<path d="M28.7954 34.9704C28.6573 34.8323 28.4666 34.7529 28.2706 34.7529C28.0754 34.7529 27.8838 34.8323 27.7459 34.9704C27.6078 35.1084 27.5283 35.2999 27.5283 35.4952C27.5283 35.6911 27.6077 35.8819 27.7459 36.02C27.8846 36.1588 28.0754 36.2381 28.2706 36.2381C28.4658 36.2381 28.6573 36.1588 28.7954 36.02C28.9341 35.8819 29.0128 35.691 29.0128 35.4952C29.0128 35.3 28.9341 35.1085 28.7954 34.9704Z" fill="black"/>
<path d="M45.0416 41.6823L39.3551 35.9957C38.5981 35.2387 37.4072 35.1279 36.5237 35.7321L32.8943 38.2138C32.5997 38.4152 32.203 38.3783 31.9505 38.1259L30.7504 36.9256C30.4606 36.636 29.9908 36.6359 29.7006 36.9256C29.4107 37.2154 29.4107 37.6854 29.7006 37.9754L30.9007 39.1757C31.6578 39.9326 32.8485 40.0436 33.7321 39.4392L37.3615 36.9576C37.6559 36.7563 38.0529 36.7931 38.3053 37.0455L43.9919 42.7321C44.2813 43.0214 44.2812 43.4924 43.9918 43.7819C40.3454 47.4284 34.412 47.4284 30.7656 43.7819L19.2187 32.2349C17.4522 30.4684 16.4795 28.1199 16.4795 25.6217C16.4795 23.1236 17.4522 20.7749 19.2188 19.0084C19.359 18.8682 19.5453 18.7911 19.7436 18.7911C19.9419 18.7911 20.1283 18.8683 20.2684 19.0085L25.955 24.6951C26.2072 24.9474 26.2442 25.3444 26.0429 25.6389L23.5614 29.2682C22.957 30.1518 23.0679 31.3425 23.8248 32.0996L25.6289 33.9037C25.9188 34.1935 26.3887 34.1935 26.6787 33.9037C26.9685 33.6139 26.9685 33.1439 26.6787 32.8539L24.8747 31.0498C24.6224 30.7976 24.5854 30.4007 24.7868 30.1062L27.2684 26.4768C27.8726 25.5931 27.7617 24.4023 27.0048 23.6454L21.3182 17.9588C20.45 17.0906 19.0373 17.0906 18.169 17.9588C13.9437 22.1841 13.9437 29.0592 18.169 33.2846L29.7159 44.8314C31.8285 46.9441 34.6036 48.0004 37.3787 48.0004C40.1538 48.0004 42.9289 46.944 45.0415 44.8314C45.9097 43.9632 45.9097 42.5506 45.0416 41.6823Z" fill="black"/>
<path d="M24.9988 28.251L20.4993 23.7515C20.2093 23.4617 19.7394 23.4617 19.4495 23.7515C19.1596 24.0414 19.1596 24.5114 19.4495 24.8013L23.949 29.3008C24.094 29.4457 24.2838 29.5182 24.4739 29.5182C24.6638 29.5182 24.8538 29.4457 24.9988 29.3008C25.2886 29.0109 25.2886 28.5409 24.9988 28.251Z" fill="black"/>
<path d="M42.2198 45.4731L37.4856 40.7388C37.1956 40.449 36.7257 40.449 36.4358 40.7388C36.146 41.0287 36.146 41.4987 36.4358 41.7886L41.17 46.5229C41.315 46.6677 41.5048 46.7402 41.6949 46.7402C41.8848 46.7402 42.0748 46.6677 42.2198 46.5229C42.5097 46.2329 42.5097 45.7629 42.2198 45.4731Z" fill="black"/>
</svg>
