<svg width="27" height="27" viewBox="0 0 27 27" fill="none" xmlns="http://www.w3.org/2000/svg">
<path d="M15.56 20.1138H11.779V19.3728H11.798C12.1273 19.3855 12.3617 19.3222 12.501 19.1828C12.653 19.0308 12.7417 18.8345 12.767 18.5938C12.7923 18.3405 12.805 17.9352 12.805 17.3778V13.4448C12.805 13.1535 12.824 12.8115 12.862 12.4188L11.646 12.4948V11.5448H11.665C12.4123 11.5448 12.9317 11.5068 13.223 11.4308C13.5143 11.3422 13.7297 11.2218 13.869 11.0698H14.534V18.1758C14.534 18.6445 14.515 18.9928 14.477 19.2208L15.56 19.1828V20.1138Z" fill="#1C1C1C"/>
<circle cx="13.5" cy="8.5" r="1.5" fill="#1C1C1C"/>
<circle cx="13.5" cy="13.5" r="12.5" stroke="#1C1C1C" stroke-width="2"/>
</svg>
