<svg width="28" height="22" viewBox="0 0 28 22" fill="none" xmlns="http://www.w3.org/2000/svg">
<rect x="1" y="1" width="20" height="20" rx="4" stroke="#1C1C1C" stroke-width="2"/>
<mask id="path-2-inside-1" fill="white">
<path fill-rule="evenodd" clip-rule="evenodd" d="M20 14.3465L25.0148 17.1852C26.3481 17.9399 28.0001 16.9768 28.0001 15.4447L28.0001 6.00293C28.0001 4.47089 26.3481 3.50773 25.0148 4.26243L20 7.1011V14.3465Z"/>
</mask>
<path d="M25.0148 17.1852L26.0001 15.4447L25.0148 17.1852ZM20 14.3465H18V15.5126L19.0148 16.087L20 14.3465ZM28.0001 15.4447H30.0001V15.4447L28.0001 15.4447ZM28.0001 6.00293H26.0001V6.00293L28.0001 6.00293ZM25.0148 4.26243L26.0001 6.00293L25.0148 4.26243ZM20 7.1011L19.0148 5.3606L18 5.93502V7.1011H20ZM26.0001 15.4447L20.9852 12.606L19.0148 16.087L24.0296 18.9257L26.0001 15.4447ZM26.0001 15.4447L26.0001 15.4447L24.0296 18.9257C26.6961 20.4351 30.0001 18.5088 30.0001 15.4447H26.0001ZM26.0001 6.00293L26.0001 15.4447L30.0001 15.4447L30.0001 6.00293L26.0001 6.00293ZM26.0001 6.00293L26.0001 6.00293H30.0001C30.0001 2.93884 26.6961 1.01253 24.0296 2.52193L26.0001 6.00293ZM20.9852 8.8416L26.0001 6.00293L24.0296 2.52193L19.0148 5.3606L20.9852 8.8416ZM18 7.1011V14.3465H22V7.1011H18Z" fill="#1C1C1C" mask="url(#path-2-inside-1)"/>
</svg>
