<svg width="96" height="96" viewBox="0 0 96 96" fill="none" xmlns="http://www.w3.org/2000/svg">
<path d="M48 0C60.6912 -1.51341e-07 72.8659 5.02613 81.8611 13.979C90.8562 22.9319 95.9397 35.0827 95.9995 47.7738C96.0593 60.4649 91.0906 72.6631 82.1802 81.7004C73.2698 90.7376 61.143 95.8783 48.4524 95.9979C35.7617 96.1175 23.5402 91.2063 14.4611 82.3386C5.38195 73.4709 0.184212 61.3685 0.00479889 48.6786C-0.174614 35.9886 4.6789 23.7441 13.5037 14.6233C22.3285 5.50245 34.4063 0.247738 47.0953 0.0085272L48 48V0Z" fill="url(#paint0_linear)"/>
<circle cx="48" cy="48" r="41" fill="white"/>
<path d="M23.64 48.16C22.5 48.16 21.74 47.62 21.74 46.32C21.74 44.88 22.68 44.26 23.68 44.26C24.68 44.26 25.66 44.9 25.98 46.9C25.26 47.8 24.4 48.16 23.64 48.16ZM23.3 55.24C26.1 55.24 28.76 53.1 28.76 48.36C28.76 43.9 26.24 42.06 23.62 42.06C21.18 42.06 19.06 43.68 19.06 46.32C19.06 49 20.78 50.24 23 50.24C23.94 50.24 25.14 49.72 26.06 48.84C25.94 51.84 24.58 52.86 23.04 52.86C22.2 52.86 21.32 52.44 20.8 51.96L19.24 53.72C20.12 54.52 21.5 55.24 23.3 55.24ZM35.6322 48.16C34.4922 48.16 33.7322 47.62 33.7322 46.32C33.7322 44.88 34.6722 44.26 35.6722 44.26C36.6722 44.26 37.6522 44.9 37.9722 46.9C37.2522 47.8 36.3922 48.16 35.6322 48.16ZM35.2922 55.24C38.0922 55.24 40.7522 53.1 40.7522 48.36C40.7522 43.9 38.2322 42.06 35.6122 42.06C33.1722 42.06 31.0522 43.68 31.0522 46.32C31.0522 49 32.7722 50.24 34.9922 50.24C35.9322 50.24 37.1322 49.72 38.0522 48.84C37.9322 51.84 36.5722 52.86 35.0322 52.86C34.1922 52.86 33.3122 52.44 32.7922 51.96L31.2322 53.72C32.1122 54.52 33.4922 55.24 35.2922 55.24ZM46.3644 59.34C49.1244 58.5 50.5644 56.68 50.5644 54.14C50.5644 51.98 49.7244 50.7 48.0844 50.7C46.8444 50.7 45.8444 51.52 45.8444 52.76C45.8444 54.08 46.8844 54.8 48.0044 54.8C48.0844 54.8 48.1444 54.8 48.2244 54.78C48.2644 56 47.4044 57 45.6244 57.62L46.3644 59.34ZM57.8366 55H60.7966C61.0366 50.04 61.5366 47.66 64.7566 44.1V42.3H55.2166V44.78H61.5966C58.9366 48.12 58.0766 50.76 57.8366 55ZM69.4288 48.76C71.1288 48.76 72.3888 47.44 72.3888 45.38C72.3888 43.3 71.1288 42.04 69.4288 42.04C67.7288 42.04 66.4688 43.3 66.4688 45.38C66.4688 47.44 67.7288 48.76 69.4288 48.76ZM69.4288 47.18C68.9288 47.18 68.4688 46.74 68.4688 45.38C68.4688 44.02 68.9288 43.62 69.4288 43.62C69.9288 43.62 70.3888 44.02 70.3888 45.38C70.3888 46.74 69.9288 47.18 69.4288 47.18ZM67.8288 54.44L71.0688 50.46L70.0488 49.52L66.3288 52.98L67.8288 54.44ZM73.9288 47.46L77.6488 43.98L76.1488 42.52L72.9088 46.5L73.9288 47.46ZM74.5088 55.24C76.2088 55.24 77.4688 53.92 77.4688 51.86C77.4688 49.78 76.2088 48.52 74.5088 48.52C72.8088 48.52 71.5488 49.78 71.5488 51.86C71.5488 53.92 72.8088 55.24 74.5088 55.24ZM74.5088 53.66C74.0088 53.66 73.5488 53.22 73.5488 51.86C73.5488 50.5 74.0088 50.1 74.5088 50.1C75.0088 50.1 75.4688 50.5 75.4688 51.86C75.4688 53.22 75.0088 53.66 74.5088 53.66Z" fill="#1A3157"/>
<defs>
<linearGradient id="paint0_linear" x1="48" y1="0" x2="48" y2="96" gradientUnits="userSpaceOnUse">
<stop stop-color="#FFE344"/>
<stop offset="1" stop-color="#FD602A"/>
</linearGradient>
</defs>
</svg>
