<svg width="60" height="60" viewBox="0 0 60 60" fill="none" xmlns="http://www.w3.org/2000/svg">
<g filter="url(#filter0_d)">
<circle cx="30" cy="26" r="26" fill="url(#paint0_linear)"/>
</g>
<g clip-path="url(#clip0)">
<path d="M35.0669 28.2086C38.548 23.2929 37.3837 16.4862 32.4681 13.0059C27.5524 9.52556 20.7456 10.689 17.2653 15.6055C13.785 20.5212 14.9484 27.3271 19.8649 30.8074C23.3735 33.2914 28.0123 33.4827 31.713 31.2972L39.7538 39.2899C40.622 40.2038 42.0666 40.2404 42.9805 39.3722C43.8944 38.5048 43.931 37.0603 43.0637 36.1464C43.0362 36.1173 43.0096 36.0906 42.9805 36.0632L35.0669 28.2086ZM26.1594 28.9537C22.275 28.9546 19.1256 25.8077 19.1231 21.9233C19.1223 18.0388 22.2691 14.8895 26.1544 14.8878C30.0339 14.8861 33.1816 18.028 33.1891 21.9075C33.1957 25.7928 30.0506 28.9471 26.1644 28.9537C26.1628 28.9537 26.1619 28.9537 26.1594 28.9537Z" fill="#424242"/>
</g>
<defs>
<filter id="filter0_d" x="0" y="0" width="60" height="60" filterUnits="userSpaceOnUse" color-interpolation-filters="sRGB">
<feFlood flood-opacity="0" result="BackgroundImageFix"/>
<feColorMatrix in="SourceAlpha" type="matrix" values="0 0 0 0 0 0 0 0 0 0 0 0 0 0 0 0 0 0 127 0"/>
<feOffset dy="4"/>
<feGaussianBlur stdDeviation="2"/>
<feColorMatrix type="matrix" values="0 0 0 0 0 0 0 0 0 0 0 0 0 0 0 0 0 0 0.25 0"/>
<feBlend mode="normal" in2="BackgroundImageFix" result="effect1_dropShadow"/>
<feBlend mode="normal" in="SourceGraphic" in2="effect1_dropShadow" result="shape"/>
</filter>
<linearGradient id="paint0_linear" x1="30" y1="0" x2="30" y2="52" gradientUnits="userSpaceOnUse">
<stop stop-color="white"/>
<stop offset="1" stop-color="#8186DF"/>
</linearGradient>
<clipPath id="clip0">
<rect x="15" y="11" width="29" height="29" fill="white"/>
</clipPath>
</defs>
</svg>
