<svg width="26" height="26" viewBox="0 0 26 26" fill="none" xmlns="http://www.w3.org/2000/svg">
<path d="M23.5165 20.6422C25.1272 18.4322 26 15.7729 26 12.9994C26 5.81485 20.1857 0 13 0C5.81505 0 0 5.81406 0 12.9994C0 15.7721 0.872406 18.4306 2.48213 20.6402C7.66856 13.5062 18.3227 13.4999 23.5165 20.6422ZM8.42969 7.66757C8.42969 5.14775 10.48 3.09746 13 3.09746C15.52 3.09746 17.5703 5.14775 17.5703 7.66757V9.19101C17.5703 11.711 15.52 13.7611 13 13.7611C10.48 13.7611 8.42969 11.711 8.42969 9.19101V7.66757Z" fill="white"/>
<path d="M13 12.2377C14.6801 12.2377 16.0469 10.8709 16.0469 9.19099V7.66756C16.0469 5.98761 14.6801 4.62088 13 4.62088C11.3199 4.62088 9.95312 5.98761 9.95312 7.66756V9.19099C9.95312 10.8709 11.3199 12.2377 13 12.2377Z" fill="white"/>
<path d="M3.49158 21.8627C8.63516 27.3776 17.3634 27.3818 22.5117 21.8589C17.9732 15.1155 8.05455 15.1463 3.49158 21.8627Z" fill="white"/>
</svg>
