<svg width="34" height="34" viewBox="0 0 34 34" fill="none" xmlns="http://www.w3.org/2000/svg">
<g clip-path="url(#clip0)">
<path d="M32.0954 0.21141C31.9696 0.0765225 31.7937 0 31.6093 0H10.3594C9.99283 0 9.6953 0.297271 9.6953 0.66406C9.6953 1.03085 9.99283 1.32812 10.3594 1.32812H30.8964L30.614 5.31274H3.38595L3.10346 1.32812H5.04714C5.41367 1.32812 5.7112 1.03085 5.7112 0.66406C5.7112 0.297271 5.41367 0 5.04714 0H2.39064C2.20646 0 2.03033 0.0765225 1.90478 0.21141C1.77923 0.346297 1.71516 0.527357 1.72839 0.711011L3.72057 28.801C3.73899 29.0625 3.90967 29.2887 4.15636 29.3782L16.7735 33.9602C16.8467 33.9866 16.9234 34.0001 17 34.0001C17.0767 34.0001 17.1535 33.9866 17.2267 33.9602L29.8438 29.3782C30.0905 29.2887 30.2612 29.0625 30.2796 28.801L32.2718 0.711011C32.2847 0.527098 32.2209 0.346297 32.0954 0.21141ZM28.9852 28.2768L17 32.6292L5.01471 28.2768L3.48037 6.64086H4.81186L4.86193 7.3485C4.88683 7.69843 5.17813 7.96561 5.52365 7.96561C5.53947 7.96561 5.5553 7.96509 5.57138 7.96405C5.93713 7.93811 6.21261 7.62035 6.18667 7.25459L6.14309 6.64086H27.8568L27.8132 7.25459C27.7873 7.62035 28.0628 7.93811 28.4288 7.96405C28.4446 7.96509 28.4607 7.96561 28.4765 7.96561C28.8218 7.96561 29.1133 7.69843 29.1382 7.3485L29.1883 6.64086H30.5198L28.9852 28.2768Z" fill="black"/>
<path d="M8.69424 26.787L7.44576 26.3338C7.10076 26.2085 6.71996 26.3865 6.59493 26.7312C6.46964 27.076 6.64759 27.457 6.99233 27.5821L8.24081 28.0355C8.31578 28.0627 8.3923 28.0757 8.46753 28.0757C8.73886 28.0757 8.99359 27.9079 9.09164 27.6381C9.21693 27.2931 9.03898 26.9123 8.69424 26.787Z" fill="black"/>
<path d="M6.69873 23.8615C7.06474 23.8356 7.34022 23.5181 7.31428 23.1521L7.22012 21.8273C7.19418 21.4613 6.87434 21.1858 6.51092 21.2118C6.14491 21.2377 5.86943 21.5555 5.89537 21.9212L5.98927 23.246C6.01417 23.5959 6.30574 23.8631 6.651 23.8631C6.66682 23.8631 6.68291 23.8626 6.69873 23.8615Z" fill="black"/>
<path d="M13.6878 28.6005L12.4393 28.147C12.0943 28.022 11.7135 28.2 11.5884 28.5447C11.4631 28.8894 11.6413 29.2702 11.9858 29.3955L13.2343 29.8487C13.309 29.8759 13.3856 29.8889 13.4608 29.8889C13.7324 29.8889 13.9871 29.7213 14.0852 29.4513C14.2104 29.1066 14.0325 28.7258 13.6878 28.6005Z" fill="black"/>
<path d="M6.32312 18.5623C6.68887 18.5363 6.96435 18.2188 6.93841 17.8528L6.84451 16.528C6.81857 16.162 6.49847 15.8863 6.13505 15.9125C5.7693 15.9384 5.49382 16.2562 5.51976 16.6219L5.61366 17.9467C5.6383 18.2966 5.92987 18.5638 6.27539 18.5638C6.29095 18.5641 6.30704 18.5633 6.32312 18.5623Z" fill="black"/>
<path d="M5.94702 13.2631C6.31303 13.2372 6.58852 12.9197 6.56258 12.5537L6.46841 11.2289C6.44247 10.8632 6.12393 10.5877 5.75921 10.6136C5.3932 10.6396 5.11772 10.9571 5.14366 11.3228L5.23782 12.6478C5.26246 12.9978 5.55403 13.265 5.89955 13.265C5.91511 13.265 5.9312 13.2644 5.94702 13.2631Z" fill="black"/>
<path d="M26.5542 26.3339L25.3059 26.7871C24.9612 26.9124 24.7832 27.2935 24.9083 27.6379C25.0063 27.908 25.2611 28.0755 25.5326 28.0755C25.6079 28.0755 25.6844 28.0628 25.7591 28.0356L27.0076 27.5822C27.3523 27.4569 27.5303 27.0761 27.405 26.7313C27.28 26.3866 26.8989 26.2084 26.5542 26.3339Z" fill="black"/>
<path d="M28.2411 10.6136C27.8759 10.5877 27.5576 10.8632 27.5316 11.2289L27.4375 12.5539C27.4115 12.9197 27.687 13.2372 28.053 13.2634C28.0689 13.2644 28.0849 13.265 28.1008 13.265C28.446 13.265 28.7376 12.9978 28.7625 12.6478L28.8564 11.3231C28.8823 10.9571 28.6069 10.6396 28.2411 10.6136Z" fill="black"/>
<path d="M27.865 15.9127C27.5013 15.8865 27.1817 16.1623 27.1558 16.528L27.0616 17.8528C27.0357 18.2188 27.3114 18.5363 27.6772 18.5622C27.6933 18.5635 27.7091 18.5641 27.7249 18.5641C28.0702 18.5641 28.3617 18.2966 28.3866 17.9469L28.4805 16.6219C28.5065 16.2562 28.231 15.9387 27.865 15.9127Z" fill="black"/>
<path d="M27.4893 21.2117C27.1253 21.1861 26.8058 21.4613 26.7798 21.8273L26.6859 23.1521C26.6597 23.5181 26.9355 23.8356 27.3012 23.8615C27.3173 23.8626 27.3331 23.8631 27.3489 23.8631C27.6942 23.8631 27.9858 23.5959 28.0107 23.246L28.1046 21.9212C28.1305 21.5554 27.855 21.2379 27.4893 21.2117Z" fill="black"/>
<path d="M21.5607 28.147L20.3122 28.6005C19.9678 28.7255 19.7896 29.1065 19.9148 29.4513C20.0129 29.7211 20.2676 29.8889 20.539 29.8889C20.6142 29.8889 20.691 29.8759 20.7657 29.8487L22.0139 29.3955C22.3586 29.2702 22.5369 28.8892 22.4116 28.5444C22.2863 28.1999 21.9055 28.0217 21.5607 28.147Z" fill="black"/>
<path d="M17 29.8453C16.6332 29.8453 16.3359 30.1426 16.3359 30.5094V30.5099C16.3359 30.8767 16.6332 31.1737 17 31.1737C17.3668 31.1737 17.6641 30.8762 17.6641 30.5094C17.6641 30.1426 17.3668 29.8453 17 29.8453Z" fill="black"/>
<path d="M7.70337 1.32812C8.07016 1.32812 8.36743 1.03085 8.36743 0.664062C8.36743 0.297272 8.07016 0 7.70337 0H7.70311C7.33632 0 7.03931 0.297272 7.03931 0.664062C7.03931 1.03085 7.33658 1.32812 7.70337 1.32812Z" fill="black"/>
</g>
<defs>
<clipPath id="clip0">
</clipPath>
</defs>
</svg>
