<?xml version="1.0" encoding="utf-8"?>
<!-- Generator: Adobe Illustrator 24.2.0, SVG Export Plug-In . SVG Version: 6.00 Build 0)  -->
<svg version="1.1" id="Capa_1" xmlns="http://www.w3.org/2000/svg" xmlns:xlink="http://www.w3.org/1999/xlink" x="0px" y="0px"
	 viewBox="0 0 146.2 146.2" style="enable-background:new 0 0 146.2 146.2;" xml:space="preserve">
<style type="text/css">
	.st0{fill:#FFFFFF;}
</style>
<g>
	<path class="st0" d="M81.6,133c-6.4,4.4-20,7.1-34.3,7c-22.8-0.3-37.2-7.2-37.2-11.9l0.2-13.1c8,5.5,22.6,8.4,37.2,8.6c0,0,0,0,0,0
		c1.7,0,3.1-1.4,3.1-3.1L51.1,82c0-0.8-0.3-1.6-0.9-2.2c-0.6-0.6-1.4-0.9-2.2-0.9C25.3,78.6,10.8,71.7,10.9,67l0.2-14
		c8,5.5,22.6,8.4,37.2,8.6c0.5,0,1,0,1.4,0c10.6,0,20.6-1.4,28.3-4.1c3.3-1.1,5.8-2.4,7.7-3.7l-0.3,27.7c0,1.7,1.4,3.1,3.1,3.2
		c0,0,0,0,0,0c1.7,0,3.1-1.4,3.1-3.1L92,44.4l0,0l0,0c0-3.6-2.2-8.7-12.5-12.9l0.2-18l0,0l0,0C79.9,4.9,64.4,0.2,49,0l-1,0
		C33.6,0,18.1,4,18,12.7l0,0l-0.2,18C9.6,33.9,5,38.3,4.9,43.3l0,0L4.6,66.9l0,0c0,0,0,0,0,0L3.9,128c-0.1,11.6,21.7,17.9,43.3,18.2
		c0.5,0,0.9,0,1.4,0c15.3,0,29.2-3.1,36.5-8.1c1.4-1,1.8-2.9,0.8-4.3C85,132.4,83.1,132,81.6,133z M44.9,85l-0.4,32.2
		c-21-0.8-34.1-7.4-34.1-11.8l0,0l0.4-28.9C18.2,81.6,31.3,84.5,44.9,85z M23.9,33.6c0.1-0.4,0.1-0.8,0-1.2L24.1,21
		c5.9,3.3,15.3,5.1,24.6,5.2l1,0c8.7,0,17.9-1.5,23.7-4.6l-0.2,13.7c0,2.1-8.4,6.8-24.8,6.6c-7.1-0.1-13.7-1.1-18.6-3
		c-4.4-1.6-6-3.5-6-4.2L23.9,33.6z M48,6.2l0.9,0c16.3,0.2,24.6,5.1,24.6,7.2c0,2-8.2,6.6-23.8,6.6l-0.9,0
		c-16.3-0.2-24.6-5.1-24.6-7.2C24.2,10.9,32.4,6.2,48,6.2z M18.2,37.3c1,2.5,3.5,5.2,9.6,7.5c5.6,2.1,12.9,3.3,20.7,3.4
		c0.3,0,0.6,0,1,0c13.4,0,26.7-3.4,29.5-10.2c5,2.3,6.9,4.8,6.9,6.3l0,0c0,1.8-2.6,4.7-9.9,7.2c-7.3,2.5-17.2,3.9-27.6,3.7
		C25.5,55,11.1,48.1,11.2,43.4C11.2,41.9,13.1,39.5,18.2,37.3z M138.6,79.4c1.2,1.2,1.2,3.2-0.1,4.4c-0.6,0.6-1.4,0.9-2.2,0.9
		c-0.8,0-1.6-0.3-2.2-0.9l-14.8-15.2l-39.8,38.9l14.8,15.2c1.2,1.2,1.2,3.2-0.1,4.4c-0.6,0.6-1.4,0.9-2.2,0.9
		c-0.8,0-1.6-0.3-2.2-0.9L55.9,92.2C54.7,91,54.7,89,56,87.8c1.2-1.2,3.2-1.2,4.4,0.1L75.2,103L115,64.2L100.2,49
		c-1.2-1.2-1.2-3.2,0.1-4.4c1.2-1.2,3.2-1.2,4.4,0.1L138.6,79.4z M80.4,129.6l-27.3-28c-1.2-1.2-1.2-3.2,0.1-4.4
		c1.2-1.2,3.2-1.2,4.4,0.1l27.3,27.9c1.2,1.2,1.2,3.2-0.1,4.4c-0.6,0.6-1.4,0.9-2.2,0.9C81.8,130.5,81,130.2,80.4,129.6z
		 M141.3,74.4c-0.6,0.6-1.4,0.9-2.2,0.9c-0.8,0-1.6-0.3-2.2-0.9l-27.3-28c-1.2-1.2-1.2-3.2,0.1-4.4c1.2-1.2,3.2-1.2,4.4,0.1l27.3,28
		C142.6,71.3,142.6,73.2,141.3,74.4z M59.4,111.4L70.7,123c1.2,1.2,1.2,3.2-0.1,4.4c-0.6,0.6-1.4,0.9-2.2,0.9
		c-0.8,0-1.6-0.3-2.2-0.9l-11.3-11.6c-1.2-1.2-1.2-3.2,0.1-4.4C56.2,110.2,58.2,110.2,59.4,111.4z M123.8,48.6
		c-1.2-1.2-1.2-3.2,0.1-4.4c1.2-1.2,3.2-1.2,4.4,0.1l11.3,11.6c1.2,1.2,1.2,3.2-0.1,4.4c-0.6,0.6-1.4,0.9-2.2,0.9
		c-0.8,0-1.6-0.3-2.2-0.9L123.8,48.6z"/>
</g>
</svg>
