<svg xmlns="http://www.w3.org/2000/svg" width="68" height="64.987" viewBox="0 0 68 64.987">
  <g id="Group_1551" data-name="Group 1551" transform="translate(-7.086 -6227.5)">
    <g id="Path_2617" data-name="Path 2617" transform="translate(29.367 6227.5)" fill="none">
      <path d="M11.719,0c6.472,0,11.719,14.548,11.719,32.494S18.191,64.987,11.719,64.987,0,50.44,0,32.494,5.247,0,11.719,0Z" stroke="none"/>
      <path d="M 11.71905136108398 3.999996185302734 C 11.53288650512695 3.999996185302734 10.9760627746582 4.2401123046875 10.20119285583496 5.148853302001953 C 9.457180976867676 6.021408081054688 8.331709861755371 7.722995758056641 7.195192337036133 10.8742561340332 C 6.206911087036133 13.6145133972168 5.426345825195313 16.83588790893555 4.875204086303711 20.44890213012695 C 4.294462203979492 24.25591278076172 4.000003814697266 28.30838394165039 4.000003814697266 32.49372482299805 C 4.000003814697266 36.6790657043457 4.294462203979492 40.73152542114258 4.875204086303711 44.53853607177734 C 5.426345825195313 48.15155029296875 6.206911087036133 51.3729248046875 7.195192337036133 54.11318206787109 C 8.331709861755371 57.26444244384766 9.457180976867676 58.96603012084961 10.20119285583496 59.83858489990234 C 10.9760627746582 60.7473258972168 11.53288650512695 60.98744201660156 11.71905136108398 60.98744201660156 C 11.90521621704102 60.98744201660156 12.46203994750977 60.7473258972168 13.23692226409912 59.83858489990234 C 13.98093414306641 58.96603012084961 15.1063928604126 57.26444244384766 16.24291038513184 54.11318206787109 C 17.23120498657227 51.3729248046875 18.01175689697266 48.15155029296875 18.56289863586426 44.53854751586914 C 19.14363861083984 40.73153686523438 19.4380989074707 36.6790657043457 19.4380989074707 32.49372482299805 C 19.4380989074707 28.30837249755859 19.14363861083984 24.25591278076172 18.56289863586426 20.44890213012695 C 18.01175689697266 16.83588790893555 17.23120498657227 13.6145133972168 16.24291038513184 10.8742561340332 C 15.1063928604126 7.722995758056641 13.98093414306641 6.021408081054688 13.23692226409912 5.148853302001953 C 12.46203994750977 4.2401123046875 11.90521621704102 3.999996185302734 11.71905136108398 3.999996185302734 M 11.71905136108398 -7.62939453125e-06 C 18.19131088256836 -7.62939453125e-06 23.4380989074707 14.54793548583984 23.4380989074707 32.49372482299805 C 23.4380989074707 50.43950271606445 18.19131088256836 64.98744201660156 11.71905136108398 64.98744201660156 C 5.246805191040039 64.98744201660156 3.814697265625e-06 50.43950271606445 3.814697265625e-06 32.49372482299805 C 3.814697265625e-06 14.54793548583984 5.246805191040039 -7.62939453125e-06 11.71905136108398 -7.62939453125e-06 Z" stroke="none" fill="#ffdb26"/>
    </g>
    <g id="Path_2618" data-name="Path 2618" transform="translate(63.367 6233.598) rotate(60)" fill="none">
      <path d="M11.719,0c6.472,0,11.719,14.548,11.719,32.494S18.191,64.987,11.719,64.987,0,50.44,0,32.494,5.247,0,11.719,0Z" stroke="none"/>
      <path d="M 11.71906089782715 4.000003814697266 C 11.53288459777832 4.000003814697266 10.97606086730957 4.240119934082031 10.20119094848633 5.148860931396484 C 9.457179069519043 6.021415710449219 8.331720352172852 7.723003387451172 7.195201873779297 10.87426376342773 C 6.2069091796875 13.61452102661133 5.42634391784668 16.83589553833008 4.875202178955078 20.44890975952148 C 4.294460296630859 24.25592041015625 4.000001907348633 28.30838012695313 4.000001907348633 32.49373245239258 C 4.000001907348633 36.67908477783203 4.294460296630859 40.73154449462891 4.875190734863281 44.53855514526367 C 5.42634391784668 48.15156555175781 6.20689582824707 51.37294387817383 7.1951904296875 54.11320495605469 C 8.331707954406738 57.26446151733398 9.45716667175293 58.96604919433594 10.20117855072021 59.83860397338867 C 10.97604942321777 60.74734497070313 11.53287315368652 60.98746109008789 11.71904945373535 60.98746109008789 C 11.90521430969238 60.98746109008789 12.46203804016113 60.74734497070313 13.23690795898438 59.83860397338867 C 13.98091983795166 58.96604919433594 15.10639095306396 57.26446151733398 16.2429084777832 54.11320495605469 C 17.2311897277832 51.37294387817383 18.01175498962402 48.15156555175781 18.56289672851563 44.53855514526367 C 19.14363861083984 40.73154449462891 19.43809700012207 36.67907333374023 19.43809700012207 32.49373245239258 C 19.43809700012207 28.30838012695313 19.14363861083984 24.25592041015625 18.56289672851563 20.44890975952148 C 18.01175498962402 16.83589553833008 17.23120307922363 13.61452102661133 16.2429084777832 10.87426376342773 C 15.10639095306396 7.723003387451172 13.98093223571777 6.021415710449219 13.23692035675049 5.148860931396484 C 12.46204948425293 4.240108489990234 11.90522575378418 4.000003814697266 11.71906089782715 4.000003814697266 M 11.71906089782715 0 C 18.19130897521973 0 23.43809700012207 14.54794311523438 23.43809700012207 32.49373245239258 C 23.43809700012207 50.43952178955078 18.1912956237793 64.98746490478516 11.71904945373535 64.98746490478516 C 5.246789932250977 64.98746490478516 -9.5367431640625e-06 50.43952178955078 1.9073486328125e-06 32.49373245239258 C 1.9073486328125e-06 14.54794311523438 5.246803283691406 0 11.71906089782715 0 Z" stroke="none" fill="#ffdb26"/>
    </g>
    <g id="Path_2619" data-name="Path 2619" transform="translate(75.086 6266.092) rotate(120)" fill="none">
      <path d="M11.719,0c6.472,0,11.719,14.548,11.719,32.494S18.191,64.987,11.719,64.987,0,50.44,0,32.494,5.247,0,11.719,0Z" stroke="none"/>
      <path d="M 11.71904945373535 4.000003814697266 C 11.53287315368652 4.000003814697266 10.97604942321777 4.240119934082031 10.20117855072021 5.148860931396484 C 9.45716667175293 6.021415710449219 8.331707954406738 7.723003387451172 7.1951904296875 10.87426376342773 C 6.20689582824707 13.61452102661133 5.42634391784668 16.83589553833008 4.875190734863281 20.44890975952148 C 4.294460296630859 24.25592041015625 4.000001907348633 28.30838012695313 4.000001907348633 32.49373245239258 C 4.000001907348633 36.67907333374023 4.294460296630859 40.73154449462891 4.875202178955078 44.53855514526367 C 5.42634391784668 48.15156555175781 6.2069091796875 51.37294387817383 7.195201873779297 54.11320495605469 C 8.331720352172852 57.26445007324219 9.457179069519043 58.96603775024414 10.20119094848633 59.83859252929688 C 10.97606086730957 60.74733352661133 11.53288459777832 60.98744964599609 11.71906089782715 60.98744964599609 C 11.90513134002686 60.98744964599609 12.46175575256348 60.74733352661133 13.23660278320313 59.83854293823242 C 13.980637550354 58.96590805053711 15.1061315536499 57.26419067382813 16.24270820617676 54.11277770996094 C 17.23104858398438 51.37241363525391 18.01165008544922 48.1510009765625 18.56282615661621 44.53804779052734 C 19.14361381530762 40.73106384277344 19.43809700012207 36.67876815795898 19.43809700012207 32.49373245239258 C 19.43809700012207 28.30839157104492 19.14363861083984 24.25592041015625 18.56289672851563 20.44890975952148 C 18.01175498962402 16.83589553833008 17.2311897277832 13.61452102661133 16.2429084777832 10.87426376342773 C 15.10639095306396 7.723003387451172 13.98091983795166 6.021415710449219 13.23690795898438 5.148860931396484 C 12.46203804016113 4.240119934082031 11.90521430969238 4.000003814697266 11.71904945373535 4.000003814697266 M 11.71904945373535 0 C 18.1912956237793 0 23.43809700012207 14.54794311523438 23.43809700012207 32.49373245239258 C 23.43809700012207 50.43842315673828 18.19077110290527 64.98744964599609 11.71905708312988 64.98744964599609 C 11.71866226196289 64.98744964599609 11.71944427490234 64.98744964599609 11.71904945373535 64.98744964599609 C 5.246803283691406 64.98744964599609 1.9073486328125e-06 50.43952178955078 1.9073486328125e-06 32.49373245239258 C -9.5367431640625e-06 14.54794311523438 5.246789932250977 0 11.71904945373535 0 Z" stroke="none" fill="#ffdb26"/>
    </g>
    <g id="Path_2620" data-name="Path 2620" transform="translate(37.89 6257.33)" fill="none">
      <path d="M3.2,0A3.2,3.2,0,1,1,0,3.2,3.2,3.2,0,0,1,3.2,0Z" stroke="none"/>
      <path d="M 3.196105241775513 3.337860107421875e-06 C 4.961265087127686 3.337860107421875e-06 6.392215251922607 1.430943489074707 6.392215251922607 3.196103572845459 C 6.392215251922607 4.961263656616211 4.961265087127686 6.392203807830811 3.196105241775513 6.392203807830811 C 1.43094539642334 6.392203807830811 -4.76837158203125e-06 4.961263656616211 -4.76837158203125e-06 3.196103572845459 C -4.76837158203125e-06 1.430943489074707 1.43094539642334 3.337860107421875e-06 3.196105241775513 3.337860107421875e-06 Z" stroke="none" fill="#ffdb26"/>
    </g>
  </g>
</svg>
