<svg xmlns="http://www.w3.org/2000/svg" width="56.875" height="65" viewBox="0 0 56.875 65">
  <path id="FontAwsome_hospital_" data-name="FontAwsome (hospital)" d="M16.25,30.977V25.9a1.524,1.524,0,0,1,1.523-1.523h5.078A1.524,1.524,0,0,1,24.375,25.9v5.078A1.524,1.524,0,0,1,22.852,32.5H17.773A1.524,1.524,0,0,1,16.25,30.977ZM34.023,32.5H39.1a1.524,1.524,0,0,0,1.523-1.523V25.9A1.524,1.524,0,0,0,39.1,24.375H34.023A1.524,1.524,0,0,0,32.5,25.9v5.078A1.524,1.524,0,0,0,34.023,32.5ZM24.375,43.164V38.086a1.524,1.524,0,0,0-1.523-1.523H17.773a1.524,1.524,0,0,0-1.523,1.523v5.078a1.524,1.524,0,0,0,1.523,1.523h5.078A1.524,1.524,0,0,0,24.375,43.164Zm9.648,1.523H39.1a1.524,1.524,0,0,0,1.523-1.523V38.086A1.524,1.524,0,0,0,39.1,36.562H34.023A1.524,1.524,0,0,0,32.5,38.086v5.078A1.524,1.524,0,0,0,34.023,44.688ZM56.875,60.43V65H0V60.43a1.524,1.524,0,0,1,1.523-1.523H4V10.8a2.877,2.877,0,0,1,3.047-2.67H18.281V3.047A3.047,3.047,0,0,1,21.328,0H35.547a3.047,3.047,0,0,1,3.047,3.047V8.125H49.829a2.877,2.877,0,0,1,3.047,2.67V58.906h2.476A1.524,1.524,0,0,1,56.875,60.43Zm-46.782-1.65H24.375V50.273A1.524,1.524,0,0,1,25.9,48.75h5.078A1.524,1.524,0,0,1,32.5,50.273v8.506H46.782V14.219H38.594v3.047a3.047,3.047,0,0,1-3.047,3.047H21.328a3.047,3.047,0,0,1-3.047-3.047V14.219H10.093ZM33.77,8.125h-3.3v-3.3a.762.762,0,0,0-.762-.762H27.168a.762.762,0,0,0-.762.762v3.3h-3.3a.762.762,0,0,0-.762.762v2.539a.762.762,0,0,0,.762.762h3.3v3.3a.762.762,0,0,0,.762.762h2.539a.762.762,0,0,0,.762-.762v-3.3h3.3a.762.762,0,0,0,.762-.762V8.887A.762.762,0,0,0,33.77,8.125Z" fill="#ffdb26"/>
</svg>
