<svg xmlns="http://www.w3.org/2000/svg" width="53.667" height="48.616" viewBox="0 0 53.667 48.616">
  <g id="Group_1489" data-name="Group 1489" transform="translate(-377.598 -412.799)">
    <path id="Path_658" data-name="Path 658" d="M420.968,468.193h-7.432a1.038,1.038,0,0,1-.879-.487l-2.719-4.372a22.148,22.148,0,0,1-6.927.265l-2.212,4.055a1.033,1.033,0,0,1-.909.539h-6.884a1.034,1.034,0,0,1-1.036-1.035v-4.326a6.066,6.066,0,0,0-1.514-4.674c-1.642-1.616-4.7-2.378-9.132-2.334a3.116,3.116,0,0,1-2.86-2.726l-.8-7.025a3.094,3.094,0,0,1,.609-2.67,2.38,2.38,0,0,1,1.836-.732l2.424,0c.937,0,1.147-1.177,1.167-1.31a19.192,19.192,0,0,1,7.179-11.109,68.813,68.813,0,0,0-4.9-4.851,1.852,1.852,0,0,1,1.308-3.2,33.552,33.552,0,0,1,13.043,3.841,1.036,1.036,0,0,1-.986,1.822,31.28,31.28,0,0,0-11.463-3.526,60.676,60.676,0,0,1,5.314,5.421,1.035,1.035,0,0,1-.2,1.52,17.256,17.256,0,0,0-7.255,10.465,3.359,3.359,0,0,1-3.2,3l-2.741.076a1.43,1.43,0,0,0-.074.985l.8,6.983v0c.006,0,.252.976.8.976,4.958-.111,8.548.9,10.6,2.928a8.049,8.049,0,0,1,2.132,6.15v3.291h5.234l2.265-4.152a1.021,1.021,0,0,1,1.1-.523,19.857,19.857,0,0,0,7.538-.292,1.026,1.026,0,0,1,1.127.457l2.8,4.508h5.821v-5.363c0-2.729,1.4-5.157,2.872-7.728a34.36,34.36,0,0,0,2.258-4.41,1.036,1.036,0,1,1,1.927.76,35.859,35.859,0,0,1-2.389,4.683c-1.335,2.323-2.6,4.519-2.6,6.7v6.4A1.034,1.034,0,0,1,420.968,468.193Z" transform="translate(0 -6.778)" fill="#fff"/>
    <path id="Path_659" data-name="Path 659" d="M423.458,487.521a3.044,3.044,0,1,1,3.047-3.043A3.047,3.047,0,0,1,423.458,487.521Zm0-4.019a.975.975,0,1,0,.975.976A.988.988,0,0,0,423.458,483.5Z" transform="translate(-30.881 -49.502)" fill="#fff"/>
    <path id="Path_660" data-name="Path 660" d="M478.49,442.406a14.8,14.8,0,1,1,14.865-14.8A14.82,14.82,0,0,1,478.49,442.406Zm0-27.537A12.734,12.734,0,1,0,491.284,427.6,12.748,12.748,0,0,0,478.49,414.868Z" transform="translate(-62.091)" fill="#fff"/>
    <path id="Path_661" data-name="Path 661" d="M3.248-1.68,7.084-6.216V-7.532H.588v1.68H4.326L.49-1.316V0H7.21V-1.68Zm9.3-4.55-.8-1.12-.77.574v-3.612H8.792v5.264L7.21-3.934l.812,1.092.77-.574V0h2.184V-5.054Z" transform="translate(409.598 431.536)" fill="#fff"/>
  </g>
</svg>
