<svg xmlns="http://www.w3.org/2000/svg" width="47.5" height="47.534" viewBox="0 0 47.5 47.534">
  <g id="Group_1490" data-name="Group 1490" transform="translate(-91.418 -891.34)">
    <path id="Path_662" data-name="Path 662" d="M148.912,978.771a.964.964,0,1,0,1.518-1.188,21.125,21.125,0,0,0-4.26-4.081.963.963,0,0,0-1.457.494,25.619,25.619,0,0,0-1.667,8.822,9.012,9.012,0,0,0,4.6,7.706.964.964,0,0,0,.99-1.654c-4.753-2.845-4.078-7.879-2.512-12.964A19.583,19.583,0,0,1,148.912,978.771Z" transform="translate(-40.324 -64.061)" fill="#fff"/>
    <path id="Path_663" data-name="Path 663" d="M174.413,971.578a.964.964,0,1,0,.156,1.921c6.838-.557,12.015-4.665,14.969-11.88a34.231,34.231,0,0,0,2.391-10.653.963.963,0,0,0-1.2-.968c-5.459,1.359-11.055,3.08-15,6.435a13.949,13.949,0,0,0-4.424,6.582,19,19,0,0,0-.034,9.789.959.959,0,0,0,.94.75h.025a.966.966,0,0,0,.924-.8,16.907,16.907,0,0,1,5.618-10.1,16.157,16.157,0,0,1,4.364-2.774.964.964,0,0,0-.666-1.808,17.489,17.489,0,0,0-4.924,3.094,19.035,19.035,0,0,0-4.971,6.795,12.281,12.281,0,0,1,4.935-10.49c3.4-2.658,8.121-4.163,12.374-5.271a33.277,33.277,0,0,1-2.155,8.719C185.042,967.492,180.557,971.078,174.413,971.578Z" transform="translate(-61.909 -45.806)" fill="#fff"/>
    <path id="Path_664" data-name="Path 664" d="M99.92,899.86a21.564,21.564,0,0,1,28.368-1.867h-3.752a1.094,1.094,0,1,0,0,2.187h6.653a1.094,1.094,0,0,0,1.094-1.094v-6.652a1.094,1.094,0,0,0-2.187,0v4.2a23.753,23.753,0,0,0-34.311,32.205,1.093,1.093,0,1,0,1.783-1.266A21.494,21.494,0,0,1,99.92,899.86Z" transform="translate(0 0)" fill="#fff"/>
    <path id="Path_665" data-name="Path 665" d="M158.253,935.577a1.093,1.093,0,0,0-1.783,1.266,21.564,21.564,0,0,1-30.714,29.579H129.5a1.094,1.094,0,1,0,0-2.187h-6.652a1.094,1.094,0,0,0-1.094,1.094v6.653a1.094,1.094,0,0,0,2.187,0v-4.2a23.754,23.754,0,0,0,34.311-32.207Z" transform="translate(-23.702 -34.201)" fill="#fff"/>
  </g>
</svg>
