<svg width="98" height="98" viewBox="0 0 98 98" fill="none" xmlns="http://www.w3.org/2000/svg">
<rect y="48.9519" width="69.2284" height="69.2284" rx="34.6142" transform="rotate(-45 0 48.9519)" fill="#274CCF"/>
<path d="M61.2494 56.0105C60.3453 56.0105 59.4865 56.3755 58.8385 57.0356C58.1906 57.7035 57.829 58.5732 57.829 59.5051C57.829 60.437 58.1831 61.3068 58.8385 61.9747C59.494 62.6348 60.3453 62.9998 61.2494 62.9998C63.1028 62.9998 64.6097 61.4311 64.6097 59.5051C64.6097 57.5792 63.1028 56.0105 61.2494 56.0105ZM61.2494 61.4466C60.2097 61.4466 59.3358 60.5613 59.3358 59.5051C59.3358 58.449 60.2097 57.5637 61.2494 57.5637C62.2741 57.5637 63.1028 58.4334 63.1028 59.5051C63.1028 60.5768 62.2741 61.4466 61.2494 61.4466ZM62.1234 44.3695C61.9878 44.2375 61.807 44.1676 61.6186 44.1676H57.7536C57.3392 44.1676 57.0002 44.5171 57.0002 44.9442V51.3122C57.0002 51.7393 57.3392 52.0888 57.7536 52.0888H63.8864C64.3008 52.0888 64.6398 51.7393 64.6398 51.3122V47.0487C64.6398 46.8313 64.5494 46.6216 64.3912 46.4741L62.1234 44.3695ZM63.133 50.5356H58.507V45.713H61.3248L63.133 47.3904V50.5356ZM42.8512 56.0105C41.9471 56.0105 41.0882 56.3755 40.4402 57.0356C39.7923 57.7035 39.4307 58.5732 39.4307 59.5051C39.4307 60.437 39.7848 61.3068 40.4402 61.9747C41.0957 62.6348 41.9471 62.9998 42.8512 62.9998C44.7045 62.9998 46.2114 61.4311 46.2114 59.5051C46.2114 57.5792 44.7045 56.0105 42.8512 56.0105ZM42.8512 61.4466C41.8114 61.4466 40.9375 60.5613 40.9375 59.5051C40.9375 58.449 41.8114 57.5637 42.8512 57.5637C43.8758 57.5637 44.7045 58.4334 44.7045 59.5051C44.7045 60.5768 43.8758 61.4466 42.8512 61.4466ZM37.8259 56.9657H36.3115V54.9C36.3115 54.4729 35.9725 54.1234 35.5581 54.1234C35.1438 54.1234 34.8047 54.4729 34.8047 54.9V57.7423C34.8047 58.1694 35.1438 58.5189 35.5581 58.5189H37.8259C38.2403 58.5189 38.5793 58.1694 38.5793 57.7423C38.5793 57.3152 38.2403 56.9657 37.8259 56.9657ZM41.6457 52.7333C41.6457 52.3062 41.3067 51.9567 40.8923 51.9567H31.7534C31.339 51.9567 31 52.3062 31 52.7333C31 53.1604 31.339 53.5099 31.7534 53.5099H40.8923C41.3067 53.5099 41.6457 53.1682 41.6457 52.7333ZM33.2828 49.9299L42.4217 49.9842C42.8361 49.9842 43.1751 49.6425 43.1827 49.2154C43.1902 48.7805 42.8512 48.4311 42.4368 48.4311L33.2979 48.3767C33.2904 48.3767 33.2904 48.3767 33.2904 48.3767C32.876 48.3767 32.537 48.7184 32.537 49.1455C32.5294 49.5804 32.8685 49.9299 33.2828 49.9299ZM34.8198 46.4042H43.9587C44.373 46.4042 44.7121 46.0547 44.7121 45.6276C44.7121 45.2005 44.373 44.851 43.9587 44.851H34.8198C34.4054 44.851 34.0664 45.2005 34.0664 45.6276C34.0664 46.0547 34.4054 46.4042 34.8198 46.4042ZM67.7212 45.3558L62.3268 40.7507C62.1912 40.6342 62.0255 40.572 61.8446 40.572H55.5009V37.7763C55.5009 37.3492 55.1619 36.9998 54.7475 36.9998H35.5581C35.1438 36.9998 34.8047 37.3492 34.8047 37.7763V43.4609C34.8047 43.888 35.1438 44.2375 35.5581 44.2375C35.9725 44.2375 36.3115 43.888 36.3115 43.4609V38.5529H54.0016V56.9657H47.8237C47.4093 56.9657 47.0703 57.3152 47.0703 57.7423C47.0703 58.1694 47.4093 58.5189 47.8237 58.5189H57.0228C57.4372 58.5189 57.7762 58.1694 57.7762 57.7423C57.7762 57.3152 57.4372 56.9657 57.0228 56.9657H55.5084V42.1252H61.5809L66.4932 46.3188L66.4404 56.9502H65.6569C65.2425 56.9502 64.9035 57.2996 64.9035 57.7268C64.9035 58.1539 65.2425 58.5033 65.6569 58.5033H67.1863C67.6007 58.5033 67.9397 58.1616 67.9397 57.7345L68 45.9615C67.9925 45.7285 67.8945 45.5033 67.7212 45.3558Z" fill="white"/>
</svg>
