<svg width="123" height="39" viewBox="0 0 123 39" fill="none" xmlns="http://www.w3.org/2000/svg">
<path d="M0.932 27.336C0.316 26.1787 0.00799998 24.816 0.00799998 23.248C0.00799998 21.792 0.250667 20.4947 0.736 19.356C1.24 18.1987 1.78133 17.2747 2.36 16.584C2.95733 15.8747 3.676 15.3147 4.516 14.904C5.37467 14.4747 6.28 14.26 7.232 14.26C8.576 14.26 9.64933 14.6427 10.452 15.408L14.12 12.328C14.0453 11.6747 14.008 11.0307 14.008 10.396C14.008 6.252 15.1 4.18 17.284 4.18C17.844 4.18 18.2827 4.376 18.6 4.768C18.9173 5.16 19.0947 5.664 19.132 6.28C19.1507 7.176 18.8613 8.072 18.264 8.968C17.6853 9.864 16.8267 10.844 15.688 11.908C16.2667 15.772 16.556 18.404 16.556 19.804C16.556 21.1853 16.3787 22.5293 16.024 23.836C15.6693 25.124 15.128 26.3 14.4 27.364C13.672 28.428 12.6733 29.2587 11.404 29.856C10.1347 30.4533 8.66 30.752 6.98 30.752C4.572 30.752 2.752 29.9307 1.52 28.288C1.184 29.464 1.016 30.7987 1.016 32.292C1.016 33.804 1.408 35.1573 2.192 36.352C2.99467 37.5653 4.02133 38.172 5.272 38.172C5.36533 38.172 5.412 38.2653 5.412 38.452C5.43067 38.6387 5.384 38.732 5.272 38.732C3.79733 38.732 2.584 38.032 1.632 36.632C0.68 35.2507 0.204 33.7107 0.204 32.012C0.204 30.3133 0.446667 28.7547 0.932 27.336ZM10.928 15.94C11.4507 16.6493 11.712 17.452 11.712 18.348C11.712 19.2253 11.572 20.0187 11.292 20.728C11.0307 21.4187 10.5547 22.0347 9.864 22.576C9.192 23.0987 8.408 23.36 7.512 23.36C7.32533 23.36 7.176 23.3133 7.064 23.22C6.97067 23.1267 6.90533 22.9773 6.868 22.772C7.67067 22.772 8.408 22.3987 9.08 21.652C10.0507 20.6067 10.536 19.4307 10.536 18.124C10.536 17.5827 10.4333 17.06 10.228 16.556C8.13733 18.348 6.37333 20.1027 4.936 21.82C3.49867 23.5373 2.444 25.404 1.772 27.42C2.836 29.1373 4.50667 29.996 6.784 29.996C8.184 29.996 9.40667 29.6973 10.452 29.1C11.516 28.5213 12.3467 27.728 12.944 26.72C14.12 24.7413 14.708 22.3427 14.708 19.524C14.708 18.8333 14.54 16.7333 14.204 13.224L10.928 15.94ZM9.808 15.968C9.21067 15.3333 8.38933 15.016 7.344 15.016C6.29867 15.016 5.356 15.268 4.516 15.772C2.96667 16.7053 1.856 18.2733 1.184 20.476C0.885333 21.4093 0.736 22.3707 0.736 23.36C0.736 24.4613 0.913333 25.4787 1.268 26.412C2.556 23.1827 5.40267 19.7013 9.808 15.968ZM15.436 8.968C15.436 9.472 15.4827 10.144 15.576 10.984C17.424 9.17333 18.348 7.64267 18.348 6.392C18.348 5.42133 17.9933 4.936 17.284 4.936C16.052 4.936 15.436 6.28 15.436 8.968ZM23.5292 10.228C23.9585 10.228 24.1732 10.5173 24.1732 11.096C24.1732 11.6747 23.8932 12.1413 23.3332 12.496C23.0532 12.6827 22.8105 12.776 22.6052 12.776C22.3065 12.776 22.1292 12.6827 22.0732 12.496L22.0452 12.412C22.2132 12.412 22.3345 12.2347 22.4092 11.88C22.4839 11.5067 22.5959 11.1427 22.7452 10.788C22.9132 10.4147 23.1745 10.228 23.5292 10.228ZM21.7372 26.328C22.2225 26.328 22.9039 25.684 23.7812 24.396C24.6585 23.108 25.4145 21.82 26.0492 20.532L27.0012 18.6H27.7572C27.6452 18.824 27.4959 19.132 27.3092 19.524C27.1412 19.8973 26.7959 20.5787 26.2732 21.568C25.7505 22.5387 25.2465 23.3973 24.7612 24.144C24.2945 24.8907 23.7625 25.572 23.1652 26.188C22.5865 26.7853 22.0825 27.084 21.6532 27.084C20.2719 27.084 19.5812 26.188 19.5812 24.396C19.5812 23.052 19.9639 20.868 20.7292 17.844C20.8039 17.5267 20.8599 17.284 20.8972 17.116C20.9532 16.948 21.0092 16.7333 21.0652 16.472C21.1212 16.192 21.1772 15.94 21.2332 15.716C21.3265 15.324 21.4945 15.128 21.7372 15.128C22.0732 15.128 22.3159 15.3707 22.4652 15.856C22.5399 16.08 22.5772 16.3507 22.5772 16.668C22.5772 16.9853 22.5399 17.3213 22.4652 17.676C22.3905 18.012 22.2692 18.516 22.1012 19.188C21.9332 19.86 21.8025 20.4107 21.7092 20.84C21.6159 21.2693 21.5132 21.792 21.4012 22.408C21.1959 23.4347 21.0932 24.3493 21.0932 25.152C21.0932 25.936 21.3079 26.328 21.7372 26.328ZM33.091 9.444C33.763 7.68933 34.099 6.49467 34.099 5.86C34.099 5.22533 33.9403 4.88933 33.623 4.852C32.7457 4.852 31.831 6.26133 30.879 9.08C29.9457 11.88 29.2083 14.792 28.667 17.816C28.1443 20.8213 27.883 22.9493 27.883 24.2C27.883 26.3093 28.4057 27.364 29.451 27.364C29.451 27.4947 29.367 27.6253 29.199 27.756C29.031 27.8867 28.835 27.952 28.611 27.952C27.0803 27.952 26.315 26.58 26.315 23.836C26.315 22.828 26.5017 21.288 26.875 19.216C27.2483 17.1253 27.7337 14.9413 28.331 12.664C28.9283 10.3867 29.703 8.408 30.655 6.728C31.607 5.02933 32.5777 4.18 33.567 4.18C34.351 4.18 34.743 4.67467 34.743 5.664C34.743 6.41067 34.5097 7.456 34.043 8.8C33.147 11.4133 31.859 14.0267 30.179 16.64C29.731 17.3307 29.3297 17.8907 28.975 18.32C28.8817 18.432 28.835 18.3947 28.835 18.208C28.8163 17.8533 28.9003 17.5453 29.087 17.284C30.6177 14.988 31.9523 12.3747 33.091 9.444ZM39.3298 14.596C40.1325 14.596 40.5338 15.3707 40.5338 16.92C40.5338 17.2 40.5152 17.4893 40.4778 17.788C40.7952 17.8813 41.1592 17.928 41.5698 17.928C41.9805 17.928 42.3538 17.7507 42.6898 17.396C43.0258 17.0413 43.1938 16.7147 43.1938 16.416C43.1938 16.3413 43.2405 16.2947 43.3338 16.276C43.4272 16.2387 43.5112 16.2387 43.5858 16.276C43.6792 16.3133 43.7258 16.3693 43.7258 16.444C43.7258 16.9853 43.4925 17.4987 43.0258 17.984C42.5778 18.4693 41.9712 18.712 41.2058 18.712C40.9072 18.712 40.6365 18.684 40.3938 18.628C39.9085 21.6147 38.9378 23.9573 37.4818 25.656C36.7165 26.552 35.9698 27 35.2418 27C33.8978 27 33.0765 26.552 32.7778 25.656C32.6098 25.1707 32.5258 24.6573 32.5258 24.116C32.5258 23.5747 32.6005 22.9307 32.7498 22.184C32.9925 20.9707 33.4965 19.02 34.2618 16.332C34.3738 15.94 34.5512 15.744 34.7938 15.744C35.1298 15.744 35.3725 15.9867 35.5218 16.472C35.5965 16.6773 35.6338 16.9387 35.6338 17.256C35.6338 17.5547 35.5778 17.9187 35.4658 18.348C34.7565 21.0173 34.3552 22.632 34.2618 23.192C34.1685 23.7333 34.1218 24.2 34.1218 24.592C34.1218 25.6933 34.4672 26.244 35.1578 26.244C36.1658 26.244 37.0992 25.404 37.9578 23.724C38.8352 22.044 39.4325 20.2613 39.7498 18.376C39.1898 18.0773 38.8165 17.6853 38.6298 17.2C38.4618 16.696 38.3778 16.3133 38.3778 16.052C38.3778 15.772 38.4152 15.5293 38.4898 15.324C38.6392 14.8387 38.9192 14.596 39.3298 14.596ZM44.4412 22.912C44.4412 25.1707 45.2439 26.3 46.8492 26.3C47.4465 26.3 48.0719 26.0387 48.7252 25.516C49.3972 24.9747 50.0039 24.3307 50.5452 23.584C51.7399 21.8667 52.5799 20.4667 53.0652 19.384L53.4292 18.6H54.1852C53.8679 19.3467 53.4012 20.2707 52.7852 21.372C52.1692 22.4547 51.5812 23.3693 51.0212 24.116C50.4612 24.8627 49.7985 25.544 49.0332 26.16C48.2679 26.7573 47.5399 27.056 46.8492 27.056C44.0865 27.056 42.7052 25.5067 42.7052 22.408C42.7052 20.9707 43.1252 19.5333 43.9652 18.096C45.1225 16.0987 46.5505 15.1 48.2492 15.1C49.4439 15.1 50.0412 15.7533 50.0412 17.06C50.0412 18.0307 49.6679 19.0387 48.9212 20.084C47.8759 21.5027 46.6532 22.2213 45.2532 22.24C45.0479 22.24 44.9172 22.1467 44.8612 21.96L44.8332 21.848C45.8039 21.848 46.7279 21.2133 47.6052 19.944C48.5012 18.656 48.9492 17.5827 48.9492 16.724C48.9492 16.1453 48.7252 15.856 48.2772 15.856C47.2879 15.856 46.3639 16.724 45.5052 18.46C44.7959 19.9347 44.4412 21.4187 44.4412 22.912ZM53.0221 27C52.4994 27 52.2381 26.5987 52.2381 25.796C52.2381 25.3667 52.7607 22.24 53.8061 16.416C53.8807 16.024 54.0487 15.828 54.3101 15.828C54.6461 15.828 54.8981 16.0707 55.0661 16.556C55.1594 16.8173 55.2061 17.1067 55.2061 17.424C55.2061 17.7227 55.1687 18.0493 55.0941 18.404L54.6461 20.7H54.7861C56.3914 16.9667 57.8661 15.1 59.2101 15.1C59.9567 15.1 60.4514 15.464 60.6941 16.192C60.7874 16.472 60.8341 16.7987 60.8341 17.172C60.8341 17.5267 60.7314 17.9187 60.5261 18.348C60.1714 19.076 59.6394 19.44 58.9301 19.44C58.7807 19.44 58.6594 19.4027 58.5661 19.328C58.4914 19.2533 58.4447 19.1507 58.4261 19.02C58.5754 19.02 58.7714 18.7493 59.0141 18.208C59.2567 17.648 59.3967 17.1347 59.4341 16.668C59.4714 16.2013 59.3127 15.9307 58.9581 15.856C58.3047 15.856 57.5301 16.7053 56.6341 18.404C55.7381 20.1027 55.0194 21.7267 54.4781 23.276C53.9367 24.8253 53.6194 25.8333 53.5261 26.3C53.4327 26.7667 53.2647 27 53.0221 27ZM75.9417 1.408C74.523 1.408 73.2444 1.744 72.1057 2.416C69.9964 3.68533 68.755 5.68267 68.3817 8.408C68.3257 8.83733 68.2977 9.36 68.2977 9.976C68.2977 10.592 68.4097 11.2827 68.6337 12.048C68.951 13.1867 69.5764 14.2133 70.5097 15.128C71.4244 16.0427 72.5724 16.668 73.9537 17.004C74.5324 14.876 75.4097 12.888 76.5857 11.04C77.7617 9.17333 79.2457 7.624 81.0377 6.392C82.8297 5.14133 84.715 4.516 86.6937 4.516C88.411 4.516 89.4564 5.20667 89.8297 6.588C89.9417 6.94267 89.9977 7.316 89.9977 7.708C89.9977 8.84667 89.5684 10.1067 88.7097 11.488C87.3657 13.7093 85.4057 15.3987 82.8297 16.556C80.8137 17.4707 78.639 17.928 76.3057 17.928H75.7457C75.3537 19.3093 75.1577 20.644 75.1577 21.932C75.1577 24.3587 75.7737 26.0387 77.0057 26.972C77.1737 25.4413 77.5657 24.004 78.1817 22.66C78.7977 21.316 79.647 20.1867 80.7297 19.272C81.831 18.3573 83.0444 17.9 84.3697 17.9C85.9004 17.9 86.8524 18.5813 87.2257 19.944C87.319 20.3173 87.3657 20.7 87.3657 21.092C87.3657 22.1187 87.039 23.22 86.3857 24.396C85.359 26.2067 83.931 27.4387 82.1017 28.092C80.7764 28.54 79.4604 28.6147 78.1537 28.316C78.135 28.5587 78.1257 28.8013 78.1257 29.044C78.1257 30.4067 78.415 31.5547 78.9937 32.488C79.647 33.5893 80.711 34.14 82.1857 34.14C82.1297 34.4947 81.8217 34.672 81.2617 34.672C79.7684 34.672 78.667 34.056 77.9577 32.824C77.267 31.592 76.9217 30.136 76.9217 28.456C76.9217 28.2693 76.9217 28.092 76.9217 27.924C75.3164 27.2333 74.2524 25.908 73.7297 23.948C73.4684 23.0147 73.3377 22.0253 73.3377 20.98C73.3377 19.9347 73.487 18.824 73.7857 17.648C72.479 17.3493 71.3497 16.808 70.3977 16.024C69.4457 15.24 68.7644 14.344 68.3537 13.336C67.8124 12.0107 67.5417 10.788 67.5417 9.668C67.5417 8.548 67.719 7.49333 68.0737 6.504C68.4284 5.51467 68.9417 4.58133 69.6137 3.704C70.267 2.808 71.1537 2.08933 72.2737 1.548C73.3937 0.988001 74.6257 0.708001 75.9697 0.708001C78.6204 0.708001 80.431 1.73467 81.4017 3.788C81.5137 4.012 81.383 4.16133 81.0097 4.236C80.5617 4.27333 80.2817 4.17067 80.1697 3.928C79.6097 2.248 78.2004 1.408 75.9417 1.408ZM86.3297 5.244C85.2657 5.244 84.183 5.59867 83.0817 6.308C81.999 6.99867 81.0097 7.91333 80.1137 9.052C78.2097 11.4787 76.819 14.2133 75.9417 17.256H76.3337C79.9924 17.256 83.0724 16.0893 85.5737 13.756C87.235 12.2067 88.2524 10.536 88.6257 8.744C88.7004 8.352 88.7377 7.99733 88.7377 7.68C88.7377 6.70933 88.383 6.00933 87.6737 5.58C87.319 5.356 86.871 5.244 86.3297 5.244ZM84.6217 18.656C83.1097 18.656 81.7284 19.58 80.4777 21.428C79.2457 23.276 78.4897 25.3293 78.2097 27.588C78.695 27.7373 79.2084 27.812 79.7497 27.812C81.803 27.812 83.5297 26.916 84.9297 25.124C86.031 23.7427 86.5817 22.38 86.5817 21.036C86.5817 19.692 86.0964 18.9173 85.1257 18.712C84.9764 18.6747 84.8084 18.656 84.6217 18.656ZM91.3481 23.304C91.3481 25.264 91.8708 26.244 92.9161 26.244C93.6254 26.244 94.2881 25.8053 94.9041 24.928C96.0801 23.2853 96.7988 21.12 97.0601 18.432C96.4068 18.152 95.9494 17.6947 95.6881 17.06C95.5201 16.668 95.4361 16.3413 95.4361 16.08C95.4361 15.8 95.4734 15.5573 95.5481 15.352C95.7161 14.848 96.0241 14.596 96.4721 14.596C96.9201 14.596 97.2561 14.8853 97.4801 15.464C97.7228 16.024 97.8441 16.7427 97.8441 17.62C97.8441 17.676 97.8441 17.7413 97.8441 17.816C98.0681 17.8907 98.3948 17.928 98.8241 17.928C99.2721 17.928 99.6641 17.7507 100 17.396C100.336 17.0413 100.504 16.7147 100.504 16.416C100.504 16.3413 100.551 16.2947 100.644 16.276C100.737 16.2387 100.821 16.2387 100.896 16.276C100.989 16.3133 101.036 16.3693 101.036 16.444C101.036 16.9853 100.803 17.4987 100.336 17.984C99.8881 18.4693 99.2814 18.712 98.5161 18.712C98.3294 18.712 98.0868 18.6933 97.7881 18.656C97.6761 19.9253 97.4054 21.1853 96.9761 22.436C96.5654 23.668 95.9868 24.7413 95.2401 25.656C94.4934 26.552 93.6908 27 92.8321 27C91.2081 27 90.2094 26.132 89.8361 24.396C89.7428 23.892 89.6961 23.3787 89.6961 22.856C89.6961 21.68 89.9668 20.42 90.5081 19.076C91.2174 17.3213 92.0948 16.2293 93.1401 15.8C93.6814 15.6133 94.0548 15.5853 94.2601 15.716C94.4654 15.8467 94.5961 15.996 94.6521 16.164C93.7934 16.164 93.0281 16.9667 92.3561 18.572C91.6841 20.1773 91.3481 21.7547 91.3481 23.304ZM102.494 27.028C101.019 27.028 100.282 25.9173 100.282 23.696C100.282 22.408 100.618 20.9987 101.29 19.468C102.223 17.396 103.409 16.0427 104.846 15.408C105.35 15.2027 105.854 15.1 106.358 15.1C106.881 15.1 107.291 15.2493 107.59 15.548C107.889 15.8467 108.038 16.1827 108.038 16.556C108.038 16.724 107.945 16.808 107.758 16.808C107.59 16.7893 107.506 16.696 107.506 16.528C107.506 16.36 107.413 16.2107 107.226 16.08C107.058 15.9307 106.806 15.856 106.47 15.856C105.294 15.856 104.23 16.9107 103.278 19.02C102.382 20.98 101.934 22.8373 101.934 24.592C101.934 25.6747 102.167 26.216 102.634 26.216C103.119 26.216 103.698 25.8147 104.37 25.012C105.061 24.1907 105.695 23.2387 106.274 22.156C107.525 19.8787 108.262 18.4133 108.486 17.76C108.71 17.1067 108.953 16.78 109.214 16.78C109.681 16.78 109.914 17.172 109.914 17.956C109.914 18.1987 109.886 18.4787 109.83 18.796C109.214 21.7827 108.878 23.5093 108.822 23.976C108.785 24.4427 108.766 24.7787 108.766 24.984C108.766 25.88 108.981 26.328 109.41 26.328C109.895 26.328 110.577 25.684 111.454 24.396C112.331 23.108 113.087 21.82 113.722 20.532L114.674 18.6H115.43C115.318 18.824 115.169 19.132 114.982 19.524C114.814 19.8973 114.469 20.5787 113.946 21.568C113.423 22.5387 112.919 23.3973 112.434 24.144C111.967 24.8907 111.435 25.572 110.838 26.188C110.259 26.7853 109.755 27.084 109.326 27.084C107.945 27.084 107.254 26.076 107.254 24.06C107.254 23.388 107.329 22.604 107.478 21.708H107.282C105.378 25.2547 103.782 27.028 102.494 27.028ZM113.846 14.764C113.846 14.5587 113.977 14.456 114.238 14.456H115.694C115.787 14.0827 115.909 13.616 116.058 13.056L116.45 11.6C116.562 11.1707 116.655 10.7787 116.73 10.424C116.823 10.0693 116.991 9.892 117.234 9.892C117.551 9.892 117.775 10.1347 117.906 10.62C117.962 10.8253 117.99 11.0773 117.99 11.376C117.99 11.6747 117.934 12.0573 117.822 12.524L117.29 14.456H119.026C119.194 14.456 119.306 14.512 119.362 14.624C119.437 14.736 119.437 14.848 119.362 14.96C119.306 15.0533 119.194 15.1 119.026 15.1H117.122C115.965 19.4493 115.386 22.5293 115.386 24.34C115.386 25.6653 115.685 26.328 116.282 26.328C116.767 26.328 117.449 25.684 118.326 24.396C119.203 23.108 119.959 21.82 120.594 20.532L121.546 18.6H122.302C122.19 18.824 122.041 19.132 121.854 19.524C121.686 19.8973 121.341 20.5787 120.818 21.568C120.295 22.5387 119.791 23.3973 119.306 24.144C118.839 24.8907 118.307 25.572 117.71 26.188C117.131 26.7853 116.59 27.084 116.086 27.084C115.582 27.084 115.143 26.9253 114.77 26.608C114.415 26.272 114.191 25.8053 114.098 25.208C113.986 24.592 113.93 23.9667 113.93 23.332C113.93 21.8573 114.453 19.1133 115.498 15.1H114.238C114.089 15.1 113.986 15.0627 113.93 14.988C113.874 14.8947 113.846 14.82 113.846 14.764Z" fill="black"/>
</svg>
