<svg width="99" height="19" viewBox="0 0 99 19" fill="none" xmlns="http://www.w3.org/2000/svg">
<path d="M7.5 1L10.145 4.85942L14.6329 6.18237L11.7798 9.89058L11.9084 14.5676L7.5 13L3.09161 14.5676L3.22025 9.89058L0.367076 6.18237L4.85497 4.85942L7.5 1Z" fill="#FFB800"/>
<path d="M28.5 1L31.145 4.85942L35.6329 6.18237L32.7798 9.89058L32.9084 14.5676L28.5 13L24.0916 14.5676L24.2202 9.89058L21.3671 6.18237L25.855 4.85942L28.5 1Z" fill="#FFB800"/>
<path d="M49.5 1L52.145 4.85942L56.6329 6.18237L53.7798 9.89058L53.9084 14.5676L49.5 13L45.0916 14.5676L45.2202 9.89058L42.3671 6.18237L46.855 4.85942L49.5 1Z" fill="#FFB800"/>
<path d="M70.5 1L73.145 4.85942L77.6329 6.18237L74.7798 9.89058L74.9084 14.5676L70.5 13L66.0916 14.5676L66.2202 9.89058L63.3671 6.18237L67.855 4.85942L70.5 1Z" fill="#FFB800"/>
<path d="M91.5 1.88445L93.7326 5.14208L93.8331 5.28875L94.0037 5.33902L97.7918 6.45568L95.3835 9.58567L95.2751 9.72659L95.2799 9.90432L95.3885 13.8521L91.6675 12.5289L91.5 12.4693L91.3325 12.5289L87.6115 13.8521L87.7201 9.90432L87.7249 9.72659L87.6165 9.58567L85.2082 6.45568L88.9963 5.33902L89.1669 5.28875L89.2674 5.14208L91.5 1.88445Z" stroke="#FFB800"/>
<mask id="mask0" mask-type="alpha" maskUnits="userSpaceOnUse" x="83" y="0" width="9" height="19">
<rect x="83" width="9" height="19" fill="#FFB800"/>
</mask>
<g mask="url(#mask0)">
<path d="M91.5 1L94.145 4.85942L98.6329 6.18237L95.7798 9.89058L95.9084 14.5676L91.5 13L87.0916 14.5676L87.2202 9.89058L84.3671 6.18237L88.855 4.85942L91.5 1Z" fill="#FFB800"/>
</g>
</svg>
