<svg width="19" height="19" viewBox="0 0 19 19" fill="none" xmlns="http://www.w3.org/2000/svg">
<path d="M9.32088 2.02145C9.52823 1.3833 10.431 1.3833 10.6384 2.02145L11.8091 5.62438C12.0872 6.48055 12.8851 7.06022 13.7853 7.06022H17.5737C18.2447 7.06022 18.5236 7.91885 17.9808 8.31325L14.916 10.54C14.1877 11.0691 13.8829 12.0071 14.1611 12.8632L15.3318 16.4662C15.5391 17.1043 14.8087 17.635 14.2659 17.2406L11.201 15.0138C10.4727 14.4847 9.48654 14.4847 8.75824 15.0138L5.6934 17.2406C5.15056 17.635 4.42017 17.1043 4.62751 16.4662L5.79818 12.8632C6.07636 12.0071 5.77161 11.0691 5.04331 10.54L1.97847 8.31325C1.43563 7.91885 1.71462 7.06022 2.38561 7.06022H6.17395C7.07418 7.06022 7.87203 6.48055 8.15022 5.62438L9.32088 2.02145Z" stroke="black" stroke-width="1.38531"/>
</svg>
