<svg width="19" height="19" viewBox="0 0 19 19" fill="none" xmlns="http://www.w3.org/2000/svg">
<g clip-path="url(#clip0)">
<path d="M15.3762 2.85316C13.6755 1.15247 11.4142 0.21582 9.00904 0.21582C6.60384 0.21582 4.34262 1.15247 2.64186 2.85316C0.941163 4.55392 0.0045166 6.81515 0.0045166 9.22034C0.0045166 11.6255 0.941163 13.8868 2.64186 15.5875C4.34262 17.2882 6.60384 18.2249 9.00904 18.2249C11.4142 18.2249 13.6755 17.2882 15.3762 15.5875C17.0769 13.8868 18.0136 11.6255 18.0136 9.22034C18.0136 6.81515 17.0769 4.55392 15.3762 2.85316ZM9.00904 16.8179C4.81972 16.8179 1.41147 13.4097 1.41147 9.22034C1.41147 5.03102 4.81972 1.62278 9.00904 1.62278C13.1984 1.62278 16.6066 5.03102 16.6066 9.22034C16.6066 13.4097 13.1984 16.8179 9.00904 16.8179Z" fill="black"/>
<path d="M12.9834 10.2677C12.9809 10.2752 12.7267 11.0284 12.1034 11.7588C11.3101 12.6885 10.2974 13.1598 9.09343 13.1598C7.88081 13.1598 6.83544 12.6828 5.98642 11.7422C5.32093 11.0049 5.02715 10.2459 5.02511 10.2406L3.70697 10.7327C3.72174 10.7721 4.07746 11.7102 4.90334 12.6417C6.02001 13.9011 7.46893 14.5668 9.09343 14.5668C10.7259 14.5668 12.1502 13.8958 13.2123 12.6264C13.9973 11.6881 14.3085 10.7428 14.3213 10.703L12.9834 10.2677Z" fill="black"/>
<path d="M5.91371 7.67691C6.53534 7.67691 7.03928 7.17298 7.03928 6.55135C7.03928 5.92971 6.53534 5.42578 5.91371 5.42578C5.29208 5.42578 4.78815 5.92971 4.78815 6.55135C4.78815 7.17298 5.29208 7.67691 5.91371 7.67691Z" fill="black"/>
<path d="M12.1043 7.67691C12.726 7.67691 13.2299 7.17298 13.2299 6.55135C13.2299 5.92971 12.726 5.42578 12.1043 5.42578C11.4827 5.42578 10.9788 5.92971 10.9788 6.55135C10.9788 7.17298 11.4827 7.67691 12.1043 7.67691Z" fill="black"/>
</g>
<defs>
<clipPath id="clip0">
<rect width="18.009" height="18.009" fill="white" transform="translate(0.0045166 0.21582)"/>
</clipPath>
</defs>
</svg>
