<svg width="18" height="19" viewBox="0 0 18 19" fill="none" xmlns="http://www.w3.org/2000/svg">
<g clip-path="url(#clip0)">
<path d="M17.7668 9.22985C17.6121 9.01823 13.9262 4.04825 9.21856 4.04825C4.51097 4.04825 0.824869 9.01823 0.67034 9.22965C0.523827 9.43041 0.523827 9.7027 0.67034 9.90346C0.824869 10.1151 4.51097 15.0851 9.21856 15.0851C13.9262 15.0851 17.6121 10.115 17.7668 9.90363C17.9135 9.70291 17.9135 9.43041 17.7668 9.22985ZM9.21856 13.9433C5.75092 13.9433 2.74757 10.6447 1.85851 9.56627C2.74642 8.48693 5.74348 5.18998 9.21856 5.18998C12.686 5.18998 15.6892 8.48808 16.5786 9.56705C15.6907 10.6463 12.6937 13.9433 9.21856 13.9433Z" fill="black"/>
<path d="M9.21857 6.14145C7.32993 6.14145 5.79333 7.67804 5.79333 9.56668C5.79333 11.4553 7.32993 12.9919 9.21857 12.9919C11.1072 12.9919 12.6438 11.4553 12.6438 9.56668C12.6438 7.67804 11.1072 6.14145 9.21857 6.14145ZM9.21857 11.8502C7.95941 11.8502 6.9351 10.8258 6.9351 9.56668C6.9351 8.30756 7.95944 7.28322 9.21857 7.28322C10.4777 7.28322 11.502 8.30756 11.502 9.56668C11.502 10.8258 10.4777 11.8502 9.21857 11.8502Z" fill="black"/>
</g>
<defs>
<clipPath id="clip0">
<rect width="17.3164" height="17.3164" fill="white" transform="translate(0.560425 0.908478)"/>
</clipPath>
</defs>
</svg>
