<svg width="36" height="37" viewBox="0 0 36 37" fill="none" xmlns="http://www.w3.org/2000/svg">
<path d="M25.8841 36.0692C26.6152 36.0692 27.3323 35.7836 27.8726 35.2441L34.7605 28.3708C35.5597 27.5732 36 26.5122 36 25.3831C36 24.254 35.5597 23.1927 34.7605 22.3951L27.8726 15.5218C27.0632 14.7137 25.8571 14.475 24.8003 14.9134C23.7448 15.3512 23.0628 16.3718 23.0628 17.5133V23.9766C11.8968 23.9766 2.8125 14.8922 2.8125 3.72629V1.47656C2.8125 0.699829 2.18298 0.0703125 1.40625 0.0703125C0.629517 0.0703125 0 0.699829 0 1.47656V3.72629C0 9.8866 2.39886 15.6783 6.75494 20.0344C11.111 24.3902 16.9025 26.7893 23.0628 26.7893C24.6138 26.7893 25.8755 25.5276 25.8755 23.9768V17.5133C25.8755 17.513 25.8755 17.5128 25.8755 17.5125C25.8777 17.5114 25.8805 17.5103 25.883 17.5095C25.8838 17.5106 25.8849 17.5114 25.886 17.5125L32.7739 24.3861C33.0406 24.6522 33.1875 25.0063 33.1875 25.3831C33.1875 25.7599 33.0406 26.114 32.7739 26.3801L25.886 33.2534L25.883 33.2564C25.8805 33.2556 25.8777 33.2548 25.8755 33.2537C25.8755 33.2534 25.8755 33.2531 25.8755 33.2526V31.7112C25.8755 30.9345 25.2458 30.305 24.469 30.305C23.6926 30.305 23.0628 30.9345 23.0628 31.7112V33.2526C23.0628 34.3941 23.7448 35.4147 24.8003 35.8525C25.1516 35.9984 25.5196 36.0692 25.8841 36.0692Z" fill="#C83518"/>
</svg>
