<svg width="36" height="37" viewBox="0 0 36 37" fill="none" xmlns="http://www.w3.org/2000/svg">
<path d="M10.1159 36.0692C9.3848 36.0692 8.66766 35.7836 8.12741 35.2441L1.23953 28.3708C0.440277 27.5732 0 26.5122 0 25.3831C0 24.254 0.440277 23.1927 1.23953 22.3951L8.12741 15.5218C8.93683 14.7137 10.1429 14.475 11.1997 14.9134C12.2552 15.3512 12.9372 16.3718 12.9372 17.5133V23.9766C24.1032 23.9766 33.1875 14.8922 33.1875 3.72629V1.47656C33.1875 0.699829 33.817 0.0703125 34.5938 0.0703125C35.3705 0.0703125 36 0.699829 36 1.47656V3.72629C36 9.8866 33.6011 15.6783 29.2451 20.0344C24.889 24.3902 19.0975 26.7893 12.9372 26.7893C11.3862 26.7893 10.1245 25.5276 10.1245 23.9768V17.5133C10.1245 17.513 10.1245 17.5128 10.1245 17.5125C10.1223 17.5114 10.1195 17.5103 10.117 17.5095C10.1162 17.5106 10.1151 17.5114 10.114 17.5125L3.22614 24.3861C2.95944 24.6522 2.8125 25.0063 2.8125 25.3831C2.8125 25.7599 2.95944 26.114 3.22614 26.3801L10.114 33.2534L10.117 33.2564C10.1195 33.2556 10.1223 33.2548 10.1245 33.2537C10.1245 33.2534 10.1245 33.2531 10.1245 33.2526V31.7112C10.1245 30.9345 10.7542 30.305 11.531 30.305C12.3074 30.305 12.9372 30.9345 12.9372 31.7112V33.2526C12.9372 34.3941 12.2552 35.4147 11.1997 35.8525C10.8484 35.9984 10.4804 36.0692 10.1159 36.0692Z" fill="#C83518"/>
</svg>
