<svg width="42" height="42" viewBox="0 0 42 42" fill="none" xmlns="http://www.w3.org/2000/svg">
<path d="M21 0C9.42014 0 0 9.42014 0 21C0 32.5799 9.42014 42 21 42C32.5799 42 42 32.5799 42 21C42 9.42014 32.5799 0 21 0Z" fill="#F44336"/>
<path d="M28.7334 26.2588C29.4175 26.9432 29.4175 28.049 28.7334 28.7335C28.3921 29.0748 27.9441 29.2462 27.4959 29.2462C27.0479 29.2462 26.5999 29.0748 26.2587 28.7335L21 23.4745L15.7414 28.7335C15.4001 29.0748 14.9521 29.2462 14.5042 29.2462C14.0559 29.2462 13.6079 29.0748 13.2666 28.7335C12.5825 28.049 12.5825 26.9432 13.2666 26.2588L18.5256 21.0001L13.2666 15.7415C12.5825 15.057 12.5825 13.9512 13.2666 13.2668C13.9511 12.5826 15.0569 12.5826 15.7414 13.2668L21 18.5257L26.2587 13.2668C26.9431 12.5826 28.0489 12.5826 28.7334 13.2668C29.4175 13.9512 29.4175 15.057 28.7334 15.7415L23.4744 21.0001L28.7334 26.2588Z" fill="#FAFAFA"/>
</svg>
