<svg width="68" height="68" viewBox="0 0 68 68" fill="none" xmlns="http://www.w3.org/2000/svg">
<circle cx="34" cy="34" r="33" stroke="black" stroke-width="2"/>
<g clip-path="url(#clip0)">
<path d="M52.9999 28.776C52.9999 26.7483 51.3502 25.0989 49.3224 25.0989C47.2947 25.0989 45.6453 26.7483 45.6453 28.776C45.6453 30.5948 46.9731 32.1053 48.7098 32.3981V42.5665C48.7098 47.4665 44.7226 51.4537 39.8225 51.4537C34.9225 51.4537 30.9357 47.4665 30.9357 42.5665V39.3347C35.8859 37.4402 40.7421 29.7247 40.7421 26.8472C40.7421 23.7406 38.2149 21.2134 35.1084 21.2134C33.1332 21.2134 31.3478 22.234 30.336 23.8532C29.6816 22.8176 28.6964 22.0008 27.5377 21.568C27.5223 21.562 27.5061 21.5648 27.4907 21.5606C27.2084 20.8378 26.8002 20.1799 26.292 19.6107L26.6543 19.2327L26.8247 19.4027C26.9447 19.5227 27.1014 19.5827 27.2582 19.5827C27.4149 19.5827 27.5717 19.5227 27.6913 19.4031C27.9308 19.1636 27.9308 18.7757 27.6913 18.5365L26.4656 17.3108C26.2264 17.0713 25.8382 17.0713 25.599 17.3108C25.3598 17.55 25.3598 17.9378 25.599 18.1774L25.788 18.3661L25.3935 18.7778C24.5258 18.1139 23.4878 17.6664 22.355 17.5131V16.5182H22.9677C23.3064 16.5182 23.5807 16.2439 23.5807 15.9052C23.5807 15.5664 23.3064 15.2925 22.9677 15.2925H20.5162C20.1775 15.2925 19.9032 15.5664 19.9032 15.9052C19.9032 16.2439 20.1775 16.5182 20.5162 16.5182H21.1293V17.4658C19.772 17.5409 18.5274 18.0336 17.5205 18.8223L17.0832 18.3661L17.2722 18.1774C17.5114 17.9378 17.5114 17.55 17.2722 17.3108C17.0327 17.0713 16.6448 17.0713 16.4056 17.3108L15.1796 18.5365C14.9404 18.7757 14.9404 19.1636 15.1796 19.4031C15.2995 19.5227 15.4563 19.5827 15.613 19.5827C15.7698 19.5827 15.9266 19.5227 16.0465 19.4031L16.2166 19.2327L16.6318 19.6658C15.6428 20.7993 15.0386 22.2768 15.0386 23.8956C15.0386 27.3153 17.7159 30.114 21.084 30.324C22.8446 33.6389 26.2934 37.6552 29.7096 39.2789V42.5665C29.7096 48.1423 34.2467 52.6794 39.8225 52.6794C45.3987 52.6794 49.9355 48.1423 49.9355 42.5665V32.3981C51.6722 32.1053 52.9999 30.5948 52.9999 28.776ZM16.2643 23.8956C16.2643 21.016 18.607 18.6733 21.487 18.6733C24.3666 18.6733 26.7093 21.016 26.7093 23.8956C26.7093 26.776 24.3666 29.1183 21.487 29.1183C18.607 29.1183 16.2643 26.776 16.2643 23.8956ZM22.45 30.2644C25.5492 29.7969 27.9354 27.1235 27.9354 23.8956C27.9354 23.6266 27.9133 23.3629 27.881 23.1023C28.755 23.6466 29.4333 24.488 29.7566 25.4756C29.839 25.7277 30.0736 25.8978 30.3388 25.8978C30.6043 25.8978 30.8385 25.727 30.9213 25.4756C31.5157 23.6596 33.1988 22.4395 35.1087 22.4395C37.5391 22.4395 39.5164 24.4164 39.5164 26.8472C39.5164 29.3428 34.7741 36.6641 30.3675 38.2402C27.3606 36.8731 24.1825 33.2763 22.45 30.2644ZM49.3224 31.2278C47.9705 31.2278 46.871 30.1284 46.871 28.776C46.871 27.4241 47.9705 26.3246 49.3224 26.3246C50.6748 26.3246 51.7742 27.4241 51.7742 28.776C51.7742 30.1284 50.6748 31.2278 49.3224 31.2278Z" fill="#0077C0"/>
<path d="M49.3224 27.0356C48.3633 27.0356 47.5822 27.8167 47.5822 28.7758C47.5822 29.7354 48.3633 30.5164 49.3224 30.5164C50.282 30.5164 51.063 29.7354 51.063 28.7758C51.063 27.8167 50.282 27.0356 49.3224 27.0356ZM49.3224 29.2907C49.0387 29.2907 48.808 29.0596 48.808 28.7758C48.808 28.4925 49.0391 28.2614 49.3224 28.2614C49.6062 28.2614 49.8373 28.4925 49.8373 28.7758C49.8373 29.0596 49.6065 29.2907 49.3224 29.2907Z" fill="#0077C0"/>
<path d="M22.355 24.1497V20.8085C22.355 20.4697 22.0807 20.1958 21.742 20.1958C21.4032 20.1958 21.1293 20.4697 21.1293 20.8085V23.806L19.0587 25.0699C18.7701 25.2467 18.6789 25.6237 18.8553 25.9126C18.9707 26.102 19.1723 26.2062 19.3789 26.2062C19.488 26.2062 19.5981 26.1774 19.6981 26.1164L22.0618 24.6726C22.2438 24.5614 22.355 24.3632 22.355 24.1497Z" fill="#0077C0"/>
<path d="M35.2259 25.0695C36.2555 25.0695 37.0934 25.9076 37.0934 26.937C37.0934 27.2757 37.3676 27.55 37.7064 27.55C38.0452 27.55 38.3191 27.2757 38.3191 26.937C38.3191 25.2311 36.9317 23.8438 35.2259 23.8438C34.8871 23.8438 34.6128 24.118 34.6128 24.4568C34.6128 24.7956 34.8871 25.0695 35.2259 25.0695Z" fill="#0077C0"/>
<path d="M20.5162 38.5825C19.5023 38.5825 18.6775 39.4074 18.6775 40.4213C18.6775 41.4352 19.5023 42.26 20.5162 42.26C21.5301 42.26 22.355 41.4352 22.355 40.4213C22.355 39.4074 21.5301 38.5825 20.5162 38.5825ZM20.5162 41.0343C20.1782 41.0343 19.9032 40.7597 19.9032 40.4213C19.9032 40.0832 20.1782 39.8086 20.5162 39.8086C20.8543 39.8086 21.1293 40.0832 21.1293 40.4213C21.1293 40.7597 20.8547 41.0343 20.5162 41.0343Z" fill="#0077C0"/>
<path d="M43.1935 20.8084C44.2074 20.8084 45.0323 19.9835 45.0323 18.9696C45.0323 17.9557 44.2074 17.1309 43.1935 17.1309C42.1796 17.1309 41.3548 17.9557 41.3548 18.9696C41.3548 19.9835 42.1796 20.8084 43.1935 20.8084ZM43.1935 18.3569C43.5316 18.3569 43.8066 18.6315 43.8066 18.9696C43.8066 19.308 43.5316 19.5826 43.1935 19.5826C42.8554 19.5826 42.5808 19.308 42.5808 18.9696C42.5808 18.6315 42.8554 18.3569 43.1935 18.3569Z" fill="#0077C0"/>
<path d="M25.5422 44.3438L23.7035 46.7952C23.5 47.0659 23.5551 47.45 23.8262 47.653C23.9363 47.7358 24.065 47.7758 24.193 47.7758C24.38 47.7758 24.5637 47.6916 24.684 47.5303L26.5228 45.0788C26.7262 44.8081 26.6711 44.4241 26.4 44.221C26.1293 44.0183 25.7456 44.073 25.5422 44.3438Z" fill="#0077C0"/>
<path d="M38.0164 36.8086C37.7134 36.9601 37.5907 37.328 37.7422 37.631L38.9679 40.0824C39.0755 40.2974 39.2916 40.4212 39.5167 40.4212C39.609 40.4212 39.7023 40.4002 39.7903 40.3567C40.0933 40.2052 40.2157 39.8369 40.0645 39.5343L38.8385 37.0828C38.6873 36.7798 38.3191 36.6581 38.0164 36.8086Z" fill="#0077C0"/>
<path d="M44.5988 43.6652L42.7604 45.504C42.5209 45.7435 42.5209 46.1314 42.7604 46.3706C42.88 46.4905 43.0368 46.5505 43.1935 46.5505C43.3503 46.5505 43.5074 46.4905 43.627 46.3706L45.4657 44.5322C45.7049 44.2926 45.7049 43.9048 45.4657 43.6652C45.2262 43.426 44.8383 43.426 44.5988 43.6652Z" fill="#0077C0"/>
<path d="M18.0641 33.6789C18.251 33.6789 18.4348 33.5947 18.5551 33.4334C18.7585 33.163 18.7034 32.779 18.4323 32.5759L15.9806 30.7372C15.7102 30.5348 15.3258 30.5885 15.1227 30.8599C14.9193 31.1303 14.9744 31.5147 15.2455 31.7177L17.6973 33.5561C17.8074 33.6389 17.9361 33.6789 18.0641 33.6789Z" fill="#0077C0"/>
<path d="M17.329 48.634C17.1263 48.3619 16.7413 48.3079 16.4716 48.5113C16.2001 48.7143 16.1451 49.0987 16.3488 49.3691L18.1872 51.8209C18.3075 51.9818 18.4913 52.0664 18.6782 52.0664C18.8062 52.0664 18.9349 52.026 19.045 51.9436C19.3165 51.7406 19.3712 51.3562 19.1678 51.0858L17.329 48.634Z" fill="#0077C0"/>
</g>
<defs>
<clipPath id="clip0">
<rect x="15" y="15" width="38" height="38" fill="white"/>
</clipPath>
</defs>
</svg>
