<svg width="136" height="136" viewBox="0 0 136 136" fill="none" xmlns="http://www.w3.org/2000/svg">
<g filter="url(#filter0_d)">
<path d="M131.263 63.6316C131.263 98.7743 102.774 127.263 67.6316 127.263C32.4888 127.263 4 98.7743 4 63.6316C4 28.4888 32.4888 0 67.6316 0C102.774 0 131.263 28.4888 131.263 63.6316Z" fill="white"/>
</g>
<g clip-path="url(#clip0)">
<path d="M73.0523 58.6347C73.6504 58.6347 74.1358 58.1493 74.1358 57.5512C74.1358 56.9532 73.6504 56.4678 73.0523 56.4678C72.453 56.4678 71.9689 56.9532 71.9689 57.5512C71.9689 58.1493 72.453 58.6347 73.0523 58.6347Z" fill="black"/>
<path d="M62.2176 58.6347C62.8157 58.6347 63.3011 58.1493 63.3011 57.5512C63.3011 56.9532 62.8157 56.4678 62.2176 56.4678C61.6183 56.4678 61.1342 56.9532 61.1342 57.5512C61.1342 58.1493 61.6183 58.6347 62.2176 58.6347Z" fill="black"/>
<path d="M43.7952 84.6439V87.022C43.7952 87.6205 44.2803 88.1055 44.8787 88.1055H90.3845C90.9829 88.1055 91.4679 87.6205 91.4679 87.022V84.6418C91.4679 80.3329 89.0475 76.3507 84.568 74.7158C86.1869 73.3018 87.1709 71.2305 87.1709 68.9907C87.1709 68.3927 86.6859 67.9073 86.0874 67.9073C83.4812 67.9073 81.2846 66.0641 80.7555 63.6191H83.887C85.6773 63.6191 87.1341 62.1611 87.1341 60.3687V55.3847C87.1341 53.9715 86.2279 52.7666 84.9671 52.3201V49.9674C84.9671 40.4087 77.1919 32.6318 67.635 32.6318C58.056 32.6318 50.2961 40.3842 50.2961 49.9674V52.3218C49.0353 52.77 48.1291 53.9745 48.1291 55.3847V60.3687C48.1291 62.1611 49.5888 63.6191 51.3829 63.6191H54.5076C53.9794 66.0641 51.785 67.9073 49.1813 67.9073C48.5828 67.9073 48.0978 68.3927 48.0978 68.9907C48.0978 71.2334 49.0844 73.3068 50.7074 74.7217C46.2453 76.3579 43.7952 80.3803 43.7952 84.6439ZM84.9125 69.9836C84.5752 71.8006 83.325 73.3428 81.5779 74.0356L75.014 73.1833L74.3127 70.4424C76.359 69.2189 77.9897 67.49 79.0825 65.4606C80.1021 67.823 82.2919 69.5752 84.9125 69.9836ZM76.3188 52.1343C73.3257 52.1343 70.8905 49.6686 70.8905 46.6378C70.8905 46.0394 70.4054 45.5543 69.807 45.5543C69.209 45.5543 68.7235 46.0394 68.7235 46.6378C68.7235 49.6686 66.2883 52.1343 63.2943 52.1343H56.8003C56.8003 46.16 61.6607 41.2996 67.635 41.2996C73.6207 41.2996 78.4697 46.1439 78.4697 52.1343H76.3188ZM56.7969 54.3012H63.2943C66.0555 54.3012 68.4772 52.8077 69.807 50.5789C71.1368 52.8077 73.5581 54.3012 76.3188 54.3012H78.4663V59.2852C78.4663 63.3833 76.1965 67.0853 72.5432 68.9463C71.0145 69.725 69.363 70.1199 67.635 70.1199C65.9116 70.1199 64.2652 69.728 62.7407 68.9552C61.7178 68.4367 60.7863 67.7612 59.9715 66.9461C57.9244 64.9002 56.7969 62.1793 56.7969 59.2852V54.3012ZM62.9638 71.4226C64.4472 71.9957 66.0132 72.2868 67.635 72.2868C69.2631 72.2868 70.835 71.9931 72.3248 71.4142L73.0125 74.1038C72.6515 76.7862 70.3758 78.7877 67.6456 78.7877C64.9157 78.7877 62.64 76.7871 62.2781 74.1055L62.9638 71.4226ZM84.9671 60.3687C84.9671 60.9663 84.4825 61.4521 83.887 61.4521H80.6332V54.3012H83.887C84.4825 54.3012 84.9671 54.7871 84.9671 55.3847V60.3687ZM67.635 34.7988C75.9972 34.7988 82.8002 41.6035 82.8002 49.9674V52.1343H80.6366C80.6366 44.9508 74.8227 39.1327 67.635 39.1327C60.4659 39.1327 54.6333 44.9652 54.6333 52.1343H52.463V49.9674C52.463 41.5865 59.2495 34.7988 67.635 34.7988ZM50.2961 60.3687V55.3847C50.2961 54.7884 50.7828 54.3025 51.3829 54.3012H54.6299V61.4521H51.3829C50.7836 61.4521 50.2961 60.9663 50.2961 60.3687ZM56.1824 65.4576C56.7761 66.5546 57.532 67.5721 58.4394 68.4786C59.203 69.2426 60.0541 69.9028 60.975 70.4526L60.2771 73.1837L53.695 74.0378C51.9458 73.3445 50.6939 71.8014 50.3562 69.9836C52.976 69.5748 55.1645 67.8209 56.1824 65.4576ZM53.5803 76.2373L53.6997 76.222H53.7005C53.7014 76.2216 53.7022 76.2216 53.7031 76.2216L60.3254 75.3625C61.2027 78.6226 64.1594 80.9546 67.6456 80.9546C71.1317 80.9546 74.088 78.6226 74.9649 75.362C75.295 75.4052 73.2254 75.1365 81.7095 76.2377C86.4594 76.8548 89.301 80.4146 89.301 84.6418V85.9386H45.9622V84.6439C45.9622 80.4958 48.8021 76.8577 53.5803 76.2373Z" fill="black"/>
<path d="M64.7384 66.0823C65.6479 66.511 66.6226 66.7285 67.6346 66.7285C68.6232 66.7285 69.5785 66.5199 70.4749 66.1085C71.0187 65.8592 71.257 65.2159 71.0073 64.6721C70.758 64.1282 70.1147 63.8895 69.5708 64.1392C68.9601 64.4194 68.3088 64.5616 67.635 64.5616C66.9447 64.5616 66.2806 64.4139 65.6623 64.1223C65.121 63.8671 64.4756 64.099 64.2203 64.6403C63.9651 65.1816 64.1971 65.8275 64.7384 66.0823Z" fill="black"/>
<path d="M77.3862 83.122H81.7201C82.3185 83.122 82.8036 82.637 82.8036 82.0385C82.8036 81.4401 82.3185 80.9551 81.7201 80.9551H77.3862C76.7878 80.9551 76.3027 81.4401 76.3027 82.0385C76.3027 82.637 76.7878 83.122 77.3862 83.122Z" fill="black"/>
<path d="M86.0506 80.9551C86.6486 80.9551 87.1341 81.4405 87.1341 82.0385C87.1341 82.6366 86.6486 83.122 86.0506 83.122C85.4526 83.122 84.9671 82.6366 84.9671 82.0385C84.9671 81.4405 85.4526 80.9551 86.0506 80.9551Z" fill="black"/>
</g>
<defs>
<filter id="filter0_d" x="0" y="0" width="135.263" height="135.263" filterUnits="userSpaceOnUse" color-interpolation-filters="sRGB">
<feFlood flood-opacity="0" result="BackgroundImageFix"/>
<feColorMatrix in="SourceAlpha" type="matrix" values="0 0 0 0 0 0 0 0 0 0 0 0 0 0 0 0 0 0 127 0"/>
<feOffset dy="4"/>
<feGaussianBlur stdDeviation="2"/>
<feColorMatrix type="matrix" values="0 0 0 0 0 0 0 0 0 0 0 0 0 0 0 0 0 0 0.25 0"/>
<feBlend mode="normal" in2="BackgroundImageFix" result="effect1_dropShadow"/>
<feBlend mode="normal" in="SourceGraphic" in2="effect1_dropShadow" result="shape"/>
</filter>
<clipPath id="clip0">
<rect x="39.8947" y="32.6318" width="55.4737" height="55.4737" fill="white"/>
</clipPath>
</defs>
</svg>
