<svg width="37" height="37" viewBox="0 0 37 37" fill="none" xmlns="http://www.w3.org/2000/svg">
<path d="M18.5 0C8.2995 0 0 8.2995 0 18.5C0 28.7005 8.2995 37 18.5 37C28.7005 37 37 28.7005 37 18.5C37 8.2995 28.7005 0 18.5 0ZM28.8396 13.6316L17.0163 25.3622C16.3208 26.0576 15.208 26.104 14.4662 25.4085L8.20677 19.7055C7.46491 19.01 7.41855 17.8509 8.06767 17.109C8.76316 16.3672 9.92231 16.3208 10.6642 17.0163L15.6253 21.5602L26.1967 10.9887C26.9386 10.2469 28.0977 10.2469 28.8396 10.9887C29.5815 11.7306 29.5815 12.8897 28.8396 13.6316Z" fill="white"/>
</svg>
