<svg width="364" height="253" viewBox="0 0 364 253" fill="none" xmlns="http://www.w3.org/2000/svg">
<rect x="0.5" y="0.5" width="363" height="223" rx="19.5" stroke="#8B8B8B"/>
<rect x="27" y="198" width="54" height="16" fill="#F8B200"/>
<rect x="91" y="180" width="54" height="34" fill="#F8B200"/>
<rect x="155" y="198" width="54" height="16" fill="#F8B200"/>
<rect x="219" y="35" width="54" height="179" fill="#F8B200"/>
<rect x="283" y="17" width="54" height="197" fill="#F8B200"/>
<path d="M178.809 177.807H180.254C180.983 177.8 181.559 177.611 181.982 177.24C182.412 176.869 182.627 176.332 182.627 175.629C182.627 174.952 182.448 174.428 182.09 174.057C181.738 173.679 181.198 173.49 180.469 173.49C179.831 173.49 179.307 173.676 178.896 174.047C178.486 174.411 178.281 174.89 178.281 175.482H175.908C175.908 174.753 176.1 174.089 176.484 173.49C176.875 172.891 177.415 172.426 178.105 172.094C178.802 171.755 179.58 171.586 180.439 171.586C181.859 171.586 182.972 171.944 183.779 172.66C184.593 173.37 185 174.359 185 175.629C185 176.267 184.795 176.869 184.385 177.436C183.981 177.995 183.457 178.419 182.812 178.705C183.594 178.972 184.186 179.392 184.59 179.965C185 180.538 185.205 181.221 185.205 182.016C185.205 183.292 184.766 184.307 183.887 185.062C183.014 185.818 181.865 186.195 180.439 186.195C179.072 186.195 177.952 185.831 177.08 185.102C176.208 184.372 175.771 183.402 175.771 182.191H178.145C178.145 182.816 178.353 183.324 178.77 183.715C179.193 184.105 179.759 184.301 180.469 184.301C181.204 184.301 181.784 184.105 182.207 183.715C182.63 183.324 182.842 182.758 182.842 182.016C182.842 181.267 182.62 180.691 182.178 180.287C181.735 179.883 181.077 179.682 180.205 179.682H178.809V177.807Z" fill="black"/>
<path d="M248.092 54.9316H249.859V56.8359H248.092V60H245.719V56.8359H239.576L239.508 55.3906L245.641 45.7812H248.092V54.9316ZM241.998 54.9316H245.719V48.9941L245.543 49.3066L241.998 54.9316Z" fill="black"/>
<path d="M305.699 34.9492L306.471 27.7812H314.107V29.832H308.443L308.053 33.2305C308.71 32.8529 309.452 32.6641 310.279 32.6641C311.633 32.6641 312.685 33.097 313.434 33.9629C314.189 34.8288 314.566 35.9941 314.566 37.459C314.566 38.9043 314.15 40.0566 313.316 40.916C312.483 41.7689 311.34 42.1953 309.889 42.1953C308.587 42.1953 307.506 41.8275 306.646 41.0918C305.794 40.3496 305.331 39.373 305.26 38.1621H307.555C307.646 38.8522 307.893 39.3828 308.297 39.7539C308.701 40.1185 309.228 40.3008 309.879 40.3008C310.608 40.3008 311.174 40.0404 311.578 39.5195C311.988 38.9987 312.193 38.2891 312.193 37.3906C312.193 36.5247 311.969 35.8411 311.52 35.3398C311.07 34.832 310.452 34.5781 309.664 34.5781C309.234 34.5781 308.87 34.6367 308.57 34.7539C308.271 34.8646 307.945 35.0859 307.594 35.418L305.699 34.9492Z" fill="black"/>
<path d="M118.625 167H109.064V165.369L113.801 160.203C114.484 159.441 114.969 158.807 115.256 158.299C115.549 157.785 115.695 157.27 115.695 156.756C115.695 156.079 115.503 155.532 115.119 155.115C114.742 154.699 114.23 154.49 113.586 154.49C112.818 154.49 112.222 154.725 111.799 155.193C111.376 155.662 111.164 156.303 111.164 157.117H108.791C108.791 156.251 108.986 155.473 109.377 154.783C109.774 154.087 110.337 153.546 111.066 153.162C111.802 152.778 112.648 152.586 113.605 152.586C114.986 152.586 116.073 152.934 116.867 153.631C117.668 154.321 118.068 155.278 118.068 156.502C118.068 157.212 117.867 157.957 117.463 158.738C117.066 159.513 116.411 160.395 115.5 161.385L112.023 165.105H118.625V167Z" fill="black"/>
<path d="M56.4902 186H54.127V174.584L50.6406 175.775V173.773L56.1875 171.732H56.4902V186Z" fill="black"/>
<path d="M304.809 243.807H306.254C306.983 243.8 307.559 243.611 307.982 243.24C308.412 242.869 308.627 242.332 308.627 241.629C308.627 240.952 308.448 240.428 308.09 240.057C307.738 239.679 307.198 239.49 306.469 239.49C305.831 239.49 305.307 239.676 304.896 240.047C304.486 240.411 304.281 240.89 304.281 241.482H301.908C301.908 240.753 302.1 240.089 302.484 239.49C302.875 238.891 303.415 238.426 304.105 238.094C304.802 237.755 305.58 237.586 306.439 237.586C307.859 237.586 308.972 237.944 309.779 238.66C310.593 239.37 311 240.359 311 241.629C311 242.267 310.795 242.869 310.385 243.436C309.981 243.995 309.457 244.419 308.812 244.705C309.594 244.972 310.186 245.392 310.59 245.965C311 246.538 311.205 247.221 311.205 248.016C311.205 249.292 310.766 250.307 309.887 251.062C309.014 251.818 307.865 252.195 306.439 252.195C305.072 252.195 303.952 251.831 303.08 251.102C302.208 250.372 301.771 249.402 301.771 248.191H304.145C304.145 248.816 304.353 249.324 304.77 249.715C305.193 250.105 305.759 250.301 306.469 250.301C307.204 250.301 307.784 250.105 308.207 249.715C308.63 249.324 308.842 248.758 308.842 248.016C308.842 247.267 308.62 246.691 308.178 246.287C307.735 245.883 307.077 245.682 306.205 245.682H304.809V243.807ZM322.699 246.014C322.699 248.058 322.315 249.601 321.547 250.643C320.785 251.678 319.623 252.195 318.061 252.195C316.524 252.195 315.365 251.691 314.584 250.682C313.809 249.666 313.412 248.165 313.393 246.18V243.719C313.393 241.674 313.773 240.141 314.535 239.119C315.303 238.097 316.472 237.586 318.041 237.586C319.597 237.586 320.756 238.084 321.518 239.08C322.286 240.076 322.68 241.567 322.699 243.553V246.014ZM320.326 243.357C320.326 242.023 320.144 241.046 319.779 240.428C319.415 239.803 318.835 239.49 318.041 239.49C317.266 239.49 316.697 239.786 316.332 240.379C315.967 240.965 315.775 241.883 315.756 243.133V246.355C315.756 247.684 315.941 248.673 316.312 249.324C316.684 249.975 317.266 250.301 318.061 250.301C318.822 250.301 319.385 250.001 319.75 249.402C320.115 248.797 320.307 247.853 320.326 246.57V243.357Z" fill="black"/>
<path d="M249.625 252H240.064V250.369L244.801 245.203C245.484 244.441 245.969 243.807 246.256 243.299C246.549 242.785 246.695 242.27 246.695 241.756C246.695 241.079 246.503 240.532 246.119 240.115C245.742 239.699 245.23 239.49 244.586 239.49C243.818 239.49 243.222 239.725 242.799 240.193C242.376 240.662 242.164 241.303 242.164 242.117H239.791C239.791 241.251 239.986 240.473 240.377 239.783C240.774 239.087 241.337 238.546 242.066 238.162C242.802 237.778 243.648 237.586 244.605 237.586C245.986 237.586 247.073 237.934 247.867 238.631C248.668 239.321 249.068 240.278 249.068 241.502C249.068 242.212 248.867 242.957 248.463 243.738C248.066 244.513 247.411 245.395 246.5 246.385L243.023 250.105H249.625V252ZM258.814 237.713V239.676H258.521C257.193 239.695 256.132 240.06 255.338 240.77C254.544 241.479 254.072 242.485 253.922 243.787C254.684 242.986 255.657 242.586 256.842 242.586C258.098 242.586 259.088 243.029 259.811 243.914C260.54 244.799 260.904 245.942 260.904 247.342C260.904 248.787 260.478 249.959 259.625 250.857C258.779 251.749 257.665 252.195 256.285 252.195C254.866 252.195 253.714 251.671 252.828 250.623C251.949 249.575 251.51 248.201 251.51 246.502V245.691C251.51 243.198 252.115 241.245 253.326 239.832C254.544 238.419 256.292 237.713 258.57 237.713H258.814ZM256.266 244.5C255.745 244.5 255.266 244.646 254.83 244.939C254.4 245.232 254.085 245.623 253.883 246.111V246.834C253.883 247.889 254.104 248.729 254.547 249.354C254.99 249.972 255.562 250.281 256.266 250.281C256.969 250.281 257.525 250.018 257.936 249.49C258.346 248.963 258.551 248.27 258.551 247.41C258.551 246.551 258.342 245.851 257.926 245.311C257.509 244.77 256.956 244.5 256.266 244.5Z" fill="black"/>
<path d="M189.49 252H187.127V240.584L183.641 241.775V239.773L189.188 237.732H189.49V252Z" fill="black"/>
<path d="M56.4902 252H54.127V240.584L50.6406 241.775V239.773L56.1875 237.732H56.4902V252Z" fill="black"/>
<path d="M126.625 252H117.064V250.369L121.801 245.203C122.484 244.441 122.969 243.807 123.256 243.299C123.549 242.785 123.695 242.27 123.695 241.756C123.695 241.079 123.503 240.532 123.119 240.115C122.742 239.699 122.23 239.49 121.586 239.49C120.818 239.49 120.222 239.725 119.799 240.193C119.376 240.662 119.164 241.303 119.164 242.117H116.791C116.791 241.251 116.986 240.473 117.377 239.783C117.774 239.087 118.337 238.546 119.066 238.162C119.802 237.778 120.648 237.586 121.605 237.586C122.986 237.586 124.073 237.934 124.867 238.631C125.668 239.321 126.068 240.278 126.068 241.502C126.068 242.212 125.867 242.957 125.463 243.738C125.066 244.513 124.411 245.395 123.5 246.385L120.023 250.105H126.625V252Z" fill="black"/>
</svg>
