<svg width="43" height="43" viewBox="0 0 43 43" fill="none" xmlns="http://www.w3.org/2000/svg">
<path d="M29.5187 21.1122L27.1252 17.416C26.9397 17.1296 26.6252 16.9585 26.2839 16.9585H15.7236C15.3828 16.9585 15.0686 17.1291 14.883 17.4149L12.4821 21.1115C12.2367 21.4892 12.2746 21.9879 12.5743 22.3241L20.2511 30.9428C20.4412 31.1561 20.7139 31.2785 20.9996 31.2785C20.9996 31.2785 20.9996 31.2785 20.9996 31.2785C21.2852 31.2785 21.5581 31.1561 21.7481 30.9428L29.4258 22.3237C29.725 21.9878 29.7632 21.4896 29.5187 21.1122ZM25.7991 17.8178L23.7861 20.9305L21.772 17.8178H25.7991ZM22.9964 21.2919H19.0027L20.9996 18.206L22.9964 21.2919ZM20.2271 17.8179L18.2185 20.922L16.2107 17.8179H20.2271ZM15.4161 18.1718L17.4344 21.2919H13.3896L15.4161 18.1718ZM13.5711 22.1513H17.8957L20.1823 29.5735L13.5711 22.1513ZM20.9996 29.3075L18.7949 22.1513H23.2043L20.9996 29.3075ZM21.8168 29.5738L24.1035 22.1514H28.4285L21.8168 29.5738ZM24.5759 21.2919L26.5923 18.1739L28.6113 21.2919H24.5759Z" fill="#FF4F32"/>
<path d="M11.3034 21.292H10.4297C10.1924 21.292 10 21.4844 10 21.7217C10 21.959 10.1924 22.1514 10.4297 22.1514H11.3034C11.5406 22.1514 11.7331 21.959 11.7331 21.7217C11.7331 21.4844 11.5406 21.292 11.3034 21.292Z" fill="#FF4F32"/>
<path d="M31.5703 21.292H30.6966C30.4594 21.292 30.2669 21.4844 30.2669 21.7217C30.2669 21.959 30.4594 22.1514 30.6966 22.1514H31.5703C31.8076 22.1514 32 21.959 32 21.7217C32 21.4844 31.8076 21.292 31.5703 21.292Z" fill="#FF4F32"/>
<path d="M28.7836 13.9457C28.6158 13.7779 28.3438 13.7779 28.1759 13.9457L26.7486 15.373C26.5808 15.5408 26.5808 15.8128 26.7486 15.9806C26.8326 16.0645 26.9425 16.1065 27.0525 16.1065C27.1625 16.1065 27.2724 16.0645 27.3563 15.9806L28.7836 14.5533C28.9514 14.3855 28.9514 14.1135 28.7836 13.9457Z" fill="#FF4F32"/>
<path d="M15.2699 15.3652L13.8427 13.9379C13.6749 13.7701 13.4029 13.7701 13.235 13.9379C13.0672 14.1056 13.0672 14.3777 13.235 14.5455L14.6623 15.9728C14.7462 16.0567 14.8562 16.0987 14.9661 16.0987C15.0761 16.0987 15.186 16.0567 15.2699 15.9728C15.4377 15.8051 15.4377 15.5329 15.2699 15.3652Z" fill="#FF4F32"/>
<path d="M21.0109 10.7217C20.7736 10.7217 20.5812 10.9141 20.5812 11.1514V13.9516C20.5812 14.1889 20.7736 14.3812 21.0109 14.3812C21.2482 14.3812 21.4406 14.1889 21.4406 13.9516V11.1514C21.4406 10.9141 21.2482 10.7217 21.0109 10.7217Z" fill="#FF4F32"/>
<path d="M21.3145 15.101C21.2346 15.0211 21.1238 14.9751 21.0107 14.9751C20.8977 14.9751 20.7869 15.0211 20.707 15.101C20.627 15.1809 20.5811 15.2918 20.5811 15.4048C20.5811 15.5182 20.627 15.6287 20.707 15.7086C20.7869 15.7889 20.8977 15.8345 21.0107 15.8345C21.1238 15.8345 21.2346 15.7889 21.3145 15.7086C21.3948 15.6287 21.4404 15.5178 21.4404 15.4048C21.4404 15.2918 21.3948 15.181 21.3145 15.101Z" fill="#FF4F32"/>
<circle cx="21.5" cy="21.5" r="18" stroke="#FF4F32"/>
<circle cx="21.5" cy="21.5" r="20.5" stroke="#FF4F32" stroke-width="2"/>
</svg>
