<svg width="43" height="43" viewBox="0 0 43 43" fill="none" xmlns="http://www.w3.org/2000/svg">
<g clip-path="url(#clip0)">
<path d="M21 15.3906C21.1027 15.3906 21.2036 15.3488 21.2762 15.2762C21.3488 15.2036 21.3906 15.1027 21.3906 15C21.3906 14.8973 21.3488 14.7964 21.2762 14.7238C21.2036 14.6512 21.1027 14.6094 21 14.6094C20.8973 14.6094 20.7964 14.6512 20.7238 14.7238C20.6512 14.7964 20.6094 14.8973 20.6094 15C20.6094 15.1027 20.6512 15.2036 20.7238 15.2762C20.7964 15.3488 20.8973 15.3906 21 15.3906Z" fill="#FF4F32"/>
<path d="M30.6094 27.6553H30.1406V26.4834C30.1406 26.2677 29.9658 26.0928 29.75 26.0928H29.5156V25.4744C29.5156 25.0514 29.2576 24.6878 28.8906 24.5324V23.2152C28.8906 22.9994 28.7158 22.8245 28.5 22.8245C28.2842 22.8245 28.1094 22.9994 28.1094 23.2152V24.4522H27.3281V18.9053H28.1094V20.1692C28.1094 20.385 28.2842 20.5598 28.5 20.5598C28.7158 20.5598 28.8906 20.385 28.8906 20.1692V18.8251C29.2576 18.6697 29.5156 18.3059 29.5156 17.8831V17.2647H29.75C29.9658 17.2647 30.1406 17.0898 30.1406 16.8741V15.3897H30.1797C30.3608 15.3897 30.518 15.2653 30.5598 15.0891C30.6016 14.913 30.5168 14.7311 30.355 14.6499L21.1753 10.0406C21.065 9.98518 20.935 9.98518 20.8247 10.0406L11.645 14.6499C11.4832 14.7313 11.3984 14.913 11.4402 15.0891C11.482 15.2653 11.6392 15.3897 11.8203 15.3897H11.8594V16.8741C11.8594 17.0898 12.0342 17.2647 12.25 17.2647H12.4844V17.8831C12.4844 18.3059 12.7424 18.6697 13.1094 18.8249V24.5324C12.7424 24.6878 12.4844 25.0514 12.4844 25.4742V26.0928H12.25C12.0342 26.0928 11.8594 26.2677 11.8594 26.4834V27.6553H11.3906C11.1749 27.6553 11 27.8302 11 28.0459V29.6084C11 29.8242 11.1749 29.9991 11.3906 29.9991H30.6094C30.8251 29.9991 31 29.8242 31 29.6084V28.0459C31 27.8302 30.8251 27.6553 30.6094 27.6553ZM28.4934 25.2334C28.6263 25.2334 28.7344 25.3415 28.7344 25.4744V26.0928H26.7031V25.4744C26.7031 25.3415 26.8112 25.2334 26.9441 25.2334H28.4934ZM25.0364 26.0928V25.4744C25.0364 25.0516 24.7784 24.6878 24.4114 24.5324V18.8251C24.7784 18.6697 25.0364 18.3059 25.0364 17.8831V17.2647H25.9219V17.8831C25.9219 18.3059 26.1799 18.6697 26.5469 18.8249V24.5324C26.1799 24.6878 25.9219 25.0514 25.9219 25.4742V26.0928H25.0364ZM20.5573 26.0928V25.4744C20.5573 25.0514 20.2992 24.6878 19.9323 24.5324V18.8251C20.2992 18.6697 20.5573 18.3059 20.5573 17.8831V17.2647H21.4428V17.8831C21.4428 18.3059 21.7008 18.6697 22.0678 18.8249V24.5324C21.7008 24.6878 21.4428 25.0514 21.4428 25.4742V26.0928H20.5573ZM16.0781 26.0928V25.4744C16.0781 25.0514 15.8201 24.6878 15.4531 24.5324V18.8251C15.8201 18.6697 16.0781 18.3059 16.0781 17.8831V17.2647H16.9636V17.8831C16.9636 18.3059 17.2216 18.6697 17.5886 18.8249V24.5324C17.2216 24.6878 16.9636 25.0514 16.9636 25.4742V26.0928H16.0781ZM13.8906 18.9053H14.6719V24.4522H13.8906V18.9053ZM18.3698 18.9053H19.1511V24.4522H18.3698V18.9053ZM19.7761 17.8831C19.7761 18.016 19.6681 18.1241 19.5352 18.1241H17.9856C17.8529 18.1241 17.7447 18.016 17.7447 17.8831V17.2647H19.7759V17.8831H19.7761ZM17.7448 25.4744C17.7448 25.3415 17.8529 25.2334 17.9858 25.2334H19.5352C19.6679 25.2334 19.7761 25.3415 19.7761 25.4744V26.0928H17.7448V25.4744ZM22.8489 18.9053H23.6302V24.4522H22.8489V18.9053ZM24.2552 17.8831C24.2552 18.016 24.1471 18.1241 24.0142 18.1241H22.4648C22.3321 18.1241 22.2239 18.016 22.2239 17.8831V17.2647H24.2552V17.8831ZM22.2239 25.4744C22.2239 25.3415 22.3319 25.2334 22.4648 25.2334H24.0144C24.1471 25.2334 24.2553 25.3415 24.2553 25.4744V26.0928H22.2241V25.4744H22.2239ZM28.7344 17.8831C28.7344 18.016 28.6263 18.1241 28.4934 18.1241H26.9439C26.8112 18.1241 26.7031 18.016 26.7031 17.8831V17.2647H28.7344V17.8831ZM19.0598 15.3897C19.2756 15.3897 19.4505 15.2148 19.4505 14.9991C19.4505 14.7833 19.2756 14.6084 19.0598 14.6084H13.4687L21 10.8269L28.5313 14.6084H23.0703C22.8546 14.6084 22.6797 14.7833 22.6797 14.9991C22.6797 15.2148 22.8546 15.3897 23.0703 15.3897H29.3594V16.4834H12.6406V15.3897H19.0598ZM15.2969 17.2647V17.8831C15.2969 18.016 15.1888 18.1241 15.0559 18.1241H13.5066C13.3737 18.1241 13.2656 18.016 13.2656 17.8831V17.2647H15.2969ZM13.2656 25.4744C13.2656 25.3415 13.3737 25.2334 13.5066 25.2334H15.0561C15.1888 25.2334 15.2969 25.3415 15.2969 25.4744V26.0928H13.2656V25.4744ZM12.6406 26.8741H29.3594V27.6553H12.6406V26.8741ZM30.2188 29.2178H11.7812V28.4366H30.2188V29.2178Z" fill="#FF4F32"/>
<path d="M28.5 21.2891C28.3973 21.2891 28.2964 21.3309 28.2238 21.4035C28.1512 21.4761 28.1094 21.577 28.1094 21.6797C28.1094 21.7824 28.1512 21.8832 28.2238 21.9559C28.2964 22.0285 28.3973 22.0703 28.5 22.0703C28.6027 22.0703 28.7036 22.0285 28.7762 21.9559C28.8488 21.8832 28.8906 21.7824 28.8906 21.6797C28.8906 21.577 28.8488 21.4761 28.7762 21.4035C28.7036 21.3309 28.6027 21.2891 28.5 21.2891Z" fill="#FF4F32"/>
</g>
<circle cx="21.5" cy="21.5" r="18" stroke="#FF4F32"/>
<circle cx="21.5" cy="21.5" r="20.5" stroke="#FF4F32" stroke-width="2"/>
<defs>
<clipPath id="clip0">
<rect width="20" height="20" fill="white" transform="translate(11 10)"/>
</clipPath>
</defs>
</svg>
