<svg width="98" height="98" viewBox="0 0 98 98" fill="none" xmlns="http://www.w3.org/2000/svg">
<rect y="48.9512" width="69.2284" height="69.2284" rx="34.6142" transform="rotate(-45 0 48.9512)" fill="#FF4F32"/>
<path d="M61.2494 56.0098C60.3453 56.0098 59.4865 56.3748 58.8385 57.0349C58.1906 57.7027 57.829 58.5725 57.829 59.5044C57.829 60.4363 58.1831 61.3061 58.8385 61.9739C59.494 62.634 60.3453 62.999 61.2494 62.999C63.1028 62.999 64.6097 61.4303 64.6097 59.5044C64.6097 57.5785 63.1028 56.0098 61.2494 56.0098ZM61.2494 61.4459C60.2097 61.4459 59.3358 60.5606 59.3358 59.5044C59.3358 58.4482 60.2097 57.5629 61.2494 57.5629C62.2741 57.5629 63.1028 58.4327 63.1028 59.5044C63.1028 60.5761 62.2741 61.4459 61.2494 61.4459ZM62.1234 44.3688C61.9878 44.2368 61.807 44.1669 61.6186 44.1669H57.7536C57.3392 44.1669 57.0002 44.5163 57.0002 44.9435V51.3114C57.0002 51.7386 57.3392 52.088 57.7536 52.088H63.8864C64.3008 52.088 64.6398 51.7386 64.6398 51.3114V47.048C64.6398 46.8306 64.5494 46.6209 64.3912 46.4733L62.1234 44.3688ZM63.133 50.5349H58.507V45.7123H61.3248L63.133 47.3897V50.5349ZM42.8512 56.0098C41.9471 56.0098 41.0882 56.3748 40.4402 57.0349C39.7923 57.7027 39.4307 58.5725 39.4307 59.5044C39.4307 60.4363 39.7848 61.3061 40.4402 61.9739C41.0957 62.634 41.9471 62.999 42.8512 62.999C44.7045 62.999 46.2114 61.4303 46.2114 59.5044C46.2114 57.5785 44.7045 56.0098 42.8512 56.0098ZM42.8512 61.4459C41.8114 61.4459 40.9375 60.5606 40.9375 59.5044C40.9375 58.4482 41.8114 57.5629 42.8512 57.5629C43.8758 57.5629 44.7045 58.4327 44.7045 59.5044C44.7045 60.5761 43.8758 61.4459 42.8512 61.4459ZM37.8259 56.965H36.3115V54.8993C36.3115 54.4721 35.9725 54.1227 35.5581 54.1227C35.1438 54.1227 34.8047 54.4721 34.8047 54.8993V57.7416C34.8047 58.1687 35.1438 58.5181 35.5581 58.5181H37.8259C38.2403 58.5181 38.5793 58.1687 38.5793 57.7416C38.5793 57.3144 38.2403 56.965 37.8259 56.965ZM41.6457 52.7326C41.6457 52.3055 41.3067 51.956 40.8923 51.956H31.7534C31.339 51.956 31 52.3055 31 52.7326C31 53.1597 31.339 53.5092 31.7534 53.5092H40.8923C41.3067 53.5092 41.6457 53.1675 41.6457 52.7326ZM33.2828 49.9291L42.4217 49.9835C42.8361 49.9835 43.1751 49.6418 43.1827 49.2147C43.1902 48.7798 42.8512 48.4303 42.4368 48.4303L33.2979 48.376C33.2904 48.376 33.2904 48.376 33.2904 48.376C32.876 48.376 32.537 48.7177 32.537 49.1448C32.5294 49.5797 32.8685 49.9291 33.2828 49.9291ZM34.8198 46.4034H43.9587C44.373 46.4034 44.7121 46.054 44.7121 45.6269C44.7121 45.1997 44.373 44.8503 43.9587 44.8503H34.8198C34.4054 44.8503 34.0664 45.1997 34.0664 45.6269C34.0664 46.054 34.4054 46.4034 34.8198 46.4034ZM67.7212 45.3551L62.3268 40.7499C62.1912 40.6334 62.0255 40.5713 61.8446 40.5713H55.5009V37.7756C55.5009 37.3485 55.1619 36.999 54.7475 36.999H35.5581C35.1438 36.999 34.8047 37.3485 34.8047 37.7756V43.4602C34.8047 43.8873 35.1438 44.2368 35.5581 44.2368C35.9725 44.2368 36.3115 43.8873 36.3115 43.4602V38.5522H54.0016V56.965H47.8237C47.4093 56.965 47.0703 57.3144 47.0703 57.7416C47.0703 58.1687 47.4093 58.5181 47.8237 58.5181H57.0228C57.4372 58.5181 57.7762 58.1687 57.7762 57.7416C57.7762 57.3144 57.4372 56.965 57.0228 56.965H55.5084V42.1245H61.5809L66.4932 46.318L66.4404 56.9494H65.6569C65.2425 56.9494 64.9035 57.2989 64.9035 57.726C64.9035 58.1531 65.2425 58.5026 65.6569 58.5026H67.1863C67.6007 58.5026 67.9397 58.1609 67.9397 57.7338L68 45.9608C67.9925 45.7278 67.8945 45.5026 67.7212 45.3551Z" fill="white"/>
</svg>
