<svg width="108" height="108" viewBox="0 0 108 108" fill="none" xmlns="http://www.w3.org/2000/svg">
<circle cx="54" cy="54" r="54" fill="#008E64"/>
<g clip-path="url(#clip0)">
<path d="M71.1748 51.5335C71.66 51.5335 72.0537 51.1403 72.0537 50.6546V48.6812C72.0537 48.1955 71.66 47.8022 71.1748 47.8022C70.6891 47.8022 70.2959 48.1955 70.2959 48.6812V50.6546C70.2959 51.1403 70.6891 51.5335 71.1748 51.5335Z" fill="white"/>
<path d="M80.9691 51.683H78.5571C77.9396 49.2651 76.8107 46.9653 75.2681 44.9933C73.714 43.007 71.7323 41.3412 69.5131 40.1515V33.7735C69.5131 33.2407 69.2833 32.7335 68.8823 32.3819C68.4827 32.0313 67.9517 31.8697 67.4248 31.9388C63.9668 32.3961 61.1145 34.7472 59.9884 38.0064H59.061C59.0752 37.8073 59.0825 37.6073 59.0825 37.4054C59.0825 32.9601 55.4671 29.3438 51.0227 29.3438C46.5774 29.3438 42.961 32.9601 42.961 37.4054C42.961 38.0211 43.0325 38.6281 43.1689 39.2163C39.9577 40.444 37.1685 42.531 35.0656 45.2885C34.7712 45.6744 34.8454 46.226 35.2317 46.5204C35.3906 46.6417 35.5778 46.7003 35.7636 46.7003C36.0287 46.7003 36.2901 46.5813 36.4636 46.3547C38.3573 43.8713 40.8645 41.989 43.7511 40.8757C44.1439 41.696 44.6731 42.449 45.3181 43.0981C45.2261 43.1215 45.1345 43.1462 45.0429 43.1714C44.5751 43.3009 44.3009 43.7848 44.43 44.2531C44.538 44.6422 44.8914 44.8976 45.2769 44.8976C45.3542 44.8976 45.4334 44.8871 45.5117 44.8656C46.1631 44.6852 46.8314 44.5566 47.4979 44.4829C48.5009 44.3725 47.9186 44.406 58.1111 44.405C58.5968 44.405 58.9901 44.0118 58.9901 43.5261C58.9901 43.0409 58.5968 42.6472 58.1111 42.6472H57.1531C57.8754 41.8063 58.4137 40.8263 58.7355 39.7643H60.6385C61.0372 39.7643 61.386 39.496 61.4881 39.1106C62.258 36.2061 64.6787 34.0752 67.6541 33.682C67.6637 33.6801 67.693 33.6769 67.7232 33.7035C67.7448 33.7222 67.7553 33.7456 67.7553 33.774V40.6866C67.7553 41.0204 67.9439 41.3252 68.2428 41.4735C72.6968 43.6882 75.9707 47.9019 77.0007 52.7455C77.0868 53.1511 77.4452 53.4413 77.8604 53.4413H80.9691C81.4177 53.4413 81.7825 53.8061 81.7825 54.2543V60.7595C81.7825 61.2072 81.4177 61.5716 80.9691 61.5716H77.5999C76.927 61.5716 76.32 61.9726 76.0531 62.5952C75.7918 63.2086 75.4896 63.8137 75.1546 64.3928C74.911 64.8126 75.0543 65.3504 75.4745 65.5935C75.6132 65.6741 75.7648 65.7121 75.914 65.7121C76.2175 65.7121 76.5127 65.5546 76.6752 65.2735C77.0387 64.6464 77.3669 63.9918 77.6507 63.3294H80.9691C82.3867 63.3294 83.5403 62.1768 83.5403 60.7595V54.2543C83.5403 52.8366 82.3867 51.683 80.9691 51.683ZM47.6082 42.7054C45.8193 41.5491 44.7184 39.5432 44.7184 37.4054C44.7184 33.9296 47.5465 31.102 51.0222 31.102C54.4976 31.102 57.3247 33.9296 57.3247 37.4054C57.3247 37.8284 57.2835 38.2436 57.2034 38.6469C57.1929 38.6853 57.1846 38.7247 57.1791 38.765C56.8354 40.3424 55.8979 41.7299 54.5227 42.6472C49.0717 42.6656 48.7256 42.6051 47.6082 42.7054Z" fill="white"/>
<path d="M74.3032 67.1873C73.9452 66.86 73.389 66.8847 73.0617 67.2432C72.2661 68.1129 71.3753 68.8993 70.414 69.58C70.1892 69.7389 70.0519 69.9939 70.0432 70.269C69.9814 72.2007 69.7869 74.3522 69.4651 76.663C69.26 78.1361 67.9874 79.242 66.501 79.242H66.485C65.0289 79.2342 63.7728 78.1242 63.5361 76.6479C63.3791 75.5154 63.2523 74.4177 63.1585 73.3845C63.1081 72.8384 63.0665 72.3097 63.034 71.8125C62.9996 71.2751 62.9744 70.7492 62.9584 70.2493C62.9433 69.7641 62.5327 69.38 62.0525 69.3988C61.5673 69.4139 61.1864 69.8199 61.2015 70.3047C61.218 70.8233 61.2441 71.3685 61.2798 71.9252C61.2935 72.1389 61.3091 72.3582 61.3265 72.5816C61.2006 72.5843 61.0752 72.5862 60.9511 72.5862H49.53C48.9427 72.5862 48.3329 72.5518 47.7168 72.4841C47.4819 72.458 47.2466 72.528 47.064 72.6777C46.8813 72.8269 46.7665 73.0439 46.7454 73.2792C46.6474 74.371 46.5161 75.5094 46.3554 76.663C46.1508 78.1333 44.8768 79.242 43.3918 79.242C41.9073 79.242 40.6329 78.1333 40.4283 76.663C40.4246 76.6387 40.4214 76.6145 40.4182 76.5902C40.4168 76.5815 40.4155 76.5724 40.4145 76.5637C40.4132 76.5554 40.4123 76.5472 40.4109 76.5389C40.2369 75.2714 40.0364 73.5649 39.922 71.7585C39.6959 68.1111 39.9476 65.9166 40.1655 64.7923C40.2575 64.3158 39.9462 63.8548 39.4697 63.7623C38.9927 63.6703 38.5318 63.9816 38.4398 64.4581C38.2338 65.5215 38.1248 66.7035 38.0864 67.9348C34.9209 64.8655 33.1311 60.6889 33.1192 56.2198C33.1187 56.1475 33.1192 56.0756 33.1201 56.0033C33.1201 56.0028 33.1201 56.0023 33.1201 56.0019C33.1201 55.9936 33.1201 55.9854 33.1201 55.9772C33.148 53.6783 33.6575 51.4545 34.6371 49.3634C34.8431 48.9235 34.6536 48.4003 34.2141 48.1943C33.7742 47.9888 33.2515 48.1783 33.0455 48.6177C32.0814 50.6758 31.5275 52.8502 31.3934 55.0955C28.8597 55.1358 27.0785 55.6741 25.8247 56.7668C24.5663 57.8664 24.0637 59.4351 24.5137 60.8619C25.1852 62.9905 27.6572 63.7047 29.1577 62.1734C29.6947 61.6255 29.951 60.9086 29.8613 60.206C29.7995 59.7244 29.36 59.3847 28.878 59.4456C28.3964 59.507 28.0559 59.9473 28.1177 60.4289C28.1479 60.6642 27.9771 60.867 27.9025 60.943C27.7052 61.1444 27.4255 61.2584 27.1907 61.2332C26.7261 61.1833 26.3525 60.8468 26.1905 60.3332C25.9502 59.5715 26.2459 58.7334 26.9806 58.0916C27.8865 57.3015 29.3275 56.895 31.3737 56.8547C31.566 62.1139 33.9866 66.9584 38.0905 70.2859C38.1578 72.4525 38.3867 74.7505 38.6869 76.9051C39.012 79.2397 41.0348 80.9998 43.3918 80.9998C45.7488 80.9998 47.7712 79.2397 48.0963 76.9051C48.2185 76.0272 48.3242 75.157 48.4116 74.3083C48.7898 74.3321 49.1633 74.344 49.53 74.344H60.9507C61.1269 74.344 61.305 74.3412 61.484 74.3362C61.5682 75.1492 61.6689 75.9823 61.7847 76.8214C61.7884 76.8488 61.7925 76.8768 61.7971 76.9042V76.9051C61.7985 76.9138 61.7998 76.9225 61.8012 76.9312C62.1747 79.2461 64.1651 80.9875 66.4754 80.9998C66.4841 80.9998 66.4924 81.0003 66.501 80.9998C68.8599 80.9998 70.88 79.2439 71.2059 76.9056C71.5126 74.7029 71.7067 72.637 71.7841 70.7569C72.7129 70.0653 73.5771 69.2839 74.3585 68.4292C74.6863 68.0708 74.6616 67.5151 74.3032 67.1873Z" fill="white"/>
<path d="M51.6293 36.5258H50.4148C50.1489 36.5258 49.9323 36.3093 49.9323 36.0434C49.9323 35.7779 50.1489 35.5613 50.4148 35.5613H52.7389C53.2246 35.5613 53.6178 35.1681 53.6178 34.6824C53.6178 34.1972 53.2246 33.8035 52.7389 33.8035H52.0316V33.3687C52.0316 32.883 51.6384 32.4897 51.1527 32.4897C50.6675 32.4897 50.2738 32.883 50.2738 33.3687V33.8081C49.1042 33.8809 48.1745 34.8559 48.1745 36.0438C48.1745 37.2789 49.1793 38.2837 50.4148 38.2837H51.6293C51.8948 38.2837 52.1113 38.5002 52.1113 38.7657C52.1113 39.0316 51.8948 39.2477 51.6293 39.2477H49.3047C48.8195 39.2477 48.4258 39.6414 48.4258 40.1266C48.4258 40.6123 48.8195 41.0055 49.3047 41.0055H50.2738V41.4409C50.2738 41.9261 50.6675 42.3198 51.1527 42.3198C51.6384 42.3198 52.0316 41.9261 52.0316 41.4409V40.9694C53.0753 40.7794 53.8691 39.8634 53.8691 38.7657C53.8691 37.5306 52.8643 36.5258 51.6293 36.5258Z" fill="white"/>
<path d="M35.1635 37.122C39.6084 37.122 43.2248 33.5061 43.2248 29.0608C43.2248 24.6159 39.6084 21 35.1635 21C33.5486 21 31.9899 21.4761 30.6559 22.3774C30.2536 22.6489 30.1478 23.195 30.4197 23.5974C30.6912 23.9997 31.2378 24.1055 31.6401 23.834C32.682 23.13 33.9006 22.7578 35.1635 22.7578C38.6393 22.7578 41.4669 25.5854 41.4669 29.0608C41.4669 32.5366 38.6393 35.3642 35.1635 35.3642C31.6882 35.3642 28.8606 32.5366 28.8606 29.0608C28.8606 28.0528 29.0913 27.0901 29.5459 26.1993C29.7665 25.7672 29.5953 25.2375 29.1627 25.0169C28.7306 24.7962 28.2014 24.9674 27.9803 25.4C27.4063 26.5243 27.1028 27.7905 27.1028 29.0608C27.1028 33.5061 30.7187 37.122 35.1635 37.122Z" fill="white"/>
<path d="M35.2945 24.1465C34.8092 24.1465 34.4156 24.5397 34.4156 25.0254V25.4648C33.246 25.5376 32.3167 26.5127 32.3167 27.7006C32.3167 28.9356 33.321 29.9404 34.5565 29.9404H35.771C36.0365 29.9404 36.253 30.1565 36.253 30.4224C36.253 30.6884 36.0365 30.9044 35.771 30.9044H33.4469C32.9612 30.9044 32.568 31.2977 32.568 31.7834C32.568 32.269 32.9612 32.6623 33.4469 32.6623H34.416V33.0971C34.416 33.5828 34.8092 33.976 35.2949 33.976C35.7802 33.976 36.1738 33.5828 36.1738 33.0971V32.6261C37.2171 32.4361 38.0108 31.5201 38.0108 30.4224C38.0108 29.1874 37.006 28.1826 35.771 28.1826H34.5565C34.2906 28.1826 34.0745 27.9661 34.0745 27.7006C34.0745 27.4346 34.2906 27.2185 34.5565 27.2185H36.8806C37.3663 27.2185 37.7595 26.8249 37.7595 26.3396C37.7595 25.8539 37.3663 25.4607 36.8806 25.4607H36.1738V25.0254C36.1734 24.5397 35.7802 24.1465 35.2945 24.1465Z" fill="white"/>
</g>
<defs>
<clipPath id="clip0">
<rect width="60" height="60" fill="white" transform="translate(24 21)"/>
</clipPath>
</defs>
</svg>
