<svg width="17" height="19" viewBox="0 0 17 19" fill="none" xmlns="http://www.w3.org/2000/svg">
<path d="M16.4749 4.89058C16.4522 4.39073 16.4522 3.9136 16.4522 3.43647C16.4522 3.05022 16.1569 2.75486 15.7706 2.75486C12.9306 2.75486 10.7721 1.93692 8.9772 0.187444C8.70455 -0.0624813 8.29558 -0.0624813 8.02294 0.187444C6.22802 1.93692 4.06958 2.75486 1.22952 2.75486C0.843269 2.75486 0.547903 3.05022 0.547903 3.43647C0.547903 3.9136 0.547903 4.39073 0.525183 4.89058C0.434301 9.66188 0.297978 16.2054 8.27286 18.9546L8.50007 19L8.72727 18.9546C16.6794 16.2054 16.5658 9.6846 16.4749 4.89058ZM7.95477 11.5022C7.81845 11.6158 7.65941 11.684 7.47764 11.684H7.45492C7.27316 11.684 7.0914 11.5931 6.97779 11.4568L4.86479 9.11659L5.88721 8.20777L7.54581 10.0481L11.2265 6.54918L12.1581 7.54888L7.95477 11.5022Z" fill="black"/>
</svg>
