<svg width="19" height="19" viewBox="0 0 19 19" fill="none" xmlns="http://www.w3.org/2000/svg">
<path d="M3.52539 4.49023C3.21846 4.49023 2.96875 4.73994 2.96875 5.04688C2.96875 5.35381 3.21846 5.60352 3.52539 5.60352C3.83232 5.60352 4.08203 5.35381 4.08203 5.04688C4.08203 4.73994 3.83232 4.49023 3.52539 4.49023Z" fill="black"/>
<path d="M3.52539 8.94336C3.21846 8.94336 2.96875 9.19307 2.96875 9.5C2.96875 9.80693 3.21846 10.0566 3.52539 10.0566C3.83232 10.0566 4.08203 9.80693 4.08203 9.5C4.08203 9.19307 3.83232 8.94336 3.52539 8.94336Z" fill="black"/>
<path d="M15.1035 0H3.89648C1.74796 0 0 1.74796 0 3.89648V15.1035C0 17.252 1.74796 19 3.89648 19H15.1035C17.252 19 19 17.252 19 15.1035V3.89648C19 1.74796 17.252 0 15.1035 0ZM6.30859 2.22656H17.3286C17.5722 2.55034 17.7469 2.92875 17.8307 3.33984H6.30859V2.22656ZM3.52539 15.623C2.6046 15.623 1.85547 14.8739 1.85547 13.9531C1.85547 13.0323 2.6046 12.2832 3.52539 12.2832C4.44619 12.2832 5.19531 13.0323 5.19531 13.9531C5.19531 14.8739 4.44619 15.623 3.52539 15.623ZM3.52539 11.1699C2.6046 11.1699 1.85547 10.4208 1.85547 9.5C1.85547 8.57921 2.6046 7.83008 3.52539 7.83008C4.44619 7.83008 5.19531 8.57921 5.19531 9.5C5.19531 10.4208 4.44619 11.1699 3.52539 11.1699ZM3.52539 6.7168C2.6046 6.7168 1.85547 5.96767 1.85547 5.04688C1.85547 4.12608 2.6046 3.37695 3.52539 3.37695C4.44619 3.37695 5.19531 4.12608 5.19531 5.04688C5.19531 5.96767 4.44619 6.7168 3.52539 6.7168ZM17.3286 16.7734H6.30859V15.6602H17.8307C17.7469 16.0713 17.5722 16.4497 17.3286 16.7734ZM17.8867 12.2832H6.30859V11.1699H17.8867V12.2832ZM17.8867 7.83008H6.30859V6.7168H17.8867V7.83008Z" fill="black"/>
<path d="M3.52539 13.3965C3.21846 13.3965 2.96875 13.6462 2.96875 13.9531C2.96875 14.2601 3.21846 14.5098 3.52539 14.5098C3.83232 14.5098 4.08203 14.2601 4.08203 13.9531C4.08203 13.6462 3.83232 13.3965 3.52539 13.3965Z" fill="black"/>
</svg>
