<svg width="11" height="20" viewBox="0 0 11 20" fill="none" xmlns="http://www.w3.org/2000/svg">
<path d="M9.23596 12.5034C8.85497 11.9068 8.34855 11.4004 7.752 11.0194V2.62296C7.752 1.17432 6.57768 0 5.12905 0C3.68041 0 2.50609 1.17432 2.50609 2.62296V11.0194C0.237895 12.468 -0.426512 15.4811 1.02213 17.7493C2.47076 20.0175 5.48381 20.6819 7.752 19.2332C10.0202 17.7846 10.6846 14.7716 9.23596 12.5034ZM7.68456 15.3634C7.50224 16.6347 6.41149 17.5775 5.12718 17.574V17.5703C3.70432 17.5742 2.54766 16.4239 2.5437 15.001C2.54016 13.7167 3.48303 12.626 4.75434 12.4437V6.79135C4.75434 6.58545 4.92128 6.41851 5.12718 6.41851C5.33308 6.41851 5.50002 6.58545 5.50002 6.79135V12.4474C6.90849 12.6494 7.88655 13.9549 7.68456 15.3634Z" fill="black"/>
</svg>
