<svg width="19" height="19" viewBox="0 0 19 19" fill="none" xmlns="http://www.w3.org/2000/svg">
<g clip-path="url(#clip0)">
<path d="M16.746 13.1572C19.7519 10.1513 19.7518 5.26018 16.746 2.25422C13.74 -0.751733 8.84902 -0.751733 5.84312 2.25422C3.29298 4.80437 2.90676 8.59708 4.68342 11.5588C4.68342 11.5588 4.81104 11.7729 4.63868 11.9451C3.65539 12.9284 0.705311 15.8785 0.705311 15.8785C-0.0775931 16.6613 -0.26397 17.756 0.430306 18.4504L0.549844 18.5698C1.24412 19.2642 2.33888 19.0779 3.12172 18.295C3.12172 18.295 6.06555 15.3511 7.04683 14.3699C7.22745 14.1893 7.44149 14.3169 7.44149 14.3169C10.4031 16.0935 14.1959 15.7074 16.746 13.1572ZM7.26644 11.7338C5.04534 9.51275 5.04541 5.89882 7.2665 3.67772C9.48759 1.45669 13.1015 1.45663 15.3226 3.67772C17.5437 5.89876 17.5437 9.51275 15.3226 11.7338C13.1015 13.9548 9.48759 13.9548 7.26644 11.7338Z" fill="black"/>
<path d="M7.75798 7.24848C7.6546 7.24848 7.5495 7.22816 7.44821 7.18538C7.04356 7.01412 6.85425 6.54723 7.02551 6.14253C8.1019 3.59881 11.047 2.40508 13.5907 3.48147C13.9953 3.65273 14.1846 4.11962 14.0134 4.52433C13.8421 4.92903 13.3753 5.11822 12.9705 4.94702C11.235 4.21266 9.22542 5.02714 8.49112 6.76262C8.36264 7.06615 8.06799 7.24848 7.75798 7.24848Z" fill="black"/>
</g>
<defs>
<clipPath id="clip0">
<rect width="19" height="19" fill="white"/>
</clipPath>
</defs>
</svg>
