<svg width="80" height="80" viewBox="0 0 80 80" fill="none" xmlns="http://www.w3.org/2000/svg">
<circle cx="40" cy="40" r="38.5" stroke="#00AA63" stroke-width="3"/>
<path d="M33.9249 32.5355C29.5405 31.6058 24.9021 31.4765 20.1386 32.1514C19.1183 32.296 18.2237 32.8344 17.6195 33.6678C17.0181 34.4972 16.7853 35.5091 16.964 36.5169C17.0453 36.9756 17.1256 37.4043 17.2025 37.7911C17.5503 39.5389 17.9275 41.1146 18.3239 42.4744C18.9288 44.5496 20.599 46.1023 22.6843 46.5269L22.8279 46.5558C23.6151 46.7108 24.418 46.7894 25.2142 46.7894C30.5241 46.7894 35.2423 43.3919 36.9549 38.335L37.059 38.0275C37.4452 36.8853 37.3244 35.6297 36.7276 34.5823C36.1298 33.5323 35.1081 32.7863 33.9249 32.5355ZM35.9203 37.6495L35.8186 37.9499C34.2711 42.5193 30.0096 45.5894 25.2143 45.5894C24.4957 45.5894 23.771 45.5183 23.0623 45.3788L22.9224 45.3507C21.2764 45.0157 19.9557 43.7847 19.476 42.1385C19.0893 40.8121 18.7205 39.2706 18.3794 37.5568C18.3041 37.1782 18.2254 36.7579 18.1456 36.3076C18.0243 35.623 18.1824 34.9356 18.591 34.3721C19.0023 33.8047 19.6118 33.4381 20.3068 33.3396C24.931 32.6845 29.429 32.809 33.6759 33.7094C34.5242 33.8893 35.2565 34.424 35.6852 35.1762C36.1125 35.9261 36.1991 36.8252 35.9203 37.6495Z" fill="black"/>
<path d="M33.5464 34.3201C31.146 33.8111 28.624 33.553 26.0504 33.553C25.3682 33.553 24.6701 33.5717 23.9755 33.6085C23.6446 33.6261 23.3906 33.9085 23.4081 34.2395C23.4256 34.5704 23.7089 34.8239 24.039 34.8068C24.7126 34.7711 25.3892 34.7529 26.0504 34.7529C28.5405 34.7529 30.9786 35.0023 33.2976 35.4939C33.6417 35.5669 33.9267 35.7747 34.1002 36.0791C34.2723 36.3812 34.3057 36.7289 34.1943 37.0583C34.0881 37.3722 34.2566 37.7128 34.5705 37.8188C34.6342 37.8404 34.699 37.8506 34.7627 37.8506C35.0129 37.8506 35.2464 37.6928 35.331 37.4426C35.5537 36.7841 35.4869 36.089 35.1429 35.485C34.7973 34.8788 34.2303 34.4651 33.5464 34.3201Z" fill="#00AA63"/>
<path d="M63.7973 37.7909C63.8741 37.4045 63.9543 36.9758 64.0357 36.5167C64.2144 35.5089 63.9816 34.497 63.3803 33.6677C62.7761 32.8343 61.8814 32.2958 60.8611 32.1513C56.0976 31.4766 51.4592 31.6058 47.0749 32.5354C45.8917 32.7862 44.87 33.5322 44.2719 34.582C43.6752 35.6295 43.5545 36.8851 43.9405 38.027L44.0446 38.3348C45.7571 43.3917 50.4755 46.7892 55.7854 46.7892C56.5816 46.7892 57.3843 46.7106 58.1738 46.5551L58.3166 46.5264C60.4004 46.1022 62.0708 44.5495 62.6756 42.4743C63.0719 41.1153 63.4493 39.5397 63.7973 37.7909ZM61.5238 42.1384C61.044 43.7846 59.7234 45.0154 58.0789 45.3502L57.9397 45.3782C57.2288 45.5182 56.504 45.5893 55.7855 45.5893C50.9902 45.5893 46.7287 42.5193 45.1812 37.9498L45.0774 37.6428C44.8009 36.825 44.8874 35.9259 45.3147 35.1759C45.7433 34.4235 46.4758 33.889 47.324 33.7091C49.785 33.1873 52.3297 32.9261 54.935 32.9261C56.8256 32.9261 58.7484 33.0637 60.693 33.3392C61.3881 33.4378 61.9976 33.8045 62.4089 34.3718C62.8175 34.9353 62.9758 35.6227 62.8545 36.307C62.7744 36.7578 62.6957 37.1783 62.6205 37.5564C62.2792 39.2714 61.9102 40.8128 61.5238 42.1384Z" fill="black"/>
<path d="M60.6054 33.9576C58.7098 33.6892 56.8069 33.553 54.9494 33.553C54.2298 33.553 53.5045 33.5735 52.7938 33.6139C52.4629 33.6328 52.2101 33.9162 52.2288 34.247C52.2477 34.5779 52.5306 34.8315 52.8619 34.812C53.55 34.7729 54.2523 34.7529 54.9494 34.7529C56.7507 34.7529 58.597 34.8851 60.437 35.1457C60.6378 35.1741 60.8134 35.2796 60.9318 35.4428C61.0489 35.6043 61.0924 35.7931 61.0579 35.9887C61 36.3149 61.2176 36.6263 61.544 36.6842C61.5794 36.6904 61.6145 36.6935 61.6493 36.6935C61.9348 36.6935 62.1879 36.4889 62.2394 36.1982C62.3309 35.6819 62.2115 35.1636 61.9032 34.7385C61.5922 34.3093 61.1313 34.032 60.6054 33.9576Z" fill="#00AA63"/>
<path d="M68.8598 49.191L64.2041 43.6369C64.2873 43.4242 64.3625 43.207 64.4273 42.9847C65.3535 39.8072 65.9494 36.2644 66.1526 34.9608H67.339C67.6704 34.9608 67.9389 34.6922 67.9389 34.3609V31.4418C67.9389 31.1759 67.7639 30.9417 67.5087 30.8663C56.3649 27.5789 47.7735 29.3616 43.6445 30.7171C41.5874 31.3923 39.4127 31.3924 37.3554 30.7171C33.2263 29.3617 24.6354 27.5788 13.4911 30.8663C13.2359 30.9416 13.0609 31.1759 13.0609 31.4418V34.3609C13.0609 34.6922 13.3295 34.9608 13.6609 34.9608H14.8473C15.0504 36.2644 15.6464 39.8072 16.5726 42.9848C16.6374 43.2071 16.7125 43.4243 16.7957 43.637L12.1401 49.191C12.0275 49.3255 11.9792 49.5027 12.0083 49.6758C12.0374 49.8489 12.1407 50.0006 12.2913 50.0909C12.953 50.4879 13.6835 50.6811 14.4076 50.6811C15.4948 50.6811 16.5669 50.245 17.3674 49.4075L19.549 47.1247C20.3851 47.7032 21.343 48.1176 22.3784 48.326L22.4755 48.3453C23.385 48.5246 24.2937 48.6111 25.1931 48.611C30.431 48.6107 35.3201 45.6729 37.7869 41.0036L42.8687 40.2997C45.2013 45.3754 50.3108 48.6112 55.807 48.611C56.7058 48.611 57.6153 48.5245 58.5244 48.3453L58.6088 48.3285C59.649 48.1196 60.6109 47.704 61.45 47.1235L63.6326 49.4074C64.4331 50.245 65.5052 50.681 66.5925 50.681C67.3164 50.681 68.047 50.4876 68.7087 50.0908C68.8593 50.0004 68.9626 49.8487 68.9917 49.6757C69.0207 49.5027 68.9725 49.3255 68.8598 49.191ZM16.4998 48.5786C15.7268 49.3873 14.596 49.6669 13.5683 49.3552L17.3758 44.813C17.7221 45.385 18.1398 45.9054 18.6172 46.363L16.4998 48.5786ZM38.3866 39.7092C38.4918 39.45 38.5924 39.1878 38.6831 38.92C38.9911 38.0104 39.263 37.2028 39.4669 36.5953C39.616 36.1512 40.0311 35.8528 40.4998 35.8528C40.9685 35.8528 41.3837 36.1512 41.5328 36.5953C41.7366 37.2027 42.0086 38.0103 42.3166 38.9199C42.3432 38.9985 42.373 39.0753 42.4008 39.1531L38.3866 39.7092ZM58.3731 47.1521L58.2925 47.168C51.9245 48.4232 45.5452 44.7116 43.4532 38.535C43.1456 37.6267 42.8742 36.8201 42.6706 36.2135C42.3571 35.28 41.4849 34.6529 40.5 34.6529C39.515 34.6529 38.6427 35.2802 38.3295 36.2135C38.1258 36.8201 37.8543 37.6267 37.5466 38.535C35.4547 44.7117 29.075 48.4231 22.7073 47.168L22.6154 47.1497C20.2702 46.6776 18.3963 44.9531 17.7246 42.6491C16.5942 38.7708 15.9641 34.3222 15.9578 34.2777C15.9163 33.9814 15.6629 33.7609 15.3636 33.7609H14.2608V31.8926C24.8827 28.8677 33.0379 30.5626 36.9811 31.8572C39.2832 32.613 41.7168 32.6128 44.0187 31.8572C47.9619 30.5629 56.1175 28.8679 66.739 31.8926V33.7609H65.6362C65.3371 33.7609 65.0835 33.9813 65.042 34.2777C65.0358 34.3222 64.4066 38.7678 63.2754 42.649C62.6033 44.9543 60.7247 46.6799 58.3731 47.1521ZM64.5001 48.5786L62.3819 46.3621C62.8594 45.9046 63.2773 45.3844 63.6238 44.8126L67.4316 49.3553C66.4041 49.6671 65.273 49.3873 64.5001 48.5786Z" fill="black"/>
</svg>
