<svg width="108" height="108" viewBox="0 0 108 108" fill="none" xmlns="http://www.w3.org/2000/svg">
<circle cx="54" cy="54" r="54" fill="#008E64"/>
<path d="M82.1406 38.25H79.2812V37.2969C79.2812 37.0441 79.1808 36.8017 79.0021 36.6229C78.8233 36.4442 78.5809 36.3438 78.3281 36.3438H69.1146L65.5562 33.675C65.3913 33.5513 65.1906 33.4844 64.9844 33.4844H63.2617L63.4321 33.4162C63.609 33.3455 63.7606 33.2234 63.8674 33.0656C63.9742 32.9079 64.0313 32.7217 64.0312 32.5312C64.0308 31.0147 63.4282 29.5603 62.3558 28.488C61.2834 27.4156 59.8291 26.8129 58.3125 26.8125H51.6406V28.7188H58.3125C59.2152 28.7194 60.0884 29.04 60.7771 29.6236C61.4658 30.2071 61.9254 31.0159 62.0742 31.9062L58.1289 33.4844H51.7598C51.2266 33.4847 50.7032 33.628 50.2443 33.8995C49.7853 34.171 49.4076 34.5606 49.1506 35.0277L44.9688 32.0407V28.7188H49.7344V26.8125H40.2031C39.9503 26.8125 39.7079 26.9129 39.5292 27.0917C39.3504 27.2704 39.25 27.5128 39.25 27.7656V32.5312C39.25 32.784 39.3504 33.0265 39.5292 33.2052C39.7079 33.384 39.9503 33.4844 40.2031 33.4844H41.1562C40.3979 33.4844 39.6706 33.7856 39.1344 34.3219C38.5981 34.8581 38.2969 35.5854 38.2969 36.3438C38.2969 37.1021 38.5981 37.8294 39.1344 38.3656C39.6706 38.9019 40.3979 39.2031 41.1562 39.2031H43.0625V43.0156C43.0625 43.2684 43.1629 43.5108 43.3417 43.6896C43.5204 43.8683 43.7628 43.9688 44.0156 43.9688H44.1796C44.0082 44.4523 43.9703 44.973 44.07 45.4763C44.1697 45.9795 44.4033 46.4465 44.7461 46.8281C44.2758 47.3517 44.0156 48.0306 44.0156 48.7344C44.0156 49.4381 44.2758 50.1171 44.7461 50.6406C44.4786 50.9386 44.2767 51.2895 44.1537 51.6705C44.0307 52.0516 43.9892 52.4542 44.032 52.8524C44.0748 53.2505 44.2008 53.6351 44.402 53.9814C44.6032 54.3276 44.8749 54.6276 45.1996 54.8619C44.6264 56.1934 44.1297 57.5566 43.7119 58.9447L45.5376 59.4928C45.9559 58.1016 46.4577 56.737 47.0402 55.4062H51.6406C52.1928 55.4066 52.7332 55.247 53.1965 54.9468C53.6599 54.6465 54.0263 54.2184 54.2515 53.7143C54.4767 53.2102 54.5511 52.6516 54.4655 52.1061C54.38 51.5606 54.1383 51.0516 53.7695 50.6406C54.2398 50.1171 54.5 49.4381 54.5 48.7344C54.5 48.0306 54.2398 47.3517 53.7695 46.8281C54.2398 46.3046 54.5 45.6256 54.5 44.9219C54.5 44.2181 54.2398 43.5392 53.7695 43.0156H57.5683L58.31 45.981C58.9813 48.6656 59.9443 51.2687 61.1819 53.7438C62.4274 56.2368 63.3801 58.8656 64.0211 61.5777C64.661 64.2897 64.9843 67.0668 64.9844 69.8532V78.2812C64.9838 78.7866 64.7827 79.2712 64.4254 79.6285C64.068 79.9859 63.5835 80.1869 63.0781 80.1875H45.9219C45.4165 80.1869 44.932 79.9859 44.5746 79.6285C44.2173 79.2712 44.0162 78.7866 44.0156 78.2812V69.8532C44.0161 67.307 44.286 64.7679 44.821 62.2785L42.9573 61.8777C42.3941 64.4989 42.1099 67.1723 42.1094 69.8532V78.2812C42.1105 79.292 42.5125 80.2611 43.2273 80.9758C43.942 81.6906 44.9111 82.0926 45.9219 82.0938H63.0781C64.0889 82.0926 65.058 81.6906 65.7727 80.9758C66.4875 80.2611 66.8895 79.292 66.8906 78.2812V69.8532C66.8905 66.9192 66.5501 63.995 65.8763 61.1394C65.2013 58.2839 64.1982 55.5161 62.8869 52.8913C61.7114 50.5406 60.7967 48.0684 60.1592 45.5187L59.6918 43.6495C60.9853 44.4831 62.4923 44.925 64.0312 44.9219V43.0156C62.814 43.0196 61.6238 42.6567 60.6159 41.9743C59.608 41.2918 58.829 40.3215 58.3806 39.1899L58.2444 38.849C58.1811 38.6909 58.0766 38.5526 57.9417 38.4486C57.8069 38.3445 57.6466 38.2785 57.4776 38.2574L51.6263 37.5259C51.3571 37.4902 51.1115 37.3538 50.9389 37.1441C50.7664 36.9344 50.6799 36.667 50.6968 36.396C50.7138 36.125 50.8329 35.8705 51.0302 35.6839C51.2275 35.4973 51.4882 35.3925 51.7598 35.3906H64.6666L68.225 38.0594C68.39 38.1831 68.5906 38.25 68.7969 38.25H77.375V51.5938H75.4688V41.1094H73.5625V51.5938H64.9844V53.5H78.3281C78.5809 53.5 78.8233 53.3996 79.0021 53.2208C79.1808 53.0421 79.2812 52.7997 79.2812 52.5469V51.5938H82.1406C82.3934 51.5938 82.6358 51.4933 82.8146 51.3146C82.9933 51.1358 83.0938 50.8934 83.0938 50.6406V39.2031C83.0938 38.9503 82.9933 38.7079 82.8146 38.5292C82.6358 38.3504 82.3934 38.25 82.1406 38.25ZM48.4214 37.7303C48.5419 37.5145 48.6335 37.2838 48.6942 37.0442L48.8694 37.1694C49.008 37.7342 49.3087 38.2463 49.7344 38.6426V41.9451L49.7051 42.0625H47.9399L48.4214 37.7303ZM41.1562 28.7188H43.0625V31.5781H41.1562V28.7188ZM40.2031 36.3438C40.2034 36.0911 40.3039 35.8488 40.4826 35.6701C40.6613 35.4914 40.9036 35.3909 41.1562 35.3906H45.9219C46.1747 35.3906 46.4171 35.491 46.5958 35.6698C46.7746 35.8485 46.875 36.091 46.875 36.3438C46.875 36.5965 46.7746 36.839 46.5958 37.0177C46.4171 37.1965 46.1747 37.2969 45.9219 37.2969H41.1562C40.9036 37.2966 40.6613 37.1961 40.4826 37.0174C40.3039 36.8387 40.2034 36.5964 40.2031 36.3438ZM46.3432 39.1719L46.022 42.0625H44.9688V39.2031C44.9688 39.2031 46.2057 39.1923 46.3432 39.1719ZM51.6406 43.9688C51.8934 43.9688 52.1358 44.0692 52.3146 44.2479C52.4933 44.4267 52.5938 44.6691 52.5938 44.9219C52.5938 45.1747 52.4933 45.4171 52.3146 45.5958C52.1358 45.7746 51.8934 45.875 51.6406 45.875H46.875C46.6222 45.875 46.3798 45.7746 46.201 45.5958C46.0223 45.4171 45.9219 45.1747 45.9219 44.9219C45.9219 44.6691 46.0223 44.4267 46.201 44.2479C46.3798 44.0692 46.6222 43.9688 46.875 43.9688H51.6406ZM52.5938 48.7344C52.5935 48.9871 52.493 49.2293 52.3143 49.408C52.1356 49.5867 51.8933 49.6872 51.6406 49.6875H46.875C46.6222 49.6875 46.3798 49.5871 46.201 49.4083C46.0223 49.2296 45.9219 48.9872 45.9219 48.7344C45.9219 48.4816 46.0223 48.2392 46.201 48.0604C46.3798 47.8817 46.6222 47.7812 46.875 47.7812H51.6406C51.8933 47.7815 52.1356 47.882 52.3143 48.0607C52.493 48.2394 52.5935 48.4817 52.5938 48.7344ZM51.6406 53.5H46.875C46.6222 53.5 46.3798 53.3996 46.201 53.2208C46.0223 53.0421 45.9219 52.7997 45.9219 52.5469C45.9219 52.2941 46.0223 52.0517 46.201 51.8729C46.3798 51.6942 46.6222 51.5938 46.875 51.5938H51.6406C51.8934 51.5938 52.1358 51.6942 52.3146 51.8729C52.4933 52.0517 52.5938 52.2941 52.5938 52.5469C52.5938 52.7997 52.4933 53.0421 52.3146 53.2208C52.1358 53.3996 51.8934 53.5 51.6406 53.5ZM57.2172 41.1094H51.6406V39.4488L56.686 40.0794C56.8382 40.435 57.0157 40.7792 57.2172 41.1094ZM81.1875 49.6875H79.2812V40.1562H81.1875V49.6875Z" fill="white"/>
<path d="M32.5781 31.5781H36.3906V33.4844H32.5781V31.5781Z" fill="white"/>
<path d="M25.9062 31.5781H29.7188V33.4844H25.9062V31.5781Z" fill="white"/>
<path d="M32.7106 27.7817L33.5608 26.0756L36.9729 27.776L36.1228 29.4821L32.7106 27.7817Z" fill="white"/>
<path d="M26.7415 24.8057L27.5916 23.0996L31.0038 24.7999L30.1536 26.506L26.7415 24.8057Z" fill="white"/>
<path d="M32.7103 37.1963L36.1225 35.4959L36.9727 37.202L33.5605 38.9024L32.7103 37.1963Z" fill="white"/>
<path d="M26.7382 40.1724L30.1504 38.472L31.0006 40.1781L27.5884 41.8785L26.7382 40.1724Z" fill="white"/>
<path d="M55.4531 72.5625C57.222 72.5605 58.9178 71.8569 60.1686 70.6061C61.4194 69.3553 62.123 67.6595 62.125 65.8906V62.0781C62.125 61.8253 62.0246 61.5829 61.8458 61.4042C61.6671 61.2254 61.4247 61.125 61.1719 61.125H53.5469C51.778 61.127 50.0822 61.8306 48.8314 63.0814C47.5806 64.3322 46.877 66.028 46.875 67.7969V71.6094C46.875 71.8622 46.9754 72.1046 47.1542 72.2833C47.3329 72.4621 47.5753 72.5625 47.8281 72.5625H55.4531ZM48.7812 67.7969C48.7827 66.5334 49.2852 65.3221 50.1786 64.4286C51.0721 63.5352 52.2834 63.0327 53.5469 63.0312H60.2188V65.8906C60.2173 67.1541 59.7148 68.3654 58.8214 69.2589C57.9279 70.1523 56.7166 70.6548 55.4531 70.6562H48.7812V67.7969Z" fill="white"/>
</svg>
