<svg width="108" height="108" viewBox="0 0 108 108" fill="none" xmlns="http://www.w3.org/2000/svg">
<circle cx="54" cy="54" r="54" fill="#008E64"/>
<g clip-path="url(#clip0)">
<path d="M64.2474 53.075C66.7735 49.4685 68.1087 45.2349 68.1087 40.8318V31.0148C68.1087 30.5299 67.7718 30.1098 67.2987 30.0043L53.9322 27.0246C53.7838 26.9918 53.6302 26.9918 53.4818 27.0246L40.1157 30.0043C39.6422 30.1098 39.3058 30.5299 39.3058 31.0148V40.8318C39.3058 45.2349 40.641 49.4685 43.167 53.0746C45.693 56.681 49.2154 59.3826 53.3536 60.8876C53.4676 60.9288 53.5877 60.9498 53.707 60.9498C53.8267 60.9498 53.9468 60.9288 54.0608 60.8876C58.199 59.383 61.7214 56.681 64.2474 53.075ZM53.707 58.8092C50.1236 57.4275 47.0711 55.0401 44.8629 51.887C42.5819 48.6307 41.3761 44.8078 41.3761 40.8318V31.8445L53.707 29.0957L66.0383 31.8445V40.8318C66.0383 44.8074 64.8325 48.6303 62.5515 51.887C60.3429 55.0401 57.2904 57.4275 53.707 58.8092Z" fill="white"/>
<path d="M64.2774 34.0861C64.2774 33.6008 63.9409 33.1811 63.4674 33.0756L53.9326 30.9499C53.7842 30.9171 53.6302 30.9171 53.4818 30.9499L43.9466 33.0756C43.3886 33.2001 43.0372 33.7533 43.1617 34.3113C43.2859 34.8693 43.8394 35.2207 44.3971 35.0961L53.707 33.021L62.207 34.9158V40.832C62.207 44.0175 61.241 47.0801 59.4137 49.6894C57.9455 51.7856 55.9795 53.4839 53.707 54.6255C51.4345 53.4844 49.4689 51.7856 48.0007 49.6894C46.4201 47.4327 45.4706 44.7947 45.2555 42.0612C45.2373 41.8332 45.2244 41.6027 45.2167 41.3754C45.1969 40.8037 44.7145 40.3569 44.1464 40.3763C43.575 40.3961 43.1278 40.8752 43.1476 41.4466C43.1565 41.7042 43.171 41.9658 43.1913 42.2238C43.4355 45.3256 44.5123 48.3179 46.3048 50.8771C48.0755 53.4047 50.4847 55.4233 53.2723 56.714C53.4102 56.7779 53.559 56.8098 53.7074 56.8098C53.8558 56.8098 54.0042 56.7779 54.1421 56.714C56.9302 55.4228 59.3393 53.4047 61.1096 50.8771C63.1819 47.9184 64.2778 44.4445 64.2778 40.832V34.0861H64.2774Z" fill="white"/>
<path d="M50.7581 46.2052C50.9392 46.4195 51.1992 46.5509 51.4794 46.5695C51.5025 46.5711 51.5255 46.5719 51.5486 46.5719C51.8041 46.5719 52.052 46.4773 52.2429 46.3046L59.7478 39.5146C60.1715 39.1313 60.2043 38.4766 59.8209 38.0525C59.4372 37.6287 58.7826 37.596 58.3588 37.9793L51.6477 44.0507L49.7322 41.7851C49.3634 41.3488 48.71 41.2938 48.2737 41.663C47.837 42.0322 47.7824 42.6852 48.1512 43.1219L50.7581 46.2052Z" fill="white"/>
<path d="M44.9903 61.2589C44.4448 60.5416 43.6519 60.0854 42.7579 59.9738C41.8638 59.8626 40.9831 60.1097 40.2779 60.6705C39.948 60.933 39.6815 61.2476 39.4805 61.5941L39.1764 61.1978C38.9063 60.8464 38.7579 60.4089 38.7579 59.9657V50.6271C38.7579 48.7193 37.2056 47.167 35.2978 47.167C33.5033 47.167 32.0225 48.5143 31.8531 50.3004L30.7452 61.9851C30.6477 63.0085 30.9364 64.0239 31.5612 64.8488L40.36 76.3059V78.9649C40.36 79.5367 40.8234 80.0001 41.3952 80.0001C41.9665 80.0001 42.4303 79.5367 42.4303 78.9649V75.9541C42.4303 75.726 42.3547 75.5044 42.216 75.3237L33.2073 63.5933C32.9004 63.1881 32.7581 62.6863 32.8062 62.1804L33.9145 50.4961C33.9825 49.7783 34.5773 49.2373 35.2978 49.2373C36.0645 49.2373 36.6876 49.8608 36.6876 50.6271V59.9657C36.6876 60.8626 36.9885 61.7478 37.5348 62.4586L39.7017 65.2806C39.7049 65.2851 39.7082 65.2895 39.7114 65.294L41.4599 67.5709C41.8084 68.0242 42.4582 68.1095 42.9115 67.7614C43.3648 67.4132 43.4501 66.7634 43.102 66.3097L41.3479 64.0255C40.9415 63.4877 41.0385 62.7113 41.5674 62.2908C41.8331 62.0793 42.1651 61.9863 42.5019 62.028C42.8387 62.07 43.1375 62.2423 43.343 62.5124L47.522 68.0044C48.3445 69.0852 48.7974 70.4285 48.7974 71.7868V78.9649C48.7974 79.5367 49.2607 80.0001 49.8325 80.0001C50.4043 80.0001 50.8677 79.5367 50.8677 78.9649V71.7868C50.8677 69.9785 50.2648 68.19 49.1698 66.7509L44.9903 61.2589Z" fill="white"/>
<path d="M76.379 61.9851L75.2707 50.3004C75.1012 48.5143 73.6201 47.167 71.8259 47.167C69.9182 47.167 68.3658 48.7193 68.3658 50.6271V59.9657C68.3658 60.4089 68.217 60.8464 67.9473 61.1978L67.6428 61.5941C67.4423 61.248 67.1758 60.9334 66.8459 60.6705C66.1407 60.1097 65.26 59.8626 64.3659 59.9738C63.4719 60.0854 62.6789 60.5416 62.1335 61.2589L57.9544 66.7509C56.8594 68.19 56.2561 69.9785 56.2561 71.7872V78.9649C56.2561 79.5367 56.7199 80.0001 57.2913 80.0001C57.863 80.0001 58.3264 79.5367 58.3264 78.9649V71.7868C58.3264 70.4285 58.7793 69.0852 59.6018 68.0044L63.7808 62.5124C63.9866 62.2423 64.2855 62.0704 64.6223 62.028C64.9591 61.9863 65.2911 62.0793 65.5568 62.2908C66.0853 62.7113 66.1827 63.4877 65.7759 64.0255L64.0222 66.3097C63.6741 66.7634 63.7594 67.4132 64.2127 67.7614C64.666 68.1095 65.3158 68.0242 65.6643 67.5709L67.4124 65.294C67.4156 65.2899 67.4184 65.2859 67.4217 65.2819L69.5894 62.459C70.1353 61.7478 70.4362 60.8626 70.4362 59.9657V50.6271C70.4362 49.8608 71.0597 49.2373 71.8259 49.2373C72.5465 49.2373 73.1413 49.7783 73.2097 50.4961L74.318 62.1804C74.3657 62.6867 74.2234 63.1881 73.9205 63.588L64.9078 75.3237C64.7691 75.5044 64.6939 75.7264 64.6939 75.9545V78.9649C64.6939 79.5367 65.1573 80.0001 65.729 80.0001C66.3008 80.0001 66.7642 79.5367 66.7642 78.9649V76.3059L75.5667 64.8435C76.1874 64.0239 76.4761 63.0085 76.379 61.9851Z" fill="white"/>
<path d="M43.5973 38.6039C43.9616 38.8469 44.4549 38.8316 44.8019 38.5643C45.1282 38.3128 45.2814 37.8736 45.1714 37.4749C45.0538 37.0475 44.6712 36.7337 44.2269 36.7095C43.7869 36.6856 43.3716 36.9541 43.2103 37.3629C43.0332 37.8122 43.197 38.3346 43.5973 38.6039Z" fill="white"/>
</g>
<defs>
<clipPath id="clip0">
<rect width="53" height="53" fill="white" transform="translate(27 27)"/>
</clipPath>
</defs>
</svg>
