<svg width="24" height="16" viewBox="0 0 24 16" fill="none" xmlns="http://www.w3.org/2000/svg">
<path d="M10.0393 6.03979C8.93788 6.03979 8.29639 7.0879 8.29639 8.48896C8.29639 9.9 8.95989 10.8944 10.0498 10.8944C11.1512 10.8944 11.7826 9.8472 11.7826 8.44619C11.7822 7.15225 11.1614 6.03979 10.0393 6.03979Z" fill="black"/>
<path d="M20.9604 3.66021C20.773 3.66021 20.59 3.67948 20.4118 3.71215C19.4946 2.47241 18.0261 1.66509 16.3654 1.66509C15.7488 1.66509 15.1606 1.78133 14.6147 1.98444C13.6926 0.945078 12.3503 0.286621 10.8515 0.286621C9.27956 0.286621 7.87625 1.00755 6.95264 2.13657C6.8736 2.13292 6.79594 2.12461 6.71599 2.12461C3.93512 2.12413 1.68081 4.37887 1.68081 7.15974C1.68081 7.47357 1.71344 7.77918 1.76812 8.07739C0.725056 8.5594 0 9.61159 0 10.8357C0 12.5147 1.36102 13.8757 3.04001 13.8757C3.58453 13.8757 4.09456 13.7306 4.53707 13.4797C5.44823 14.3895 6.70541 14.9519 8.0945 14.9519C8.99879 14.9519 9.84566 14.7102 10.579 14.293C11.1176 15.1458 12.0655 15.7137 13.149 15.7137C14.0891 15.7137 14.9296 15.2864 15.4873 14.616C16.0461 14.8301 16.6504 14.9524 17.2844 14.9524C20.0653 14.9524 22.3196 12.6981 22.3196 9.91715C22.3196 9.75224 22.3104 9.58953 22.2948 9.42923C23.3038 8.93483 24 7.90046 24 6.7007C24.0005 5.02123 22.6395 3.66021 20.9604 3.66021ZM9.9642 12.1885C7.8257 12.1885 6.57495 10.5743 6.57495 8.52124C6.57495 6.36116 7.9539 4.74604 10.0818 4.74604C12.2948 4.74604 13.5032 6.40388 13.5032 8.39208C13.5032 10.7553 12.0701 12.1885 9.9642 12.1885ZM16.8442 7.82968V8.2892H14.0873V7.93535L14.6331 7.4616C15.5176 6.67038 15.9593 6.21499 15.9712 5.74216C15.9712 5.41132 15.7773 5.15035 15.3099 5.15035C14.9617 5.15035 14.6588 5.32449 14.4475 5.48623L14.1805 4.80706C14.4852 4.57642 14.9594 4.38983 15.508 4.38983C16.4238 4.38983 16.9292 4.92518 16.9292 5.6608C16.9292 6.33992 16.4307 6.88123 15.8457 7.40461L15.4657 7.71661V7.82968H16.8442Z" fill="black"/>
</svg>
