<svg width="20" height="20" viewBox="0 0 20 20" fill="none" xmlns="http://www.w3.org/2000/svg">
<path d="M19.1011 18.5561L17.5272 15.9326C16.8003 14.7217 16.4162 13.3348 16.4162 11.9231V9.625C16.4162 6.72375 14.4802 4.26985 11.8328 3.47875V1.83335C11.8328 0.82225 11.0106 0 9.9995 0C8.9884 0 8.16615 0.82225 8.16615 1.83335V3.47875C5.51884 4.26985 3.58284 6.72375 3.58284 9.625V11.9231C3.58284 13.3348 3.19875 14.7207 2.47275 15.9317L0.898844 18.5552C0.813594 18.6973 0.811747 18.8733 0.893344 19.0172C0.974942 19.1611 1.12619 19.25 1.29119 19.25H18.7078C18.8728 19.25 19.025 19.1611 19.1066 19.0181C19.1882 18.8751 19.1854 18.6973 19.1011 18.5561Z" fill="black"/>
</svg>
