<svg width="22" height="22" viewBox="0 0 22 22" fill="none" xmlns="http://www.w3.org/2000/svg">
<g clip-path="url(#clip0)">
<path d="M17.1142 22L19.612 16.8348C21.4895 12.9525 20.3897 8.40142 17.2126 5.76696C15.2348 4.12702 13.3479 2.38051 11.6164 0.482496L11.1762 0L10.1526 1.35236C8.88964 3.021 7.92589 4.79536 7.35651 6.59325L17.1142 22Z" fill="#00AA95"/>
<path d="M1.85773 6.4426L2.19043 4.77954C3.8348 8.65562 8.05249 10.7152 10.47 13.3897C14.6978 18.067 17.1142 22 17.1142 22H14.611C3.48517 22 0.247643 14.4908 1.85773 6.4426Z" fill="#00CC76"/>
<path d="M2.19047 4.77954L2.79684 5.02227C4.29091 5.62035 5.81398 6.13838 7.35656 6.59321V6.59325C8.2766 6.86456 9.20357 7.11335 10.1355 7.34323C14.1427 8.33172 17.1142 11.9501 17.1142 16.2625V22C17.1142 22 6.71052 15.4341 2.19047 4.77954Z" fill="#A5E887"/>
</g>
<defs>
<clipPath id="clip0">
<rect width="22" height="22" fill="white" transform="matrix(-1 0 0 1 22 0)"/>
</clipPath>
</defs>
</svg>
