<svg width="96" height="96" viewBox="0 0 96 96" fill="none" xmlns="http://www.w3.org/2000/svg">
<path d="M48 0C60.5346 -1.49473e-07 72.5719 4.90314 81.5389 13.6614C90.506 22.4196 95.6914 34.3381 95.9867 46.8691C96.282 59.4002 91.6638 71.5497 83.1193 80.7206C74.5747 89.8915 62.7817 95.3563 50.2611 95.9467C37.7405 96.5372 25.4856 92.2065 16.1159 83.8804C6.7462 75.5543 1.00514 63.8933 0.119865 51.3901C-0.765411 38.8868 3.27533 26.5333 11.3784 16.9701C19.4814 7.40682 31.0039 1.39263 43.4828 0.213025L48 48V0Z" fill="url(#paint0_linear)"/>
<circle cx="48" cy="48" r="41" fill="white"/>
<path d="M23.64 48.16C22.5 48.16 21.74 47.62 21.74 46.32C21.74 44.88 22.68 44.26 23.68 44.26C24.68 44.26 25.66 44.9 25.98 46.9C25.26 47.8 24.4 48.16 23.64 48.16ZM23.3 55.24C26.1 55.24 28.76 53.1 28.76 48.36C28.76 43.9 26.24 42.06 23.62 42.06C21.18 42.06 19.06 43.68 19.06 46.32C19.06 49 20.78 50.24 23 50.24C23.94 50.24 25.14 49.72 26.06 48.84C25.94 51.84 24.58 52.86 23.04 52.86C22.2 52.86 21.32 52.44 20.8 51.96L19.24 53.72C20.12 54.52 21.5 55.24 23.3 55.24ZM35.9722 55.24C39.0722 55.24 40.7922 53.72 40.7922 51.72C40.7922 50 39.7522 49.06 38.4122 48.4V48.32C39.4122 47.68 40.2322 46.72 40.2322 45.54C40.2322 43.44 38.6122 42.06 36.0722 42.06C33.5522 42.06 31.7522 43.4 31.7522 45.56C31.7522 46.9 32.5522 47.82 33.6122 48.56V48.64C32.2922 49.28 31.2122 50.2 31.2122 51.76C31.2122 53.82 33.0322 55.24 35.9722 55.24ZM36.8522 47.6C35.3722 47.1 34.3322 46.6 34.3322 45.56C34.3322 44.58 35.0722 44.1 36.0122 44.1C37.1722 44.1 37.8122 44.76 37.8122 45.74C37.8122 46.4 37.4922 47.02 36.8522 47.6ZM36.0522 53.2C34.7522 53.2 33.7522 52.54 33.7522 51.42C33.7522 50.6 34.2722 49.92 34.9922 49.4C36.8122 50.08 38.0522 50.46 38.0522 51.62C38.0522 52.68 37.2322 53.2 36.0522 53.2ZM46.3644 59.34C49.1244 58.5 50.5644 56.68 50.5644 54.14C50.5644 51.98 49.7244 50.7 48.0844 50.7C46.8444 50.7 45.8444 51.52 45.8444 52.76C45.8444 54.08 46.8844 54.8 48.0044 54.8C48.0844 54.8 48.1444 54.8 48.2244 54.78C48.2644 56 47.4044 57 45.6244 57.62L46.3644 59.34ZM59.6366 55.24C62.2566 55.24 64.6166 53.62 64.6166 50.8C64.6166 48.1 62.5966 46.86 60.2566 46.86C59.6166 46.86 59.1566 46.94 58.5766 47.16L58.7966 44.78H64.0366V42.3H56.2566L55.9166 48.72L57.2166 49.56C58.0766 49.08 58.5166 48.92 59.3566 48.92C60.6966 48.92 61.6766 49.6 61.6766 50.88C61.6766 52.18 60.6566 52.86 59.2166 52.86C58.0166 52.86 57.0566 52.3 56.2166 51.6L54.8966 53.46C55.9366 54.46 57.4366 55.24 59.6366 55.24ZM69.4288 48.76C71.1288 48.76 72.3888 47.44 72.3888 45.38C72.3888 43.3 71.1288 42.04 69.4288 42.04C67.7288 42.04 66.4688 43.3 66.4688 45.38C66.4688 47.44 67.7288 48.76 69.4288 48.76ZM69.4288 47.18C68.9288 47.18 68.4688 46.74 68.4688 45.38C68.4688 44.02 68.9288 43.62 69.4288 43.62C69.9288 43.62 70.3888 44.02 70.3888 45.38C70.3888 46.74 69.9288 47.18 69.4288 47.18ZM67.8288 54.44L71.0688 50.46L70.0488 49.52L66.3288 52.98L67.8288 54.44ZM73.9288 47.46L77.6488 43.98L76.1488 42.52L72.9088 46.5L73.9288 47.46ZM74.5088 55.24C76.2088 55.24 77.4688 53.92 77.4688 51.86C77.4688 49.78 76.2088 48.52 74.5088 48.52C72.8088 48.52 71.5488 49.78 71.5488 51.86C71.5488 53.92 72.8088 55.24 74.5088 55.24ZM74.5088 53.66C74.0088 53.66 73.5488 53.22 73.5488 51.86C73.5488 50.5 74.0088 50.1 74.5088 50.1C75.0088 50.1 75.4688 50.5 75.4688 51.86C75.4688 53.22 75.0088 53.66 74.5088 53.66Z" fill="#1A3157"/>
<defs>
<linearGradient id="paint0_linear" x1="48" y1="0" x2="48" y2="96" gradientUnits="userSpaceOnUse">
<stop stop-color="#FFE344"/>
<stop offset="1" stop-color="#FD602A"/>
</linearGradient>
</defs>
</svg>
