<svg width="11" height="11" viewBox="0 0 11 11" fill="none" xmlns="http://www.w3.org/2000/svg">
<path d="M10.8656 10.2185L7.7375 7.09038C8.34342 6.34193 8.70824 5.39089 8.70824 4.35508C8.70824 1.95435 6.75484 0.000946045 4.35411 0.000946045C1.95338 0.000946045 0 1.95433 0 4.35506C0 6.75578 1.9534 8.70919 4.35413 8.70919C5.38995 8.70919 6.34099 8.34436 7.08943 7.73845L10.2175 10.8665C10.3069 10.9559 10.4242 11.0008 10.5416 11.0008C10.6589 11.0008 10.7762 10.9559 10.8656 10.8665C11.0448 10.6873 11.0448 10.3977 10.8656 10.2185ZM4.35413 7.79252C2.45848 7.79252 0.916665 6.25071 0.916665 4.35506C0.916665 2.4594 2.45848 0.917589 4.35413 0.917589C6.24979 0.917589 7.7916 2.4594 7.7916 4.35506C7.7916 6.25071 6.24977 7.79252 4.35413 7.79252Z" fill="#B0B0B0"/>
</svg>
