<svg width="12" height="14" viewBox="0 0 12 14" fill="none" xmlns="http://www.w3.org/2000/svg">
<path d="M5.99997 6.84692C7.55653 6.84692 8.81849 5.3142 8.81849 3.42348C8.81849 1.53272 8.40417 0 5.99997 0C3.59577 0 3.18137 1.53272 3.18137 3.42348C3.18137 5.3142 4.44333 6.84692 5.99997 6.84692Z" fill="#315EFB"/>
<path d="M0.676336 12.0741C0.675375 12.0417 0.675856 11.9589 0.676336 12.0741V12.0741Z" fill="#315EFB"/>
<path d="M11.3234 12.1642C11.3239 11.9452 11.3249 12.1326 11.3234 12.1642V12.1642Z" fill="#315EFB"/>
<path d="M11.3174 11.9359C11.2652 8.64221 10.835 7.70369 7.5433 7.10961C7.5433 7.10961 7.07994 7.70005 5.99994 7.70005C4.91994 7.70005 4.4565 7.10961 4.4565 7.10961C1.2007 7.69721 0.744381 8.62181 0.684381 11.8289C0.679461 12.0908 0.677216 12.1045 0.676336 12.0741C0.676536 12.1311 0.676741 12.2365 0.676741 12.4202C0.676741 12.4202 1.46042 14 5.99994 14C10.5394 14 11.3231 12.4202 11.3231 12.4202C11.3231 12.3021 11.3233 12.22 11.3234 12.1642C11.3225 12.183 11.3207 12.1466 11.3174 11.9359Z" fill="#315EFB"/>
</svg>
