<svg width="13" height="13" viewBox="0 0 13 13" fill="none" xmlns="http://www.w3.org/2000/svg">
<g clip-path="url(#clip0)">
<path d="M6.73235 12.9923C7.72646 12.8511 8.59794 11.8135 9.14632 10.2812C8.35358 10.1037 7.54461 10.0084 6.73235 9.99707V12.9923Z" fill="#C4C4C4"/>
<path d="M8.32057 12.7486C8.37933 12.7316 8.43787 12.7145 8.49595 12.6957C8.54496 12.6799 8.59328 12.6629 8.64161 12.646C8.69879 12.6262 8.75574 12.6059 8.81246 12.5844C8.86079 12.566 8.90866 12.5465 8.95665 12.527C9.01201 12.5037 9.06725 12.4806 9.12193 12.4573C9.16969 12.4363 9.21711 12.4143 9.26453 12.3922C9.31819 12.3669 9.37163 12.3411 9.4246 12.3144C9.47112 12.2907 9.51751 12.2665 9.56403 12.2417C9.6161 12.2137 9.66783 12.1853 9.71922 12.156C9.76573 12.1297 9.81054 12.1033 9.8558 12.076C9.90617 12.0451 9.95632 12.0141 10.0061 11.9831C10.0507 11.9548 10.0952 11.9259 10.1391 11.8962C10.1881 11.8632 10.2364 11.8288 10.2845 11.7945C10.3277 11.7635 10.3707 11.7326 10.4129 11.7015C10.4594 11.6657 10.5071 11.6286 10.5537 11.5914C10.5951 11.5584 10.6364 11.5256 10.6771 11.4917C10.7235 11.4531 10.768 11.4132 10.813 11.3732C10.8525 11.3382 10.8922 11.3035 10.9308 11.2675C10.9752 11.2261 11.0184 11.1832 11.0616 11.1407C11.099 11.1037 11.1369 11.0673 11.1736 11.0294C11.1804 11.0224 11.1868 11.0148 11.1939 11.0075C10.6871 10.7458 10.1534 10.5403 9.60192 10.3949C9.31513 11.3095 8.80474 12.1383 8.11705 12.806C8.13588 12.8012 8.15471 12.7972 8.17354 12.7923C8.22323 12.7784 8.27201 12.763 8.32057 12.7486Z" fill="#C4C4C4"/>
<path d="M13 6.73767H10.2143C10.2037 7.82537 10.0459 8.90661 9.7452 9.952C10.3585 10.1158 10.9503 10.3513 11.5085 10.6537C12.4249 9.54916 12.9494 8.17206 13 6.73767Z" fill="#C4C4C4"/>
<path d="M6.73235 6.27301H9.74962C9.73782 5.22377 9.58388 4.18099 9.29221 3.17303C8.45205 3.36464 7.59395 3.46697 6.73235 3.47831V6.27301Z" fill="#C4C4C4"/>
<path d="M6.73235 0.0183716V3.01364C7.54461 3.00218 8.35358 2.907 9.14632 2.72946C8.59794 1.19717 7.72646 0.15961 6.73235 0.0183716Z" fill="#C4C4C4"/>
<path d="M6.73235 9.53237C7.59395 9.54383 8.45205 9.64615 9.29221 9.83776C9.58388 8.82981 9.73782 7.78692 9.74962 6.73767H6.73235V9.53237Z" fill="#C4C4C4"/>
<path d="M11.5085 2.35699C10.9503 2.65932 10.3585 2.89483 9.7452 3.05865C10.0459 4.10403 10.2037 5.18527 10.2143 6.27297H13C12.9493 4.8387 12.4247 3.4616 11.5085 2.35699Z" fill="#C4C4C4"/>
<path d="M11.1946 2.00458C11.1878 1.99766 11.1813 1.99017 11.1746 1.98303C11.1378 1.94514 11.0997 1.90861 11.0623 1.87174C11.0192 1.8292 10.9762 1.7862 10.9317 1.74491C10.8933 1.70906 10.8534 1.67514 10.814 1.6394C10.7689 1.59947 10.7239 1.5592 10.6776 1.52063C10.6374 1.48671 10.5963 1.45426 10.5554 1.4217C10.5089 1.38404 10.4613 1.3466 10.4134 1.31064C10.3714 1.27899 10.3289 1.24836 10.2861 1.21773C10.2375 1.18279 10.1888 1.14796 10.1393 1.11472C10.0959 1.08546 10.0517 1.05687 10.0076 1.02885C9.95734 0.996516 9.90719 0.964865 9.85603 0.934235C9.81122 0.907349 9.76596 0.880803 9.72058 0.855051C9.66862 0.825329 9.61655 0.796514 9.56403 0.76838C9.51751 0.745124 9.47111 0.719826 9.4246 0.696569C9.37117 0.66957 9.31728 0.643591 9.26204 0.618066C9.21552 0.595944 9.16833 0.57439 9.12046 0.553403C9.06544 0.529012 9.00985 0.507004 8.95438 0.483748C8.9065 0.464236 8.85886 0.44495 8.81053 0.426572C8.75415 0.405018 8.69697 0.384825 8.6398 0.365086C8.59147 0.348069 8.54314 0.331166 8.49413 0.315284C8.43605 0.296452 8.37797 0.279322 8.31829 0.262078C8.26997 0.247898 8.22141 0.23349 8.17252 0.220558C8.1538 0.215453 8.13474 0.211482 8.11591 0.206604C8.80361 0.874337 9.31388 1.70305 9.60078 2.61775C10.1528 2.47231 10.6874 2.26675 11.1946 2.00458Z" fill="#C4C4C4"/>
<path d="M-3.8147e-06 6.27297H2.78573C2.79628 5.18527 2.95408 4.10403 3.25471 3.05865C2.64154 2.89495 2.04971 2.65944 1.49156 2.35699C0.575158 3.46149 0.0505923 4.8387 -3.8147e-06 6.27297Z" fill="#C4C4C4"/>
<path d="M6.26768 12.9923V9.99707C5.45542 10.0085 4.64645 10.1037 3.8537 10.2812C4.40197 11.8135 5.27357 12.8511 6.26768 12.9923Z" fill="#C4C4C4"/>
<path d="M6.26768 6.73767H3.2504C3.2622 7.78692 3.41603 8.82981 3.70781 9.83776C4.54798 9.64604 5.40596 9.54371 6.26768 9.53237V6.73767Z" fill="#C4C4C4"/>
<path d="M6.26768 0.0183716C5.27357 0.15961 4.40197 1.19717 3.8537 2.72946C4.64645 2.90711 5.45542 3.00229 6.26768 3.01364V0.0183716Z" fill="#C4C4C4"/>
<path d="M6.26768 3.47831C5.40607 3.46697 4.54798 3.36464 3.70781 3.17303C3.41603 4.18099 3.2622 5.22377 3.2504 6.27301H6.26768V3.47831Z" fill="#C4C4C4"/>
<path d="M4.8823 0.20636C4.86347 0.211238 4.84464 0.215209 4.82581 0.220087C4.77657 0.233246 4.72802 0.24788 4.67901 0.262061C4.6207 0.279078 4.56284 0.296208 4.5043 0.314813C4.45496 0.330808 4.4064 0.347825 4.35785 0.364728C4.30101 0.384808 4.24406 0.404774 4.1878 0.426101C4.13924 0.444706 4.09137 0.463992 4.04327 0.483731C3.98802 0.506987 3.93266 0.530243 3.87809 0.553386C3.83022 0.574373 3.78291 0.596381 3.73549 0.618503C3.68183 0.643801 3.6284 0.669553 3.57542 0.696326C3.52891 0.720035 3.4824 0.744313 3.436 0.769043C3.38393 0.796951 3.33231 0.825539 3.28104 0.854807C3.23452 0.880786 3.18881 0.907445 3.144 0.934672C3.09351 0.965075 3.0436 0.996499 2.99391 1.02758C2.94921 1.05617 2.90486 1.08499 2.86095 1.11471C2.81194 1.14772 2.76362 1.18209 2.71552 1.21647C2.67229 1.24744 2.6293 1.27829 2.58698 1.30949C2.53945 1.34523 2.49407 1.38244 2.4462 1.41953C2.40491 1.45255 2.36327 1.48533 2.32289 1.51948C2.27637 1.55782 2.23224 1.59753 2.18743 1.63723C2.14773 1.67263 2.10768 1.707 2.06889 1.74364C2.02476 1.78482 1.98176 1.82759 1.93865 1.87002C1.90121 1.907 1.8631 1.94353 1.82634 1.98154C1.81965 1.98857 1.81318 1.99628 1.80615 2.00343C2.31279 2.26526 2.84666 2.47071 3.39811 2.61614C3.6849 1.70201 4.19494 0.873752 4.8823 0.20636Z" fill="#C4C4C4"/>
<path d="M1.93763 11.1389C1.98085 11.1815 2.02385 11.2245 2.0682 11.2659C2.10677 11.3016 2.14648 11.3355 2.18607 11.3713C2.23111 11.4113 2.27615 11.4515 2.32243 11.49C2.36259 11.5237 2.40354 11.5563 2.44461 11.589C2.49112 11.6266 2.53752 11.6641 2.58676 11.7002C2.62862 11.7317 2.67116 11.7621 2.7137 11.7933C2.76225 11.8281 2.81126 11.8629 2.86072 11.8964C2.90417 11.9257 2.9483 11.9543 2.99243 11.9824C3.04269 12.0146 3.09283 12.0463 3.14399 12.0769C3.18881 12.1039 3.23407 12.1303 3.27945 12.1562C3.3314 12.1859 3.38348 12.2147 3.436 12.2427C3.4824 12.266 3.52891 12.2913 3.57542 12.3146C3.62886 12.3415 3.68274 12.3675 3.73799 12.3932C3.7845 12.4151 3.83169 12.4366 3.87957 12.4577C3.93459 12.4821 3.99006 12.5041 4.04565 12.5274C4.09352 12.5469 4.14117 12.5662 4.1895 12.5845C4.24588 12.6062 4.30305 12.6264 4.36023 12.6461C4.40856 12.6631 4.45688 12.6801 4.50589 12.6958C4.56398 12.7147 4.62206 12.7319 4.68173 12.749C4.73006 12.7632 4.77861 12.7776 4.82739 12.7907C4.84623 12.7958 4.86528 12.7998 4.88412 12.8046C4.19642 12.1368 3.68614 11.3081 3.39924 10.3934C2.84779 10.5389 2.31392 10.7444 1.80728 11.0063C1.81409 11.0132 1.82055 11.0207 1.82736 11.0279C1.86219 11.0655 1.89974 11.1021 1.93763 11.1389Z" fill="#C4C4C4"/>
<path d="M1.49156 10.6537C2.04971 10.3513 2.64154 10.1158 3.25471 9.952C2.95408 8.90661 2.79628 7.82537 2.78573 6.73767H-3.8147e-06C0.0507057 8.17195 0.575158 9.54904 1.49156 10.6537Z" fill="#C4C4C4"/>
</g>
<defs>
<clipPath id="clip0">
<rect width="13" height="13" fill="white"/>
</clipPath>
</defs>
</svg>
