<svg width="38" height="14" viewBox="0 0 38 14" fill="none" xmlns="http://www.w3.org/2000/svg">
<g clip-path="url(#clip0)">
<path d="M31.7323 13.9923C32.7265 13.8511 33.5979 12.8135 34.1463 11.2812C33.3536 11.1037 32.5446 11.0084 31.7323 10.9971V13.9923Z" fill="#C4C4C4"/>
<path d="M33.3206 13.7486C33.3793 13.7316 33.4379 13.7145 33.4959 13.6957C33.545 13.6799 33.5933 13.6629 33.6416 13.646C33.6988 13.6262 33.7557 13.6059 33.8125 13.5844C33.8608 13.566 33.9087 13.5465 33.9566 13.527C34.012 13.5037 34.0673 13.4806 34.1219 13.4573C34.1697 13.4363 34.2171 13.4143 34.2645 13.3922C34.3182 13.3669 34.3716 13.3411 34.4246 13.3144C34.4711 13.2907 34.5175 13.2665 34.564 13.2417C34.6161 13.2137 34.6678 13.1853 34.7192 13.156C34.7657 13.1297 34.8105 13.1033 34.8558 13.076C34.9062 13.0451 34.9563 13.0141 35.0061 12.9831C35.0507 12.9548 35.0952 12.9259 35.1391 12.8962C35.1881 12.8632 35.2364 12.8288 35.2845 12.7945C35.3277 12.7635 35.3707 12.7326 35.4129 12.7015C35.4594 12.6657 35.5071 12.6286 35.5537 12.5914C35.5951 12.5584 35.6364 12.5256 35.6771 12.4917C35.7235 12.4531 35.768 12.4132 35.813 12.3732C35.8525 12.3382 35.8922 12.3035 35.9308 12.2675C35.9752 12.2261 36.0184 12.1832 36.0616 12.1407C36.099 12.1037 36.1369 12.0673 36.1736 12.0294C36.1804 12.0224 36.1868 12.0148 36.1939 12.0075C35.6871 11.7458 35.1534 11.5403 34.6019 11.3949C34.3151 12.3095 33.8047 13.1383 33.117 13.806C33.1359 13.8012 33.1547 13.7972 33.1735 13.7923C33.2232 13.7784 33.272 13.763 33.3206 13.7486Z" fill="#C4C4C4"/>
<path d="M38 7.73767H35.2143C35.2037 8.82537 35.0459 9.90661 34.7452 10.952C35.3585 11.1158 35.9503 11.3513 36.5085 11.6537C37.4249 10.5492 37.9494 9.17206 38 7.73767Z" fill="#C4C4C4"/>
<path d="M31.7323 7.27301H34.7496C34.7378 6.22377 34.5839 5.18099 34.2922 4.17303C33.452 4.36464 32.594 4.46697 31.7323 4.47831V7.27301Z" fill="#C4C4C4"/>
<path d="M31.7323 1.01837V4.01364C32.5446 4.00218 33.3536 3.907 34.1463 3.72946C33.5979 2.19717 32.7265 1.15961 31.7323 1.01837Z" fill="#C4C4C4"/>
<path d="M31.7323 10.5324C32.594 10.5438 33.452 10.6462 34.2922 10.8378C34.5839 9.82981 34.7378 8.78692 34.7496 7.73767H31.7323V10.5324Z" fill="#C4C4C4"/>
<path d="M36.5085 3.35699C35.9503 3.65932 35.3585 3.89483 34.7452 4.05865C35.0459 5.10403 35.2037 6.18527 35.2143 7.27297H38C37.9493 5.8387 37.4247 4.4616 36.5085 3.35699Z" fill="#C4C4C4"/>
<path d="M36.1946 3.00458C36.1878 2.99766 36.1813 2.99017 36.1746 2.98303C36.1378 2.94514 36.0997 2.90861 36.0623 2.87174C36.0192 2.8292 35.9762 2.7862 35.9317 2.74491C35.8933 2.70906 35.8534 2.67514 35.814 2.6394C35.7689 2.59947 35.7239 2.5592 35.6776 2.52063C35.6374 2.48671 35.5963 2.45426 35.5554 2.4217C35.5089 2.38404 35.4613 2.3466 35.4134 2.31064C35.3714 2.27899 35.3289 2.24836 35.2861 2.21773C35.2375 2.18279 35.1888 2.14796 35.1393 2.11472C35.0959 2.08546 35.0517 2.05687 35.0076 2.02885C34.9573 1.99652 34.9072 1.96486 34.856 1.93424C34.8112 1.90735 34.766 1.8808 34.7206 1.85505C34.6686 1.82533 34.6166 1.79651 34.564 1.76838C34.5175 1.74512 34.4711 1.71983 34.4246 1.69657C34.3712 1.66957 34.3173 1.64359 34.262 1.61807C34.2155 1.59594 34.1683 1.57439 34.1205 1.5534C34.0654 1.52901 34.0099 1.507 33.9544 1.48375C33.9065 1.46424 33.8589 1.44495 33.8105 1.42657C33.7541 1.40502 33.697 1.38482 33.6398 1.36509C33.5915 1.34807 33.5431 1.33117 33.4941 1.31528C33.436 1.29645 33.378 1.27932 33.3183 1.26208C33.27 1.2479 33.2214 1.23349 33.1725 1.22056C33.1538 1.21545 33.1347 1.21148 33.1159 1.2066C33.8036 1.87434 34.3139 2.70305 34.6008 3.61775C35.1528 3.47231 35.6874 3.26675 36.1946 3.00458Z" fill="#C4C4C4"/>
<path d="M25 7.27297H27.7857C27.7963 6.18527 27.9541 5.10403 28.2547 4.05865C27.6415 3.89495 27.0497 3.65944 26.4916 3.35699C25.5752 4.46149 25.0506 5.8387 25 7.27297Z" fill="#C4C4C4"/>
<path d="M31.2677 13.9923V10.9971C30.4554 11.0085 29.6464 11.1037 28.8537 11.2812C29.402 12.8135 30.2736 13.8511 31.2677 13.9923Z" fill="#C4C4C4"/>
<path d="M31.2677 7.73767H28.2504C28.2622 8.78692 28.416 9.82981 28.7078 10.8378C29.548 10.646 30.406 10.5437 31.2677 10.5324V7.73767Z" fill="#C4C4C4"/>
<path d="M31.2677 1.01837C30.2736 1.15961 29.402 2.19717 28.8537 3.72946C29.6464 3.90711 30.4554 4.00229 31.2677 4.01364V1.01837Z" fill="#C4C4C4"/>
<path d="M31.2677 4.47831C30.4061 4.46697 29.548 4.36464 28.7078 4.17303C28.416 5.18099 28.2622 6.22377 28.2504 7.27301H31.2677V4.47831Z" fill="#C4C4C4"/>
<path d="M29.8823 1.20636C29.8635 1.21124 29.8446 1.21521 29.8258 1.22009C29.7766 1.23325 29.728 1.24788 29.679 1.26206C29.6207 1.27908 29.5628 1.29621 29.5043 1.31481C29.455 1.33081 29.4064 1.34782 29.3578 1.36473C29.301 1.38481 29.2441 1.40477 29.1878 1.4261C29.1392 1.44471 29.0914 1.46399 29.0433 1.48373C28.988 1.50699 28.9327 1.53024 28.8781 1.55339C28.8302 1.57437 28.7829 1.59638 28.7355 1.6185C28.6818 1.6438 28.6284 1.66955 28.5754 1.69633C28.5289 1.72004 28.4824 1.74431 28.436 1.76904C28.3839 1.79695 28.3323 1.82554 28.281 1.85481C28.2345 1.88079 28.1888 1.90745 28.144 1.93467C28.0935 1.96508 28.0436 1.9965 27.9939 2.02758C27.9492 2.05617 27.9049 2.08499 27.861 2.11471C27.8119 2.14772 27.7636 2.18209 27.7155 2.21647C27.6723 2.24744 27.6293 2.27829 27.587 2.30949C27.5395 2.34523 27.4941 2.38244 27.4462 2.41953C27.4049 2.45255 27.3633 2.48533 27.3229 2.51948C27.2764 2.55782 27.2322 2.59753 27.1874 2.63723C27.1477 2.67263 27.1077 2.707 27.0689 2.74364C27.0248 2.78482 26.9818 2.82759 26.9387 2.87002C26.9012 2.907 26.8631 2.94353 26.8263 2.98154C26.8196 2.98857 26.8132 2.99628 26.8061 3.00343C27.3128 3.26526 27.8467 3.47071 28.3981 3.61614C28.6849 2.70201 29.1949 1.87375 29.8823 1.20636Z" fill="#C4C4C4"/>
<path d="M26.9376 12.1389C26.9809 12.1815 27.0238 12.2245 27.0682 12.2659C27.1068 12.3016 27.1465 12.3355 27.1861 12.3713C27.2311 12.4113 27.2761 12.4515 27.3224 12.49C27.3626 12.5237 27.4035 12.5563 27.4446 12.589C27.4911 12.6266 27.5375 12.6641 27.5868 12.7002C27.6286 12.7317 27.6712 12.7621 27.7137 12.7933C27.7623 12.8281 27.8113 12.8629 27.8607 12.8964C27.9042 12.9257 27.9483 12.9543 27.9924 12.9824C28.0427 13.0146 28.0928 13.0463 28.144 13.0769C28.1888 13.1039 28.2341 13.1303 28.2794 13.1562C28.3314 13.1859 28.3835 13.2147 28.436 13.2427C28.4824 13.266 28.5289 13.2913 28.5754 13.3146C28.6289 13.3415 28.6827 13.3675 28.738 13.3932C28.7845 13.4151 28.8317 13.4366 28.8796 13.4577C28.9346 13.4821 28.9901 13.5041 29.0456 13.5274C29.0935 13.5469 29.1412 13.5662 29.1895 13.5845C29.2459 13.6062 29.3031 13.6264 29.3602 13.6461C29.4086 13.6631 29.4569 13.6801 29.5059 13.6958C29.564 13.7147 29.6221 13.7319 29.6817 13.749C29.7301 13.7632 29.7786 13.7776 29.8274 13.7907C29.8462 13.7958 29.8653 13.7998 29.8841 13.8046C29.1964 13.1368 28.6861 12.3081 28.3992 11.3934C27.8478 11.5389 27.3139 11.7444 26.8073 12.0063C26.8141 12.0132 26.8206 12.0207 26.8274 12.0279C26.8622 12.0655 26.8997 12.1021 26.9376 12.1389Z" fill="#C4C4C4"/>
<path d="M26.4916 11.6537C27.0497 11.3513 27.6415 11.1158 28.2547 10.952C27.9541 9.90661 27.7963 8.82537 27.7857 7.73767H25C25.0507 9.17195 25.5752 10.549 26.4916 11.6537Z" fill="#C4C4C4"/>
</g>
<path d="M13.4533 3.34686C13.0887 2.98231 12.6489 2.79998 12.1336 2.79998H10.5002L10.1284 1.80837C10.036 1.57021 9.86716 1.3648 9.62154 1.19215C9.37603 1.01958 9.12449 0.933228 8.86682 0.933228H5.13339C4.87574 0.933228 4.62415 1.01958 4.37864 1.19215C4.13312 1.3648 3.96426 1.57021 3.87188 1.80837L3.50002 2.79998H1.86668C1.35131 2.79998 0.911463 2.98231 0.546832 3.34686C0.182277 3.71144 0 4.15134 0 4.66665V11.2001C0 11.7154 0.182277 12.1553 0.546832 12.5198C0.911463 12.8845 1.35133 13.0668 1.86668 13.0668H12.1334C12.6487 13.0668 13.0885 12.8845 13.4531 12.5198C13.8177 12.1553 14 11.7154 14 11.2001V4.66665C14.0001 4.15134 13.8178 3.71144 13.4533 3.34686ZM9.30786 10.2413C8.66863 10.8805 7.89942 11.2002 7.00004 11.2002C6.10066 11.2002 5.3315 10.8805 4.69221 10.2413C4.05293 9.60211 3.73335 8.83273 3.73335 7.93355C3.73335 7.03409 4.05303 6.26496 4.69221 5.62567C5.33142 4.98639 6.10068 4.66681 7.00004 4.66681C7.8994 4.66681 8.66863 4.98646 9.30786 5.62567C9.94712 6.26488 10.2668 7.03409 10.2668 7.93355C10.2668 8.83273 9.94715 9.60203 9.30786 10.2413Z" fill="#C4C4C4"/>
<path d="M7.00004 5.83337C6.42154 5.83337 5.92691 6.03877 5.51613 6.4496C5.10535 6.86038 4.89996 7.35493 4.89996 7.93356C4.89996 8.51196 5.10535 9.00659 5.51613 9.41737C5.92691 9.82808 6.42151 10.0335 7.00004 10.0335C7.57846 10.0335 8.07314 9.82808 8.48392 9.41737C8.8947 9.00659 9.10012 8.51199 9.10012 7.93356C9.10012 7.35496 8.8947 6.86041 8.48392 6.4496C8.07317 6.03879 7.57846 5.83337 7.00004 5.83337Z" fill="#C4C4C4"/>
<defs>
<clipPath id="clip0">
<rect x="25" y="1" width="13" height="13" fill="white"/>
</clipPath>
</defs>
</svg>
