<svg width="405" height="40" viewBox="0 0 405 40" fill="none" xmlns="http://www.w3.org/2000/svg">
<path fill-rule="evenodd" clip-rule="evenodd" d="M195 5C186.716 5 180 11.7157 180 20C180 28.2843 186.716 35 195 35C203.284 35 210 28.2843 210 20C210 11.7157 203.284 5 195 5ZM196.563 20.6589V28.8197H193.187V20.6592H191.5V17.8469H193.187V16.1585C193.187 13.8643 194.139 12.5 196.846 12.5H199.099V15.3125H197.691C196.637 15.3125 196.567 15.7056 196.567 16.439L196.563 17.8467H199.115L198.816 20.6589H196.563Z" fill="white"/>
<path fill-rule="evenodd" clip-rule="evenodd" d="M135 5C126.716 5 120 11.7157 120 20C120 28.2843 126.716 35 135 35C143.284 35 150 28.2843 150 20C150 11.7157 143.284 5 135 5ZM131.702 12.0483C132.555 12.0095 132.828 12 134.998 12C137.172 12 137.443 12.0095 138.297 12.0483C139.148 12.0873 139.73 12.2221 140.24 12.42C140.767 12.6242 141.212 12.8975 141.657 13.3425C142.102 13.7872 142.375 14.2335 142.58 14.7597C142.777 15.2683 142.912 15.8497 142.952 16.7014C142.99 17.5547 143 17.8274 143 20.0001C143 22.1728 142.99 22.4447 142.952 23.2981C142.912 24.1495 142.777 24.7309 142.58 25.2398C142.375 25.7658 142.102 26.2121 141.657 26.6568C141.212 27.1018 140.766 27.3759 140.24 27.5802C139.731 27.778 139.149 27.9129 138.298 27.9519C137.444 27.9907 137.173 28.0002 135 28.0002C132.827 28.0002 132.555 27.9907 131.701 27.9519C130.85 27.9129 130.268 27.778 129.759 27.5802C129.233 27.3759 128.787 27.1018 128.343 26.6568C127.898 26.2121 127.625 25.7658 127.42 25.2397C127.222 24.731 127.087 24.1497 127.048 23.298C127.01 22.4446 127 22.1728 127 20.0001C127 17.8274 127.01 17.5545 127.048 16.7012C127.087 15.8498 127.221 15.2684 127.42 14.7596C127.625 14.2335 127.898 13.7872 128.343 13.3425C128.788 12.8977 129.234 12.6244 129.76 12.42C130.269 12.2221 130.85 12.0873 131.702 12.0483Z" fill="white"/>
<path fill-rule="evenodd" clip-rule="evenodd" d="M134.283 13.4417C134.422 13.4414 134.572 13.4415 134.734 13.4416L135.001 13.4417C137.137 13.4417 137.39 13.4493 138.234 13.4877C139.014 13.5233 139.437 13.6537 139.719 13.7632C140.092 13.9082 140.358 14.0815 140.638 14.3615C140.918 14.6415 141.092 14.9082 141.237 15.2815C141.346 15.5632 141.477 15.9865 141.512 16.7665C141.551 17.6099 141.559 17.8632 141.559 19.9982C141.559 22.1332 141.551 22.3866 141.512 23.2299C141.477 24.0099 141.346 24.4333 141.237 24.7149C141.092 25.0883 140.918 25.3541 140.638 25.634C140.358 25.914 140.092 26.0873 139.719 26.2323C139.437 26.3423 139.014 26.4723 138.234 26.508C137.39 26.5463 137.137 26.5546 135.001 26.5546C132.865 26.5546 132.611 26.5463 131.768 26.508C130.988 26.472 130.565 26.3416 130.283 26.2321C129.909 26.0871 129.643 25.9138 129.363 25.6338C129.083 25.3538 128.909 25.0878 128.764 24.7143C128.654 24.4326 128.524 24.0093 128.488 23.2293C128.45 22.3859 128.442 22.1326 128.442 19.9962C128.442 17.8599 128.45 17.6079 128.488 16.7645C128.524 15.9845 128.654 15.5612 128.764 15.2792C128.909 14.9058 129.083 14.6392 129.363 14.3592C129.643 14.0792 129.909 13.9058 130.283 13.7605C130.565 13.6505 130.988 13.5205 131.768 13.4847C132.506 13.4513 132.792 13.4413 134.283 13.4397V13.4417ZM139.271 14.77C138.741 14.77 138.311 15.1995 138.311 15.7297C138.311 16.2597 138.741 16.6897 139.271 16.6897C139.801 16.6897 140.231 16.2597 140.231 15.7297C140.231 15.1997 139.801 14.7697 139.271 14.7697V14.77ZM130.892 20.0001C130.892 17.7312 132.732 15.8917 135.001 15.8917C137.269 15.8917 139.109 17.7312 139.109 20.0001C139.109 22.2689 137.27 24.1076 135.001 24.1076C132.732 24.1076 130.892 22.2689 130.892 20.0001Z" fill="white"/>
<path fill-rule="evenodd" clip-rule="evenodd" d="M135.001 17.3334C136.473 17.3334 137.667 18.5273 137.667 20.0001C137.667 21.4728 136.473 22.6668 135.001 22.6668C133.528 22.6668 132.334 21.4728 132.334 20.0001C132.334 18.5273 133.528 17.3334 135.001 17.3334Z" fill="white"/>
<path fill-rule="evenodd" clip-rule="evenodd" d="M0 20C0 11.7157 6.71575 5 15 5C23.2843 5 30 11.7157 30 20C30 28.2843 23.2843 35 15 35C6.71575 35 0 28.2843 0 20ZM14.9898 20.2408C17.2017 20.2408 18.9998 18.505 18.9998 16.371C18.9998 14.2363 17.2017 12.5 14.9898 12.5C12.7784 12.5 10.9798 14.2363 10.9798 16.371C10.9798 18.505 12.7784 20.2408 14.9898 20.2408ZM18.951 22.4694C18.2259 22.909 17.4387 23.2207 16.6224 23.4002L18.8641 25.5643C19.3233 26.0067 19.3233 26.725 18.8641 27.1679C18.4054 27.6107 17.6618 27.6107 17.2036 27.1679L14.9996 25.0413L12.7975 27.1679C12.5679 27.389 12.2671 27.4998 11.9662 27.4998C11.6658 27.4998 11.3653 27.389 11.1357 27.1679C10.677 26.725 10.677 26.0071 11.1353 25.5643L13.3771 23.4002C12.5609 23.2207 11.7737 22.9085 11.0486 22.4694C10.4999 22.1354 10.3351 21.4357 10.6809 20.9056C11.0257 20.3748 11.7507 20.215 12.3004 20.549C13.942 21.5457 16.0568 21.546 17.6993 20.549C18.249 20.215 18.9738 20.3748 19.3193 20.9056C19.6651 21.4353 19.4998 22.1354 18.951 22.4694Z" fill="white"/>
<path fill-rule="evenodd" clip-rule="evenodd" d="M14.9897 14.7686C15.9052 14.7686 16.65 15.4872 16.65 16.371C16.65 17.2541 15.9052 17.9732 14.9897 17.9732C14.0748 17.9732 13.3293 17.2541 13.3293 16.371C13.3293 15.4872 14.0748 14.7686 14.9897 14.7686Z" fill="white"/>
<path fill-rule="evenodd" clip-rule="evenodd" d="M75 5C66.7157 5 60 11.7157 60 20C60 28.2843 66.7157 35 75 35C83.2843 35 90 28.2843 90 20C90 11.7157 83.2843 5 75 5ZM76.2213 24.7351C76.0735 24.8911 75.7846 24.9226 75.7846 24.9226H74.8284C74.8284 24.9226 72.7186 25.047 70.86 23.1481C68.8332 21.0764 67.0434 16.966 67.0434 16.966C67.0434 16.966 66.9402 16.6964 67.0521 16.5665C67.1781 16.4198 67.5216 16.4106 67.5216 16.4106L69.8075 16.396C69.8075 16.396 70.0227 16.4306 70.1769 16.542C70.3044 16.6341 70.3756 16.8054 70.3756 16.8054C70.3756 16.8054 70.7449 17.7226 71.234 18.5522C72.1896 20.1723 72.634 20.5264 72.958 20.3527C73.4307 20.1 73.2891 18.0629 73.2891 18.0629C73.2891 18.0629 73.2977 17.3239 73.0512 16.9944C72.8602 16.7394 72.5002 16.6649 72.3414 16.6441C72.2123 16.6272 72.4235 16.3337 72.6974 16.2024C73.1091 16.005 73.8353 15.9935 74.6938 16.0019C75.3629 16.0089 75.5553 16.0496 75.8167 16.1117C76.4233 16.2554 76.4044 16.716 76.3636 17.7098C76.3514 18.007 76.3372 18.3519 76.3372 18.7504C76.3372 18.8399 76.3345 18.9354 76.3318 19.0336C76.3176 19.5427 76.3013 20.1258 76.6432 20.3428C76.8184 20.4534 77.2465 20.3589 78.3178 18.5737C78.8257 17.7272 79.206 16.7324 79.206 16.7324C79.206 16.7324 79.2897 16.555 79.4189 16.4789C79.5511 16.4014 79.7295 16.4252 79.7295 16.4252L82.1352 16.4106C82.1352 16.4106 82.8582 16.3253 82.9748 16.6464C83.0977 16.9821 82.7049 17.7671 81.722 19.0531C80.7896 20.2732 80.3358 20.7224 80.3775 21.1197C80.408 21.41 80.7029 21.6726 81.2689 22.1879C82.4503 23.2647 82.767 23.8312 82.8431 23.9673C82.8494 23.9785 82.8541 23.9869 82.8575 23.9923C83.3873 24.8549 82.2698 24.9226 82.2698 24.9226L80.1325 24.9517C80.1325 24.9517 79.674 25.0408 79.0699 24.6337C78.7534 24.4206 78.4441 24.0726 78.1496 23.7411C77.6997 23.2349 77.2843 22.7673 76.9296 22.8777C76.334 23.0636 76.352 24.3226 76.352 24.3226C76.352 24.3226 76.3567 24.5922 76.2213 24.7351Z" fill="white"/>
<path d="M403.333 21.6321H366.667C365.747 21.6321 365 20.8854 365 19.9654C365 19.0454 365.747 18.2988 366.667 18.2988H403.333C404.253 18.2988 405 19.0454 405 19.9654C405 20.8854 404.253 21.6321 403.333 21.6321Z" fill="white"/>
<path d="M403.333 8.85416H366.667C365.747 8.85416 365 8.1075 365 7.1875C365 6.26749 365.747 5.52083 366.667 5.52083H403.333C404.253 5.52083 405 6.26749 405 7.1875C405 8.1075 404.253 8.85416 403.333 8.85416Z" fill="white"/>
<path d="M403.333 34.4096H366.667C365.747 34.4096 365 33.6629 365 32.7429C365 31.8229 365.747 31.0762 366.667 31.0762H403.333C404.253 31.0762 405 31.8229 405 32.7429C405 33.6629 404.253 34.4096 403.333 34.4096Z" fill="white"/>
</svg>
