<svg width="16" height="20" viewBox="0 0 16 20" fill="none" xmlns="http://www.w3.org/2000/svg">
<path fill-rule="evenodd" clip-rule="evenodd" d="M7.18837 9.89429C7.73399 9.15397 7.67308 8.37438 7.29472 6.97198C6.54649 4.19843 6.84436 2.67824 9.42408 0.878444L10.6832 0L10.9877 1.47179C11.3113 3.03592 11.8428 4.00335 13.2075 5.8642C13.2617 5.93812 13.2617 5.93812 13.3162 6.01237C15.2819 8.69299 16 10.3089 16 13.2436C16 16.8036 12.2766 20 8.0114 20C3.74585 20 0.0227532 16.804 0.0227532 13.2436C0.0227532 13.1771 0.0228231 13.179 0.0111597 12.885C-0.0790716 10.6103 0.356088 8.83005 2.11684 6.9078C2.48885 6.50167 2.91171 6.11133 3.38758 5.73783L4.43807 4.9133L4.94339 6.12668C5.31678 7.02325 5.75428 7.72804 6.24851 8.24524C6.66701 8.68334 6.97757 9.23418 7.18837 9.89429ZM3.61211 8.18747C2.25669 9.66717 1.93444 10.9855 2.00684 12.8109C2.02032 13.1508 2.0199 13.1388 2.0199 13.2436C2.0199 15.6835 4.79954 18.0696 8.0114 18.0696C11.2229 18.0696 14.0028 15.6831 14.0028 13.2436C14.0028 10.7902 13.4354 9.51303 11.6869 7.12868C11.6326 7.05482 11.6326 7.05482 11.5782 6.98057C10.5163 5.53262 9.88333 4.52541 9.46462 3.39895C8.7807 4.19105 8.82094 4.97886 9.22726 6.48485C9.97559 9.25841 9.67762 10.7786 7.0979 12.5783L5.62703 13.6046L5.51677 11.8544C5.44632 10.7362 5.18445 9.97691 4.78135 9.55502C4.38309 9.13824 4.02352 8.65023 3.70106 8.09204C3.67098 8.12377 3.64133 8.15558 3.61211 8.18747Z" fill="#FF441B"/>
</svg>
