<svg width="30" height="30" viewBox="0 0 30 30" fill="none" xmlns="http://www.w3.org/2000/svg">
<path fill-rule="evenodd" clip-rule="evenodd" d="M15 0C6.71575 0 0 6.71575 0 15C0 23.2843 6.71575 30 15 30C23.2843 30 30 23.2843 30 15C30 6.71575 23.2843 0 15 0ZM16.2213 19.7351C16.0735 19.8911 15.7846 19.9226 15.7846 19.9226H14.8284C14.8284 19.9226 12.7186 20.047 10.86 18.1481C8.8332 16.0764 7.04345 11.966 7.04345 11.966C7.04345 11.966 6.94015 11.6964 7.05205 11.5665C7.17805 11.4198 7.5216 11.4106 7.5216 11.4106L9.80745 11.396C9.80745 11.396 10.0227 11.4306 10.1769 11.542C10.3044 11.6341 10.3756 11.8054 10.3756 11.8054C10.3756 11.8054 10.7449 12.7226 11.234 13.5522C12.1896 15.1723 12.634 15.5264 12.958 15.3527C13.4307 15.1 13.2891 13.0629 13.2891 13.0629C13.2891 13.0629 13.2977 12.3239 13.0512 11.9944C12.8602 11.7394 12.5002 11.6649 12.3414 11.6441C12.2123 11.6272 12.4235 11.3337 12.6974 11.2024C13.1091 11.005 13.8353 10.9935 14.6938 11.0019C15.3629 11.0089 15.5553 11.0496 15.8167 11.1117C16.4233 11.2554 16.4044 11.716 16.3636 12.7098C16.3514 13.007 16.3372 13.3519 16.3372 13.7504C16.3372 13.8399 16.3345 13.9354 16.3318 14.0336C16.3176 14.5427 16.3013 15.1258 16.6432 15.3428C16.8184 15.4534 17.2465 15.3589 18.3178 13.5737C18.8257 12.7272 19.206 11.7324 19.206 11.7324C19.206 11.7324 19.2897 11.555 19.4189 11.4789C19.5511 11.4014 19.7295 11.4252 19.7295 11.4252L22.1352 11.4106C22.1352 11.4106 22.8582 11.3253 22.9748 11.6464C23.0977 11.9821 22.7049 12.7671 21.722 14.0531C20.7896 15.2732 20.3358 15.7224 20.3775 16.1197C20.408 16.41 20.7029 16.6726 21.2689 17.1879C22.4503 18.2647 22.767 18.8312 22.8431 18.9673C22.8494 18.9785 22.8541 18.9869 22.8575 18.9923C23.3873 19.8549 22.2698 19.9226 22.2698 19.9226L20.1325 19.9517C20.1325 19.9517 19.674 20.0408 19.0699 19.6337C18.7534 19.4206 18.4441 19.0726 18.1496 18.7411C17.6997 18.2349 17.2843 17.7673 16.9296 17.8777C16.334 18.0636 16.352 19.3226 16.352 19.3226C16.352 19.3226 16.3567 19.5922 16.2213 19.7351Z" fill="#BFBFBF"/>
</svg>
