<svg width="30" height="30" viewBox="0 0 30 30" fill="none" xmlns="http://www.w3.org/2000/svg">
<path fill-rule="evenodd" clip-rule="evenodd" d="M27.5 14.9989C27.5 12.8957 26.087 11.2489 23.75 11.2489H19.9088L19.9435 11.1542C19.9783 11.0602 20.0761 10.8022 20.1712 10.5515L20.1714 10.5512L20.1719 10.55C20.2558 10.3287 20.3374 10.1135 20.3714 10.0225C20.609 9.38457 20.7825 8.87057 20.9227 8.36153C21.1349 7.59216 21.25 6.89901 21.25 6.24887C21.25 4.40886 20.1149 3.26602 18.4354 2.77698C17.6779 2.55641 17.0185 2.49876 16.25 2.49887H15.6506L15.2754 2.96622C14.8514 3.49416 14.0187 4.44563 13.0587 5.54258V5.54262C11.2878 7.56627 9.08363 10.085 8.21294 11.3531C7.98701 11.286 7.74771 11.25 7.5 11.25H5C3.61929 11.25 2.5 12.3693 2.5 13.75V25C2.5 26.3807 3.61929 27.5 5 27.5H7.5C8.3589 27.5 9.11664 27.0669 9.56671 26.4071C9.94592 26.6524 10.369 26.857 10.8289 27.0216C11.8818 27.3984 12.926 27.514 13.793 27.4981L22.5 27.4989C25.9439 27.4989 27.5 22.4284 27.5 14.9989ZM11.6711 24.6677C10.565 24.272 10 23.6266 10 22.4989V13.75V13.7489C10 13.4486 10.0555 13.1827 10.1771 12.8989C10.3956 12.3889 12.3774 10.1278 14.2559 7.98472V7.98467C15.2254 6.87862 16.1672 5.80402 16.825 5.01778C17.1392 5.04136 17.4355 5.08966 17.7364 5.17728C18.4528 5.38587 18.75 5.68516 18.75 6.24887C18.75 6.6446 18.6699 7.12676 18.5126 7.69713C18.3951 8.12335 18.243 8.57433 18.0286 9.1497C17.9983 9.23137 17.9222 9.4315 17.8416 9.64427L17.8414 9.64483C17.743 9.90391 17.6378 10.1816 17.5988 10.2871C17.4361 10.7266 17.3291 11.0502 17.2559 11.3443C16.9444 12.5944 17.2569 13.7489 18.75 13.7489H23.75C24.614 13.7489 25 14.1987 25 14.9989C25 20.9872 23.7689 24.9989 22.5 24.9989H13.75L13.7039 24.9996C13.1568 25.0095 12.3883 24.9244 11.6711 24.6677ZM5 25V13.75H7.5V25H5Z" fill="#0763E2"/>
</svg>
