<svg width="116" height="116" viewBox="0 0 116 116" fill="none" xmlns="http://www.w3.org/2000/svg">
<circle cx="58" cy="58" r="57" stroke="white" stroke-width="2"/>
<path d="M87.2483 63.2669L84.7547 60.7725C83.7674 59.7861 82.0467 59.7861 81.0595 60.7725L67.5887 74.2433L65.7323 81.0517L65.2781 81.506C64.9385 81.8456 64.9376 82.3935 65.2728 82.7357L65.2685 82.7532L65.2851 82.7488C65.4549 82.9151 65.6754 83.0009 65.8969 83.0009C66.1209 83.0009 66.345 82.9151 66.5157 82.7444L66.9708 82.2893L73.7784 80.4329L87.2483 66.9622C88.267 65.9425 88.267 64.2857 87.2483 63.2669ZM69.6096 74.6975L78.5747 65.7325L82.2883 69.4461L73.3233 78.4111L69.6096 74.6975ZM68.8202 76.3832L71.6384 79.2015L67.7629 80.2588L68.8202 76.3832ZM86.0107 65.7237L83.5259 68.2085L79.8123 64.4949L82.297 62.0101C82.6226 61.6836 83.1907 61.6836 83.5163 62.0101L86.0107 64.5045C86.3468 64.8397 86.3468 65.3876 86.0107 65.7237Z" fill="white"/>
<path d="M45.1266 63.5083H67.8828C68.3659 63.5083 68.758 63.1171 68.758 62.633C68.758 62.149 68.3659 61.7578 67.8828 61.7578H45.1266C44.6435 61.7578 44.2514 62.149 44.2514 62.633C44.2514 63.1171 44.6435 63.5083 45.1266 63.5083Z" fill="white"/>
<path d="M64.3818 67.0093H45.1266C44.6435 67.0093 44.2514 67.4005 44.2514 67.8845C44.2514 68.3685 44.6435 68.7597 45.1266 68.7597H64.3818C64.865 68.7597 65.2571 68.3685 65.2571 67.8845C65.2571 67.4005 64.8658 67.0093 64.3818 67.0093Z" fill="white"/>
<path d="M45.1266 47.7544H56.5047C56.9878 47.7544 57.3799 47.3631 57.3799 46.8791C57.3799 46.3951 56.9878 46.0039 56.5047 46.0039H45.1266C44.6435 46.0039 44.2514 46.3951 44.2514 46.8791C44.2514 47.3631 44.6435 47.7544 45.1266 47.7544Z" fill="white"/>
<path d="M56.5047 74.0112C56.9878 74.0112 57.3799 73.62 57.3799 73.136C57.3799 72.652 56.9878 72.2607 56.5047 72.2607H45.1266C44.6435 72.2607 44.2514 72.652 44.2514 73.136C44.2514 73.62 44.6435 74.0112 45.1266 74.0112H56.5047Z" fill="white"/>
<path d="M70.5085 51.2554H45.1266C44.6435 51.2554 44.2514 51.6466 44.2514 52.1306C44.2514 52.6146 44.6435 53.0058 45.1266 53.0058H70.5085C70.9916 53.0058 71.3837 52.6146 71.3837 52.1306C71.3837 51.6466 70.9925 51.2554 70.5085 51.2554Z" fill="white"/>
<path d="M45.1266 58.2573H57.3799C57.8631 58.2573 58.2552 57.8661 58.2552 57.3821C58.2552 56.8981 57.8631 56.5068 57.3799 56.5068H45.1266C44.6435 56.5068 44.2514 56.8981 44.2514 57.3821C44.2514 57.8661 44.6435 58.2573 45.1266 58.2573Z" fill="white"/>
<path d="M71.3837 57.3821C71.3837 56.8981 70.9916 56.5068 70.5085 56.5068H64.3818C63.8987 56.5068 63.5066 56.8981 63.5066 57.3821C63.5066 57.8661 63.8987 58.2573 64.3818 58.2573H70.5085C70.9925 58.2573 71.3837 57.8661 71.3837 57.3821Z" fill="white"/>
<path d="M61.5023 58.0023C61.6599 57.8369 61.7561 57.6085 61.7561 57.3809C61.7561 57.1533 61.6599 56.9258 61.5023 56.7595C61.1697 56.4356 60.5833 56.4356 60.2595 56.7595C60.102 56.9258 60.0057 57.1533 60.0057 57.3809C60.0057 57.6181 60.102 57.8369 60.2595 58.0023C60.4258 58.1607 60.6534 58.2561 60.8809 58.2561C61.1085 58.2561 61.3369 58.1607 61.5023 58.0023Z" fill="white"/>
<path d="M60.8809 81.0132H40.7505V39.0019H46.8771V40.7524C46.8771 41.2364 47.2692 41.6276 47.7524 41.6276H67.8828C68.3659 41.6276 68.758 41.2364 68.758 40.7524V39.0019H74.8847V58.2571C74.8847 58.7411 75.2768 59.1323 75.7599 59.1323C76.243 59.1323 76.6351 58.7411 76.6351 58.2571V38.1267C76.6351 37.6426 76.243 37.2514 75.7599 37.2514H68.758V35.5009C68.758 35.0169 68.3659 34.6257 67.8828 34.6257H62.6314V32.8752C62.6314 32.3912 62.2393 32 61.7561 32H53.879C53.3959 32 53.0038 32.3912 53.0038 32.8752V34.6257H47.7524C47.2692 34.6257 46.8771 35.0169 46.8771 35.5009V37.2514H39.8752C39.3921 37.2514 39 37.6426 39 38.1267V81.8885C39 82.3725 39.3921 82.7637 39.8752 82.7637H60.8809C61.364 82.7637 61.7561 82.3725 61.7561 81.8885C61.7561 81.4044 61.3649 81.0132 60.8809 81.0132ZM54.7542 33.7505H60.8809V35.5009V37.2514H54.7542V35.5009V33.7505ZM48.6276 36.3762H53.0038V38.1267C53.0038 38.6107 53.3959 39.0019 53.879 39.0019H61.7561C62.2393 39.0019 62.6314 38.6107 62.6314 38.1267V36.3762H67.0075V38.1267V39.8771H48.6276V38.1267V36.3762Z" fill="white"/>
</svg>
