<svg width="43" height="43" viewBox="0 0 43 43" fill="none" xmlns="http://www.w3.org/2000/svg">
<circle cx="21.5" cy="21.5" r="21" stroke="#FFE500"/>
<path d="M30.8926 12.2778C30.5248 11.9048 29.9258 11.91 29.5527 12.2778L26.1897 15.6408C22.0228 13.7491 17.5774 14.2115 13.337 16.9807C10.1789 19.0405 8.261 21.631 8.18218 21.7414C7.92996 22.0882 7.94047 22.5611 8.20846 22.8974C10.0055 25.1043 11.8867 26.8226 13.8099 28.0206L10.8515 30.979C10.4837 31.3468 10.4837 31.9458 10.8515 32.3189C11.0354 32.5028 11.2771 32.5974 11.5189 32.5974C11.7606 32.5974 12.0023 32.5028 12.1862 32.3189L30.8926 13.6178C31.2604 13.2499 31.2604 12.6509 30.8926 12.2778ZM18.5338 23.2968C18.3971 22.9867 18.3288 22.6504 18.3288 22.2984C18.3288 21.6205 18.5916 20.9795 19.075 20.496C19.8317 19.7394 20.9509 19.5607 21.8757 19.9548L18.5338 23.2968ZM23.2734 18.5624C21.5552 17.4589 19.2379 17.6586 17.7403 19.1561C16.8996 19.9969 16.4424 21.1108 16.4424 22.2931C16.4424 23.1549 16.6894 23.9799 17.1465 24.6892L15.1971 26.6387C13.4893 25.6508 11.8079 24.19 10.1737 22.2826C10.8725 21.4629 12.3491 19.8813 14.3721 18.5624C17.8717 16.2819 21.3555 15.7879 24.75 17.0858L23.2734 18.5624Z" fill="white"/>
</svg>
