<svg width="113" height="18" viewBox="0 0 113 18" fill="none" xmlns="http://www.w3.org/2000/svg">
<path d="M8.56061 0L11.5797 4.4052L16.7022 5.91523L13.4456 10.1478L13.5924 15.4863L8.56061 13.697L3.52881 15.4863L3.67563 10.1478L0.418986 5.91523L5.54153 4.4052L8.56061 0Z" fill="#FFB800"/>
<path d="M32.5303 0L35.5494 4.4052L40.672 5.91523L37.4153 10.1478L37.5621 15.4863L32.5303 13.697L27.4985 15.4863L27.6454 10.1478L24.3887 5.91523L29.5113 4.4052L32.5303 0Z" fill="#FFB800"/>
<path d="M56.5001 0L59.5191 4.4052L64.6417 5.91523L61.385 10.1478L61.5319 15.4863L56.5001 13.697L51.4683 15.4863L51.6151 10.1478L48.3584 5.91523L53.481 4.4052L56.5001 0Z" fill="#FFB800"/>
<path d="M80.4698 0L83.4889 4.4052L88.6114 5.91523L85.3548 10.1478L85.5016 15.4863L80.4698 13.697L75.438 15.4863L75.5848 10.1478L72.3282 5.91523L77.4507 4.4052L80.4698 0Z" fill="#FFB800"/>
<path d="M104.439 0.884454L107.046 4.68786L107.147 4.83452L107.317 4.8848L111.74 6.18854L108.928 9.84293L108.82 9.98384L108.825 10.1616L108.951 14.7707L104.607 13.2259L104.439 13.1663L104.272 13.2259L99.9275 14.7707L100.054 10.1616L100.059 9.98384L99.9507 9.84293L97.1389 6.18854L101.562 4.8848L101.732 4.83452L101.833 4.68786L104.439 0.884454Z" stroke="#FFB800"/>
</svg>
