<svg width="45" height="45" viewBox="0 0 45 45" fill="none" xmlns="http://www.w3.org/2000/svg">
<circle cx="22.5" cy="22.5" r="22.5" fill="#3E5581"/>
<path d="M18.589 12.1581L18.2602 12.8529L19.0183 13.2117L19.3471 12.5169L18.589 12.1581Z" fill="white"/>
<path d="M17.9122 13.5867L13.2813 23.3627C12.8863 24.1968 12.6774 25.1256 12.6774 26.0486H13.5161C13.5161 25.2493 13.6973 24.4442 14.0395 23.7212L18.6704 13.9452L17.9122 13.5867Z" fill="white"/>
<path d="M28.1935 16.3871C26.5824 16.3871 25.0756 16.8295 23.7748 17.5881L19.3468 8.23987C19.2772 8.09352 19.1296 8 18.9677 8C18.8059 8 18.6583 8.09352 18.5886 8.23987L11.7653 22.6447C11.2646 23.7011 11 24.8786 11 26.0486C11 30.433 14.567 34 18.9841 34C20.5957 34 22.1439 33.519 23.4683 32.6128C24.8354 33.4863 26.4541 34 28.1935 34C33.0497 34 37 30.0493 37 25.1935C37 20.3378 33.0497 16.3871 28.1935 16.3871ZM18.9514 33.1613C15.0292 33.1613 11.8387 29.9708 11.8387 26.0486C11.8387 25.0019 12.0752 23.9489 12.5235 23.0033L18.9677 9.39897L23.0653 18.049C20.8423 19.6488 19.3871 22.2518 19.3871 25.1935C19.3871 27.9865 20.698 30.4749 22.7323 32.0894C21.6076 32.7893 20.3181 33.1613 18.9514 33.1613ZM28.1935 33.1613C23.8 33.1613 20.2258 29.5871 20.2258 25.1935C20.2258 20.8 23.8 17.2258 28.1935 17.2258C32.5871 17.2258 36.1613 20.8 36.1613 25.1935C36.1613 29.5871 32.5871 33.1613 28.1935 33.1613Z" fill="white"/>
<path d="M28.1935 18.4839C26.1127 18.4839 24.4193 19.8011 24.4193 21.4194C24.4193 23.0377 26.1127 24.3549 28.1935 24.3549C30.2743 24.3549 31.9677 23.0377 31.9677 21.4194C31.9677 19.8011 30.2743 18.4839 28.1935 18.4839ZM28.1935 23.5161C26.5748 23.5161 25.258 22.5755 25.258 21.4194C25.258 20.2632 26.5748 19.3226 28.1935 19.3226C29.8122 19.3226 31.129 20.2632 31.129 21.4194C31.129 22.5755 29.8122 23.5161 28.1935 23.5161Z" fill="white"/>
<path d="M29.3165 20.3982C28.6041 20.6402 27.783 20.6402 27.0701 20.3982L26.8004 21.1929C27.2441 21.343 27.7129 21.4193 28.1935 21.4193C28.6741 21.4193 29.1429 21.343 29.5862 21.1929L29.3165 20.3982Z" fill="white"/>
<path d="M32.1892 26.2079C31.9904 26.5274 31.7371 26.8139 31.4356 27.0609C31.1345 27.3083 30.8032 27.5003 30.4518 27.632L30.7466 28.4175C31.1844 28.2531 31.5954 28.0153 31.9678 27.7096C32.3401 27.4043 32.6542 27.0483 32.9012 26.6511L32.1892 26.2079Z" fill="white"/>
<path d="M34.7993 25.2866C34.3946 24.7653 33.7819 24.4391 33.0745 24.3695C32.0944 24.2693 31.0314 24.6521 30.1558 25.4112C28.6117 26.7489 28.1546 28.8671 29.1363 30.1327C29.541 30.6539 30.1537 30.9802 30.8611 31.0498C30.9618 31.0599 31.0628 31.0649 31.1647 31.0649C32.0563 31.0649 32.994 30.6892 33.7798 30.0077C35.3239 28.67 35.7814 26.5518 34.7993 25.2866ZM33.2309 29.3741C32.5385 29.9742 31.6835 30.2874 30.9437 30.2153C30.4611 30.1679 30.0652 29.9616 29.7993 29.6185C29.086 28.6993 29.4923 27.0961 30.7051 26.0452C31.3312 25.5026 32.0902 25.1935 32.7772 25.1935C32.8497 25.1935 32.9214 25.1973 32.9919 25.204C33.4745 25.2514 33.8704 25.4577 34.1363 25.8007C34.85 26.7204 34.4437 28.3232 33.2309 29.3741Z" fill="white"/>
<path d="M24.9511 27.0609C24.65 26.8139 24.3967 26.5274 24.1983 26.2079L23.4863 26.6511C23.7333 27.0483 24.0474 27.4043 24.4193 27.7096C24.7917 28.0153 25.2027 28.2531 25.6405 28.4175L25.9353 27.632C25.5839 27.5003 25.2526 27.3083 24.9511 27.0609Z" fill="white"/>
<path d="M26.2314 25.4116C25.3553 24.6526 24.2902 24.2697 23.3127 24.37C22.6052 24.4396 21.993 24.7654 21.5879 25.2871C20.6057 26.5527 21.0632 28.6705 22.6073 30.0086C23.3936 30.6896 24.3309 31.0658 25.2224 31.0658C25.3243 31.0658 25.4258 31.0608 25.526 31.0507C26.2335 30.9811 26.8457 30.6553 27.2508 30.1336C28.233 28.8676 27.7754 26.7494 26.2314 25.4116ZM26.5882 29.6186C26.3224 29.9612 25.9265 30.168 25.4438 30.2154C24.7016 30.2871 23.8486 29.9742 23.1567 29.3741C21.9435 28.3232 21.5375 26.7205 22.2509 25.8008C22.5167 25.4582 22.9126 25.2515 23.3953 25.2041C23.4657 25.1974 23.5374 25.1936 23.61 25.1936C24.2969 25.1936 25.0563 25.5026 25.6824 26.0453C26.8952 27.0962 27.3016 28.699 26.5882 29.6186Z" fill="white"/>
</svg>
