<svg width="60" height="61" viewBox="0 0 60 61" fill="none" xmlns="http://www.w3.org/2000/svg">
<path d="M59 30.5C59 46.808 46.0007 60 30 60C13.9993 60 1 46.808 1 30.5C1 14.192 13.9993 1 30 1C46.0007 1 59 14.192 59 30.5Z" stroke="black" stroke-width="2"/>
<path d="M46.2084 28.2118H45.4471V23.6376C45.4471 21.7672 43.9245 20.2512 42.0607 20.2512H41.3585L41.3651 18.5514C41.3651 17.2914 40.3413 16.2676 39.0812 16.2676H18.776C17.26 16.2676 16.0197 17.4883 16 19.0042C16 19.0174 16 19.0305 16 19.0436V41.4489C16 42.7089 17.0238 43.7327 18.2838 43.7327H42.0673C43.9377 43.7327 45.4536 42.2102 45.4536 40.3463V35.7655H46.2149C47.1993 35.7655 48 34.9649 48 33.9805V29.9969C47.9934 29.0125 47.1928 28.2118 46.2084 28.2118ZM18.776 17.8426H39.0812C39.4684 17.8426 39.79 18.1577 39.79 18.5449L39.7834 20.2512H18.776C18.1132 20.2512 17.5751 19.713 17.5751 19.0502C17.5751 18.3873 18.1132 17.8426 18.776 17.8426ZM43.872 40.3398C43.872 41.3373 43.0582 42.1511 42.0607 42.1511H18.2773C17.8901 42.1511 17.5685 41.8361 17.5685 41.4423V21.5506C17.936 21.7278 18.3429 21.8262 18.776 21.8262H42.0607C43.0582 21.8262 43.872 22.64 43.872 23.6376V28.2118H38.4971C37.5127 28.2118 36.7121 29.0125 36.7121 29.9969V33.9805C36.7121 34.9649 37.5127 35.7655 38.4971 35.7655H43.872V40.3398ZM46.4184 33.9805C46.4184 34.0986 46.3265 34.1905 46.2084 34.1905H38.5037C38.3856 34.1905 38.2937 34.0986 38.2937 33.9805V29.9969C38.2937 29.8853 38.3856 29.7869 38.5037 29.7869H46.2084C46.3199 29.7869 46.4184 29.8787 46.4184 29.9969V33.9805Z" fill="black"/>
<circle cx="41" cy="32" r="1" fill="black"/>
<path d="M24 40C24.5523 40 25 39.5523 25 39C25 38.4477 24.5523 38 24 38V40ZM17 40H24V38H17V40Z" fill="black"/>
</svg>
