<svg width="45" height="45" viewBox="0 0 45 45" fill="none" xmlns="http://www.w3.org/2000/svg">
<circle cx="22.5" cy="22.5" r="22.5" fill="#3E5581"/>
<g clip-path="url(#clip0)">
<path d="M34.562 20.2769C34.5023 20.0324 34.416 19.8339 34.3017 19.6778C34.4549 19.198 34.5441 18.718 34.5655 18.2471C34.576 18.0169 34.43 17.8085 34.2101 17.7396C33.1759 17.4154 31.9916 17.4108 30.801 17.716C31.1226 16.1547 30.9692 14.5908 30.3321 13.362C30.226 13.1574 29.9956 13.0501 29.7705 13.1001C28.4941 13.3853 27.2806 14.1699 26.3155 15.3098C26.1681 14.5675 25.9454 13.8525 25.6505 13.1869C25.0875 11.9157 24.2782 10.8497 23.3099 10.1042C23.1406 9.9739 22.8745 9.95687 22.6903 10.1042C21.7221 10.8497 20.9127 11.9157 20.3496 13.1869C20.0548 13.8525 19.8321 14.5675 19.6847 15.3098C18.7196 14.1699 17.5061 13.3853 16.2297 13.1001C16.0047 13.05 15.7742 13.1574 15.6681 13.362C15.031 14.5908 14.8775 16.1547 15.1991 17.7159C14.0087 17.4106 12.8242 17.4153 11.7902 17.7396C11.5702 17.8085 11.4243 18.0169 11.4347 18.2471C11.456 18.718 11.5453 19.1979 11.6986 19.6778C11.5843 19.8339 11.4979 20.0325 11.4382 20.2769C11.2467 21.0613 11.2611 22.9086 11.6649 24.7871C11.7207 25.0466 11.7867 25.3195 11.8648 25.5992V34.4765C11.8648 35.3166 12.5482 36.0001 13.3883 36.0001C14.2284 36.0001 14.9118 35.3166 14.9118 34.4765V30.0011C16.0606 30.6244 17.0033 30.6639 17.8456 30.6988C18.345 30.7195 18.8167 30.739 19.3163 30.8729C19.8842 31.025 20.241 31.2368 20.6189 31.4609C21.1999 31.8056 21.8007 32.1621 23.0003 32.1621C24.1998 32.1621 24.8006 31.8056 25.3816 31.4609C25.7594 31.2368 26.1162 31.025 26.6841 30.8729C27.1837 30.7391 27.6554 30.7195 28.1548 30.6988C29.1 30.6596 30.1713 30.6153 31.5189 29.7461C33.1988 28.6625 33.9778 26.4513 34.3355 24.7871C34.7391 22.9086 34.7535 21.0613 34.562 20.2769ZM33.5124 18.6061C33.4814 18.8217 33.4332 19.0396 33.3688 19.2586C33.0228 19.2823 32.6568 19.4342 32.2771 19.5923C31.9132 19.7439 31.5007 19.9157 31.0758 19.9925C30.7441 20.0524 30.3874 20.0203 29.9884 19.9655C30.0569 19.836 30.1233 19.7053 30.1853 19.5725C30.292 19.3436 30.3871 19.1114 30.472 18.8773C31.5237 18.504 32.5823 18.4104 33.5124 18.6061ZM29.5998 14.1999C30.1655 15.6126 30.0474 17.4648 29.2648 19.1432C29.1562 19.3761 29.0355 19.6035 28.9051 19.8227C28.5169 19.7873 28.0994 19.7777 27.6484 19.8348L28.0379 18.9634C28.1524 18.7074 28.0376 18.4071 27.7816 18.2926C27.5255 18.1781 27.2251 18.2929 27.1107 18.549L26.3886 20.1643C26.3501 20.1797 26.3114 20.1958 26.2725 20.2123C26.2612 20.1485 26.2471 20.0852 26.2286 20.023C26.4257 19.1985 26.5268 18.3398 26.5268 17.4672C26.5268 17.2322 26.5186 16.9982 26.504 16.7651C27.2982 15.5177 28.4262 14.5871 29.5998 14.1999ZM20.8095 20.8676C20.6417 20.5769 20.7023 20.2053 20.9536 19.9841C21.0631 19.8877 21.1259 19.7488 21.1259 19.6029C21.1259 19.457 21.0631 19.3182 20.9536 19.2217C20.7023 19.0005 20.6417 18.6288 20.8096 18.3382C20.9774 18.0474 21.3294 17.9143 21.6467 18.0212C21.785 18.0677 21.9366 18.0528 22.063 17.9798C22.1893 17.9068 22.2782 17.7831 22.3069 17.64C22.3729 17.3118 22.6644 17.0735 23.0001 17.0735C23.3357 17.0735 23.6272 17.3118 23.6932 17.64C23.7219 17.783 23.8108 17.9069 23.9372 17.9798C24.0635 18.0528 24.2151 18.0677 24.3534 18.0212C24.6706 17.914 25.0227 18.0475 25.1905 18.3382C25.3584 18.6288 25.2978 19.0005 25.0465 19.2217C24.937 19.3181 24.8743 19.457 24.8743 19.6029C24.8743 19.7488 24.937 19.8876 25.0465 19.9841C25.2978 20.2053 25.3584 20.577 25.1906 20.8676C25.0227 21.1584 24.6707 21.2918 24.3535 21.1846C24.2152 21.1381 24.0636 21.153 23.9372 21.226C23.8108 21.299 23.7219 21.4227 23.6932 21.5658C23.6272 21.894 23.3357 22.1323 23.0001 22.1323C22.6644 22.1323 22.3728 21.894 22.3069 21.5658C22.2782 21.4227 22.1893 21.2989 22.0629 21.226C21.9848 21.1809 21.8972 21.1579 21.809 21.1579C21.7543 21.1579 21.6995 21.1668 21.6466 21.1846C21.3295 21.2918 20.9774 21.1584 20.8095 20.8676ZM23.0001 11.1663C24.5116 12.5141 25.454 14.7871 25.5083 17.2429C25.2159 17.056 24.8709 16.9592 24.5202 16.9699C24.3063 16.5706 23.9405 16.27 23.5079 16.1357V14.0825C23.5079 13.8021 23.2805 13.5747 23.0001 13.5747C22.7196 13.5747 22.4922 13.8021 22.4922 14.0825V16.1357C22.0596 16.2701 21.6938 16.5707 21.4799 16.97C21.1295 16.9598 20.7842 17.0567 20.4918 17.2434C20.546 14.7874 21.4885 12.5142 23.0001 11.1663ZM16.4003 14.1999C17.5739 14.5871 18.702 15.5177 19.4962 16.7651C19.4816 16.9981 19.4734 17.2322 19.4734 17.4672C19.4734 18.3398 19.5745 19.1985 19.7716 20.023C19.7532 20.0852 19.739 20.1485 19.7277 20.2123C19.6888 20.1957 19.6501 20.1797 19.6116 20.1643L18.8895 18.549C18.775 18.293 18.4748 18.178 18.2187 18.2926C17.9626 18.4071 17.8478 18.7074 17.9623 18.9634L18.3519 19.8349C17.9008 19.7777 17.4834 19.7873 17.0952 19.8227C16.9648 19.6036 16.844 19.3762 16.7354 19.1432C15.9528 17.4648 15.8347 15.6126 16.4003 14.1999ZM15.5282 18.8773C15.613 19.1114 15.7081 19.3436 15.8149 19.5725C15.8768 19.7053 15.9433 19.836 16.0118 19.9655C15.6126 20.0204 15.2559 20.0524 14.9244 19.9926C14.4994 19.9157 14.0869 19.7439 13.723 19.5924C13.3435 19.4342 12.9773 19.2824 12.6313 19.2587C12.5668 19.0396 12.5187 18.8217 12.4877 18.6061C13.4179 18.4105 14.4765 18.5041 15.5282 18.8773ZM13.3882 34.9843C13.1082 34.9843 12.8804 34.7565 12.8804 34.4765V28.0322C13.1635 28.4979 13.4985 28.9295 13.8961 29.293V34.4765C13.8961 34.7565 13.6683 34.9843 13.3882 34.9843ZM30.9682 28.8925C29.8529 29.6119 29.0076 29.6468 28.1126 29.684C27.5801 29.706 27.0293 29.7288 26.4211 29.8918C25.7181 30.0802 25.2639 30.3497 24.8632 30.5874C24.3368 30.8997 23.921 31.1464 23.0001 31.1464C22.0792 31.1464 21.6633 30.8997 21.1369 30.5874C20.7362 30.3496 20.282 30.0802 19.579 29.8918C18.9708 29.7288 18.4201 29.706 17.8875 29.684C16.9925 29.6469 16.1471 29.612 15.0319 28.8925C12.4764 27.244 12.1227 21.7558 12.4249 20.5177C12.4669 20.3455 12.5107 20.2858 12.5235 20.2712C12.6483 20.2455 13.0592 20.4161 13.3326 20.5299C13.7441 20.7013 14.2106 20.8957 14.7439 20.992C15.3162 21.0954 15.8644 21.0147 16.4447 20.9293C17.482 20.7767 18.5541 20.6195 20.0062 21.4948C20.3428 21.9806 20.903 22.2543 21.4801 22.2359C21.7737 22.7844 22.3533 23.1481 23.0002 23.1481C23.6471 23.1481 24.2267 22.7844 24.5203 22.2359C25.0966 22.255 25.6575 21.9806 25.9942 21.4947C27.4463 20.6194 28.5184 20.7767 29.5556 20.9292C30.136 21.0148 30.6842 21.0955 31.2565 20.992C31.7898 20.8957 32.2562 20.7013 32.6678 20.5299C32.9412 20.4161 33.352 20.2453 33.4768 20.2712C33.4896 20.2857 33.5334 20.3456 33.5755 20.5177C33.8775 21.7558 33.5238 27.2441 30.9682 28.8925Z" fill="white"/>
<path d="M19.8395 24.9692C19.149 24.4504 18.3264 24.1763 17.4606 24.1763C16.5962 24.1763 15.7747 24.4497 15.0847 24.967C14.8781 25.1219 14.8206 25.4072 14.9512 25.6301C15.8036 27.0853 17.3797 27.9893 19.0641 27.9893C19.7257 27.9893 20.3667 27.8558 20.9693 27.5926C21.2057 27.4893 21.3271 27.2252 21.2516 26.9785C21.0084 26.184 20.5069 25.4705 19.8395 24.9692ZM19.0641 26.9735C17.9031 26.9735 16.8074 26.4275 16.1025 25.5222C16.5191 25.305 16.9809 25.1919 17.4606 25.1919C18.6022 25.1919 19.6124 25.8329 20.103 26.8279C19.7674 26.9247 19.4196 26.9735 19.0641 26.9735Z" fill="white"/>
<path d="M30.9155 24.967C30.2255 24.4497 29.4039 24.1763 28.5395 24.1763C27.6738 24.1763 26.8511 24.4504 26.1607 24.9692C25.4933 25.4705 24.9918 26.1841 24.7485 26.9785C24.673 27.2252 24.7944 27.4893 25.0309 27.5926C25.6335 27.8558 26.2745 27.9893 26.936 27.9893C28.6205 27.9893 30.1966 27.0853 31.049 25.6301C31.1795 25.4072 31.1221 25.1218 30.9155 24.967ZM26.936 26.9735C26.5805 26.9735 26.2328 26.9247 25.8972 26.8279C26.3878 25.8329 27.3979 25.1919 28.5395 25.1919C29.0192 25.1919 29.4811 25.3051 29.8977 25.5222C29.1928 26.4275 28.0971 26.9735 26.936 26.9735Z" fill="white"/>
<path d="M17.4937 17.178C17.57 17.178 17.6475 17.1607 17.7204 17.1243C17.9713 16.9988 18.0729 16.6938 17.9475 16.4429L17.9473 16.4426C17.8219 16.1918 17.517 16.0901 17.2661 16.2157C17.0152 16.3411 16.9136 16.6462 17.039 16.8971C17.128 17.0751 17.3074 17.178 17.4937 17.178Z" fill="white"/>
<path d="M28.2798 17.1242C28.3527 17.1607 28.4301 17.1779 28.5065 17.1779C28.6927 17.1779 28.8721 17.0751 28.9611 16.8971L28.9612 16.8968C29.0867 16.6459 28.9849 16.3411 28.734 16.2157C28.4831 16.09 28.1781 16.192 28.0526 16.4429C27.9272 16.6937 28.0289 16.9988 28.2798 17.1242Z" fill="white"/>
</g>
<defs>
<clipPath id="clip0">
<rect width="26" height="26" fill="white" transform="translate(10 10)"/>
</clipPath>
</defs>
</svg>
