<svg width="144" height="122" viewBox="0 0 144 122" fill="none" xmlns="http://www.w3.org/2000/svg">
<g opacity="0.8">
<path d="M112.043 7.4675C105.846 29.3993 99.8236 54.6689 113.583 75.0894C126.17 94.0293 148.469 102.019 166.416 114.744C170.682 120.067 175.206 125.209 179.926 130.085C174.978 128.703 169.858 127.442 164.799 126.267C152.035 120.527 139.875 113.463 128.587 105.272C126.986 104.093 125.386 102.915 123.786 101.736C116.789 76.5458 92.8124 62.1769 71.0691 50.9757C70.5104 50.7288 69.2515 51.4884 69.4425 52.1228C73.9928 64.9372 79.5495 78.4519 89.7095 87.9513C95.2198 93.0385 102.02 96.319 108.895 99.1615C116.476 102.276 123.713 105.632 131.022 109.452C131.022 109.452 131.022 109.452 131.168 109.477C139.134 115.139 147.434 120.182 156.091 124.46C151.153 123.456 146.275 122.538 141.286 121.826C122.549 108.889 103.394 96.6317 79.5307 97.6932C59.2973 98.6304 40.1377 107.271 25.4764 121.199C25.3052 121.32 24.9726 121.939 25.325 122.075C26.236 122.458 27.1471 122.841 28.0581 123.224C28.4708 123.446 29.3873 122.928 29.7802 122.394C51.9292 126.9 68.8718 144.563 91.2579 148.132C100.686 149.687 109.563 147.914 117.932 143.422C127.046 138.533 135.15 131.665 145.059 128.266C145.23 128.146 145.462 128.11 145.804 127.869C177.839 134.76 195.25 141.454 196.101 141.751C198.386 142.447 203.82 137.974 200.418 136.784C195.107 134.889 189.772 133.14 184.35 131.451C177.96 124.933 171.997 118.114 166.377 111.054C166.638 89.9749 166.115 67.7833 156.025 48.7489C151.498 40.1482 145.268 33.1326 137.558 27.2892C129.194 20.8817 119.984 15.4556 113.997 6.60248C113.66 5.94283 112.205 6.96917 112.043 7.4675ZM121.471 99.9072C119.423 98.2752 117.374 96.6431 115.351 94.8651C112.549 91.0729 112.053 86.5519 110.776 82.1966C115.214 87.3991 118.856 93.2909 121.471 99.9072ZM109.216 80.3483C110.176 84.7991 111.12 89.7734 113.776 93.5403C112.407 92.3264 110.978 91.0269 109.609 89.813C107.732 88.0602 105.941 86.247 104.175 84.2879C101.514 79.2423 100.087 73.583 96.9727 68.9853C101.336 72.4458 105.503 76.1731 109.216 80.3483ZM95.4326 67.8921C98.6324 72.4295 99.9992 78.0031 102.771 82.8424C101.875 81.9358 101.005 80.8832 100.109 79.9766C97.9213 75.2383 95.5019 70.5352 92.8257 66.0131C93.7115 66.5421 94.5721 67.2171 95.4326 67.8921ZM72.2108 53.5035C76.2775 55.6348 80.2587 57.8266 84.1894 60.3103C85.4068 62.4001 86.0501 64.7665 87.0358 66.8915C85.1841 64.9927 83.1611 63.2146 81.1984 61.5222C78.3401 58.9232 75.5323 56.0322 72.281 53.9667C72.2459 53.7351 72.1855 53.6494 72.2108 53.5035ZM72.4973 54.4551C74.4797 56.9027 76.9154 58.9024 79.1799 61.0229C81.1173 62.8613 82.9691 64.7601 85.0777 66.4778C82.1129 65.3638 79.0978 64.5419 76.1682 63.6595C74.8959 60.583 73.7092 57.446 72.4973 54.4551ZM76.5403 64.5508C76.5052 64.3192 76.324 64.0623 76.2889 63.8307C78.7553 64.7834 81.2821 65.8216 83.8944 66.7994C81.292 66.1992 78.7246 65.8305 76.5403 64.5508ZM77.1638 66.162C80.5259 68.0212 85.53 68.2098 88.7362 69.6662C88.7362 69.6662 88.7362 69.6662 88.8822 69.6914L88.9425 69.777C89.0029 69.8626 89.0885 69.8023 89.0281 69.7166C89.0281 69.7166 89.0281 69.7166 88.9678 69.631C89.1994 69.5959 89.3958 69.3292 89.2751 69.1579C89.0083 68.9615 88.802 68.8506 88.5353 68.6542C88.4749 68.5686 88.4145 68.483 88.3541 68.3973C88.4145 68.483 88.5001 68.4226 88.5605 68.5082C88.7065 68.5334 89.0489 68.2919 88.9886 68.2063C88.7218 68.0099 88.4299 67.9594 88.1631 67.7629C87.2026 65.492 86.5845 62.9796 85.2212 60.8646C87.6722 62.3407 89.9521 63.9376 92.3175 65.4742C94.8225 70.117 97.3275 74.7598 99.7468 79.463C97.085 76.5972 94.4231 73.7315 91.5648 71.1324C91.5044 71.0468 91.3332 71.1676 91.3936 71.2532C93.8887 75.5184 97.3606 79.3511 100.918 83.1235C95.0897 80.3116 88.3843 79.5283 82.6063 76.4245C80.4581 73.1965 78.7984 69.7523 77.1638 66.162ZM83.5822 78.1719C83.2199 77.6582 83.0037 77.1698 82.6414 76.6561C88.5753 80.1627 95.5727 80.9965 101.814 84.0301C101.995 84.2869 102.201 84.3977 102.382 84.6546C96.3476 81.7319 88.8663 82.393 83.5822 78.1719ZM90.9937 87.0457C88.6688 84.8396 86.6612 82.538 84.85 79.9697C89.9684 83.4105 97.8273 82.7394 103.424 85.5864C104.974 87.0571 106.524 88.5279 107.988 90.059C109.211 91.2476 110.373 92.3507 111.682 93.479C104.972 91.4169 97.6521 91.5797 91.6479 87.6099C91.4416 87.499 91.1748 87.3026 90.9937 87.0457ZM104.774 96.0433C107.024 96.5075 109.299 96.8257 111.711 96.7916L111.882 96.6708C109.264 96.5941 106.697 96.2254 104.094 95.6252C100.148 93.665 96.313 91.4985 92.8356 88.5669C98.5379 92.1087 105.601 92.127 112.155 93.7863C113.463 94.9146 114.686 96.1032 115.995 97.2315C112.415 97.0637 108.947 96.6896 105.504 96.1695C105.186 96.265 104.98 96.1542 104.774 96.0433ZM111.272 98.8957C109.656 98.2405 107.98 97.4997 106.45 96.7841C109.722 97.425 113.044 97.7739 116.357 97.7452C118.38 99.5232 120.488 101.241 122.597 102.959C122.657 103.044 122.657 103.044 122.632 103.19C122.693 103.276 122.839 103.301 122.985 103.326C123.785 103.916 124.439 104.48 125.179 104.984C120.724 102.484 115.681 100.786 111.272 98.8957ZM90.5498 100.049C96.3837 101.96 101.2 104.973 105.628 109.798C107.842 112.21 109.88 115.644 112.532 118.132C111.948 118.032 111.278 117.991 110.669 118.036C104.858 110.341 97.5056 103.732 88.7124 99.8067C89.2963 99.9077 89.9659 99.9483 90.5498 100.049ZM81.433 99.3C83.6128 99.301 85.6215 99.4227 87.7509 99.7157C95.9646 104.819 103.493 110.406 109.561 117.92C103.561 117.408 97.6807 117.069 91.7152 116.789C83.8736 112.577 77.9635 101.106 69.2242 100.347C73.1866 99.6033 77.3048 99.2629 81.433 99.3ZM53.0709 107.251C51.7823 106.878 50.3828 106.711 49.1041 106.716C54.4165 104.252 59.8594 102.336 65.4934 101.055C76.0404 100.924 81.0648 111.866 89.4749 116.702C84.9088 116.589 80.3428 116.477 75.837 116.449C73.8032 116.474 71.7089 116.412 69.675 116.437C63.7961 113.917 59.1617 108.981 53.0709 107.251ZM27.732 120.762C33.3274 115.791 39.4914 111.444 46.0879 108.074C54.0379 106.441 59.2201 113.426 66.2164 116.44C54.9143 116.591 43.476 117.094 32.3594 118.781C32.2738 118.841 32.1026 118.962 32.2486 118.987C41.8944 118.85 51.4448 118.397 61.005 118.32C55.416 120.211 50.2794 123.833 44.1624 124.43C38.998 122.559 33.7327 121.273 28.1447 120.984C27.9987 120.959 27.9383 120.873 27.732 120.762ZM45.5114 124.888C52.006 124.282 58.3258 120.338 64.5492 118.257C67.3986 118.298 70.2481 118.34 73.0975 118.381C76.6164 118.463 80.1958 118.631 83.6895 118.859C81.7457 120.102 79.9325 121.893 78.5825 123.615C76.1042 126.644 73.9531 129.956 70.398 131.822C68.0162 132.989 65.3831 133.436 62.8508 133.298C57.0728 130.195 51.5012 127.202 45.5114 124.888ZM63.8223 133.767C66.0625 133.854 68.4037 133.356 70.6142 132.31C77.0143 129.207 79.6757 122.075 85.9901 119.032C94.6942 119.559 103.494 120.404 112.072 121.661C107.228 123.154 102.681 125.977 98.8382 129.071C92.2912 134.329 86.8462 140.604 78.1619 140.832C73.3147 138.866 68.5685 136.317 63.8223 133.767ZM78.9873 141.275C83.639 141.328 88.0502 138.858 91.6107 136.091C94.8892 133.65 97.8054 130.697 101.144 128.342C102.428 127.436 103.773 126.616 105.178 125.882C104.04 126.813 102.902 127.744 101.849 128.614C95.1153 134.516 88.7638 141.687 80.1903 141.709C79.7523 141.633 79.4 141.497 78.9873 141.275ZM122.198 138.747C112.247 144.996 102.087 147.674 90.4488 144.986C87.8463 144.385 85.3547 143.579 82.9487 142.712C86.619 141.918 90.3706 139.785 92.8281 138.18C96.8266 135.489 100.05 132.062 103.747 128.942C107.64 125.556 111.452 123.509 116.185 122.222C120.272 122.929 124.299 123.55 128.095 124.206C116.473 130.992 109.831 145.931 94.5616 145.546C94.5616 145.546 94.476 145.607 94.5616 145.546C100.854 146.108 106.449 143.316 111.379 139.583C117.876 134.617 123.013 128.815 129.786 124.423C134.226 125.266 138.374 126.058 142.376 126.825C134.989 129.983 128.689 134.683 122.198 138.747ZM134.485 120.725C128.681 119.947 122.937 119.255 117.108 118.623C116.524 118.522 116 118.507 115.33 118.466C113.453 116.713 112.115 114.452 110.52 112.372C108.598 110.01 106.42 107.829 104.13 105.855C102.167 104.163 99.8621 102.712 97.5922 101.492C110.967 105.007 123.308 112.328 134.485 120.725ZM108.335 46.7437C108.171 41.6036 108.556 36.3328 109.233 31.1125C110.283 36.7816 113.855 42.2103 117.568 46.3854C121.04 50.2181 124.966 53.603 128.548 57.2294C130.788 59.4958 132.684 62.0038 134.435 64.4865C136.035 67.8452 137.745 70.9974 139.515 74.2353C129.472 63.6284 114.487 58.5571 108.498 44.0655C110.745 51.0693 115.767 56.3727 121.353 61.022C125.897 64.7394 130.638 68.1901 135.122 71.8219C131.75 69.5851 128.121 67.5294 124.724 65.4386C120.32 62.6476 115.966 59.5646 112.691 55.4652C110.527 52.7607 109.29 49.9158 108.335 46.7437ZM108.721 51.4711C111.21 56.6375 115.946 60.9893 120.299 64.0723C127.732 69.3416 135.796 73.1412 142.262 79.2206C143.756 81.8844 145.335 84.4879 146.915 87.0913C148.037 88.8639 149.159 90.6365 150.281 92.4091C138.112 82.788 121.098 79.0196 112.384 65.9364C110.403 61.309 109.287 56.4554 108.721 51.4711ZM163.14 110.644C147.514 98.8468 128.614 90.7681 117.143 74.502C116.116 73.0466 115.236 71.6165 114.441 70.1259C123.387 80.9941 140.301 85.3464 151.282 94.0105C155.035 99.696 158.959 105.261 163.14 110.644ZM164.083 107.8C162.005 105.036 159.927 102.271 157.874 99.36C158.708 92.3626 160.957 85.0085 161.61 77.7543C163.12 87.7129 163.619 97.8724 164.083 107.8ZM152.843 49.3264C156.731 56.8395 159.179 64.8552 160.761 73.0972C160.601 81.4138 157.592 89.6889 156.883 98.1362C154.83 95.2254 152.924 92.3399 150.957 89.3687C150.029 81.6909 151.17 74.2205 152.276 66.5184C153.089 60.9458 153.746 54.9704 152.782 49.2408C152.782 49.2408 152.782 49.2408 152.843 49.3264ZM151.53 46.9194C152.946 54.381 152.208 61.6955 150.956 69.3723C150.007 75.2973 149.092 81.4539 149.86 87.4501C149.498 86.9365 149.221 86.3624 148.859 85.8487C148.738 85.6775 148.617 85.5063 148.497 85.3351C147.935 81.6295 147.579 78.0349 148.029 74.1284C148.509 69.1749 149.745 64.2015 150.517 59.2984C151.204 54.4557 151.393 49.4516 150.252 44.744C150.649 45.4893 151.132 46.1742 151.53 46.9194ZM148.743 42.6037C150.834 49.2047 149.95 56.494 148.763 63.3553C147.754 69.1946 146.044 76.0406 146.701 82.2432C143.265 76.4622 140.086 70.5001 137.053 64.5632C134.087 55.631 135.747 46.8971 135.182 37.5532C134.998 33.8377 134.144 30.0817 132.605 26.8087C138.946 31.4382 144.31 36.5001 148.743 42.6037ZM131.623 25.9625C136.659 35.1021 132.963 48.2199 134.468 59.0797C134.035 58.1028 133.603 57.1259 133.17 56.1491C132.584 50.4097 132.667 44.7108 132.69 38.9264C132.657 34.3351 132.392 29.7789 130.969 25.3984C131.15 25.6552 131.357 25.766 131.623 25.9625ZM130.083 24.8693C133.17 33.9728 130.493 43.8087 131.692 52.9617C127.271 42.8759 123.802 32.5036 119.93 22.2871C119.87 22.2015 119.467 22.3574 119.528 22.443C121.964 34.441 126.081 46.2786 131.201 57.5377C127.558 53.8257 123.401 50.476 120.085 47.0461C114.082 40.8964 110.153 34.053 110.021 25.6858C110.955 20.2844 112.12 14.8479 113.467 9.66816C117.96 15.8574 124.095 20.376 130.083 24.8693Z" fill="white"/>
<path d="M67.8643 101.69C71.9563 103.676 75.6554 106.194 79.0472 109.186C79.1076 109.272 79.45 109.03 79.304 109.005C75.8771 105.782 72.2384 103.348 67.8643 101.69C67.8895 101.544 67.8039 101.605 67.8643 101.69Z" fill="white"/>
<path d="M80.4158 110.4C81.3719 111.393 82.2676 112.299 83.3093 113.231C83.3697 113.317 83.6265 113.135 83.5661 113.05C82.61 112.058 81.5431 111.272 80.4158 110.4C80.5014 110.34 80.4158 110.4 80.4158 110.4Z" fill="white"/>
<path d="M84.552 115.175C84.8539 115.603 85.0954 115.945 85.4225 116.227C85.5432 116.398 86.1425 115.976 85.9362 115.865C85.5487 115.497 85.136 115.276 84.7232 115.054C84.6629 114.968 84.4917 115.089 84.552 115.175Z" fill="white"/>
<path d="M87.9362 101.251C91.1974 103.694 94.2017 106.318 97.2664 109.028C97.3267 109.114 97.498 108.993 97.4376 108.907C94.5694 105.931 91.3938 103.427 87.9362 101.251Z" fill="white"/>
<path d="M44.8909 116.738C44.8909 116.738 44.8657 116.884 44.8909 116.738C48.5964 116.176 52.2515 115.905 55.9669 115.721C56.1129 115.746 56.3093 115.479 56.0777 115.515C52.4128 115.407 48.6469 115.884 44.8909 116.738Z" fill="white"/>
<path d="M49.7824 109.314C49.7824 109.314 49.6968 109.374 49.7824 109.314C52.5156 110.463 54.735 111.974 57.2464 113.536C57.3068 113.622 57.5636 113.441 57.5033 113.355C55.5307 111.285 52.5913 110.025 49.7824 109.314Z" fill="white"/>
<path d="M47.6318 122.624C46.937 122.729 46.3026 122.92 45.6078 123.026L45.5222 123.086C46.217 122.981 46.7658 122.85 47.4606 122.744C47.6922 122.709 47.8634 122.589 47.6318 122.624Z" fill="white"/>
<path d="M119.023 111.888C119.678 112.452 120.246 113.076 120.961 113.726C121.021 113.812 121.132 113.605 121.046 113.666C120.392 113.102 119.824 112.477 119.109 111.827L119.023 111.888Z" fill="white"/>
<path d="M96.9835 89.3594C98.2721 89.7325 99.5607 90.1056 100.789 90.3932L100.96 90.2724C99.6716 89.8993 98.3577 89.6721 96.9835 89.3594Z" fill="white"/>
<path d="M104.499 91.1097L104.328 91.2305C104.766 91.3062 105.349 91.4071 105.787 91.4829C105.933 91.5081 106.044 91.3017 105.984 91.2161C105.46 91.2008 104.937 91.1854 104.499 91.1097Z" fill="white"/>
<path d="M118.262 70.6357C121.724 74.0909 125.811 76.9774 130.451 78.8322C130.512 78.9178 130.769 78.7366 130.708 78.651C126.204 76.4439 122.127 73.935 118.262 70.6357Z" fill="white"/>
<path d="M132.223 79.8905C132.223 79.8905 132.052 80.0112 132.137 79.9509C133.134 80.2735 134.02 80.8025 134.88 81.4775C135.001 81.6487 135.429 81.3469 135.308 81.1757C134.302 80.4754 133.245 80.0672 132.223 79.8905Z" fill="white"/>
<path d="M148.473 48.9471C148.511 52.6373 147.906 56.1409 147.421 59.8158C148.696 56.3527 148.889 52.6274 148.644 48.8264C148.669 48.6804 148.498 48.8011 148.473 48.9471Z" fill="white"/>
<path d="M112.314 31.119C114.713 37.2469 118.32 42.9071 123.433 47.249C123.493 47.3347 123.75 47.1535 123.69 47.0679C119.116 42.2178 115.176 37.1766 112.314 31.119C112.4 31.0586 112.314 31.119 112.314 31.119Z" fill="white"/>
<path d="M111.536 26.9249C111.596 27.0106 111.717 27.1818 111.692 27.3278C111.752 27.4134 112.009 27.2323 111.949 27.1466L111.793 26.7438C111.793 26.7438 111.561 26.779 111.536 26.9249Z" fill="white"/>
<path d="M116.273 16.9195C116.559 17.8712 116.846 18.8228 117.132 19.7744C117.253 19.9456 117.827 19.669 117.646 19.4122C117.274 18.5209 116.902 17.6297 116.53 16.7384C116.53 16.7384 116.358 16.8592 116.273 16.9195Z" fill="white"/>
<path d="M132.986 84.6082C138.679 87.7723 144.114 91.1176 149.807 94.2817C149.867 94.3673 150.209 94.1259 150.063 94.1006C144.396 90.7905 138.679 87.7723 132.986 84.6082C133.011 84.4622 132.926 84.5225 132.986 84.6082Z" fill="white"/>
</g>
</svg>
