<svg width="209" height="88" viewBox="0 0 209 88" fill="none" xmlns="http://www.w3.org/2000/svg">
<g filter="url(#filter0_d)">
<path d="M15 39.001C15 22.9847 27.9837 10.001 44 10.001H194V68.001H44C27.9837 68.001 15 55.0172 15 39.001Z" fill="#F0F0F0"/>
</g>
<g filter="url(#filter1_i)">
<path d="M83 30.001C83 24.4781 87.4772 20.001 93 20.001H139C144.523 20.001 149 24.4781 149 30.001V48.001C149 53.5238 144.523 58.001 139 58.001H93C87.4772 58.001 83 53.5238 83 48.001V30.001Z" fill="#F0F0F0"/>
</g>
<path d="M105.943 47.001H104.225V38.085C104.225 37.805 104.225 37.5055 104.225 37.1865C104.231 36.8675 104.238 36.5518 104.244 36.2393C104.257 35.9202 104.267 35.6175 104.273 35.3311C104.286 35.0381 104.296 34.7809 104.303 34.5596C104.192 34.6768 104.094 34.7777 104.01 34.8623C103.925 34.9469 103.837 35.0283 103.746 35.1064C103.661 35.1846 103.57 35.2692 103.473 35.3604C103.375 35.445 103.258 35.5459 103.121 35.6631L101.676 36.8447L100.738 35.6436L104.479 32.7236H105.943V47.001ZM120.094 39.8428C120.094 40.9951 120.009 42.027 119.84 42.9385C119.677 43.8499 119.41 44.6214 119.039 45.2529C118.674 45.8844 118.202 46.3662 117.623 46.6982C117.044 47.0303 116.34 47.1963 115.514 47.1963C114.745 47.1963 114.075 47.0303 113.502 46.6982C112.936 46.3662 112.464 45.8844 112.086 45.2529C111.715 44.6214 111.435 43.8499 111.246 42.9385C111.064 42.027 110.973 40.9951 110.973 39.8428C110.973 38.6904 111.054 37.6585 111.217 36.7471C111.386 35.8356 111.65 35.0674 112.008 34.4424C112.372 33.8109 112.841 33.3291 113.414 32.9971C113.993 32.665 114.693 32.499 115.514 32.499C116.288 32.499 116.962 32.665 117.535 32.9971C118.108 33.3226 118.583 33.8011 118.961 34.4326C119.339 35.0576 119.622 35.8258 119.811 36.7373C119.999 37.6488 120.094 38.6839 120.094 39.8428ZM112.779 39.8428C112.779 40.8193 112.828 41.6722 112.926 42.4014C113.023 43.1305 113.18 43.7393 113.395 44.2275C113.609 44.7093 113.889 45.0739 114.234 45.3213C114.586 45.5622 115.012 45.6826 115.514 45.6826C116.015 45.6826 116.441 45.5622 116.793 45.3213C117.145 45.0804 117.431 44.7191 117.652 44.2373C117.88 43.7555 118.043 43.1501 118.141 42.4209C118.245 41.6852 118.297 40.8258 118.297 39.8428C118.297 38.8662 118.245 38.0133 118.141 37.2842C118.043 36.555 117.88 35.9495 117.652 35.4678C117.431 34.986 117.145 34.6247 116.793 34.3838C116.441 34.1429 116.015 34.0225 115.514 34.0225C115.012 34.0225 114.586 34.1429 114.234 34.3838C113.889 34.6247 113.609 34.986 113.395 35.4678C113.18 35.9495 113.023 36.555 112.926 37.2842C112.828 38.0133 112.779 38.8662 112.779 39.8428ZM122.135 40.8975C122.135 40.2139 122.167 39.5335 122.232 38.8564C122.304 38.1794 122.424 37.5316 122.594 36.9131C122.77 36.2881 123.007 35.7087 123.307 35.1748C123.606 34.641 123.987 34.1787 124.449 33.7881C124.911 33.391 125.465 33.0817 126.109 32.8604C126.754 32.6325 127.509 32.5186 128.375 32.5186C128.499 32.5186 128.635 32.5218 128.785 32.5283C128.935 32.5348 129.085 32.5479 129.234 32.5674C129.391 32.5804 129.537 32.5999 129.674 32.626C129.817 32.6455 129.944 32.6715 130.055 32.7041V34.2178C129.827 34.1396 129.57 34.0811 129.283 34.042C128.997 34.0029 128.714 33.9834 128.434 33.9834C127.848 33.9834 127.33 34.055 126.881 34.1982C126.438 34.335 126.054 34.5303 125.729 34.7842C125.403 35.0381 125.13 35.3408 124.908 35.6924C124.693 36.0439 124.518 36.4346 124.381 36.8643C124.244 37.2874 124.143 37.7399 124.078 38.2217C124.013 38.7035 123.971 39.2048 123.951 39.7256H124.068C124.199 39.4912 124.355 39.2731 124.537 39.0713C124.726 38.863 124.944 38.6872 125.191 38.5439C125.439 38.3942 125.715 38.277 126.021 38.1924C126.334 38.1077 126.682 38.0654 127.066 38.0654C127.685 38.0654 128.245 38.1631 128.746 38.3584C129.247 38.5472 129.674 38.8271 130.025 39.1982C130.377 39.5693 130.647 40.0251 130.836 40.5654C131.031 41.0993 131.129 41.7113 131.129 42.4014C131.129 43.1436 131.028 43.8109 130.826 44.4033C130.624 44.9958 130.335 45.5003 129.957 45.917C129.579 46.3271 129.124 46.6429 128.59 46.8643C128.056 47.0856 127.457 47.1963 126.793 47.1963C126.142 47.1963 125.53 47.0693 124.957 46.8154C124.391 46.5615 123.899 46.1742 123.482 45.6533C123.066 45.1325 122.737 44.4782 122.496 43.6904C122.255 42.9027 122.135 41.9717 122.135 40.8975ZM126.773 45.7021C127.164 45.7021 127.519 45.637 127.838 45.5068C128.163 45.3701 128.443 45.1683 128.678 44.9014C128.912 44.6279 129.091 44.2861 129.215 43.876C129.345 43.4593 129.41 42.9678 129.41 42.4014C129.41 41.9456 129.355 41.5387 129.244 41.1807C129.14 40.8161 128.98 40.5068 128.766 40.2529C128.551 39.999 128.281 39.8037 127.955 39.667C127.636 39.5303 127.262 39.4619 126.832 39.4619C126.396 39.4619 125.995 39.54 125.631 39.6963C125.273 39.846 124.967 40.0446 124.713 40.292C124.459 40.5329 124.26 40.8096 124.117 41.1221C123.98 41.4346 123.912 41.7471 123.912 42.0596C123.912 42.4958 123.971 42.932 124.088 43.3682C124.212 43.7979 124.391 44.1852 124.625 44.5303C124.866 44.8753 125.165 45.1585 125.523 45.3799C125.882 45.5947 126.298 45.7021 126.773 45.7021Z" fill="#407FFF"/>
<path d="M63 39.001C63 28.5074 54.4933 20.001 44.0001 20.001C33.5067 20.001 25 28.5074 25 39.001C25 49.4945 33.5067 58.001 44.0001 58.001C54.4933 58.001 63 49.4945 63 39.001Z" fill="#407FFF"/>
<path d="M54.1779 22.9551C57.6192 26.3938 59.7478 31.1458 59.7478 36.3948C59.7478 46.8883 51.2411 55.3948 40.7476 55.3948C37.003 55.3948 33.5122 54.3111 30.5699 52.4408C34.0077 55.8763 38.7559 58.0011 44.0002 58.0011C54.4933 58.0011 63 49.4947 63 39.0011C63 32.2521 59.481 26.3257 54.1779 22.9551Z" fill="#406AEF"/>
<path d="M52.7173 38.343C52.7173 37.3083 51.8787 36.4698 50.8441 36.4698H48.1889C48.9559 34.5511 49.0119 32.9781 49.0069 32.4742C49.0064 32.4188 49.0188 32.2225 49.0188 32.179V32.0918C48.9631 30.2697 48.4053 29.7119 47.6888 29.4463C46.954 29.4463 46.3584 30.0415 46.3584 30.7761V30.9092C46.3512 31.3647 45.7112 32.3043 45.7112 32.3043L40.83 37.241L40.7476 37.3422L39.263 41.3117L40.7476 47.4667C40.7476 47.6534 40.899 47.8044 41.0854 47.8044H50.2752C50.9004 47.8044 51.4319 47.3487 51.5264 46.7306C51.8877 44.3677 52.7173 38.8848 52.7173 38.343Z" fill="#E3FAFF"/>
<path d="M39.6875 48.5551H36.3428C35.7573 48.5551 35.2827 48.0805 35.2827 47.4949V37.4545C35.2827 36.8688 35.7573 36.3945 36.3428 36.3945H39.6875C40.2729 36.3945 40.7476 36.8688 40.7476 37.4545V47.4949C40.7476 48.0805 40.2729 48.5551 39.6875 48.5551Z" fill="#48D8FF"/>
<path d="M39.6875 46.5592H36.3428C35.7573 46.5592 35.2827 46.0847 35.2827 45.499V47.4963C35.2827 48.0819 35.7573 48.5565 36.3428 48.5565H39.6875C40.2729 48.5565 40.7476 48.0819 40.7476 47.4963V45.499C40.7476 46.0847 40.2729 46.5592 39.6875 46.5592Z" fill="#43C5FF"/>
<path d="M50.8441 36.4697H50.5005C50.4831 36.6344 50.4568 36.8501 50.4237 37.1058C49.7945 41.9703 45.6526 45.6128 40.7476 45.6128V47.4663C40.7476 47.653 40.899 47.8043 41.0854 47.8043H50.2752C50.9004 47.8043 51.4319 47.3483 51.5264 46.7305C51.8877 44.3676 52.7173 38.8847 52.7173 38.3426C52.7173 37.3082 51.8787 36.4697 50.8441 36.4697Z" fill="#CCF4FF"/>
<defs>
<filter id="filter0_d" x="0" y="0.000976562" width="209" height="88" filterUnits="userSpaceOnUse" color-interpolation-filters="sRGB">
<feFlood flood-opacity="0" result="BackgroundImageFix"/>
<feColorMatrix in="SourceAlpha" type="matrix" values="0 0 0 0 0 0 0 0 0 0 0 0 0 0 0 0 0 0 127 0"/>
<feOffset dy="5"/>
<feGaussianBlur stdDeviation="7.5"/>
<feColorMatrix type="matrix" values="0 0 0 0 0.733333 0 0 0 0 0.733333 0 0 0 0 0.733333 0 0 0 0.2 0"/>
<feBlend mode="normal" in2="BackgroundImageFix" result="effect1_dropShadow"/>
<feBlend mode="normal" in="SourceGraphic" in2="effect1_dropShadow" result="shape"/>
</filter>
<filter id="filter1_i" x="83" y="20.001" width="66" height="41" filterUnits="userSpaceOnUse" color-interpolation-filters="sRGB">
<feFlood flood-opacity="0" result="BackgroundImageFix"/>
<feBlend mode="normal" in="SourceGraphic" in2="BackgroundImageFix" result="shape"/>
<feColorMatrix in="SourceAlpha" type="matrix" values="0 0 0 0 0 0 0 0 0 0 0 0 0 0 0 0 0 0 127 0" result="hardAlpha"/>
<feOffset dy="3"/>
<feGaussianBlur stdDeviation="4"/>
<feComposite in2="hardAlpha" operator="arithmetic" k2="-1" k3="1"/>
<feColorMatrix type="matrix" values="0 0 0 0 0.795833 0 0 0 0 0.795833 0 0 0 0 0.795833 0 0 0 0.8 0"/>
<feBlend mode="normal" in2="shape" result="effect1_innerShadow"/>
</filter>
</defs>
</svg>
