<svg width="130" height="130" viewBox="0 0 130 130" fill="none" xmlns="http://www.w3.org/2000/svg">
<g filter="url(#filter0_d)">
<circle cx="65" cy="60" r="50" fill="#FED233"/>
</g>
<path d="M88.5337 61.8768H84.5207C83.954 61.8768 83.4381 62.2093 83.1955 62.7307L80.5531 68.412L79.5287 64.5609L81.7972 62.2512C86.8017 57.1558 86.8024 48.9082 81.797 43.8118C76.8029 38.7294 68.6788 38.7294 63.6868 43.812L62.7754 44.7399L61.864 43.812C56.8722 38.7295 48.7481 38.7293 43.7536 43.812C38.749 48.9075 38.7485 57.1552 43.7536 62.2512L61.7386 80.5628C62.3111 81.1457 63.2397 81.1458 63.8122 80.5628L77.1379 66.9951L78.7616 73.0992C79.1174 74.4363 80.921 74.5975 81.5022 73.3479L85.4487 64.8627H88.5337C89.3436 64.8627 90 64.1942 90 63.3697C90 62.5452 89.3435 61.8768 88.5337 61.8768ZM62.7754 77.3958L45.8273 60.14C39.6258 53.8258 44.0423 42.9845 52.8096 42.9845C55.3376 42.9845 57.8662 43.9644 59.7903 45.9234L61.7386 47.907C62.3111 48.4901 63.2397 48.4901 63.8122 47.907L65.7605 45.9234C69.6092 42.0048 75.8731 42.0049 79.7235 45.9234C83.5731 49.8429 83.5731 56.2205 79.7235 60.14L78.6448 61.2382L76.8148 54.3586C76.4662 53.0476 74.7096 52.8564 74.0968 54.0636L69.4863 63.1487L66.7152 57.6585C66.1965 56.6309 64.7747 56.5695 64.1708 57.5444L61.4866 61.8768H56.2257C55.4158 61.8768 54.7594 62.5452 54.7594 63.3697C54.7594 64.1942 55.4159 64.8627 56.2257 64.8627H62.2952C62.7986 64.8627 63.2668 64.5997 63.5354 64.1663L65.2806 61.3493L68.1783 67.0904C68.7273 68.1777 70.2429 68.162 70.7853 67.0933L74.9701 58.8468L76.2538 63.6724L62.7754 77.3958Z" fill="white"/>
<circle cx="65" cy="60" r="43.5" stroke="white" stroke-width="3"/>
<defs>
<filter id="filter0_d" x="0" y="0" width="130" height="130" filterUnits="userSpaceOnUse" color-interpolation-filters="sRGB">
<feFlood flood-opacity="0" result="BackgroundImageFix"/>
<feColorMatrix in="SourceAlpha" type="matrix" values="0 0 0 0 0 0 0 0 0 0 0 0 0 0 0 0 0 0 127 0"/>
<feOffset dy="5"/>
<feGaussianBlur stdDeviation="7.5"/>
<feColorMatrix type="matrix" values="0 0 0 0 0.733333 0 0 0 0 0.733333 0 0 0 0 0.733333 0 0 0 0.2 0"/>
<feBlend mode="normal" in2="BackgroundImageFix" result="effect1_dropShadow"/>
<feBlend mode="normal" in="SourceGraphic" in2="effect1_dropShadow" result="shape"/>
</filter>
</defs>
</svg>
