<svg width="168" height="25" viewBox="0 0 168 25" fill="none" xmlns="http://www.w3.org/2000/svg">
<path d="M29.2 4.5L23.525 22H18.225L14.875 11.35L11.375 22H6.075L0.4 4.5H5.5L9.025 15.675L12.725 4.5H17.275L20.8 15.775L24.475 4.5H29.2ZM36.5477 22.225C35.0977 22.225 33.7893 21.925 32.6227 21.325C31.456 20.725 30.5393 19.8917 29.8727 18.825C29.2227 17.7583 28.8977 16.55 28.8977 15.2C28.8977 13.8667 29.2227 12.6667 29.8727 11.6C30.5393 10.5333 31.4477 9.70833 32.5977 9.125C33.7643 8.525 35.081 8.225 36.5477 8.225C38.0143 8.225 39.331 8.525 40.4977 9.125C41.6643 9.70833 42.5727 10.5333 43.2227 11.6C43.8727 12.65 44.1977 13.85 44.1977 15.2C44.1977 16.55 43.8727 17.7583 43.2227 18.825C42.5727 19.8917 41.6643 20.725 40.4977 21.325C39.331 21.925 38.0143 22.225 36.5477 22.225ZM36.5477 18.45C37.381 18.45 38.0643 18.1667 38.5977 17.6C39.131 17.0167 39.3977 16.2167 39.3977 15.2C39.3977 14.2 39.131 13.4167 38.5977 12.85C38.0643 12.2833 37.381 12 36.5477 12C35.7143 12 35.031 12.2833 34.4977 12.85C33.9643 13.4167 33.6977 14.2 33.6977 15.2C33.6977 16.2167 33.9643 17.0167 34.4977 17.6C35.031 18.1667 35.7143 18.45 36.5477 18.45ZM50.923 10.075C51.4064 9.45833 52.0314 9 52.798 8.7C53.5814 8.38333 54.473 8.225 55.473 8.225V12.5C55.0397 12.45 54.6814 12.425 54.398 12.425C53.3814 12.425 52.5814 12.7 51.998 13.25C51.4314 13.8 51.148 14.6417 51.148 15.775V22H46.398V8.45H50.923V10.075ZM57.4332 3.45H62.1832V22H57.4332V3.45ZM79.6701 3.45V22H75.1451V20.65C74.2618 21.7 72.9368 22.225 71.1701 22.225C69.9368 22.225 68.8118 21.9417 67.7951 21.375C66.7785 20.7917 65.9701 19.9667 65.3701 18.9C64.7868 17.8333 64.4951 16.6 64.4951 15.2C64.4951 13.8 64.7868 12.575 65.3701 11.525C65.9701 10.4583 66.7785 9.64167 67.7951 9.075C68.8118 8.50833 69.9368 8.225 71.1701 8.225C72.7868 8.225 74.0368 8.69167 74.9201 9.625V3.45H79.6701ZM72.1701 18.45C72.9868 18.45 73.6618 18.1667 74.1951 17.6C74.7285 17.0167 74.9951 16.2167 74.9951 15.2C74.9951 14.2 74.7285 13.4167 74.1951 12.85C73.6785 12.2833 73.0035 12 72.1701 12C71.3368 12 70.6535 12.2833 70.1201 12.85C69.5868 13.4167 69.3201 14.2 69.3201 15.2C69.3201 16.2167 69.5868 17.0167 70.1201 17.6C70.6535 18.1667 71.3368 18.45 72.1701 18.45ZM98.8762 4.5V22H96.8262L86.3262 8.95V22H83.8262V4.5H85.8762L96.3762 17.55V4.5H98.8762ZM115.739 15.45C115.739 15.6333 115.723 15.875 115.689 16.175H104.939C105.089 17.3417 105.598 18.2833 106.464 19C107.348 19.7 108.439 20.05 109.739 20.05C111.323 20.05 112.598 19.5167 113.564 18.45L114.889 20C114.289 20.7 113.539 21.2333 112.639 21.6C111.756 21.9667 110.764 22.15 109.664 22.15C108.264 22.15 107.023 21.8667 105.939 21.3C104.856 20.7167 104.014 19.9083 103.414 18.875C102.831 17.8417 102.539 16.675 102.539 15.375C102.539 14.0917 102.823 12.9333 103.389 11.9C103.973 10.8667 104.764 10.0667 105.764 9.5C106.781 8.91667 107.923 8.625 109.189 8.625C110.456 8.625 111.581 8.91667 112.564 9.5C113.564 10.0667 114.339 10.8667 114.889 11.9C115.456 12.9333 115.739 14.1167 115.739 15.45ZM109.189 10.65C108.039 10.65 107.073 11 106.289 11.7C105.523 12.4 105.073 13.3167 104.939 14.45H113.439C113.306 13.3333 112.848 12.425 112.064 11.725C111.298 11.0083 110.339 10.65 109.189 10.65ZM138.878 8.75L133.928 22H131.628L127.803 11.95L123.928 22H121.628L116.703 8.75H118.978L122.828 19.3L126.828 8.75H128.853L132.778 19.35L136.728 8.75H138.878ZM144.942 22.15C143.859 22.15 142.817 22.0083 141.817 21.725C140.817 21.425 140.034 21.05 139.467 20.6L140.467 18.7C141.051 19.1167 141.759 19.45 142.592 19.7C143.426 19.95 144.267 20.075 145.117 20.075C147.217 20.075 148.267 19.475 148.267 18.275C148.267 17.875 148.126 17.5583 147.842 17.325C147.559 17.0917 147.201 16.925 146.767 16.825C146.351 16.7083 145.751 16.5833 144.967 16.45C143.901 16.2833 143.026 16.0917 142.342 15.875C141.676 15.6583 141.101 15.2917 140.617 14.775C140.134 14.2583 139.892 13.5333 139.892 12.6C139.892 11.4 140.392 10.4417 141.392 9.725C142.392 8.99167 143.734 8.625 145.417 8.625C146.301 8.625 147.184 8.73333 148.067 8.95C148.951 9.16667 149.676 9.45833 150.242 9.825L149.217 11.725C148.134 11.025 146.859 10.675 145.392 10.675C144.376 10.675 143.601 10.8417 143.067 11.175C142.534 11.5083 142.267 11.95 142.267 12.5C142.267 12.9333 142.417 13.275 142.717 13.525C143.017 13.775 143.384 13.9583 143.817 14.075C144.267 14.1917 144.892 14.325 145.692 14.475C146.759 14.6583 147.617 14.8583 148.267 15.075C148.934 15.275 149.501 15.625 149.967 16.125C150.434 16.625 150.667 17.325 150.667 18.225C150.667 19.425 150.151 20.3833 149.117 21.1C148.101 21.8 146.709 22.15 144.942 22.15ZM165.655 0.949998H167.83L159.58 24.5H157.405L165.655 0.949998Z" fill="#00AD5A"/>
</svg>
