<svg width="17" height="17" viewBox="0 0 17 17" fill="none" xmlns="http://www.w3.org/2000/svg">
<path d="M16.4569 15.4843L12.4108 11.2762C13.4511 10.0396 14.0211 8.48359 14.0211 6.86374C14.0211 3.07913 10.942 0 7.1574 0C3.37279 0 0.293653 3.07913 0.293653 6.86374C0.293653 10.6484 3.37279 13.7275 7.1574 13.7275C8.57819 13.7275 9.93214 13.299 11.0897 12.4854L15.1665 16.7255C15.3369 16.9024 15.5661 17 15.8117 17C16.0442 17 16.2647 16.9114 16.4321 16.7502C16.7878 16.4079 16.7992 15.8403 16.4569 15.4843ZM7.1574 1.79054C9.95482 1.79054 12.2306 4.06632 12.2306 6.86374C12.2306 9.66117 9.95482 11.9369 7.1574 11.9369C4.35997 11.9369 2.08419 9.66117 2.08419 6.86374C2.08419 4.06632 4.35997 1.79054 7.1574 1.79054Z" fill="white"/>
</svg>
