<svg xmlns="http://www.w3.org/2000/svg" width="100%" height="100%" viewBox="0 0 300 300" fill="rgba(183,28,28,1)"><path d="M266.7,83.6c-7.5,0.4-16.8,1.5-27.2,4.4c-4,1.2-8.3,2.6-12.6,4.4c-4.3-3.1-9-5.5-13.7-7.4c-8.2-3.3-16.7-5.1-25.2-6.1c-8.5-1-16.9-1.1-25.2-0.8c-16.7,0.8-32.8,5.2-46.9,12.2c-14.1,6.9-26.2,16.1-36.5,25.9c-10.3,9.8-18.7,20.2-25.8,30.3c-14.2,20.1-23,38.7-28.6,51.8c-1.7,3.9-3,7.4-4.1,10.3l-2.5,1.8l1.9-13.9c3.4-25,2.2-39.1,2.2-39.1s-4.9,13.2-8.3,38.2l-3.8,28l6.9-4.9c-0.1,0.3-0.1,0.4-0.1,0.4c0,0,0.1-0.1,0.2-0.4l2.4-1.7l9.2-6.6l21.9-15.6c20.6-14.7,30-25.2,30-25.2s-13,5.5-33.5,20.2l-21.9,15.6l-3.2,2.3c1.2-2.5,2.6-5.4,4.2-8.7c6.4-12.6,16.4-30.4,31.4-49.2c7.5-9.4,16.3-19,26.6-27.8c10.3-8.8,22.2-16.8,35.5-22.6c13.3-5.8,28-9.1,43.1-9.1c15.4,0,31.3,1.8,44.6,7.6c1.7,0.7,3.3,1.5,4.8,2.4c-2,1.3-4,2.7-6,4.2c-5.5,4.3-10.8,9.6-15,16.2c-4.2,6.6-7.6,14.5-8.2,23.5c-0.3,4.5,0.2,9.3,1.9,14c1.7,4.7,4.9,9.4,9.2,12.6c4.3,3.3,9.8,5.1,14.9,5.3c5,0.3,10.4-0.6,15-2.7c9.3-4.3,15.8-12.1,19.6-20.6c3.8-8.6,5.2-18.1,3.8-27.5c-1.2-7.9-4.5-15.6-9.3-21.9c1.8-0.8,3.5-1.5,5.3-2.1c9.1-3.4,17.4-5.4,24.4-7c13.9-3,22.3-4.5,22.3-6.9C290.2,85.1,281.8,83,266.7,83.6z M229.5,145.8c-2.6,5.7-6.9,10.4-11.7,12.5c-2.4,1.1-4.8,1.5-7.3,1.4c-2.5-0.2-4.4-0.8-6.1-2c-1.7-1.3-2.9-2.9-3.8-5.1c-0.8-2.2-1.2-4.8-1.1-7.5c0.2-5.4,2.3-10.9,5.3-15.8c3-4.9,6.9-9.1,11.2-12.8c2.8-2.4,5.8-4.5,8.8-6.4c4.1,4.9,6.7,10.7,7.5,16.9C233.2,133.4,232.2,140.1,229.5,145.8z"></path></svg>