<svg width="44" height="44" viewBox="0 0 44 44" fill="none" xmlns="http://www.w3.org/2000/svg">
<path d="M21.5 7C17.8653 7 14.9082 9.95708 14.9082 13.5918C14.9082 17.2265 17.8653 20.1836 21.5 20.1836C25.1347 20.1836 28.0918 17.2265 28.0918 13.5918C28.0918 9.95708 25.1347 7 21.5 7ZM21.5 18.7188C18.673 18.7188 16.373 16.4188 16.373 13.5918C16.373 10.7648 18.673 8.46484 21.5 8.46484C24.327 8.46484 26.627 10.7648 26.627 13.5918C26.627 16.4188 24.327 18.7188 21.5 18.7188Z" fill="white"/>
<path d="M23.5426 21.6973H19.4573C16.0783 21.6973 12.7436 23.2574 10.5137 26.6024V32H32.4863V26.6024C30.2596 23.2622 26.9258 21.6973 23.5426 21.6973ZM31.0215 30.5352H31.0215H11.9785V27.0506C13.689 24.6115 16.4684 23.1621 19.4574 23.1621H23.5427C26.5317 23.1621 29.311 24.6115 31.0215 27.0506V30.5352Z" fill="white"/>
<circle cx="22" cy="22" r="21.5" stroke="white"/>
</svg>
