<svg width="27" height="27" viewBox="0 0 27 27" fill="none" xmlns="http://www.w3.org/2000/svg">
<circle cx="13.5" cy="13.5" r="13.5" fill="#FF9908"/>
<g filter="url(#filter0_d)">
<path d="M10.3913 7.71831C10.3913 6.58563 11.3096 5.66736 12.4424 5.66736C13.5751 5.66736 14.4934 6.58563 14.4934 7.71831C14.4934 8.851 13.5751 9.76924 12.4424 9.76924C11.3096 9.76927 10.3913 8.851 10.3913 7.71831ZM13.4281 11.1666C13.4486 10.72 13.6024 10.3066 13.8497 9.96489C13.6761 9.92853 13.4967 9.90922 13.3126 9.90922H11.5724C11.3889 9.90922 11.2097 9.92838 11.037 9.96429C11.3002 10.3294 11.4577 10.7753 11.4602 11.2579C11.7802 11.082 12.1473 10.9818 12.5373 10.9818C12.8536 10.9818 13.1547 11.0477 13.4281 11.1666ZM13.7752 11.3506C14.371 11.7242 14.7887 12.3561 14.8652 13.0899C15.1079 13.2034 15.3777 13.2688 15.6634 13.2688C16.7071 13.2688 17.5531 12.4228 17.5531 11.3792C17.5531 10.3354 16.7071 9.48952 15.6634 9.48952C14.6293 9.48955 13.7909 10.3204 13.7752 11.3506ZM12.5372 15.2199C13.5807 15.2199 14.4267 14.3736 14.4267 13.3302C14.4267 12.2867 13.5807 11.4406 12.5372 11.4406C11.4936 11.4406 10.6473 12.2867 10.6473 13.3302C10.6473 14.3736 11.4936 15.2199 12.5372 15.2199ZM13.3388 15.3485H11.7355C10.4014 15.3485 9.31586 16.434 9.31586 17.7682V19.7293L9.32096 19.76L9.45593 19.8019C10.7291 20.1996 11.8353 20.3326 12.7458 20.3326C14.5238 20.3326 15.5548 19.8256 15.6183 19.7931L15.7446 19.7292H15.758V17.7682C15.758 16.434 14.673 15.3485 13.3388 15.3485ZM16.4654 13.3978H14.8742C14.8569 14.0345 14.5852 14.6079 14.1554 15.02C15.3413 15.3726 16.2089 16.4722 16.2089 17.7712V18.3755C17.7798 18.3176 18.6851 17.8727 18.7448 17.8427L18.8711 17.7784H18.8845V15.817C18.8847 14.4832 17.7992 13.3978 16.4654 13.3978ZM16.8908 9.44922C17.4865 9.82288 17.9043 10.4548 17.9805 11.1886C18.2233 11.3021 18.493 11.3674 18.7788 11.3674C19.8227 11.3674 20.6686 10.5215 20.6686 9.47797C20.6686 8.43416 19.8226 7.58833 18.7788 7.58833C17.7448 7.58821 16.9065 8.41924 16.8908 9.44922ZM19.5806 11.4964H17.9897C17.9724 12.1331 17.7007 12.7064 17.271 13.1185C18.4568 13.4711 19.3244 14.5708 19.3244 15.8698V16.474C20.8951 16.4163 21.8007 15.9714 21.8603 15.9412L21.9864 15.8772H22V13.9156C22.0002 12.5818 20.9147 11.4964 19.5806 11.4964ZM9.22157 13.2689C9.59126 13.2689 9.935 13.1609 10.2265 12.9771C10.3192 12.3729 10.6431 11.8449 11.1056 11.4855C11.1076 11.45 11.1108 11.415 11.1108 11.3792C11.1108 10.3354 10.2646 9.48955 9.22157 9.48955C8.17762 9.48955 7.33179 10.3354 7.33179 11.3792C7.33179 12.423 8.17759 13.2689 9.22157 13.2689ZM10.9186 15.02C10.4909 14.6098 10.2201 14.0396 10.2001 13.4066C10.1413 13.4022 10.0829 13.3978 10.0228 13.3978H8.41965C7.08541 13.3978 6 14.4832 6 15.8172V17.7784L6.00495 17.809L6.1401 17.8511C7.16128 18.1704 8.07301 18.3172 8.86487 18.3631V17.771C8.86502 16.4722 9.73246 15.3725 10.9186 15.02Z" fill="url(#paint0_linear)"/>
</g>
<defs>
<filter id="filter0_d" x="4" y="3.66736" width="20" height="18.6652" filterUnits="userSpaceOnUse" color-interpolation-filters="sRGB">
<feFlood flood-opacity="0" result="BackgroundImageFix"/>
<feColorMatrix in="SourceAlpha" type="matrix" values="0 0 0 0 0 0 0 0 0 0 0 0 0 0 0 0 0 0 127 0"/>
<feOffset/>
<feGaussianBlur stdDeviation="1"/>
<feColorMatrix type="matrix" values="0 0 0 0 0 0 0 0 0 0 0 0 0 0 0 0 0 0 0.25 0"/>
<feBlend mode="normal" in2="BackgroundImageFix" result="effect1_dropShadow"/>
<feBlend mode="normal" in="SourceGraphic" in2="effect1_dropShadow" result="shape"/>
</filter>
<linearGradient id="paint0_linear" x1="14" y1="5.66736" x2="14" y2="20.3326" gradientUnits="userSpaceOnUse">
<stop stop-color="white"/>
<stop offset="0.630208" stop-color="white"/>
<stop offset="1" stop-color="#CFCDCD"/>
</linearGradient>
</defs>
</svg>
