<svg width="75" height="75" viewBox="0 0 75 75" fill="none" xmlns="http://www.w3.org/2000/svg">
<circle cx="37.5" cy="37.5" r="37" stroke="black"/>
<g clip-path="url(#clip0)">
<path d="M28.6418 42.1761C29.6411 43.0227 30.3038 44.1696 30.5432 45.4215H36.3574V37.2785C34.3883 36.7698 32.9295 34.9784 32.9295 32.8526H35.2148C35.2148 34.1126 36.2399 35.1378 37.5 35.1378C38.7601 35.1378 39.7852 34.1126 39.7852 32.8526H42.0705C42.0705 34.9783 40.6117 36.7698 38.6426 37.2785V45.4214H44.4581C44.7001 44.1698 45.3691 43.0172 46.3779 42.1594C49.4497 39.5473 51.2115 35.7387 51.2115 31.7099C51.2115 19.419 36.2217 13.3828 27.6853 22.1525C22.1142 27.8761 22.5904 37.05 28.6418 42.1761Z" fill="#9600A3"/>
<path d="M37.5 57C40.0202 57 42.0705 54.9497 42.0705 52.4295H32.9295C32.9295 54.9497 34.9798 57 37.5 57Z" fill="#9600A3"/>
<path d="M30.6443 47.7067H44.3557V50.1443H30.6443V47.7067Z" fill="#9600A3"/>
</g>
<defs>
<clipPath id="clip0">
<rect width="39" height="39" fill="white" transform="translate(18 18)"/>
</clipPath>
</defs>
</svg>
