<svg width="75" height="75" viewBox="0 0 75 75" fill="none" xmlns="http://www.w3.org/2000/svg">
<circle cx="37.5" cy="37.5" r="37" stroke="black"/>
<g clip-path="url(#clip0)">
<path d="M55.3954 36.0935L39.2434 21.3758C38.5344 20.7297 37.4653 20.7298 36.7566 21.3758L20.6045 36.0935C20.0366 36.611 19.849 37.4084 20.1265 38.1248C20.404 38.8412 21.0797 39.3041 21.848 39.3041H24.4278V54.05C24.4278 54.6347 24.9018 55.1087 25.4865 55.1087H34.3398C34.9244 55.1087 35.3985 54.6348 35.3985 54.05V45.0968H40.6017V54.0501C40.6017 54.6348 41.0758 55.1088 41.6604 55.1088H50.5133C51.098 55.1088 51.572 54.6348 51.572 54.0501V39.3041H54.1523C54.9205 39.3041 55.5963 38.8411 55.8738 38.1248C56.1509 37.4083 55.9633 36.611 55.3954 36.0935Z" fill="#9600A3"/>
<path d="M51.2955 23.0044H44.1856L52.3542 30.4319V24.063C52.3542 23.4784 51.8802 23.0044 51.2955 23.0044Z" fill="#9600A3"/>
</g>
<defs>
<clipPath id="clip0">
<rect width="36" height="36" fill="white" transform="translate(20 20)"/>
</clipPath>
</defs>
</svg>
