<svg width="75" height="75" viewBox="0 0 75 75" fill="none" xmlns="http://www.w3.org/2000/svg">
<circle cx="37.5" cy="37.5" r="37" stroke="black"/>
<path d="M16.9003 27.004C16.4016 27.0132 16 27.4202 16 27.9208V44.8781C16 45.1312 16.2054 45.3365 16.4584 45.3365H20.8078C21.2185 45.3365 21.5779 45.0652 21.6897 44.6709L25.7475 30.3724C26.0097 29.4482 25.5147 28.4764 24.6107 28.1482C22.9494 27.5431 20.4007 26.9453 16.9003 27.004Z" fill="#9600A3"/>
<path d="M56.3397 37.0853C52.6724 37.0853 45.338 41.7261 41.6707 41.7261C38.0035 41.7261 33.8778 38.9189 33.8778 38.9189C33.8778 38.9189 38.8176 39.8357 41.6707 39.8357C44.5238 39.8357 45.338 38.862 45.338 37.5437C45.338 34.3348 39.8884 33.8361 37.1307 33.4162C34.4242 31.9089 33.0179 30.7171 28.5346 30.3375C28.509 30.5997 28.4686 30.8601 28.3953 31.1186L24.7115 44.1007C28.883 45.9985 36.0672 49.0038 39.8371 49.0038C45.338 49.0038 60.0069 41.6693 60.0069 39.8357C60.0069 38.0021 58.1733 37.0853 56.3397 37.0853Z" fill="#9600A3"/>
</svg>
