<svg width="54" height="54" viewBox="0 0 54 54" fill="none" xmlns="http://www.w3.org/2000/svg">
<circle cx="27" cy="27" r="26.5" stroke="white"/>
<path d="M24.5391 13H17.1562C16.7032 13 16.3359 13.3672 16.3359 13.8203V16.2812H24.5391C25.4452 16.2812 26.1797 15.5466 26.1797 14.6406C26.1797 13.7345 25.4452 13 24.5391 13Z" fill="white"/>
<path d="M35.2031 26.1797H24.5391V29.4609H37.6641V28.6406C37.6641 27.2815 36.5623 26.1797 35.2031 26.1797Z" fill="white"/>
<path d="M16.3359 17.9219V27C16.3359 28.3591 17.4377 29.4609 18.7969 29.4609H22.8984V17.9219H16.3359Z" fill="white"/>
<path d="M35.2031 39.3594H32.7422V38.3757C35.5048 36.9656 37.3256 34.177 37.6067 31.1016H17.9766V33.5625C17.9766 35.0677 18.5701 36.5668 19.6172 37.6362V40.1797C19.6172 40.6331 19.9841 41 20.4375 41C20.6335 41 35.0494 41 35.2031 41C35.6565 41 36.0234 40.6331 36.0234 40.1797C36.0234 39.7263 35.6565 39.3594 35.2031 39.3594Z" fill="white"/>
</svg>
