<svg width="54" height="54" viewBox="0 0 54 54" fill="none" xmlns="http://www.w3.org/2000/svg">
<circle cx="27" cy="27" r="26.5" stroke="white"/>
<path d="M34.2541 13.7559V13.7531C33.7749 13.2713 33.1234 13.0003 32.4439 13H20.5533C19.141 13.0046 17.9974 14.1483 17.9928 15.5605V37.4367C17.993 38.1162 18.2641 38.7676 18.7459 39.2469C19.2244 39.728 19.8747 39.999 20.5533 40H32.4467C33.1252 39.999 33.7756 39.728 34.2541 39.2469C34.7352 38.7683 35.0062 38.118 35.0072 37.4395V15.5633C35.0062 14.8848 34.7352 14.2345 34.2541 13.7559ZM26.5 38.2623C26.1179 38.2623 25.8083 37.9526 25.8083 37.5706C25.8083 37.1885 26.1179 36.8788 26.5 36.8788C26.8821 36.8788 27.1917 37.1885 27.1917 37.5706C27.1917 37.9526 26.8821 38.2623 26.5 38.2623ZM32.9739 33.9194C32.9739 34.8437 32.2246 35.593 31.3003 35.593H21.6969C20.7726 35.593 20.0233 34.8437 20.0233 33.9194V17.6162C20.0233 16.6919 20.7726 15.9427 21.6969 15.9427H31.3031C32.2274 15.9427 32.9766 16.6919 32.9766 17.6162L32.9739 33.9194Z" fill="white"/>
</svg>
