<svg width="54" height="54" viewBox="0 0 54 54" fill="none" xmlns="http://www.w3.org/2000/svg">
<path d="M43.5545 16.346C42.905 15.4654 42.0053 15 40.953 15C38.6123 15 36.7762 18.2288 35.7478 20.396L31.3968 18.3877C28.3686 16.9913 24.7876 16.9195 21.6036 18.3877L17.2527 20.396C16.2316 18.244 14.3863 15 12.0474 15C10.995 15 10.0955 15.4655 9.4459 16.346C7.92489 18.4078 8.00062 22.5857 8.00062 25.406C8.00062 28.801 9.42271 31.9628 12.1132 34.5498C13.969 36.3342 15.8224 37.2648 16.1414 37.418C16.8129 37.7862 13.9249 36.224 21.6035 40.3588C24.747 42.0502 28.4282 41.9569 31.3968 40.3588C39.1131 36.2037 36.1648 37.7982 36.8589 37.418C37.178 37.2647 39.0314 36.3342 40.8871 34.5498C43.5776 31.9628 44.9997 28.801 44.9997 25.406C44.9998 22.4433 45.0485 18.371 43.5545 16.346ZM10.3131 25.406C10.3131 22.5774 10.3131 17.3124 12.0474 17.3124C12.3392 17.3124 13.1256 17.7984 14.2224 19.6197C14.8541 20.6688 15.3319 21.738 15.5161 22.1691V34.3551C13.4912 32.9422 10.3131 29.9936 10.3131 25.406ZM37.4844 34.3551V22.1691C37.6686 21.738 38.1463 20.6688 38.778 19.6197C39.8749 17.7984 40.6613 17.3124 40.953 17.3124C42.6874 17.3124 42.6874 22.5774 42.6874 25.406C42.6874 29.1901 40.5372 32.2286 37.4844 34.3551Z" fill="white"/>
<circle cx="27" cy="27" r="26.5" stroke="white"/>
</svg>
