<svg width="54" height="54" viewBox="0 0 54 54" fill="none" xmlns="http://www.w3.org/2000/svg">
<circle cx="27" cy="27" r="26.5" stroke="white"/>
<path d="M16.875 23.75V27.1875H36.125V23.75C36.125 21.8552 37.6664 20.3125 39.5625 20.3125H40.25V18.25C40.25 17.1129 39.3247 16.1875 38.1875 16.1875H14.8125C13.6754 16.1875 12.75 17.1129 12.75 18.25V20.3125H13.4376C15.3336 20.3125 16.875 21.8552 16.875 23.75Z" fill="white"/>
<path d="M40.9375 21.6875H39.5625C38.4254 21.6875 37.5 22.6129 37.5 23.75V27.875C37.5 28.2545 37.192 28.5625 36.8125 28.5625H16.1875C15.808 28.5625 15.5 28.2545 15.5 27.875V23.75C15.5 22.6129 14.5746 21.6875 13.4375 21.6875H12.0625C10.9254 21.6875 10 22.6129 10 23.75V32C10 33.1371 10.9254 34.0625 12.0625 34.0625H12.75V36.125C12.75 36.5045 13.058 36.8125 13.4375 36.8125H17.5625C17.942 36.8125 18.2501 36.5045 18.2501 36.125V34.0625H34.7501V36.125C34.7501 36.5045 35.0581 36.8125 35.4376 36.8125H39.5626C39.9421 36.8125 40.2501 36.5045 40.2501 36.125V34.0625H40.9375C42.0746 34.0625 43 33.1371 43 32V23.75C43 22.6129 42.0746 21.6875 40.9375 21.6875Z" fill="white"/>
</svg>
