<svg width="54" height="54" viewBox="0 0 54 54" fill="none" xmlns="http://www.w3.org/2000/svg">
<circle cx="27" cy="27" r="26.5" stroke="white"/>
<g clip-path="url(#clip0)">
<path d="M38.9781 28.0625H36.2167C35.8063 28.0625 35.4031 28.2291 35.1125 28.5198L33.4865 30.1458H38.923C38.9688 29.6562 39.0001 29.1291 39.0001 28.5833C39 28.401 38.9875 28.2344 38.9781 28.0625Z" fill="white"/>
<path d="M21.8823 28.0625L23.6188 30.1458H29.3813L31.1177 28.0625H21.8823Z" fill="white"/>
<path d="M17.8875 28.5198C17.5969 28.2291 17.1937 28.0625 16.7833 28.0625H14.0219C14.0125 28.2344 14 28.401 14 28.5833C14 29.1292 14.0312 29.6562 14.0771 30.1458H19.5136L17.8875 28.5198Z" fill="white"/>
<path d="M31.7479 30.8655C31.6677 30.6707 31.7125 30.4467 31.8604 30.2978L34.375 27.7832C34.8677 27.2915 35.5208 27.0207 36.2166 27.0207H38.8645C38.5874 25.5728 37.8708 24.5998 36.6364 23.955C35.201 23.204 31.9791 22.854 26.4999 22.854C21.0207 22.854 17.7989 23.204 16.3635 23.955C15.1291 24.5998 14.4124 25.5728 14.1353 27.0207H16.7832C17.4791 27.0207 18.1322 27.2915 18.6249 27.7832L21.1395 30.2978C21.2885 30.4467 21.3332 30.6707 21.252 30.8655C21.1707 31.0603 20.9812 31.1874 20.7708 31.1874H14.2062C14.3531 32.1655 14.526 32.8374 14.5385 32.8842C14.5989 33.1124 14.8052 33.2707 15.0416 33.2707H19.6062L21.5802 34.2572C21.6521 34.2937 21.7323 34.3124 21.8125 34.3124H31.1875C31.2677 34.3124 31.3479 34.2937 31.4208 34.2572L33.3948 33.2707H37.9583C38.1948 33.2707 38.4011 33.1124 38.4615 32.8842C38.474 32.8374 38.6469 32.1655 38.7937 31.1874H32.2291C32.0187 31.1874 31.8281 31.0603 31.7479 30.8655ZM30.025 30.9999C29.926 31.1186 29.7791 31.1874 29.625 31.1874H23.375C23.2208 31.1874 23.074 31.1186 22.975 30.9999L20.3708 27.8749C20.2406 27.7196 20.2136 27.503 20.299 27.3207C20.3854 27.1374 20.5687 27.0207 20.7708 27.0207H32.2292C32.4313 27.0207 32.6146 27.1374 32.7011 27.3207C32.7865 27.503 32.7594 27.7197 32.6292 27.8749L30.025 30.9999Z" fill="white"/>
<path d="M36.874 24.2092C36.2812 22.8467 34.2979 18.3561 33.6083 17.7696C32.749 17.0394 30.2875 16.604 27.0208 16.604H25.9792C22.7125 16.604 20.2511 17.0394 19.3917 17.7686C18.7021 18.3551 16.7177 22.8457 16.1261 24.2082C16.0125 24.4728 16.1333 24.7791 16.3969 24.8936C16.6594 25.0082 16.9678 24.8884 17.0823 24.6238C18.2583 21.9166 19.6969 18.9082 20.0667 18.5634C20.4677 18.2228 22.1646 17.6457 25.9792 17.6457H27.0208C30.8354 17.6457 32.5323 18.2228 32.9312 18.5613C33.3031 18.9082 34.7416 21.9155 35.9177 24.6238C36.0031 24.8207 36.1958 24.9374 36.3958 24.9374C36.4646 24.9374 36.5365 24.9238 36.6031 24.8946C36.8666 24.7801 36.9875 24.4728 36.874 24.2092Z" fill="white"/>
<path d="M20.7709 32.7499C20.5011 32.7499 20.2875 32.9571 20.2605 33.2196L16.0834 32.8019V32.7499C16.0834 32.4624 15.85 32.229 15.5625 32.229C15.275 32.229 15.0417 32.4624 15.0417 32.7499V34.8332C15.0417 35.6947 15.7427 36.3957 16.6042 36.3957H19.7292C20.5906 36.3957 21.2917 35.6947 21.2917 34.8332V33.2707C21.2917 32.9832 21.0584 32.7499 20.7709 32.7499Z" fill="white"/>
<path d="M37.4375 32.229C37.15 32.229 36.9167 32.4624 36.9167 32.7499V32.802L32.7395 33.2197C32.7125 32.9572 32.4989 32.7499 32.2291 32.7499C31.9416 32.7499 31.7083 32.9833 31.7083 33.2708V34.8332C31.7083 35.6947 32.4093 36.3957 33.2708 36.3957H36.3958C37.2573 36.3957 37.9583 35.6947 37.9583 34.8332V32.7499C37.9584 32.4624 37.725 32.229 37.4375 32.229Z" fill="white"/>
</g>
<defs>
<clipPath id="clip0">
<rect width="25" height="25" fill="white" transform="translate(14 14)"/>
</clipPath>
</defs>
</svg>
