<svg width="54" height="54" viewBox="0 0 54 54" fill="none" xmlns="http://www.w3.org/2000/svg">
<circle cx="27" cy="27" r="26.5" stroke="white"/>
<g clip-path="url(#clip0)">
<path d="M26.1564 20.095L25.0214 12.5325C24.9764 12.225 24.7126 12 24.4039 12C24.3976 12 24.3901 12 24.3826 12C24.0651 12.01 23.8064 12.2562 23.7814 12.5725L23.2339 19.1388C23.2002 19.5438 22.4814 19.5438 22.4476 19.1388L21.9014 12.5725C21.8739 12.2487 21.6039 12 21.2789 12C20.9539 12 20.6827 12.2487 20.6564 12.5725L20.1089 19.1388C20.0752 19.5438 19.3564 19.5438 19.3227 19.1388L18.7764 12.5725C18.7501 12.2575 18.4914 12.0113 18.1739 12C18.1664 12 18.1601 12 18.1539 12C17.8452 12 17.5814 12.225 17.5364 12.5325L16.4026 20.095C16.0689 22.3113 17.2714 24.4312 19.2989 25.315L18.3339 38.84C18.2764 39.6538 18.5614 40.4626 19.1176 41.06C19.6726 41.6575 20.4589 42 21.2764 42H21.2814C22.0977 42 22.8852 41.6575 23.4414 41.06C23.9976 40.4625 24.2826 39.6537 24.2251 38.84L23.2602 25.315C25.2877 24.4312 26.4901 22.3113 26.1564 20.095Z" fill="white"/>
<path d="M35.3889 12.115C35.2239 11.9975 35.0114 11.97 34.8201 12.0363C34.7664 12.055 29.4039 14.025 29.4039 20.125C29.4039 24.5163 30.8326 26.7337 31.6364 27.6337L30.8364 28.4337C30.7339 28.5362 30.6702 28.67 30.6564 28.8137L29.6676 38.7025C29.5826 39.5437 29.8589 40.3862 30.4263 41.0137C30.9939 41.6412 31.8076 42 32.6527 42C34.3064 42 35.6527 40.6537 35.6527 39V12.625C35.6539 12.4212 35.5552 12.2325 35.3889 12.115Z" fill="white"/>
</g>
<defs>
<clipPath id="clip0">
<rect width="30" height="30" fill="white" transform="translate(11 12)"/>
</clipPath>
</defs>
</svg>
