<svg width="104" height="105" viewBox="0 0 104 105" fill="none" xmlns="http://www.w3.org/2000/svg">
<g clip-path="url(#clip0)">
<path d="M85.6636 57.5841L42.4082 38.8542C41.7878 38.5907 41.0706 38.7167 40.5866 39.1878C40.1015 39.6558 39.9478 40.3726 40.1954 40.9986L57.1745 83.9111C57.4087 84.5031 57.9598 84.9087 58.596 84.9581C59.2321 85.0075 59.8418 84.691 60.1588 84.1427L65.5936 74.8771L77.352 84.5195C77.8383 84.915 78.4791 84.9948 79.0247 84.7789C79.2571 84.687 79.4749 84.5398 79.6539 84.3399L87.1123 76.0122C87.4157 75.6735 87.5683 75.226 87.5329 74.7739C87.4962 74.3189 87.2768 73.9003 86.9295 73.6112L75.8511 64.5278L85.6138 60.665C86.2399 60.4173 86.6543 59.8159 86.6668 59.1408C86.679 58.4655 86.2822 57.852 85.6636 57.5841ZM71.9947 62.4727C71.4461 62.6898 71.053 63.1822 70.9617 63.7668C70.8692 64.3483 71.0917 64.9377 71.5483 65.3125L83.4702 75.0875L78.2374 80.9324L66.2057 71.0611C65.8286 70.7514 65.3328 70.6214 64.8539 70.7069C64.74 70.7269 64.6341 70.7581 64.5318 70.7986C64.1908 70.9335 63.8954 71.1829 63.7072 71.5047L59.0153 79.5049L44.7746 43.5131L80.6508 59.0478L71.9947 62.4727Z" fill="#FED783"/>
<path d="M32.5448 17.1349C31.6894 17.4733 31.2698 18.4423 31.6083 19.2977L35.2871 28.5955C35.6256 29.4509 36.5945 29.8705 37.4499 29.5321C38.3053 29.1936 38.7249 28.2246 38.3865 27.3692L34.7076 18.0714C34.369 17.2161 33.4002 16.7964 32.5448 17.1349Z" fill="#FED783"/>
<path d="M28.7323 43.7344L19.4344 47.4132C18.5791 47.7517 18.1595 48.7207 18.4979 49.5761C18.8364 50.4314 19.8054 50.851 20.6608 50.5126L29.9586 46.8337C30.814 46.4953 31.2336 45.5263 30.8951 44.6709C30.5566 43.8155 29.5877 43.3959 28.7323 43.7344Z" fill="#FED783"/>
<path d="M62.8241 30.2451L53.5262 33.924C52.6708 34.2624 52.2513 35.2314 52.5897 36.0868C52.9282 36.9422 53.8972 37.3618 54.7526 37.0233L64.0504 33.3445C64.9058 33.006 65.3254 32.037 64.9869 31.1816C64.6485 30.3263 63.6795 29.9067 62.8241 30.2451Z" fill="#FED783"/>
<path d="M30.1694 33.5522L20.9918 29.5808C20.1483 29.2155 19.1658 29.6043 18.8006 30.4478C18.4353 31.2912 18.8241 32.2738 19.6676 32.639L28.8451 36.6104C29.2678 36.7908 29.7246 36.7858 30.1213 36.6288C30.5181 36.4719 30.8558 36.1662 31.0363 35.7434C31.4016 34.8999 31.0128 33.9174 30.1694 33.5522Z" fill="#FED783"/>
<path d="M37.1075 51.088C36.264 50.7228 35.2815 51.1115 34.9163 51.955L30.9406 61.1307C30.5753 61.9742 30.9641 62.9567 31.8076 63.3219C32.2303 63.5023 32.687 63.4973 33.0838 63.3403C33.4805 63.1834 33.8171 62.8746 33.9988 62.4549L37.9745 53.2792C38.3397 52.4357 37.951 51.4532 37.1075 51.088Z" fill="#FED783"/>
<path d="M51.6779 17.4397C50.8332 17.0714 49.8506 17.4601 49.4836 18.3079L45.5079 27.4836C45.1427 28.327 45.5314 29.3096 46.3749 29.6748C46.7976 29.8552 47.2543 29.8502 47.6511 29.6932C48.0478 29.5362 48.3856 29.2306 48.5692 28.8066L52.5449 19.6309C52.9101 18.7874 52.5226 17.8081 51.6779 17.4397Z" fill="#FED783"/>
</g>
<defs>
<clipPath id="clip0">
<rect width="80" height="80" fill="white" transform="translate(0 30.0117) rotate(-21.587)"/>
</clipPath>
</defs>
</svg>
