<svg width="86" height="86" viewBox="0 0 86 86" fill="none" xmlns="http://www.w3.org/2000/svg">
<g clip-path="url(#clip0)">
<path d="M81.1625 42.532V25.4051C81.1625 21.4451 77.9475 18.2235 73.9958 18.2235H71.5667L72.1051 16.3489C72.9819 13.2976 71.227 10.117 68.1817 9.23834L46.2327 2.5C45.4717 2.2806 44.6777 2.72066 44.4589 3.48299C44.2398 4.24532 44.6791 5.04104 45.4398 5.26062L61.3497 10.2569C60.085 12.7259 60.0387 15.6709 61.318 18.2235H31.3542V6.91239C31.3542 6.11918 30.7124 5.47607 29.9208 5.47607C29.1293 5.47607 28.4875 6.11918 28.4875 6.91239V18.2235H23.65V6.91239C23.65 6.11918 23.0082 5.47607 22.2167 5.47607C21.4251 5.47607 20.7833 6.11918 20.7833 6.91239V18.2235H14.5125V5.83515C14.5125 4.25124 15.7986 2.9625 17.3792 2.9625H41.5667C43.1473 2.9625 44.4333 4.25124 44.4333 5.83515V18.7349C44.4333 19.5281 45.0751 20.1713 45.8667 20.1713C46.6582 20.1713 47.3 19.5281 47.3 18.7349V5.83515C47.3 2.66715 44.7281 0.0898438 41.5667 0.0898438H17.3792C14.2178 0.0898438 11.6458 2.66715 11.6458 5.83515V18.2235H7.16667C3.21497 18.2235 0 21.4451 0 25.4051V78.9082C0 82.8682 3.21497 86.0898 7.16667 86.0898H73.9958C77.9475 86.0898 81.1625 82.8682 81.1625 78.9082V61.4051C81.1625 60.6119 80.5207 59.9688 79.7292 59.9688C78.9376 59.9688 78.2958 60.6119 78.2958 61.4051V78.9082C78.2958 81.2841 76.3667 83.2172 73.9958 83.2172H7.16667C4.79575 83.2172 2.86667 81.2841 2.86667 78.9082V25.4051C2.86667 23.0292 4.79575 21.0961 7.16667 21.0961H73.9958C76.3667 21.0961 78.2958 23.0292 78.2958 25.4051V42.4615H66.4708C63.3094 42.4615 60.7375 45.0388 60.7375 48.2068V56.1065C60.7375 59.2745 63.3094 61.8518 66.4708 61.8518H80.2704C83.418 61.8518 86 59.2832 86 56.1065V48.2068C86 45.3442 83.8998 42.9643 81.1625 42.532ZM64.1829 11.0743L67.3887 11.9991C68.9114 12.4385 69.7885 14.0285 69.3504 15.5542L68.5836 18.2235H64.7523C62.9423 16.2061 62.7746 13.2724 64.1829 11.0743ZM83.1333 56.1065C83.1333 57.6905 81.8473 58.9792 80.2667 58.9792H66.4708C64.8902 58.9792 63.6042 57.6905 63.6042 56.1065V48.2068C63.6042 46.6228 64.8902 45.3341 66.4708 45.3341H80.2667C81.8473 45.3341 83.1333 46.6228 83.1333 48.2068V56.1065ZM71.8458 52.1567C71.8458 52.9499 71.2041 53.593 70.4125 53.593H68.2625C67.4709 53.593 66.8292 52.9499 66.8292 52.1567C66.8292 51.3634 67.4709 50.7203 68.2625 50.7203H70.4125C71.2041 50.7203 71.8458 51.3634 71.8458 52.1567Z" fill="#FED783"/>
</g>
<defs>
<clipPath id="clip0">
<rect width="86" height="86" fill="white"/>
</clipPath>
</defs>
</svg>
