<svg width="92" height="92" viewBox="0 0 92 92" fill="none" xmlns="http://www.w3.org/2000/svg">
<path d="M70.4375 49.875C70.4375 50.6689 71.0811 51.3125 71.875 51.3125C72.6689 51.3125 73.3125 50.6689 73.3125 49.875V4.4375C73.3125 3.64364 72.6689 3 71.875 3H1.4375C0.643641 3 0 3.64364 0 4.4375V74.875C0 75.6689 0.643641 76.3125 1.4375 76.3125H55.0625C55.8564 76.3125 56.5 75.6689 56.5 74.875C56.5 74.0811 55.8564 73.4375 55.0625 73.4375H2.875V5.875H23V47.5625C23.0005 48.3564 23.6447 48.9995 24.4386 48.9989C24.79 48.9987 25.1293 48.8697 25.392 48.6363L37.375 37.9859L49.358 48.6363C49.6209 48.8703 49.9605 48.9996 50.3125 49C50.5154 49.0007 50.7159 48.9576 50.9004 48.8735C51.417 48.6419 51.7496 48.1287 51.75 47.5625V5.875H70.4375V49.875ZM48.875 44.3612L38.3295 34.9887C37.785 34.5051 36.965 34.5051 36.4205 34.9887L25.875 44.3612V5.875H48.875V44.3612Z" fill="#FED783"/>
<path d="M72.5938 49.1875C61.8759 49.1875 53.1875 57.8759 53.1875 68.5938C53.1875 79.3116 61.8759 88 72.5938 88C83.3116 88 92 79.3116 92 68.5938C91.9881 57.881 83.3065 49.1994 72.5938 49.1875ZM72.5938 85.125C63.4638 85.125 56.0625 77.7237 56.0625 68.5938C56.0625 59.4638 63.4638 52.0625 72.5938 52.0625C81.7237 52.0625 89.125 59.4638 89.125 68.5938C89.1148 77.7194 81.7194 85.1148 72.5938 85.125Z" fill="#FED783"/>
<path d="M80.9306 62.1604L70.7703 72.3307L65.6931 67.2434C65.122 66.6917 64.2121 66.7076 63.6605 67.2786C63.1223 67.8356 63.1223 68.719 63.6605 69.276L69.7598 75.3753C70.3211 75.9365 71.2311 75.9365 71.7924 75.3753L82.9747 64.193C83.5361 63.6286 83.5334 62.716 82.969 62.1546C82.4046 61.5933 81.4919 61.596 80.9306 62.1604Z" fill="#FED783"/>
</svg>
