<svg width="228" height="78" viewBox="0 0 228 78" fill="none" xmlns="http://www.w3.org/2000/svg">
<path d="M17.1851 42.24C16.2251 41.34 15.3101 40.65 14.4401 40.17C13.5701 39.72 12.5051 39.495 11.2451 39.495C10.0151 39.495 9.04008 39.72 8.32008 40.17C7.57008 40.65 7.19508 41.31 7.19508 42.15C7.19508 43.02 7.69008 43.71 8.68008 44.22C9.64008 44.76 10.7801 45.03 12.1001 45.03C13.4201 45.03 14.5901 44.91 15.6101 44.67C16.2101 44.13 16.7351 43.32 17.1851 42.24ZM24.7901 46.785C25.3001 46.965 25.8401 47.085 26.4101 47.145C26.9801 47.205 27.7301 47.235 28.6601 47.235C29.6201 47.235 30.5951 46.98 31.5851 46.47C32.5751 45.96 33.3551 45.36 33.9251 44.67C34.5251 44.01 35.0501 43.26 35.5001 42.42C36.0701 41.43 36.4901 40.44 36.7601 39.45L37.8401 39.81C37.0601 42.36 35.8151 44.385 34.1051 45.885C32.4251 47.385 30.4601 48.135 28.2101 48.135C26.4401 48.135 25.2101 48 24.5201 47.73C23.8601 47.49 23.3801 47.325 23.0801 47.235C22.7801 47.175 22.3751 46.95 21.8651 46.56C21.3851 46.2 21.1001 45.99 21.0101 45.93C20.7701 45.75 20.1551 45.165 19.1651 44.175C17.2451 45.315 15.1751 45.885 12.9551 45.885C10.7351 45.885 9.04008 45.525 7.87008 44.805C6.70008 44.115 6.11508 43.23 6.11508 42.15C6.11508 41.1 6.55008 40.245 7.42008 39.585C8.26008 38.955 9.53508 38.64 11.2451 38.64C13.5851 38.64 15.6851 39.51 17.5451 41.25C17.9051 40.14 18.2051 38.91 18.4451 37.56L21.4601 20.145C22.1801 15.645 23.7401 12.615 26.1401 11.055C28.2401 9.705 30.6251 9.03 33.2951 9.03C35.9651 9.03 38.1401 9.795 39.8201 11.325C41.5301 12.855 42.3851 15.27 42.3851 18.57H41.3051C41.3051 15.9 40.6601 13.875 39.3701 12.495C38.1101 11.085 36.5051 10.38 34.5551 10.38C30.9851 10.38 28.8701 12.6 28.2101 17.04C28.2101 17.52 27.8201 19.995 27.0401 24.465C26.2901 28.905 25.6151 32.58 25.0151 35.49C24.3851 39 22.7051 41.715 19.9751 43.635C21.5951 45.255 22.7951 46.185 23.5751 46.425C23.8751 46.515 24.2801 46.635 24.7901 46.785ZM46.7659 39.405C44.4559 39.405 42.7009 38.835 41.5009 37.695C40.3009 36.525 39.7009 35.07 39.7009 33.33C39.7009 31.56 39.8509 30.06 40.1509 28.83C40.4809 27.57 41.0059 26.37 41.7259 25.23C42.4459 24.06 43.5259 23.145 44.9659 22.485C46.4359 21.825 48.2509 21.495 50.4109 21.495C52.6009 21.495 54.2959 22.08 55.4959 23.25C56.7259 24.39 57.3409 25.965 57.3409 27.975C57.3409 31.395 56.4259 34.155 54.5959 36.255C52.7959 38.355 50.1859 39.405 46.7659 39.405ZM44.7859 34.77C44.7859 37.17 45.4759 38.37 46.8559 38.37C48.2659 38.37 49.5109 37.17 50.5909 34.77C51.7009 32.34 52.2559 29.46 52.2559 26.13C52.2559 23.61 51.5659 22.35 50.1859 22.35C48.8359 22.35 47.5909 23.505 46.4509 25.815C45.3409 28.095 44.7859 31.08 44.7859 34.77ZM71.3542 27.075C70.7242 26.445 70.4092 25.68 70.4092 24.78C70.4092 23.88 70.7242 23.115 71.3542 22.485C71.9842 21.825 72.6892 21.495 73.4692 21.495C74.2792 21.495 74.9542 21.705 75.4942 22.125C76.0642 22.515 76.4692 23.025 76.7092 23.655C76.7392 23.685 76.7542 23.715 76.7542 23.745V23.79C77.1142 24.57 77.2942 25.71 77.2942 27.21C77.2942 28.68 77.1142 30.03 76.7542 31.26C76.4242 32.49 75.8992 33.75 75.1792 35.04C74.4892 36.3 73.4692 37.35 72.1192 38.19C70.7692 39 69.1792 39.405 67.3492 39.405C65.5192 39.405 63.9892 38.805 62.7592 37.605C61.5592 36.405 60.9592 35.025 60.9592 33.465C60.9592 31.905 61.2292 29.985 61.7692 27.705C62.3392 25.395 62.6542 23.625 62.7142 22.395C62.2342 22.425 61.7692 22.605 61.3192 22.935C60.8692 23.235 60.5392 23.535 60.3292 23.835L60.0142 24.285L59.3392 23.745C59.4292 23.565 59.5642 23.355 59.7442 23.115C59.9242 22.875 60.3742 22.545 61.0942 22.125C61.8442 21.705 62.7742 21.495 63.8842 21.495C64.9942 21.495 65.8792 21.855 66.5392 22.575C67.2292 23.295 67.5742 24.21 67.5742 25.32C67.5742 26.43 67.2742 28.155 66.6742 30.495C66.0742 32.805 65.7742 34.44 65.7742 35.4C65.7742 36.33 65.9842 37.065 66.4042 37.605C66.8542 38.145 67.4842 38.415 68.2942 38.415C70.3042 38.415 72.1342 37.32 73.7842 35.13C75.4342 32.94 76.2592 30.495 76.2592 27.795C76.2592 27.585 76.2292 27.27 76.1692 26.85C75.5392 27.63 74.7292 28.02 73.7392 28.02C72.7792 28.02 71.9842 27.705 71.3542 27.075ZM89.1475 21.495C92.9575 21.495 94.8625 23.01 94.8625 26.04C94.8625 27.93 93.9625 29.37 92.1625 30.36C90.3925 31.32 87.8575 31.815 84.5575 31.845C84.4975 32.925 84.4675 33.78 84.4675 34.41C84.4675 35.76 84.7675 36.765 85.3675 37.425C85.9975 38.055 86.7775 38.37 87.7075 38.37C88.6375 38.37 89.4775 38.19 90.2275 37.83C91.0075 37.47 91.6225 37.05 92.0725 36.57C92.5225 36.06 92.9125 35.535 93.2425 34.995C93.8425 34.005 94.1425 33.375 94.1425 33.105L94.9525 33.465C94.8625 33.945 94.5925 34.59 94.1425 35.4C93.6925 36.18 93.1975 36.825 92.6575 37.335C92.1175 37.845 91.3225 38.325 90.2725 38.775C89.2225 39.195 88.0525 39.405 86.7625 39.405C84.3325 39.405 82.4875 38.835 81.2275 37.695C79.9975 36.525 79.3825 34.935 79.3825 32.925C79.3825 29.355 80.2675 26.565 82.0375 24.555C83.8075 22.515 86.1775 21.495 89.1475 21.495ZM93.7375 26.04C93.7375 25.05 93.4375 24.24 92.8375 23.61C92.2675 22.95 91.3975 22.62 90.2275 22.62C89.0875 22.62 87.9625 23.31 86.8525 24.69C85.7725 26.07 85.0525 28.11 84.6925 30.81C90.7225 30.78 93.7375 29.19 93.7375 26.04Z" fill="#FF4F32"/>
<path d="M32.605 57.115C32.605 59.3317 33.7833 60.8133 36.14 61.56C37.0733 61.84 37.8433 62.0033 38.45 62.05C39.08 62.0733 39.4183 62.0617 39.465 62.015L39.5 62.75H39.29C36.6767 62.75 34.6933 62.0967 33.34 60.79C32.36 59.88 31.87 58.655 31.87 57.115C31.87 53.8017 33.62 51.235 37.12 49.415C40.6433 47.595 45.59 46.685 51.96 46.685C55.2967 46.685 57.6417 47.0467 58.995 47.77C60.3483 48.4933 61.025 49.5317 61.025 50.885C61.025 51.9583 60.6867 53.055 60.01 54.175C59.3333 55.2717 58.5167 56.415 57.56 57.605C56.6033 58.795 55.95 59.7983 55.6 60.615H57.455L57.385 61.245H55.355C55.1683 61.8517 55.075 62.4 55.075 62.89H54.34C54.34 62.33 54.41 61.7817 54.55 61.245H50.105L49.37 65.34C48.88 67.86 47.7017 69.8317 45.835 71.255C43.9683 72.7017 41.9617 73.425 39.815 73.425V72.725C41.4017 72.7017 42.4167 72.3633 42.86 71.71C43.3267 71.0567 43.7817 69.4583 44.225 66.915L45.17 61.245H43.385L43.455 60.615H45.275L47.55 47.56C42.7667 47.9567 39.08 48.9833 36.49 50.64C33.9 52.2733 32.605 54.4317 32.605 57.115ZM60.185 50.885C60.185 48.5517 57.5367 47.385 52.24 47.385C51.2833 53.9883 50.6067 58.3983 50.21 60.615H54.795C55.145 59.7283 55.7867 58.69 56.72 57.5C57.6533 56.2867 58.4583 55.1317 59.135 54.035C59.835 52.9383 60.185 51.8883 60.185 50.885ZM66.809 68.315C65.0124 68.315 63.6474 67.8717 62.714 66.985C61.7807 66.075 61.314 64.9433 61.314 63.59C61.314 62.2133 61.4307 61.0467 61.664 60.09C61.9207 59.11 62.329 58.1767 62.889 57.29C63.449 56.38 64.289 55.6683 65.409 55.155C66.5524 54.6417 67.964 54.385 69.644 54.385C71.3474 54.385 72.6657 54.84 73.599 55.75C74.5557 56.6367 75.034 57.8617 75.034 59.425C75.034 62.085 74.3224 64.2317 72.899 65.865C71.499 67.4983 69.469 68.315 66.809 68.315ZM65.269 64.71C65.269 66.5767 65.8057 67.51 66.879 67.51C67.9757 67.51 68.944 66.5767 69.784 64.71C70.6474 62.82 71.079 60.58 71.079 57.99C71.079 56.03 70.5424 55.05 69.469 55.05C68.419 55.05 67.4507 55.9483 66.564 57.745C65.7007 59.5183 65.269 61.84 65.269 64.71ZM76.9732 55.645C77.6732 54.805 78.5482 54.385 79.5982 54.385C80.6716 54.385 81.4999 54.6533 82.0832 55.19C82.6666 55.7267 82.9582 56.485 82.9582 57.465V57.675C84.0082 55.4817 85.3732 54.385 87.0532 54.385C88.8499 54.385 89.7482 55.3183 89.7482 57.185C89.7482 57.955 89.4916 58.7717 88.9782 59.635C88.4649 60.4983 87.9516 61.3267 87.4382 62.12C86.9249 62.89 86.6682 63.5783 86.6682 64.185H85.8282C85.8282 63.3217 86.3299 62.155 87.3332 60.685C88.3366 59.215 88.8382 58.0833 88.8382 57.29C88.8382 56.4733 88.6749 55.925 88.3482 55.645C88.0449 55.3417 87.5782 55.19 86.9482 55.19C86.3416 55.19 85.7349 55.4583 85.1282 55.995C84.5449 56.5317 84.0549 57.2083 83.6582 58.025C83.0282 59.2383 82.6082 60.23 82.3982 61V61.035L81.1382 68H76.9382L79.2482 55.085C78.5482 55.155 77.9649 55.4817 77.4982 56.065L76.9732 55.645ZM98.0293 54.385C100.993 54.385 102.474 55.5633 102.474 57.92C102.474 59.39 101.774 60.51 100.374 61.28C98.9976 62.0267 97.026 62.4117 94.4593 62.435C94.4126 63.275 94.3893 63.94 94.3893 64.43C94.3893 65.48 94.6226 66.2617 95.0893 66.775C95.5793 67.265 96.186 67.51 96.9093 67.51C97.6326 67.51 98.286 67.37 98.8693 67.09C99.476 66.81 99.9543 66.4833 100.304 66.11C100.654 65.7133 100.958 65.305 101.214 64.885C101.681 64.115 101.914 63.625 101.914 63.415L102.544 63.695C102.474 64.0683 102.264 64.57 101.914 65.2C101.564 65.8067 101.179 66.3083 100.759 66.705C100.339 67.1017 99.721 67.475 98.9043 67.825C98.0876 68.1517 97.1776 68.315 96.1743 68.315C94.2843 68.315 92.8493 67.8717 91.8693 66.985C90.9126 66.075 90.4343 64.8383 90.4343 63.275C90.4343 60.4983 91.1226 58.3283 92.4993 56.765C93.876 55.1783 95.7193 54.385 98.0293 54.385ZM101.599 57.92C101.599 57.15 101.366 56.52 100.899 56.03C100.456 55.5167 99.7793 55.26 98.8693 55.26C97.9826 55.26 97.1076 55.7967 96.2443 56.87C95.4043 57.9433 94.8443 59.53 94.5643 61.63C99.2543 61.6067 101.599 60.37 101.599 57.92ZM113.55 58.725C113.06 58.235 112.815 57.64 112.815 56.94C112.815 56.24 113.06 55.645 113.55 55.155C114.04 54.6417 114.589 54.385 115.195 54.385C115.825 54.385 116.35 54.5483 116.77 54.875C117.214 55.1783 117.529 55.575 117.715 56.065C117.739 56.0883 117.75 56.1117 117.75 56.135V56.17C118.03 56.7767 118.17 57.6633 118.17 58.83C118.17 59.9733 118.03 61.0233 117.75 61.98C117.494 62.9367 117.085 63.9167 116.525 64.92C115.989 65.9 115.195 66.7167 114.145 67.37C113.095 68 111.859 68.315 110.435 68.315C109.012 68.315 107.822 67.8483 106.865 66.915C105.932 65.9817 105.465 64.9083 105.465 63.695C105.465 62.4817 105.675 60.9883 106.095 59.215C106.539 57.4183 106.784 56.0417 106.83 55.085C106.457 55.1083 106.095 55.2483 105.745 55.505C105.395 55.7383 105.139 55.9717 104.975 56.205L104.73 56.555L104.205 56.135C104.275 55.995 104.38 55.8317 104.52 55.645C104.66 55.4583 105.01 55.2017 105.57 54.875C106.154 54.5483 106.877 54.385 107.74 54.385C108.604 54.385 109.292 54.665 109.805 55.225C110.342 55.785 110.61 56.4967 110.61 57.36C110.61 58.2233 110.377 59.565 109.91 61.385C109.444 63.1817 109.21 64.4533 109.21 65.2C109.21 65.9233 109.374 66.495 109.7 66.915C110.05 67.335 110.54 67.545 111.17 67.545C112.734 67.545 114.157 66.6933 115.44 64.99C116.724 63.2867 117.365 61.385 117.365 59.285C117.365 59.1217 117.342 58.8767 117.295 58.55C116.805 59.1567 116.175 59.46 115.405 59.46C114.659 59.46 114.04 59.215 113.55 58.725ZM127.39 54.385C130.353 54.385 131.835 55.5633 131.835 57.92C131.835 59.39 131.135 60.51 129.735 61.28C128.358 62.0267 126.386 62.4117 123.82 62.435C123.773 63.275 123.75 63.94 123.75 64.43C123.75 65.48 123.983 66.2617 124.45 66.775C124.94 67.265 125.546 67.51 126.27 67.51C126.993 67.51 127.646 67.37 128.23 67.09C128.836 66.81 129.315 66.4833 129.665 66.11C130.015 65.7133 130.318 65.305 130.575 64.885C131.041 64.115 131.275 63.625 131.275 63.415L131.905 63.695C131.835 64.0683 131.625 64.57 131.275 65.2C130.925 65.8067 130.54 66.3083 130.12 66.705C129.7 67.1017 129.081 67.475 128.265 67.825C127.448 68.1517 126.538 68.315 125.535 68.315C123.645 68.315 122.21 67.8717 121.23 66.985C120.273 66.075 119.795 64.8383 119.795 63.275C119.795 60.4983 120.483 58.3283 121.86 56.765C123.236 55.1783 125.08 54.385 127.39 54.385ZM130.96 57.92C130.96 57.15 130.726 56.52 130.26 56.03C129.816 55.5167 129.14 55.26 128.23 55.26C127.343 55.26 126.468 55.7967 125.605 56.87C124.765 57.9433 124.205 59.53 123.925 61.63C128.615 61.6067 130.96 60.37 130.96 57.92ZM133.951 55.645C134.651 54.805 135.526 54.385 136.576 54.385C137.649 54.385 138.477 54.6533 139.061 55.19C139.644 55.7267 139.936 56.485 139.936 57.465V57.675C140.986 55.4817 142.351 54.385 144.031 54.385C145.827 54.385 146.726 55.3183 146.726 57.185C146.726 57.955 146.469 58.7717 145.956 59.635C145.442 60.4983 144.929 61.3267 144.416 62.12C143.902 62.89 143.646 63.5783 143.646 64.185H142.806C142.806 63.3217 143.307 62.155 144.311 60.685C145.314 59.215 145.816 58.0833 145.816 57.29C145.816 56.4733 145.652 55.925 145.326 55.645C145.022 55.3417 144.556 55.19 143.926 55.19C143.319 55.19 142.712 55.4583 142.106 55.995C141.522 56.5317 141.032 57.2083 140.636 58.025C140.006 59.2383 139.586 60.23 139.376 61V61.035L138.116 68H133.916L136.226 55.085C135.526 55.155 134.942 55.4817 134.476 56.065L133.951 55.645Z" fill="#FF4F32"/>
</svg>
