<svg width="41" height="41" viewBox="0 0 41 41" fill="none" xmlns="http://www.w3.org/2000/svg">
<g clip-path="url(#clip0)">
<path d="M10.3161 13.8368C10.4929 13.8368 10.6661 13.765 10.7917 13.6394C10.9173 13.5137 10.9891 13.3406 10.9891 13.1638C10.9891 12.9861 10.9173 12.813 10.7917 12.6873C10.6661 12.5626 10.4929 12.4908 10.3161 12.4908C10.1385 12.4908 9.96531 12.5626 9.83969 12.6873C9.71497 12.813 9.64319 12.9861 9.64319 13.1638C9.64319 13.3406 9.71497 13.5137 9.83969 13.6394C9.96531 13.765 10.1385 13.8368 10.3161 13.8368Z" fill="black"/>
<path d="M17.105 13.8368C17.2826 13.8368 17.4558 13.765 17.5814 13.6394C17.7061 13.5137 17.7779 13.3406 17.7779 13.1638C17.7779 12.9861 17.7061 12.813 17.5814 12.6873C17.4558 12.5626 17.2826 12.4908 17.105 12.4908C16.9282 12.4908 16.755 12.5626 16.6294 12.6873C16.5038 12.813 16.432 12.9861 16.432 13.1638C16.432 13.3406 16.5038 13.5137 16.6294 13.6394C16.755 13.765 16.9282 13.8368 17.105 13.8368Z" fill="black"/>
<path d="M30.6843 13.8368C30.8611 13.8368 31.0342 13.765 31.1599 13.6394C31.2855 13.5137 31.3573 13.3406 31.3573 13.1638C31.3573 12.9861 31.2855 12.813 31.1599 12.6873C31.0342 12.5626 30.8611 12.4908 30.6843 12.4908C30.5066 12.4908 30.3335 12.5626 30.2079 12.6873C30.0831 12.813 30.0114 12.9861 30.0114 13.1638C30.0114 13.3406 30.0831 13.5137 30.2079 13.6394C30.3335 13.765 30.5066 13.8368 30.6843 13.8368Z" fill="black"/>
<path d="M23.8946 13.8368C24.0714 13.8368 24.2455 13.765 24.3702 13.6394C24.4958 13.5137 24.5676 13.3406 24.5676 13.1638C24.5676 12.9861 24.4958 12.813 24.3702 12.6873C24.2455 12.5626 24.0714 12.4908 23.8946 12.4908C23.7179 12.4908 23.5438 12.5626 23.4191 12.6873C23.2935 12.813 23.2217 12.9861 23.2217 13.1638C23.2217 13.3406 23.2935 13.5137 23.4191 13.6394C23.5438 13.765 23.7179 13.8368 23.8946 13.8368Z" fill="black"/>
<path d="M10.3161 19.1306C10.4929 19.1306 10.6661 19.0589 10.7917 18.9332C10.9173 18.8076 10.9891 18.6344 10.9891 18.4577C10.9891 18.28 10.9173 18.1069 10.7917 17.9812C10.6661 17.8565 10.4929 17.7847 10.3161 17.7847C10.1385 17.7847 9.96531 17.8565 9.83969 17.9812C9.71497 18.1069 9.64319 18.28 9.64319 18.4577C9.64319 18.6344 9.71497 18.8076 9.83969 18.9332C9.96531 19.0589 10.1385 19.1306 10.3161 19.1306Z" fill="black"/>
<path d="M17.105 19.1306C17.2826 19.1306 17.4558 19.0589 17.5814 18.9332C17.7061 18.8076 17.7779 18.6344 17.7779 18.4577C17.7779 18.28 17.7061 18.1069 17.5814 17.9812C17.4558 17.8565 17.2826 17.7847 17.105 17.7847C16.9282 17.7847 16.755 17.8565 16.6294 17.9812C16.5038 18.1069 16.432 18.28 16.432 18.4577C16.432 18.6344 16.5038 18.8076 16.6294 18.9332C16.755 19.0589 16.9282 19.1306 17.105 19.1306Z" fill="black"/>
<path d="M30.6843 19.1306C30.8611 19.1306 31.0342 19.0589 31.1599 18.9332C31.2855 18.8076 31.3573 18.6344 31.3573 18.4577C31.3573 18.28 31.2855 18.1069 31.1599 17.9812C31.0342 17.8565 30.8611 17.7847 30.6843 17.7847C30.5066 17.7847 30.3335 17.8565 30.2079 17.9812C30.0831 18.1069 30.0114 18.28 30.0114 18.4577C30.0114 18.6344 30.0831 18.8076 30.2079 18.9332C30.3335 19.0589 30.5066 19.1306 30.6843 19.1306Z" fill="black"/>
<path d="M23.8946 19.1306C24.0714 19.1306 24.2455 19.0589 24.3702 18.9332C24.4958 18.8076 24.5676 18.6344 24.5676 18.4577C24.5676 18.28 24.4958 18.1069 24.3702 17.9812C24.2455 17.8565 24.0714 17.7847 23.8946 17.7847C23.7179 17.7847 23.5438 17.8565 23.4191 17.9812C23.2935 18.1069 23.2217 18.28 23.2217 18.4577C23.2217 18.6344 23.2935 18.8076 23.4191 18.9332C23.5438 19.0589 23.7179 19.1306 23.8946 19.1306Z" fill="black"/>
<path d="M37.7657 17.9218V12.8656C37.7657 9.99705 35.432 7.66333 32.5634 7.66333H8.43662C5.56803 7.66333 3.23431 9.99705 3.23431 12.8656V17.9218C1.4237 18.0856 0 19.6112 0 21.4638C0 22.6451 0.580177 23.7331 1.53838 24.3928V28.9109C1.53838 29.977 2.27917 30.8726 3.2729 31.1117V32.6637C3.2729 33.0353 3.5742 33.3366 3.94585 33.3366H7.27904C7.65069 33.3366 7.952 33.0353 7.952 32.6637V31.1748H33.0481V32.6638C33.0481 33.0354 33.3494 33.3367 33.7211 33.3367H37.0543C37.4259 33.3367 37.7272 33.0354 37.7272 32.6638V31.1118C38.721 30.8726 39.4617 29.977 39.4617 28.911V24.3929C40.4199 23.7332 41.0001 22.6451 41.0001 21.4639C41 19.6112 39.5763 18.0856 37.7657 17.9218ZM8.43662 9.00915H32.5633C34.6898 9.00915 36.4197 10.7391 36.4197 12.8655V18.0569C34.9552 18.4974 33.885 19.8576 33.885 21.4637V22.5516H7.11484V21.4637C7.11484 19.8576 6.04466 18.4974 4.58013 18.0569V12.8655C4.58022 10.7391 6.31017 9.00915 8.43662 9.00915V9.00915ZM33.721 29.8289H7.27904H7.11493V28.7033H33.8852V29.8289H33.721ZM33.8852 27.3574H7.11484V23.8975H33.8851V27.3574H33.8852ZM2.88438 28.9109V24.0451C2.88509 24.0291 2.88518 24.0131 2.88474 23.9969C2.87819 23.7541 2.74117 23.5337 2.52645 23.4202C1.79832 23.0355 1.346 22.2858 1.346 21.4638C1.346 20.2444 2.33812 19.2523 3.55751 19.2523C4.77691 19.2523 5.76902 20.2444 5.76902 21.4638V29.829H3.94594H3.80238C3.29614 29.8289 2.88438 29.4172 2.88438 28.9109V28.9109ZM6.60618 31.9908H4.6189V31.1748H6.44207H6.60618V31.9908ZM36.3813 31.9908H34.394V31.1748H34.5581H36.3813V31.9908ZM38.4738 23.4203C38.2589 23.5338 38.1224 23.7544 38.1157 23.9972C38.1154 24.0103 38.1155 24.0234 38.1158 24.0365V28.9109C38.1158 29.4172 37.7041 29.8289 37.1978 29.8289H37.0543H35.2311V21.4637C35.2311 20.2444 36.2232 19.2522 37.4426 19.2522C38.6621 19.2522 39.6541 20.2444 39.6541 21.4637C39.6542 22.2858 39.2019 23.0355 38.4738 23.4203V23.4203Z" fill="black"/>
</g>
<defs>
<clipPath id="clip0">
<rect width="41" height="41" fill="white"/>
</clipPath>
</defs>
</svg>
