<svg width="34" height="34" viewBox="0 0 34 34" fill="none" xmlns="http://www.w3.org/2000/svg">
<path d="M21.25 23.3749H20.036C19.7007 23.3749 19.4288 23.6467 19.4288 23.982C19.4288 24.3173 19.7007 24.5892 20.036 24.5892H21.25C21.5853 24.5892 21.8572 24.3173 21.8572 23.982C21.8572 23.6467 21.5853 23.3749 21.25 23.3749Z" fill="black"/>
<path d="M30.0536 12.4464C29.9513 12.4464 29.8503 12.4516 29.75 12.4592V5.16071C29.75 2.81721 27.8434 0.910706 25.5 0.910706H8.5C6.15658 0.910706 4.25 2.81721 4.25 5.16071V12.4592C4.14967 12.4516 4.04866 12.4464 3.94643 12.4464C1.77035 12.4464 0 14.2168 0 16.3929C0 17.7541 0.689031 18.9963 1.82143 19.7181V27.7262C1.82143 27.7533 1.82386 27.78 1.82735 27.8062C1.92146 29.396 3.24412 30.6607 4.85714 30.6607V31.2679C4.85714 32.2721 5.67421 33.0893 6.67857 33.0893C7.68294 33.0893 8.5 32.2721 8.5 31.2679V30.6607H25.5V31.2679C25.5 32.2721 26.3171 33.0893 27.3214 33.0893C28.3258 33.0893 29.1429 32.2721 29.1429 31.2679V30.6607C30.7559 30.6607 32.0785 29.396 32.1727 27.8062C32.1761 27.78 32.1786 27.7533 32.1786 27.7262V19.7181C33.311 18.9962 34 17.754 34 16.3929C34 14.2168 32.2296 12.4464 30.0536 12.4464ZM5.46429 5.16071C5.46429 3.48681 6.82611 2.12499 8.5 2.12499H25.5C27.1739 2.12499 28.5357 3.48681 28.5357 5.16071V12.7504C27.111 13.3464 26.1071 14.7544 26.1071 16.3929V19.1267C25.5994 18.7446 24.9686 18.5179 24.2857 18.5179H9.71429C9.0314 18.5179 8.40058 18.7446 7.89286 19.1267V16.3929C7.89286 14.7544 6.88902 13.3464 5.46429 12.7504V5.16071ZM7.28571 31.2679C7.28571 31.6026 7.01333 31.875 6.67857 31.875C6.34381 31.875 6.07143 31.6026 6.07143 31.2679V30.6607H7.28571V31.2679ZM27.9286 31.2679C27.9286 31.6026 27.6562 31.875 27.3214 31.875C26.9867 31.875 26.7143 31.6026 26.7143 31.2679V30.6607H27.9286V31.2679ZM31.295 18.8263C31.092 18.9301 30.9643 19.1389 30.9643 19.3669V27.625C30.9643 28.6293 30.1472 29.4464 29.1429 29.4464H4.85714C3.85278 29.4464 3.03571 28.6293 3.03571 27.625V19.3669C3.03571 19.139 2.90799 18.9302 2.70497 18.8264C1.78546 18.3561 1.21429 17.4237 1.21429 16.3929C1.21429 14.8863 2.43988 13.6607 3.94643 13.6607C5.45298 13.6607 6.67857 14.8863 6.67857 16.3929V21.5536V21.5537C6.67865 23.2275 8.04039 24.5892 9.71429 24.5892H17.607C17.9423 24.5892 18.2141 24.3174 18.2141 23.9821C18.2141 23.6468 17.9423 23.3749 17.607 23.3749H9.71429C8.71 23.3749 7.89286 22.5579 7.89286 21.5536C7.89286 20.5493 8.71 19.7321 9.71429 19.7321H24.2857C25.29 19.7321 26.1071 20.5493 26.1071 21.5536C26.1071 22.5579 25.29 23.3749 24.2857 23.3749H23.6786C23.3433 23.3749 23.0714 23.6468 23.0714 23.9821C23.0714 24.3174 23.3433 24.5892 23.6786 24.5892H24.2857C25.9595 24.5892 27.3214 23.2275 27.3214 21.5537V21.5536V16.3929C27.3214 14.8863 28.547 13.6607 30.0536 13.6607C31.5601 13.6607 32.7857 14.8863 32.7857 16.3929C32.7857 17.4237 32.2145 18.3561 31.295 18.8263Z" fill="black"/>
</svg>
