<svg width="46" height="46" viewBox="0 0 46 46" fill="none" xmlns="http://www.w3.org/2000/svg">
<g clip-path="url(#clip0)">
<path d="M20.0152 37.2421C19.5834 37.2421 19.2322 37.5933 19.2322 38.025C19.2322 38.4568 19.5834 38.808 20.0152 38.808C20.4469 38.808 20.7981 38.4568 20.7981 38.025C20.7981 37.5933 20.4469 37.2421 20.0152 37.2421Z" fill="black"/>
<path d="M20.0152 29.6415C19.5834 29.6415 19.2322 29.9927 19.2322 30.4245C19.2322 30.8562 19.5834 31.2074 20.0152 31.2074C20.4469 31.2074 20.7981 30.8562 20.7981 30.4245C20.7981 29.9927 20.4469 29.6415 20.0152 29.6415Z" fill="black"/>
<path d="M20.0152 22.0408C19.5834 22.0408 19.2322 22.392 19.2322 22.8237C19.2322 23.2555 19.5834 23.6067 20.0152 23.6067C20.4469 23.6067 20.7981 23.2555 20.7981 22.8237C20.7981 22.392 20.4469 22.0408 20.0152 22.0408Z" fill="black"/>
<path d="M42.7443 13.2635L34.1684 4.10156C33.6069 3.50141 32.5726 2.94285 31.7717 2.80367L30.5635 2.57867L27.5386 0.160731C27.5368 0.15936 27.5349 0.158479 27.5331 0.157109C27.5041 0.134305 27.4733 0.113556 27.4405 0.0951561C27.4358 0.0925135 27.431 0.0901646 27.4263 0.0877178C27.3943 0.0705901 27.361 0.0552242 27.3259 0.0426965C27.2852 0.0283093 27.2499 0.0199902 27.2146 0.0133348C27.2083 0.0121604 27.2019 0.010888 27.1955 0.00981143C27.1591 0.00403696 27.1227 0.000905049 27.0866 0.000611432C27.0844 0.000611432 27.0824 0.00012207 27.0803 0.00012207H18.9202C18.9185 0.00012207 18.9168 0.00051356 18.915 0.00051356C18.8782 0.000807176 18.8412 0.00393909 18.8042 0.0099093C18.7984 0.010888 18.7927 0.0119646 18.7869 0.0130412C18.7513 0.0196965 18.7158 0.0281136 18.6804 0.0402497C18.6396 0.0550284 18.6062 0.0704923 18.5741 0.0877178C18.5695 0.0901646 18.5648 0.0924157 18.5602 0.0950582C18.5274 0.113458 18.4964 0.134305 18.4675 0.157109C18.4657 0.158479 18.4638 0.15936 18.462 0.160731L15.4368 2.57867L14.2372 2.80201C13.4275 2.94275 12.3934 3.50141 11.8318 4.10146L3.25595 13.2634C3.12862 13.3994 3.05786 13.5787 3.05786 13.765V26.5589C3.05786 26.9644 3.38652 27.293 3.7919 27.293H9.13838C9.54376 27.293 9.87242 26.9644 9.87242 26.5589V17.2305L12.3846 14.5838L11.378 43.9006C11.3667 44.2297 11.576 44.5261 11.8899 44.6255C12.067 44.6817 16.3052 46 23 46C29.6949 46 33.9331 44.6816 34.1102 44.6255C34.4241 44.5261 34.6334 44.2297 34.622 43.9006L33.6154 14.5837L36.1277 17.2304V26.5589C36.1277 26.9644 36.4562 27.293 36.8617 27.293H42.2084C42.6138 27.293 42.9424 26.9644 42.9424 26.5589V13.7651C42.9425 13.5787 42.8716 13.3994 42.7443 13.2635ZM26.89 7.08598L28.1689 9.73773L23.7342 16.2258V12.6611L27.4342 1.95679L29.3971 3.52578L28.5304 6.03317H27.5511C27.2986 6.03317 27.0638 6.16295 26.9294 6.37689C26.795 6.59084 26.7803 6.85862 26.89 7.08598ZM19.0707 6.3768C18.9364 6.16285 18.7016 6.03307 18.449 6.03307H17.4696L16.6029 3.52568L18.5661 1.95659L22.2662 12.6609V16.2263L17.8311 9.73773L19.1101 7.08598C19.2198 6.85862 19.2049 6.59075 19.0707 6.3768ZM23.0002 10.2909L19.9505 1.46811H26.0498L23.0002 10.2909ZM13.4052 27.6403H15.8993V31.9852C15.8993 32.6598 15.3505 33.2086 14.6759 33.2086H13.2141L13.4052 27.6403ZM32.7861 33.2086H31.3246C30.6499 33.2086 30.1012 32.6598 30.1012 31.9852V27.6403H32.5949L32.7861 33.2086ZM41.4744 25.8249H37.5958V13.7651C37.5958 13.3596 37.2673 13.031 36.8618 13.031C36.4563 13.031 36.1278 13.3596 36.1278 13.7651V15.0981L33.3479 12.1694C33.1379 11.9481 32.8129 11.88 32.5318 11.9977C32.2505 12.1155 32.0714 12.3952 32.0819 12.6999L32.5444 26.1724H29.367C28.9615 26.1724 28.633 26.5009 28.633 26.9064V31.9853C28.633 33.4693 29.8404 34.6768 31.3245 34.6768H32.8364L33.135 43.3736C31.8152 43.7153 28.1256 44.5319 23 44.5319C17.8741 44.5319 14.1843 43.7152 12.865 43.3735L13.1636 34.6767H14.6758C16.1599 34.6767 17.3673 33.4692 17.3673 31.9852V26.9063C17.3673 26.5008 17.0386 26.1723 16.6332 26.1723H13.4555L13.9182 12.6998C13.9286 12.3951 13.7495 12.1154 13.4682 11.9976C13.187 11.8799 12.8621 11.948 12.6522 12.1693L9.87232 15.098V13.765C9.87232 13.3595 9.54367 13.0309 9.13828 13.0309C8.73289 13.0309 8.40424 13.3595 8.40424 13.765V25.8249H4.52565V14.055L12.9034 5.10465C13.2431 4.74164 13.9986 4.33352 14.4971 4.2468L15.2503 4.10655L16.2529 7.007C16.3551 7.30277 16.6337 7.50125 16.9466 7.50125H17.2799L16.3243 9.48258C16.2101 9.71914 16.2312 9.99876 16.3794 10.2156L22.2661 18.828L22.266 42.3298C22.266 42.7353 22.5946 43.0638 23 43.0638C23.4054 43.0638 23.7341 42.7353 23.7341 42.3298L23.7343 18.8274L29.6206 10.2156C29.7689 9.99876 29.7899 9.71914 29.6757 9.48258L28.7201 7.50125H29.0533C29.3662 7.50125 29.6449 7.30286 29.7472 7.007L30.7497 4.10665L31.5116 4.24856C32.0014 4.33361 32.7568 4.74174 33.0965 5.10475L41.4743 14.0551V25.8249H41.4744Z" fill="black"/>
</g>
<defs>
<clipPath id="clip0">
<rect width="46" height="46" fill="white"/>
</clipPath>
</defs>
</svg>
