<svg width="164" height="36" viewBox="0 0 164 36" fill="none" xmlns="http://www.w3.org/2000/svg">
<path d="M5.8009 27C4.42423 27 3.23423 26.4983 2.2309 25.495C1.22757 24.4917 0.725898 23.3017 0.725898 21.925V20.91H6.0809V21.085C6.0809 21.4583 6.0809 21.645 6.0809 21.645C6.0809 21.645 6.26757 21.645 6.6409 21.645H15.3909C15.7642 21.645 15.9509 21.645 15.9509 21.645C15.9509 21.645 15.9509 21.4583 15.9509 21.085V20.105C15.9509 19.7317 15.9509 19.545 15.9509 19.545C15.9509 19.545 15.7642 19.545 15.3909 19.545H5.8009C4.42423 19.545 3.23423 19.0433 2.2309 18.04C1.22757 17.0367 0.725898 15.8467 0.725898 14.47V11.775C0.725898 10.3983 1.22757 9.20833 2.2309 8.205C3.23423 7.20167 4.42423 6.7 5.8009 6.7H16.2309C17.6309 6.7 18.8326 7.20167 19.8359 8.205C20.8392 9.20833 21.3409 10.3983 21.3409 11.775V12.79H15.9509V12.615C15.9509 12.2417 15.9509 12.055 15.9509 12.055C15.9509 12.055 15.7642 12.055 15.3909 12.055H6.6409C6.26757 12.055 6.0809 12.055 6.0809 12.055C6.0809 12.055 6.0809 12.2417 6.0809 12.615V13.595C6.0809 13.9683 6.0809 14.155 6.0809 14.155C6.0809 14.155 6.26757 14.155 6.6409 14.155H16.2309C17.6309 14.155 18.8326 14.6567 19.8359 15.66C20.8392 16.6633 21.3409 17.8533 21.3409 19.23V21.925C21.3409 23.3017 20.8392 24.4917 19.8359 25.495C18.8326 26.4983 17.6309 27 16.2309 27H5.8009ZM24.93 35.05V6.7H40.435C41.835 6.7 43.025 7.20167 44.005 8.205C45.0084 9.20833 45.51 10.3983 45.51 11.775V21.925C45.51 23.3017 45.0084 24.4917 44.005 25.495C43.025 26.4983 41.835 27 40.435 27H30.285V35.05H24.93ZM31.44 21.645H39C39.77 21.645 40.155 21.645 40.155 21.645C40.155 21.645 40.155 21.26 40.155 20.49V13.21C40.155 12.44 40.155 12.055 40.155 12.055C40.155 12.055 39.77 12.055 39 12.055H31.44C30.67 12.055 30.285 12.055 30.285 12.055C30.285 12.055 30.285 12.44 30.285 13.21V20.49C30.285 21.26 30.285 21.645 30.285 21.645C30.285 21.645 30.67 21.645 31.44 21.645ZM53.1422 27C51.7656 27 50.5756 26.4983 49.5722 25.495C48.5689 24.4917 48.0672 23.3017 48.0672 21.925V11.775C48.0672 10.3983 48.5689 9.20833 49.5722 8.205C50.5756 7.20167 51.7656 6.7 53.1422 6.7H63.5722C64.9722 6.7 66.1622 7.20167 67.1422 8.205C68.1456 9.20833 68.6472 10.3983 68.6472 11.775V21.925C68.6472 23.3017 68.1456 24.4917 67.1422 25.495C66.1622 26.4983 64.9722 27 63.5722 27H53.1422ZM54.5772 21.645H62.1372C62.9072 21.645 63.2922 21.645 63.2922 21.645C63.2922 21.645 63.2922 21.26 63.2922 20.49V13.21C63.2922 12.44 63.2922 12.055 63.2922 12.055C63.2922 12.055 62.9072 12.055 62.1372 12.055H54.5772C53.8072 12.055 53.4222 12.055 53.4222 12.055C53.4222 12.055 53.4222 12.44 53.4222 13.21V20.49C53.4222 21.26 53.4222 21.645 53.4222 21.645C53.4222 21.645 53.8072 21.645 54.5772 21.645ZM71.3786 27V11.775C71.3786 10.3983 71.8803 9.20833 72.8836 8.205C73.8869 7.20167 75.0886 6.7 76.4886 6.7H87.6886V12.055H77.8886C77.1186 12.055 76.7336 12.055 76.7336 12.055C76.7336 12.055 76.7336 12.44 76.7336 13.21V27H71.3786ZM94.9464 27C93.5464 27 92.3448 26.4983 91.3414 25.495C90.3381 24.4917 89.8364 23.3017 89.8364 21.925V0.679999H95.1914V6.7H102.716V12.055H95.1914V20.49C95.1914 21.26 95.1914 21.645 95.1914 21.645C95.1914 21.645 95.5764 21.645 96.3464 21.645H102.716V27H94.9464Z" fill="white"/>
<path d="M110.667 27C109.291 27 108.101 26.4983 107.097 25.495C106.094 24.4917 105.592 23.3017 105.592 21.925V0.014999H110.982V20.49C110.982 21.26 110.982 21.645 110.982 21.645C110.982 21.645 111.367 21.645 112.137 21.645H115.077V27H110.667ZM118.444 27V6.7H123.799V27H118.444ZM118.444 5.44V0.0499986H123.799V5.44H118.444ZM127.161 27V5.125C127.161 3.74833 127.662 2.55833 128.666 1.555C129.669 0.551665 130.871 0.0499986 132.271 0.0499986H140.041V5.44H133.671C132.901 5.44 132.516 5.44 132.516 5.44C132.516 5.44 132.516 5.81333 132.516 6.56V6.7H140.041V12.055H132.516V27H127.161ZM147.581 27C146.204 27 145.014 26.4983 144.011 25.495C143.007 24.4917 142.506 23.3017 142.506 21.925V11.775C142.506 10.3983 143.007 9.20833 144.011 8.205C145.014 7.20167 146.204 6.7 147.581 6.7H158.011C159.411 6.7 160.601 7.20167 161.581 8.205C162.584 9.20833 163.086 10.3983 163.086 11.775V19.545H147.861V20.49C147.861 21.26 147.861 21.645 147.861 21.645C147.861 21.645 148.246 21.645 149.016 21.645H163.086V27H147.581ZM147.861 14.855H157.731V13.21C157.731 12.44 157.731 12.055 157.731 12.055C157.731 12.055 157.346 12.055 156.576 12.055H149.016C148.246 12.055 147.861 12.055 147.861 12.055C147.861 12.055 147.861 12.44 147.861 13.21V14.855Z" fill="#FF0000"/>
</svg>
