<svg width="164" height="28" viewBox="0 0 164 28" fill="none" xmlns="http://www.w3.org/2000/svg">
<path d="M14 0L17.1432 9.67376H27.3148L19.0858 15.6525L22.229 25.3262L14 19.3475L5.77101 25.3262L8.9142 15.6525L0.685208 9.67376H10.8568L14 0Z" fill="#F8B200"/>
<path d="M48 0L51.1432 9.67376H61.3148L53.0858 15.6525L56.229 25.3262L48 19.3475L39.771 25.3262L42.9142 15.6525L34.6852 9.67376H44.8568L48 0Z" fill="#F8B200"/>
<path d="M82 0L85.1432 9.67376H95.3148L87.0858 15.6525L90.229 25.3262L82 19.3475L73.771 25.3262L76.9142 15.6525L68.6852 9.67376H78.8568L82 0Z" fill="#F8B200"/>
<path d="M116 0L119.143 9.67376H129.315L121.086 15.6525L124.229 25.3262L116 19.3475L107.771 25.3262L110.914 15.6525L102.685 9.67376H112.857L116 0Z" fill="#F8B200"/>
<path d="M150 1.61804L152.668 9.82827L152.78 10.1738H153.143H161.776L154.792 15.248L154.498 15.4615L154.61 15.807L157.278 24.0172L150.294 18.943L150 18.7295L149.706 18.943L142.722 24.0172L145.39 15.807L145.502 15.4615L145.208 15.248L138.224 10.1738H146.857H147.22L147.332 9.82827L150 1.61804Z" stroke="#F8B200"/>
</svg>
