<svg width="34" height="35" viewBox="0 0 34 35" fill="none" xmlns="http://www.w3.org/2000/svg">
<g clip-path="url(#clip0)">
<path d="M17 17.8027C12.3132 17.8027 8.5 13.9896 8.5 9.3027C8.5 4.61582 12.3132 0.802734 17 0.802734C21.6869 0.802734 25.5001 4.61588 25.5001 9.30277C25.5001 13.9896 21.6869 17.8027 17 17.8027ZM17 2.92776C13.4847 2.92776 10.625 5.78734 10.625 9.30277C10.625 12.8182 13.4846 15.6778 17 15.6778C20.5155 15.6778 23.375 12.8181 23.375 9.30277C23.375 5.7874 20.5154 2.92776 17 2.92776Z" fill="#FF3434"/>
<path d="M30.8125 34.8029H3.18751C2.60021 34.8029 2.125 34.3277 2.125 33.7404V26.4264C2.125 25.3286 2.68633 24.2973 3.58906 23.7328C11.5682 18.7554 22.4391 18.7564 30.41 23.7317C31.3137 24.2972 31.8751 25.3286 31.8751 26.4264V33.7404C31.8751 34.3277 31.3999 34.8029 30.8125 34.8029ZM4.25002 32.678H29.7501V26.4264C29.7501 26.056 29.5716 25.7136 29.2842 25.5341C21.9888 20.9801 12.0164 20.977 4.71493 25.5352C4.42856 25.7136 4.25008 26.056 4.25008 26.4265L4.25002 32.678Z" fill="#FF3434"/>
</g>
<defs>
<clipPath id="clip0">
<rect width="34" height="34" fill="white" transform="translate(0 0.802734)"/>
</clipPath>
</defs>
</svg>
