<svg width="80" height="81" viewBox="0 0 80 81" fill="none" xmlns="http://www.w3.org/2000/svg">
<path d="M71.5139 70.2165C70.7641 70.1032 70.0165 69.9837 69.2894 69.8622C69.0019 69.8081 68.7046 69.8624 68.4547 70.0145C68.2049 70.1667 68.0201 70.4059 67.9361 70.6861C67.8936 70.8414 67.884 71.0039 67.9081 71.1631C67.9321 71.3224 67.9893 71.4748 68.0758 71.6106C68.1624 71.7465 68.2764 71.8627 68.4105 71.9517C68.5447 72.0408 68.696 72.1008 68.8548 72.1279C69.6292 72.2597 70.4263 72.3874 71.2255 72.5069C71.2828 72.5151 71.3406 72.5192 71.3985 72.5192C71.6826 72.5188 71.9564 72.4134 72.1674 72.2233C72.3784 72.0332 72.5117 71.7718 72.5417 71.4894C72.5665 71.1858 72.4736 70.8844 72.2823 70.6474C72.091 70.4105 71.8158 70.2562 71.5139 70.2165Z" fill="#FF3434"/>
<path d="M34.6036 38.0014C34.3376 38.1258 34.1273 38.3444 34.0131 38.6149C33.899 38.8854 33.8892 39.1886 33.9857 39.4659C34.1422 39.9437 34.3214 40.4319 34.515 40.9077C34.5736 41.0543 34.6617 41.1874 34.774 41.2984C34.8862 41.4095 35.0202 41.4963 35.1675 41.5533C35.3147 41.6103 35.4722 41.6363 35.6299 41.6298C35.7877 41.6233 35.9425 41.5843 36.0845 41.5153C36.3501 41.3777 36.5541 41.1449 36.6557 40.8636C36.7572 40.5822 36.7489 40.2728 36.6324 39.9973C36.4573 39.5627 36.2987 39.124 36.1587 38.6935C36.108 38.5416 36.0262 38.4019 35.9186 38.2834C35.811 38.1649 35.6798 38.07 35.5336 38.0049C35.3873 37.9398 35.2291 37.9059 35.0689 37.9053C34.9088 37.9047 34.7503 37.9374 34.6036 38.0014Z" fill="#FF3434"/>
<path d="M40.031 23.9958C40.2711 23.8192 40.4335 23.5566 40.4843 23.2628C40.535 22.9691 40.4701 22.6672 40.3031 22.4203C40.1361 22.1734 39.88 22.0008 39.5885 21.9385C39.297 21.8763 38.9928 21.9293 38.7395 22.0864C38.4862 22.2594 32.5273 26.3789 33.0423 34.7043C33.0601 34.9971 33.189 35.2719 33.4026 35.4729C33.6161 35.6738 33.8983 35.7857 34.1916 35.7857H34.2967C34.5962 35.7534 34.8718 35.607 35.0663 35.3769C35.2607 35.1468 35.3591 34.8506 35.3409 34.5499C34.9228 27.5797 39.8167 24.142 40.031 23.9958Z" fill="#FF3434"/>
<path d="M33.9155 68.3083C33.2317 67.989 32.5582 67.645 31.9094 67.2784C31.6575 67.1351 31.3616 67.0895 31.0783 67.1503C30.7949 67.211 30.5438 67.374 30.3728 67.608C30.2808 67.7402 30.2175 67.8903 30.187 68.0485C30.1565 68.2067 30.1595 68.3696 30.1958 68.5266C30.2321 68.6836 30.3008 68.8312 30.3977 68.96C30.4945 69.0888 30.6172 69.1958 30.758 69.2743C31.4727 69.6718 32.2183 70.0508 32.9722 70.403C33.1247 70.4731 33.2905 70.5096 33.4583 70.5101C33.691 70.5103 33.9184 70.4399 34.1103 70.3083C34.3022 70.1766 34.4498 69.9899 34.5335 69.7727C34.6319 69.4956 34.623 69.1916 34.5087 68.9206C34.3943 68.6496 34.1828 68.4312 33.9155 68.3083Z" fill="#FF3434"/>
<path d="M27.8743 64.6138C23.9382 61.5139 22.3357 58.5478 22.3131 58.5169C22.1708 58.2465 21.9269 58.0437 21.635 57.9532C21.3432 57.8626 21.0273 57.8916 20.7569 58.0339C20.4865 58.1762 20.2837 58.4201 20.1931 58.712C20.1026 59.0038 20.1316 59.3197 20.2739 59.5901C20.346 59.7281 22.0927 62.9969 26.4531 66.4243C26.572 66.5179 26.7081 66.5871 26.8538 66.6281C26.9994 66.6691 27.1517 66.6809 27.302 66.6631C27.4522 66.6452 27.5974 66.5979 27.7294 66.5239C27.8614 66.4498 27.9774 66.3506 28.071 66.2317C28.1646 66.1128 28.2339 65.9767 28.2749 65.831C28.3158 65.6854 28.3277 65.5331 28.3098 65.3828C28.2919 65.2326 28.2446 65.0874 28.1706 64.9554C28.0966 64.8234 27.9973 64.7073 27.8785 64.6138H27.8743Z" fill="#FF3434"/>
<path d="M64.1174 68.8709C51.6478 66.1726 43.8311 62.1252 39.4707 59.2045C34.7848 56.0676 32.9825 53.532 32.9557 53.4764L32.9145 53.4249C32.9145 53.3158 32.9001 53.2066 32.8878 53.0995C33.5603 53.0626 34.2105 52.8456 34.7704 52.4713C35.1778 52.1829 35.5187 51.8105 35.7699 51.3791C36.0211 50.9477 36.1769 50.4675 36.2266 49.9708C36.4326 48.3601 35.6231 46.7823 33.9321 45.5279C32.517 44.4775 30.5088 43.6742 28.276 43.2622C23.1864 42.3127 17.2997 43.4002 13.8352 47.4414C11.9259 45.4002 11.4315 42.0861 12.7601 39.4558C13.4769 38.0387 15.8002 34.9244 21.8373 36.6711C25.8806 37.8369 28.6035 36.3518 29.5098 34.3621C30.3584 32.4981 29.6334 30.4074 27.7075 29.1592C26.3502 28.2818 24.1154 27.9522 21.4521 28.2035C23.0946 26.5137 24.8621 24.9501 26.7395 23.5259C28.5691 22.1374 30.5224 20.9198 32.5747 19.8884H32.5953C35.5469 18.7473 38.758 18.8873 41.8764 20.3003C43.9227 21.2485 45.7642 22.5869 47.2977 24.2406C44.9702 24.6731 41.3244 25.9605 39.5757 29.8163C37.9506 33.3858 38.2369 37.1942 40.4264 41.1448C45.1143 49.5897 58.1051 57.3631 70.9269 61.7668C71.173 61.8554 71.4416 61.8596 71.6904 61.7787C71.9391 61.6977 72.1539 61.5363 72.3007 61.3199C72.3972 61.173 72.4589 61.0059 72.481 60.8316C72.503 60.6572 72.485 60.48 72.4281 60.3137C72.3713 60.1474 72.2772 59.9962 72.153 59.8718C72.0288 59.7474 71.8779 59.653 71.7117 59.5959C67.781 58.2514 63.9518 56.6269 60.2534 54.7349C51.5489 50.2571 45.2173 45.0336 42.4408 40.0264C40.6241 36.7576 40.3667 33.6412 41.6725 30.7802C42.4964 28.9533 44.0247 27.6515 46.1936 26.9141C47.1056 26.6092 48.0522 26.4203 49.0113 26.3518C49.1123 26.496 49.2173 26.6402 49.31 26.7864C50.2554 28.2035 51.6004 28.9636 53.102 28.9636C53.4534 28.9627 53.8037 28.9226 54.1463 28.8441C56.3811 28.3415 58.2472 26.3106 58.5809 24.014C58.931 21.6206 57.6107 19.3961 54.9619 17.909C54.6694 17.7442 54.3728 17.5877 54.0762 17.4352C53.5346 14.9264 52.0823 12.7072 50 11.2066C47.0608 9.12215 43.0258 8.59074 38.0062 9.62884C31.5036 10.9697 25.0855 14.6772 18.412 20.9574C18.1277 21.2251 17.3265 22.0305 17.2585 22.1067C13.1391 26.7411 7.77139 33.6412 7.63133 33.8616C7.49013 34.0909 7.43344 34.3623 7.47104 34.6289C7.50865 34.8955 7.6382 35.1407 7.8373 35.3219C8.04032 35.4997 8.29828 35.6022 8.56792 35.6124C8.83756 35.6225 9.10248 35.5396 9.31825 35.3776C12.4088 33.167 15.9238 31.6206 19.6416 30.8358C21.8826 30.3848 25.0114 30.1912 26.4552 31.1263C27.413 31.7442 27.7796 32.6319 27.413 33.4393C26.9166 34.5269 25.1967 35.2746 22.4696 34.4898C19.6705 33.6824 17.1741 33.6865 15.0546 34.5022C13.1587 35.2209 11.6048 36.6299 10.7045 38.4466C9.77231 40.3258 9.48494 42.4597 9.88674 44.5187C10.2312 46.3658 11.1435 48.0593 12.4964 49.3631C11.9525 50.358 11.5444 51.4214 11.2832 52.5248C10.4923 55.7874 11.1391 59.3817 13.1514 62.9141C14.0497 64.5004 15.1483 65.9645 16.4202 67.2705C16.6434 67.4563 16.9284 67.5511 17.2185 67.536C17.5085 67.5208 17.7821 67.3969 17.9847 67.1888C18.1873 66.9807 18.304 66.7039 18.3114 66.4136C18.3188 66.1232 18.2165 65.8408 18.0247 65.6227C17.9629 65.5629 11.9321 59.6288 13.5201 53.0748C14.2904 49.8904 16.1978 47.6247 19.1597 46.3374C21.6478 45.2581 24.8136 44.9636 27.8435 45.5279C31.4748 46.2056 34.1504 48.0284 33.9321 49.6783C33.9228 49.8546 33.8752 50.0269 33.7927 50.183C33.7102 50.3391 33.5947 50.4755 33.4542 50.5825C33.2403 50.7043 33.0039 50.7817 32.7594 50.8101C32.5148 50.8384 32.267 50.817 32.0309 50.7473C31.9977 50.7389 31.964 50.7327 31.93 50.7287C31.5134 50.1656 31.0035 49.6779 30.4223 49.2869C30.1829 49.1152 29.888 49.039 29.5954 49.0733C29.3028 49.1076 29.0336 49.2499 28.8404 49.4723C28.7374 49.5965 28.6616 49.7409 28.618 49.8962C28.5744 50.0515 28.5638 50.2142 28.5872 50.3739C28.6105 50.5335 28.667 50.6865 28.7533 50.8228C28.8395 50.9592 28.9534 51.0759 29.0876 51.1654C30.5294 52.1211 30.6921 53.2643 30.585 54.049C30.4346 55.1345 29.654 56.1417 28.7312 56.4445C28.0124 56.6793 27.3224 56.4589 26.6715 55.7895C24.1215 53.1407 20.9702 51.9872 18.4532 52.7782C17.664 53.0104 16.9578 53.4634 16.4176 54.0838C15.8775 54.7042 15.5261 55.4661 15.4048 56.2797C15.358 56.5715 15.4189 56.8702 15.5762 57.1204C15.7335 57.3705 15.9764 57.5549 16.2595 57.6391C16.4143 57.6767 16.5751 57.6818 16.7319 57.6541C16.8887 57.6264 17.0381 57.5666 17.1706 57.4784C17.3031 57.3901 17.416 57.2754 17.502 57.1414C17.588 57.0075 17.6454 56.8571 17.6705 56.6999C17.7166 56.2984 17.8813 55.9198 18.1436 55.6123C18.4059 55.3049 18.7539 55.0826 19.1432 54.9739C21.1514 54.3436 23.5592 55.8781 25.0114 57.3858C25.93 58.3374 27.0402 58.8276 28.1792 58.8276C28.6077 58.8268 29.0333 58.7573 29.4398 58.6216C30.6488 58.2021 31.654 57.3404 32.2534 56.2097C33.3244 57.3508 35.1699 59.0727 38.033 61.0068C42.5644 64.0737 50.6962 68.3168 63.6293 71.1139C63.7097 71.1319 63.7919 71.1408 63.8744 71.1407C64.1596 71.1421 64.4352 71.0377 64.6478 70.8475C64.8604 70.6574 64.9948 70.3951 65.0251 70.1115C65.0554 69.8278 64.9793 69.5431 64.8116 69.3124C64.6439 69.0817 64.3965 68.9214 64.1174 68.8626V68.8709ZM17.7137 28.8729C15.9551 29.3375 14.2436 29.965 12.6015 30.7473C13.481 29.6062 17.5242 25.2004 19.0114 23.5506C19.137 23.4126 19.2688 23.2766 19.4048 23.1386C25.9671 16.8358 32.2039 13.1407 38.4614 11.8492C42.8116 10.9512 46.2328 11.3487 48.6282 13.0295C49.7504 13.827 50.6444 14.9042 51.2214 16.1541C50.8095 16.0037 50.3975 15.8637 49.9753 15.7421C49.6963 15.6622 49.3981 15.6843 49.1339 15.8043C48.8697 15.9243 48.6568 16.1345 48.5335 16.3971C48.4734 16.5457 48.4451 16.7052 48.4502 16.8653C48.4553 17.0255 48.4938 17.1828 48.5632 17.3273C48.6326 17.4717 48.7314 17.6001 48.8533 17.7041C48.9751 17.8082 49.1174 17.8857 49.2709 17.9316C50.859 18.4122 52.3891 19.0671 53.8332 19.8843C55.6581 20.9141 56.5108 22.2097 56.3049 23.6494C56.1092 24.9924 54.9413 26.2735 53.6437 26.564C52.6715 26.7844 51.86 26.4177 51.2317 25.4744C49.0731 22.2385 46.0824 19.6453 42.826 18.1747C42.0581 17.8271 41.264 17.5406 40.4511 17.3178C41.8307 17.1069 43.2284 17.0378 44.6221 17.1119C44.9272 17.1288 45.2265 17.0238 45.4542 16.8201C45.6819 16.6163 45.8193 16.3304 45.8363 16.0253C45.8532 15.7202 45.7482 15.4209 45.5445 15.1932C45.3407 14.9655 45.0549 14.8281 44.7498 14.8111C38.4532 14.4589 31.7302 16.8461 25.308 21.7092C22.5221 23.8121 19.9754 26.2144 17.7137 28.8729Z" fill="#FF3434"/>
</svg>
