<svg width="143" height="69" viewBox="0 0 143 69" fill="none" xmlns="http://www.w3.org/2000/svg">
<g opacity="0.8">
<path d="M132.864 20.5744C116.62 29.3699 98.5345 40.1534 94.4476 59.6892C90.5583 77.707 98.5197 95.1778 101.27 112.797C100.589 118.284 100.158 123.819 99.9937 129.316C97.9997 125.661 95.8388 121.974 93.6623 118.37C89.7825 107.71 87.0136 96.6532 85.3922 85.4654C85.1725 83.8694 84.9528 82.2733 84.7331 80.6773C95.4136 62.3751 90.2097 40.3236 84.428 21.3603C84.2557 20.8961 83.1028 20.594 82.8422 21.0636C77.9691 30.9499 73.2581 41.8169 73.4816 53.0887C73.6405 59.1654 75.5779 64.9701 77.8126 70.5713C80.2875 76.7357 82.4285 82.8377 84.3401 89.2422C84.3401 89.2422 84.3401 89.2422 84.4079 89.3413C85.6211 97.1702 87.382 104.842 89.7895 112.29C87.5818 108.853 85.3584 105.5 82.9525 102.2C79.8783 84.0018 76.1729 65.9453 62.0687 52.6812C50.0881 41.4557 34.2392 35.2079 17.8605 34.5623C17.6936 34.5311 17.146 34.6878 17.266 34.9694C17.5584 35.7152 17.8508 36.461 18.1432 37.2068C18.2477 37.5719 19.0667 37.8115 19.5987 37.7382C29.4997 53.153 28.8138 72.9796 39.3927 88.0029C43.8184 94.3596 49.8655 98.5144 57.2054 100.838C65.1975 103.37 73.7678 104.196 81.343 108.032C81.51 108.063 81.6613 108.178 81.9951 108.24C96.0978 130.747 102.05 144.646 102.358 145.308C103.245 147.029 108.915 147.658 107.683 145.008C105.783 140.852 103.783 136.763 101.701 132.659C101.875 125.263 102.467 117.944 103.392 110.688C115.786 98.9265 128.383 86.0796 133.739 69.459C136.177 61.9678 136.732 54.3834 135.769 46.6014C134.765 38.1205 132.711 29.7026 134.471 21.2205C134.664 20.6519 133.245 20.3864 132.864 20.5744ZM84.487 78.2989C84.2775 76.1864 84.0681 74.074 83.9577 71.8937C84.5769 68.1223 86.923 65.2786 88.7317 62.0752C88.2175 67.594 86.853 73.0401 84.487 78.2989ZM88.9239 60.1243C86.8804 63.1974 84.5241 66.5575 83.837 70.2299C83.7686 68.7485 83.7159 67.1837 83.6475 65.7024C83.6049 63.6212 83.6458 61.5556 83.7858 59.4222C85.2133 55.0245 87.6945 50.9967 88.6056 46.5887C89.0612 51.0796 89.2508 55.6071 88.9239 60.1243ZM88.3703 45.0762C87.5427 49.4997 85.077 53.444 83.8321 57.7895C83.8526 56.7567 83.9721 55.6561 83.9926 54.6233C85.5089 50.6741 86.8739 46.6103 87.9885 42.4996C88.1818 43.3132 88.2761 44.1947 88.3703 45.0762ZM83.6047 23.4522C84.665 27.0196 85.6418 30.5714 86.4204 34.2588C85.8944 36.1472 84.8831 37.8585 84.2057 39.6322C84.2623 37.4832 84.1519 35.3029 84.0258 33.2061C83.9203 30.0765 84.0129 26.8112 83.3753 23.7548C83.49 23.6035 83.5056 23.5201 83.6047 23.4522ZM83.2138 24.1565C82.9123 26.6917 83.1271 29.237 83.175 31.7512C83.202 33.9158 83.1455 36.0649 83.3393 38.2608C82.3108 35.9087 81.0842 33.6924 79.941 31.4916C81.0093 29.0136 82.1611 26.5511 83.2138 24.1565ZM79.6335 32.2116C79.7482 32.0603 79.7951 31.8099 79.9097 31.6586C80.7503 33.6299 81.5753 35.6847 82.4837 37.7551C81.3615 35.9039 80.1246 34.2039 79.6335 32.2116ZM79.0498 33.4845C79.8699 36.4887 82.5887 39.5025 83.5547 42.1884C83.5547 42.1884 83.5547 42.1884 83.6226 42.2874L83.607 42.3709C83.5913 42.4544 83.6748 42.47 83.6904 42.3865C83.6904 42.3865 83.6904 42.3865 83.706 42.3031C83.8574 42.4178 84.1234 42.3811 84.1546 42.2142C84.118 41.9482 84.0657 41.7657 84.0291 41.4997C84.0447 41.4162 84.0603 41.3327 84.076 41.2493C84.0603 41.3327 84.1438 41.3483 84.1282 41.4318C84.196 41.5309 84.5299 41.5934 84.5455 41.5099C84.5089 41.2439 84.3732 41.0457 84.3366 40.7797C85.113 38.9381 86.2234 37.159 86.6816 35.1715C87.2093 37.4299 87.5701 39.657 88.0144 41.8997C86.7328 45.9792 85.4513 50.0587 84.0863 54.1225C84.2467 50.9563 84.4072 47.7901 84.3016 44.6605C84.3172 44.577 84.1503 44.5458 84.1347 44.6293C83.0669 48.4896 82.8025 52.673 82.6216 56.872C80.961 51.8965 77.6262 47.558 76.1637 42.4469C76.8249 39.3743 77.8878 36.4634 79.0498 33.4845ZM75.7 44.0014C75.7937 43.5007 75.9553 43.099 76.049 42.5982C77.3656 48.0276 80.836 52.5642 82.6012 57.9048C82.5543 58.1552 82.6066 58.3377 82.5597 58.5881C80.8468 53.4301 76.2342 49.4572 75.7 44.0014ZM74.7335 53.3229C74.7012 50.7254 74.9037 48.2581 75.3721 45.7542C76.266 50.6726 81.0977 54.8592 82.6071 59.72C82.6287 61.4517 82.6502 63.1834 82.5883 64.8995C82.5888 66.2818 82.605 67.5806 82.689 68.9785C80.0946 63.9147 75.8627 59.7539 74.7755 54.0219C74.7233 53.8393 74.6867 53.5733 74.7335 53.3229ZM77.2946 66.4143C78.2967 67.9839 79.3979 69.4857 80.7807 70.8674L80.9476 70.8987C79.5126 69.3344 78.2757 67.6344 77.1535 65.7832C76.062 62.3827 75.153 58.9301 74.8908 55.2528C76.0561 60.5676 80.0375 64.6815 82.7779 69.427C82.8619 70.8249 82.8624 72.2071 82.9464 73.605C81.0208 71.4307 79.2778 69.2041 77.6338 66.9097C77.399 66.7794 77.3468 66.5968 77.2946 66.4143ZM79.3101 71.8017C78.7775 70.4927 78.2606 69.1002 77.8115 67.8068C79.2886 70.07 80.9638 72.1975 82.8527 74.1058C82.9631 76.2861 83.157 78.4819 83.3509 80.6778C83.3352 80.7613 83.3352 80.7613 83.2362 80.8291C83.2205 80.9126 83.2884 81.0117 83.3562 81.1108C83.4661 81.9088 83.5081 82.6077 83.6336 83.3223C82.5679 79.322 80.7042 75.4315 79.3101 71.8017ZM66.9279 60.4147C69.1152 64.884 70.0871 69.3851 69.7867 74.6847C69.6365 77.3345 68.7927 80.4593 68.846 83.4064C68.5746 83.01 68.2198 82.5981 67.8493 82.2696C69.0355 74.5442 68.7194 66.5376 66.0302 59.2101C66.3016 59.6064 66.6565 60.0184 66.9279 60.4147ZM62.2103 54.6945C63.4418 55.9615 64.5063 57.1973 65.5397 58.6C67.2171 66.2566 68.2267 73.7882 67.2909 81.5605C64.1963 77.7853 61.0704 74.177 57.8611 70.5531C55.8763 63.6165 59.2002 53.6994 54.7018 48.193C57.3732 50.075 59.8986 52.2752 62.2103 54.6945ZM41.5603 42.7109C41.0488 41.7514 40.3547 40.844 39.6294 40.1036C44.0637 41.7971 48.253 43.8767 52.1817 46.4258C58.2191 52.4792 54.7019 61.5827 56.6453 69.2026C54.13 66.486 51.6148 63.7694 49.084 61.1363C47.9203 59.9684 46.7723 58.717 45.6087 57.549C43.7498 52.7093 43.998 47.2271 41.5603 42.7109ZM19.3892 35.6258C25.4401 36.0668 31.4494 37.1911 37.1357 39.1188C42.5775 42.8148 41.4484 49.7735 43.6518 55.5416C37.1761 49.0606 30.4188 42.6997 23.1559 37.1944C23.0724 37.1787 22.9055 37.1475 22.9733 37.2466C28.5045 42.7734 34.1661 48.0655 39.6138 53.5768C35.3566 51.3981 30.3488 50.4612 26.5451 47.2444C24.7126 43.187 22.4839 39.401 19.4937 35.9909C19.4259 35.8918 19.4415 35.8083 19.3892 35.6258ZM27.041 48.2874C31.0639 51.718 36.9274 53.1605 41.6541 55.5998C43.2405 57.2787 44.8268 58.9577 46.4132 60.6366C48.3544 62.7275 50.2799 64.9019 52.1221 67.0606C50.3015 66.6336 48.2359 66.5927 46.473 66.7811C43.3121 67.0536 40.1723 67.6756 37.0788 66.6649C35.0546 65.9406 33.3068 64.6634 31.9552 63.1148C30.4927 58.0036 29.0824 53.075 27.041 48.2874ZM32.232 63.944C33.4478 65.2945 35.06 66.3736 36.9172 67.0666C42.3375 69.0309 47.9855 66.5458 53.3223 68.4945C57.9355 73.8496 62.4183 79.4395 66.536 85.1338C62.9309 83.1635 58.7211 82.1168 54.7515 81.6332C47.9964 80.8013 41.273 81.1848 36.2323 76.268C34.6347 72.3409 33.4333 68.1425 32.232 63.944ZM36.4413 76.9982C39.0399 79.7304 42.9681 80.8972 46.5883 81.4017C49.859 81.9273 53.2233 81.952 56.4784 82.561C57.7303 82.7953 58.9667 83.1129 60.1874 83.5141C59.0033 83.3789 57.8192 83.2438 56.7186 83.1243C49.4836 82.5481 41.7275 82.9111 36.8694 77.9421C36.6658 77.6449 36.5457 77.3633 36.4413 76.9982ZM62.3328 100.674C53.0786 98.4244 45.7795 94.0354 40.7636 85.7542C39.6414 83.903 38.7018 81.9995 37.8456 80.1116C40.3813 81.7954 43.7408 82.7695 46.0622 83.2902C49.8859 84.0919 53.6988 84.0278 57.6006 84.4123C61.7684 84.7601 65.1123 85.8177 68.5348 87.8401C70.4346 90.6143 72.3499 93.3051 74.114 95.8811C63.6024 92.9643 51.1691 97.5489 42.7625 88.4606C42.7625 88.4606 42.679 88.445 42.7625 88.4606C45.9928 92.434 50.7766 94.1064 55.7321 94.8608C62.2891 95.8284 68.5639 95.5338 74.9438 96.9866C76.9636 100.042 78.8477 102.9 80.664 105.659C74.6541 103.152 68.3631 102.148 62.3328 100.674ZM79.748 97.6263C76.9194 93.8144 74.0752 90.0861 71.1475 86.3421C70.8761 85.9458 70.5891 85.6329 70.2342 85.221C70.1917 83.1398 70.749 81.0845 71.0559 78.9823C71.3418 76.5306 71.3773 74.0321 71.2303 71.5858C71.1043 69.489 70.6444 67.3297 70.0699 65.3218C75.5871 75.0788 78.3092 86.3862 79.748 97.6263ZM107.95 40.6191C110.843 37.6187 114.123 34.8634 117.539 32.3061C114.838 36.1202 113.703 41.2636 113.376 45.7809C113.112 49.9643 113.364 54.1579 113.282 58.2891C113.231 60.871 112.846 63.3906 112.393 65.811C111.346 68.6385 110.481 71.4138 109.601 74.2726C110.086 62.4423 104.563 50.87 109.597 39.1997C106.798 44.4638 106.556 50.379 107.012 56.2521C107.42 60.9933 108.095 65.6979 108.52 70.3557C107.913 67.1324 107.056 63.8623 106.351 60.7069C105.484 56.5709 104.814 52.2992 105.345 48.0791C105.693 45.2936 106.647 42.9669 107.95 40.6191ZM105.421 43.515C103.827 47.8815 103.975 53.0923 104.644 57.364C105.784 64.6609 108.134 71.493 108.257 78.6859C107.554 81.0595 106.934 83.4487 106.314 85.8379C105.918 87.4916 105.522 89.1452 105.127 90.7989C103.839 78.2912 96.4114 66.2763 99.0876 53.8193C100.656 50.0527 102.846 46.6614 105.421 43.515ZM101.801 108.577C99.8228 92.83 93.8338 77.2833 96.8007 61.4252C97.0662 60.0063 97.3995 58.6866 97.8163 57.3824C96.5584 68.7226 103.589 81.0089 104.762 92.2856C103.58 97.6795 102.565 103.105 101.801 108.577ZM103.986 107.517C104.418 104.747 104.849 101.977 105.38 99.1392C109.917 95.6688 115.461 92.8186 120.044 89.0977C115.112 95.6041 109.492 101.636 103.986 107.517ZM131.605 67.9368C129.438 74.4421 126.164 80.3949 122.27 85.9724C117.348 90.5802 110.839 93.509 105.531 97.8717C106.062 95.0339 106.661 92.2953 107.275 89.4731C111.211 84.5945 116.197 81.0352 121.296 77.3246C124.994 74.6473 128.837 71.6517 131.621 67.8533C131.621 67.8533 131.621 67.8533 131.605 67.9368ZM132.261 65.8136C128.727 70.8537 124.06 74.559 118.892 78.1705C114.913 80.9679 110.82 83.9166 107.77 87.7516C107.864 87.2508 108.041 86.7657 108.135 86.2649C108.166 86.098 108.197 85.931 108.228 85.7641C110.063 83.3431 111.951 81.1047 114.475 79.1581C117.624 76.6375 121.212 74.5444 124.497 72.222C127.699 69.8839 130.713 67.1652 132.803 63.8417C132.595 64.4938 132.47 65.1615 132.261 65.8136ZM133.193 61.7551C130.54 66.701 125.806 70.3072 121.149 73.496C117.186 76.21 112.242 79.086 109.01 82.9732C110.426 77.7096 112.093 72.4929 113.828 67.3753C117.341 60.6034 123.354 56.6316 128.463 51.0223C130.518 48.8151 132.217 46.196 133.249 43.4519C134.143 49.7526 134.234 55.7301 133.193 61.7551ZM133.186 42.4035C130.722 50.4946 121.011 55.7614 115.553 62.774C115.876 61.9706 116.199 61.1672 116.522 60.3638C119.525 56.7792 122.883 53.6065 126.257 50.3503C128.905 47.736 131.403 45.007 133.144 41.7046C133.097 41.9549 133.149 42.1375 133.186 42.4035ZM132.95 40.8909C129.406 47.8297 122.178 51.8333 117.538 57.7032C120.899 49.4344 124.965 41.5565 128.712 33.5327C128.728 33.4493 128.409 33.3033 128.394 33.3868C122.8 41.5835 118.25 50.6664 114.603 60.0046C114.7 55.79 114.297 51.4817 114.415 47.6165C114.595 40.653 116.35 34.5026 121.137 29.6967C124.803 27.1863 128.62 24.7906 132.39 22.6453C131.334 28.7538 132.176 34.8719 132.95 40.8909Z" fill="white"/>
<path d="M39.7699 66.1319C37.1826 65.6478 34.7567 64.762 32.7531 63.005C32.7531 63.005 32.6696 62.9894 32.7531 63.005C34.6577 64.8299 37.1879 66.0807 39.8378 66.2309C40.0047 66.2622 39.8534 66.1475 39.7699 66.1319Z" fill="white"/>
<path d="M43.4369 66.3852C42.9362 66.2915 42.4198 66.2813 41.9868 66.2867C41.9034 66.2711 41.9712 66.3701 42.0547 66.3858C42.5555 66.4794 43.0562 66.5731 43.557 66.6668C43.823 66.6302 43.6039 66.4164 43.4369 66.3852Z" fill="white"/>
<path d="M53.1525 48.1622C54.3119 51.6617 54.9392 55.2345 55.118 58.8961C55.1024 58.9796 55.4362 59.042 55.3684 58.943C55.3043 55.13 54.6613 51.6407 53.1525 48.1622C53.2516 48.0944 53.1681 48.0787 53.1525 48.1622Z" fill="white"/>
<path d="M55.1865 60.377C55.1504 61.4932 55.13 62.526 55.1774 63.6579C55.1617 63.7413 55.4121 63.7882 55.4277 63.7047C55.4638 62.5885 55.3173 61.5244 55.1865 60.377C55.27 60.3926 55.1865 60.377 55.1865 60.377Z" fill="white"/>
<path d="M54.7503 65.4786C54.6723 65.8959 54.6098 66.2298 54.6308 66.5793C54.5996 66.7462 55.1838 66.8555 55.1316 66.6729C55.1262 66.24 55.0217 65.8749 54.9173 65.5098C54.9329 65.4264 54.766 65.3951 54.7503 65.4786Z" fill="white"/>
<path d="M64.7524 59.5752C65.1762 62.8507 65.3496 66.0794 65.5074 69.3915C65.4918 69.475 65.6587 69.5062 65.6743 69.4228C65.7825 66.074 65.4422 62.8141 64.7524 59.5752Z" fill="white"/>
<path d="M31.4257 43.3204C31.4257 43.3204 31.3266 43.3883 31.4257 43.3204C33.8467 45.1555 36.0695 47.1263 38.2767 49.1806C38.3446 49.2797 38.6106 49.243 38.4593 49.1283C36.4502 46.9384 34.0448 45.0198 31.4257 43.3204Z" fill="white"/>
<path d="M38.5035 41.9669C38.5035 41.9669 38.42 41.9513 38.5035 41.9669C39.3806 44.2042 39.7571 46.3479 40.2692 48.6897C40.2535 48.7732 40.5039 48.82 40.5195 48.7366C40.6073 46.4206 39.6779 44.0007 38.5035 41.9669Z" fill="white"/>
<path d="M29.5551 48.2388C29.1011 47.8947 28.6316 47.6341 28.1776 47.29L28.0942 47.2744C28.5481 47.6185 28.9342 47.8635 29.3881 48.2076C29.5394 48.3223 29.7064 48.3535 29.5551 48.2388Z" fill="white"/>
<path d="M76.7748 58.1104C77.2864 59.0699 77.7979 60.0295 78.3251 60.9056L78.492 60.9368C77.9805 59.9772 77.3699 59.0855 76.7748 58.1104Z" fill="white"/>
<path d="M80.0058 63.4668L79.8388 63.4355C80.0424 63.7328 80.3138 64.1291 80.5173 64.4263C80.5852 64.5254 80.7677 64.4732 80.7833 64.3897C80.4963 64.0769 80.2093 63.764 80.0058 63.4668Z" fill="white"/>
<path d="M99.6795 59.8906C99.6289 63.8549 100.262 67.8606 101.807 71.6051C101.791 71.6885 102.042 71.7354 102.057 71.6519C100.794 67.7873 99.9471 64.0008 99.6795 59.8906Z" fill="white"/>
<path d="M129.356 65.183C127.234 67.2912 124.856 68.9195 122.447 70.7148C125.179 69.4984 127.453 67.5049 129.523 65.2143C129.622 65.1464 129.455 65.1152 129.356 65.183Z" fill="white"/>
<path d="M119.276 34.0997C117.072 38.9567 115.822 44.2515 116.189 49.6761C116.174 49.7596 116.424 49.8064 116.44 49.7229C116.672 44.3242 117.374 39.1861 119.276 34.0997C119.36 34.1153 119.276 34.0997 119.276 34.0997Z" fill="white"/>
<path d="M121.273 31.2773C121.257 31.3608 121.226 31.5277 121.127 31.5956C121.111 31.679 121.362 31.7259 121.377 31.6424L121.523 31.3242C121.523 31.3242 121.372 31.2095 121.273 31.2773Z" fill="white"/>
<path d="M129.764 28.3739C129.373 29.0783 128.982 29.7826 128.591 30.4869C128.56 30.6538 129.045 30.831 129.092 30.5806C129.399 29.8607 129.706 29.1407 130.014 28.4208C130.014 28.4208 129.847 28.3896 129.764 28.3739Z" fill="white"/>
</g>
</svg>
