<svg width="32" height="52" viewBox="0 0 32 52" fill="none" xmlns="http://www.w3.org/2000/svg">
<path d="M19.5435 40.5949V36.8763H11.9358V40.5949C11.9358 41.3197 11.503 41.9747 10.8361 42.2588L3.97778 45.1811C2.57296 45.7794 1.66167 47.1588 1.66167 48.6854V51.2384H29.8176V48.6854C29.8176 47.1588 28.9063 45.7794 27.5015 45.1811L20.6432 42.2588C19.9763 41.9747 19.5435 41.3197 19.5435 40.5949Z" fill="#FFBF9E"/>
<path d="M29.8176 48.6857V51.2383H27.8391V49.5256C27.8391 47.9994 26.9278 47.0087 25.5237 46.4101C24.2209 45.855 22.918 45.3 21.6152 44.745C20.0743 44.0884 17.5649 43.4862 17.5649 41.4347C17.5649 41.4287 17.5649 36.8759 17.5649 36.8759H19.5434V40.5948C19.5434 41.3196 19.9763 41.9742 20.6432 42.2595L27.501 45.181C28.9063 45.7797 29.8176 47.1595 29.8176 48.6857Z" fill="#FFBF9E"/>
<path d="M24.4074 14.0465C20.4762 10.3272 15.7408 10.4918 15.7408 10.4918C15.7408 10.4918 11.0059 10.3272 7.07426 14.0465C4.14203 16.8204 2.7142 20.8707 3.06768 24.9431C3.46283 29.4995 5.32627 36.4911 12.7253 39.442C14.6641 40.2152 16.8175 40.2152 18.7568 39.442C26.1554 36.4911 28.0188 29.4995 28.414 24.9431C28.7674 20.8707 27.3396 16.8204 24.4074 14.0465Z" fill="#FFBF9E"/>
<path d="M28.4139 24.9436C28.0188 29.5004 26.1557 36.4916 18.7571 39.4425C17.0361 40.1288 15.1473 40.205 13.389 39.6738C14.5355 39.7277 15.69 39.5373 16.7774 39.1033C24.1761 36.1528 26.0407 29.1612 26.4358 24.6048C26.7889 20.5316 25.3615 16.4809 22.4289 13.7074C20.4567 11.8412 18.2807 10.9533 16.6037 10.5304C18.1481 10.67 21.4993 11.2953 24.4085 14.0474C27.3396 16.8213 28.7674 20.8716 28.4139 24.9436Z" fill="#FFBF9E"/>
<path d="M2.07864 14.5202C1.24233 15.6461 1.03921 18.4713 0.995566 19.3175C0.929709 20.5997 1.01302 21.9046 1.27962 23.1594C1.53234 24.3504 2.05404 25.3121 2.70666 26.2166C2.98318 26.5999 3.56241 26.486 3.68698 26.025C4.29318 23.7851 4.99897 21.7467 6.55811 19.8789C7.89985 18.2721 9.62126 17.0621 11.5256 16.2801C12.8657 15.7299 15.2215 14.79 15.6123 13.0987C16.3486 9.91221 12.0822 8.32966 9.80892 8.59785C8.29619 8.77637 6.80409 9.23896 5.53931 10.1038C4.21225 11.0115 3.99841 11.6642 4.01746 13.4796C4.02261 13.9787 3.63858 14.2647 3.16607 14.1041C2.71856 13.9521 2.3623 14.1386 2.07864 14.5202Z" fill="#BA87D8"/>
<path d="M15.6127 13.0988C15.2215 14.7901 12.8653 15.7299 11.5256 16.2798C11.2526 16.3917 10.9848 16.5119 10.7198 16.642C9.17215 15.4998 7.87207 14.0224 6.94332 12.3359C6.69378 11.8821 6.46883 11.4084 6.35259 10.9033C6.26333 10.5114 6.23952 10.1031 6.19707 9.70083C7.30673 9.09106 8.55087 8.7467 9.80851 8.59793C12.0822 8.32934 16.349 9.91189 15.6127 13.0988Z" fill="#BA87D8"/>
<path d="M27.2856 9.27474C27.2158 9.53459 27.2559 9.81151 27.3947 10.0416C28.7869 12.353 30.1762 14.2148 30.4682 18.1908C30.4682 18.1908 30.8824 24.6107 28.915 26.371C28.915 26.371 28.0549 27.1942 27.8708 26.371C27.8708 26.371 27.2583 20.1582 17.5249 16.5341C17.5249 16.5341 7.4805 12.8068 8.51596 6.90388C8.51596 6.90388 8.90158 2.62832 13.8274 1.15685C16.7993 0.269368 20.01 0.888663 22.5189 2.71203C24.059 3.83121 25.8368 5.50065 27.3277 7.91038C27.4713 8.14247 27.513 8.42415 27.4427 8.68758L27.2856 9.27474Z" fill="#BA87D8"/>
<path d="M28.915 26.3714C28.915 26.3714 28.2703 26.9875 27.9791 26.6202C29.0392 24.1224 28.7488 19.6207 28.7488 19.6207C28.4568 15.6454 27.0678 13.7832 25.6757 11.4714C25.5372 11.2413 25.4968 10.9644 25.567 10.705L25.7237 10.1174C25.7939 9.85358 25.7523 9.5727 25.6087 9.34061C24.1177 6.93048 22.34 5.26144 20.8007 4.14226C18.2906 2.31889 15.0802 1.6996 12.1087 2.58748C11.345 2.8156 10.6912 3.11077 10.1302 3.44719C10.9193 2.54186 12.0913 1.6754 13.8278 1.15687C16.7997 0.26899 20.0104 0.888285 22.5193 2.71166C24.059 3.83083 25.8368 5.50067 27.3273 7.91001C27.4709 8.14209 27.5126 8.42417 27.4423 8.68799L27.2856 9.27555C27.2162 9.53501 27.2563 9.81113 27.3947 10.042C28.7865 12.3526 30.1754 14.2148 30.4686 18.1913C30.4686 18.1913 30.882 24.6111 28.915 26.3714Z" fill="#BA87D8"/>
<path d="M13.7615 26.1365C13.341 26.1365 12.9998 26.4773 12.9998 26.8982C12.9998 27.3334 12.6459 27.6873 12.2103 27.6873C11.7751 27.6873 11.4212 27.3334 11.4212 26.8982C11.4212 26.4773 11.08 26.1365 10.6595 26.1365C10.2385 26.1365 9.89776 26.4773 9.89776 26.8982C9.89776 28.1733 10.9352 29.2107 12.2103 29.2107C13.4858 29.2107 14.5232 28.1733 14.5232 26.8982C14.5232 26.4773 14.1824 26.1365 13.7615 26.1365Z" fill="black"/>
<path d="M19.2713 29.2111C20.5464 29.2111 21.5842 28.1733 21.5842 26.8982C21.5842 26.4773 21.243 26.1365 20.8225 26.1365C20.4016 26.1365 20.0608 26.4773 20.0608 26.8982C20.0608 27.3334 19.7065 27.6877 19.2713 27.6877C18.8357 27.6877 18.4818 27.3334 18.4818 26.8982C18.4818 26.4773 18.1406 26.1365 17.7201 26.1365C17.2991 26.1365 16.9583 26.4773 16.9583 26.8982C16.9583 28.1733 17.9958 29.2111 19.2713 29.2111Z" fill="black"/>
<path d="M27.8002 44.4804L20.9415 41.5581C20.5547 41.3931 20.3048 41.015 20.3048 40.5948V39.5824C23.1445 38.1641 25.3535 36.0071 26.8829 33.1546C27.8105 31.4241 28.4726 29.4726 28.8622 27.3318C29.128 27.1997 29.3351 27.0224 29.4323 26.9303C31.6028 24.9701 31.2731 18.8355 31.2279 18.1348C31.1791 17.4687 31.0974 16.8272 30.9847 16.2286C30.9073 15.8148 30.5094 15.543 30.0956 15.62C29.6822 15.6977 29.4101 16.0957 29.4874 16.509C29.5894 17.0526 29.664 17.6369 29.708 18.2396C29.8544 20.5069 29.6525 24.45 28.5174 25.6937C28.0997 23.9616 26.1894 18.9469 17.7899 15.8195C17.7657 15.8108 15.3207 14.892 13.0466 13.2928C10.1652 11.2659 8.89326 9.16044 9.26618 7.03516C9.26936 7.01691 9.27253 6.9943 9.27412 6.97565C9.28761 6.84314 9.59547 4.1438 12.4317 2.56165C13.4541 4.09818 15.2112 4.95829 16.9429 5.70572C18.7825 6.49997 20.3655 7.27042 21.1034 8.65858C21.2402 8.91645 21.5041 9.06324 21.7766 9.06324C21.8972 9.06324 22.0194 9.03428 22.1337 8.97398C22.505 8.7764 22.6463 8.31501 22.4487 7.94367C21.4001 5.97034 19.1729 5.00907 17.5471 4.30725C16.0744 3.6717 14.6895 3.004 13.8663 1.94473C13.9262 1.9253 13.9841 1.90506 14.0456 1.88681C16.7275 1.08542 19.7275 1.62457 22.0714 3.32773C23.911 4.6651 25.4614 6.34168 26.6798 8.31104C26.7131 8.3646 26.7226 8.43006 26.7068 8.49076L26.5497 9.07792C26.4275 9.53455 26.4977 10.0289 26.7421 10.4343C26.8857 10.6732 27.0293 10.9064 27.1717 11.1385C27.6316 11.8868 28.066 12.5941 28.446 13.3701C28.6313 13.7478 29.0875 13.9041 29.4652 13.7192C29.8429 13.5344 29.9992 13.0781 29.8144 12.7001C29.4022 11.8586 28.9491 11.1215 28.4698 10.3407C28.3294 10.113 28.1882 9.88288 28.0469 9.64841C28.0148 9.59525 28.0057 9.53059 28.0215 9.47147L28.1782 8.88431C28.3024 8.41974 28.2286 7.91907 27.9755 7.50925C26.6524 5.37088 24.9675 3.5495 22.9668 2.09549C20.2417 0.114625 16.7433 -0.509032 13.6096 0.426851C8.43742 1.97171 7.81415 6.32303 7.76099 6.79911C7.6753 7.30137 7.65824 7.78736 7.6995 8.25748C6.74418 8.54511 5.87653 8.95057 5.10926 9.47504C3.70047 10.4387 3.31882 11.2591 3.26288 12.8191C3.26249 12.8242 3.26169 12.8298 3.26169 12.8353C3.26169 12.8401 3.2613 12.8504 3.2613 12.8635C3.25653 13.0143 3.25455 13.1718 3.25495 13.3368C2.5821 13.173 1.93741 13.4328 1.46729 14.066C1.08048 14.5869 0.406038 15.9564 0.235048 19.2782C0.162844 20.683 0.263613 22.0418 0.534579 23.3177C0.778963 24.4682 1.27289 25.5311 2.08936 26.6625C2.21949 26.8422 2.38651 26.9811 2.57416 27.0743C2.957 29.3162 3.63422 31.355 4.59867 33.1546C6.12766 36.0063 8.33585 38.1625 11.1744 39.5808V40.5948C11.1744 41.015 10.9245 41.3931 10.5377 41.5581L10.3984 41.6172C10.0112 41.7822 9.83112 42.2294 9.99577 42.6166C10.1608 43.0038 10.6083 43.1839 10.9951 43.0189L11.1348 42.9597C12.0841 42.5551 12.6979 41.6267 12.6979 40.5948V40.2441C13.6842 40.6036 14.7125 40.7857 15.7412 40.7857C16.7687 40.7857 17.7959 40.604 18.7817 40.2449V40.5948C18.7817 41.6267 19.3951 42.5551 20.3444 42.9597L27.2031 45.882C28.3286 46.3613 29.0562 47.4618 29.0562 48.6857V50.4766H2.4234V48.6857C2.4234 47.4618 3.15061 46.3613 4.27613 45.882L7.79114 44.3844C8.17796 44.2194 8.35807 43.7718 8.19303 43.385C8.02799 42.9978 7.58088 42.8177 7.19367 42.9827L3.67905 44.4804C1.99057 45.1997 0.899966 46.8505 0.899966 48.6857V51.2383C0.899966 51.6592 1.24076 52 1.66168 52H29.8175C30.2385 52 30.5792 51.6592 30.5792 51.2383V48.6857C30.5792 46.8505 29.4882 45.1997 27.8002 44.4804ZM2.02469 23.0015C1.7811 21.8554 1.69104 20.6291 1.7565 19.3568C1.86124 17.3172 2.22782 15.597 2.6904 14.9745C2.78641 14.8452 2.83561 14.815 2.87528 14.815C2.89115 14.815 2.90583 14.8202 2.9213 14.8253C3.04984 14.869 3.17957 14.894 3.30732 14.9043C3.35611 15.8291 3.45371 16.8883 3.64811 17.6881C3.73261 18.0364 4.04404 18.2701 4.38761 18.2701C4.44672 18.2701 4.50742 18.263 4.56772 18.2483C4.97675 18.1491 5.22748 17.7373 5.1283 17.3283C4.75022 15.7711 4.78434 12.8849 4.78473 12.856C4.78513 12.8516 4.78434 12.8468 4.78434 12.8425C4.82361 11.7027 5.06601 11.3504 5.96937 10.7327C6.57914 10.3157 7.27103 9.98722 8.03593 9.7472C8.82462 11.9118 10.798 13.6574 12.7201 14.9186C12.2087 15.1756 11.6993 15.3855 11.3062 15.547L11.2363 15.5755C9.16819 16.4249 7.348 17.7441 5.97333 19.3905C4.34754 21.338 3.60367 23.4875 3.06849 25.4009C2.52655 24.5821 2.20005 23.8275 2.02469 23.0015ZM18.4743 38.7342C16.7116 39.4372 14.77 39.4372 13.0073 38.7342C9.8942 37.4928 7.51661 35.3735 5.9416 32.4349C5.0553 30.7825 4.43204 28.9009 4.07737 26.824C4.23844 26.6625 4.35904 26.4582 4.42252 26.2241C5.06522 23.8505 5.74442 22.0426 7.14289 20.3672C8.35966 18.91 9.97514 17.7405 11.8152 16.9847L11.8846 16.9566C12.5551 16.6812 13.4279 16.3226 14.2297 15.8267C15.819 16.7038 17.1107 17.1926 17.2591 17.2478C19.8973 18.2301 23.4964 20.0522 25.6578 23.1527C26.9397 24.9915 27.1118 26.4356 27.113 26.4459C27.1158 26.4765 27.121 26.507 27.1277 26.5372C27.1785 26.7641 27.2634 26.9363 27.3618 27.0676C27.0004 29.0481 26.3914 30.8472 25.5404 32.4349C23.965 35.3735 21.5878 37.4928 18.4743 38.7342Z" fill="black"/>
<path d="M31.4767 36.7315L31.2446 33.8846C31.2239 33.6271 31.074 33.3982 30.8466 33.2756C30.6197 33.1534 30.346 33.1542 30.1194 33.2784L27.459 34.7363C27.0896 34.9383 26.9547 35.4013 27.1567 35.7702C27.359 36.1392 27.822 36.2745 28.1909 36.0721L28.5107 35.8972C27.2086 38.0653 25.5979 39.0456 25.5642 39.0658C25.202 39.2781 25.0798 39.7435 25.2912 40.1065C25.4329 40.3493 25.688 40.4849 25.9502 40.4849C26.0803 40.4849 26.2124 40.4512 26.3327 40.381C26.4334 40.3227 28.404 39.1484 29.929 36.495L29.9584 36.8553C29.9909 37.2536 30.3242 37.5551 30.7169 37.5551C30.7375 37.5551 30.7586 37.5543 30.7796 37.5527C31.1989 37.5186 31.5112 37.1508 31.4767 36.7315Z" fill="black"/>
<path d="M1.52084 36.8553L1.5502 36.495C3.07483 39.1488 5.04578 40.3227 5.14615 40.3814C5.26676 40.4512 5.39887 40.4849 5.529 40.4849C5.79124 40.4849 6.04633 40.3493 6.18797 40.1065C6.39942 39.7431 6.27644 39.2765 5.91303 39.0647C5.8928 39.0532 4.27573 38.0891 2.96454 35.8948L3.28827 36.0725C3.65723 36.2745 4.12021 36.1392 4.32254 35.7706C4.52448 35.4016 4.38959 34.9387 4.02063 34.7363L1.35977 33.2784C1.13363 33.1542 0.859886 33.1534 0.63256 33.2756C0.405234 33.3982 0.25527 33.6271 0.23464 33.8846L0.00255304 36.7319C-0.0315657 37.1508 0.280264 37.5186 0.699607 37.5527C0.721031 37.5543 0.741661 37.5555 0.762687 37.5555C1.15505 37.5555 1.48831 37.2536 1.52084 36.8553Z" fill="black"/>
</svg>
