<svg width="108" height="108" viewBox="0 0 108 108" fill="none" xmlns="http://www.w3.org/2000/svg">
<g filter="url(#filter0_d)">
<circle cx="54" cy="50" r="50" fill="white"/>
</g>
<path d="M66.0353 30.8924H69.0198C69.3039 30.8924 69.5763 30.7666 69.7772 30.5426C69.9781 30.3187 70.0909 30.0149 70.0909 29.6982V24.9338C70.0909 24.6171 69.9781 24.3133 69.7772 24.0894C69.5763 23.8654 69.3039 23.7396 69.0198 23.7396H66.9773C66.5814 23.7399 66.1898 23.6492 65.8267 23.4733C65.4636 23.2974 65.137 23.0399 64.8671 22.7171C64.5972 22.3942 64.3898 22.0128 64.2579 21.5967C64.1261 21.1805 64.0725 20.7385 64.1006 20.2983L64.2285 18.2777C64.2415 18.0661 64.2036 17.8545 64.1189 17.6645C64.0342 17.4746 63.9057 17.3132 63.7465 17.197C63.5874 17.0807 63.4033 17.0138 63.2133 17.0031C63.0233 16.9924 62.8341 17.0383 62.6653 17.1361C61.6119 17.7503 58.1409 18.3733 53.5455 18.3733C48.95 18.3733 45.4796 17.7509 44.4256 17.1361C44.2567 17.0376 44.0672 16.9911 43.8768 17.0014C43.6863 17.0118 43.5018 17.0786 43.3423 17.1951C43.1828 17.3115 43.0541 17.4733 42.9694 17.6637C42.8847 17.8542 42.8471 18.0664 42.8606 18.2784L42.9891 20.2983C43.017 20.7385 42.9633 21.1804 42.8314 21.5964C42.6994 22.0125 42.4921 22.3938 42.2222 22.7166C41.9523 23.0395 41.6257 23.2969 41.2628 23.4729C40.8998 23.6489 40.5082 23.7397 40.1124 23.7396H38.0711C37.787 23.7396 37.5146 23.8654 37.3137 24.0894C37.1129 24.3133 37 24.6171 37 24.9338V29.6982C37 30.0149 37.1129 30.3187 37.3137 30.5426C37.5146 30.7666 37.787 30.8924 38.0711 30.8924H41.0556C41.5024 30.8955 41.9424 31.0142 42.341 31.2392C42.7397 31.4642 43.086 31.7893 43.3527 32.1889L43.3423 32.1944C43.1827 32.3108 43.0539 32.4726 42.9692 32.6632C42.8845 32.8537 42.847 33.066 42.8606 33.278L42.9891 35.2979C43.017 35.7381 42.9633 36.18 42.8314 36.5961C42.6994 37.0121 42.4921 37.3934 42.2222 37.7162C41.9523 38.0391 41.6257 38.2965 41.2628 38.4725C40.8998 38.6485 40.5082 38.7393 40.1124 38.7392H38.0711C37.787 38.7392 37.5146 38.865 37.3137 39.089C37.1129 39.3129 37 39.6167 37 39.9334V44.6958C37 45.0125 37.1129 45.3162 37.3137 45.5402C37.5146 45.7642 37.787 45.89 38.0711 45.89H41.0556C41.5035 45.8897 41.9452 46.0062 42.3455 46.2301C42.7459 46.454 43.0937 46.7792 43.3612 47.1797C43.3551 47.1838 43.3484 47.1851 43.3423 47.1892C43.1826 47.3058 43.0538 47.4677 42.9691 47.6583C42.8844 47.849 42.8469 48.0614 42.8606 48.2736L42.9891 50.2934C43.017 50.7336 42.9633 51.1755 42.8314 51.5916C42.6994 52.0076 42.4921 52.3889 42.2222 52.7118C41.9523 53.0346 41.6257 53.292 41.2628 53.468C40.8998 53.644 40.5082 53.7348 40.1124 53.7347H38.0711C37.787 53.7347 37.5146 53.8605 37.3137 54.0845C37.1129 54.3084 37 54.6122 37 54.9289V59.6934C37 60.0101 37.1129 60.3138 37.3137 60.5378C37.5146 60.7617 37.787 60.8875 38.0711 60.8875H41.0556C41.5035 60.8871 41.9453 61.0035 42.3456 61.2275C42.746 61.4514 43.0938 61.7767 43.3612 62.1773C43.3557 62.1814 43.3484 62.1827 43.3423 62.1875C43.1827 62.3039 43.0539 62.4657 42.9692 62.6562C42.8845 62.8468 42.847 63.059 42.8606 63.2711L42.9891 65.291C43.017 65.7312 42.9633 66.1731 42.8314 66.5891C42.6994 67.0052 42.4921 67.3865 42.2222 67.7093C41.9523 68.0322 41.6257 68.2896 41.2628 68.4656C40.8998 68.6416 40.5082 68.7324 40.1124 68.7323H38.0711C37.9304 68.7322 37.7911 68.763 37.6611 68.823C37.5311 68.883 37.413 68.9709 37.3135 69.0819C37.2141 69.1928 37.1352 69.3244 37.0814 69.4694C37.0276 69.6143 36.9999 69.7696 37 69.9265V74.6909C37 75.0076 37.1129 75.3114 37.3137 75.5353C37.5146 75.7593 37.787 75.8851 38.0711 75.8851H41.0556C41.7784 75.8881 42.474 76.1925 43.0057 76.7384C43.5373 77.2843 43.8666 78.0322 43.9286 78.8351C44.021 81.6902 50.6736 82 53.5455 82C56.4173 82 63.0705 81.6902 63.1623 78.8351C63.2242 78.0322 63.5534 77.2841 64.0851 76.7382C64.6168 76.1923 65.3125 75.8879 66.0353 75.8851H69.0198C69.3039 75.8851 69.5763 75.7593 69.7772 75.5353C69.9781 75.3114 70.0909 75.0076 70.0909 74.6909V69.9265C70.091 69.7696 70.0633 69.6143 70.0095 69.4694C69.9557 69.3244 69.8768 69.1928 69.7774 69.0819C69.6779 68.9709 69.5598 68.883 69.4298 68.823C69.2998 68.763 69.1605 68.7322 69.0198 68.7323H66.9773C66.5814 68.7326 66.1897 68.6419 65.8265 68.4659C65.4634 68.29 65.1367 68.0325 64.8668 67.7095C64.5969 67.3866 64.3896 67.0051 64.2578 66.5889C64.1259 66.1727 64.0724 65.7306 64.1006 65.2903L64.2285 63.2704C64.2418 63.0583 64.204 62.8461 64.1193 62.6556C64.0345 62.4652 63.9057 62.3033 63.7462 62.1868C63.7401 62.1827 63.7333 62.1814 63.7278 62.1773C63.9953 61.7767 64.3431 61.4514 64.7434 61.2275C65.1438 61.0035 65.5856 60.8871 66.0335 60.8875H69.018C69.302 60.8875 69.5745 60.7617 69.7753 60.5378C69.9762 60.3138 70.0891 60.0101 70.0891 59.6934V54.9289C70.0891 54.6122 69.9762 54.3084 69.7753 54.0845C69.5745 53.8605 69.302 53.7347 69.018 53.7347H66.9773C66.5814 53.735 66.1898 53.6443 65.8267 53.4684C65.4636 53.2925 65.137 53.0351 64.8671 52.7122C64.5972 52.3893 64.3898 52.0079 64.2579 51.5918C64.1261 51.1756 64.0725 50.7337 64.1006 50.2934L64.2285 48.2729C64.2418 48.0608 64.2041 47.8485 64.1194 47.658C64.0346 47.4675 63.9058 47.3057 63.7462 47.1892C63.7401 47.1851 63.7333 47.1838 63.7278 47.1797C63.9954 46.7792 64.3432 46.454 64.7435 46.2301C65.1439 46.0062 65.5856 45.8897 66.0335 45.89H69.018C69.302 45.89 69.5745 45.7642 69.7753 45.5402C69.9762 45.3162 70.0891 45.0125 70.0891 44.6958V39.9313C70.0891 39.6146 69.9762 39.3109 69.7753 39.0869C69.5745 38.863 69.302 38.7372 69.018 38.7372H66.9773C66.5814 38.7374 66.1898 38.6468 65.8267 38.4708C65.4636 38.2949 65.137 38.0375 64.8671 37.7146C64.5972 37.3918 64.3898 37.0104 64.2579 36.5942C64.1261 36.1781 64.0725 35.7361 64.1006 35.2959L64.2285 33.2753C64.2418 33.0633 64.2041 32.8512 64.1193 32.6608C64.0345 32.4704 63.9057 32.3087 63.7462 32.1924C63.7419 32.1889 63.737 32.1883 63.7327 32.1849C63.9996 31.7842 64.3468 31.4587 64.7466 31.2342C65.1464 31.0098 65.5877 30.8928 66.0353 30.8924ZM41.0556 28.504H39.1422V26.128H40.1136C40.8035 26.128 41.486 25.9697 42.1185 25.6628C42.7511 25.356 43.3203 24.9072 43.7905 24.3444C44.2607 23.7816 44.6219 23.1169 44.8517 22.3917C45.0814 21.6665 45.1747 20.8963 45.1258 20.1291L45.1111 19.8964C47.8858 20.5273 50.7141 20.8175 53.5455 20.7616C56.3768 20.8175 59.2051 20.5273 61.9798 19.8964L61.9657 20.1291C61.9166 20.8962 62.0098 21.6665 62.2394 22.3918C62.469 23.117 62.8302 23.7818 63.3004 24.3446C63.7706 24.9074 64.3397 25.3562 64.9723 25.663C65.6049 25.9699 66.2874 26.1281 66.9773 26.128H67.9487V28.504H66.0353C64.93 28.503 63.8553 28.9087 62.978 29.6583C62.1007 30.4079 61.4699 31.4594 61.1835 32.6496C58.6653 33.1725 56.1066 33.4141 53.5455 33.3708C50.9828 33.414 48.4227 33.1722 45.9032 32.6489C45.6128 31.4621 44.9815 30.4141 44.106 29.6655C43.2305 28.9169 42.1589 28.5089 41.0556 28.504ZM66.9773 71.1207H67.9487V73.4967H66.0353C64.8059 73.5017 63.6205 74.0069 62.7016 74.9175C61.7827 75.8281 61.1937 77.0814 61.0451 78.442C60.4025 78.8924 57.8097 79.6116 53.5455 79.6116C49.2812 79.6116 46.6903 78.8924 46.0458 78.442C45.897 77.0815 45.3079 75.8284 44.3891 74.9178C43.4702 74.0073 42.2849 73.502 41.0556 73.4967H39.1422V71.1207H40.1136C40.8034 71.1206 41.4859 70.9622 42.1184 70.6553C42.751 70.3485 43.3201 69.8997 43.7903 69.3369C44.2605 68.7741 44.6217 68.1095 44.8515 67.3843C45.0813 66.6591 45.1746 65.8889 45.1258 65.1218L45.1154 64.9607C45.1707 64.9549 45.2256 64.9444 45.2795 64.9293C48.0011 65.5275 50.7718 65.804 53.5455 65.7543C56.3198 65.8042 59.0911 65.5275 61.8133 64.9286C61.8665 64.9442 61.9207 64.9552 61.9755 64.9614L61.9657 65.1218C61.9167 65.8889 62.0099 66.6591 62.2396 67.3843C62.4693 68.1096 62.8304 68.7743 63.3006 69.3371C63.7708 69.8999 64.3399 70.3487 64.9724 70.6555C65.605 70.9624 66.2875 71.1207 66.9773 71.1207ZM66.9773 56.1231H67.9487V58.4992H66.0353C64.9307 58.498 63.8567 58.9036 62.9802 59.653C62.1037 60.4024 61.4738 61.4537 61.1884 62.6433C58.6687 63.1673 56.1083 63.4094 53.5455 63.366C50.9828 63.4092 48.4227 63.1673 45.9032 62.644C45.618 61.454 44.9881 60.4024 44.1114 59.6528C43.2347 58.9032 42.1604 58.4976 41.0556 58.4992H39.1422V56.1231H40.1136C40.8034 56.1232 41.4859 55.965 42.1185 55.6582C42.7511 55.3515 43.3202 54.9027 43.7905 54.34C44.2607 53.7773 44.6219 53.1126 44.8517 52.3874C45.0814 51.6622 45.1747 50.892 45.1258 50.1249L45.1154 49.9632C45.1705 49.9573 45.2252 49.9468 45.2788 49.9318C48.0007 50.53 50.7716 50.8065 53.5455 50.7568C56.3198 50.8067 59.0911 50.5299 61.8133 49.9311C61.8665 49.9466 61.9207 49.9576 61.9755 49.9638L61.9657 50.1249C61.9167 50.892 62.0099 51.6622 62.2396 52.3874C62.4693 53.1125 62.8305 53.7772 63.3006 54.34C63.7708 54.9027 64.3399 55.3515 64.9725 55.6582C65.605 55.965 66.2875 56.1233 66.9773 56.1231ZM66.9773 41.1255H67.9487V43.5016H66.0353C64.9306 43.5003 63.8565 43.906 62.98 44.6556C62.1034 45.4051 61.4736 46.4566 61.1884 47.6464C58.6686 48.1698 56.1083 48.4116 53.5455 48.3684C50.9828 48.4116 48.4227 48.1697 45.9032 47.6464C45.6178 46.4565 44.9879 45.4051 44.1112 44.6555C43.2346 43.9059 42.1603 43.5003 41.0556 43.5016H39.1422V41.1255H40.1136C40.8034 41.1257 41.4859 40.9674 42.1185 40.6607C42.7511 40.3539 43.3202 39.9052 43.7905 39.3424C44.2607 38.7797 44.6219 38.115 44.8517 37.3898C45.0814 36.6646 45.1747 35.8945 45.1258 35.1273L45.1111 34.8967C47.8859 35.5267 50.7142 35.8159 53.5455 35.7592C56.3767 35.816 59.205 35.5267 61.9798 34.8967L61.9657 35.13C61.9167 35.8972 62.0099 36.6673 62.2396 37.3925C62.4693 38.1177 62.8305 38.7824 63.3006 39.3451C63.7708 39.9079 64.3399 40.3566 64.9725 40.6634C65.605 40.9702 66.2875 41.1284 66.9773 41.1283V41.1255Z" fill="#FF6E76"/>
<path d="M50.3321 30.6713H52.5509C52.8349 30.6713 53.1074 30.5454 53.3083 30.3215C53.5091 30.0975 53.622 29.7938 53.622 29.4771C53.622 29.1604 53.5091 28.8566 53.3083 28.6327C53.1074 28.4087 52.8349 28.2829 52.5509 28.2829H50.3321C50.0277 28.2829 49.7358 28.1481 49.5206 27.9081C49.3054 27.6682 49.1845 27.3428 49.1845 27.0034C49.1845 26.6641 49.3054 26.3386 49.5206 26.0987C49.7358 25.8587 50.0277 25.7239 50.3321 25.7239H52.5509C52.8349 25.7239 53.1074 25.5981 53.3083 25.3742C53.5091 25.1502 53.622 24.8465 53.622 24.5298C53.622 24.213 53.5091 23.9093 53.3083 23.6853C53.1074 23.4614 52.8349 23.3356 52.5509 23.3356H50.3321C49.4596 23.3356 48.6228 23.722 48.0058 24.4099C47.3888 25.0977 47.0422 26.0306 47.0422 27.0034C47.0422 27.9762 47.3888 28.9091 48.0058 29.597C48.6228 30.2848 49.4596 30.6713 50.3321 30.6713Z" fill="#FF6E76"/>
<path d="M50.3321 40.7217H52.5509C52.8349 40.7217 53.1074 40.5959 53.3083 40.372C53.5091 40.148 53.622 39.8443 53.622 39.5276C53.622 39.2108 53.5091 38.9071 53.3083 38.6831C53.1074 38.4592 52.8349 38.3334 52.5509 38.3334H50.3321C49.4596 38.3334 48.6228 38.7198 48.0058 39.4077C47.3888 40.0955 47.0422 41.0284 47.0422 42.0012C47.0422 42.974 47.3888 43.9069 48.0058 44.5948C48.6228 45.2826 49.4596 45.6691 50.3321 45.6691H52.5509C52.8349 45.6691 53.1074 45.5432 53.3083 45.3193C53.5091 45.0953 53.622 44.7916 53.622 44.4749C53.622 44.1582 53.5091 43.8544 53.3083 43.6305C53.1074 43.4065 52.8349 43.2807 52.5509 43.2807H50.3321C50.0277 43.2807 49.7358 43.1459 49.5206 42.9059C49.3054 42.666 49.1845 42.3406 49.1845 42.0012C49.1845 41.6619 49.3054 41.3364 49.5206 41.0965C49.7358 40.8565 50.0277 40.7217 50.3321 40.7217Z" fill="#FF6E76"/>
<path d="M50.3321 55.7191H52.5509C52.8349 55.7191 53.1074 55.5932 53.3083 55.3693C53.5091 55.1453 53.622 54.8416 53.622 54.5249C53.622 54.2082 53.5091 53.9044 53.3083 53.6805C53.1074 53.4565 52.8349 53.3307 52.5509 53.3307H50.3321C49.4596 53.3307 48.6228 53.7171 48.0058 54.405C47.3888 55.0928 47.0422 56.0258 47.0422 56.9985C47.0422 57.9713 47.3888 58.9042 48.0058 59.5921C48.6228 60.2799 49.4596 60.6664 50.3321 60.6664H52.5509C52.8349 60.6664 53.1074 60.5406 53.3083 60.3166C53.5091 60.0927 53.622 59.7889 53.622 59.4722C53.622 59.1555 53.5091 58.8517 53.3083 58.6278C53.1074 58.4038 52.8349 58.278 52.5509 58.278H50.3321C50.0277 58.278 49.7358 58.1432 49.5206 57.9033C49.3054 57.6633 49.1845 57.3379 49.1845 56.9985C49.1845 56.6592 49.3054 56.3338 49.5206 56.0938C49.7358 55.8539 50.0277 55.7191 50.3321 55.7191Z" fill="#FF6E76"/>
<path d="M50.3321 70.7166H52.5509C52.8349 70.7166 53.1074 70.5908 53.3083 70.3668C53.5091 70.1429 53.622 69.8391 53.622 69.5224C53.622 69.2057 53.5091 68.902 53.3083 68.678C53.1074 68.4541 52.8349 68.3282 52.5509 68.3282H50.3321C49.4596 68.3282 48.6228 68.7147 48.0058 69.4025C47.3888 70.0904 47.0422 71.0233 47.0422 71.9961C47.0422 72.9689 47.3888 73.9018 48.0058 74.5897C48.6228 75.2775 49.4596 75.6639 50.3321 75.6639H52.5509C52.8349 75.6639 53.1074 75.5381 53.3083 75.3142C53.5091 75.0902 53.622 74.7865 53.622 74.4698C53.622 74.153 53.5091 73.8493 53.3083 73.6253C53.1074 73.4014 52.8349 73.2756 52.5509 73.2756H50.3321C50.0277 73.2756 49.7358 73.1408 49.5206 72.9008C49.3054 72.6609 49.1845 72.3354 49.1845 71.9961C49.1845 71.6568 49.3054 71.3313 49.5206 71.0914C49.7358 70.8514 50.0277 70.7166 50.3321 70.7166Z" fill="#FF6E76"/>
<defs>
<filter id="filter0_d" x="0" y="0" width="108" height="108" filterUnits="userSpaceOnUse" color-interpolation-filters="sRGB">
<feFlood flood-opacity="0" result="BackgroundImageFix"/>
<feColorMatrix in="SourceAlpha" type="matrix" values="0 0 0 0 0 0 0 0 0 0 0 0 0 0 0 0 0 0 127 0"/>
<feOffset dy="4"/>
<feGaussianBlur stdDeviation="2"/>
<feColorMatrix type="matrix" values="0 0 0 0 0 0 0 0 0 0 0 0 0 0 0 0 0 0 0.25 0"/>
<feBlend mode="normal" in2="BackgroundImageFix" result="effect1_dropShadow"/>
<feBlend mode="normal" in="SourceGraphic" in2="effect1_dropShadow" result="shape"/>
</filter>
</defs>
</svg>
