<svg width="480" height="155" viewBox="0 0 480 155" fill="none" xmlns="http://www.w3.org/2000/svg">
<ellipse cx="240.5" cy="96" rx="246.5" ry="59" fill="#191512"/>
<g clip-path="url(#clip0)">
<path d="M240.461 85.9331C240.569 85.8893 240.665 85.8245 240.746 85.7423L254.744 71.7443C255.085 71.403 255.085 70.8482 254.744 70.507C254.403 70.1657 253.848 70.1657 253.507 70.507L241.001 83.0124L241.001 44.875C241.001 44.392 240.609 44 240.126 44C239.643 44 239.251 44.392 239.251 44.875L239.251 83.0124L226.746 70.507C226.405 70.1657 225.85 70.1657 225.509 70.507C225.337 70.6785 225.253 70.9025 225.253 71.1265C225.253 71.3505 225.339 71.5745 225.509 71.746L239.507 85.7441C239.587 85.8228 239.685 85.8875 239.792 85.9331C240.006 86.0223 240.247 86.0223 240.461 85.9331Z" fill="#3D3A37"/>
</g>
<g filter="url(#filter0_d)">
<circle cx="240" cy="65" r="39" stroke="#3D3A37" stroke-width="2"/>
<circle cx="240" cy="65" r="39" stroke="url(#paint0_linear)" stroke-width="2"/>
</g>
<defs>
<filter id="filter0_d" x="170" y="0" width="140" height="140" filterUnits="userSpaceOnUse" color-interpolation-filters="sRGB">
<feFlood flood-opacity="0" result="BackgroundImageFix"/>
<feColorMatrix in="SourceAlpha" type="matrix" values="0 0 0 0 0 0 0 0 0 0 0 0 0 0 0 0 0 0 127 0"/>
<feOffset dy="5"/>
<feGaussianBlur stdDeviation="15"/>
<feColorMatrix type="matrix" values="0 0 0 0 0.45 0 0 0 0 0.45 0 0 0 0 0.45 0 0 0 0.5 0"/>
<feBlend mode="normal" in2="BackgroundImageFix" result="effect1_dropShadow"/>
<feBlend mode="normal" in="SourceGraphic" in2="effect1_dropShadow" result="shape"/>
</filter>
<linearGradient id="paint0_linear" x1="240" y1="25" x2="240" y2="105" gradientUnits="userSpaceOnUse">
<stop stop-color="#3D3A37"/>
<stop offset="1" stop-color="#181411"/>
</linearGradient>
<clipPath id="clip0">
<rect width="42" height="42" fill="white" transform="translate(261 44) rotate(90)"/>
</clipPath>
</defs>
</svg>
