<svg width="168" height="284" viewBox="0 0 168 284" fill="none" xmlns="http://www.w3.org/2000/svg">
<g clip-path="url(#clip0)">
<path d="M15.177 92.5944C15.0737 92.3278 14.9704 92.0613 14.8671 91.7947C14.5571 90.995 15.4157 90.0489 15.992 90.7454C17.1445 92.1385 18.5634 93.4282 19.9823 94.718C41.6277 104.726 64.6779 97.0184 87.7511 97.2742C97.6164 97.4367 105.542 100.497 112.282 105.244C103.328 93.9964 95.6623 81.3301 90.3334 68.3712C89.9201 67.3049 91.2517 66.7888 91.8279 67.4853C104.304 76.7543 116.096 90.5812 121.985 105.776C125.116 110.694 127.715 115.82 129.782 121.151L129.885 121.418C129.988 121.684 130.092 121.951 130.092 121.951C130.298 122.484 130.402 122.75 130.608 123.284C136.947 130.945 142.857 139.08 150.218 145.425L150.321 145.692C152.908 146.835 155.496 147.979 158.024 149.759C158.393 149.922 158.334 150.558 158.171 150.928C162.28 153.628 166.123 156.431 170.07 159.501C162.861 148.804 154.276 137.72 146.92 125.853C134.036 109.997 123.059 94.3213 124.615 72.2549C126.084 48.3826 140.077 29.1615 144.622 5.32332C144.845 4.31716 146.486 4.60079 146.53 5.50373C144.886 25.7642 132.257 41.3907 128.233 61.0408C124.937 77.0362 126.108 91.9131 134.231 106.549C136.417 110.607 139.401 114.356 142.12 118.209C135.932 106.196 132.141 93.2541 133.291 79.6238C133.649 75.8056 134.377 72.1508 135.371 68.3927C133.587 61.4187 135.102 53.4726 137.134 46.8595C137.193 46.2231 138.199 46.4466 138.139 47.083C136.982 51.2108 136.624 55.029 136.473 59.3804C136.56 61.1862 136.647 62.9921 136.735 64.798C142.579 43.5224 153.969 24.697 145.823 2.0984C145.616 1.56526 145.882 1.46204 146.415 1.2556C146.208 0.722452 146.904 0.146221 147.111 0.679369C157.936 20.7065 157.608 41.9902 154.514 64.0396C151.002 90.5435 147.951 113.496 157.56 138.287C162.833 146.361 168.004 154.169 173.011 162.347C174.696 163.534 176.218 165.09 177.904 166.276C169.145 151.581 167.092 129.687 171.481 115.721C171.807 114.981 172.709 114.938 173.019 115.738C178.952 131.835 178.819 149.671 184.752 165.768C185.948 168.064 187.248 170.627 188.547 173.189C188.651 173.456 188.488 173.826 188.488 173.826C188.798 174.625 189.271 175.055 189.581 175.855C189.684 176.122 189.684 176.122 189.521 176.492C192.625 178.968 195.566 181.814 198.404 184.394L198.773 184.557C199.143 184.72 199.143 184.72 198.98 185.09C212.696 197.558 225.39 211.342 235.42 226.158C235.627 226.691 234.931 227.267 234.725 226.734C220.819 212.194 207.815 197.61 193.582 183.809C187.609 181.832 180.939 180.431 174.27 179.03C174.476 179.563 173.677 179.873 173.204 179.443C173.101 179.176 172.731 179.013 172.628 178.746C158.49 176.254 143.39 174.441 130.067 170.099C121.947 170.487 113.266 168.639 106.629 164.159C106.156 163.729 106.645 162.62 107.118 163.05C112.913 166.936 119.272 167.538 125.735 168.405C115.695 164.631 106.84 159.171 99.8215 150.547C93.4781 148.406 87.5639 145.792 82.1387 142.069C86.2599 148.751 90.1148 155.535 94.7686 162.01C104.962 176.457 120.014 182.888 137.038 183.342C154.698 183.856 172.731 179.013 189.735 186.527C190.474 186.854 189.985 187.963 189.349 187.903C167.242 181.447 145.317 188.105 123.238 184.091C99.5168 179.794 88.6202 156.421 77.2462 138.14C76.3003 137.28 75.2511 136.154 74.2018 135.027C73.7289 134.597 73.6852 133.694 74.4842 133.385C74.7505 133.281 75.0168 133.178 75.0168 133.178C75.5495 132.972 76.1854 133.032 76.392 133.565C77.3976 133.789 77.7076 134.588 78.2839 135.285C78.8165 135.078 79.6591 135.672 80.5453 137.168C82.8068 139.051 84.9649 140.667 87.6557 142.077C92.5045 145.104 98.1088 146.918 103.713 148.732C113.443 151.706 123.455 153.038 133.511 155.273C148.595 158.626 162.7 164.197 172.6 176.304C178.9 177.542 185.407 179.313 191.381 181.29C185.971 176.027 180.296 170.868 174.458 166.079C166.358 159.407 158.035 153.74 149.283 148.547C136.493 143.999 123.404 142.633 110.185 138.558C97.0685 134.75 88.7343 125.102 77.069 119.505C72.7207 119.351 68.6387 119.093 64.4533 118.569C47.1793 116.678 28.1925 111.159 17.7324 96.8165C16.5202 96.0599 15.4709 94.9334 14.4217 93.807C13.9487 93.3771 14.4377 92.2677 15.177 92.5944ZM151.565 16.1236C152.676 31.6369 144.439 48.3207 139.947 62.0201C137.752 69.003 136.622 75.5731 136.662 81.9969C139.27 76.0803 143.356 70.817 144.589 64.5135C144.648 63.8771 145.654 64.1006 145.594 64.737C144.405 71.9434 140.879 79.4425 136.836 85.6087C137.534 100.056 142.967 113.281 150.1 126.154C140.115 91.6968 159.789 51.5698 151.565 16.1236ZM103.311 151.647C118.212 162.43 131.991 168.74 150.521 172.29C157.191 173.691 163.757 174.826 170.426 176.227C153.595 157.301 126.69 158.224 103.311 151.647ZM172.661 119.556C172.145 118.223 171.412 127.399 171.44 129.841C171.321 131.114 171.468 132.283 171.615 133.453C172.131 134.786 172.278 135.955 172.795 137.288C172.544 135.852 172.398 134.683 172.251 133.513C172.31 132.877 173.213 132.834 173.419 133.367C174.345 141.287 176.868 148.587 180.027 155.948C176.916 143.97 176.142 131.698 172.661 119.556ZM187.629 174.772C186.063 172.312 184.764 169.75 183.464 167.187C183.258 166.654 182.681 165.958 182.475 165.425C183.508 168.09 184.807 170.653 186.004 172.949C186.107 173.215 186.107 173.215 185.841 173.319C186.683 173.912 187.156 174.342 187.629 174.772ZM172.834 143.712C173.188 145.415 173.438 146.851 173.791 148.553C175.265 154.728 177.435 160.326 180.67 165.511C177.451 158.786 175.194 151.382 172.834 143.712ZM72.4402 100.449C63.2545 101.25 51.509 103.349 40.6382 102.963C50.368 105.937 59.9509 107.742 71.1478 107.389C84.5188 107.112 96.813 103.267 109.782 105.906C98.5463 99.8359 85.6046 99.6393 72.4402 100.449ZM120.844 108.364C117.772 102.809 114.537 97.6243 111.199 92.1725C111.095 91.906 111.258 91.5362 111.525 91.4329C106.767 84.6914 101.315 78.5261 95.3729 73.4702C90.1704 68.741 94.8839 74.5796 95.9767 76.6089C98.7824 82.2671 102.387 87.6157 105.622 92.8008C107.971 96.4898 110.586 100.075 113.364 103.291C109.819 97.3065 106.703 90.8486 103.321 84.494C103.011 83.6942 104.077 83.2814 104.283 83.8145C110.117 94.1247 115.848 104.168 122.644 113.799C122.644 113.799 122.747 114.066 123.013 113.962C122.29 112.096 121.567 110.23 120.844 108.364ZM126.956 122.553C126.852 122.286 126.852 122.286 126.956 122.553C119.639 117.11 110.513 117.274 101.697 118.238C116.14 127.052 131.176 135.022 145.619 143.835C138.525 137.386 132.822 129.785 126.956 122.553ZM85.7773 123.795C94.6164 130.794 103.961 135.145 114.696 138.343C123.051 140.93 131.851 141.506 140.265 143.457C126.398 135.34 112.737 127.757 99.6257 118.428C96.6526 118.66 94.0491 119.056 91.4456 119.452C87.5702 119.727 83.6948 120.003 79.6128 119.745C81.8306 120.726 83.5158 121.912 85.7773 123.795ZM47.5374 112.86C59.0121 116.385 71.0516 116.625 82.928 117.234C95.6034 117.534 111.892 112.14 123.868 118.537C123.395 118.107 122.922 117.677 122.715 117.144C120.72 115.158 118.725 113.172 116.996 111.082C115.577 109.792 114.158 108.503 112.576 107.583C95.2748 103.25 77.2249 109.633 59.4619 108.852C49.7597 108.32 39.9701 105.981 31.0989 102.061C29.4574 101.777 27.8158 101.494 26.3373 100.84C32.3824 106.163 38.8131 110.109 47.5374 112.86Z" fill="#FED783"/>
<path d="M132.301 77.861C131.3 72.1167 130.565 66.2691 130.097 60.3183C130.157 59.6819 131.059 59.6389 130.999 60.2752C131.631 65.8562 134.007 71.9874 133.204 77.8179C133.144 78.4543 132.242 78.4974 132.301 77.861Z" fill="#FED783"/>
<path d="M99.6818 123.312C105.167 126.399 111.037 128.11 116.685 130.827C117.055 130.99 116.995 131.626 116.625 131.463C110.369 131.128 104.308 127.345 99.3558 124.052C98.6165 123.725 99.2088 122.883 99.6818 123.312Z" fill="#FED783"/>
<path d="M73.0009 102.685C77.9576 100.457 84.0188 104.241 89.0191 102.916C89.5517 102.709 89.8617 103.509 89.329 103.716C87.1985 104.541 84.6547 104.301 82.3772 103.957C79.5671 103.82 76.2243 103.889 73.2076 103.218C72.9413 103.322 72.7346 102.788 73.0009 102.685Z" fill="#FED783"/>
<path d="M71.6369 106.279C73.1751 106.296 74.8167 106.58 76.5179 106.227C77.1539 106.287 77.0942 106.924 76.5615 107.13C75.1266 107.379 73.0558 107.569 71.5772 106.915C71.2076 106.752 71.2673 106.116 71.6369 106.279Z" fill="#FED783"/>
<path d="M142.531 175.387C136.318 175.955 130.062 175.62 123.643 175.655C122.741 175.698 122.86 174.426 123.762 174.383C129.915 174.451 136.557 173.41 142.591 174.75C142.96 174.914 142.901 175.55 142.531 175.387Z" fill="#FED783"/>
<path d="M156.344 178.619C150.441 179.987 143.756 180.125 137.662 179.42C137.026 179.36 137.249 178.354 137.885 178.414C143.978 179.119 150.147 177.648 156.137 178.086C156.403 177.982 156.61 178.515 156.344 178.619Z" fill="#FED783"/>
</g>
<defs>
<clipPath id="clip0">
<rect width="158.804" height="242.725" fill="white" transform="matrix(-0.932416 0.361386 0.361386 0.932416 148.072 0)"/>
</clipPath>
</defs>
</svg>
