<svg width="88" height="88" viewBox="0 0 88 88" fill="none" xmlns="http://www.w3.org/2000/svg">
<path d="M60.875 1.375H27.875C26.0523 1.37705 24.3048 2.10203 23.0159 3.3909C21.727 4.67977 21.002 6.42727 21 8.25V79.75C21.002 81.5727 21.727 83.3202 23.0159 84.6091C24.3048 85.898 26.0523 86.623 27.875 86.625H60.875C62.6977 86.623 64.4452 85.898 65.7341 84.6091C67.023 83.3202 67.748 81.5727 67.75 79.75V8.25C67.748 6.42727 67.023 4.67977 65.7341 3.3909C64.4452 2.10203 62.6977 1.37705 60.875 1.375ZM53.6978 4.125L52.8728 8.25H35.8773L35.0523 4.125H53.6978ZM65 79.75C64.9988 80.8436 64.5638 81.8921 63.7905 82.6655C63.0171 83.4388 61.9686 83.8738 60.875 83.875H27.875C26.7814 83.8738 25.7329 83.4388 24.9595 82.6655C24.1862 81.8921 23.7512 80.8436 23.75 79.75V8.25C23.7512 7.15636 24.1862 6.10786 24.9595 5.33454C25.7329 4.56122 26.7814 4.12623 27.875 4.125H32.2477L33.4016 9.89467C33.464 10.2064 33.6324 10.4868 33.8782 10.6884C34.1241 10.8899 34.4321 11 34.75 11H54C54.3179 11 54.6259 10.8899 54.8718 10.6884C55.1176 10.4868 55.286 10.2064 55.3484 9.89467L56.5023 4.125H60.875C61.9686 4.12623 63.0171 4.56122 63.7905 5.33454C64.5638 6.10786 64.9988 7.15636 65 8.25V79.75Z" fill="#FED783"/>
<path d="M48.625 78H40.375C40.0103 78 39.6606 78.1449 39.4027 78.4027C39.1449 78.6606 39 79.0103 39 79.375C39 79.7397 39.1449 80.0894 39.4027 80.3473C39.6606 80.6051 40.0103 80.75 40.375 80.75H48.625C48.9897 80.75 49.3394 80.6051 49.5973 80.3473C49.8551 80.0894 50 79.7397 50 79.375C50 79.0103 49.8551 78.6606 49.5973 78.4027C49.3394 78.1449 48.9897 78 48.625 78Z" fill="#FED783"/>
</svg>
