<svg width="60" height="670" viewBox="0 0 60 670" fill="none" xmlns="http://www.w3.org/2000/svg">
<path d="M0.000976694 0L89.8938 86.7611V133.473L0.000976562 46.7117L0.000976694 0Z" fill="#FFF23D"/>
<path d="M0.00195326 179.933L89.8947 267.22V314.196L0.00195312 226.909L0.00195326 179.933Z" fill="#FFF23D"/>
<path d="M1.31134e-07 89.9814L89.8928 176.743V223.454L0 136.693L1.31134e-07 89.9814Z" fill="#FFF23D"/>
<path d="M1.31134e-07 267.736L89.8928 355.023V402L0 314.713L1.31134e-07 267.736Z" fill="#FFF23D"/>
<path d="M0.00195326 447.933L89.8947 535.22V582.196L0.00195312 494.909L0.00195326 447.933Z" fill="#FFF23D"/>
<path d="M0.000976694 357.981L89.8938 444.743V491.454L0.000976562 404.693L0.000976694 357.981Z" fill="#FFF23D"/>
<path d="M0.000976694 535.736L89.8938 623.023V670L0.000976562 582.713L0.000976694 535.736Z" fill="#FFF23D"/>
</svg>
