<svg width="78" height="78" viewBox="0 0 78 78" fill="none" xmlns="http://www.w3.org/2000/svg">
<g clip-path="url(#clip0)">
<path d="M57.9084 55.8517V48.3251C57.9084 47.4767 57.2208 46.7891 56.3724 46.7891C55.524 46.7891 54.8364 47.4767 54.8364 48.3251V56.4967C54.8268 56.9035 54.9816 57.2965 55.2666 57.5869L59.3677 61.6886C59.6515 61.9754 60.0391 62.1362 60.4429 62.1338C60.8497 62.129 61.2397 61.97 61.5337 61.6886C61.8229 61.4036 61.9873 61.0148 61.9903 60.6086C61.9933 60.2024 61.8343 59.8118 61.5487 59.5226L57.9084 55.8517Z" fill="#FFF23D"/>
<path d="M27.0342 48.8153C27.0318 47.9681 26.3454 47.2817 25.4982 47.2793H8.44815C7.60093 47.2817 6.91451 47.9681 6.91211 48.8153V58.3388C6.91451 59.186 7.60093 59.8724 8.44815 59.8748H25.4982C26.3454 59.8724 27.0318 59.186 27.0342 58.3388V48.8153ZM23.9621 56.9563H9.98418V50.3514H23.9621V56.9563Z" fill="#FFF23D"/>
<path d="M64.2064 34.6541V22.7498C64.204 22.5488 64.1626 22.3502 64.0834 22.166L57.5402 6.08381C56.6438 3.86196 54.4825 2.41292 52.0873 2.42792H12.1653C9.76884 2.40872 7.60519 3.85896 6.71237 6.08381L0.138003 22.181C0.0546014 22.3592 0.00780019 22.553 0 22.7498V60.4134C0.0270006 63.6798 2.67727 66.3169 5.94435 66.3271H39.3688C43.1783 71.8568 49.5984 75.6045 56.864 75.6045C68.5073 75.6045 78.0001 66.1273 78.0001 54.469C77.9845 45.4064 72.1938 37.6494 64.2064 34.6541ZM54.6829 7.20464L60.3819 21.1676H41.4118L38.9848 5.5H52.0717C53.2099 5.4772 54.2455 6.15401 54.6829 7.20464ZM25.191 24.2397H38.5546V31.1824L25.191 36.4356V24.2397ZM25.452 21.1676L28.0021 5.5H35.8665L38.2935 21.1676H25.452ZM9.55404 7.20464C9.99145 6.15401 11.0271 5.4772 12.1653 5.5H24.8994L22.3494 21.1676H3.8707L9.55404 7.20464ZM5.94435 63.255C4.37411 63.2448 3.09908 61.983 3.07208 60.4134V24.2397H22.1189V38.6934C22.1177 39.2046 22.371 39.6828 22.7946 39.9684C23.0508 40.1353 23.3496 40.2259 23.655 40.2295C23.8494 40.2313 24.0426 40.1947 24.2232 40.1221L40.6588 33.6707C41.2438 33.4379 41.6272 32.8715 41.6266 32.2421V24.2397H61.1343V33.7631C59.7297 33.4715 58.2986 33.3275 56.864 33.3329C45.2207 33.3329 35.7285 42.8257 35.7285 54.469C35.7327 57.4943 36.3819 60.4848 37.6329 63.2394H5.94435V63.255ZM56.849 72.5175C46.881 72.5175 38.8006 64.4365 38.8006 54.469C38.8006 44.501 46.881 36.4206 56.849 36.4206C66.8165 36.4206 74.8974 44.501 74.8974 54.469C74.9125 64.4221 66.802 72.5175 56.849 72.5175Z" fill="#FFF23D"/>
</g>
<defs>
<clipPath id="clip0">
<rect width="78" height="78" fill="white"/>
</clipPath>
</defs>
</svg>
