<svg width="80" height="80" viewBox="0 0 80 80" fill="none" xmlns="http://www.w3.org/2000/svg">
<g clip-path="url(#clip0)">
<path d="M58.6667 50.8984H21.3333C20.597 50.8984 20 51.4871 20 52.2132V73.2496C20 73.9756 20.597 74.5643 21.3333 74.5643H58.6667C59.403 74.5643 60 73.9756 60 73.2496V52.2132C60 51.4871 59.403 50.8984 58.6667 50.8984ZM57.2598 53.528C56.5736 59.5138 51.4421 64.0391 45.3333 64.0462H41.3333V62.7314C41.3333 62.0053 40.7363 61.4166 40 61.4166C39.2637 61.4166 38.6667 62.0053 38.6667 62.7314V64.0462H34.6667C28.5579 64.0391 23.4264 59.5138 22.7402 53.528H57.2598ZM57.3333 71.9348H22.6667V60.5031C25.4056 64.3678 29.8848 66.6719 34.6667 66.6757H38.6667V67.9905C38.6667 68.7166 39.2637 69.3052 40 69.3052C40.7363 69.3052 41.3333 68.7166 41.3333 67.9905V66.6757H45.3333C50.1152 66.6719 54.5944 64.3678 57.3333 60.5031V71.9348Z" fill="#FFF23D"/>
<path d="M71.9997 48.2693H67.9997V27.1013C71.1019 26.4722 73.3291 23.7817 73.333 20.6591V12.7704C73.3285 9.14134 70.3467 6.20108 66.6663 6.19659H50.5329C49.8949 3.13756 47.1663 0.941352 43.9997 0.9375H35.9997C32.833 0.941352 30.1045 3.13756 29.4665 6.19659H13.333C9.65267 6.20108 6.6709 9.14134 6.66634 12.7704V20.6591C6.67025 23.7817 8.89746 26.4722 11.9997 27.1013V48.2693H7.99967C4.31934 48.2738 1.33757 51.214 1.33301 54.8431V65.3613C1.33757 68.9904 4.31934 71.9307 7.99967 71.9352H11.9997V73.25C12.0042 76.8791 14.986 79.8193 18.6663 79.8238H61.333C65.0133 79.8193 67.9951 76.8791 67.9997 73.25V71.9352H71.9997C75.68 71.9307 78.6618 68.9904 78.6663 65.3613V54.8431C78.6618 51.214 75.68 48.2738 71.9997 48.2693ZM70.6663 12.7704V20.6591C70.6663 22.8373 68.8753 24.6034 66.6663 24.6034H59.9997V8.82613H66.6663C68.8753 8.82613 70.6663 10.5922 70.6663 12.7704ZM57.333 8.82613V24.6034H54.6663V8.82613H57.333ZM54.6663 37.7511H57.333V39.0659C57.333 39.792 56.736 40.3807 55.9997 40.3807C55.2633 40.3807 54.6663 39.792 54.6663 39.0659V37.7511ZM54.6663 35.1216V27.2329H57.333V35.1216H54.6663ZM51.9997 8.82613V24.6034H27.9997V8.82613H51.9997ZM35.9997 3.56704H43.9997C45.6943 3.56897 47.2048 4.62181 47.7718 6.19659H32.2275C32.7946 4.62181 34.305 3.56897 35.9997 3.56704ZM25.333 8.82613V24.6034H22.6663V8.82613H25.333ZM22.6663 37.7511H25.333V39.0659C25.333 39.792 24.736 40.3807 23.9997 40.3807C23.2633 40.3807 22.6663 39.792 22.6663 39.0659V37.7511ZM22.6663 35.1216V27.2329H25.333V35.1216H22.6663ZM9.33301 20.6591V12.7704C9.33301 10.5922 11.124 8.82613 13.333 8.82613H19.9997V24.6034H13.333C11.124 24.6034 9.33301 22.8373 9.33301 20.6591ZM7.99967 69.3056C5.79069 69.3056 3.99967 67.5396 3.99967 65.3613V54.8431C3.99967 52.6649 5.79069 50.8988 7.99967 50.8988H11.9997V69.3056H7.99967ZM65.333 73.25C65.333 75.4282 63.542 77.1943 61.333 77.1943H18.6663C16.4574 77.1943 14.6663 75.4282 14.6663 73.25V27.2329H19.9997V35.1216H18.6663C17.93 35.1216 17.333 35.7103 17.333 36.4363C17.333 37.1624 17.93 37.7511 18.6663 37.7511H19.9997V39.0659C19.9997 41.2441 21.7907 43.0102 23.9997 43.0102C26.2087 43.0102 27.9997 41.2441 27.9997 39.0659V37.7511H29.333C30.0693 37.7511 30.6663 37.1624 30.6663 36.4363C30.6663 35.7103 30.0693 35.1216 29.333 35.1216H27.9997V27.2329H51.9997V35.1216H50.6663C49.93 35.1216 49.333 35.7103 49.333 36.4363C49.333 37.1624 49.93 37.7511 50.6663 37.7511H51.9997V39.0659C51.9997 41.2441 53.7907 43.0102 55.9997 43.0102C58.2087 43.0102 59.9997 41.2441 59.9997 39.0659V37.7511H61.333C62.0693 37.7511 62.6663 37.1624 62.6663 36.4363C62.6663 35.7103 62.0693 35.1216 61.333 35.1216H59.9997V27.2329H65.333V73.25ZM75.9997 65.3613C75.9997 67.5396 74.2087 69.3056 71.9997 69.3056H67.9997V50.8988H71.9997C74.2087 50.8988 75.9997 52.6649 75.9997 54.8431V65.3613Z" fill="#FFF23D"/>
</g>
<defs>
<clipPath id="clip0">
<rect width="80" height="78.8863" fill="white" transform="translate(0 0.9375)"/>
</clipPath>
</defs>
</svg>
