<svg width="80" height="80" viewBox="0 0 80 80" fill="none" xmlns="http://www.w3.org/2000/svg">
<path d="M79.3739 39.3377C78.6657 38.7906 77.6444 38.9153 77.0919 39.6173L63.8067 54.9999H56.6882L51.0025 35.6895C52.6602 35.0643 53.8409 33.4734 53.8409 31.6136C53.8409 29.2099 51.8682 27.2538 49.4426 27.2538H48.5185L47.3403 23.2515C47.0882 22.3972 46.1851 21.9067 45.3238 22.1561C44.462 22.4054 43.9672 23.3 44.2187 24.1543L45.1314 27.2538H44.2644L38.2237 21.5391C38.352 21.4591 38.4797 21.3766 38.6042 21.2891C40.3235 20.0828 41.4654 18.2854 41.8198 16.2273C42.1749 14.1698 41.6998 12.0985 40.4829 10.3949C39.266 8.69062 37.4527 7.55926 35.3765 7.20733C31.0912 6.48079 27.0093 9.34664 26.277 13.5944C25.8349 16.1568 26.7133 18.6455 28.4199 20.3769C27.9671 20.5878 27.5415 20.8333 27.1458 21.1103C26.3837 19.5313 24.9095 18.3263 23.0721 17.9996C21.6113 17.7402 20.1372 18.065 18.9203 18.9156C17.6767 19.7851 16.8517 21.0933 16.5989 22.5993C16.4363 23.5657 16.5297 24.5189 16.8295 25.3877C16.7501 25.4255 16.6732 25.4676 16.6008 25.518C16.2464 25.7635 16.0051 26.1394 15.9307 26.5625L13.6462 39.5645C13.2353 41.9066 14.7564 44.1422 17.0371 44.547L19.7752 45.0337C20.0222 45.0778 20.2674 45.0992 20.51 45.0992C20.6923 45.0992 20.8714 45.0834 21.0486 45.0601L20.5418 52.7737L16.5957 60.8418C16.2216 61.608 16.0317 62.4271 16.0317 63.2751C16.0317 64.1018 16.2223 64.9045 16.5652 65.6323H14.6776C14.3677 65.6323 14.0641 65.7204 13.8031 65.8854L0.751833 74.1354C-0.00523946 74.6138 -0.227534 75.6105 0.255163 76.3609C0.565105 76.8425 1.09099 77.1063 1.62767 77.1063C1.92682 77.1063 2.22914 77.0245 2.50034 76.8532L15.1514 68.8557H21.3427C21.4487 68.862 21.5542 68.8652 21.6596 68.8652C21.7472 68.8652 21.8343 68.8601 21.9213 68.8557H39.2577C39.6744 68.8557 40.0751 68.6971 40.3774 68.4125L51.1956 58.224H55.4586H55.4681H55.4738H64.6006C65.1011 58.224 65.5742 57.9948 65.8823 57.6032L79.6559 41.6005C80.2084 40.8978 80.082 39.8855 79.3739 39.3377ZM27.6971 45.8855C27.0677 45.7785 26.371 45.7325 25.7987 45.4341C24.787 44.9059 24.2738 43.7865 24.4611 42.6841C24.5132 42.3788 24.5666 42.0728 24.6193 41.7674C29.3358 41.5502 32.6263 40.2357 34.8309 38.833L34.4498 41.0441C34.3279 41.7523 34.6937 42.4556 35.3466 42.7678L41.1345 45.5323L47.8599 53.9479C48.6767 54.9703 48.5026 56.4606 47.4712 57.2702C46.4404 58.0798 44.937 57.9067 44.1203 56.8849L38.3076 49.612C38.1551 49.4206 37.9601 49.2664 37.7391 49.1606L32.8404 46.8204C32.7032 46.755 32.5578 46.709 32.4085 46.6838L27.6971 45.8855ZM50.4087 51.9465L43.4502 43.2388C43.3359 43.0965 43.1993 42.9756 43.0469 42.8799C42.9935 42.8465 42.937 42.8151 42.8786 42.7874L37.8617 40.3905L38.6232 35.9734H47.6986L53.3004 54.9999H51.6097C51.5303 53.9221 51.1359 52.8556 50.4087 51.9465ZM43.6134 30.4772H47.2889C47.2921 30.4772 47.2953 30.4778 47.2984 30.4778L47.3041 30.4772H49.4426C50.0752 30.4772 50.589 30.9872 50.589 31.6136C50.589 32.24 50.0752 32.75 49.4426 32.75H48.9485H48.9434H37.8554L34.5679 29.9414C33.8871 29.361 32.8607 29.4365 32.2745 30.1108C31.6883 30.7851 31.7645 31.8025 32.4447 32.3836L35.0163 34.5802C33.7296 35.9048 30.7934 38.0869 25.182 38.505L25.7797 35.0391L26.9089 28.4928C26.9096 28.4884 26.9096 28.484 26.9102 28.4795L27.2449 26.5379C27.5695 24.6574 29.1878 22.6824 32.7502 22.6824C32.8321 22.6824 32.9147 22.6836 32.9992 22.6855C33.0125 22.6862 33.0265 22.6862 33.0398 22.6862C34.1551 22.6862 35.1573 23.0677 35.8604 23.7596C35.8814 23.7804 35.903 23.8005 35.9246 23.82L42.4905 30.0315C42.7935 30.3179 43.1955 30.4772 43.6134 30.4772ZM29.4825 14.1371C29.868 11.9021 31.8312 10.3187 34.0459 10.3187C34.3044 10.3187 34.566 10.3401 34.829 10.3848C36.0484 10.5913 37.1135 11.2562 37.8287 12.2572C38.5438 13.2582 38.8233 14.4758 38.6143 15.6846C38.2294 17.9196 36.2656 19.5036 34.0509 19.503C33.7924 19.503 33.5308 19.4816 33.2678 19.4369C30.7502 19.0107 29.0518 16.6328 29.4825 14.1371ZM19.8063 23.1294C19.9155 22.4797 20.2661 21.9187 20.7939 21.5498C21.1826 21.2784 21.6342 21.1368 22.0966 21.1368C22.2299 21.1368 22.364 21.1487 22.498 21.1727C23.7847 21.4012 24.6498 22.666 24.4268 23.9913C24.3176 24.641 23.9664 25.202 23.4386 25.5709C22.9381 25.9209 22.3335 26.0544 21.7352 25.9486C20.4484 25.7195 19.5827 24.4546 19.8063 23.1294ZM20.3493 41.8612L17.6113 41.374C17.086 41.2808 16.7443 40.7167 16.8498 40.1167L18.8536 28.7112L23.431 29.5253L22.6593 34.0016L21.4297 41.1284C21.2684 41.6233 20.8047 41.9418 20.3493 41.8612ZM20.6282 65.4056C19.7987 65.0071 19.2836 64.1905 19.2836 63.2745C19.2836 62.9169 19.3642 62.5706 19.5224 62.247L23.6063 53.8963C23.6984 53.7093 23.7523 53.5059 23.7657 53.2982L24.1017 48.1904C25.3275 48.8867 26.7889 49.0013 28.1595 49.2342C28.4174 49.2777 28.6752 49.3218 28.9331 49.3652L28.5672 54.592L23.8152 64.3095C23.4322 65.0921 22.6675 65.5693 21.8495 65.6323H21.4805C21.1921 65.6096 20.9038 65.5378 20.6282 65.4056ZM38.608 65.6323H26.7819L31.6305 55.7177C31.6641 55.649 31.6921 55.5791 31.7156 55.5074C31.755 55.3859 31.7804 55.2574 31.7899 55.1246L32.1437 50.0659L35.9906 51.9037L41.5715 58.8863C42.213 59.689 43.0342 60.2689 43.9335 60.6164L38.608 65.6323Z" fill="#FFF23D"/>
<path d="M60.7896 17.9413H69.4788C73.0744 17.9413 76 14.9786 76 11.3366C76 7.69524 73.0744 4.73247 69.4788 4.73247C68.6104 4.73247 67.756 4.90849 66.9645 5.24306C65.5117 3.32969 63.2435 2.16406 60.7896 2.16406C56.4941 2.16406 53 5.70259 53 10.0527C53 12.1596 53.81 14.1408 55.2814 15.6309C56.7528 17.121 58.7085 17.9413 60.7896 17.9413V17.9413ZM60.7896 5.60383C62.5397 5.60383 64.1219 6.65458 64.8204 8.28175C65.034 8.77958 65.4672 9.14639 65.9893 9.27068C66.5108 9.3943 67.0601 9.26195 67.4707 8.9126C68.0399 8.42821 68.7338 8.17224 69.4788 8.17224C71.2016 8.17224 72.6034 9.59182 72.6034 11.3366C72.6034 13.082 71.2016 14.5016 69.4788 14.5016H60.7896C59.6161 14.5016 58.5128 14.0387 57.6829 13.1982C56.853 12.3584 56.3966 11.2412 56.3966 10.0527C56.3966 7.59917 58.3676 5.60383 60.7896 5.60383Z" fill="#FFF23D"/>
</svg>
