<svg width="115" height="19" viewBox="0 0 115 19" fill="none" xmlns="http://www.w3.org/2000/svg">
<path d="M9.5 0L12.0575 5.97997L18.535 6.56434L13.638 10.8445L15.084 17.1857L9.5 13.851L3.91604 17.1857L5.36195 10.8445L0.464963 6.56434L6.94255 5.97997L9.5 0Z" fill="#FFF23D"/>
<path d="M33.5 0L36.0575 5.97997L42.535 6.56434L37.638 10.8445L39.084 17.1857L33.5 13.851L27.916 17.1857L29.362 10.8445L24.465 6.56434L30.9425 5.97997L33.5 0Z" fill="#FFF23D"/>
<path d="M57.5 0L60.0575 5.97997L66.535 6.56434L61.638 10.8445L63.084 17.1857L57.5 13.851L51.916 17.1857L53.362 10.8445L48.465 6.56434L54.9425 5.97997L57.5 0Z" fill="#FFF23D"/>
<path d="M81.5 0L84.0575 5.97997L90.535 6.56434L85.638 10.8445L87.084 17.1857L81.5 13.851L75.916 17.1857L77.362 10.8445L72.465 6.56434L78.9425 5.97997L81.5 0Z" fill="#FFF23D"/>
<path d="M105.5 0L108.057 5.97997L114.535 6.56434L109.638 10.8445L111.084 17.1857L105.5 13.851L99.916 17.1857L101.362 10.8445L96.465 6.56434L102.943 5.97997L105.5 0Z" fill="#DFE0E4"/>
</svg>
