<svg width="136" height="22" viewBox="0 0 136 22" fill="none" xmlns="http://www.w3.org/2000/svg">
<path d="M1.94 3.54L3.86 3.6H6.66L11.2 3.46C11.3733 3.46 11.46 3.52667 11.46 3.66C11.46 3.67333 11.4267 3.84 11.36 4.16C11.12 5.25333 10.96 6.24 10.88 7.12C10.7733 7.16 10.6733 7.18 10.58 7.18C10.4867 7.18 10.38 7.16 10.26 7.12C10.1933 5.61333 10.14 4.78667 10.1 4.64C8.95333 4.36 7.71333 4.22 6.38 4.22C5.86 4.22 5.43333 4.24667 5.1 4.3C4.96667 4.54 4.71333 6.56667 4.34 10.38C4.63333 10.4333 5.14 10.46 5.86 10.46C6.59333 10.46 7.25333 10.42 7.84 10.34C8.44 10.2867 8.83333 10.02 9.02 9.54C9.20667 9.54 9.36667 9.58667 9.5 9.68C9.32667 10.52 9.2 11.58 9.12 12.86C9.01333 12.8867 8.94 12.9 8.9 12.9L8.62 12.82V11.28C8.14 11.16 7.37333 11.1 6.32 11.1C5.28 11.1 4.59333 11.1333 4.26 11.2L4.08 13.52C3.93333 15.4 3.86 16.6467 3.86 17.26C4.42 17.34 5.18 17.38 6.14 17.38C6.15333 17.5133 6.16 17.64 6.16 17.76C6.16 17.8667 6.13333 17.9667 6.08 18.06L3.42 18C2.19333 18 1.19333 18.0533 0.42 18.16C0.393333 18.0533 0.38 17.9667 0.38 17.9L0.4 17.66C0.826667 17.5667 1.16 17.42 1.4 17.22C1.65333 17.0067 1.81333 16.8133 1.88 16.64C2.22667 15.8267 2.53333 13.7333 2.8 10.36C3.06667 6.98667 3.2 5.10667 3.2 4.72C3.2 4.33333 3.17333 4.14 3.12 4.14C2.89333 4.1 2.48667 4.08 1.9 4.08C1.87333 4.02667 1.86 3.97333 1.86 3.92C1.86 3.85333 1.88667 3.72667 1.94 3.54ZM17.0431 7.82C17.8831 7.82 18.5831 8.17333 19.1431 8.88C19.7031 9.57333 19.9831 10.54 19.9831 11.78C19.9831 13.02 19.6831 14.1933 19.0831 15.3C18.7898 15.8467 18.4231 16.34 17.9831 16.78C17.5431 17.2067 17.1165 17.5333 16.7031 17.76C15.8631 18.1867 15.2298 18.4 14.8031 18.4C13.9365 18.4 13.1831 18.06 12.5431 17.38C11.9165 16.6867 11.6031 15.7733 11.6031 14.64C11.6031 13.1733 11.9965 11.8467 12.7831 10.66C13.3831 9.76667 14.1298 9.07333 15.0231 8.58C15.9298 8.07333 16.6031 7.82 17.0431 7.82ZM15.4031 17.5C16.2031 17.5 16.8831 16.94 17.4431 15.82C18.0165 14.6867 18.3031 13.5267 18.3031 12.34C18.3031 9.94 17.6631 8.74 16.3831 8.74C15.7965 8.74 15.2631 9.01333 14.7831 9.56C14.3165 10.1067 13.9565 10.7867 13.7031 11.6C13.4631 12.4133 13.3431 13.2467 13.3431 14.1C13.3431 16.3667 14.0298 17.5 15.4031 17.5ZM27.2189 7.82C28.0589 7.82 28.7589 8.17333 29.3189 8.88C29.8789 9.57333 30.1589 10.54 30.1589 11.78C30.1589 13.02 29.8589 14.1933 29.2589 15.3C28.9656 15.8467 28.5989 16.34 28.1589 16.78C27.7189 17.2067 27.2922 17.5333 26.8789 17.76C26.0389 18.1867 25.4056 18.4 24.9789 18.4C24.1122 18.4 23.3589 18.06 22.7189 17.38C22.0922 16.6867 21.7789 15.7733 21.7789 14.64C21.7789 13.1733 22.1722 11.8467 22.9589 10.66C23.5589 9.76667 24.3056 9.07333 25.1989 8.58C26.1056 8.07333 26.7789 7.82 27.2189 7.82ZM25.5789 17.5C26.3789 17.5 27.0589 16.94 27.6189 15.82C28.1922 14.6867 28.4789 13.5267 28.4789 12.34C28.4789 9.94 27.8389 8.74 26.5589 8.74C25.9722 8.74 25.4389 9.01333 24.9589 9.56C24.4922 10.1067 24.1322 10.7867 23.8789 11.6C23.6389 12.4133 23.5189 13.2467 23.5189 14.1C23.5189 16.3667 24.2056 17.5 25.5789 17.5ZM40.2747 16.64L41.5147 16.22C41.6347 16.3 41.6947 16.46 41.6947 16.7C40.5214 17.1667 39.5414 17.76 38.7547 18.48L38.4147 18.32C38.2947 17.5467 38.2347 16.8867 38.2347 16.34C38.2347 15.78 38.3014 14.8333 38.4347 13.5C36.8214 16.2067 35.2214 17.84 33.6347 18.4C33.1414 18.3333 32.7414 18.02 32.4347 17.46C32.1414 16.9 31.9947 16.14 31.9947 15.18C31.9947 14.2067 32.1814 13.2533 32.5547 12.32C32.928 11.3867 33.368 10.6533 33.8747 10.12C34.3947 9.58667 34.948 9.13333 35.5347 8.76C36.548 8.13333 37.2947 7.82 37.7747 7.82C37.948 7.82 38.4347 7.88667 39.2347 8.02C39.2614 7.76667 39.3414 7.16667 39.4747 6.22C39.7414 4.32667 39.8747 3.18667 39.8747 2.8C39.8747 2.41333 39.828 2.16667 39.7347 2.06C39.6547 1.94 39.5147 1.86667 39.3147 1.84L38.0147 1.78C37.9747 1.62 37.9547 1.52667 37.9547 1.5C37.9547 1.47333 37.9747 1.4 38.0147 1.28C39.2814 1.09333 40.4214 0.826666 41.4347 0.479999C41.528 0.479999 41.608 0.539999 41.6747 0.659999L40.3347 10.54C40.028 12.7133 39.8747 14.2733 39.8747 15.22C39.8747 16.1667 40.008 16.64 40.2747 16.64ZM34.4747 16.8C34.9414 16.8 35.5147 16.4533 36.1947 15.76C36.8747 15.0533 37.4814 14.2067 38.0147 13.22C38.548 12.2333 38.8614 11.3533 38.9547 10.58L39.1147 9.26C38.5547 9.1 38.0414 8.98667 37.5747 8.92C37.108 8.85333 36.848 8.82 36.7947 8.82C36.0347 8.82 35.3014 9.44667 34.5947 10.7C33.9014 11.94 33.5547 13.2467 33.5547 14.62C33.5547 15.3 33.6347 15.8333 33.7947 16.22C33.968 16.6067 34.1947 16.8 34.4747 16.8ZM62.2433 9.12C62.5766 9.58667 62.7433 10.0467 62.7433 10.5C62.7433 10.9533 62.4099 11.4533 61.7433 12C61.0899 12.5333 60.3033 12.8 59.3833 12.8L58.8833 15.92C58.6566 17.4267 58.5433 18.4867 58.5433 19.1C58.5433 19.4867 58.6633 19.68 58.9033 19.68C59.3566 19.68 60.0433 19.5133 60.9633 19.18C61.0699 19.3533 61.1233 19.5467 61.1233 19.76C59.9099 20.2667 59.1033 20.6333 58.7033 20.86C58.3166 21.1 57.8366 21.4067 57.2633 21.78L56.9433 21.66C56.8899 21.4467 56.8633 20.9867 56.8633 20.28C56.8633 19.5867 57.0566 18.0533 57.4433 15.68C55.9366 17.4933 54.2366 18.4 52.3433 18.4C51.1299 18.4 50.1366 17.92 49.3633 16.96C48.6033 16 48.2233 14.84 48.2233 13.48C48.2233 12.1067 48.5366 10.8867 49.1633 9.82C49.7899 8.74 50.6766 7.91333 51.8233 7.34C52.4899 7.34 53.0499 7.48667 53.5033 7.78C53.9566 8.07333 54.1833 8.56667 54.1833 9.26C54.1833 10.3267 53.4366 11.1867 51.9433 11.84H59.1033C59.9699 11.84 60.6566 11.76 61.1633 11.6C61.6699 11.4267 61.9233 11.2067 61.9233 10.94C61.9233 10.66 61.7099 10.2867 61.2833 9.82C61.4166 9.51333 61.6699 9.3 62.0433 9.18L62.2433 9.12ZM49.7833 12.82C49.7833 13.9267 50.0766 14.92 50.6633 15.8C51.2633 16.68 52.0033 17.12 52.8833 17.12C54.1766 17.12 55.2899 16.66 56.2233 15.74C57.1699 14.8067 57.7299 13.8267 57.9033 12.8C54.2633 12.8 51.5566 12.74 49.7833 12.62V12.82ZM52.7033 9.62C52.7033 9.22 52.5899 8.88 52.3633 8.6C52.1499 8.32 51.8699 8.18 51.5233 8.18C51.1766 8.18 50.8299 8.57333 50.4833 9.36C50.1499 10.1333 49.9299 11.0067 49.8233 11.98C50.5566 11.9 51.2166 11.6267 51.8033 11.16C52.4033 10.6933 52.7033 10.18 52.7033 9.62ZM70.0064 3.54L71.9264 3.6H74.7264L79.2664 3.46C79.4397 3.46 79.5264 3.52667 79.5264 3.66C79.5264 3.67333 79.4931 3.84 79.4264 4.16C79.1864 5.25333 79.0264 6.24 78.9464 7.12C78.8397 7.16 78.7397 7.18 78.6464 7.18C78.5531 7.18 78.4464 7.16 78.3264 7.12C78.2597 5.61333 78.2064 4.78667 78.1664 4.64C77.0197 4.36 75.7797 4.22 74.4464 4.22C73.9264 4.22 73.4997 4.24667 73.1664 4.3C73.0331 4.54 72.7797 6.56667 72.4064 10.38C72.6997 10.4333 73.2064 10.46 73.9264 10.46C74.6597 10.46 75.3197 10.42 75.9064 10.34C76.5064 10.2867 76.8997 10.02 77.0864 9.54C77.2731 9.54 77.4331 9.58667 77.5664 9.68C77.3931 10.52 77.2664 11.58 77.1864 12.86C77.0797 12.8867 77.0064 12.9 76.9664 12.9L76.6864 12.82V11.28C76.2064 11.16 75.4397 11.1 74.3864 11.1C73.3464 11.1 72.6597 11.1333 72.3264 11.2L72.1464 13.52C71.9997 15.4 71.9264 16.6467 71.9264 17.26C72.4864 17.34 73.2464 17.38 74.2064 17.38C74.2197 17.5133 74.2264 17.64 74.2264 17.76C74.2264 17.8667 74.1997 17.9667 74.1464 18.06L71.4864 18C70.2597 18 69.2597 18.0533 68.4864 18.16C68.4597 18.0533 68.4464 17.9667 68.4464 17.9L68.4664 17.66C68.8931 17.5667 69.2264 17.42 69.4664 17.22C69.7197 17.0067 69.8797 16.8133 69.9464 16.64C70.2931 15.8267 70.5997 13.7333 70.8664 10.36C71.1331 6.98667 71.2664 5.10667 71.2664 4.72C71.2664 4.33333 71.2397 4.14 71.1864 4.14C70.9597 4.1 70.5531 4.08 69.9664 4.08C69.9397 4.02667 69.9264 3.97333 69.9264 3.92C69.9264 3.85333 69.9531 3.72667 70.0064 3.54ZM82.1095 16.8C82.7362 16.8 83.5562 16.1 84.5695 14.7C85.5829 13.2867 86.2295 11.9133 86.5095 10.58L86.8495 8.94C85.9562 8.94 85.2429 8.97333 84.7095 9.04C83.9629 9.13333 83.1762 9.74667 82.3495 10.88C81.5229 12 81.1095 13.2667 81.1095 14.68C81.1095 16.0933 81.4429 16.8 82.1095 16.8ZM88.4295 7.58C87.6295 11.9133 87.2295 14.5067 87.2295 15.36C87.2295 16.2133 87.3495 16.64 87.5895 16.64C87.6429 16.64 88.0629 16.5 88.8495 16.22C88.9695 16.3133 89.0295 16.4733 89.0295 16.7C88.1095 17.0867 87.5029 17.3867 87.2095 17.6C86.6229 18.04 86.2562 18.3333 86.1095 18.48L85.7895 18.34C85.6429 18.1267 85.5695 17.64 85.5695 16.88C85.5695 16.12 85.7029 14.9933 85.9695 13.5C84.2495 16.2467 82.7095 17.88 81.3495 18.4C80.8562 18.3067 80.4362 18.0067 80.0895 17.5C79.7429 16.9933 79.5695 16.3267 79.5695 15.5C79.5695 14.2067 79.8629 13.0467 80.4495 12.02C81.2895 10.5133 82.4762 9.39333 84.0095 8.66C84.7295 8.31333 85.3029 8.1 85.7295 8.02C86.6229 7.92667 87.0962 7.86667 87.1495 7.84L88.1895 7.44C88.2562 7.44 88.3362 7.48667 88.4295 7.58ZM94.0517 8.42C93.0517 8.42 92.5517 8.9 92.5517 9.86C92.5517 10.2067 92.7584 10.6267 93.1717 11.12C93.5984 11.6 94.0651 12.0533 94.5717 12.48C95.0917 12.8933 95.5584 13.3733 95.9717 13.92C96.3984 14.4667 96.6117 14.9733 96.6117 15.44C96.6117 16.28 96.2584 16.9867 95.5517 17.56C94.8584 18.12 94.0184 18.4 93.0317 18.4C92.4984 18.4 91.9184 18.32 91.2917 18.16C90.6651 18.0133 90.2051 17.8533 89.9117 17.68L90.7717 14.96C90.9451 14.96 91.1051 15.0067 91.2517 15.1C91.2117 15.26 91.1917 15.58 91.1917 16.06C91.1917 16.54 91.1984 16.8333 91.2117 16.94C91.5317 17.42 92.2117 17.66 93.2517 17.66C93.6784 17.66 94.0584 17.5 94.3917 17.18C94.7251 16.8467 94.8917 16.46 94.8917 16.02C94.8917 15.5667 94.7584 15.1533 94.4917 14.78C94.2384 14.3933 93.9251 14.0467 93.5517 13.74C93.1784 13.42 92.8051 13.1 92.4317 12.78C91.5517 12.0067 91.1117 11.2133 91.1117 10.4C91.1117 9.57333 91.4451 8.92667 92.1117 8.46C92.7784 7.98 93.5851 7.74 94.5317 7.74C95.4784 7.74 96.3651 7.91333 97.1917 8.26C96.9651 8.91333 96.7717 9.72667 96.6117 10.7C96.5584 10.7133 96.4651 10.72 96.3317 10.72C96.2117 10.72 96.1451 10.7 96.1317 10.66L95.9717 8.94C95.5051 8.59333 94.8651 8.42 94.0517 8.42ZM99.0888 1.78L99.0288 1.54L99.0888 1.28C100.315 1.10667 101.455 0.839999 102.509 0.479999C102.615 0.479999 102.695 0.539999 102.749 0.659999L101.029 13.2C102.402 10.1333 103.869 8.34 105.429 7.82C106.709 7.82 107.349 8.68 107.349 10.4C107.349 11.0533 107.235 12.02 107.009 13.3C106.795 14.5667 106.689 15.3267 106.689 15.58C106.689 15.82 106.695 16 106.709 16.12C106.735 16.4 106.862 16.54 107.089 16.54C107.142 16.54 107.469 16.4333 108.069 16.22C108.175 16.3 108.242 16.46 108.269 16.7C107.269 17.1 106.289 17.6933 105.329 18.48L105.009 18.34C104.969 18.1533 104.949 17.76 104.949 17.16C104.949 16.56 105.089 15.5267 105.369 14.06C105.649 12.5933 105.789 11.64 105.789 11.2C105.789 10.0133 105.469 9.42 104.829 9.42C104.189 9.42 103.389 10.14 102.429 11.58C101.482 13.0067 100.935 14.3933 100.789 15.74L100.549 18L98.9888 18.4L100.449 7.02C100.782 4.40667 100.949 2.96 100.949 2.68C100.949 2.38667 100.902 2.18 100.809 2.06C100.662 1.87333 100.089 1.78 99.0888 1.78ZM112.986 8.42C112.986 9.40667 112.826 10.76 112.506 12.48C112.2 14.1867 112.046 15.3067 112.046 15.84C112.046 16.3733 112.146 16.64 112.346 16.64C112.466 16.64 112.893 16.5 113.626 16.22C113.746 16.3 113.806 16.46 113.806 16.7C112.606 17.1933 111.613 17.7867 110.826 18.48L110.506 18.34C110.4 18.1267 110.346 17.7133 110.346 17.1C110.346 16.4733 110.5 15.3933 110.806 13.86C111.126 12.3133 111.286 11.2533 111.286 10.68C111.286 10.1067 111.166 9.82 110.926 9.82C110.753 9.82 110.4 9.96 109.866 10.24C109.746 10.12 109.686 9.96 109.686 9.76C110.166 9.49333 110.7 9.15333 111.286 8.74C111.873 8.31333 112.313 7.96 112.606 7.68L112.966 7.78C112.98 7.94 112.986 8.15333 112.986 8.42ZM114.346 3.5C114.346 3.7 114.186 3.92 113.866 4.16C113.546 4.38667 113.246 4.5 112.966 4.5C112.766 3.94 112.54 3.52667 112.286 3.26C112.593 2.76667 113.046 2.42 113.646 2.22C114.113 2.63333 114.346 3.06 114.346 3.5ZM120.695 7.82C121.535 7.82 122.235 8.17333 122.795 8.88C123.355 9.57333 123.635 10.54 123.635 11.78C123.635 13.02 123.335 14.1933 122.735 15.3C122.442 15.8467 122.075 16.34 121.635 16.78C121.195 17.2067 120.769 17.5333 120.355 17.76C119.515 18.1867 118.882 18.4 118.455 18.4C117.589 18.4 116.835 18.06 116.195 17.38C115.569 16.6867 115.255 15.7733 115.255 14.64C115.255 13.1733 115.649 11.8467 116.435 10.66C117.035 9.76667 117.782 9.07333 118.675 8.58C119.582 8.07333 120.255 7.82 120.695 7.82ZM119.055 17.5C119.855 17.5 120.535 16.94 121.095 15.82C121.669 14.6867 121.955 13.5267 121.955 12.34C121.955 9.94 121.315 8.74 120.035 8.74C119.449 8.74 118.915 9.01333 118.435 9.56C117.969 10.1067 117.609 10.7867 117.355 11.6C117.115 12.4133 116.995 13.2467 116.995 14.1C116.995 16.3667 117.682 17.5 119.055 17.5ZM132.551 11.2C132.551 10.0133 132.231 9.42 131.591 9.42C130.965 9.42 130.178 10.1333 129.231 11.56C128.298 12.9867 127.751 14.38 127.591 15.74L127.331 18.1L125.811 18.4L126.551 12.94C126.658 12.0867 126.711 11.48 126.711 11.12C126.711 10.2533 126.538 9.82 126.191 9.82C126.098 9.82 125.785 9.96 125.251 10.24C125.091 10.1067 125.011 9.94667 125.011 9.76C126.011 9.21333 126.945 8.52 127.811 7.68L128.151 7.78C128.205 8.14 128.231 8.54667 128.231 9C128.231 9.44 128.211 9.88667 128.171 10.34C128.131 10.7933 128.065 11.34 127.971 11.98C127.891 12.62 127.845 13.0267 127.831 13.2C129.205 10.1333 130.665 8.34 132.211 7.82C133.478 7.82 134.111 8.68 134.111 10.4C134.111 11.0533 133.998 12.02 133.771 13.3C133.545 14.5667 133.431 15.3533 133.431 15.66C133.431 15.9667 133.451 16.1933 133.491 16.34C133.545 16.4733 133.658 16.54 133.831 16.54C134.018 16.54 134.351 16.4333 134.831 16.22C134.951 16.34 135.011 16.5 135.011 16.7C134.025 17.1 133.011 17.6933 131.971 18.48L131.651 18.34C131.651 17.2467 131.798 15.8933 132.091 14.28C132.398 12.6533 132.551 11.6267 132.551 11.2Z" fill="black"/>
</svg>
