<svg width="45" height="40" viewBox="0 0 45 40" fill="none" xmlns="http://www.w3.org/2000/svg">
<path d="M42.942 7.11477C40.6329 2.76771 36.7581 0.0417353 32.8334 0H32.7399C29.9872 0 26.0929 1.24767 22.4987 6.84898C18.898 1.24767 15.0037 0 12.2618 0H12.177C8.23926 0.0417353 4.36456 2.76771 2.05539 7.11477C-0.253782 11.4618 -1.30835 18.302 2.65551 24.4679C6.28234 30.1153 12.6249 35.1236 22.0464 39.7803L22.4987 40L22.951 39.7803C32.3703 35.1236 38.7129 30.1153 42.3419 24.4679C46.3145 18.302 45.249 11.4618 42.942 7.11477ZM31.1722 21.966C31.1722 22.2182 31.073 22.4601 30.8965 22.6385C30.7199 22.8169 30.4804 22.9171 30.2307 22.9171H25.3254V27.8726C25.3254 27.9977 25.3009 28.1215 25.2535 28.2371C25.206 28.3526 25.1365 28.4576 25.0488 28.5459C24.9612 28.6343 24.8571 28.7043 24.7427 28.752C24.6282 28.7996 24.5055 28.824 24.3817 28.8237H20.6135C20.3638 28.8237 20.1244 28.7235 19.9478 28.5451C19.7712 28.3668 19.672 28.1249 19.672 27.8726V22.9061H14.7667C14.5189 22.9061 14.281 22.8074 14.1048 22.6314C13.9285 22.4554 13.8281 22.2163 13.8252 21.966V18.1483C13.8252 17.896 13.9244 17.6541 14.1009 17.4757C14.2775 17.2974 14.517 17.1971 14.7667 17.1971H19.672V12.2394C19.672 11.9872 19.7712 11.7453 19.9478 11.5669C20.1244 11.3885 20.3638 11.2883 20.6135 11.2883H24.3817C24.5055 11.288 24.6282 11.3124 24.7427 11.3601C24.8571 11.4077 24.9612 11.4778 25.0488 11.5661C25.1365 11.6545 25.206 11.7594 25.2535 11.8749C25.3009 11.9905 25.3254 12.1143 25.3254 12.2394V16.413V17.2081H30.2242C30.4739 17.2081 30.7134 17.3083 30.8899 17.4867C31.0665 17.6651 31.1657 17.907 31.1657 18.1593L31.1722 21.966Z" fill="#FE5757"/>
</svg>
