<svg width="135" height="108" viewBox="0 0 135 108" fill="none" xmlns="http://www.w3.org/2000/svg">
<path d="M33.928 0C15.219 0 0 15.219 0 33.9282C0 51.9767 14.1638 66.78 31.9601 67.8027C32.2682 71.1295 32.037 80.1853 23.3594 92.7825C22.7035 93.7328 22.8225 95.0143 23.6372 95.8291C27.1882 99.38 29.3828 101.616 30.9187 103.181C32.929 105.226 33.8465 106.16 35.1888 107.378C35.644 107.791 36.2182 107.999 36.7951 107.999C37.3552 107.999 37.9131 107.803 38.3638 107.413C53.4847 94.2556 70.282 67.0695 67.8517 33.7554C66.4276 14.1965 52.1611 0 33.928 0ZM36.8182 102.342C36.167 101.701 35.4245 100.944 34.3296 99.8304C32.999 98.4743 31.1733 96.6158 28.4045 93.8377C38.9358 77.6101 36.9466 66.0518 36.076 64.3942C35.6626 63.6075 34.8152 63.0775 33.928 63.0775C17.857 63.0775 4.78119 50.0016 4.78119 33.9282C4.78119 17.857 17.857 4.78119 33.928 4.78119C49.5838 4.78119 61.8449 17.1123 63.0844 34.1009C65.8159 71.5708 43.5466 95.8991 36.8182 102.342Z" fill="#F9D66F" fill-opacity="0.4"/>
<path d="M152.758 33.7554V33.753C151.329 14.1965 137.06 0 118.832 0C100.122 0 84.9011 15.219 84.9011 33.9282C84.9011 51.9767 99.0673 66.78 116.866 67.8027C117.174 71.1271 116.941 80.1781 108.261 92.7825C107.605 93.7328 107.724 95.0143 108.539 95.8291C112.075 99.3659 114.265 101.598 115.801 103.16C117.821 105.219 118.743 106.157 120.092 107.38C120.547 107.791 121.124 107.999 121.699 107.999C122.259 107.999 122.817 107.803 123.267 107.411C138.388 94.2532 155.185 67.0674 152.758 33.7554ZM121.722 102.342C121.066 101.696 120.317 100.935 119.212 99.8096C117.881 98.4554 116.063 96.6019 113.306 93.8377C123.837 77.6077 121.85 66.0518 120.982 64.3942C120.569 63.6099 119.719 63.0775 118.832 63.0775C102.758 63.0775 89.6823 50.0016 89.6823 33.9282C89.6823 17.857 102.758 4.78119 118.832 4.78119C134.485 4.78119 146.748 17.1123 147.99 34.1032V34.1009C150.719 71.566 128.45 95.8991 121.722 102.342Z" fill="#F9D66F" fill-opacity="0.4"/>
</svg>
