<svg width="100" height="100" viewBox="0 0 100 100" fill="none" xmlns="http://www.w3.org/2000/svg">
<circle cx="50" cy="50" r="50" fill="white"/>
<path d="M66.8086 35.3803L77.0845 36.1289L77.833 25.8532L74.3116 25.5966L74.0171 29.6395C68.3759 23.5363 60.4325 20 52 20C35.4578 20 22 33.458 22 50C22 66.542 35.458 80 52.0001 80C62.0029 80 71.3179 75.0243 76.9176 66.69L73.9867 64.7209C69.0442 72.0773 60.8249 76.4691 52.0001 76.4691C37.4049 76.4693 25.5309 64.5951 25.5309 50C25.5309 35.4049 37.4048 23.5309 52 23.5309C59.5059 23.5309 66.5724 26.7097 71.5586 32.186L67.0652 31.8587L66.8086 35.3803Z" fill="#FE5757"/>
<path d="M37.2643 54.4301C37.2643 53.295 38.3995 52.5584 40.0124 51.7418C41.8642 50.806 43.1585 49.7307 43.1585 47.4207C43.1585 44.6925 41.4061 43 38.2599 43C35.5517 43 33.5406 44.2943 32.6644 45.29L34.6358 47.4009C35.3525 46.6641 36.5475 45.8277 37.8219 45.8277C38.8572 45.8277 39.5344 46.3853 39.5344 47.4606C39.5344 49.1332 37.8815 49.8501 36.189 50.6068C33.3215 51.9011 32.6245 53.6137 32.6245 57.2976H43.1785V54.4301H37.2643Z" fill="#FE5757"/>
<path d="M53.3739 51.3237V43H51.1836L44.6122 51.3237V54.1712H50.1878V57.1383H53.3739V54.1712H55.1264V51.3237H53.3739ZM50.5463 51.3236H47.7784L50.5463 47.779V51.3236Z" fill="#FE5757"/>
<path d="M63.7485 46.883C62.2152 46.883 60.881 47.5998 60.1242 48.8345V43H56.9381V57.5366H60.1242V51.5429C60.5226 50.4277 61.578 49.6909 62.3346 49.6909C63.2506 49.6909 63.848 50.3083 63.848 51.6624V57.5368H67.0342V50.8459C67.034 49.0338 66.556 46.883 63.7485 46.883Z" fill="#FE5757"/>
</svg>
