<svg width="100" height="100" viewBox="0 0 100 100" fill="none" xmlns="http://www.w3.org/2000/svg">
<circle cx="50" cy="50" r="50" fill="white"/>
<path d="M60.9332 25C56.8568 25 52.9581 26.5474 50 29.2943C47.0419 26.5474 43.1432 25 39.0668 25C30.2075 25 23 32.2075 23 41.0668C23 46.0863 24.4095 51.033 27.1892 55.7696C29.3817 59.5055 32.4271 63.1158 36.241 66.5003C42.6875 72.2211 49.0489 75.2993 49.3165 75.4276L50 75.755L50.6835 75.4276C50.9512 75.2993 57.3125 72.2211 63.759 66.5003C67.5729 63.1158 70.6183 59.5055 72.8108 55.7696C75.5905 51.033 77 46.0863 77 41.0668C77 32.2075 69.7925 25 60.9332 25ZM39.0668 28.1641C42.8023 28.1641 46.3522 29.7824 48.8063 32.604L50 33.9764L51.1937 32.604C53.6478 29.7824 57.1977 28.1641 60.9332 28.1641C68.0478 28.1641 73.8359 33.9522 73.8359 41.0668C73.8359 43.6358 73.4139 46.1912 72.5782 48.7094H66.9285L61.3416 40.0629L55.1723 54.7093L43.6749 36.3579L36.9982 48.7094H27.4218C26.5861 46.1912 26.1641 43.6359 26.1641 41.0668C26.1641 33.9522 31.9522 28.1641 39.0668 28.1641ZM61.7169 64.0822C56.784 68.4724 51.7831 71.285 49.9994 72.225C48.2244 71.2911 43.2679 68.506 38.3412 64.1338C34.7761 60.97 31.9422 57.6172 29.918 54.1681C29.4721 53.4083 29.0662 52.6431 28.6992 51.8735H38.8846L43.8765 42.639L55.7243 61.5499L61.9335 46.8089L65.206 51.8734H71.3007C70.9396 52.6308 70.5409 53.3839 70.1033 54.1317C68.0888 57.5746 65.2673 60.9223 61.7169 64.0822Z" fill="#FE5757"/>
</svg>
