<svg width="111" height="36" fill="none" xmlns="http://www.w3.org/2000/svg"><path fill-rule="evenodd" clip-rule="evenodd" d="M41.782.085c-2.09.408-3.499 2-4.243 4.794-.32 1.2-.508 2.647-.587 4.512-.07 1.669-.025 7.349.066 8.322.131 1.39.428 2.858.782 3.87.533 1.52 1.45 2.852 2.46 3.57.916.652 2.153.945 3.46.818 1.947-.188 3.362-1.149 4.403-2.99l.275-.486v-9.452h-5.44v2.722h3.195v5.867l-.292.38c-.333.435-.98.92-1.435 1.077-.746.256-1.643.272-2.31.041-1.688-.584-2.67-2.688-2.913-6.243-.056-.818-.057-7.11-.001-8.05.14-2.363.506-3.829 1.205-4.832.253-.363.41-.528.695-.726 1.213-.848 2.843-.717 3.787.304.61.66 1.077 2.03 1.232 3.614l.055.557 1.076.016c.591.01 1.09-.004 1.108-.03.018-.027.005-.382-.029-.79-.33-3.987-1.884-6.385-4.452-6.867-.593-.111-1.52-.11-2.097.002zM0 13.012v12.65h9.153v-2.721H2.245V.36H0v12.651zM14.873.438c-.012.043-1.291 5.729-2.843 12.636L9.207 25.632l1.124.016c.617.01 1.132.004 1.143-.011.01-.016.324-1.498.697-3.296l.679-3.267h5.986l.695 3.294.696 3.295h1.133c.623 0 1.133-.021 1.132-.047-.001-.025-1.28-5.711-2.84-12.635L16.814.392l-.96-.016c-.746-.013-.966 0-.981.062zm8.57 12.574v12.65h2.202l.01-9.749.012-9.749 3.535 9.75 3.535 9.749h2.234V.362h-2.202l-.001 9.758c-.002 7.684-.013 9.738-.054 9.66-.03-.055-1.627-4.446-3.55-9.758L25.667.363h-1.112L23.443.36v12.651zm27.07 0v12.65h2.245V20.98c0-3.625-.024-5.834-.109-9.782-.06-2.805-.104-5.108-.097-5.117.007-.01 1.042 4.392 2.3 9.781l2.289 9.8h1.695l.386-1.623c.213-.893 1.25-5.31 2.303-9.814 1.053-4.504 1.922-8.161 1.93-8.126.008.035-.035 2.384-.095 5.22a395.23 395.23 0 0 0-.11 9.75v4.594h2.245V.362h-1.447c-.795 0-1.446.011-1.446.025 0 .043-4.579 20.536-4.593 20.556-.01.015-4.031-17.934-4.483-20.01l-.124-.572h-2.889v12.651zM72.337.438c-.011.043-1.29 5.729-2.843 12.636l-2.822 12.558 1.123.016c.618.01 1.133.003 1.144-.013.012-.017.326-1.5.698-3.295l.678-3.266H76.3l.695 3.294.695 3.295h1.133c.624 0 1.133-.021 1.132-.047 0-.025-1.278-5.711-2.84-12.635L74.279.392l-.96-.016c-.745-.013-.965 0-.981.062zm8.57 12.574v12.65h2.202l.011-9.75.011-9.75 3.536 9.75 3.535 9.75h2.233V.363h-2.202l-.001 9.758c-.001 7.684-.013 9.737-.054 9.66-.029-.055-1.626-4.446-3.55-9.758L83.131.363H82.02L80.908.36v12.651zm13.903 0v12.65h2.201l.011-9.753.011-9.754 3.537 9.754 3.537 9.754h2.23V.362h-2.201l-.011 9.773-.011 9.774-3.54-9.774-3.54-9.773H94.81v12.65zm13.988 0v12.65H111V.363h-2.202v12.65zm-91.749-2.49c.651 3.105 1.192 5.68 1.202 5.722.015.061-.48.078-2.381.078-1.89 0-2.4-.017-2.4-.078-.003-.115 2.349-11.367 2.374-11.366.013 0 .555 2.54 1.205 5.645zm57.464 0c.65 3.105 1.191 5.68 1.203 5.722.016.061-.478.078-2.38.078-1.892 0-2.402-.017-2.402-.078-.002-.116 2.35-11.367 2.375-11.366.012 0 .554 2.54 1.204 5.644zM3.459 31.036c-1.08.163-1.964.785-2.304 1.619a2.475 2.475 0 0 0-.111 1.325c.208.995 1.14 1.768 2.366 1.963.737.117 1.485.048 2.094-.192.33-.13.559-.26.763-.435l.159-.136-.333-.264a3.892 3.892 0 0 0-.356-.265.882.882 0 0 0-.178.112 2.357 2.357 0 0 1-.753.363c-.205.057-.278.065-.637.066-.461.001-.655-.032-.984-.167-.526-.217-.907-.614-1.044-1.09a1.847 1.847 0 0 1 .013-.912c.168-.505.523-.863 1.06-1.07.8-.309 1.736-.197 2.373.284l.145.109.347-.276.347-.275-.215-.17c-.367-.291-.824-.481-1.383-.577a5.604 5.604 0 0 0-1.37-.012zm13.447 0c-.816.128-1.536.508-1.965 1.036a2.758 2.758 0 0 0-.431.8c-.058.188-.067.276-.066.63.001.362.01.437.076.64.4 1.242 1.798 1.988 3.446 1.84 1.315-.12 2.32-.818 2.647-1.84.064-.202.074-.28.076-.64.002-.484-.05-.7-.257-1.068-.308-.548-.726-.9-1.388-1.171-.464-.19-.765-.244-1.39-.255-.375-.005-.585.002-.748.028zm13.723 0c-.804.122-1.396.51-1.57 1.028a1.144 1.144 0 0 0-.051.585.99.99 0 0 0 .365.632c.309.254.649.379 1.548.569.884.187 1.127.261 1.33.404.201.141.26.396.136.591-.303.48-1.584.544-2.619.13a3.637 3.637 0 0 1-.398-.184.461.461 0 0 0-.137-.067c-.005.006-.09.162-.189.349l-.18.338.095.067c.144.102.642.298.934.368.99.238 2.052.195 2.73-.11.284-.128.446-.242.605-.429.423-.495.387-1.175-.084-1.574-.278-.235-.608-.367-1.312-.523-1.193-.265-1.372-.317-1.57-.457-.181-.128-.239-.304-.167-.51.115-.332.51-.494 1.206-.494.52-.001.958.085 1.415.276.115.049.219.08.23.069.052-.05.321-.661.303-.686a1.578 1.578 0 0 0-.285-.133c-.5-.197-.987-.277-1.667-.274a6.148 6.148 0 0 0-.668.035zm64.742-.003c-.77.122-1.457.471-1.897.966a2.246 2.246 0 0 0-.012 2.982c.291.33.773.648 1.216.802.938.326 2.129.277 2.965-.123.202-.097.561-.338.627-.422l.052-.066-.344-.27-.344-.27-.189.144c-.461.353-1.18.506-1.846.391-.786-.135-1.35-.582-1.545-1.224-.08-.267-.064-.77.033-1.01.206-.507.675-.9 1.256-1.053.787-.208 1.562-.083 2.127.343l.164.124.347-.273.346-.274-.144-.125c-.314-.27-.77-.484-1.274-.595-.251-.056-.358-.065-.81-.072a4.868 4.868 0 0 0-.728.025zm12.881-.019c-1.068.138-1.709.619-1.77 1.328-.035.4.087.702.381.941.328.268.578.358 1.6.58.833.181.96.217 1.159.328.308.172.394.385.257.635-.127.233-.412.359-.921.409a3.755 3.755 0 0 1-2.02-.401 1.236 1.236 0 0 0-.222-.106c-.043.036-.358.677-.343.698.042.056.423.242.659.321.775.261 1.839.327 2.566.16.956-.222 1.496-.82 1.388-1.54-.054-.363-.316-.677-.728-.873-.203-.097-.664-.229-1.166-.334-.937-.197-1.154-.264-1.358-.421-.374-.288-.179-.76.382-.923.173-.05.246-.056.686-.056.449 0 .517.006.78.067.158.037.411.116.561.176a2.5 2.5 0 0 0 .281.102c.004-.003.081-.158.172-.343.188-.384.196-.346-.101-.472a4.118 4.118 0 0 0-.782-.223c-.191-.038-.371-.05-.81-.056a11.46 11.46 0 0 0-.651.003zM42.09 33.49v2.442h1.041l.008-1.585.007-1.585.952 1.307.952 1.307h.481l.956-1.336.955-1.336.001 1.523c0 .838.009 1.564.019 1.614l.018.09h1.005l-.007-2.435-.008-2.436h-.893l-1.123 1.596a68.376 68.376 0 0 1-1.145 1.602c-.012.003-.541-.718-1.176-1.602l-1.154-1.608h-.889v2.442zm15.48 0v2.442h4.37v-.75h-3.299v-1.354h2.807v-.749h-2.807v-1.258h3.185l-.008-.381-.008-.38-2.12-.007-2.12-.006v2.442zm12.327-2.055v.386l.963.006.962.007.007 2.049.008 2.049h1.07v-4.11h1.939v-.774h-4.949v.387zM83.15 33.49v2.442h1.071v-4.884H83.15v2.442zM18.1 31.834c.645.124 1.197.551 1.408 1.09.078.198.084.242.084.577 0 .315-.009.385-.067.53-.221.552-.654.919-1.293 1.095-.208.058-.275.064-.665.065-.395 0-.455-.006-.666-.064-.524-.147-.927-.433-1.156-.821a1.426 1.426 0 0 1-.218-.82c0-.5.177-.872.577-1.207.341-.284.658-.418 1.145-.481.216-.028.601-.012.85.036z" fill="#fff"/></svg>