<svg width="82" height="36" viewBox="0 0 82 36" fill="none" xmlns="http://www.w3.org/2000/svg">
<path d="M18 36C27.9411 36 36 27.9411 36 18C36 8.05887 27.9411 0 18 0C8.05887 0 0 8.05887 0 18C0 27.9411 8.05887 36 18 36Z" fill="#FFCC4D"/>
<path d="M10.515 23.621C10.56 23.8 11.683 28 18 28C24.318 28 25.44 23.8 25.485 23.621C25.54 23.404 25.442 23.179 25.248 23.067C25.053 22.956 24.809 22.989 24.648 23.144C24.629 23.163 22.694 25 18 25C13.306 25 11.37 23.163 11.352 23.145C11.256 23.05 11.128 23 11 23C10.916 23 10.831 23.021 10.754 23.064C10.558 23.176 10.46 23.403 10.515 23.621Z" fill="#664500"/>
<path d="M12 17C13.3807 17 14.5 15.433 14.5 13.5C14.5 11.567 13.3807 10 12 10C10.6193 10 9.5 11.567 9.5 13.5C9.5 15.433 10.6193 17 12 17Z" fill="#664500"/>
<path d="M24 17C25.3807 17 26.5 15.433 26.5 13.5C26.5 11.567 25.3807 10 24 10C22.6193 10 21.5 11.567 21.5 13.5C21.5 15.433 22.6193 17 24 17Z" fill="#664500"/>
<path d="M64 36C73.9411 36 82 27.9411 82 18C82 8.05887 73.9411 0 64 0C54.0589 0 46 8.05887 46 18C46 27.9411 54.0589 36 64 36Z" fill="#FFCC4D"/>
<path d="M64 21C60.377 21 57.973 20.578 55 20C54.321 19.869 53 20 53 22C53 26 57.595 31 64 31C70.404 31 75 26 75 22C75 20 73.679 19.868 73 20C70.027 20.578 67.623 21 64 21Z" fill="#664500"/>
<path d="M55 22C55 22 58 23 64 23C70 23 73 22 73 22C73 22 71 26 64 26C57 26 55 22 55 22Z" fill="white"/>
<path d="M58 17C59.3807 17 60.5 15.433 60.5 13.5C60.5 11.567 59.3807 10 58 10C56.6193 10 55.5 11.567 55.5 13.5C55.5 15.433 56.6193 17 58 17Z" fill="#664500"/>
<path d="M70 17C71.3807 17 72.5 15.433 72.5 13.5C72.5 11.567 71.3807 10 70 10C68.6193 10 67.5 11.567 67.5 13.5C67.5 15.433 68.6193 17 70 17Z" fill="#664500"/>
</svg>
