<svg width="24" height="15" viewBox="0 0 24 15" fill="none" xmlns="http://www.w3.org/2000/svg">
<path d="M11.7569 0.180969C7.26432 0.180969 3.19024 2.61548 0.183983 6.56977C-0.0613276 6.89373 -0.0613276 7.34633 0.183983 7.6703C3.19024 11.6294 7.26432 14.0639 11.7569 14.0639C16.2494 14.0639 20.3235 11.6294 23.3298 7.67506C23.5751 7.3511 23.5751 6.8985 23.3298 6.57453C20.3235 2.61548 16.2494 0.180969 11.7569 0.180969ZM12.0791 12.0105C9.09693 12.1963 6.63421 9.76179 6.8218 6.80321C6.97572 4.36394 8.97187 2.3868 11.4346 2.23434C14.4168 2.04854 16.8795 4.48305 16.6919 7.44162C16.5332 9.87613 14.5371 11.8533 12.0791 12.0105ZM11.93 9.75226C10.3235 9.8523 8.99592 8.54215 9.10174 6.9509C9.18351 5.63598 10.261 4.57357 11.5885 4.48781C13.1951 4.38776 14.5226 5.69792 14.4168 7.28916C14.3302 8.60885 13.2528 9.67126 11.93 9.75226Z" fill="#A6A6A6"/>
</svg>
