<svg xmlns="http://www.w3.org/2000/svg" width="248" height="65" viewBox="0 0 248 65">
  <metadata><?xpacket begin="﻿" id="W5M0MpCehiHzreSzNTczkc9d"?>
<x:xmpmeta xmlns:x="adobe:ns:meta/" x:xmptk="Adobe XMP Core 5.6-c142 79.160924, 2017/07/13-01:06:39        ">
   <rdf:RDF xmlns:rdf="http://www.w3.org/1999/02/22-rdf-syntax-ns#">
      <rdf:Description rdf:about=""/>
   </rdf:RDF>
</x:xmpmeta>
                                                                                                    
                                                                                                    
                                                                                                    
                                                                                                    
                                                                                                    
                                                                                                    
                                                                                                    
                                                                                                    
                                                                                                    
                                                                                                    
                                                                                                    
                                                                                                    
                                                                                                    
                                                                                                    
                                                                                                    
                                                                                                    
                                                                                                    
                                                                                                    
                                                                                                    
                                                                                                    
                           
<?xpacket end="w"?></metadata>
<defs>
    <style>
      .cls-1 {
        fill: #e77e34;
        fill-rule: evenodd;
      }
    </style>
  </defs>
  <path class="cls-1" d="M179.306,45.3c-4.3,0-6.614-3.25-6.614-7.659,0-5.25,2.282-8.091,6.846-8.091,3.191,0,6.847,2.273,6.847,4.545h4.564c0-4.545-4.564-9.091-11.411-9.091s-11.41,4.591-11.41,12.636c0,7.818,4.589,12.2,11.41,12.2a9.567,9.567,0,0,0,6.847-2.787V50h4.564V36.443H180.778v4.545h4.567C185.244,43.182,182.135,45.3,179.306,45.3ZM197.8,50l6.846-17.213L211.487,50h4.564l-9.265-24.64H202.5L193.231,50H197.8ZM74.564,50V26.136H70V50h4.564Zm9.128-23.864H79.128V50h4.564V36.725L89.4,50h4.564l5.705-13.275V50h4.564V26.136H99.667L91.68,43.325Zm148.334,0h-4.564V50h4.564V33.643L243.436,50H248V26.136h-4.564V42.494Zm-9.129,0V50h-4.564V26.136H222.9Zm-109.538,0H108.8V50h4.564V36.725L119.265,49.8h4.162l5.906-13.071V50H133.9V26.136h-4.564l-7.987,17.189Zm25.1,15.153V42.3h0c0-.086,0-0.223,0-0.189a6.962,6.962,0,0,0,.167,1.305,8.151,8.151,0,0,0,1.128,2.711c1.391,2.132,4,3.875,8.4,3.875s7.012-1.743,8.4-3.875a8.13,8.13,0,0,0,1.128-2.711,6.811,6.811,0,0,0,.168-1.356V26.136h-4.564V42.018a3.383,3.383,0,0,1-.559,1.63c-0.463.709-1.557,1.807-4.576,1.807s-4.113-1.1-4.576-1.807a3.41,3.41,0,0,1-.558-1.63V26.136h-4.564C138.462,35.582,138.461,39.63,138.461,41.289ZM44.77,37.754V35.591H27.911v5.994h9.274c-0.6,4.69-5.954,8.617-10.4,8.617-7.746,0-11.614-6.331-11.614-13.487,0-6.852,3.016-14.236,10.865-14.236a10.979,10.979,0,0,1,10.49,6.741c1.5,0.013,7.8.02,7.794,0.013v0l0-.009,0-.022L44.3,29.142c-0.009-.043-0.021-0.1-0.036-0.16-0.03-.127-0.072-0.3-0.129-0.5-0.093-.335-0.227-0.77-0.411-1.277l2.59,0.005,3.2,0h1.923a6.475,6.475,0,0,0-.253-1.74c-2.9-10.341-11.924-16.538-22.15-17.623V0H23.04V7.818C8.5,9.308,0,22.615,0,36.851,0,52.5,9.486,65,25.78,65c7.316,0,12.987-3.458,16.936-6.935v5.164h9.358V37.754H44.77Zm-1.877,18.63c-3.865,3.648-9.6,7.492-17.113,7.492C10.1,63.876,1.124,51.887,1.124,36.851c0-13.622,8.018-26.413,21.916-27.9v4.539h5.994V8.978c9.952,1.076,18.21,7.115,21.075,17.109h-0.6l-3.2,0-3.039-.006c-3.039-7.009-9.7-10.346-17.241-10.346C14.41,15.735,7.68,25.926,7.68,36.715c0,11.185,6.659,20.231,18.357,20.231,5.62,0,9.887-2.9,12.738-5.607V56.2h4.317Zm8.058,5.721H43.84V56.2H44.77V38.877h6.182V62.105ZM26.037,25.476a3.746,3.746,0,1,0,3.746,3.746A3.746,3.746,0,0,0,26.037,25.476Z"/>
</svg>
