<svg width="75" height="75" viewBox="0 0 75 75" fill="none" xmlns="http://www.w3.org/2000/svg">
<rect width="75" height="75" fill="white"/>
<g clip-path="url(#clip0)">
<path d="M56 25.8377C54.6613 26.425 53.2347 26.8142 51.7475 27.0032C53.2775 26.0897 54.4453 24.6542 54.9943 22.924C53.5678 23.7745 51.9927 24.3753 50.3142 24.7105C48.9597 23.2683 47.0292 22.375 44.9232 22.375C40.8372 22.375 37.5477 25.6915 37.5477 29.7573C37.5477 30.3423 37.5972 30.9047 37.7188 31.4402C31.583 31.141 26.1537 28.2003 22.5065 23.7205C21.8697 24.8253 21.4963 26.0898 21.4963 27.451C21.4963 30.007 22.8125 32.2727 24.7745 33.5845C23.5887 33.562 22.4255 33.2178 21.44 32.6755C21.44 32.698 21.44 32.7273 21.44 32.7565C21.44 36.343 23.9982 39.322 27.353 40.0082C26.7522 40.1725 26.0975 40.2512 25.418 40.2512C24.9455 40.2512 24.4685 40.2243 24.0208 40.1252C24.977 43.048 27.6905 45.1967 30.917 45.2665C28.406 47.2307 25.2178 48.4142 21.7663 48.4142C21.161 48.4142 20.5805 48.3872 20 48.313C23.2692 50.4212 27.1438 51.625 31.322 51.625C44.903 51.625 52.328 40.375 52.328 30.6235C52.328 30.2972 52.3167 29.9823 52.301 29.6695C53.7658 28.63 54.9965 27.3317 56 25.8377Z" fill="#1C1C1C"/>
</g>
<defs>
<clipPath id="clip0">
<rect width="36" height="36" fill="white" transform="translate(20 19)"/>
</clipPath>
</defs>
</svg>
