<svg width="240" height="21" viewBox="0 0 240 21" fill="none" xmlns="http://www.w3.org/2000/svg">
<path d="M15.8936 13.1738C15.6201 13.2031 15.3418 13.2178 15.0586 13.2178C14.6094 12.2803 14.2383 11.626 13.9453 11.2549C13.6523 10.8838 13.3105 10.6445 12.9199 10.5371C12.5391 10.4297 11.9189 10.376 11.0596 10.376H7.41211V16.2207C7.41211 16.9727 7.48535 17.5293 7.63184 17.8906C7.77832 18.2422 7.97363 18.4766 8.21777 18.5938C8.47168 18.7012 8.85254 18.7939 9.36035 18.8721C9.72168 18.9307 10.0146 18.9844 10.2393 19.0332C10.4736 19.0723 10.7227 19.1406 10.9863 19.2383V20H1.11328L1.08398 19.2383C1.31836 19.1309 1.54297 19.0479 1.75781 18.9893C1.97266 18.9307 2.1582 18.8867 2.31445 18.8574C2.48047 18.8184 2.58789 18.7939 2.63672 18.7842C3.07617 18.6963 3.39844 18.5986 3.60352 18.4912C3.80859 18.374 3.96973 18.1445 4.08691 17.8027C4.2041 17.4512 4.2627 16.9092 4.2627 16.1768V5.04395C4.2627 4.25293 4.19434 3.67187 4.05762 3.30078C3.93066 2.91992 3.74023 2.66113 3.48633 2.52441C3.24219 2.37793 2.8418 2.22656 2.28516 2.07031C1.76758 1.93359 1.33789 1.80176 0.996094 1.6748V0.927734L15.6592 0.913086L18.1201 0.883789V5.4248L17.4609 5.4541C17.3145 5.28809 17.1826 5.1123 17.0654 4.92676C16.9482 4.73145 16.8018 4.46777 16.626 4.13574C16.4014 3.71582 16.2061 3.38379 16.04 3.13965C15.874 2.88574 15.6641 2.66113 15.4102 2.46582C15.166 2.27051 14.873 2.14844 14.5312 2.09961C14.0723 2.03125 13.6084 1.99219 13.1396 1.98242C12.6807 1.96289 12.1045 1.95312 11.4111 1.95312H8.59863C8.22754 1.95312 7.96387 1.97266 7.80762 2.01172C7.66113 2.05078 7.55859 2.14355 7.5 2.29004C7.44141 2.42676 7.41211 2.66602 7.41211 3.00781V9.2627C7.83203 9.2627 8.40332 9.27246 9.12598 9.29199C9.77051 9.31152 10.2393 9.32129 10.5322 9.32129C11.6846 9.32129 12.6318 9.22363 13.374 9.02832C13.6963 8.94043 13.9453 8.77441 14.1211 8.53027C14.3066 8.27637 14.4922 7.92969 14.6777 7.49023C14.707 7.42188 14.7559 7.31445 14.8242 7.16797C14.8926 7.01172 14.9609 6.87988 15.0293 6.77246L15.8936 6.80176V13.1738ZM21.3574 14.1113C21.4551 14.2773 21.5332 14.4482 21.5918 14.624C21.6602 14.7998 21.7334 15.0293 21.8115 15.3125C21.8506 15.4102 21.8848 15.5225 21.9141 15.6494C22.2559 16.7725 22.9053 17.6367 23.8623 18.2422C24.8193 18.8477 25.9131 19.1504 27.1436 19.1504C27.7881 19.1504 28.4131 19.0381 29.0186 18.8135C29.6338 18.5791 30.1367 18.2324 30.5273 17.7734C30.9277 17.3047 31.1279 16.7383 31.1279 16.0742C31.1279 15.498 30.9229 14.9609 30.5127 14.4629C30.1123 13.9648 29.6094 13.5205 29.0039 13.1299C28.4082 12.7295 27.583 12.2363 26.5283 11.6504C25.2881 10.9668 24.2822 10.3613 23.5107 9.83398C22.7393 9.30664 22.085 8.68164 21.5479 7.95898C21.0107 7.22656 20.7422 6.40137 20.7422 5.4834C20.7422 4.35059 21.0596 3.41797 21.6943 2.68555C22.3389 1.94336 23.1592 1.40625 24.1553 1.07422C25.1611 0.732422 26.2207 0.561523 27.334 0.561523C28.291 0.561523 29.2432 0.678711 30.1904 0.913086C31.1475 1.14746 32.0557 1.48438 32.915 1.92383L33.1055 6.09863H32.1973C32.0801 5.87402 31.9434 5.51758 31.7871 5.0293L31.6406 4.60449C31.3086 3.64746 30.7324 2.9248 29.9121 2.43652C29.1016 1.93848 28.1641 1.68945 27.0996 1.68945C26.5527 1.68945 26.001 1.78223 25.4443 1.96777C24.8877 2.15332 24.4189 2.44141 24.0381 2.83203C23.667 3.21289 23.4814 3.68652 23.4814 4.25293C23.4814 4.78027 23.6768 5.27344 24.0674 5.73242C24.458 6.19141 24.9414 6.61133 25.5176 6.99219C26.0938 7.36328 26.8896 7.83203 27.9053 8.39844C29.2041 9.12109 30.2539 9.76074 31.0547 10.3174C31.8652 10.8643 32.5537 11.5283 33.1201 12.3096C33.6963 13.0908 33.9844 13.9746 33.9844 14.9609C33.9844 16.1816 33.6475 17.2021 32.9736 18.0225C32.2998 18.833 31.4258 19.4287 30.3516 19.8096C29.2871 20.1904 28.1543 20.3809 26.9531 20.3809C25.8789 20.3809 24.7217 20.249 23.4814 19.9854C22.251 19.7119 21.2549 19.3408 20.4932 18.8721V14.1406L21.3574 14.1113ZM41.3965 12.207L41.1182 12.9102C40.6787 14.0527 40.332 14.9951 40.0781 15.7373C39.8242 16.4697 39.6973 17.0361 39.6973 17.4365C39.6973 17.7881 39.8242 18.0762 40.0781 18.3008C40.3418 18.5254 40.6396 18.6914 40.9717 18.7988C41.3135 18.9062 41.7285 19.0088 42.2168 19.1064L42.4951 19.165V20H35.5811V19.2383C35.7178 19.1309 35.8545 19.043 35.9912 18.9746C36.1377 18.8965 36.3184 18.8135 36.5332 18.7256C36.875 18.5889 37.1484 18.4473 37.3535 18.3008C37.5684 18.1543 37.7588 17.9248 37.9248 17.6123C38.0225 17.417 38.1201 17.1973 38.2178 16.9531C38.3252 16.6992 38.3936 16.5332 38.4229 16.4551L38.5986 16.001L44.0771 1.96777C44.1162 1.86035 44.1455 1.6748 44.165 1.41113C44.1748 1.21582 44.1895 1.05957 44.209 0.942383C44.2383 0.81543 44.2871 0.703125 44.3555 0.605469C44.834 0.605469 45.2441 0.654297 45.5859 0.751953C45.9375 0.849609 46.2891 1.03027 46.6406 1.29395L53.3643 17.4219C53.4912 17.7246 53.6377 17.9688 53.8037 18.1543C53.9697 18.3301 54.1406 18.4668 54.3164 18.5645C54.502 18.6523 54.751 18.7598 55.0635 18.8867C55.3271 18.9746 55.6055 19.0918 55.8984 19.2383L55.8691 20H47.3438L47.3145 19.2383C47.7734 19.1016 48.1641 18.9648 48.4863 18.8281C48.8184 18.6914 49.1162 18.501 49.3799 18.2568C49.6436 18.0127 49.7754 17.7148 49.7754 17.3633C49.7754 16.9727 49.2871 15.5225 48.3105 13.0127C48.252 12.8662 48.1934 12.7246 48.1348 12.5879C48.0859 12.4512 48.042 12.3242 48.0029 12.207H41.3965ZM44.5752 3.71094L41.8945 10.918H47.4609L44.5752 3.71094ZM63.0029 16.2646C63.0029 16.9873 63.0664 17.5195 63.1934 17.8613C63.3203 18.2031 63.4912 18.4277 63.7061 18.5352C63.9307 18.6426 64.2725 18.7402 64.7314 18.8281C65.3174 18.9258 65.8252 19.0625 66.2549 19.2383L66.2256 20H56.792C56.7822 19.9219 56.7725 19.8193 56.7627 19.6924C56.7529 19.5654 56.748 19.4141 56.748 19.2383C57.0215 19.1211 57.2705 19.0332 57.4951 18.9746C57.7295 18.916 57.998 18.8525 58.3008 18.7842C58.7402 18.6963 59.0576 18.5938 59.2529 18.4766C59.4482 18.3594 59.5947 18.1299 59.6924 17.7881C59.7998 17.4365 59.8535 16.8799 59.8535 16.1182V4.79492C59.8535 4.08203 59.7949 3.55469 59.6777 3.21289C59.5605 2.86133 59.3945 2.62695 59.1797 2.50977C58.9648 2.38281 58.6328 2.26074 58.1836 2.14355C57.9785 2.09473 57.749 2.03125 57.4951 1.95312C57.2412 1.875 56.9971 1.78223 56.7627 1.6748L56.792 0.927734H66.2109L66.2402 1.68945C65.8008 1.88477 65.293 2.04102 64.7168 2.1582C64.2578 2.25586 63.916 2.36816 63.6914 2.49512C63.4766 2.6123 63.3057 2.84668 63.1787 3.19824C63.0615 3.5498 63.0029 4.08691 63.0029 4.80957V9.57031H73.4619V4.66309C73.4619 3.99902 73.4033 3.50586 73.2861 3.18359C73.1689 2.86133 73.0078 2.6416 72.8027 2.52441C72.5977 2.39746 72.2803 2.27539 71.8506 2.1582C71.3232 2.02148 70.8691 1.86035 70.4883 1.6748L70.5176 0.927734H79.7021L79.7314 1.68945C79.3018 1.83594 78.8867 1.95801 78.4863 2.05566C77.9492 2.20215 77.5635 2.34375 77.3291 2.48047C77.0947 2.61719 76.9141 2.86621 76.7871 3.22754C76.6699 3.58887 76.6113 4.15039 76.6113 4.91211V16.0889C76.6113 16.8701 76.665 17.4414 76.7725 17.8027C76.8799 18.1543 77.041 18.3936 77.2559 18.5205C77.4805 18.6377 77.8467 18.75 78.3545 18.8574C78.9209 18.9844 79.3799 19.1113 79.7314 19.2383V20H70.5176L70.4883 19.2383C70.7324 19.1016 70.9521 19.0039 71.1475 18.9453C71.3525 18.8867 71.626 18.8232 71.9678 18.7549C72.3584 18.6865 72.6465 18.5986 72.832 18.4912C73.0273 18.3838 73.1787 18.1689 73.2861 17.8467C73.4033 17.5146 73.4619 17.002 73.4619 16.3086V10.8447H63.0029V16.2646ZM88.1982 16.1914C88.1982 16.9336 88.2617 17.4805 88.3887 17.832C88.5254 18.1836 88.7061 18.418 88.9307 18.5352C89.165 18.6523 89.5312 18.7549 90.0293 18.8428C90.6055 18.9404 91.1182 19.0674 91.5674 19.2236L91.5381 20H81.7969V19.2383C82.0801 19.1113 82.334 19.0234 82.5586 18.9746C82.793 18.916 83.0859 18.8574 83.4375 18.7988C83.877 18.7402 84.1992 18.6572 84.4043 18.5498C84.6094 18.4326 84.7656 18.1787 84.873 17.7881C84.9902 17.3975 85.0488 16.7773 85.0488 15.9277V4.91211C85.0488 4.11133 84.9805 3.52051 84.8438 3.13965C84.707 2.75879 84.5264 2.51465 84.3018 2.40723C84.0869 2.2998 83.7646 2.2168 83.335 2.1582C82.9834 2.09961 82.6904 2.04102 82.4561 1.98242C82.2314 1.92383 81.9922 1.82129 81.7383 1.6748L81.7676 0.927734H91.4795L91.5088 1.68945C91.3037 1.76758 91.0107 1.85059 90.6299 1.93848C90.0928 2.0752 89.6631 2.21191 89.3408 2.34863C89.0186 2.48535 88.7451 2.7002 88.5205 2.99316C88.3057 3.27637 88.1982 3.66699 88.1982 4.16504V16.1914ZM104.355 0.561523C106.191 0.561523 107.876 0.97168 109.409 1.79199C110.942 2.6123 112.158 3.7793 113.057 5.29297C113.965 6.79688 114.419 8.53516 114.419 10.5078C114.419 12.4414 113.95 14.1602 113.013 15.6641C112.085 17.1582 110.83 18.3203 109.248 19.1504C107.666 19.9707 105.938 20.3809 104.062 20.3809C102.334 20.3809 100.718 19.9854 99.2139 19.1943C97.71 18.4033 96.499 17.2705 95.5811 15.7959C94.6729 14.3213 94.2188 12.6123 94.2188 10.6689C94.2188 8.53027 94.6973 6.69922 95.6543 5.17578C96.6211 3.65234 97.876 2.50488 99.4189 1.7334C100.972 0.952148 102.617 0.561523 104.355 0.561523ZM104.839 19.2529C106.011 19.2529 107.065 18.9404 108.003 18.3154C108.94 17.6904 109.673 16.7871 110.2 15.6055C110.737 14.4238 111.006 13.0322 111.006 11.4307C111.006 9.61426 110.703 7.96875 110.098 6.49414C109.492 5.00977 108.643 3.83789 107.549 2.97852C106.465 2.11914 105.229 1.68945 103.843 1.68945C102.7 1.68945 101.655 1.9873 100.708 2.58301C99.7705 3.16895 99.0234 4.04785 98.4668 5.21973C97.9102 6.3916 97.6318 7.80273 97.6318 9.45312C97.6318 11.2891 97.9395 12.9541 98.5547 14.4482C99.1699 15.9424 100.024 17.1191 101.118 17.9785C102.222 18.8281 103.462 19.2529 104.839 19.2529ZM120.806 4.01855C120.552 3.6084 120.288 3.28125 120.015 3.03711C119.741 2.79297 119.468 2.60742 119.194 2.48047C118.921 2.35352 118.555 2.21191 118.096 2.05566C117.656 1.90918 117.314 1.78711 117.07 1.68945V0.927734H122.183L135.967 15.1807V5.9668C135.967 5.03906 135.835 4.19434 135.571 3.43262C135.464 3.12012 135.317 2.87598 135.132 2.7002C134.946 2.52441 134.746 2.39746 134.531 2.31934C134.316 2.24121 134.028 2.1582 133.667 2.07031C133.608 2.05078 133.457 2.01172 133.213 1.95312C132.979 1.88477 132.764 1.80176 132.568 1.7041C132.568 1.4502 132.583 1.19141 132.612 0.927734H140.332V1.71875C140.059 1.8457 139.775 1.96777 139.482 2.08496C138.77 2.39746 138.276 2.65625 138.003 2.86133C137.729 3.06641 137.534 3.38867 137.417 3.82812C137.31 4.25781 137.251 4.96582 137.241 5.95215C137.241 6.4502 137.231 7.1875 137.212 8.16406C137.202 8.90625 137.192 9.83398 137.183 10.9473C137.173 12.0508 137.168 13.3447 137.168 14.8291C137.168 15.4736 137.227 16.4307 137.344 17.7002C137.441 18.7744 137.495 19.585 137.505 20.1318C137.319 20.2002 137.08 20.2344 136.787 20.2344C136.475 20.2344 136.196 20.2002 135.952 20.1318C135.249 19.2725 134.448 18.3594 133.55 17.3926L121.978 5.21973V15.5029C121.978 16.1572 122.061 16.8164 122.227 17.4805C122.305 17.8125 122.446 18.0713 122.651 18.2568C122.856 18.4326 123.076 18.5596 123.311 18.6377C123.555 18.7158 123.882 18.7939 124.292 18.8721C124.858 18.96 125.278 19.0771 125.552 19.2236C125.552 19.4775 125.537 19.7363 125.508 20H117.246C117.227 19.8242 117.217 19.5605 117.217 19.209L117.891 19.0332C118.516 18.877 119.009 18.7256 119.37 18.5791C119.741 18.4326 120.059 18.1934 120.322 17.8613C120.596 17.5293 120.757 17.0752 120.806 16.499V4.01855ZM162.041 4.31152L161.689 3.41797C161.533 3.02734 161.411 2.73437 161.323 2.53906C161.206 2.44141 160.806 2.26074 160.122 1.99707C159.585 1.78223 159.199 1.62109 158.965 1.51367C158.73 1.40625 158.613 1.30859 158.613 1.2207C158.613 1.20117 158.628 1.15234 158.657 1.07422C158.687 0.996094 158.706 0.947266 158.716 0.927734H168.12C168.13 0.957031 168.145 1.00586 168.164 1.07422C168.193 1.14258 168.208 1.19141 168.208 1.2207C168.208 1.44531 168.101 1.5918 167.886 1.66016C167.681 1.72852 167.354 1.78223 166.904 1.82129C166.406 1.86035 166.03 1.92871 165.776 2.02637C165.522 2.11426 165.396 2.30469 165.396 2.59766C165.396 2.80273 165.942 4.63379 167.036 8.09082C168.14 11.5479 168.867 13.7842 169.219 14.7998L169.629 13.5547C171.914 6.72852 173.057 3.08105 173.057 2.6123C173.057 2.30957 172.91 2.09961 172.617 1.98242C172.324 1.85547 171.895 1.75293 171.328 1.6748C171.094 1.64551 170.864 1.60645 170.64 1.55762C170.415 1.50879 170.239 1.4502 170.112 1.38184L170.024 1.2207L170.112 0.927734H177.686C177.725 0.927734 177.773 0.947266 177.832 0.986328C177.891 1.01562 177.93 1.0498 177.949 1.08887C177.949 1.23535 177.837 1.35254 177.612 1.44043C177.388 1.51855 177.026 1.61133 176.528 1.71875C175.796 1.875 175.215 2.0459 174.785 2.23145C174.355 2.40723 174.072 2.68066 173.936 3.05176C173.828 3.35449 173.716 3.70605 173.599 4.10645C173.481 4.49707 173.398 4.77539 173.35 4.94141C173.291 5.17578 173.242 5.35156 173.203 5.46875L168.823 19.9854C168.765 20.1807 168.56 20.2783 168.208 20.2783C168.052 20.2783 167.92 20.2588 167.812 20.2197C167.715 20.1807 167.637 20.1025 167.578 19.9854C167.393 19.624 167.207 19.0918 167.021 18.3887L166.758 17.5537L162.598 5.43945L158.804 16.3525C158.716 16.5967 158.594 16.9922 158.438 17.5391C158.252 18.1543 158.096 18.6377 157.969 18.9893C157.842 19.3408 157.7 19.6729 157.544 19.9854C157.485 20.1123 157.407 20.1953 157.31 20.2344C157.212 20.2832 157.085 20.3076 156.929 20.3076C156.636 20.3076 156.387 20.1025 156.182 19.6924C155.977 19.2822 155.771 18.7549 155.566 18.1104L155.42 17.6416L153.413 12.2656C152.329 9.31641 151.23 6.38672 150.117 3.47656C149.961 3.07617 149.731 2.77832 149.429 2.58301C149.136 2.37793 148.74 2.18262 148.242 1.99707C147.871 1.86035 147.588 1.74316 147.393 1.64551C147.197 1.54785 147.017 1.41602 146.851 1.25L146.953 0.927734H156.372C156.382 0.957031 156.396 1.00586 156.416 1.07422C156.436 1.13281 156.445 1.18164 156.445 1.2207C156.445 1.41602 156.348 1.55273 156.152 1.63086C155.967 1.69922 155.684 1.75781 155.303 1.80664C154.834 1.86523 154.473 1.95312 154.219 2.07031C153.975 2.17773 153.853 2.38281 153.853 2.68555C153.853 2.82227 154.375 4.375 155.42 7.34375C156.475 10.3125 157.368 12.8076 158.101 14.8291L162.041 4.31152ZM194.897 20.1318C194.741 20.1611 194.585 20.1758 194.429 20.1758C194.243 20.1758 193.965 20.1465 193.594 20.0879C193.223 20.0293 192.939 20 192.744 20H177.715L177.686 19.2822C177.988 19.1162 178.267 18.999 178.521 18.9307C178.784 18.8525 179.072 18.7891 179.385 18.7402C179.775 18.6719 180.059 18.584 180.234 18.4766C180.42 18.3691 180.562 18.1396 180.659 17.7881C180.757 17.4268 180.806 16.8604 180.806 16.0889V5C180.806 4.23828 180.742 3.67676 180.615 3.31543C180.498 2.9541 180.322 2.70508 180.088 2.56836C179.854 2.42188 179.463 2.26562 178.916 2.09961C178.828 2.07031 178.657 2.0166 178.403 1.93848C178.159 1.86035 177.92 1.77246 177.686 1.6748L177.715 0.927734H192.656C192.793 0.927734 192.939 0.917969 193.096 0.898438C193.262 0.878906 193.379 0.864258 193.447 0.854492C193.74 0.805664 194.004 0.78125 194.238 0.78125C194.443 0.78125 194.624 0.800781 194.78 0.839844V5.39551L194.019 5.4248C193.853 5.25879 193.716 5.07324 193.608 4.86816C193.501 4.66309 193.379 4.39453 193.242 4.0625C193.047 3.57422 192.852 3.19336 192.656 2.91992C192.471 2.64648 192.192 2.44629 191.821 2.31934C191.274 2.14355 190.596 2.03125 189.785 1.98242C188.975 1.93359 188.037 1.90918 186.973 1.90918C185.723 1.90918 184.736 1.95312 184.014 2.04102C183.975 2.48047 183.955 2.9834 183.955 3.5498V9.49707H188.174C188.945 9.49707 189.521 9.43848 189.902 9.32129C190.283 9.2041 190.576 9.01367 190.781 8.75C190.996 8.48633 191.289 8.01758 191.66 7.34375L191.88 6.94824H192.715V13.2324L191.88 13.2764C191.567 12.4365 191.167 11.7822 190.679 11.3135C190.2 10.8447 189.556 10.6104 188.745 10.6104H183.955V15.5469C183.955 16.5723 184.072 17.3291 184.307 17.8174C184.551 18.3057 184.897 18.623 185.347 18.7695C185.806 18.9062 186.455 18.9746 187.295 18.9746H188.73C189.961 18.9746 191.021 18.8379 191.909 18.5645C192.808 18.2812 193.472 17.71 193.901 16.8506L194.106 16.3965C194.282 16.0156 194.424 15.7324 194.531 15.5469C194.639 15.3516 194.775 15.166 194.941 14.9902H195.864L194.897 20.1318ZM215.2 20.1318C215.044 20.1611 214.888 20.1758 214.731 20.1758C214.546 20.1758 214.268 20.1465 213.896 20.0879C213.525 20.0293 213.242 20 213.047 20H198.018L197.988 19.2822C198.291 19.1162 198.569 18.999 198.823 18.9307C199.087 18.8525 199.375 18.7891 199.688 18.7402C200.078 18.6719 200.361 18.584 200.537 18.4766C200.723 18.3691 200.864 18.1396 200.962 17.7881C201.06 17.4268 201.108 16.8604 201.108 16.0889V5C201.108 4.23828 201.045 3.67676 200.918 3.31543C200.801 2.9541 200.625 2.70508 200.391 2.56836C200.156 2.42188 199.766 2.26562 199.219 2.09961C199.131 2.07031 198.96 2.0166 198.706 1.93848C198.462 1.86035 198.223 1.77246 197.988 1.6748L198.018 0.927734H212.959C213.096 0.927734 213.242 0.917969 213.398 0.898438C213.564 0.878906 213.682 0.864258 213.75 0.854492C214.043 0.805664 214.307 0.78125 214.541 0.78125C214.746 0.78125 214.927 0.800781 215.083 0.839844V5.39551L214.321 5.4248C214.155 5.25879 214.019 5.07324 213.911 4.86816C213.804 4.66309 213.682 4.39453 213.545 4.0625C213.35 3.57422 213.154 3.19336 212.959 2.91992C212.773 2.64648 212.495 2.44629 212.124 2.31934C211.577 2.14355 210.898 2.03125 210.088 1.98242C209.277 1.93359 208.34 1.90918 207.275 1.90918C206.025 1.90918 205.039 1.95312 204.316 2.04102C204.277 2.48047 204.258 2.9834 204.258 3.5498V9.49707H208.477C209.248 9.49707 209.824 9.43848 210.205 9.32129C210.586 9.2041 210.879 9.01367 211.084 8.75C211.299 8.48633 211.592 8.01758 211.963 7.34375L212.183 6.94824H213.018V13.2324L212.183 13.2764C211.87 12.4365 211.47 11.7822 210.981 11.3135C210.503 10.8447 209.858 10.6104 209.048 10.6104H204.258V15.5469C204.258 16.5723 204.375 17.3291 204.609 17.8174C204.854 18.3057 205.2 18.623 205.649 18.7695C206.108 18.9062 206.758 18.9746 207.598 18.9746H209.033C210.264 18.9746 211.323 18.8379 212.212 18.5645C213.11 18.2812 213.774 17.71 214.204 16.8506L214.409 16.3965C214.585 16.0156 214.727 15.7324 214.834 15.5469C214.941 15.3516 215.078 15.166 215.244 14.9902H216.167L215.2 20.1318ZM226.04 9.36523L232.72 2.74414C232.759 2.62695 232.778 2.51953 232.778 2.42188C232.778 2.14844 232.661 1.96777 232.427 1.87988C232.192 1.79199 231.836 1.72363 231.357 1.6748C230.977 1.63574 230.693 1.58691 230.508 1.52832C230.332 1.46973 230.244 1.35742 230.244 1.19141C230.244 1.16211 230.269 1.07422 230.317 0.927734H238.579L238.638 1.19141C238.638 1.31836 238.452 1.44531 238.081 1.57227C237.71 1.69922 237.202 1.83105 236.558 1.96777C235.62 2.17285 234.927 2.46094 234.478 2.83203L228.794 8.66211L235.649 18.0957C235.776 18.2324 235.991 18.3643 236.294 18.4912C236.606 18.6084 237.021 18.75 237.539 18.916C238.086 19.082 238.501 19.2285 238.784 19.3555C239.077 19.4824 239.224 19.6094 239.224 19.7363C239.224 19.8438 239.204 19.9316 239.165 20H229.146C229.087 19.873 229.058 19.79 229.058 19.751C229.058 19.6045 229.146 19.502 229.321 19.4434C229.507 19.375 229.795 19.3115 230.186 19.2529C230.654 19.1846 231.006 19.1064 231.24 19.0186C231.484 18.9209 231.606 18.75 231.606 18.5059C231.606 18.4082 231.523 18.252 231.357 18.0371L226.099 10.332H224.78V18.1836C224.78 18.4863 224.878 18.7158 225.073 18.8721C225.278 19.0186 225.522 19.1162 225.806 19.165C226.089 19.2041 226.45 19.2334 226.89 19.2529C227.368 19.2822 227.715 19.3262 227.93 19.3848C228.145 19.4336 228.252 19.5459 228.252 19.7217C228.252 19.7412 228.228 19.834 228.179 20H218.364C218.325 19.8828 218.306 19.7998 218.306 19.751C218.306 19.585 218.413 19.4727 218.628 19.4141C218.843 19.3457 219.17 19.2871 219.609 19.2383C220.039 19.1797 220.386 19.1211 220.649 19.0625C220.913 19.0039 221.143 18.8965 221.338 18.7402C221.533 18.584 221.631 18.3691 221.631 18.0957V2.91992C221.631 2.53906 221.45 2.27051 221.089 2.11426C220.728 1.95801 220.22 1.83105 219.565 1.7334C219.116 1.65527 218.789 1.58203 218.584 1.51367C218.389 1.44531 218.291 1.33789 218.291 1.19141C218.291 1.16211 218.315 1.07422 218.364 0.927734H228.12C228.159 1.05469 228.179 1.1377 228.179 1.17676C228.179 1.34277 228.071 1.45996 227.856 1.52832C227.642 1.59668 227.305 1.66504 226.846 1.7334C226.406 1.80176 226.05 1.87012 225.776 1.93848C225.503 2.00684 225.269 2.11914 225.073 2.27539C224.878 2.43164 224.78 2.64648 224.78 2.91992V9.36523H226.04Z" fill="black"/>
</svg>
