<svg width="123" height="75" viewBox="0 0 123 75" fill="none" xmlns="http://www.w3.org/2000/svg">
<g opacity="0.8">
<path d="M125.343 140.266C118.177 123.5 109.224 104.746 90.3961 98.9518C73.0421 93.4904 55.1477 99.7256 37.5819 100.826C32.2507 99.6575 26.8507 98.7307 21.4625 98.0687C25.2366 96.4416 29.0567 94.6532 32.7961 92.842C43.6257 89.9987 54.7443 88.2833 65.8871 87.7075C67.4757 87.6368 69.0643 87.566 70.6528 87.4953C87.6685 99.6569 109.814 96.5485 128.977 92.5914C129.449 92.4642 129.851 91.3587 129.413 91.0598C120.14 85.3712 109.888 79.7527 98.7902 78.947C92.8037 78.5504 86.9226 79.9265 81.2145 81.6132C74.931 83.4847 68.7393 85.0338 62.271 86.3299C62.271 86.3299 62.271 86.3299 62.1674 86.3875C54.3629 86.8677 46.6626 87.9004 39.1242 89.589C42.7024 87.7318 46.2 85.8517 49.6629 83.7875C67.8271 82.4215 85.91 80.4225 100.229 67.7675C112.351 57.0143 119.933 42.0065 122.058 25.9683C122.103 25.8071 121.999 25.2546 121.712 25.347C120.952 25.5665 120.192 25.7861 119.433 26.0056C119.065 26.075 118.755 26.8582 118.778 27.3877C102.728 35.7161 83.3049 33.2384 67.5777 42.2686C60.9279 46.04 56.2945 51.605 53.3433 58.6073C50.128 66.2315 48.5366 74.5792 44.0775 81.6752C44.0316 81.8364 43.9051 81.9747 43.8133 82.2971C20.4107 94.1097 6.20997 98.6948 5.53102 98.9373C3.75896 99.6529 2.62508 105.168 5.34085 104.198C9.59865 102.709 13.7988 101.116 18.0219 99.4422C25.2752 100.286 32.4138 101.534 39.4607 103.103C49.8928 116.354 61.3728 129.903 77.2201 136.678C84.3607 139.756 91.764 140.992 99.4997 140.753C107.926 140.537 116.386 139.285 124.562 141.786C125.103 142.027 125.493 140.657 125.343 140.266ZM73.0127 87.4698C75.1078 87.4561 77.203 87.4424 79.3558 87.5322C83.006 88.4838 85.5874 91.0483 88.5711 93.1173C83.194 92.1099 77.9657 90.2735 73.0127 87.4698ZM90.4709 93.4837C87.6366 91.1958 84.5487 88.5743 81.002 87.565C82.4641 87.6325 84.0067 87.723 85.4688 87.7906C87.5181 87.9381 89.5444 88.1662 91.6284 88.4978C95.8206 90.3008 99.5533 93.1057 103.803 94.4021C99.3475 94.4413 94.8807 94.2158 90.4709 93.4837ZM105.31 94.3084C101.038 93.0927 97.3862 90.3106 93.2287 88.6918C94.2419 88.8059 95.3127 89.0235 96.3259 89.1376C100.069 90.987 103.939 92.6982 107.877 94.1676C107.06 94.2836 106.185 94.296 105.31 94.3084ZM126.996 91.5919C123.393 92.3094 119.814 92.9463 116.119 93.3762C114.311 92.6873 112.721 91.5378 111.04 90.7107C113.147 90.9618 115.299 91.0516 117.372 91.1185C120.457 91.2995 123.658 91.6875 126.719 91.3389C126.858 91.4654 126.938 91.4884 126.996 91.5919ZM126.339 91.1436C123.875 90.6167 121.354 90.5963 118.879 90.4147C116.749 90.2443 114.642 89.9932 112.466 89.984C114.871 89.1872 117.161 88.1832 119.428 87.2599C121.766 88.5353 124.082 89.8912 126.339 91.1436ZM118.749 86.8922C118.887 87.0187 119.129 87.0875 119.267 87.214C117.253 87.8608 115.158 88.4846 113.041 89.1891C114.963 88.2546 116.746 87.1937 118.749 86.8922ZM117.551 86.2028C114.524 86.7355 111.314 89.1333 108.587 89.8384C108.587 89.8384 108.587 89.8384 108.483 89.8961L108.403 89.8732C108.322 89.8502 108.299 89.9308 108.38 89.9538C108.38 89.9538 108.38 89.9538 108.46 89.9767C108.334 90.115 108.345 90.3797 108.507 90.4256C108.771 90.4138 108.956 90.3791 109.22 90.3673C109.301 90.3902 109.382 90.4132 109.462 90.4361C109.382 90.4132 109.359 90.4938 109.278 90.4708C109.174 90.5285 109.083 90.8509 109.163 90.8739C109.428 90.8621 109.635 90.7468 109.9 90.735C111.639 91.6656 113.287 92.9187 115.198 93.5498C112.931 93.863 110.709 94.015 108.465 94.2476C104.572 92.617 100.679 90.9864 96.8095 89.2752C99.9066 89.7209 103.004 90.1666 106.089 90.3476C106.17 90.3705 106.216 90.2093 106.135 90.1863C102.438 88.7858 98.3509 88.1454 94.2406 87.5857C99.2815 86.4062 103.849 83.5234 109.005 82.551C111.964 83.4804 114.729 84.7898 117.551 86.2028ZM107.519 81.954C108.003 82.0916 108.383 82.2869 108.867 82.4245C103.411 83.2246 98.6367 86.2226 93.2274 87.4716C92.9856 87.4028 92.8015 87.4375 92.5596 87.3687C97.7847 86.1545 102.109 81.9827 107.519 81.954ZM98.4461 80.1561C101.002 80.3607 103.408 80.7841 105.827 81.4722C100.911 81.9033 96.3574 86.2711 91.4429 87.3123C89.7391 87.176 88.0352 87.0396 86.3542 86.8226C84.9957 86.6974 83.7178 86.5952 82.3363 86.5506C87.549 84.4615 92.0231 80.6809 97.7554 80.1338C97.9395 80.0991 98.2043 80.0873 98.4461 80.1561ZM85.3471 81.4822C83.7133 82.3243 82.1372 83.2699 80.6534 84.5032L80.6076 84.6644C82.2754 83.3964 84.0587 82.3354 85.9801 81.401C89.4214 80.6376 92.8973 80.0583 96.5351 80.1351C91.2059 80.7969 86.8006 84.3356 81.8874 86.5971C80.5059 86.5525 79.1474 86.4273 77.7659 86.3827C80.078 84.688 82.4249 83.1775 84.8293 81.7706C84.9788 81.5517 85.1629 81.5169 85.3471 81.4822ZM79.869 82.973C81.204 82.5687 82.6195 82.1873 83.9315 81.8636C81.5729 83.1093 79.3296 84.5622 77.2823 86.2451C75.1295 86.1552 72.9538 86.146 70.778 86.1368C70.6974 86.1138 70.6974 86.1138 70.6397 86.0103C70.5591 85.9873 70.4556 86.045 70.352 86.1027C69.5578 86.138 68.867 86.1157 68.1534 86.1741C72.1818 85.4906 76.1748 84.0129 79.869 82.973ZM92.1865 71.8397C87.5951 73.5828 83.083 74.1285 77.9019 73.3512C75.3114 72.9625 72.3171 71.849 69.4159 71.6333C69.8301 71.4026 70.2672 71.0914 70.6237 70.7572C78.1084 72.6257 86.0059 73.0434 93.452 71.067C93.0378 71.2977 92.6007 71.609 92.1865 71.8397ZM98.2374 67.7236C96.8801 68.8186 95.5688 69.7525 94.0962 70.6404C86.4188 71.5925 78.9249 71.8996 71.3715 70.2729C75.3633 67.5749 79.1938 64.8311 83.0473 62.0067C90.0451 60.687 99.4892 64.8558 105.31 60.9357C103.217 63.3899 100.825 65.6718 98.2374 67.7236ZM111.893 48.5191C112.883 48.1036 113.838 47.504 114.631 46.8585C112.564 51.0625 110.139 54.9906 107.276 58.6198C100.778 64.0026 92.1507 59.7178 84.4852 60.9346C87.3838 58.7097 90.2824 56.4849 93.1005 54.2371C94.3542 53.1998 95.6885 52.1853 96.9422 51.148C101.868 49.7614 107.233 50.504 111.893 48.5191ZM120.873 27.374C119.889 33.2806 118.238 39.0843 115.826 44.4973C111.699 49.5093 104.962 47.7666 99.093 49.4074C106.052 43.6327 112.918 37.5703 118.989 30.9331C119.012 30.8525 119.058 30.6913 118.954 30.749C113.019 35.6822 107.303 40.7649 101.391 45.6176C103.92 41.6319 105.296 36.7955 108.804 33.3498C112.958 31.9179 116.882 30.0719 120.505 27.4434C120.609 27.3858 120.689 27.4087 120.873 27.374ZM107.733 33.7423C103.996 37.3839 102.045 43.0153 99.2176 47.4388C97.4232 48.8451 95.6289 50.2514 93.8345 51.6577C91.603 53.3753 89.2909 55.07 87.0018 56.6841C87.587 54.9336 87.8152 52.9073 87.7903 51.1576C87.81 48.0263 87.4844 44.8839 88.7591 41.9356C89.655 40.0122 91.0693 38.4105 92.7142 37.2231C97.8705 36.2507 102.843 35.313 107.733 33.7423ZM91.8741 37.4197C90.4362 38.4918 89.229 39.9781 88.379 41.7403C85.9554 46.8886 87.884 52.6655 85.4833 57.7332C79.8007 61.7798 73.8993 65.677 67.9283 69.2059C70.1926 65.8421 71.6043 61.7999 72.4407 57.9426C73.8728 51.3794 74.1075 44.7368 79.3982 40.2301C83.4031 39.0172 87.6386 38.2184 91.8741 37.4197ZM78.6616 40.3691C75.74 42.6745 74.2359 46.4289 73.4108 49.9409C72.5968 53.1075 72.2664 56.4117 71.3718 59.5554C71.0277 60.7645 70.603 61.9506 70.0977 63.1139C70.3382 61.9624 70.5788 60.811 70.7964 59.7402C72.0207 52.6822 72.3696 45.0264 77.695 40.7039C78.0056 40.5309 78.2933 40.4385 78.6616 40.3691ZM53.0378 63.6613C56.0906 54.771 61.0681 47.9968 69.663 43.8205C71.5845 42.8861 73.5407 42.1357 75.474 41.466C73.5885 43.8049 72.3256 47.018 71.6027 49.2521C70.4669 52.937 70.183 56.6902 69.4503 60.4899C68.7293 64.5543 67.3858 67.7445 65.0867 70.9241C62.1875 72.5388 59.3688 74.1765 56.6766 75.6758C60.4995 65.6105 57.1248 52.9741 66.8214 45.5388C66.8214 45.5388 66.8443 45.4582 66.8214 45.5388C62.6225 48.3521 60.5437 52.9014 59.3515 57.7031C57.8041 64.0592 57.5228 70.2529 55.5147 76.3908C52.3277 78.0979 49.3478 79.6896 46.4714 81.2237C49.4816 75.5452 51.0408 69.4539 53.0378 63.6613ZM54.4489 81.0542C58.4525 78.621 62.3754 76.1648 66.3213 73.6281C66.7355 73.3974 67.0691 73.1438 67.5062 72.8325C69.5555 72.9801 71.5248 73.7147 73.5629 74.2076C75.9463 74.7116 78.3986 74.9738 80.8162 75.0519C82.8884 75.1188 85.0523 74.8632 87.078 74.4812C76.9869 79.0159 65.6265 80.6626 54.4489 81.0542ZM107.91 113.956C110.595 117.073 113.005 120.547 115.207 124.137C111.705 121.136 106.753 119.552 102.343 118.82C98.2558 118.18 94.1114 118.046 90.0588 117.59C87.5259 117.305 85.0847 116.697 82.7471 116.032C80.0635 114.745 77.4147 113.643 74.6852 112.518C86.2677 114.071 98.1433 109.696 109.155 115.705C104.236 112.475 98.4447 111.698 92.6311 111.612C87.9343 111.583 83.2492 111.818 78.633 111.811C81.856 111.509 85.1478 110.964 88.3131 110.558C92.4568 110.082 96.7159 109.812 100.815 110.717C103.521 111.313 105.721 112.462 107.91 113.956ZM105.294 111.208C101.147 109.244 96.0128 108.915 91.7537 109.184C84.4787 109.641 77.5504 111.329 70.4701 110.795C68.2013 109.888 65.9096 109.062 63.6178 108.235C62.0286 107.696 60.4395 107.157 58.8503 106.617C71.2598 106.489 83.7436 100.283 95.7429 104.046C99.302 105.93 102.436 108.39 105.294 111.208ZM41.681 101.731C57.3365 101.22 73.1606 96.7481 88.4759 101.107C89.8462 101.497 91.1129 101.944 92.3568 102.472C81.3261 100.205 68.6116 105.997 57.4223 106.124C52.2287 104.472 46.9893 102.98 41.681 101.731ZM42.5237 103.975C45.2067 104.652 47.8897 105.328 50.6303 106.108C53.6284 110.882 55.9252 116.59 59.1651 121.433C53.2193 115.994 47.8024 109.921 42.5237 103.975ZM78.9103 134.72C72.7141 131.998 67.1615 128.239 62.0342 123.905C57.9534 118.648 55.6671 111.985 51.8623 106.371C54.603 107.151 57.24 107.989 59.9577 108.849C64.3943 113.162 67.4389 118.385 70.6218 123.734C72.9167 127.612 75.5111 131.661 78.9909 134.743C78.9909 134.743 78.9909 134.743 78.9103 134.72ZM80.9372 135.558C76.3054 131.626 73.0884 126.702 70.0091 121.295C67.6218 117.13 65.0962 112.839 61.6046 109.492C62.0882 109.63 62.5489 109.848 63.0326 109.986C63.1938 110.032 63.355 110.078 63.5162 110.123C65.7286 112.147 67.7568 114.206 69.4404 116.863C71.6311 120.188 73.3618 123.904 75.3454 127.344C77.352 130.704 79.7498 133.913 82.8259 136.27C82.204 136.005 81.5592 135.822 80.9372 135.558ZM84.8411 136.843C80.2217 133.786 77.1082 128.804 74.3979 123.938C72.0912 119.796 69.7143 114.676 66.188 111.145C71.2322 113.016 76.2075 115.129 81.0793 117.3C87.415 121.368 90.7715 127.639 95.8195 133.171C97.8019 135.39 100.221 137.299 102.824 138.562C96.5507 138.868 90.6677 138.414 84.8411 136.843ZM103.86 138.596C96.1327 135.438 91.8398 125.416 85.4444 119.414C86.2046 119.804 86.9648 120.195 87.725 120.585C90.9748 123.863 93.7874 127.452 96.6807 131.063C99.009 133.904 101.464 136.607 104.551 138.618C104.309 138.549 104.125 138.584 103.86 138.596ZM105.368 138.502C98.8714 134.388 95.5942 126.92 90.2474 121.826C98.0682 125.881 105.441 130.594 112.986 135.006C113.066 135.029 113.239 134.73 113.158 134.707C105.611 128.464 97.0983 123.166 88.2526 118.731C92.3859 119.211 96.6567 119.206 100.445 119.674C107.272 120.484 113.157 122.769 117.445 127.91C119.578 131.741 121.586 135.711 123.351 139.611C117.444 138.018 111.354 138.289 105.368 138.502Z" fill="white"/>
<path d="M89.0383 44.6289C89.7494 42.1301 90.8406 39.8266 92.7496 38.0173C92.7496 38.0173 92.7726 37.9367 92.7496 38.0173C90.7829 39.7231 89.3234 42.096 88.9347 44.6866C88.8888 44.8478 89.0153 44.7095 89.0383 44.6289Z" fill="white"/>
<path d="M88.4549 48.2094C88.5926 47.7257 88.6496 47.2191 88.6837 46.7932C88.7066 46.7126 88.6031 46.7702 88.5801 46.8508C88.4425 47.3345 88.3049 47.8181 88.1672 48.3018C88.179 48.5665 88.4091 48.3706 88.4549 48.2094Z" fill="white"/>
<path d="M105.481 59.4164C101.936 60.2374 98.368 60.529 94.7531 60.3716C94.6725 60.3487 94.5808 60.6711 94.6843 60.6134C98.4375 60.8973 101.925 60.5828 105.481 59.4164C105.539 59.5199 105.562 59.4393 105.481 59.4164Z" fill="white"/>
<path d="M93.2913 60.3037C92.1975 60.1667 91.1843 60.0527 90.0676 59.9963C89.987 59.9733 89.9182 60.2152 89.9988 60.2381C91.0926 60.3751 92.1516 60.3279 93.2913 60.3037C93.2683 60.3843 93.2913 60.3037 93.2913 60.3037Z" fill="white"/>
<path d="M88.3171 59.4115C87.914 59.2968 87.5916 59.2051 87.2462 59.1939C87.085 59.148 86.9245 59.7123 87.1086 59.6775C87.5346 59.7116 87.9029 59.6422 88.2712 59.5727C88.3518 59.5957 88.3977 59.4344 88.3171 59.4115Z" fill="white"/>
<path d="M93.209 69.7783C89.9513 69.8969 86.7624 69.7736 83.4929 69.6274C83.4123 69.6044 83.3664 69.7656 83.447 69.7886C86.7283 70.1995 89.9631 70.1616 93.209 69.7783Z" fill="white"/>
<path d="M74.9883 50.2157C76.3082 46.496 78.1813 43.2822 80.8375 40.3785L80.8604 40.2979C78.0889 42.9945 75.9858 46.4042 74.9883 50.2157C74.8618 50.354 74.9653 50.2963 74.9883 50.2157Z" fill="white"/>
<path d="M112.217 38.5036C112.217 38.5036 112.159 38.4001 112.217 38.5036C110.193 40.716 108.054 42.7213 105.834 44.7036C105.73 44.7613 105.742 45.0261 105.869 44.8878C108.204 43.1125 110.308 40.9231 112.217 38.5036Z" fill="white"/>
<path d="M112.903 45.5827C112.903 45.5827 112.926 45.5021 112.903 45.5827C110.625 46.2413 108.484 46.4162 106.136 46.7064C106.055 46.6835 105.986 46.9253 106.067 46.9483C108.335 47.2452 110.798 46.5519 112.903 45.5827Z" fill="white"/>
<path d="M107.552 36.2181C107.931 35.8033 108.23 35.3655 108.61 34.9507L108.633 34.8701C108.253 35.2849 107.977 35.6421 107.598 36.0569C107.471 36.1952 107.426 36.3564 107.552 36.2181Z" fill="white"/>
<path d="M64.6279 50.491C65.2026 49.696 65.7197 48.7976 66.2368 47.8991C66.2368 47.8991 66.2597 47.8185 66.2368 47.8991C65.662 48.694 65.0643 49.5695 64.5472 50.468C64.5702 50.3874 64.5243 50.5486 64.6279 50.491Z" fill="white"/>
</g>
</svg>
