<svg width="72" height="72" viewBox="0 0 72 72" fill="none" xmlns="http://www.w3.org/2000/svg">
<path d="M53.7389 30.6275C54.449 29.6213 54.8694 28.3741 54.8694 27.0231C54.8694 23.6863 52.3056 20.9813 49.1429 20.9813C47.8541 20.9813 46.6648 21.4307 45.7078 22.1888C44.4982 21.0568 42.9073 20.3684 41.1634 20.3684C40.7585 20.3684 40.3626 20.4075 39.9771 20.4786L39.9787 20.4763C39.2238 16.7693 36.0999 13.9904 32.3608 13.9904C28.9693 13.9904 26.0854 16.2773 25.0149 19.4685C24.5127 19.3612 23.993 19.3046 23.4608 19.3046C19.1575 19.3046 15.6689 22.9851 15.6689 27.5254C15.6689 28.7613 15.929 29.9324 16.3921 30.9841C14.8929 32.3105 13.9391 34.3004 13.9391 36.5261C13.9391 40.5193 17.0072 43.7565 20.7922 43.7565C23.2528 43.7565 25.4094 42.3874 26.6181 40.3328L26.7399 40.1518C28.2065 41.8026 30.2755 42.8502 32.5771 42.9037C34.0476 44.3338 36.0116 45.2077 38.1692 45.2077C39.3204 45.2077 40.4164 44.9587 41.4119 44.5094C42.7691 45.8588 44.3665 46.4312 45.8557 46.4312C48.3438 46.4312 50.4604 44.7566 51.2505 42.4178C51.6017 42.4888 51.9639 42.5274 52.3349 42.5274C55.4975 42.5274 58.0614 39.8224 58.0614 36.4856C58.0612 33.6601 56.2226 31.2881 53.7389 30.6275Z" fill="#3E9C06"/>
<path d="M29.9644 35.7337L34.7796 43.0961L46.3735 35.0602L47.0622 39.3929C47.0622 39.4919 40.6938 43.6243 40.6938 43.6243V59.0094H30.5082V44.8954L25.7674 38.3089L29.9644 35.7337Z" fill="#97CD44"/>
<path d="M55.1374 30.1027C55.5787 29.1508 55.8081 28.1056 55.8081 27.0232C55.8081 23.1456 52.818 19.9909 49.1428 19.9909C47.9373 19.9909 46.7813 20.3246 45.7599 20.9623C44.4304 19.9359 42.8237 19.378 41.1633 19.378C40.9985 19.378 40.8354 19.3852 40.6732 19.3959C40.1605 17.715 39.1904 16.2041 37.8828 15.0764C36.3302 13.7374 34.3692 13 32.3606 13C28.9328 13 25.8358 15.127 24.4248 18.3702C24.1048 18.3329 23.7824 18.3142 23.4605 18.3142C18.6465 18.3142 14.7298 22.4464 14.7298 27.5255C14.7298 28.6294 14.9121 29.7024 15.2725 30.7246C13.8205 32.2608 13 34.3369 13 36.526C13 41.0591 16.4954 44.7469 20.7919 44.7469C23.2264 44.7469 25.4689 43.5756 26.9398 41.5755L29.5694 45.2289V59.0095C29.5694 59.5566 29.9897 60 30.5082 60H40.6938C41.2123 60 41.6326 59.5566 41.6326 59.0095V45.9771C42.889 46.9162 44.347 47.4217 45.8555 47.4217C48.4085 47.4217 50.7237 45.8741 51.8348 43.4977C52.0017 43.511 52.1686 43.5178 52.3346 43.5178C56.0098 43.5178 58.9999 40.363 58.9999 36.4854C58.9999 33.703 57.4611 31.2347 55.1374 30.1027ZM52.3346 41.537C52.0337 41.537 51.7283 41.5061 51.4271 41.4451C50.9717 41.353 50.5214 41.6248 50.366 42.0852C49.688 44.0923 47.8754 45.4408 45.8556 45.4408C44.5004 45.4408 43.1906 44.8802 42.1264 43.8562C42.7317 43.4618 43.5553 42.9244 44.3741 42.3866C45.3012 41.7778 46.0406 41.2881 46.5716 40.9311C46.8907 40.7166 47.1387 40.5471 47.3093 40.4273C47.6494 40.1881 48.001 39.9407 48.001 39.393C48.001 38.8459 47.5807 38.4025 47.0622 38.4025C46.8142 38.4025 46.5889 38.5038 46.4211 38.6694C45.925 39.0465 42.3771 41.3692 40.202 42.7807C39.9243 42.961 39.755 43.2802 39.755 43.6243V58.019H31.4469V44.8953C31.4469 44.679 31.3798 44.4686 31.2558 44.2963L26.5151 37.7098C26.2015 37.2743 25.6125 37.1892 25.1997 37.52C24.7868 37.8508 24.7063 38.4722 25.0198 38.9078L25.7511 39.9239C24.6532 41.7057 22.8093 42.7658 20.792 42.7658C17.5308 42.7658 14.8776 39.9665 14.8776 36.5258C14.8776 34.6768 15.6494 32.9334 16.9952 31.7428C17.3205 31.455 17.4222 30.9727 17.2434 30.5666C16.8215 29.6085 16.6076 28.5852 16.6076 27.5252C16.6076 23.5384 19.6818 20.2948 23.4607 20.2948C23.92 20.2948 24.3802 20.3433 24.8285 20.4391C25.2868 20.5368 25.7438 20.264 25.8997 19.7987C26.8664 16.9168 29.4628 14.9805 32.3607 14.9805C35.263 14.9805 37.8447 16.9423 38.8099 19.7617C35.6603 20.8171 33.3715 23.9308 33.3715 27.5986C33.3715 28.1456 33.7918 28.589 34.3103 28.589C34.8287 28.589 35.249 28.1456 35.249 27.5986C35.249 24.1579 37.9022 21.3586 41.1633 21.3586C42.6096 21.3586 44.0024 21.9165 45.0849 22.9296C45.4188 23.2419 45.9147 23.2632 46.2716 22.9806C47.105 22.3204 48.0978 21.9715 49.1429 21.9715C51.7829 21.9715 53.9306 24.2375 53.9306 27.0229C53.9306 28.118 53.604 29.16 52.9859 30.0357C52.7986 30.3011 52.7494 30.6476 52.8545 30.9594C52.9596 31.271 53.2054 31.5068 53.5095 31.5877C55.6367 32.1536 57.1225 34.1675 57.1225 36.4854C57.1223 39.2711 54.9746 41.537 52.3346 41.537ZM46.1312 39.2666C46.1344 39.2402 46.1395 39.2157 46.1444 39.191C46.1394 39.216 46.1343 39.2409 46.1312 39.2666ZM46.1518 39.151C46.1594 39.1193 46.1685 39.0896 46.1784 39.0608C46.1683 39.0905 46.1592 39.1203 46.1518 39.151ZM46.1842 39.042C46.1974 39.0054 46.2117 38.971 46.2274 38.9396C46.2112 38.9726 46.1968 39.0069 46.1842 39.042Z" fill="black"/>
<path d="M34.7804 44.0868C34.482 44.0868 34.1888 43.9369 34.007 43.6588L29.1918 36.2964C28.8973 35.8462 29.0045 35.2293 29.4313 34.9186C29.858 34.608 30.4427 34.721 30.7372 35.1713L35.0312 41.7369L45.8581 34.2325C46.2914 33.9321 46.8734 34.0592 47.1582 34.5165C47.4428 34.9737 47.3224 35.5878 46.889 35.8882L35.2951 43.9241C35.1364 44.034 34.9574 44.0868 34.7804 44.0868Z" fill="black"/>
<path d="M19.0602 28.2585C19.0057 28.2585 18.9506 28.2535 18.895 28.2429C18.3859 28.147 18.0458 27.6376 18.135 27.1001C18.1354 27.0978 18.1368 27.0896 18.1372 27.0873C18.2299 26.5505 18.7172 26.1916 19.2263 26.287C19.7354 26.383 20.0755 26.8924 19.9863 27.4299C19.986 27.4323 19.9845 27.4404 19.9842 27.4427C19.9016 27.9209 19.5056 28.2585 19.0602 28.2585Z" fill="black"/>
<path d="M48.7136 34.1159C48.5739 34.1159 48.4321 34.0829 48.2983 34.013C47.8335 33.7706 47.6431 33.1766 47.8727 32.6863L47.8751 32.6811C48.1021 32.1899 48.6637 31.9841 49.1294 32.2225C49.5953 32.461 49.7908 33.0513 49.5655 33.5433L49.5557 33.5643C49.3923 33.9133 49.0595 34.1159 48.7136 34.1159Z" fill="black"/>
<path d="M20.034 26.0194C19.8258 26.0194 19.6164 25.9468 19.4424 25.7975C19.0401 25.4525 18.9789 24.8286 19.306 24.4042C20.6046 22.7184 22.6689 21.9118 24.6933 22.2988C25.2035 22.3963 25.5422 22.9117 25.4497 23.45C25.3573 23.9883 24.8684 24.3456 24.3586 24.248C23.0073 23.9895 21.63 24.5283 20.7631 25.6536C20.5774 25.8944 20.3069 26.0194 20.034 26.0194Z" fill="black"/>
<circle cx="36" cy="36" r="35" stroke="#FD3030" stroke-width="2"/>
<path d="M11 11L62 61" stroke="#FD3030" stroke-width="2"/>
</svg>
