<svg width="130" height="130" viewBox="0 0 130 130" fill="none" xmlns="http://www.w3.org/2000/svg">
<g filter="url(#filter0_d)">
<circle cx="65" cy="60" r="50" fill="#FED233"/>
</g>
<circle cx="65" cy="60" r="43.5" stroke="white" stroke-width="3"/>
<path d="M84.6289 38.7113H83.9453V36.5464C83.9453 35.6924 83.2895 35 82.4805 35C81.6715 35 81.0156 35.6924 81.0156 36.5464V38.7113H75.1562V36.5464C75.1562 35.6924 74.5004 35 73.6914 35C72.8824 35 72.2266 35.6924 72.2266 36.5464V38.7113H66.3672V36.5464C66.3672 35.6924 65.7113 35 64.9023 35C64.0934 35 63.4375 35.6924 63.4375 36.5464V38.7113H57.5781V36.5464C57.5781 35.6924 56.9223 35 56.1133 35C55.3043 35 54.6484 35.6924 54.6484 36.5464V38.7113H48.7891V36.5464C48.7891 35.6924 48.1332 35 47.3242 35C46.5152 35 45.8594 35.6924 45.8594 36.5464V38.7113H45.3711C42.4095 38.7113 40 41.2549 40 44.3814V79.3299C40 82.4564 42.4095 85 45.3711 85H84.6289C87.5905 85 90 82.4564 90 79.3299V44.3814C90 41.2549 87.5905 38.7113 84.6289 38.7113ZM45.3711 41.8041H45.8594V43.9691C45.8594 44.8231 46.5152 45.5155 47.3242 45.5155C48.1332 45.5155 48.7891 44.8231 48.7891 43.9691V41.8041H54.6484V43.9691C54.6484 44.8231 55.3043 45.5155 56.1133 45.5155C56.9223 45.5155 57.5781 44.8231 57.5781 43.9691V41.8041H63.4375V43.9691C63.4375 44.8231 64.0934 45.5155 64.9023 45.5155C65.7113 45.5155 66.3672 44.8231 66.3672 43.9691V41.8041H72.2266V43.9691C72.2266 44.8231 72.8824 45.5155 73.6914 45.5155C74.5004 45.5155 75.1562 44.8231 75.1562 43.9691V41.8041H81.0156V43.9691C81.0156 44.8231 81.6715 45.5155 82.4805 45.5155C83.2895 45.5155 83.9453 44.8231 83.9453 43.9691V41.8041H84.6289C85.9751 41.8041 87.0703 42.9603 87.0703 44.3814V49.0206H42.9297V44.3814C42.9297 42.9603 44.0249 41.8041 45.3711 41.8041ZM84.6289 81.9072H45.3711C44.0249 81.9072 42.9297 80.751 42.9297 79.3299V52.1134H87.0703V79.3299C87.0703 80.751 85.9751 81.9072 84.6289 81.9072Z" fill="white"/>
<path d="M50.3516 65.5148H56.2109C57.0199 65.5148 57.6758 64.8224 57.6758 63.9684V57.5767C57.6758 56.7226 57.0199 56.0303 56.2109 56.0303H50.3516C49.5426 56.0303 48.8867 56.7226 48.8867 57.5767V63.9684C48.8867 64.8224 49.5426 65.5148 50.3516 65.5148ZM51.8164 59.1231H54.7461V62.422H51.8164V59.1231Z" fill="white"/>
<path d="M79.6484 68.4023H73.7891C72.9801 68.4023 72.3242 69.0947 72.3242 69.9487V76.3405C72.3242 77.1945 72.9801 77.8869 73.7891 77.8869H79.6484C80.4574 77.8869 81.1133 77.1945 81.1133 76.3405V69.9487C81.1133 69.0947 80.4574 68.4023 79.6484 68.4023ZM78.1836 74.7941H75.2539V71.4951H78.1836V74.7941Z" fill="white"/>
<path d="M67.0716 60.6695L68.9655 58.6701C69.5376 58.0662 69.5376 57.0871 68.9655 56.4832C68.3936 55.8793 67.466 55.8793 66.8939 56.4832L65 58.4826L63.1061 56.4832C62.5341 55.8793 61.6065 55.8793 61.0345 56.4832C60.4624 57.0871 60.4624 58.0662 61.0345 58.6701L62.9284 60.6695L60.9368 62.772C60.3647 63.3758 60.3647 64.355 60.9368 64.9589C61.5089 65.5628 62.4363 65.5628 63.0084 64.9589L65 62.8564L66.9916 64.9589C67.5637 65.5628 68.4911 65.5628 69.0632 64.9589C69.6353 64.3551 69.6353 63.3759 69.0632 62.772L67.0716 60.6695Z" fill="white"/>
<path d="M78.7903 60.6695L80.6843 58.6701C81.2564 58.0662 81.2564 57.0871 80.6843 56.4832C80.1123 55.8793 79.1848 55.8793 78.6127 56.4832L76.7188 58.4826L74.8248 56.4832C74.2528 55.8793 73.3253 55.8793 72.7532 56.4832C72.1812 57.0871 72.1812 58.0662 72.7532 58.6701L74.6472 60.6695L72.6556 62.772C72.0835 63.3758 72.0835 64.355 72.6556 64.9589C73.2276 65.5628 74.1551 65.5628 74.7271 64.9589L76.7188 62.8564L78.7104 64.9589C79.2824 65.5628 80.2099 65.5628 80.7819 64.9589C81.354 64.3551 81.354 63.3759 80.7819 62.772L78.7903 60.6695Z" fill="white"/>
<path d="M55.3528 73.145L57.2468 71.1456C57.8188 70.5418 57.8188 69.5626 57.2468 68.9587C56.6748 68.3549 55.7473 68.3549 55.1752 68.9587L53.2812 70.9581L51.3873 68.9587C50.8153 68.3549 49.8878 68.3549 49.3157 68.9587C48.7437 69.5625 48.7437 70.5417 49.3157 71.1456L51.2097 73.145L49.2181 75.2475C48.2923 76.2246 48.9609 77.8873 50.2539 77.8873C50.6288 77.8873 51.0037 77.7362 51.2896 77.4343L53.2812 75.3319L55.2729 77.4344C55.8449 78.0383 56.7724 78.0383 57.3444 77.4344C57.9165 76.8306 57.9165 75.8514 57.3444 75.2475L55.3528 73.145Z" fill="white"/>
<path d="M67.0716 73.145L68.9655 71.1456C69.5376 70.5418 69.5376 69.5626 68.9655 68.9587C68.3936 68.3549 67.466 68.3549 66.8939 68.9587L65 70.9581L63.1061 68.9587C62.5341 68.3549 61.6065 68.3549 61.0345 68.9587C60.4624 69.5625 60.4624 70.5417 61.0345 71.1456L62.9284 73.145L60.9368 75.2475C60.3647 75.8513 60.3647 76.8305 60.9368 77.4344C61.5089 78.0383 62.4363 78.0383 63.0084 77.4344L65 75.3319L66.9916 77.4344C67.5637 78.0383 68.4911 78.0383 69.0632 77.4344C69.6353 76.8306 69.6353 75.8514 69.0632 75.2475L67.0716 73.145Z" fill="white"/>
<defs>
<filter id="filter0_d" x="0" y="0" width="130" height="130" filterUnits="userSpaceOnUse" color-interpolation-filters="sRGB">
<feFlood flood-opacity="0" result="BackgroundImageFix"/>
<feColorMatrix in="SourceAlpha" type="matrix" values="0 0 0 0 0 0 0 0 0 0 0 0 0 0 0 0 0 0 127 0"/>
<feOffset dy="5"/>
<feGaussianBlur stdDeviation="7.5"/>
<feColorMatrix type="matrix" values="0 0 0 0 0.733333 0 0 0 0 0.733333 0 0 0 0 0.733333 0 0 0 0.2 0"/>
<feBlend mode="normal" in2="BackgroundImageFix" result="effect1_dropShadow"/>
<feBlend mode="normal" in="SourceGraphic" in2="effect1_dropShadow" result="shape"/>
</filter>
</defs>
</svg>
