<svg width="130" height="130" viewBox="0 0 130 130" fill="none" xmlns="http://www.w3.org/2000/svg">
<g filter="url(#filter0_d)">
<circle cx="65" cy="60" r="50" fill="#FED233"/>
</g>
<path d="M76.0352 42.0312C73.688 42.0312 71.4747 42.6141 69.5307 43.6414C69.2637 43.3145 69.0184 42.972 68.7983 42.6157C67.8465 41.076 67.3438 39.3056 67.3438 37.496V36.4648C67.3438 35.6557 66.688 35 65.8789 35H60.0195C59.2104 35 58.5547 35.6557 58.5547 36.4648V37.496C58.5547 40.9391 59.5114 44.3075 61.3219 47.2364C61.9315 48.2225 62.6349 49.151 63.42 50.0074C62.5552 51.8217 62.0703 53.8496 62.0703 55.9881L62.007 67.4116C62.0028 68.1154 61.6324 68.7383 61.0159 69.0778C60.3991 69.4173 59.6747 69.3971 59.0777 69.024C57.0937 67.7843 54.8087 67.1289 52.4691 67.1289C45.5935 67.1289 40 72.7224 40 79.598V83.5352C40 84.3443 40.6557 85 41.4648 85H47.3242C48.1333 85 48.7891 84.3443 48.7891 83.5352V79.5732C48.7891 78.6348 49.5524 77.8711 50.4912 77.8711C50.9165 77.8711 51.3239 78.029 51.6383 78.3159L52.5584 79.1555C56.6885 82.9244 62.0428 85 67.634 85C73.6082 85 79.225 82.6734 83.4494 78.4494C87.6734 74.2246 90 68.6082 90 62.634V55.9961C90 48.2957 83.7355 42.0312 76.0352 42.0312ZM63.814 45.696C62.366 43.3534 61.5668 40.677 61.4905 37.9297H64.4213C64.4968 40.1323 65.1446 42.2765 66.3062 44.156C66.5457 44.5436 66.8085 44.9186 67.0908 45.2798C66.3336 45.9123 65.6443 46.623 65.0355 47.4001C64.5907 46.8595 64.1814 46.2907 63.814 45.696ZM87.0703 62.634C87.0703 73.3514 78.3514 82.0703 67.634 82.0703C62.7753 82.0703 58.1225 80.2663 54.5332 76.9914L53.6127 76.1514C52.7575 75.3713 51.6489 74.9414 50.4912 74.9414C47.9372 74.9414 45.8594 77.0193 45.8594 79.5732V82.0703H42.9297V79.598C42.9297 74.3379 47.209 70.0586 52.4691 70.0586C54.259 70.0586 56.0072 70.5602 57.5247 71.5086C59.0353 72.4527 60.8683 72.5034 62.4285 71.6444C63.9887 70.7853 64.9264 69.2091 64.9367 67.428L65 55.9961C65 49.9113 69.9503 44.9609 76.0352 44.9609C82.12 44.9609 87.0703 49.9113 87.0703 55.9961V62.634Z" fill="white"/>
<circle cx="65" cy="60" r="43.5" stroke="white" stroke-width="3"/>
<defs>
<filter id="filter0_d" x="0" y="0" width="130" height="130" filterUnits="userSpaceOnUse" color-interpolation-filters="sRGB">
<feFlood flood-opacity="0" result="BackgroundImageFix"/>
<feColorMatrix in="SourceAlpha" type="matrix" values="0 0 0 0 0 0 0 0 0 0 0 0 0 0 0 0 0 0 127 0"/>
<feOffset dy="5"/>
<feGaussianBlur stdDeviation="7.5"/>
<feColorMatrix type="matrix" values="0 0 0 0 0.733333 0 0 0 0 0.733333 0 0 0 0 0.733333 0 0 0 0.2 0"/>
<feBlend mode="normal" in2="BackgroundImageFix" result="effect1_dropShadow"/>
<feBlend mode="normal" in="SourceGraphic" in2="effect1_dropShadow" result="shape"/>
</filter>
</defs>
</svg>
