<svg width="21" height="21" viewBox="0 0 21 21" fill="none" xmlns="http://www.w3.org/2000/svg">
<g clip-path="url(#clip0)">
<path d="M20.3013 4.81084C19.8821 4.37168 19.3032 4.11217 18.6445 4.11217H15.3308V4.07225C15.3308 3.5732 15.1312 3.09411 14.7918 2.77472C14.4525 2.43537 13.9933 2.23575 13.4943 2.23575H7.5057C6.98669 2.23575 6.52757 2.43537 6.18821 2.77472C5.84886 3.11408 5.64924 3.5732 5.64924 4.07225V4.11217H2.35551C1.69677 4.11217 1.11787 4.37168 0.698669 4.81084C0.279468 5.23005 0 5.8289 0 6.46769V16.4088C0 17.0675 0.259506 17.6464 0.698669 18.0656C1.11787 18.4848 1.71673 18.7643 2.35551 18.7643H18.6445C19.3032 18.7643 19.8821 18.5048 20.3013 18.0656C20.7205 17.6464 21 17.0475 21 16.4088V6.46769C21 5.80894 20.7405 5.23005 20.3013 4.81084ZM19.962 16.4088H19.942C19.942 16.7681 19.8023 17.0875 19.5627 17.327C19.3232 17.5666 19.0038 17.7063 18.6445 17.7063H2.35551C1.9962 17.7063 1.67681 17.5666 1.43726 17.327C1.19772 17.0875 1.05798 16.7681 1.05798 16.4088V6.46769C1.05798 6.10837 1.19772 5.78898 1.43726 5.54944C1.67681 5.30989 1.9962 5.17016 2.35551 5.17016H6.20818C6.50761 5.17016 6.74715 4.93062 6.74715 4.63119V4.05229C6.74715 3.83271 6.827 3.63309 6.96673 3.49335C7.10646 3.35362 7.30608 3.27377 7.52567 3.27377H13.4943C13.7139 3.27377 13.9135 3.35362 14.0532 3.49335C14.193 3.63309 14.2728 3.83271 14.2728 4.05229V4.63119C14.2728 4.93062 14.5124 5.17016 14.8118 5.17016H18.6644C19.0238 5.17016 19.3432 5.30989 19.5827 5.54944C19.8222 5.78898 19.962 6.10837 19.962 6.46769V16.4088Z" fill="#C4C4C4"/>
<path d="M10.5 6.52756C9.14259 6.52756 7.90495 7.08649 7.02662 7.96482C6.12833 8.86311 5.58936 10.0808 5.58936 11.4382C5.58936 12.7956 6.14829 14.0333 7.02662 14.9116C7.92491 15.8099 9.14259 16.3488 10.5 16.3488C11.8574 16.3488 13.0951 15.7899 13.9734 14.9116C14.8717 14.0133 15.4106 12.7956 15.4106 11.4382C15.4106 10.0808 14.8517 8.84315 13.9734 7.96482C13.0951 7.08649 11.8574 6.52756 10.5 6.52756ZM13.2148 14.173C12.5162 14.8517 11.558 15.2909 10.5 15.2909C9.44202 15.2909 8.48384 14.8517 7.78517 14.173C7.0865 13.4743 6.6673 12.5161 6.6673 11.4582C6.6673 10.4002 7.10647 9.442 7.78517 8.74334C8.48384 8.04467 9.44202 7.62547 10.5 7.62547C11.558 7.62547 12.5162 8.06463 13.2148 8.74334C13.9135 9.442 14.3327 10.4002 14.3327 11.4582C14.3527 12.5161 13.9135 13.4743 13.2148 14.173Z" fill="#C4C4C4"/>
<path d="M17.6065 8.46387C18.1467 8.46387 18.5846 8.02595 18.5846 7.48574C18.5846 6.94553 18.1467 6.5076 17.6065 6.5076C17.0663 6.5076 16.6284 6.94553 16.6284 7.48574C16.6284 8.02595 17.0663 8.46387 17.6065 8.46387Z" fill="#C4C4C4"/>
</g>
<defs>
<clipPath id="clip0">
<rect width="21" height="21" fill="white"/>
</clipPath>
</defs>
</svg>
