<svg width="50" height="50" viewBox="0 0 50 50" fill="none" xmlns="http://www.w3.org/2000/svg">
<g filter="url(#filter0_i)">
<circle cx="25" cy="25" r="25" fill="#FFC93C"/>
</g>
<path d="M23.9861 22.9299C24.8733 21.9676 25.3622 20.6767 25.3622 19.2948C25.3622 16.6636 23.4828 14 19.8901 14C18.2182 14 16.8077 14.5743 15.8109 15.6607C14.928 16.6232 14.4419 17.9137 14.4419 19.2948C14.4419 21.9263 16.3133 24.5897 19.8901 24.5897C21.5683 24.5898 22.985 24.016 23.9861 22.9299ZM19.8901 16.4619C21.8586 16.4619 22.7551 17.9314 22.7551 19.2967C22.7551 20.0394 22.5052 20.7269 22.051 21.2324C21.5443 21.797 20.8079 22.0955 19.922 22.0955C17.9038 22.0955 16.9844 20.6262 16.9844 19.261C16.9844 17.868 17.883 16.4619 19.8901 16.4619Z" fill="#111111"/>
<path d="M32.9562 16.0426C32.6307 16.0485 32.1861 16.2515 31.9684 16.4936L15.8065 34.4627C15.5888 34.705 15.743 35.0445 16.0686 35.0445H18.1839C18.5095 35.0445 18.9536 34.846 19.1709 34.6036L35.2329 16.6381C35.4501 16.3954 35.4357 16.0006 34.8977 16.0007L32.9562 16.0426Z" fill="#111111"/>
<path d="M31.1897 26.6117C29.5501 26.6117 28.1663 27.1753 27.1884 28.241C26.3224 29.1849 25.8452 30.4511 25.8452 31.8059C25.8452 34.3871 27.6811 37 31.1898 37C32.8365 37 34.2258 36.437 35.2081 35.3717C36.0785 34.4276 36.5579 33.1613 36.5579 31.8059C36.5578 29.2248 34.714 26.6117 31.1897 26.6117ZM31.2214 34.6165C29.2578 34.6165 28.3631 33.1419 28.3631 31.7725C28.3631 31.0267 28.6129 30.3366 29.0667 29.8292C29.5727 29.263 30.3067 28.9637 31.1898 28.9637C33.1535 28.9637 34.0478 30.438 34.0478 31.8078C34.0478 32.5534 33.798 33.2437 33.3445 33.7511C32.8384 34.3172 32.1043 34.6165 31.2214 34.6165Z" fill="#111111"/>
<defs>
<filter id="filter0_i" x="0" y="0" width="50" height="52" filterUnits="userSpaceOnUse" color-interpolation-filters="sRGB">
<feFlood flood-opacity="0" result="BackgroundImageFix"/>
<feBlend mode="normal" in="SourceGraphic" in2="BackgroundImageFix" result="shape"/>
<feColorMatrix in="SourceAlpha" type="matrix" values="0 0 0 0 0 0 0 0 0 0 0 0 0 0 0 0 0 0 127 0" result="hardAlpha"/>
<feOffset dy="2"/>
<feGaussianBlur stdDeviation="1"/>
<feComposite in2="hardAlpha" operator="arithmetic" k2="-1" k3="1"/>
<feColorMatrix type="matrix" values="0 0 0 0 0.8375 0 0 0 0 0.644971 0 0 0 0 0.139583 0 0 0 1 0"/>
<feBlend mode="normal" in2="shape" result="effect1_innerShadow"/>
</filter>
</defs>
</svg>
