<svg width="100" height="100" viewBox="0 0 100 100" fill="none" xmlns="http://www.w3.org/2000/svg">
<circle cx="50" cy="50" r="50" fill="white"/>
<path d="M70.0149 35.4712L72.0437 33.4424L74.0567 35.4553L76.5427 32.9693L70.0307 26.4574L67.5448 28.9435L69.5578 30.9565L67.529 32.9853C63.071 29.0655 57.5185 26.7655 51.5945 26.385V23.5157H57.8056V20H41.8677V23.5157H48.0788V26.3849C41.5721 26.8029 35.5125 29.5349 30.8602 34.187C25.7915 39.2557 23 45.995 23 53.1633C23 60.3316 25.7915 67.0709 30.8602 72.1397C35.9291 77.2084 42.6684 80 49.8367 80C57.005 80 63.7444 77.2085 68.8131 72.1397C73.8819 67.0709 76.6733 60.3316 76.6733 53.1633C76.6732 46.5844 74.3202 40.3676 70.0149 35.4712ZM49.8366 76.4844C36.9773 76.4844 26.5156 66.0227 26.5156 53.1634C26.5156 40.3042 36.9773 29.8425 49.8366 29.8425C62.6958 29.8425 73.1575 40.3042 73.1575 53.1634C73.1575 66.0227 62.6958 76.4844 49.8366 76.4844Z" fill="#FE5757"/>
<path d="M49.8366 33.209C38.8338 33.209 29.8824 42.1605 29.8824 53.1633C29.8824 64.1661 38.8339 73.1176 49.8366 73.1176C60.8395 73.1176 69.7909 64.1661 69.7909 53.1633C69.7909 42.1605 60.8395 33.209 49.8366 33.209ZM51.5945 69.5076V65.8743H48.0788V69.5076C40.4158 68.6892 34.3106 62.5841 33.4923 54.921H37.1257V51.4053H33.4923C34.3107 43.7423 40.4158 37.6372 48.0788 36.8187V40.4521H51.5945V36.8187C59.2576 37.6372 65.3628 43.7422 66.1811 51.4053H62.5477V54.921H66.1811C65.3628 62.5841 59.2576 68.6893 51.5945 69.5076Z" fill="#FE5757"/>
<path d="M49.8366 50.1204C49.6616 50.1204 49.4904 50.1361 49.3234 50.1646L44.5287 45.3696L42.0427 47.8556L46.8376 52.6505C46.8091 52.8173 46.7934 52.9887 46.7934 53.1635C46.7934 54.8416 48.1586 56.2067 49.8366 56.2067C51.5147 56.2067 52.8799 54.8416 52.8799 53.1635C52.8799 51.4855 51.5148 50.1204 49.8366 50.1204Z" fill="#FE5757"/>
</svg>
