<svg width="98" height="98" viewBox="0 0 98 98" fill="none" xmlns="http://www.w3.org/2000/svg">
<g filter="url(#filter0_d)">
<circle cx="49" cy="45" r="45" fill="#FFD601"/>
</g>
<path d="M65.1118 25H32.8882C31.857 25 30.868 25.4097 30.1388 26.1388C29.4097 26.868 29 27.857 29 28.8882V61.1118C29 62.143 29.4097 63.132 30.1388 63.8612C30.868 64.5903 31.857 65 32.8882 65H65.1118C66.143 65 67.132 64.5903 67.8612 63.8612C68.5903 63.132 69 62.143 69 61.1118V28.8882C69 27.857 68.5903 26.868 67.8612 26.1388C67.132 25.4097 66.143 25 65.1118 25ZM52.2118 59.1L52.2784 57.2176L59.8294 57.4941L36.5059 34.1706L36.7824 41.7216L34.9 41.7882L34.4902 30.4902L45.7863 30.902L45.7196 32.7843L38.1725 32.5098L61.4902 55.8275L61.2157 48.2804L63.098 48.2137L63.5098 59.5098L52.2118 59.1Z" fill="white"/>
<defs>
<filter id="filter0_d" x="0" y="0" width="98" height="98" filterUnits="userSpaceOnUse" color-interpolation-filters="sRGB">
<feFlood flood-opacity="0" result="BackgroundImageFix"/>
<feColorMatrix in="SourceAlpha" type="matrix" values="0 0 0 0 0 0 0 0 0 0 0 0 0 0 0 0 0 0 127 0"/>
<feOffset dy="4"/>
<feGaussianBlur stdDeviation="2"/>
<feColorMatrix type="matrix" values="0 0 0 0 0 0 0 0 0 0 0 0 0 0 0 0 0 0 0.25 0"/>
<feBlend mode="normal" in2="BackgroundImageFix" result="effect1_dropShadow"/>
<feBlend mode="normal" in="SourceGraphic" in2="effect1_dropShadow" result="shape"/>
</filter>
</defs>
</svg>
