<svg width="88" height="88" viewBox="0 0 88 88" fill="none" xmlns="http://www.w3.org/2000/svg">
<g filter="url(#filter0_d)">
<circle cx="44" cy="40" r="40" fill="#49A600"/>
</g>
<g clip-path="url(#clip0)">
<path d="M63.6567 53.0274L56.8983 46.269L60.2129 42.9544C60.5001 42.6672 60.6181 42.2518 60.5248 41.8565C60.4314 41.4612 60.1402 41.1425 59.7549 41.014L39.8675 34.3849C39.4465 34.2445 38.9821 34.3541 38.6683 34.668C38.3544 34.9819 38.2448 35.4461 38.3852 35.8672L45.0143 55.7547C45.1428 56.14 45.4616 56.4313 45.8568 56.5246C46.252 56.6181 46.6675 56.5 46.9547 56.2127L50.2693 52.8982L57.0277 59.6565C57.2566 59.8854 57.5565 59.9998 57.8563 59.9998C58.1562 59.9998 58.4562 59.8854 58.6849 59.6565L63.6568 54.6847C64.1145 54.227 64.1145 53.485 63.6567 53.0274ZM57.8563 57.1706L51.0978 50.4122C50.6402 49.9546 49.8981 49.9546 49.4406 50.4122L46.6381 53.2147L41.3498 37.3496L57.2149 42.6379L54.4124 45.4404C53.9552 45.8975 53.9548 46.64 54.4124 47.0976L61.1709 53.8561L57.8563 57.1706Z" fill="white"/>
<path d="M39.2344 29.375C39.8816 29.375 40.4062 28.8503 40.4062 28.2031V21.1719C40.4062 20.5247 39.8816 20 39.2344 20C38.5872 20 38.0625 20.5247 38.0625 21.1719V28.2031C38.0625 28.8503 38.5872 29.375 39.2344 29.375Z" fill="white"/>
<path d="M30.1193 24.4619C29.6617 24.0042 28.9197 24.0042 28.462 24.4619C28.0044 24.9196 28.0044 25.6615 28.462 26.1192L33.4339 31.091C33.8915 31.5487 34.6336 31.5487 35.0912 31.091C35.5488 30.6334 35.5488 29.8914 35.0912 29.4338L30.1193 24.4619Z" fill="white"/>
<path d="M33.4339 39.3774L28.462 44.3493C28.0044 44.807 28.0044 45.5489 28.462 46.0066C28.9196 46.4642 29.6617 46.4642 30.1193 46.0066L35.0912 41.0347C35.5488 40.577 35.5488 39.8351 35.0912 39.3774C34.6335 38.9198 33.8915 38.9198 33.4339 39.3774Z" fill="white"/>
<path d="M45.0348 31.091L50.0067 26.1192C50.4644 25.6615 50.4644 24.9196 50.0067 24.4619C49.5491 24.0042 48.8071 24.0042 48.3495 24.4619L43.3776 29.4338C42.9199 29.8914 42.9199 30.6334 43.3776 31.091C43.8352 31.5487 44.5773 31.5487 45.0348 31.091Z" fill="white"/>
<path d="M33.375 35.2344C33.375 34.5872 32.8503 34.0625 32.2031 34.0625H25.1719C24.5247 34.0625 24 34.5872 24 35.2344C24 35.8816 24.5247 36.4062 25.1719 36.4062H32.2031C32.8503 36.4062 33.375 35.8816 33.375 35.2344Z" fill="white"/>
</g>
<defs>
<filter id="filter0_d" x="0" y="0" width="88" height="88" filterUnits="userSpaceOnUse" color-interpolation-filters="sRGB">
<feFlood flood-opacity="0" result="BackgroundImageFix"/>
<feColorMatrix in="SourceAlpha" type="matrix" values="0 0 0 0 0 0 0 0 0 0 0 0 0 0 0 0 0 0 127 0"/>
<feOffset dy="4"/>
<feGaussianBlur stdDeviation="2"/>
<feColorMatrix type="matrix" values="0 0 0 0 0 0 0 0 0 0 0 0 0 0 0 0 0 0 0.25 0"/>
<feBlend mode="normal" in2="BackgroundImageFix" result="effect1_dropShadow"/>
<feBlend mode="normal" in="SourceGraphic" in2="effect1_dropShadow" result="shape"/>
</filter>
<clipPath id="clip0">
<rect x="24" y="20" width="40" height="40" fill="white"/>
</clipPath>
</defs>
</svg>
