<svg width="88" height="88" viewBox="0 0 88 88" fill="none" xmlns="http://www.w3.org/2000/svg">
<g filter="url(#filter0_d)">
<circle cx="44" cy="40" r="40" fill="#49A600"/>
</g>
<path d="M62.7268 40.118C62.0289 39.4116 61.0724 39.0732 60.1264 39.1154V25.7666C60.1264 24.2456 58.8264 23.0083 57.2281 23.0083H36.7499C35.1517 23.0083 33.8517 24.2456 33.8517 25.7666V41.1252C32.7375 41.551 32.0246 42.1403 31.6056 42.5899H25.1795C24.5283 42.5899 24 43.0927 24 43.7128V55.634C24 56.2541 24.5283 56.7568 25.1795 56.7568H32.1528L49.3213 57.0449C49.3607 57.0458 49.4001 57.0461 49.4395 57.0461C51.3163 57.0461 53.1098 56.293 54.3754 54.9691L62.779 46.1789C63.5761 45.3453 64.0095 44.2655 63.9997 43.1386C63.9902 42.0116 63.538 40.9388 62.7268 40.118ZM44.8395 25.2537H48.9774V28.6202H44.8395V25.2537ZM36.2107 25.7666C36.2107 25.4837 36.4527 25.2537 36.7496 25.2537H42.4802V29.7431C42.4802 30.3629 43.0085 30.8656 43.66 30.8656H50.1569C50.8085 30.8656 51.3364 30.3629 51.3364 29.7431V25.2537H57.2281C57.5254 25.2537 57.7671 25.4837 57.7671 25.7666V40.1345L51.4829 44.9076C51.0779 44.0404 50.4493 43.5115 49.8865 43.1932C48.913 42.6425 47.945 42.6265 47.8376 42.6265H42.6575C41.9483 41.8304 40.3239 40.5728 37.1369 40.5728C36.8122 40.5728 36.504 40.5862 36.2107 40.6106V25.7666ZM26.3593 44.8353H30.983V54.5114H26.3593V44.8353ZM61.034 44.6677L52.6301 53.458C51.7948 54.3316 50.6025 54.8196 49.3629 54.8001L33.3423 54.5312V44.0979C33.6805 43.72 34.7401 42.8182 37.1372 42.8182C40.0217 42.8182 40.9025 44.097 40.9965 44.2489C41.1832 44.657 41.5839 44.8719 42.0536 44.8719H47.8379C47.8419 44.8719 48.2697 44.8905 48.6811 45.1232C49.2661 45.4543 49.5502 46.0752 49.5502 47.0218C49.5502 47.937 49.2853 48.5466 48.7403 48.885C48.3246 49.1432 47.8693 49.1696 47.8254 49.1716H39.7111C39.0595 49.1716 38.5316 49.6741 38.5316 50.2942C38.5316 50.9143 39.0595 51.4167 39.7111 51.4167H47.8379C47.945 51.4167 48.913 51.4011 49.8865 50.8501C50.7453 50.3642 51.7576 49.3886 51.894 47.4682L59.6076 41.6094C59.6183 41.6013 59.6284 41.5931 59.6387 41.585C60.0425 41.2562 60.644 41.2873 61.0081 41.6559C61.836 42.4941 61.8476 43.8167 61.034 44.6677Z" fill="white"/>
<defs>
<filter id="filter0_d" x="0" y="0" width="88" height="88" filterUnits="userSpaceOnUse" color-interpolation-filters="sRGB">
<feFlood flood-opacity="0" result="BackgroundImageFix"/>
<feColorMatrix in="SourceAlpha" type="matrix" values="0 0 0 0 0 0 0 0 0 0 0 0 0 0 0 0 0 0 127 0"/>
<feOffset dy="4"/>
<feGaussianBlur stdDeviation="2"/>
<feColorMatrix type="matrix" values="0 0 0 0 0 0 0 0 0 0 0 0 0 0 0 0 0 0 0.25 0"/>
<feBlend mode="normal" in2="BackgroundImageFix" result="effect1_dropShadow"/>
<feBlend mode="normal" in="SourceGraphic" in2="effect1_dropShadow" result="shape"/>
</filter>
</defs>
</svg>
