<svg width="22" height="13" viewBox="0 0 22 13" fill="none" xmlns="http://www.w3.org/2000/svg">
<path d="M21.7495 2.86462L11.1208 0.0189036C11.0265 -0.00630121 10.9168 -0.00630121 10.8226 0.0189036L0.193813 2.86462C0.0753032 2.89634 0 2.9629 0 3.03588V9.9469C0 10.0199 0.0753032 10.0864 0.193813 10.1182L10.8226 12.9639C10.8697 12.9765 10.9207 12.9828 10.9717 12.9828C11.0227 12.9828 11.0736 12.9765 11.1208 12.9639L21.7495 10.1182C21.8681 10.0864 21.9434 10.0199 21.9434 9.9469V3.0359C21.9434 2.96287 21.868 2.89636 21.7495 2.86462ZM10.9717 0.401363L20.8117 3.03588L17.9593 3.79958C17.9412 3.79195 17.9222 3.7849 17.9012 3.77929L8.12804 1.16271L10.9717 0.401363ZM7.35361 1.37773L17.1793 4.00842L15.1669 4.54723L5.34525 1.91761L7.35361 1.37773ZM17.4092 4.3692V6.36089L15.5295 6.86417V4.87248L17.4092 4.3692ZM21.2575 9.82757L11.3146 12.4896V6.00095L13.6863 5.36596C13.8568 5.32029 13.9283 5.20661 13.846 5.11201C13.7637 5.01745 13.5587 4.97774 13.3881 5.02343L10.9717 5.67042L10.0209 5.41583C9.85027 5.37011 9.6453 5.40982 9.56296 5.50441C9.48061 5.59899 9.55212 5.71269 9.72266 5.75836L10.6288 6.00095V12.4896L0.685821 9.82752V3.33887L8.25729 5.36603C8.30534 5.37891 8.35614 5.385 8.40611 5.385C8.53358 5.385 8.65603 5.34539 8.71515 5.27746C8.79749 5.18288 8.72598 5.06918 8.55544 5.02351L1.13165 3.03588L4.53813 2.12384L14.8389 4.88174C14.8404 4.88291 14.8421 4.88394 14.8436 4.88509V7.16719C14.8436 7.23264 14.9043 7.29347 15.0043 7.32828C15.0598 7.3476 15.1231 7.35737 15.1866 7.35737C15.2374 7.35737 15.2884 7.3511 15.3357 7.33845L17.9012 6.65156C18.0197 6.61983 18.095 6.5533 18.095 6.48029V4.18561L21.2575 3.33889V9.82757Z" fill="black"/>
<path d="M3.51578 9.0899L1.95596 8.6723C1.78533 8.62658 1.5804 8.66629 1.49806 8.76087C1.41571 8.85545 1.48722 8.96915 1.65776 9.01482L3.21758 9.43242C3.26563 9.4453 3.31643 9.45139 3.3664 9.45139C3.49388 9.45139 3.61632 9.41178 3.67544 9.34385C3.75783 9.24924 3.68632 9.13559 3.51578 9.0899Z" fill="black"/>
<path d="M4.95125 8.57166L1.95812 7.7703C1.78753 7.72464 1.58257 7.76429 1.50022 7.8589C1.41793 7.95348 1.48943 8.06717 1.65997 8.11284L4.6531 8.9142C4.70116 8.92706 4.75195 8.93317 4.80193 8.93317C4.9294 8.93317 5.05184 8.89356 5.11095 8.82563C5.1933 8.731 5.12179 8.6173 4.95125 8.57166Z" fill="black"/>
</svg>
