<svg width="56" height="19" viewBox="0 0 56 19" fill="none" xmlns="http://www.w3.org/2000/svg">
<path d="M8.99905 0.302954L11.185 6.10958L16.7814 6.64915C17.1695 6.68677 17.3274 7.23031 17.0328 7.51643L12.7879 11.6439L14.0599 17.7842C14.1482 18.2109 13.7362 18.5465 13.4027 18.3198L8.59327 15.0645L3.78379 18.3198C3.44945 18.5455 3.03837 18.2099 3.12659 17.7842L4.39865 11.6439L0.15286 7.51544C-0.141778 7.22932 0.0152451 6.68578 0.404273 6.64816L6.00063 6.10859L8.18659 0.302954C8.33832 -0.100985 8.84732 -0.100985 8.99905 0.302954V0.302954Z" fill="#FF6B00"/>
<path d="M28.4063 0.302954L30.5922 6.10958L36.1886 6.64915C36.5767 6.68677 36.7347 7.23031 36.44 7.51643L32.1951 11.6439L33.4672 17.7842C33.5554 18.2109 33.1434 18.5465 32.81 18.3198L28.0005 15.0645L23.191 18.3198C22.8567 18.5455 22.4456 18.2099 22.5338 17.7842L23.8059 11.6439L19.5601 7.51544C19.2654 7.22932 19.4225 6.68578 19.8115 6.64816L25.4079 6.10859L27.5938 0.302954C27.7456 -0.100985 28.2546 -0.100985 28.4063 0.302954V0.302954Z" fill="#FF6B00"/>
<path d="M47.8136 0.302954L49.9996 6.10958L55.596 6.64915C55.9841 6.68677 56.142 7.23031 55.8474 7.51643L51.6025 11.6439L52.8745 17.7842C52.9627 18.2109 52.5508 18.5465 52.2173 18.3198L47.4078 15.0645L42.5984 18.3198C42.264 18.5455 41.8529 18.2099 41.9412 17.7842L43.2132 11.6439L38.9674 7.51544C38.6728 7.22932 38.8298 6.68578 39.2188 6.64816L44.8152 6.10859L47.0012 0.302954C47.1529 -0.100985 47.6619 -0.100985 47.8136 0.302954V0.302954Z" fill="#FF6B00"/>
</svg>
