<svg width="110" height="110" viewBox="0 0 110 110" fill="none" xmlns="http://www.w3.org/2000/svg">
<g filter="url(#filter0_d)">
<circle cx="55" cy="50" r="40" fill="#92DDEA"/>
</g>
<g clip-path="url(#clip0)">
<path d="M74.6567 63.0279L67.8983 56.2694L71.2129 52.9549C71.5001 52.6677 71.6181 52.2523 71.5247 51.857C71.4314 51.4617 71.1401 51.143 70.7548 51.0145L50.8675 44.3854C50.4465 44.245 49.9821 44.3546 49.6683 44.6685C49.3544 44.9824 49.2447 45.4466 49.3851 45.8677L56.0143 65.7551C56.1428 66.1405 56.4615 66.4318 56.8568 66.5251C57.252 66.6186 57.6675 66.5005 57.9547 66.2132L61.2693 62.8987L68.0277 69.657C68.2565 69.8858 68.5565 70.0003 68.8563 70.0003C69.1561 70.0003 69.4562 69.8859 69.6849 69.657L74.6568 64.6851C75.1144 64.2275 75.1144 63.4855 74.6567 63.0279ZM68.8562 67.1711L62.0978 60.4127C61.6402 59.9551 60.8981 59.9551 60.4405 60.4127L57.6381 63.2151L52.3497 47.3501L68.2148 52.6384L65.4124 55.4408C64.9551 55.898 64.9547 56.6405 65.4124 57.0981L72.1708 63.8565L68.8562 67.1711Z" fill="white"/>
<path d="M50.2344 39.375C50.8816 39.375 51.4062 38.8503 51.4062 38.2031V31.1719C51.4062 30.5247 50.8816 30 50.2344 30C49.5872 30 49.0625 30.5247 49.0625 31.1719V38.2031C49.0625 38.8503 49.5872 39.375 50.2344 39.375Z" fill="white"/>
<path d="M41.1193 34.4614C40.6617 34.0038 39.9197 34.0038 39.462 34.4614C39.0044 34.9191 39.0044 35.661 39.462 36.1187L44.4339 41.0905C44.8915 41.5482 45.6336 41.5482 46.0912 41.0905C46.5488 40.6329 46.5488 39.8909 46.0912 39.4333L41.1193 34.4614Z" fill="white"/>
<path d="M44.4339 49.3774L39.462 54.3493C39.0044 54.807 39.0044 55.5489 39.462 56.0066C39.9196 56.4642 40.6617 56.4642 41.1193 56.0066L46.0912 51.0347C46.5488 50.577 46.5488 49.8351 46.0912 49.3774C45.6335 48.9198 44.8915 48.9198 44.4339 49.3774Z" fill="white"/>
<path d="M56.0348 41.0905L61.0067 36.1187C61.4643 35.661 61.4643 34.9191 61.0067 34.4614C60.5491 34.0038 59.8071 34.0038 59.3494 34.4614L54.3775 39.4333C53.9199 39.8909 53.9199 40.6329 54.3775 41.0905C54.8351 41.5482 55.5772 41.5482 56.0348 41.0905Z" fill="white"/>
<path d="M44.375 45.2344C44.375 44.5872 43.8503 44.0625 43.2031 44.0625H36.1719C35.5247 44.0625 35 44.5872 35 45.2344C35 45.8816 35.5247 46.4062 36.1719 46.4062H43.2031C43.8503 46.4062 44.375 45.8816 44.375 45.2344Z" fill="white"/>
</g>
<defs>
<filter id="filter0_d" x="0" y="0" width="110" height="110" filterUnits="userSpaceOnUse" color-interpolation-filters="sRGB">
<feFlood flood-opacity="0" result="BackgroundImageFix"/>
<feColorMatrix in="SourceAlpha" type="matrix" values="0 0 0 0 0 0 0 0 0 0 0 0 0 0 0 0 0 0 127 0"/>
<feOffset dy="5"/>
<feGaussianBlur stdDeviation="7.5"/>
<feColorMatrix type="matrix" values="0 0 0 0 0.188935 0 0 0 0 0.0634896 0 0 0 0 0.2875 0 0 0 0.25 0"/>
<feBlend mode="normal" in2="BackgroundImageFix" result="effect1_dropShadow"/>
<feBlend mode="normal" in="SourceGraphic" in2="effect1_dropShadow" result="shape"/>
</filter>
<clipPath id="clip0">
<rect x="35" y="30" width="40" height="40" fill="white"/>
</clipPath>
</defs>
</svg>
