<svg width="110" height="110" viewBox="0 0 110 110" fill="none" xmlns="http://www.w3.org/2000/svg">
<g filter="url(#filter0_d)">
<circle cx="55" cy="50" r="40" fill="#92DDEA"/>
</g>
<path d="M61.9807 53.8314C61.7715 53.6154 61.4878 53.494 61.192 53.494C60.8962 53.494 60.6124 53.6154 60.4033 53.8314C59.619 54.6414 57.1707 57.1698 56.2754 58.0944C52.3813 55.6964 49.1327 52.3415 46.8108 48.3201L50.9388 44.057C51.148 43.841 51.2655 43.548 51.2655 43.2425C51.2655 42.937 51.1481 42.6441 50.9388 42.428L43.0515 34.2827C42.616 33.8329 41.9097 33.8328 41.4741 34.2827L38.325 37.5347C38.3231 37.5367 38.321 37.5383 38.319 37.5403C38.3171 37.5423 38.3155 37.5445 38.3135 37.5466L38.2968 37.5639C35.9915 39.9445 35.3498 43.5697 36.7001 46.5847C38.5067 50.6186 40.8379 54.3307 43.6292 57.6177C47.6324 62.3321 52.488 66.0413 58.0612 68.6424C60.9132 69.9735 64.366 69.2875 66.6512 66.9276L69.8678 63.6057C70.3034 63.156 70.3034 62.4266 69.8678 61.9767L61.9807 53.8314ZM42.2629 36.7263L48.5727 43.2425L46.9947 44.8721L40.6854 38.3553L42.2629 36.7263ZM58.9799 66.543C47.6077 61.2355 41.6881 52.2342 38.7248 45.6176C37.9173 43.8145 38.117 41.6999 39.1826 40.0615L45.4173 46.5011L44.6291 47.3152C44.277 47.6788 44.2009 48.2395 44.4428 48.6891C47.1238 53.6731 51.0919 57.771 55.918 60.54C56.3534 60.7898 56.8963 60.7113 57.2484 60.3476L58.0371 59.5331L64.2801 65.9813C62.7103 67.1009 60.6884 67.3405 58.9799 66.543ZM65.9237 64.4208L59.6144 57.9041L61.1919 56.2751L67.5016 62.7913L65.9237 64.4208Z" fill="white"/>
<path d="M64.0295 30C58.4942 30 53.9909 34.6507 53.9909 40.3672C53.9909 42.1176 54.4352 43.8464 55.2804 45.4007L54.0481 49.2183C53.9145 49.6322 54.0188 50.0886 54.3176 50.3971C54.618 50.7072 55.0604 50.8127 55.459 50.6754L59.1557 49.4028C60.6607 50.2757 62.3346 50.7344 64.0296 50.7344C69.5649 50.7344 74.0682 46.0837 74.0682 40.3672C74.0682 34.6507 69.5648 30 64.0295 30ZM64.0295 48.4307C62.5809 48.4307 61.1472 47.9945 59.8835 47.1695C59.703 47.0517 59.4961 46.9913 59.2873 46.9913C59.1688 46.9913 59.0498 47.0108 58.9347 47.0504L56.8699 47.7612L57.5582 45.6289C57.664 45.3009 57.6217 44.9413 57.4428 44.6491C56.6439 43.344 56.2216 41.8633 56.2216 40.3672C56.2216 35.9211 59.7242 32.3038 64.0294 32.3038C68.3347 32.3038 71.8373 35.9211 71.8373 40.3672C71.8373 44.8134 68.3348 48.4307 64.0295 48.4307Z" fill="white"/>
<path d="M59.5679 41.5187C60.1839 41.5187 60.6833 41.0029 60.6833 40.3668C60.6833 39.7306 60.1839 39.2148 59.5679 39.2148C58.9519 39.2148 58.4525 39.7306 58.4525 40.3668C58.4525 41.0029 58.9519 41.5187 59.5679 41.5187Z" fill="white"/>
<path d="M64.0295 41.5187C64.6455 41.5187 65.1449 41.0029 65.1449 40.3668C65.1449 39.7306 64.6455 39.2148 64.0295 39.2148C63.4134 39.2148 62.9141 39.7306 62.9141 40.3668C62.9141 41.0029 63.4134 41.5187 64.0295 41.5187Z" fill="white"/>
<path d="M68.4911 41.5187C69.1071 41.5187 69.6065 41.0029 69.6065 40.3668C69.6065 39.7306 69.1071 39.2148 68.4911 39.2148C67.8751 39.2148 67.3757 39.7306 67.3757 40.3668C67.3757 41.0029 67.8751 41.5187 68.4911 41.5187Z" fill="white"/>
<defs>
<filter id="filter0_d" x="0" y="0" width="110" height="110" filterUnits="userSpaceOnUse" color-interpolation-filters="sRGB">
<feFlood flood-opacity="0" result="BackgroundImageFix"/>
<feColorMatrix in="SourceAlpha" type="matrix" values="0 0 0 0 0 0 0 0 0 0 0 0 0 0 0 0 0 0 127 0"/>
<feOffset dy="5"/>
<feGaussianBlur stdDeviation="7.5"/>
<feColorMatrix type="matrix" values="0 0 0 0 0.188935 0 0 0 0 0.0634896 0 0 0 0 0.2875 0 0 0 0.25 0"/>
<feBlend mode="normal" in2="BackgroundImageFix" result="effect1_dropShadow"/>
<feBlend mode="normal" in="SourceGraphic" in2="effect1_dropShadow" result="shape"/>
</filter>
</defs>
</svg>
