<svg width="110" height="110" viewBox="0 0 110 110" fill="none" xmlns="http://www.w3.org/2000/svg">
<g filter="url(#filter0_d)">
<circle cx="55" cy="50" r="40" fill="#92DDEA"/>
</g>
<path d="M73.8281 47.2656H72.6562V37.4219C72.6562 36.7747 72.1316 36.25 71.4844 36.25H69.5312V31.1719C69.5312 30.5247 69.0066 30 68.3594 30H39.2969C36.9276 30 35 31.9276 35 34.2969V64.1406C35 67.3715 37.6285 70 40.8594 70H71.4844C72.1316 70 72.6562 69.4753 72.6562 68.8281V58.9844H73.8281C74.4753 58.9844 75 58.4597 75 57.8125V48.4375C75 47.7903 74.4753 47.2656 73.8281 47.2656ZM70.3125 42.1094H37.3438V38.1237L37.349 38.1249C37.9341 38.4239 38.5959 38.5938 39.2969 38.5938H68.3594H70.3125V42.1094ZM39.2969 32.3438H67.1875V36.25H39.2969C38.2199 36.25 37.3438 35.3738 37.3438 34.2969C37.3438 33.2199 38.2199 32.3438 39.2969 32.3438ZM40.8594 67.6562C38.9209 67.6562 37.3438 66.0791 37.3438 64.1406H70.3125V67.6562H40.8594ZM70.3125 61.7969H37.3438V44.4531H70.3125V47.2656H65.2344C62.0035 47.2656 59.375 49.8941 59.375 53.125C59.375 56.3559 62.0035 58.9844 65.2344 58.9844H70.3125V61.7969ZM72.6562 56.6406H65.2344C63.2959 56.6406 61.7188 55.0635 61.7188 53.125C61.7188 51.1865 63.2959 49.6094 65.2344 49.6094H72.6562V56.6406Z" fill="white"/>
<path d="M65.2344 54.2969C65.8816 54.2969 66.4062 53.7722 66.4062 53.125C66.4062 52.4778 65.8816 51.9531 65.2344 51.9531C64.5872 51.9531 64.0625 52.4778 64.0625 53.125C64.0625 53.7722 64.5872 54.2969 65.2344 54.2969Z" fill="white"/>
<defs>
<filter id="filter0_d" x="0" y="0" width="110" height="110" filterUnits="userSpaceOnUse" color-interpolation-filters="sRGB">
<feFlood flood-opacity="0" result="BackgroundImageFix"/>
<feColorMatrix in="SourceAlpha" type="matrix" values="0 0 0 0 0 0 0 0 0 0 0 0 0 0 0 0 0 0 127 0"/>
<feOffset dy="5"/>
<feGaussianBlur stdDeviation="7.5"/>
<feColorMatrix type="matrix" values="0 0 0 0 0.188935 0 0 0 0 0.0634896 0 0 0 0 0.2875 0 0 0 0.25 0"/>
<feBlend mode="normal" in2="BackgroundImageFix" result="effect1_dropShadow"/>
<feBlend mode="normal" in="SourceGraphic" in2="effect1_dropShadow" result="shape"/>
</filter>
</defs>
</svg>
