<svg width="117" height="17" viewBox="0 0 117 17" fill="none" xmlns="http://www.w3.org/2000/svg">
<g clip-path="url(#clip0)">
<path d="M66.5488 6.0809L61.3227 5.28261L58.9802 0.293109C58.8053 -0.079474 58.194 -0.079474 58.019 0.293109L55.6773 5.28261L50.4512 6.0809C50.0219 6.14678 49.8505 6.66882 50.1516 6.97694L53.9482 10.8685L53.0508 16.3702C52.9792 16.8072 53.446 17.1352 53.8321 16.9205L58.5 14.3408L63.1679 16.9212C63.5504 17.1337 64.0214 16.8122 63.9492 16.3709L63.0517 10.8692L66.8484 6.97765C67.1494 6.66882 66.9773 6.14678 66.5488 6.0809Z" fill="#FFC107"/>
</g>
<g clip-path="url(#clip1)">
<path d="M91.5488 6.0809L86.3227 5.28261L83.9802 0.293109C83.8053 -0.079474 83.194 -0.079474 83.019 0.293109L80.6773 5.28261L75.4512 6.0809C75.0219 6.14678 74.8505 6.66882 75.1516 6.97694L78.9482 10.8685L78.0508 16.3702C77.9792 16.8072 78.446 17.1352 78.8321 16.9205L83.5 14.3408L88.1679 16.9212C88.5504 17.1337 89.0214 16.8122 88.9492 16.3709L88.0517 10.8692L91.8484 6.97765C92.1494 6.66882 91.9773 6.14678 91.5488 6.0809Z" fill="#FFC107"/>
</g>
<g clip-path="url(#clip2)">
<path d="M116.549 6.0809L111.323 5.28261L108.98 0.293109C108.805 -0.079474 108.194 -0.079474 108.019 0.293109L105.677 5.28261L100.451 6.0809C100.022 6.14678 99.8505 6.66882 100.152 6.97694L103.948 10.8685L103.051 16.3702C102.979 16.8072 103.446 17.1352 103.832 16.9205L108.5 14.3408L113.168 16.9212C113.55 17.1337 114.021 16.8122 113.949 16.3709L113.052 10.8692L116.848 6.97765C117.149 6.66882 116.977 6.14678 116.549 6.0809Z" fill="#FFC107"/>
</g>
<g clip-path="url(#clip3)">
<path d="M41.5488 6.0809L36.3227 5.28261L33.9802 0.293109C33.8053 -0.079474 33.194 -0.079474 33.019 0.293109L30.6773 5.28261L25.4512 6.0809C25.0219 6.14678 24.8505 6.66882 25.1516 6.97694L28.9482 10.8685L28.0508 16.3702C27.9792 16.8072 28.446 17.1352 28.8321 16.9205L33.5 14.3408L38.1679 16.9212C38.5504 17.1337 39.0214 16.8122 38.9492 16.3709L38.0517 10.8692L41.8484 6.97765C42.1494 6.66882 41.9773 6.14678 41.5488 6.0809Z" fill="#FFC107"/>
</g>
<g clip-path="url(#clip4)">
<path d="M16.5488 6.0809L11.3227 5.28261L8.98023 0.293109C8.80527 -0.079474 8.19398 -0.079474 8.01902 0.293109L5.67728 5.28261L0.451192 6.0809C0.021942 6.14678 -0.149475 6.66882 0.151567 6.97694L3.94823 10.8685L3.05078 16.3702C2.97923 16.8072 3.44603 17.1352 3.83207 16.9205L8.49998 14.3408L13.1679 16.9212C13.5504 17.1337 14.0214 16.8122 13.9492 16.3709L13.0517 10.8692L16.8484 6.97765C17.1494 6.66882 16.9773 6.14678 16.5488 6.0809Z" fill="#FFC107"/>
</g>
<defs>
<clipPath id="clip0">
<rect x="50" width="17" height="17" fill="white"/>
</clipPath>
<clipPath id="clip1">
<rect x="75" width="17" height="17" fill="white"/>
</clipPath>
<clipPath id="clip2">
<rect x="100" width="17" height="17" fill="white"/>
</clipPath>
<clipPath id="clip3">
<rect x="25" width="17" height="17" fill="white"/>
</clipPath>
<clipPath id="clip4">
<rect width="17" height="17" fill="white"/>
</clipPath>
</defs>
</svg>
