<svg width="37" height="37" viewBox="0 0 37 37" fill="none" xmlns="http://www.w3.org/2000/svg">
<path d="M29.1431 26.7211L23.8437 30.3881C23.7928 30.4233 23.7291 30.4361 23.6685 30.4236L18.8474 29.4181C18.5547 29.357 18.2674 29.545 18.2062 29.838C18.1451 30.1311 18.3331 30.4182 18.6262 30.4793L23.4472 31.4847C23.5351 31.5031 23.6241 31.512 23.713 31.512C23.9779 31.512 24.2403 31.4318 24.4605 31.2795L29.7599 27.6125C30.0061 27.4422 30.0675 27.1046 29.8972 26.8584C29.7269 26.6123 29.3892 26.5507 29.1431 26.7211Z" fill="black"/>
<path d="M36.9726 16.4334C36.8669 15.9113 36.4772 15.5195 35.9557 15.4106L33.8161 14.9644C33.8136 14.9639 33.8112 14.9633 33.8086 14.9628L33.1446 14.8244L36.4339 12.5482C36.872 12.2452 37.0784 11.7325 36.9727 11.2104C36.8669 10.6883 36.4773 10.2965 35.9558 10.1877L21.224 7.11522C20.931 7.05408 20.6439 7.24204 20.5827 7.53514C20.5216 7.82817 20.7096 8.11519 21.0026 8.17633L35.7345 11.2489C35.8617 11.2754 35.8992 11.3711 35.9103 11.4257C35.9214 11.4803 35.924 11.5831 35.8172 11.6569L30.7972 15.1307L24.5459 11.3928C24.1383 11.1492 23.6297 11.1453 23.2184 11.3826L12.3967 17.627L1.26545 15.3055C1.13826 15.279 1.10069 15.1834 1.08963 15.1287C1.07858 15.074 1.07597 14.9714 1.18278 14.8974L13.1566 6.61191C13.2075 6.57672 13.2713 6.56393 13.3318 6.57643L18.3305 7.61896C18.6235 7.68039 18.9106 7.49214 18.9717 7.19904C19.0328 6.90602 18.8449 6.61899 18.5518 6.55785L13.553 5.51532C13.2031 5.44233 12.8337 5.51705 12.5398 5.72054L0.565942 14.0061C0.127884 14.3092 -0.0784988 14.8218 0.0272941 15.3439C0.133015 15.866 0.522657 16.2579 1.04418 16.3667L3.85542 16.953L0.566014 19.2291C0.127956 19.5322 -0.0784266 20.0449 0.0272941 20.5669C0.133015 21.089 0.522657 21.4809 1.04418 21.5896L3.85542 22.1759L0.566014 24.452C0.127956 24.7552 -0.0784266 25.2678 0.0272941 25.7899C0.133015 26.312 0.522657 26.7038 1.04418 26.8126L15.8979 29.9103C15.9353 29.9181 15.9724 29.9218 16.0091 29.9218C16.2604 29.9218 16.4858 29.7461 16.5391 29.4904C16.6002 29.1974 16.4122 28.9103 16.1192 28.8492L1.26545 25.7515C1.13826 25.725 1.10069 25.6294 1.08963 25.5747C1.07858 25.5201 1.07597 25.4173 1.18278 25.3434L5.31918 22.4812L23.4471 26.2617C23.535 26.2801 23.624 26.289 23.7128 26.289C23.9778 26.289 24.2402 26.2088 24.4604 26.0565L31.9149 20.8982L35.7344 21.6947C35.8616 21.7212 35.8992 21.8169 35.9103 21.8715C35.9213 21.9262 35.9239 22.0289 35.8171 22.1028L31.3161 25.2173C31.0699 25.3876 31.0084 25.7252 31.1788 25.9714C31.284 26.1234 31.453 26.205 31.6249 26.205C31.7313 26.205 31.8387 26.1738 31.9328 26.1087L36.4339 22.9941C36.8719 22.6911 37.0783 22.1784 36.9726 21.6564C36.8669 21.1343 36.4772 20.7424 35.9557 20.6336L33.1445 20.0473L36.4339 17.7712C36.8719 17.4681 37.0784 16.9555 36.9726 16.4334ZM33.1609 15.9351V18.7179L31.4006 19.936V16.0314L31.9151 15.6753L33.1609 15.9351ZM27.6484 16.741V22.5325L25.888 23.7506V16.9738L27.6484 16.741ZM28.7323 16.5976L30.3167 16.388V20.686L28.7323 21.7824V16.5976ZM23.7603 12.3213C23.8314 12.2803 23.9193 12.281 23.9898 12.3231L29.2053 15.4416L15.1248 17.3042L23.7603 12.3213ZM9.35153 18.0991L11.1119 18.4662V22.582L9.35153 22.2149V18.0991ZM8.26758 21.9888L6.68322 21.6584V17.5427L8.26758 17.8731V21.9888ZM12.1959 18.6923L12.3779 18.7302C12.4383 18.7427 12.4989 18.7449 12.5596 18.7369L13.7795 18.5755V23.1383L12.1959 22.8081V18.6923ZM14.8635 18.4322L16.6239 18.1993V23.7315L14.8635 23.3644V18.4322ZM17.7078 18.0559L19.2922 17.8463V24.2879L17.7078 23.9576V18.0559ZM20.376 17.703L22.1364 17.4701V24.8811L20.376 24.514V17.703ZM5.59927 17.3166V21.4323L3.83895 21.0652V18.2824L5.31918 17.2582L5.59927 17.3166ZM1.08963 20.3517C1.07858 20.2971 1.07597 20.1943 1.18278 20.1204L2.755 19.0325V20.8391L1.26545 20.5285C1.13826 20.502 1.10069 20.4063 1.08963 20.3517ZM23.8436 25.1651C23.7928 25.2003 23.7289 25.213 23.6685 25.2006L23.2204 25.1072V17.3267L24.8041 17.1172V24.5005L23.8436 25.1651ZM35.8171 16.8799L34.2449 17.9678V16.1612L35.7344 16.4718C35.8616 16.4983 35.8992 16.594 35.9103 16.6487C35.9213 16.7033 35.924 16.806 35.8171 16.8799Z" fill="black"/>
</svg>
