<svg width="75" height="75" viewBox="0 0 75 75" fill="none" xmlns="http://www.w3.org/2000/svg">
<rect width="75" height="75" fill="white"/>
<path d="M40.4004 37.5C40.4004 39.1018 39.1018 40.4004 37.5 40.4004C35.8982 40.4004 34.5996 39.1018 34.5996 37.5C34.5996 35.8982 35.8982 34.5996 37.5 34.5996C39.1018 34.5996 40.4004 35.8982 40.4004 37.5Z" fill="#1C1C1C"/>
<path d="M42.3984 28.7344H32.6016C30.4691 28.7344 28.7344 30.4691 28.7344 32.6016V42.3984C28.7344 44.5309 30.4691 46.2656 32.6016 46.2656H42.3984C44.5309 46.2656 46.2656 44.5309 46.2656 42.3984V32.6016C46.2656 30.4691 44.5309 28.7344 42.3984 28.7344ZM37.5 42.334C34.8345 42.334 32.666 40.1655 32.666 37.5C32.666 34.8345 34.8345 32.666 37.5 32.666C40.1655 32.666 42.334 34.8345 42.334 37.5C42.334 40.1655 40.1655 42.334 37.5 42.334ZM43.043 32.9238C42.509 32.9238 42.0762 32.491 42.0762 31.957C42.0762 31.423 42.509 30.9902 43.043 30.9902C43.577 30.9902 44.0098 31.423 44.0098 31.957C44.0098 32.491 43.577 32.9238 43.043 32.9238Z" fill="#1C1C1C"/>
<path d="M45.2988 21H29.7012C24.9034 21 21 24.9034 21 29.7012V45.2988C21 50.0966 24.9034 54 29.7012 54H45.2988C50.0966 54 54 50.0966 54 45.2988V29.7012C54 24.9034 50.0966 21 45.2988 21ZM48.1992 42.3984C48.1992 45.5969 45.5969 48.1992 42.3984 48.1992H32.6016C29.4031 48.1992 26.8008 45.5969 26.8008 42.3984V32.6016C26.8008 29.4031 29.4031 26.8008 32.6016 26.8008H42.3984C45.5969 26.8008 48.1992 29.4031 48.1992 32.6016V42.3984Z" fill="#1C1C1C"/>
</svg>
