<svg width="169" height="28" viewBox="0 0 169 28" fill="none" xmlns="http://www.w3.org/2000/svg">
<g clip-path="url(#clip0)">
<path d="M4.07671 26.3265H2.09276L3.49562 24.9236C4.25202 24.1672 4.72437 23.1834 4.85136 22.1162C1.61214 19.9904 0 16.9109 0 13.6825C0 7.72636 5.4742 1.67358 14.0474 1.67358C23.1298 1.67358 28 7.24328 28 13.1606C28 19.117 23.0784 24.683 14.0474 24.683C12.4654 24.683 10.8146 24.4718 9.34077 24.0843C7.94558 25.5153 6.05519 26.3265 4.07671 26.3265Z" fill="#D4D4D4"/>
</g>
<g clip-path="url(#clip1)">
<path d="M120.096 5.4021C118.854 4.05463 117.149 3.3125 115.296 3.3125C113.91 3.3125 112.641 3.75049 111.525 4.6142C110.961 5.05017 110.45 5.58356 110 6.20612C109.55 5.58374 109.039 5.05017 108.475 4.6142C107.359 3.75049 106.09 3.3125 104.704 3.3125C102.851 3.3125 101.146 4.05463 99.9037 5.4021C98.6762 6.73383 98 8.55316 98 10.5252C98 12.5549 98.7564 14.4129 100.38 16.3725C101.833 18.1254 103.921 19.9048 106.339 21.9653C107.165 22.6689 108.1 23.4666 109.072 24.3162C109.329 24.541 109.658 24.6648 110 24.6648C110.341 24.6648 110.671 24.541 110.927 24.3165C111.899 23.4667 112.836 22.6688 113.662 21.9647C116.079 19.9046 118.167 18.1254 119.62 16.3723C121.244 14.4129 122 12.5549 122 10.525C122 8.55316 121.324 6.73383 120.096 5.4021Z" fill="#D4D4D4"/>
</g>
<g clip-path="url(#clip2)">
<path d="M153.822 20.6189V25.1074C153.822 25.6005 153.422 26.0002 152.929 26C152.676 25.9999 152.435 25.8926 152.265 25.7047L144.23 16.7761C143.936 16.4488 143.924 15.9563 144.202 15.6153L152.238 5.7938C152.55 5.41216 153.112 5.35586 153.494 5.66809C153.701 5.83723 153.821 6.09007 153.822 6.3572V10.8063C160.875 10.5769 165.277 7.56168 167.261 1.6098C167.383 1.24568 167.724 1.00016 168.108 1.00001C168.156 0.999847 168.204 1.00377 168.251 1.01162C168.683 1.08209 169 1.45521 169 1.89289C169 12.4073 162.671 20.1315 153.822 20.6189Z" fill="#D5D5D5"/>
</g>
<defs>
<clipPath id="clip0">
<rect width="28" height="28" fill="white"/>
</clipPath>
<clipPath id="clip1">
<rect width="24" height="24" fill="white" transform="translate(98 2)"/>
</clipPath>
<clipPath id="clip2">
<rect width="25" height="25" fill="white" transform="matrix(1 0 0 -1 144 26)"/>
</clipPath>
</defs>
</svg>
