<svg width="68" height="68" viewBox="0 0 68 68" fill="none" xmlns="http://www.w3.org/2000/svg">
<path d="M55.907 36.0671C53.9242 22.2671 48.343 18.6374 46.0664 17.739C43.9367 16.9124 41.8437 17.128 40.2648 18.314C39.6039 18.889 39.0898 19.5718 38.7961 20.3983C38.1719 20.039 37.5109 19.7515 36.8133 19.4999V10.3358C36.8133 9.97646 36.5195 9.68896 36.1523 9.68896H32.8477C32.4805 9.68896 32.1867 9.97646 32.1867 10.3358V19.464C31.4891 19.7155 30.8281 20.003 30.2039 20.3624C29.9102 19.5718 29.3961 18.853 28.7352 18.278C27.1562 17.0921 25.0633 16.8765 22.9336 17.703C20.6203 18.6015 15.0758 22.2312 13.093 36.0312C12.2117 42.1765 13.0195 46.6687 15.5531 49.3999C17.9398 51.9515 21.2445 52.3108 23.2273 52.3108C23.668 52.3108 24.6227 52.2749 24.7328 52.2749C29.6164 52.2749 32.0766 46.5249 32.0766 35.2046C32.1133 31.9702 31.9297 28.7358 31.5258 25.5015C32.4805 25.0343 33.4719 24.8187 34.5 24.8187C35.5281 24.8187 36.5562 25.0343 37.4742 25.5015C37.0703 28.7358 36.8867 31.9702 36.9234 35.2046C36.9234 46.5249 39.3836 52.2749 44.2672 52.2749C44.3773 52.2749 45.332 52.3108 45.7727 52.3108C47.7555 52.3108 51.0602 51.9874 53.4469 49.3999C55.9805 46.7046 56.7883 42.2124 55.907 36.0671ZM30.7914 35.2046C30.6078 43.3265 29.8734 51.1608 24.2555 51.0171C22.5664 50.9812 18.968 51.2327 16.5078 48.5733C14.268 46.1655 13.5703 41.9968 14.3781 36.2468C16.2875 23.0937 21.3547 19.7155 23.4477 18.889C25.1367 18.2421 26.7891 18.3858 27.9641 19.2843C28.5148 19.7515 28.9187 20.3624 29.1391 21.0452C27.45 22.2671 25.9445 23.7046 24.7328 25.3937C24.4758 25.3218 24.182 25.2858 23.925 25.214C22.5664 24.8905 22.3094 23.2015 22.3094 23.2015C22.2359 22.8421 21.9055 22.6265 21.575 22.6983C21.2445 22.7702 20.9875 23.0937 21.0609 23.4171C21.1711 24.028 21.4281 24.603 21.7586 25.1062C21.4281 25.1421 21.0977 25.178 20.7672 25.2499C20.4367 25.3218 20.2164 25.6812 20.2898 26.0046C20.3633 26.328 20.6937 26.5437 21.0242 26.4718C22.0156 26.2921 23.007 26.2921 23.9984 26.5077C23.2273 27.6937 22.5297 28.9155 21.9422 30.2093C21.5016 30.1374 21.0242 30.1374 20.5469 30.1733C19.7758 30.0296 18.8945 29.1671 18.6008 28.8437C18.3805 28.5921 17.9766 28.5562 17.6828 28.7718C17.4258 28.9874 17.3891 29.3827 17.6094 29.6702C17.9031 29.9937 18.2336 30.3171 18.6008 30.6046C18.2336 30.7483 17.9031 30.928 17.6094 31.1077C17.3156 31.3233 17.2422 31.6827 17.4625 31.9702C17.6828 32.2577 18.05 32.3296 18.3437 32.114C19.0047 31.7187 19.7391 31.4671 20.5102 31.3952C20.8039 31.3593 21.0977 31.3593 21.3914 31.3952C21.2078 31.8624 21.0609 32.2937 20.9141 32.7249C20.6203 33.5874 21.0977 34.5218 21.9789 34.8452C21.9422 37.864 21.4648 40.8827 20.6203 43.7577C20.5102 44.0812 20.6937 44.4405 21.0609 44.5483C21.3914 44.6562 21.7586 44.4765 21.8687 44.1171C21.8687 44.1171 21.8687 44.1171 21.8687 44.0812C22.1258 43.2187 22.3461 42.3562 22.493 41.4937C22.6766 41.853 22.8969 42.2124 23.1172 42.5358C23.3375 42.8233 23.7414 42.8593 24.0352 42.6437C24.2922 42.428 24.3656 42.0687 24.182 41.7812C24.182 41.7812 22.8234 40.0921 23.0437 38.1515C23.1906 37.0374 23.2641 35.9233 23.2641 34.8093C23.7047 34.6296 24.0352 34.3062 24.2555 33.9108C24.7328 32.7968 25.3203 31.7546 26.018 30.7483C26.4219 32.1858 26.0914 34.7374 25.5773 36.3546C25.4672 36.678 25.6508 37.0374 25.9812 37.1452C26.3117 37.253 26.6789 37.0733 26.7891 36.7499C26.9359 36.2827 27.0461 35.8155 27.1562 35.3483C27.5234 35.7437 27.9273 36.103 28.368 36.4265C28.6617 36.6421 29.0656 36.5702 29.2859 36.3187C29.5062 36.0312 29.4328 35.6358 29.1758 35.4202C28.5148 34.9171 27.5234 33.9468 27.45 33.4077C27.5602 32.0062 27.4867 30.5327 26.8992 29.5265C27.8906 28.2327 29.0656 27.1187 30.3875 26.1843C30.6445 29.203 30.8648 32.2218 30.7914 35.2046ZM34.5 23.5608C29.0289 23.5608 25.5039 29.203 25.5039 29.239C24.5859 30.5327 23.7047 31.9702 23.0437 33.4437C22.9336 33.6952 22.6398 33.7671 22.3828 33.6593C22.1625 33.5515 22.0523 33.3358 22.1258 33.1202C23.1539 29.9577 25.8711 24.603 30.2039 21.8358C30.4977 21.6562 32.0398 20.8296 33.0312 20.5062C33.2883 20.4343 33.4719 20.1827 33.4719 19.8952V10.9827H35.4914V19.9312C35.4914 20.2187 35.675 20.4343 35.932 20.5421C36.9234 20.8655 38.4656 21.6921 38.7594 21.8718C43.1289 24.639 45.8461 29.9937 46.8375 33.1562C46.9109 33.3718 46.8008 33.6233 46.5805 33.6952C46.3234 33.803 46.0664 33.6952 45.9195 33.4796C45.2586 32.0062 44.4141 30.5687 43.4594 29.2749C43.4961 29.203 39.8977 23.5608 34.5 23.5608ZM52.5289 48.5733C50.032 51.2687 46.4703 50.9812 44.7812 51.0171C39.1633 51.1608 38.4289 43.3265 38.2453 35.2046C38.1719 32.1858 38.3922 29.203 38.7227 26.2202C40.0445 27.1546 41.2195 28.2687 42.2109 29.5624C41.6234 30.5327 41.55 32.0062 41.6602 33.4437C41.5867 33.9827 40.632 34.953 39.9344 35.4562C39.6406 35.6718 39.6039 36.0671 39.8242 36.3546C40.0445 36.6421 40.4484 36.678 40.7422 36.4624C41.1828 36.139 41.5867 35.7796 41.9539 35.3843C42.0641 35.8515 42.1742 36.3187 42.3211 36.7858C42.4313 37.1093 42.7984 37.289 43.1289 37.1812C43.4594 37.0733 43.643 36.714 43.5328 36.3905C43.0187 34.7733 42.6883 32.1858 43.0922 30.7843C43.7531 31.7905 44.3406 32.8687 44.8547 33.9468C45.0383 34.378 45.4055 34.7015 45.8461 34.8452C45.8461 35.9593 45.9195 37.0733 46.0664 38.1874C46.3234 40.128 44.9648 41.7812 44.9281 41.8171C44.7445 42.1046 44.7812 42.464 45.075 42.6796C45.3688 42.8952 45.7727 42.8233 45.993 42.5718C46.2133 42.2483 46.4336 41.889 46.6172 41.5296C46.8008 42.3921 47.0211 43.2546 47.2414 44.1171V44.153C47.3516 44.4765 47.7188 44.6921 48.0492 44.5843C48.3797 44.4765 48.6 44.1171 48.4898 43.7937C47.6453 40.8827 47.2047 37.8999 47.1312 34.8812C48.0125 34.5577 48.4531 33.6233 48.1961 32.7608C48.0492 32.3655 47.9023 31.8983 47.7188 31.4312H48.6C49.3711 31.503 50.1055 31.7187 50.7664 32.1499C51.0602 32.3655 51.4641 32.2937 51.6477 32.0062C51.868 31.7187 51.7945 31.3233 51.5008 31.1437C51.207 30.928 50.8398 30.7483 50.5094 30.6405C50.8766 30.353 51.207 30.0655 51.5008 29.7062C51.7211 29.4546 51.6844 29.0593 51.4273 28.8077C51.1703 28.5921 50.7664 28.628 50.5094 28.8796C50.2156 29.203 49.3344 30.0296 48.5633 30.2093C48.0859 30.1733 47.6453 30.1733 47.168 30.2452C46.5805 28.9515 45.8828 27.7296 45.1117 26.5437C46.1031 26.328 47.0945 26.328 48.0859 26.5077C48.4164 26.5796 48.7469 26.364 48.8203 26.0405C48.8937 25.7171 48.6734 25.3577 48.343 25.2858C48.0125 25.214 47.682 25.178 47.3516 25.1421C47.682 24.639 47.9391 24.064 48.0492 23.453C48.1227 23.0937 47.8656 22.7702 47.5352 22.7343C47.2047 22.6983 46.8375 22.914 46.8008 23.2374C46.8008 23.2374 46.507 24.9624 45.1852 25.2499C44.8914 25.3218 44.6344 25.3577 44.3773 25.4296C43.1656 23.7405 41.6969 22.303 39.9711 21.0812C40.1914 20.3983 40.5953 19.7874 41.1461 19.3202C42.3578 18.3858 44.0102 18.2421 45.6625 18.9249C47.7555 19.7515 52.8227 23.0937 54.732 36.2827C55.4664 41.9968 54.7687 46.1655 52.5289 48.5733Z" fill="#0077C0"/>
<circle cx="34" cy="34" r="33" stroke="black" stroke-width="2"/>
</svg>
