<svg width="68" height="68" viewBox="0 0 68 68" fill="none" xmlns="http://www.w3.org/2000/svg">
<circle cx="34" cy="34" r="33" stroke="black" stroke-width="2"/>
<g clip-path="url(#clip0)">
<path d="M46.8737 26.8781L46.6042 26.8751C42.8465 26.8751 39.4656 28.9756 37.7463 32.265C36.6648 31.7773 35.4921 31.5 34.2711 31.5C32.254 31.5 30.357 32.2192 28.8552 33.4717C28.8263 32.1475 28.6538 30.8288 28.4855 29.6572C28.3413 28.6556 28.203 27.6837 28.1939 26.8744L32.0912 26.8751C32.7084 26.8751 33.2895 26.6342 33.7261 26.1976L36.8094 23.1143C37.6907 22.233 37.6968 20.8195 36.8555 19.9138C37.1494 19.4734 37.2894 18.9459 37.2355 18.4073C37.167 17.7156 36.7959 17.0968 36.217 16.7114L34.3457 15.4641C33.4416 14.8611 32.3885 14.542 31.3008 14.542C29.0335 14.542 26.9024 15.425 25.2991 17.0283C22.346 19.9813 20.0222 23.3627 18.3903 27.0791C16.4241 31.5564 15.4274 34.8596 15.4274 36.8957C15.4274 38.0625 15.3266 39.0102 15.1271 39.7133C14.701 41.2151 15.3717 42.8169 16.7576 43.6088C22.3092 46.7809 28.6233 48.458 35.0171 48.458H36.132C40.0952 48.458 44.011 47.8227 47.7711 46.5694L48.3108 46.3888C50.5171 45.654 52.0001 43.5968 52.0001 41.2708V32.2776C52 29.375 49.7003 26.9526 46.8737 26.8781ZM50.4583 41.2708C50.4583 42.9321 49.3992 44.4015 47.8222 44.9269L47.2824 45.1076C43.6813 46.3075 39.9295 46.9164 36.1319 46.9164H35.0171C28.8911 46.9164 22.8413 45.3101 17.5223 42.2704C16.753 41.8308 16.3781 40.9523 16.61 40.1341C16.8486 39.2947 16.9691 38.2047 16.9691 36.8957C16.9691 35.0996 17.9484 31.92 19.8024 27.6993C21.3561 24.1584 23.5722 20.9351 26.389 18.1183C27.701 16.8063 29.4452 16.0836 31.3007 16.0836C32.0828 16.0836 32.8401 16.3132 33.4905 16.7468L35.3618 17.9941C35.5553 18.1228 35.6787 18.329 35.7013 18.5594C35.7247 18.7905 35.6434 19.0163 35.48 19.1804L33.0177 21.6427C32.7543 21.9062 32.353 21.9709 32.0203 21.8046C31.7689 21.6788 31.5988 21.4477 31.5537 21.17C31.5085 20.8923 31.5966 20.619 31.7953 20.4203L32.5036 19.7119C32.8048 19.4108 32.8048 18.923 32.5036 18.622C32.2025 18.3208 31.7147 18.3208 31.4137 18.622L30.7053 19.3303C30.1521 19.8836 29.9059 20.6446 30.0316 21.4177C30.1574 22.19 30.6308 22.8336 31.3309 23.1837C32.2568 23.6459 33.3746 23.4667 34.1078 22.7327L35.7938 21.0467C36.0022 21.3468 35.9866 21.7572 35.7194 22.0244L32.6361 25.1077C32.4923 25.2515 32.2936 25.3335 32.0911 25.3335L28.4918 25.3329C28.5402 25.2529 28.5866 25.1706 28.6495 25.1077C28.9506 24.8066 28.9506 24.3188 28.6495 24.0177C28.3484 23.7166 27.8606 23.7166 27.5595 24.0177C26.2987 25.2786 26.6051 27.4097 26.9596 29.8771C27.1433 31.1583 27.3337 32.4832 27.3337 33.8125C27.3337 36.9877 24.9309 37.6636 24.8285 37.6907C24.419 37.7969 24.1706 38.2131 24.2737 38.6242C24.361 38.9749 24.675 39.2083 25.0205 39.2083C25.0822 39.2083 25.1454 39.2008 25.2079 39.1849C26.1309 38.9543 27.6434 38.0686 28.4037 36.2518C28.4142 36.2378 28.4313 36.2325 28.441 36.2175C29.7267 34.2288 31.9059 33.0417 34.2711 33.0417C36.1123 33.0417 37.8467 33.7553 39.1542 35.0516C39.4568 35.3512 39.9454 35.3496 40.2442 35.047C40.5438 34.7444 40.5423 34.2566 40.2396 33.957C39.883 33.6035 39.492 33.2986 39.0878 33.0177C40.5366 30.2112 43.4094 28.4167 46.6042 28.4167L46.8322 28.4198C48.8316 28.4725 50.4582 30.2031 50.4582 32.2776V41.2708H50.4583Z" fill="#0077C0"/>
</g>
<defs>
<clipPath id="clip0">
<rect x="15" y="13" width="37" height="37" fill="white"/>
</clipPath>
</defs>
</svg>
