<svg width="68" height="68" viewBox="0 0 68 68" fill="none" xmlns="http://www.w3.org/2000/svg">
<circle cx="34" cy="34" r="33" stroke="black" stroke-width="2"/>
<path d="M17.4164 29.0958C15.5365 34.0052 15.5365 39.4361 17.4164 44.3456C17.4952 44.5516 17.4416 44.7849 17.2807 44.9358C15.1325 46.9128 15.8407 49.6571 18.2662 49.6571C19.3606 49.6135 20.3943 49.1432 21.1462 48.3469C21.2987 48.1888 21.5301 48.1356 21.7364 48.2112C27.7679 50.141 39.6892 50.141 45.7207 48.2112C45.9269 48.1356 46.1583 48.1888 46.3108 48.3469C47.5266 49.5981 49.6098 50.1823 50.8079 49.0728C52.0059 47.9633 51.4452 46.0807 50.1823 44.9417C50.0298 44.7861 49.9753 44.5593 50.0407 44.3515C51.9375 39.4107 51.927 33.9407 50.0112 29.0072C49.9435 28.8065 50.0126 28.5851 50.1823 28.4584C51.4393 27.2781 51.9528 25.3954 50.8079 24.3272C49.663 23.259 47.4911 23.8197 46.3108 25.0531C46.1541 25.2036 45.9274 25.2557 45.7207 25.1889C44.7282 24.882 43.7169 24.6395 42.6931 24.463C42.3672 24.4043 42.0554 24.621 41.9967 24.9469C41.9381 25.2728 42.1547 25.5846 42.4807 25.6433C43.4542 25.813 44.4161 26.0436 45.3607 26.3338C45.9859 26.5351 46.6712 26.366 47.1311 25.8971C48.3115 24.7167 50.2472 24.5692 50.2472 25.8971C50.1914 26.5702 49.8684 27.193 49.3502 27.6263C48.8093 28.088 48.626 28.8449 48.8957 29.503C50.6722 34.1406 50.6722 39.2712 48.8957 43.9089C48.6159 44.5811 48.7856 45.3566 49.3207 45.8505C49.8388 46.2752 50.1659 46.8892 50.2295 47.5561C50.2295 48.9253 48.2997 48.7836 47.1075 47.5561C46.6511 47.0812 45.9633 46.9093 45.3371 47.1135C39.5593 48.9666 27.8623 48.9666 22.0728 47.1135C21.4466 46.9093 20.7588 47.0812 20.3023 47.5561C19.122 48.7364 17.1803 48.9017 17.1803 47.5561C17.2348 46.8796 17.5604 46.2538 18.0833 45.821C18.6168 45.3285 18.7844 44.5544 18.5023 43.8853C16.7435 39.2667 16.7435 34.1628 18.5023 29.5443C18.7821 28.872 18.6124 28.0966 18.0774 27.6026C17.5609 27.173 17.2379 26.5546 17.1803 25.8853C17.1803 24.4984 19.1397 24.7049 20.3023 25.8853C20.7588 26.3601 21.4466 26.5321 22.0728 26.3279C25.8144 25.1122 31.4623 24.7522 35.4754 24.9174C35.8014 24.9174 36.0656 24.6532 36.0656 24.3272C36.0656 24.0013 35.8014 23.7371 35.4754 23.7371C31.3443 23.619 25.6138 23.9082 21.6951 25.1594C21.4888 25.235 21.2574 25.1817 21.1049 25.0236C19.9305 23.7961 17.8413 23.2177 16.6492 24.3272C15.7108 25.1948 15.6872 27.0184 17.2748 28.4584C17.4459 28.623 17.5017 28.8742 17.4164 29.0958Z" fill="#0077C0"/>
<path d="M21.9016 45.5084C22.1902 45.655 22.5431 45.5417 22.6925 45.2546C24.823 41.0939 24.823 32.3477 22.6925 28.1871C22.5389 27.9073 22.1907 27.8004 21.9065 27.9457C21.6224 28.0909 21.5052 28.4358 21.642 28.7241C23.5954 32.5366 23.6072 40.8815 21.642 44.7175C21.4962 45.0077 21.6123 45.3611 21.9016 45.5084Z" fill="#0077C0"/>
<path d="M20.1312 43.2131C22.002 43.2131 21.9607 36.8688 21.8485 34.9508C21.7305 32.9206 21.341 30.2295 20.1312 30.2295C18.9213 30.2295 18.5318 32.9206 18.4138 34.9508C18.3016 36.8511 18.2603 43.2131 20.1312 43.2131ZM20.7213 37.9016H19.5705C19.5292 37.1153 19.5292 36.3273 19.5705 35.541H20.7213C20.7626 36.3273 20.7626 37.1153 20.7213 37.9016ZM19.6472 39.082H20.6151C20.5592 39.9832 20.3967 40.8747 20.1312 41.7377C19.8656 40.8747 19.7031 39.9832 19.6472 39.082ZM20.6151 34.3606H19.6472C19.7031 33.4594 19.8656 32.5679 20.1312 31.7049C20.3967 32.5679 20.5592 33.4594 20.6151 34.3606Z" fill="#0077C0"/>
<path d="M34.2951 29.6393C34.2951 29.3134 34.0309 29.0491 33.7049 29.0491H32.7666L34.1239 27.6977C34.2942 27.5288 34.3453 27.2738 34.2534 27.0523C34.1615 26.8309 33.9447 26.6871 33.7049 26.6885H31.3443C31.0183 26.6885 30.7541 26.9527 30.7541 27.2787C30.7541 27.6046 31.0183 27.8688 31.3443 27.8688H32.2826L30.9253 29.2203C30.755 29.3891 30.7038 29.6442 30.7958 29.8656C30.8877 30.0871 31.1045 30.2309 31.3443 30.2295H33.7049C34.0309 30.2295 34.2951 29.9652 34.2951 29.6393Z" fill="#0077C0"/>
<path d="M41.377 26.6881C41.377 26.3622 41.1128 26.098 40.7869 26.098H38.078L41.2059 22.976C41.3761 22.8071 41.4273 22.5521 41.3354 22.3307C41.2434 22.1092 41.0266 21.9654 40.7869 21.9668H36.6557C36.3298 21.9668 36.0656 22.231 36.0656 22.557C36.0656 22.8829 36.3298 23.1471 36.6557 23.1471H39.3646L36.2367 26.2691C36.0665 26.4379 36.0153 26.693 36.1073 26.9144C36.1992 27.1359 36.416 27.2797 36.6557 27.2783H40.7869C41.1128 27.2783 41.377 27.0141 41.377 26.6881Z" fill="#0077C0"/>
<path d="M46.6885 20.7867C47.0145 20.7867 47.2787 20.5225 47.2787 20.1966C47.2787 19.8706 47.0145 19.6064 46.6885 19.6064H42.7993L47.1075 15.3041C47.2778 15.1353 47.3289 14.8802 47.237 14.6588C47.1451 14.4373 46.9283 14.2935 46.6885 14.2949H41.377C41.0511 14.2949 40.7869 14.5592 40.7869 14.8851C40.7869 15.211 41.0511 15.4753 41.377 15.4753H45.2662L40.958 19.7776C40.7878 19.9464 40.7366 20.2014 40.8286 20.4229C40.9205 20.6443 41.1373 20.7881 41.377 20.7867H46.6885Z" fill="#0077C0"/>
<path d="M30.7541 34.3607V34.9508C30.7541 35.2768 31.0183 35.541 31.3443 35.541C31.6702 35.541 31.9344 35.2768 31.9344 34.9508V34.3607C31.9344 34.0347 31.6702 33.7705 31.3443 33.7705C31.0183 33.7705 30.7541 34.0347 30.7541 34.3607Z" fill="#0077C0"/>
<path d="M39.0164 34.3607V34.9508C39.0164 35.2768 39.2806 35.541 39.6066 35.541C39.9325 35.541 40.1967 35.2768 40.1967 34.9508V34.3607C40.1967 34.0347 39.9325 33.7705 39.6066 33.7705C39.2806 33.7705 39.0164 34.0347 39.0164 34.3607Z" fill="#0077C0"/>
<path d="M35.4754 40.2627C37.1051 40.2627 38.4262 38.9415 38.4262 37.3118C38.4262 36.9859 38.162 36.7217 37.8361 36.7217C37.5101 36.7217 37.2459 36.9859 37.2459 37.3118C37.2459 38.2897 36.4532 39.0823 35.4754 39.0823C34.4976 39.0823 33.7049 38.2897 33.7049 37.3118C33.7049 36.9859 33.4407 36.7217 33.1147 36.7217C32.7888 36.7217 32.5246 36.9859 32.5246 37.3118C32.5246 38.9415 33.8457 40.2627 35.4754 40.2627Z" fill="#0077C0"/>
</svg>
