<svg width="24" height="24" viewBox="0 0 24 24" fill="none" xmlns="http://www.w3.org/2000/svg">
<path d="M21.3684 21.7516C17.696 24.7495 6.22903 24.7495 2.63155 21.7516C-1.04088 18.7537 -0.666148 5.93767 2.63155 2.56504C5.92924 -0.807589 18.0707 -0.807589 21.3684 2.56504C24.6661 5.93767 25.0408 18.7537 21.3684 21.7516Z" fill="#8DC640"/>
<g opacity="0.2">
<path opacity="0.2" d="M12.075 16.5053C8.77727 19.1284 5.10484 20.4775 1.65728 20.5524C-0.890955 16.2055 -0.366301 5.63793 2.6316 2.56509C5.3297 -0.207946 13.7987 -0.7326 18.6703 0.991182C19.8695 5.93772 17.3962 12.2333 12.075 16.5053Z" fill="white"/>
</g>
<path d="M10.2762 18.6787C9.75154 18.6787 9.22694 18.4539 8.92714 18.0042L4.73012 12.608C4.13053 11.8585 4.28045 10.8093 5.02991 10.2097C5.77937 9.61009 6.82863 9.76002 7.42822 10.5095L10.2762 14.1819L16.5718 6.01266C17.1714 5.2632 18.2206 5.11327 18.9701 5.71286C19.7196 6.31245 19.8695 7.36171 19.2699 8.11117L11.6252 18.0042C11.2505 18.3789 10.8008 18.6787 10.2762 18.6787Z" fill="white"/>
</svg>
