<svg width="60" height="60" viewBox="0 0 60 60" fill="none" xmlns="http://www.w3.org/2000/svg">
<g filter="url(#filter0_d)">
<circle cx="30" cy="26" r="26" fill="url(#paint0_linear)"/>
</g>
<path d="M16.9375 26.4501V38.0751C16.9375 39.1446 17.8074 40.0126 18.875 40.0126H28.5625V26.4501H16.9375Z" fill="#424242"/>
<path d="M44.0625 18.7001H37.9323C38.3721 18.3998 38.7499 18.1014 39.0134 17.8341C40.5769 16.2628 40.5769 13.7053 39.0134 12.1339C37.4944 10.6033 34.8478 10.6072 33.3307 12.1339C32.4898 12.9768 30.2617 16.4081 30.5698 18.7001H30.4303C30.7364 16.4081 28.5083 12.9768 27.6693 12.1339C26.1503 10.6072 23.5037 10.6072 21.9866 12.1339C20.425 13.7053 20.425 16.2628 21.9847 17.8341C22.2501 18.1014 22.6279 18.3998 23.0677 18.7001H16.9375C15.8699 18.7001 15 19.5701 15 20.6376V23.5439C15 24.0786 15.434 24.5126 15.9688 24.5126H28.5625V20.6376H32.4375V24.5126H45.0312C45.566 24.5126 46 24.0786 46 23.5439V20.6376C46 19.5701 45.132 18.7001 44.0625 18.7001ZM28.4482 18.6362C28.4482 18.6362 28.3668 18.7001 28.0898 18.7001C26.7509 18.7001 24.1954 17.309 23.3603 16.4681C22.5485 15.6505 22.5485 14.3175 23.3603 13.4999C23.7536 13.1046 24.2748 12.8876 24.8289 12.8876C25.3811 12.8876 25.9023 13.1046 26.2956 13.4999C27.6015 14.8135 28.8996 18.1693 28.4482 18.6362ZM32.9083 18.7001C32.6332 18.7001 32.5518 18.6381 32.5518 18.6362C32.1004 18.1693 33.3985 14.8135 34.7044 13.4999C35.4852 12.7113 36.8511 12.7074 37.6397 13.4999C38.4534 14.3175 38.4534 15.6505 37.6397 16.4681C36.8046 17.309 34.2491 18.7001 32.9083 18.7001Z" fill="#424242"/>
<path d="M32.4375 26.4501V40.0126H42.125C43.1945 40.0126 44.0625 39.1446 44.0625 38.0751V26.4501H32.4375Z" fill="#424242"/>
<defs>
<filter id="filter0_d" x="0" y="0" width="60" height="60" filterUnits="userSpaceOnUse" color-interpolation-filters="sRGB">
<feFlood flood-opacity="0" result="BackgroundImageFix"/>
<feColorMatrix in="SourceAlpha" type="matrix" values="0 0 0 0 0 0 0 0 0 0 0 0 0 0 0 0 0 0 127 0"/>
<feOffset dy="4"/>
<feGaussianBlur stdDeviation="2"/>
<feColorMatrix type="matrix" values="0 0 0 0 0 0 0 0 0 0 0 0 0 0 0 0 0 0 0.25 0"/>
<feBlend mode="normal" in2="BackgroundImageFix" result="effect1_dropShadow"/>
<feBlend mode="normal" in="SourceGraphic" in2="effect1_dropShadow" result="shape"/>
</filter>
<linearGradient id="paint0_linear" x1="30" y1="0" x2="30" y2="52" gradientUnits="userSpaceOnUse">
<stop stop-color="white"/>
<stop offset="1" stop-color="#8186DF"/>
</linearGradient>
</defs>
</svg>
