<svg width="294" height="65" viewBox="0 0 294 65" fill="none" xmlns="http://www.w3.org/2000/svg">
<path d="M24.0891 35.8V46L26.4891 46.6V47H18.2891V46.6L20.6891 46V36L14.4891 20L12.0891 19.4V19H20.4891V19.4L18.0891 20L23.7691 34.6L29.2891 20.4L26.6891 19.4V19H32.6891V19.4L30.0891 20.4L24.0891 35.8ZM51.0875 33C51.0875 35.4533 50.8075 37.6 50.2475 39.44C49.7142 41.2533 48.9942 42.7733 48.0875 44C47.2075 45.2 46.2075 46.1067 45.0875 46.72C43.9675 47.3067 42.8342 47.6 41.6875 47.6C40.5408 47.6 39.4075 47.3067 38.2875 46.72C37.1675 46.1067 36.1542 45.2 35.2475 44C34.3675 42.7733 33.6475 41.2533 33.0875 39.44C32.5542 37.6 32.2875 35.4533 32.2875 33C32.2875 30.5467 32.5542 28.4133 33.0875 26.6C33.6475 24.76 34.3675 23.24 35.2475 22.04C36.1542 20.8133 37.1675 19.9067 38.2875 19.32C39.4075 18.7067 40.5408 18.4 41.6875 18.4C42.8342 18.4 43.9675 18.7067 45.0875 19.32C46.2075 19.9067 47.2075 20.8133 48.0875 22.04C48.9942 23.24 49.7142 24.76 50.2475 26.6C50.8075 28.4133 51.0875 30.5467 51.0875 33ZM47.2875 33C47.2875 30.2533 47.1142 27.9867 46.7675 26.2C46.4475 24.3867 46.0075 22.9467 45.4475 21.88C44.9142 20.8133 44.3142 20.0667 43.6475 19.64C42.9808 19.2133 42.3275 19 41.6875 19C41.0475 19 40.3942 19.2133 39.7275 19.64C39.0608 20.0667 38.4475 20.8133 37.8875 21.88C37.3542 22.9467 36.9142 24.3867 36.5675 26.2C36.2475 27.9867 36.0875 30.2533 36.0875 33C36.0875 35.7467 36.2475 38.0267 36.5675 39.84C36.9142 41.6267 37.3542 43.0533 37.8875 44.12C38.4475 45.1867 39.0608 45.9333 39.7275 46.36C40.3942 46.7867 41.0475 47 41.6875 47C42.3275 47 42.9808 46.7867 43.6475 46.36C44.3142 45.9333 44.9142 45.1867 45.4475 44.12C46.0075 43.0533 46.4475 41.6267 46.7675 39.84C47.1142 38.0267 47.2875 35.7467 47.2875 33ZM72.0797 39C72.0797 42.0133 71.453 44.2 70.1997 45.56C68.973 46.92 67.1997 47.6 64.8797 47.6C62.1597 47.6 60.0397 46.8533 58.5197 45.36C57.0264 43.84 56.2797 41.72 56.2797 39V20L53.8797 19.4V19H62.0797V19.4L59.6797 20V39C59.6797 41.6933 60.213 43.6667 61.2797 44.92C62.3464 46.1733 63.6797 46.8 65.2797 46.8C66.1864 46.8 66.9997 46.6533 67.7197 46.36C68.4664 46.04 69.093 45.56 69.5997 44.92C70.133 44.28 70.5464 43.48 70.8397 42.52C71.133 41.5333 71.2797 40.36 71.2797 39V20.4L68.6797 19.4V19H74.6797V19.4L72.0797 20.4V39ZM84.6922 19C86.3989 19 87.8789 19.1867 89.1322 19.56C90.3855 19.9333 91.4255 20.44 92.2522 21.08C93.0789 21.72 93.6922 22.4667 94.0922 23.32C94.4922 24.1467 94.6922 25.04 94.6922 26C94.6922 26.7733 94.5722 27.4667 94.3322 28.08C94.1189 28.6667 93.8255 29.2 93.4522 29.68C93.1055 30.1333 92.6922 30.52 92.2122 30.84C91.7322 31.16 91.2522 31.4267 90.7722 31.64C89.6255 32.1467 88.3322 32.4667 86.8922 32.6C88.0655 32.7333 89.1322 33.0133 90.0922 33.44C90.9189 33.8133 91.6922 34.36 92.4122 35.08C93.1322 35.8 93.5589 36.7733 93.6922 38L94.4922 45C94.5455 45.5067 94.6655 45.8667 94.8522 46.08C95.0389 46.2933 95.2522 46.4 95.4922 46.4C95.6255 46.4 95.7589 46.36 95.8922 46.28C96.0522 46.1733 96.1989 46.0533 96.3322 45.92C96.4655 45.7867 96.5855 45.6133 96.6922 45.4L97.0922 45.8C96.9322 46.1467 96.7055 46.4533 96.4122 46.72C96.1722 46.9333 95.8522 47.1333 95.4522 47.32C95.0789 47.5067 94.6255 47.6 94.0922 47.6C93.1855 47.6 92.4389 47.3467 91.8522 46.84C91.2922 46.3067 90.9722 45.6933 90.8922 45L90.0922 38C89.9855 37.0933 89.8122 36.3333 89.5722 35.72C89.3322 35.08 88.9989 34.56 88.5722 34.16C88.1722 33.76 87.6522 33.4667 87.0122 33.28C86.3722 33.0933 85.5989 33 84.6922 33H83.0922V46L85.4922 46.6V47H77.2922V46.6L79.6922 46V20L77.2922 19.4V19H84.6922ZM90.8922 26C90.8922 24 90.3589 22.4667 89.2922 21.4C88.2255 20.3333 86.6922 19.8 84.6922 19.8H83.0922V32.2H84.6922C86.6922 32.2 88.2255 31.6667 89.2922 30.6C90.3589 29.5333 90.8922 28 90.8922 26ZM118.494 19.2C117.747 19.2 117.014 19.4133 116.294 19.84C115.574 20.2667 114.934 21.0133 114.374 22.08C113.814 23.12 113.36 24.5333 113.014 26.32C112.667 28.08 112.494 30.3067 112.494 33C112.494 35.6933 112.667 37.9333 113.014 39.72C113.36 41.48 113.827 42.8933 114.414 43.96C115 45 115.68 45.7333 116.454 46.16C117.227 46.5867 118.04 46.8 118.894 46.8C119.587 46.8 120.294 46.6133 121.014 46.24C121.734 45.8667 122.387 45.3467 122.974 44.68C123.587 44.0133 124.094 43.2267 124.494 42.32C124.92 41.4133 125.187 40.44 125.294 39.4H125.894C125.787 40.6 125.52 41.7067 125.094 42.72C124.667 43.7067 124.12 44.5733 123.454 45.32C122.814 46.04 122.067 46.6 121.214 47C120.36 47.4 119.454 47.6 118.494 47.6C117.24 47.6 116.027 47.3067 114.854 46.72C113.68 46.1067 112.627 45.2 111.694 44C110.787 42.7733 110.054 41.2533 109.494 39.44C108.96 37.6 108.694 35.4533 108.694 33C108.694 30.5467 108.96 28.4133 109.494 26.6C110.054 24.76 110.774 23.24 111.654 22.04C112.56 20.8133 113.574 19.9067 114.694 19.32C115.814 18.7067 116.947 18.4 118.094 18.4C118.734 18.4 119.307 18.5067 119.814 18.72C120.347 18.9333 120.8 19.1733 121.174 19.44C121.6 19.7333 121.974 20.0667 122.294 20.44C122.507 20.04 122.787 19.6667 123.134 19.32C123.507 18.9467 123.894 18.7067 124.294 18.6H124.894C124.84 19 124.8 19.4 124.774 19.8C124.747 20.1733 124.72 20.5733 124.694 21C124.694 21.4 124.694 21.8 124.694 22.2C124.694 22.6533 124.694 23.1067 124.694 23.56C124.72 23.9867 124.747 24.3867 124.774 24.76C124.8 25.1867 124.84 25.6 124.894 26H124.294C123.68 23.7867 122.854 22.1067 121.814 20.96C120.8 19.7867 119.694 19.2 118.494 19.2ZM146.322 33C146.322 35.4533 146.042 37.6 145.482 39.44C144.949 41.2533 144.229 42.7733 143.322 44C142.442 45.2 141.442 46.1067 140.322 46.72C139.202 47.3067 138.069 47.6 136.922 47.6C135.775 47.6 134.642 47.3067 133.522 46.72C132.402 46.1067 131.389 45.2 130.482 44C129.602 42.7733 128.882 41.2533 128.322 39.44C127.789 37.6 127.522 35.4533 127.522 33C127.522 30.5467 127.789 28.4133 128.322 26.6C128.882 24.76 129.602 23.24 130.482 22.04C131.389 20.8133 132.402 19.9067 133.522 19.32C134.642 18.7067 135.775 18.4 136.922 18.4C138.069 18.4 139.202 18.7067 140.322 19.32C141.442 19.9067 142.442 20.8133 143.322 22.04C144.229 23.24 144.949 24.76 145.482 26.6C146.042 28.4133 146.322 30.5467 146.322 33ZM142.522 33C142.522 30.2533 142.349 27.9867 142.002 26.2C141.682 24.3867 141.242 22.9467 140.682 21.88C140.149 20.8133 139.549 20.0667 138.882 19.64C138.215 19.2133 137.562 19 136.922 19C136.282 19 135.629 19.2133 134.962 19.64C134.295 20.0667 133.682 20.8133 133.122 21.88C132.589 22.9467 132.149 24.3867 131.802 26.2C131.482 27.9867 131.322 30.2533 131.322 33C131.322 35.7467 131.482 38.0267 131.802 39.84C132.149 41.6267 132.589 43.0533 133.122 44.12C133.682 45.1867 134.295 45.9333 134.962 46.36C135.629 46.7867 136.282 47 136.922 47C137.562 47 138.215 46.7867 138.882 46.36C139.549 45.9333 140.149 45.1867 140.682 44.12C141.242 43.0533 141.682 41.6267 142.002 39.84C142.349 38.0267 142.522 35.7467 142.522 33ZM160.103 38.8H151.903L149.903 45.6L152.503 46.6V47H146.503V46.6L149.103 45.6L156.903 18.4H157.503L165.903 46L168.303 46.6V47H159.903V46.6L162.303 46L160.103 38.8ZM152.103 38.04H159.863L155.863 24.8L152.103 38.04ZM178.103 19.2C177.356 19.2 176.623 19.4133 175.903 19.84C175.183 20.2667 174.543 21.0133 173.983 22.08C173.423 23.12 172.97 24.5333 172.623 26.32C172.276 28.08 172.103 30.3067 172.103 33C172.103 35.6933 172.276 37.9333 172.623 39.72C172.97 41.48 173.436 42.8933 174.023 43.96C174.61 45 175.29 45.7333 176.063 46.16C176.836 46.5867 177.65 46.8 178.503 46.8C179.196 46.8 179.903 46.6133 180.623 46.24C181.343 45.8667 181.996 45.3467 182.583 44.68C183.196 44.0133 183.703 43.2267 184.103 42.32C184.53 41.4133 184.796 40.44 184.903 39.4H185.503C185.396 40.6 185.13 41.7067 184.703 42.72C184.276 43.7067 183.73 44.5733 183.063 45.32C182.423 46.04 181.676 46.6 180.823 47C179.97 47.4 179.063 47.6 178.103 47.6C176.85 47.6 175.636 47.3067 174.463 46.72C173.29 46.1067 172.236 45.2 171.303 44C170.396 42.7733 169.663 41.2533 169.103 39.44C168.57 37.6 168.303 35.4533 168.303 33C168.303 30.5467 168.57 28.4133 169.103 26.6C169.663 24.76 170.383 23.24 171.263 22.04C172.17 20.8133 173.183 19.9067 174.303 19.32C175.423 18.7067 176.556 18.4 177.703 18.4C178.343 18.4 178.916 18.5067 179.423 18.72C179.956 18.9333 180.41 19.1733 180.783 19.44C181.21 19.7333 181.583 20.0667 181.903 20.44C182.116 20.04 182.396 19.6667 182.743 19.32C183.116 18.9467 183.503 18.7067 183.903 18.6H184.503C184.45 19 184.41 19.4 184.383 19.8C184.356 20.1733 184.33 20.5733 184.303 21C184.303 21.4 184.303 21.8 184.303 22.2C184.303 22.6533 184.303 23.1067 184.303 23.56C184.33 23.9867 184.356 24.3867 184.383 24.76C184.41 25.1867 184.45 25.6 184.503 26H183.903C183.29 23.7867 182.463 22.1067 181.423 20.96C180.41 19.7867 179.303 19.2 178.103 19.2ZM193.913 32.6V46L196.312 46.6V47H188.113V46.6L190.513 46V20L188.113 19.4V19H196.312V19.4L193.913 20V31.8H202.113V20L199.713 19.4V19H207.913V19.4L205.513 20V46L207.913 46.6V47H199.713V46.6L202.113 46V32.6H193.913Z" fill="white"/>
<g clip-path="url(#clip0)">
<path d="M261.5 65C279.449 65 294 50.4493 294 32.5C294 14.5507 279.449 0 261.5 0C243.551 0 229 14.5507 229 32.5C229 50.4493 243.551 65 261.5 65Z" fill="url(#paint0_linear)"/>
<path d="M253.953 45.1862C252.95 46.279 251.804 47.2386 250.544 48.0349C248.374 49.4071 245.867 50.2927 243.174 50.5447C243.703 50.5949 244.238 50.6209 244.78 50.6209C248.072 50.6209 251.142 49.6727 253.732 48.0349C254.546 47.5203 255.311 46.9359 256.023 46.2931C255.318 45.9487 254.628 45.5788 253.953 45.1862Z" fill="url(#paint1_linear)"/>
<path d="M238.676 27.8841C241.624 36.1931 247.868 42.9596 255.807 46.6151C259.695 43.5185 262.191 38.725 262.191 33.3428C262.191 33.0211 262.059 32.4467 262.009 32.4784C262.009 32.486 262.01 32.4937 262.01 32.5001C262.003 32.4962 261.997 32.4924 261.992 32.4886C257.657 29.7408 254.669 25.0595 254.24 19.6581C254.205 19.2146 254.187 18.7647 254.187 18.3122C254.187 9.04909 261.698 1.53841 270.961 1.53841C271.101 1.53841 271.24 1.54159 271.379 1.54503C268.169 0.514337 264.746 -0.0307704 261.199 0.00147474C259.699 0.015112 258.223 0.130328 256.778 0.340749C244.359 2.14839 235.884 13.9594 238.269 26.2802C238.394 26.9236 238.53 27.47 238.676 27.8841Z" fill="url(#paint2_linear)"/>
<path d="M261.199 0.00135296C260.442 0.00823531 259.691 0.0411177 258.947 0.0989804C261.519 0.298441 264.006 0.798176 266.376 1.56174C257.525 2.02336 250.489 9.34682 250.489 18.3121C250.489 18.7646 250.507 19.2145 250.543 19.658C250.864 23.709 252.625 27.355 255.315 30.084C257.334 32.1331 258.301 34.9998 257.833 37.8385C257.771 38.2138 257.702 38.5409 257.626 38.7884C256.839 41.3461 255.456 43.6425 253.64 45.5169C254.347 45.9088 255.069 46.2755 255.807 46.615C259.694 43.5183 262.191 38.7249 262.191 33.3427C262.191 33.021 262.058 32.4465 262.008 32.4783C262.008 32.4859 262.01 32.4936 262.01 32.5C262.003 32.4961 261.997 32.4923 261.992 32.4885C257.657 29.7406 254.668 25.0594 254.24 19.658C254.204 19.2145 254.187 18.7646 254.187 18.3121C254.187 10.2663 259.853 3.54347 267.413 1.91541C267.413 1.91541 267.413 1.91541 267.413 1.91554C268.557 1.66918 269.743 1.53841 270.961 1.53841C271.101 1.53841 271.24 1.5416 271.379 1.54504C268.169 0.514088 264.746 -0.0308921 261.199 0.00135296Z" fill="url(#paint3_linear)"/>
<path d="M287.225 46.6649C287.225 40.7002 284.111 35.4632 279.421 32.4885C276.827 30.8444 273.751 29.8924 270.451 29.8924C267.159 29.8924 264.089 30.8406 261.499 32.4783C261.499 32.486 261.5 32.4936 261.5 32.5C261.494 32.4962 261.487 32.4924 261.482 32.4885C257.148 29.7407 254.159 25.0594 253.731 19.658C253.695 19.2145 253.677 18.7646 253.677 18.3122C253.677 9.04902 261.188 1.53833 270.451 1.53833C270.809 1.53833 271.164 1.5498 271.515 1.57147C276.764 3.27039 281.428 6.26931 285.13 10.1872C290.629 16.0078 294 23.8601 294 32.5C294 41.1552 287.225 49.6345 287.225 46.6649Z" fill="url(#paint4_linear)"/>
<path d="M285.129 10.1872C281.428 6.26931 276.763 3.27039 271.515 1.57147C271.163 1.5498 270.809 1.53833 270.451 1.53833C269.348 1.53833 268.269 1.64603 267.226 1.84944C279.852 6.30933 288.899 18.3471 288.899 32.5C288.899 36.4059 288.21 40.1504 286.947 43.6195C287.128 44.6073 287.225 45.6247 287.225 46.6649C287.225 49.6345 294 41.1552 294 32.5C294 23.8601 290.629 16.0078 285.129 10.1872Z" fill="url(#paint5_linear)"/>
<path d="M287.225 46.6649C287.225 49.6345 286.454 52.4231 285.1 54.8434C281.425 58.7256 276.802 61.7003 271.602 63.3992C268.422 64.4379 265.027 65 261.5 65C247.241 65 235.125 55.8159 230.748 43.0402C233.745 47.6055 238.911 50.621 244.78 50.621C248.072 50.621 251.142 49.6727 253.732 48.035C258.432 45.0628 261.554 39.8195 261.554 33.8471C261.554 33.3934 261.536 32.9448 261.5 32.5C261.494 32.4962 261.487 32.4923 261.482 32.4885C261.487 32.486 261.493 32.4821 261.499 32.4783C264.089 30.8406 267.159 29.8923 270.451 29.8923C273.751 29.8923 276.827 30.8444 279.421 32.4885C284.111 35.4632 287.225 40.7002 287.225 46.6649Z" fill="url(#paint6_linear)"/>
<path d="M294 32.4999C294 32.4803 294 32.4605 294 32.4409C293.993 28.6291 292.307 25.0123 289.429 22.5135C283.726 17.5629 276.282 14.5658 268.137 14.5658C262.944 14.5658 258.036 15.786 253.682 17.952C253.679 18.0718 253.677 18.1916 253.677 18.3121C253.677 18.7645 253.695 19.2144 253.731 19.658C254.159 25.0593 257.148 29.7406 261.482 32.4885C261.487 32.4923 261.494 32.4961 261.5 32.4999C261.5 32.4936 261.499 32.4859 261.499 32.4783C264.089 30.8405 267.159 29.8923 270.451 29.8923C273.751 29.8923 276.827 30.8443 279.421 32.4885C284.111 35.4632 287.225 40.7001 287.225 46.6648C287.225 49.6344 286.454 52.4231 285.1 54.8433C290.618 49.0188 294 41.1551 294 32.4999Z" fill="url(#paint7_linear)"/>
<path d="M294 32.5C294 32.4803 294 32.4607 294 32.441C293.993 28.6292 292.307 25.0124 289.428 22.5136C288.501 21.7089 287.527 20.9567 286.513 20.2596C288.05 24.0379 288.899 28.1695 288.899 32.5C288.899 36.4059 288.21 40.1504 286.947 43.6195C287.128 44.6074 287.225 45.6247 287.225 46.6649C287.225 49.6345 286.454 52.4232 285.1 54.8435C290.617 49.019 294 41.1552 294 32.5Z" fill="url(#paint8_linear)"/>
<path d="M276.729 32.5C276.729 32.0292 276.716 31.5612 276.697 31.0952C274.766 30.3206 272.659 29.8923 270.451 29.8923C267.159 29.8923 264.089 30.8406 261.499 32.4783C261.493 32.4821 261.487 32.486 261.482 32.4885C261.487 32.4923 261.494 32.4962 261.5 32.5C261.536 32.9448 261.554 33.3934 261.554 33.8471C261.554 39.8195 258.432 45.0628 253.732 48.035C251.142 49.6727 248.072 50.621 244.78 50.621C238.911 50.621 233.745 47.6055 230.748 43.0402C232.347 47.7086 234.98 51.8971 238.374 55.3332C246.251 63.31 259.07 63.5089 267.051 55.6362C273.026 49.7435 276.729 41.5545 276.729 32.5Z" fill="url(#paint9_linear)"/>
<path d="M258.951 64.9007C259.792 64.9659 260.642 64.9999 261.5 64.9999C265.027 64.9999 268.422 64.4379 271.602 63.3992C276.802 61.7002 281.424 58.7255 285.1 54.8434C286.454 52.4231 287.225 49.6344 287.225 46.6648C287.225 45.6246 287.128 44.6073 286.947 43.6194C282.683 55.3296 271.878 63.8965 258.951 64.9007Z" fill="url(#paint10_linear)"/>
</g>
<defs>
<linearGradient id="paint0_linear" x1="225.884" y1="32.5" x2="257.921" y2="32.5" gradientUnits="userSpaceOnUse">
<stop stop-color="#FFF3DE"/>
<stop offset="0.593" stop-color="#FFD15B"/>
<stop offset="1" stop-color="#FE7D43"/>
</linearGradient>
<linearGradient id="paint1_linear" x1="231.039" y1="47.9035" x2="251.96" y2="47.9035" gradientUnits="userSpaceOnUse">
<stop stop-color="#FFF3DE"/>
<stop offset="0.593" stop-color="#FFD15B"/>
<stop offset="1" stop-color="#FE7D43"/>
</linearGradient>
<linearGradient id="paint2_linear" x1="235.849" y1="23.3075" x2="262.476" y2="23.3075" gradientUnits="userSpaceOnUse">
<stop stop-color="#D4F2F6"/>
<stop offset="0.6075" stop-color="#02C7DD"/>
<stop offset="1" stop-color="#0290CF"/>
</linearGradient>
<linearGradient id="paint3_linear" x1="233.206" y1="23.3075" x2="254.618" y2="23.3075" gradientUnits="userSpaceOnUse">
<stop stop-color="#D4F2F6"/>
<stop offset="0.6075" stop-color="#02C7DD"/>
<stop offset="1" stop-color="#0290CF"/>
</linearGradient>
<linearGradient id="paint4_linear" x1="258" y1="24.4042" x2="291.711" y2="24.4042" gradientUnits="userSpaceOnUse">
<stop stop-color="#D4F2F6"/>
<stop offset="0.6075" stop-color="#02C7DD"/>
<stop offset="1" stop-color="#0290CF"/>
</linearGradient>
<linearGradient id="paint5_linear" x1="243.784" y1="24.4042" x2="288.021" y2="24.4042" gradientUnits="userSpaceOnUse">
<stop stop-color="#D4F2F6"/>
<stop offset="0.6075" stop-color="#02C7DD"/>
<stop offset="1" stop-color="#0290CF"/>
</linearGradient>
<linearGradient id="paint6_linear" x1="239.075" y1="47.4462" x2="285.911" y2="47.4462" gradientUnits="userSpaceOnUse">
<stop stop-color="#FFF3DE"/>
<stop offset="0.593" stop-color="#FFD15B"/>
<stop offset="1" stop-color="#FE7D43"/>
</linearGradient>
<linearGradient id="paint7_linear" x1="251.501" y1="34.7046" x2="297.573" y2="34.7046" gradientUnits="userSpaceOnUse">
<stop stop-color="#FFF3DE"/>
<stop offset="0.593" stop-color="#FFD15B"/>
<stop offset="1" stop-color="#FE7D43"/>
</linearGradient>
<linearGradient id="paint8_linear" x1="263.029" y1="37.5516" x2="289.427" y2="37.5516" gradientUnits="userSpaceOnUse">
<stop stop-color="#FFF3DE"/>
<stop offset="0.593" stop-color="#FFD15B"/>
<stop offset="1" stop-color="#FE7D43"/>
</linearGradient>
<linearGradient id="paint9_linear" x1="229.899" y1="45.6611" x2="275.798" y2="45.6611" gradientUnits="userSpaceOnUse">
<stop stop-color="#D4F2F6"/>
<stop offset="0.6075" stop-color="#02C7DD"/>
<stop offset="1" stop-color="#0290CF"/>
</linearGradient>
<linearGradient id="paint10_linear" x1="258.569" y1="54.3096" x2="292.493" y2="54.3096" gradientUnits="userSpaceOnUse">
<stop stop-color="#FEA95C"/>
<stop offset="1" stop-color="#F46700"/>
</linearGradient>
<clipPath id="clip0">
<rect width="65" height="65" fill="white" transform="translate(229)"/>
</clipPath>
</defs>
</svg>
