<svg width="29" height="29" viewBox="0 0 29 29" fill="none" xmlns="http://www.w3.org/2000/svg">
<g clip-path="url(#clip0)">
<path d="M27.8518 6.39872L14.6847 0.0421646C14.568 -0.0141362 14.432 -0.0141362 14.3154 0.0421646L1.14817 6.39872C1.00136 6.46957 0.908075 6.61825 0.908075 6.78127V22.2186C0.908075 22.3816 1.00136 22.5303 1.14817 22.6012L14.3153 28.9577C14.3736 28.9859 14.4369 29 14.5 29C14.5632 29 14.6263 28.9859 14.6847 28.9577L27.8518 22.6012C27.9987 22.5303 28.0919 22.3816 28.0919 22.2186V6.78132C28.0919 6.6182 27.9986 6.46963 27.8518 6.39872ZM14.5 0.896475L26.69 6.78127L23.1564 8.48717C23.134 8.47012 23.1104 8.45437 23.0845 8.44186L10.9772 2.59711L14.5 0.896475ZM10.0179 3.07742L22.1902 8.95366L19.6971 10.1572L7.52987 4.28336L10.0179 3.07742ZM22.475 9.75954V14.2084L20.1463 15.3326V10.8837L22.475 9.75954ZM27.2423 21.9521L14.9248 27.8983V13.4044L17.8629 11.986C18.0742 11.884 18.1628 11.6301 18.0608 11.4188C17.9588 11.2076 17.7049 11.1189 17.4935 11.2209L14.5 12.6661L13.3221 12.0974C13.1108 11.9953 12.8569 12.084 12.7549 12.2953C12.6528 12.5066 12.7414 12.7605 12.9527 12.8625L14.0752 13.4044V27.8983L1.75768 21.9519V7.45807L11.1374 11.9862C11.1969 12.015 11.2598 12.0286 11.3217 12.0286C11.4797 12.0286 11.6313 11.9401 11.7046 11.7884C11.8066 11.5771 11.718 11.3231 11.5067 11.2211L2.30999 6.78127L6.53 4.74402L19.2908 10.9044C19.2927 10.907 19.2948 10.9093 19.2967 10.9119V16.0095C19.2967 16.1557 19.3718 16.2916 19.4957 16.3693C19.5644 16.4125 19.6429 16.4343 19.7215 16.4343C19.7845 16.4343 19.8477 16.4203 19.9062 16.392L23.0845 14.8577C23.2313 14.7869 23.3246 14.6382 23.3246 14.4752V9.34947L27.2423 7.45812V21.9521Z" fill="white"/>
<path d="M5.26339 20.3044L3.3311 19.3716C3.11971 19.2695 2.86585 19.3582 2.76384 19.5695C2.66183 19.7807 2.75042 20.0347 2.96168 20.1367L4.89398 21.0695C4.95351 21.0983 5.01644 21.1119 5.07834 21.1119C5.23626 21.1119 5.38794 21.0234 5.46118 20.8717C5.56325 20.6604 5.47466 20.4065 5.26339 20.3044Z" fill="white"/>
<path d="M7.04173 19.1469L3.33374 17.3568C3.12242 17.2548 2.8685 17.3434 2.76649 17.5547C2.66454 17.766 2.75312 18.02 2.96439 18.122L6.67237 19.912C6.7319 19.9408 6.79483 19.9544 6.85674 19.9544C7.01465 19.9544 7.16634 19.8659 7.23957 19.7142C7.34158 19.5028 7.253 19.2488 7.04173 19.1469Z" fill="white"/>
</g>
<defs>
<clipPath id="clip0">
<rect width="29" height="29" fill="white"/>
</clipPath>
</defs>
</svg>
