<svg width="67" height="67" viewBox="0 0 67 67" fill="none" xmlns="http://www.w3.org/2000/svg">
<path d="M20.614 36.7815C21.0222 36.7815 21.353 37.1191 21.353 37.5355V44.2299C21.3544 45.4786 22.346 46.4906 23.5699 46.4918H44.3051C45.529 46.4906 46.5206 45.4786 46.522 44.2299V24.5823C46.5206 23.3339 45.529 22.3219 44.3051 22.3204H37.7437C37.3355 22.3204 37.0047 21.9829 37.0047 21.5665C37.0047 21.1503 37.3355 20.8125 37.7437 20.8125H44.3051C46.3448 20.8149 47.9977 22.5013 48 24.5823V44.2302C47.9977 46.3112 46.3448 47.9976 44.3051 48H23.5699C21.5302 47.9976 19.8773 46.3112 19.875 44.2302V37.5355C19.875 37.1191 20.2058 36.7815 20.614 36.7815Z" fill="white"/>
<path d="M19.83 18.9688C21.1218 17.6771 23.2162 17.6771 24.5081 18.9688L37.6224 32.082C37.7123 32.1719 37.7772 32.2833 37.8111 32.4056L39.5357 38.6311C39.6066 38.8864 39.5345 39.1597 39.3473 39.3472C39.1598 39.5344 38.8864 39.6065 38.6312 39.5358L32.4051 37.8111C32.2827 37.7773 32.1713 37.7124 32.0815 37.6225L18.9674 24.509C17.6775 23.2164 17.6775 21.1239 18.9674 19.8313L19.83 18.9688ZM36.0208 32.5598L25.2877 21.8273L21.8262 25.2885L32.5596 36.021L36.0208 32.5598ZM36.7122 33.9471L33.9467 36.7126L37.772 37.7724L36.7122 33.9471ZM20.0068 23.4696L20.7864 24.2492L24.2482 20.7877L23.4683 20.0082C22.7508 19.2907 21.5873 19.2907 20.8697 20.0082L20.0068 20.8707C19.2904 21.589 19.2904 22.7516 20.0068 23.4696Z" fill="white"/>
<circle cx="33.5" cy="33.5" r="32.5" stroke="#FFBE00" stroke-width="2"/>
</svg>
