<svg width="67" height="67" viewBox="0 0 67 67" fill="none" xmlns="http://www.w3.org/2000/svg">
<path d="M48.2084 29.2118H47.4471V24.6376C47.4471 22.7672 45.9245 21.2512 44.0607 21.2512H43.3585L43.3651 19.5514C43.3651 18.2914 42.3413 17.2676 41.0812 17.2676H20.776C19.26 17.2676 18.0197 18.4883 18 20.0042C18 20.0174 18 20.0305 18 20.0436V42.4489C18 43.7089 19.0238 44.7327 20.2838 44.7327H44.0673C45.9377 44.7327 47.4536 43.2102 47.4536 41.3463V36.7655H48.2149C49.1993 36.7655 50 35.9649 50 34.9805V30.9969C49.9934 30.0125 49.1928 29.2118 48.2084 29.2118ZM20.776 18.8426H41.0812C41.4684 18.8426 41.79 19.1577 41.79 19.5449L41.7834 21.2512H20.776C20.1132 21.2512 19.5751 20.713 19.5751 20.0502C19.5751 19.3873 20.1132 18.8426 20.776 18.8426ZM45.872 41.3398C45.872 42.3373 45.0582 43.1511 44.0607 43.1511H20.2773C19.8901 43.1511 19.5685 42.8361 19.5685 42.4423V22.5506C19.936 22.7278 20.3429 22.8262 20.776 22.8262H44.0607C45.0582 22.8262 45.872 23.64 45.872 24.6376V29.2118H40.4971C39.5127 29.2118 38.7121 30.0125 38.7121 30.9969V34.9805C38.7121 35.9649 39.5127 36.7655 40.4971 36.7655H45.872V41.3398ZM48.4184 34.9805C48.4184 35.0986 48.3265 35.1905 48.2084 35.1905H40.5037C40.3856 35.1905 40.2937 35.0986 40.2937 34.9805V30.9969C40.2937 30.8853 40.3856 30.7869 40.5037 30.7869H48.2084C48.3199 30.7869 48.4184 30.8787 48.4184 30.9969V34.9805Z" fill="white"/>
<circle cx="43" cy="33" r="1" fill="white"/>
<path d="M26 41C26.5523 41 27 40.5523 27 40C27 39.4477 26.5523 39 26 39V41ZM19 41H26V39H19V41Z" fill="white"/>
<circle cx="33.5" cy="33.5" r="32.5" stroke="#FFBE00" stroke-width="2"/>
</svg>
