<svg width="67" height="67" viewBox="0 0 67 67" fill="none" xmlns="http://www.w3.org/2000/svg">
<circle cx="33.5" cy="33.5" r="32.5" stroke="#FFBE00" stroke-width="2"/>
<path d="M33.4991 20.8666C32.9651 20.8666 32.5323 21.2994 32.5323 21.8334C32.5323 22.3673 32.9651 22.8002 33.4991 22.8002C36.6981 22.8002 39.3008 25.4024 39.3008 28.601C39.3008 29.1349 39.7337 29.5678 40.2676 29.5678C40.8015 29.5678 41.2344 29.1349 41.2344 28.601C41.2344 24.3362 37.7644 20.8666 33.4991 20.8666Z" fill="white"/>
<path d="M31.0079 17.2597C26.64 18.1724 23.0983 21.6802 22.1663 26.0754C21.3794 29.7867 22.3491 33.5127 24.8268 36.2981C26.0379 37.6595 26.7324 39.4567 26.7324 41.2337V43.1673C26.7324 44.4538 27.5747 45.5467 28.7365 45.9252C29.1186 48.1827 31.0779 49.9993 33.5 49.9993C35.9215 49.9993 37.8814 48.1833 38.2636 45.9252C39.4254 45.5467 40.2676 44.4538 40.2676 43.1672V41.2336C40.2676 39.4531 40.9645 37.6776 42.2297 36.2341C44.0817 34.1213 45.1016 31.4104 45.1016 28.6009C45.1016 21.2813 38.4017 15.715 31.0079 17.2597ZM33.5 48.0657C32.2572 48.0657 31.1676 47.2106 30.7652 46.0612H36.2348C35.8324 47.2106 34.7428 48.0657 33.5 48.0657ZM38.334 43.1673C38.334 43.7004 37.9003 44.1341 37.3672 44.1341H29.6328C29.0997 44.1341 28.666 43.7004 28.666 43.1673V42.2005H38.334V43.1673ZM40.7756 34.9596C39.4273 36.4979 38.5977 38.3529 38.3872 40.2669H28.6131C28.4028 38.3519 27.5754 36.4787 26.2716 35.0129C24.2067 32.6916 23.3998 29.5801 24.0579 26.4764C24.8261 22.8533 27.7781 19.91 31.4035 19.1525C37.5925 17.8591 43.168 22.507 43.168 28.6009C43.168 30.9413 42.3184 33.1996 40.7756 34.9596Z" fill="white"/>
<path d="M19.9004 28.601H17.9668C17.4329 28.601 17 29.0338 17 29.5677C17 30.1017 17.4329 30.5345 17.9668 30.5345H19.9004C20.4343 30.5345 20.8672 30.1017 20.8672 29.5677C20.8672 29.0338 20.4343 28.601 19.9004 28.601Z" fill="white"/>
<path d="M20.3008 23.7669L18.9336 22.3996C18.5561 22.0221 17.9439 22.0221 17.5663 22.3996C17.1888 22.7772 17.1888 23.3893 17.5663 23.7669L18.9336 25.1341C19.3111 25.5117 19.9233 25.5117 20.3008 25.1341C20.6784 24.7566 20.6784 24.1444 20.3008 23.7669Z" fill="white"/>
<path d="M20.3008 34.0012C19.9233 33.6236 19.3111 33.6236 18.9336 34.0012L17.5663 35.3684C17.1888 35.746 17.1888 36.3581 17.5663 36.7357C17.9438 37.1132 18.556 37.1133 18.9336 36.7357L20.3008 35.3684C20.6784 34.9909 20.6784 34.3788 20.3008 34.0012Z" fill="white"/>
<path d="M49.0332 28.601H47.0996C46.5657 28.601 46.1328 29.0338 46.1328 29.5677C46.1328 30.1017 46.5657 30.5345 47.0996 30.5345H49.0332C49.5671 30.5345 50 30.1017 50 29.5677C50 29.0338 49.5671 28.601 49.0332 28.601Z" fill="white"/>
<path d="M49.4337 22.3996C49.0562 22.0221 48.444 22.0221 48.0664 22.3996L46.6992 23.7669C46.3216 24.1444 46.3216 24.7566 46.6992 25.1341C47.0767 25.5116 47.6888 25.5117 48.0664 25.1341L49.4337 23.7669C49.8112 23.3893 49.8112 22.7772 49.4337 22.3996Z" fill="white"/>
<path d="M49.4337 35.3684L48.0664 34.0012C47.6889 33.6236 47.0767 33.6236 46.6992 34.0012C46.3216 34.3788 46.3216 34.9909 46.6992 35.3684L48.0664 36.7357C48.4439 37.1132 49.0561 37.1132 49.4337 36.7357C49.8112 36.3581 49.8112 35.746 49.4337 35.3684Z" fill="white"/>
</svg>
