<svg width="67" height="67" viewBox="0 0 67 67" fill="none" xmlns="http://www.w3.org/2000/svg">
<circle cx="33.5" cy="33.5" r="32.5" stroke="#FFBE00" stroke-width="2"/>
<g clip-path="url(#clip0)">
<path d="M51.7286 31.0417C51.1113 30.5878 50.3443 30.0208 50.2434 29.6452C50.1338 29.2347 50.5251 28.3304 50.8417 27.6052C51.3826 26.3599 51.9426 25.0712 51.3217 23.9964C50.6939 22.9077 49.2834 22.7495 47.9217 22.5965C47.1443 22.5095 46.1773 22.4017 45.8886 22.1112C45.5981 21.8226 45.4904 20.8556 45.4034 20.0782C45.2504 18.7164 45.092 17.3077 44.0034 16.6782C43.0573 16.1286 41.6556 16.6086 40.3947 17.1582C39.6973 17.4608 38.9703 17.7494 38.353 17.7564C37.9773 17.6573 37.4121 16.8886 36.9564 16.2712C36.1722 15.2069 35.2834 14 34 14C32.7182 14 31.8278 15.2069 31.0434 16.2696C30.5878 16.8869 30.0225 17.6557 29.4903 17.7739C29.0225 17.7739 28.3025 17.4608 27.6052 17.1582C26.3408 16.6087 24.9374 16.1339 23.9982 16.6782C22.9078 17.3078 22.7496 18.7165 22.5965 20.0783C22.5113 20.8556 22.4017 21.8209 22.113 22.1113C21.8225 22.4018 20.8556 22.5096 20.0799 22.5965C18.7164 22.7496 17.3059 22.9096 16.6782 23.9965C16.0573 25.0696 16.6173 26.3583 17.1582 27.6052C17.4747 28.3305 17.8677 29.2348 17.7581 29.6452C17.6573 30.0209 16.8886 30.5879 16.2729 31.0418C15.2069 31.8261 14 32.7165 14 34C14 35.2834 15.2069 36.1739 16.2713 36.9582C16.8886 37.4121 17.6556 37.9791 17.7565 38.3548C17.8661 38.7652 17.4748 39.6695 17.1582 40.3948C16.6173 41.64 16.0574 42.9287 16.6782 44.0035C17.306 45.0922 18.7165 45.2504 20.0783 45.4035C20.8556 45.4904 21.8226 45.5982 22.1113 45.8887C22.4018 46.1773 22.5096 47.1444 22.5965 47.9217C22.7496 49.2835 22.9079 50.6922 23.9965 51.3218C24.9391 51.8696 26.3408 51.3913 27.6052 50.8418C28.3027 50.5392 29.0156 50.233 29.6469 50.2435C30.0226 50.3426 30.5878 51.1113 31.0435 51.7287C31.8278 52.7931 32.7166 54 34 54C35.2818 54 36.1722 52.7931 36.9548 51.7304C37.4104 51.1131 37.9757 50.3443 38.5079 50.2261C38.9774 50.2261 39.6974 50.5392 40.3931 50.8418C41.6592 51.3931 43.0609 51.8679 44 51.3235C45.0904 50.6939 45.2486 49.2852 45.4017 47.9217C45.4869 47.1444 45.5965 46.1791 45.8853 45.8887C46.1757 45.5982 47.1426 45.4904 47.9183 45.4035C49.2818 45.2504 50.6923 45.0904 51.3201 44.0035C51.9426 42.9304 51.3827 41.6417 50.8401 40.3948C50.5235 39.6695 50.1322 38.7669 50.2418 38.3548C50.3426 37.9791 51.1114 37.4121 51.727 36.9582C52.7931 36.1739 54.0001 35.2834 54.0001 34C54.0001 32.7165 52.793 31.8261 51.7286 31.0417ZM50.6991 35.5547C49.7756 36.2347 48.8208 36.9373 48.5635 37.9009C48.2974 38.8991 48.7809 40.0104 49.2487 41.0852C49.5478 41.7739 50 42.8138 49.8191 43.1287C49.6295 43.4574 48.4869 43.5861 47.7286 43.6713C46.5739 43.8017 45.3791 43.9357 44.6591 44.6557C43.9391 45.3757 43.8051 46.5704 43.6765 47.7252C43.5913 48.4817 43.4626 49.626 43.1322 49.8157C43.0817 49.8452 42.9982 49.8522 42.9374 49.8522C42.4852 49.8522 41.7757 49.5426 41.0888 49.2452C40.0105 48.7774 38.8313 48.3113 37.9062 48.5618C36.9409 48.8191 36.2383 49.7739 35.5566 50.6974C35.0975 51.32 34.4036 52.2609 34.0001 52.2609C33.5967 52.2609 32.901 51.3201 32.4436 50.6974C31.7637 49.7756 31.061 48.8208 30.0958 48.5635C29.9063 48.513 29.7028 48.4869 29.4889 48.4869C28.6593 48.4869 27.7706 48.873 26.9115 49.2487C26.2263 49.5461 25.5167 49.8556 25.0628 49.8556C25.0019 49.8556 24.9184 49.8487 24.8681 49.8191C24.5377 49.6277 24.4106 48.4851 24.3255 47.7286C24.195 46.5739 24.0611 45.3791 23.3411 44.6591C22.6228 43.9391 21.4263 43.8051 20.2715 43.6747C19.5167 43.5895 18.3724 43.4608 18.1829 43.1321C18.0003 42.8191 18.4542 41.7773 18.7533 41.0886C19.2211 40.0138 19.7046 38.9025 19.4385 37.9043C19.1793 36.9408 18.2245 36.2382 17.3029 35.5582C16.6803 35.0973 15.7393 34.4034 15.7393 33.9999C15.7393 33.5963 16.6802 32.9025 17.3029 32.4416C18.2263 31.7616 19.1811 31.059 19.4385 30.0955C19.7046 29.0972 19.2211 27.9859 18.7533 26.9112C18.4559 26.2225 18.002 25.1825 18.1829 24.8677C18.3742 24.539 19.5168 24.4102 20.2733 24.3268C21.4281 24.1963 22.6229 24.0624 23.3429 23.3424C24.0629 22.6224 24.1968 21.4276 24.3272 20.2728C24.4107 19.5163 24.5394 18.3737 24.8699 18.1824C24.9203 18.1528 25.0038 18.1459 25.0646 18.1459C25.5168 18.1459 26.2264 18.4554 26.9116 18.7546C27.9899 19.2224 29.1672 19.6902 30.0942 19.4381C31.0594 19.1807 31.762 18.2259 32.4437 17.3024C32.9028 16.6799 33.5968 15.7389 34.0002 15.7389C34.4037 15.7389 35.0994 16.6798 35.5585 17.3006C36.2385 18.2224 36.9411 19.1772 37.9063 19.4346C38.8246 19.6798 40.0106 19.2206 41.0889 18.7511C41.7741 18.4537 42.4837 18.1442 42.9376 18.1442C42.9985 18.1442 43.082 18.1511 43.1323 18.1807C43.4628 18.372 43.5898 19.5146 43.675 20.2711C43.8054 21.4259 43.9393 22.6207 44.6593 23.3407C45.3776 24.0607 46.5741 24.1946 47.7289 24.325C48.4837 24.4102 49.628 24.539 49.8175 24.8677C50.0001 25.1807 49.5462 26.2225 49.2471 26.9112C48.7793 27.9859 48.2958 29.0972 48.5619 30.0955C48.8211 31.059 49.7759 31.7615 50.6976 32.4416C51.3201 32.9024 52.2611 33.5963 52.2611 33.9999C52.2611 34.4034 51.32 35.0974 50.6991 35.5547Z" fill="white"/>
<path d="M28.7826 29.6522C28.3026 29.6522 27.913 30.0418 27.913 30.5218V34.8696L24.2608 30C24.0365 29.7009 23.6434 29.5774 23.2904 29.6974C22.9356 29.8157 22.6956 30.1478 22.6956 30.5218V37.4783C22.6956 37.9583 23.0852 38.3478 23.5652 38.3478C24.0452 38.3478 24.4348 37.9583 24.4348 37.4783V33.1305L28.0869 38C28.2539 38.2226 28.5148 38.3478 28.7826 38.3478C28.8748 38.3478 28.9669 38.3339 29.0574 38.3026C29.4122 38.1843 29.6522 37.8522 29.6522 37.4783V30.5218C29.6522 30.0418 29.2626 29.6522 28.7826 29.6522Z" fill="white"/>
<path d="M35.7391 36.6087H33.1304V31.3913H35.7391C36.2191 31.3913 36.6087 31.0017 36.6087 30.5217C36.6087 30.0417 36.2191 29.6522 35.7391 29.6522H32.2608C31.7808 29.6522 31.3912 30.0418 31.3912 30.5218V37.4783C31.3912 37.9583 31.7808 38.3479 32.2608 38.3479H35.7391C36.2191 38.3479 36.6087 37.9583 36.6087 37.4783C36.6087 36.9983 36.2191 36.6087 35.7391 36.6087Z" fill="white"/>
<path d="M35.7391 33.1305H32.2608C31.7808 33.1305 31.3912 33.5201 31.3912 34.0001C31.3912 34.4801 31.7808 34.8696 32.2608 34.8696H35.7391C36.2191 34.8696 36.6087 34.48 36.6087 34C36.6087 33.52 36.2191 33.1305 35.7391 33.1305Z" fill="white"/>
<path d="M46.3826 29.6783C45.913 29.5619 45.4435 29.8436 45.3287 30.3114L44.3148 34.3705L43.5201 31.9861C43.2836 31.2766 42.1079 31.2766 41.8697 31.9861L41.0749 34.3705L40.061 30.3114C39.9445 29.8435 39.4645 29.5601 39.0071 29.6783C38.541 29.7948 38.2593 30.2662 38.3741 30.7323L40.1132 37.6887C40.2071 38.0627 40.5375 38.3322 40.9236 38.3461C41.3601 38.3635 41.661 38.1183 41.7827 37.7531L42.6958 35.0104L43.6088 37.7531C43.7288 38.1096 44.061 38.3478 44.4349 38.3478C44.4453 38.3478 44.4575 38.3478 44.4662 38.3461C44.8523 38.3322 45.1827 38.0644 45.2766 37.6887L47.0157 30.7323C47.1321 30.2662 46.8504 29.7948 46.3826 29.6783Z" fill="white"/>
</g>
<defs>
<clipPath id="clip0">
<rect width="40" height="40" fill="white" transform="translate(14 14)"/>
</clipPath>
</defs>
</svg>
