<svg width="19" height="19" viewBox="0 0 19 19" fill="none" xmlns="http://www.w3.org/2000/svg">
<g clip-path="url(#clip0)">
<path d="M14.875 15.3287C17.7274 12.3522 17.6268 7.62699 14.6503 4.77461C11.6738 1.92224 6.94857 2.02288 4.09619 4.99935C1.32935 7.88663 1.32935 12.4414 4.09619 15.3287L2.15675 17.9142C1.9319 18.214 1.99265 18.6393 2.29245 18.8642C2.59226 19.089 3.01762 19.0283 3.24248 18.7285L5.1222 16.2218C7.7226 18.1164 11.2486 18.1164 13.8489 16.2218L15.7287 18.7285C15.9535 19.0283 16.3789 19.0891 16.6787 18.8642C16.9785 18.6393 17.0393 18.214 16.8144 17.9142L14.875 15.3287ZM10.1642 10.1782C10.1642 10.325 10.1166 10.4679 10.0285 10.5853L7.99274 13.2997C7.76789 13.5996 7.34252 13.6603 7.04272 13.4354C6.74292 13.2105 6.68212 12.7852 6.90702 12.4854L8.8071 9.9522V6.10659C8.8071 5.73179 9.11092 5.42798 9.48571 5.42798C9.8605 5.42798 10.1643 5.73179 10.1643 6.10659V10.1782H10.1642Z" fill="black"/>
<path d="M5.7769 0.993518C4.43526 -0.314716 2.28715 -0.287638 0.978876 1.05399C-0.305977 2.37165 -0.306136 4.47337 0.978558 5.79122C1.24357 6.05615 1.67311 6.05615 1.93808 5.79122L5.7769 1.95308C6.04183 1.68807 6.04183 1.25853 5.7769 0.993518Z" fill="black"/>
<path d="M17.9915 0.993431C16.6665 -0.331144 14.5187 -0.331144 13.1938 0.993431C12.9289 1.25844 12.9289 1.68799 13.1938 1.95296L17.032 5.7911C17.297 6.05603 17.7265 6.05603 17.9915 5.7911C19.3161 4.46616 19.3161 2.3184 17.9915 0.993431Z" fill="black"/>
</g>
<defs>
<clipPath id="clip0">
<rect width="19" height="19" fill="white"/>
</clipPath>
</defs>
</svg>
