<svg width="21" height="21" viewBox="0 0 21 21" fill="none" xmlns="http://www.w3.org/2000/svg">
<g clip-path="url(#clip0)">
<path d="M12.1732 15.7548C13.306 16.1427 14.3063 16.3898 15.7434 16.8314C15.1913 23.8077 8.59448 21.0372 12.1732 15.7548ZM18.0631 9.34622C17.9887 7.25155 17.6198 4.50381 14.681 4.93436C13.3033 5.29389 12.2854 6.80687 11.8067 9.41724C11.5438 10.8525 11.6967 12.8671 12.0068 14.0747C12.29 14.9257 12.1937 14.8734 12.4981 15.035C13.6761 15.3004 14.8424 15.5942 16.03 15.8937C17.2365 15.0417 18.2274 10.5185 18.0631 9.34622ZM8.99373 9.18546C9.30365 7.97767 9.45655 5.9631 9.19373 4.52801C8.71535 1.91753 7.69733 0.404303 6.31945 0.0450133C3.38063 -0.385532 3.01169 2.36217 2.9373 4.45696C2.77307 5.62898 3.76408 10.1526 4.97069 11.0044C6.15824 10.7048 7.32431 10.4113 8.50273 10.1457C8.80674 9.98422 8.71042 10.0365 8.99373 9.18546ZM5.2569 11.9423C5.80881 18.9185 12.4056 16.148 8.82698 10.8657C7.69419 11.2537 6.69402 11.5007 5.2569 11.9423Z" fill="black"/>
</g>
<defs>
<clipPath id="clip0">
<rect width="21" height="21" fill="white"/>
</clipPath>
</defs>
</svg>
