<svg width="98" height="98" viewBox="0 0 98 98" fill="none" xmlns="http://www.w3.org/2000/svg">
<rect y="48.9519" width="69.2284" height="69.2284" rx="34.6142" transform="rotate(-45 0 48.9519)" fill="#274CCF"/>
<path d="M52.7975 47.4695C53.1613 47.4695 53.4566 47.1807 53.4566 46.825C53.4566 46.4692 53.1613 46.1804 52.7975 46.1804C52.433 46.1804 52.1384 46.4692 52.1384 46.825C52.1384 47.1807 52.433 47.4695 52.7975 47.4695Z" fill="white"/>
<path d="M46.2066 47.4695C46.5704 47.4695 46.8657 47.1807 46.8657 46.825C46.8657 46.4692 46.5704 46.1804 46.2066 46.1804C45.842 46.1804 45.5475 46.4692 45.5475 46.825C45.5475 47.1807 45.842 47.4695 46.2066 47.4695Z" fill="white"/>
<path d="M35 62.9415V64.3562C35 64.7122 35.295 65.0007 35.6591 65.0007H63.3409C63.705 65.0007 64 64.7122 64 64.3562V62.9402C64 60.377 62.5276 58.0081 59.8027 57.0355C60.7874 56.1943 61.386 54.9622 61.386 53.6298C61.386 53.274 61.091 52.9853 60.7269 52.9853C59.1415 52.9853 57.8053 51.8888 57.4835 50.4343H59.3884C60.4775 50.4343 61.3636 49.567 61.3636 48.5007V45.5359C61.3636 44.6952 60.8124 43.9784 60.0455 43.7128V42.3132C60.0455 36.627 55.3157 32.0007 49.5021 32.0007C43.675 32.0007 38.9545 36.6124 38.9545 42.3132V43.7138C38.1876 43.9805 37.6364 44.697 37.6364 45.5359V48.5007C37.6364 49.567 38.5243 50.4343 39.6157 50.4343H41.5165C41.1952 51.8888 39.8603 52.9853 38.2764 52.9853C37.9124 52.9853 37.6173 53.274 37.6173 53.6298C37.6173 54.9639 38.2174 56.1973 39.2048 57.039C36.4904 58.0124 35 60.4052 35 62.9415ZM60.0122 54.2204C59.807 55.3013 59.0465 56.2187 57.9837 56.6309L53.9908 56.1238L53.5642 54.4934C54.809 53.7655 55.801 52.737 56.4658 51.5298C57.086 52.9352 58.4181 53.9775 60.0122 54.2204ZM54.7846 43.6023C52.9638 43.6023 51.4824 42.1355 51.4824 40.3326C51.4824 39.9766 51.1874 39.688 50.8233 39.688C50.4595 39.688 50.1642 39.9766 50.1642 40.3326C50.1642 42.1355 48.6828 43.6023 46.8616 43.6023H42.9112C42.9112 40.0483 45.8678 37.157 49.5021 37.157C53.1433 37.157 56.093 40.0387 56.093 43.6023H54.7846ZM42.9091 44.8914H46.8616C48.5412 44.8914 50.0144 44.0029 50.8233 42.677C51.6323 44.0029 53.1052 44.8914 54.7846 44.8914H56.0909V47.8562C56.0909 50.2941 54.7102 52.4963 52.4878 53.6034C51.5579 54.0666 50.5533 54.3015 49.5021 54.3015C48.4537 54.3015 47.4522 54.0684 46.5248 53.6086C45.9025 53.3002 45.3359 52.8984 44.8403 52.4135C43.595 51.1964 42.9091 49.5778 42.9091 47.8562V44.8914ZM46.6605 55.0765C47.5629 55.4174 48.5155 55.5906 49.5021 55.5906C50.4925 55.5906 51.4487 55.4158 52.3549 55.0714L52.7733 56.6714C52.5537 58.2671 51.1694 59.4578 49.5085 59.4578C47.8479 59.4578 46.4635 58.2676 46.2434 56.6724L46.6605 55.0765ZM60.0455 48.5007C60.0455 48.8562 59.7507 49.1453 59.3884 49.1453H57.4091V44.8914H59.3884C59.7507 44.8914 60.0455 45.1804 60.0455 45.5359V48.5007ZM49.5021 33.2898C54.5889 33.2898 58.7273 37.3378 58.7273 42.3132V43.6023H57.4111C57.4111 39.329 53.8745 35.8679 49.5021 35.8679C45.141 35.8679 41.593 39.3376 41.593 43.6023H40.2727V42.3132C40.2727 37.3277 44.4011 33.2898 49.5021 33.2898ZM38.9545 48.5007V45.5359C38.9545 45.1811 39.2506 44.8921 39.6157 44.8914H41.5909V49.1453H39.6157C39.2511 49.1453 38.9545 48.8562 38.9545 48.5007ZM42.5353 51.528C42.8965 52.1806 43.3563 52.7859 43.9083 53.3251C44.3727 53.7796 44.8905 54.1724 45.4507 54.4994L45.0262 56.1241L41.0222 56.6321C39.9581 56.2197 39.1966 55.3018 38.9911 54.2204C40.5848 53.9772 41.9161 52.9339 42.5353 51.528ZM40.9524 57.9406L41.025 57.9315C41.0255 57.9313 41.0266 57.9313 41.0271 57.9313L45.0555 57.4202C45.5892 59.3596 47.3878 60.7468 49.5085 60.7468C51.6292 60.7468 53.4275 59.3596 53.961 57.4199C54.1618 57.4456 52.9028 57.2857 58.0638 57.9408C60.9532 58.3079 62.6818 60.4256 62.6818 62.9402V63.7117H36.3182V62.9415C36.3182 60.4739 38.0457 58.3097 40.9524 57.9406Z" fill="white"/>
<path d="M47.74 51.8996C48.2933 52.1547 48.8862 52.2841 49.5018 52.2841C50.1032 52.2841 50.6843 52.16 51.2296 51.9153C51.5604 51.767 51.7054 51.3843 51.5535 51.0607C51.4018 50.7372 51.0105 50.5952 50.6796 50.7438C50.3081 50.9104 49.9119 50.995 49.502 50.995C49.0821 50.995 48.6782 50.9072 48.302 50.7337C47.9727 50.5819 47.5801 50.7199 47.4249 51.0419C47.2696 51.3639 47.4107 51.7481 47.74 51.8996Z" fill="white"/>
<path d="M55.4339 62.0359H58.0702C58.4343 62.0359 58.7293 61.7474 58.7293 61.3914C58.7293 61.0354 58.4343 60.7468 58.0702 60.7468H55.4339C55.0698 60.7468 54.7748 61.0354 54.7748 61.3914C54.7748 61.7474 55.0698 62.0359 55.4339 62.0359Z" fill="white"/>
<path d="M60.7045 60.7468C61.0683 60.7468 61.3636 61.0356 61.3636 61.3914C61.3636 61.7471 61.0683 62.0359 60.7045 62.0359C60.3408 62.0359 60.0455 61.7471 60.0455 61.3914C60.0455 61.0356 60.3408 60.7468 60.7045 60.7468Z" fill="white"/>
</svg>
