<svg width="99" height="15" viewBox="0 0 99 15" fill="none" xmlns="http://www.w3.org/2000/svg">
<path d="M7.5 0L10.145 3.85942L14.6329 5.18237L11.7798 8.89058L11.9084 13.5676L7.5 12L3.09161 13.5676L3.22025 8.89058L0.367076 5.18237L4.85497 3.85942L7.5 0Z" fill="#FFB800"/>
<path d="M28.5 0L31.145 3.85942L35.6329 5.18237L32.7798 8.89058L32.9084 13.5676L28.5 12L24.0916 13.5676L24.2202 8.89058L21.3671 5.18237L25.855 3.85942L28.5 0Z" fill="#FFB800"/>
<path d="M49.5 0L52.145 3.85942L56.6329 5.18237L53.7798 8.89058L53.9084 13.5676L49.5 12L45.0916 13.5676L45.2202 8.89058L42.3671 5.18237L46.855 3.85942L49.5 0Z" fill="#FFB800"/>
<path d="M70.5 0L73.145 3.85942L77.6329 5.18237L74.7798 8.89058L74.9084 13.5676L70.5 12L66.0916 13.5676L66.2202 8.89058L63.3671 5.18237L67.855 3.85942L70.5 0Z" fill="#FFB800"/>
<path d="M91.5 0.884454L93.7326 4.14208L93.8331 4.28875L94.0037 4.33902L97.7918 5.45568L95.3835 8.58567L95.2751 8.72659L95.2799 8.90432L95.3885 12.8521L91.6675 11.5289L91.5 11.4693L91.3325 11.5289L87.6115 12.8521L87.7201 8.90432L87.7249 8.72659L87.6165 8.58567L85.2082 5.45568L88.9963 4.33902L89.1669 4.28875L89.2674 4.14208L91.5 0.884454Z" stroke="#FFB800"/>
</svg>
