<svg width="480" height="156" viewBox="0 0 480 156" fill="none" xmlns="http://www.w3.org/2000/svg">
<circle cx="239" cy="149.108" r="5.89164" stroke="#FF6E76" stroke-width="2"/>
<rect x="237.851" y="120.393" width="2.29721" height="22.9721" fill="#FF6E76"/>
<path d="M238.283 106.404L230.105 98.5153C229.916 98.3329 229.811 98.0893 229.811 97.8296C229.811 97.5699 229.916 97.3264 230.105 97.1439L230.707 96.563C231.099 96.185 231.737 96.185 232.129 96.563L238.996 103.187L245.871 96.5556C246.061 96.3732 246.313 96.2725 246.582 96.2725C246.852 96.2725 247.104 96.3732 247.293 96.5556L247.895 97.1366C248.085 97.3192 248.189 97.5626 248.189 97.8223C248.189 98.082 248.085 98.3255 247.895 98.508L239.71 106.404C239.52 106.587 239.266 106.687 238.997 106.686C238.726 106.687 238.473 106.587 238.283 106.404Z" fill="#FF6E76"/>
<circle cx="239" cy="99.7183" r="20.8235" stroke="#FF6E76" stroke-width="2"/>
<path d="M279 84C284 96 480 94 480 94V0.5H0V94C0 94 194 96 199 84C199 79 217 59 239 59C261 59 279 79 279 84Z" fill="#FFEDE7"/>
</svg>
