<svg width="108" height="108" viewBox="0 0 108 108" fill="none" xmlns="http://www.w3.org/2000/svg">
<g filter="url(#filter0_d)">
<circle cx="54" cy="50" r="50" fill="white"/>
</g>
<path d="M80.7696 34.1203C80.5534 32.9831 79.9519 31.945 79.0758 31.1977C78.356 30.5837 77.6437 29.9603 76.9582 29.3446C67.1438 20.525 66.3705 16.3375 66.328 16.0434C66.3362 15.5154 65.9281 15 65.2345 15H38.0565C37.26 15 36.7289 15.8274 37.0635 16.5523C37.088 16.6052 39.5173 21.9272 40.6682 29.6837C42.1148 39.4334 41.016 49.194 36.5561 57.8965C25.7685 78.9462 28.8308 83.7989 29.763 84.6798C29.9533 84.861 30.1723 84.9638 30.4123 84.9912C30.5208 85.0037 28.8881 84.9992 62.7217 84.9992C63.2616 84.9992 63.7207 84.6052 63.8027 84.0717C63.9246 83.2785 66.6498 65.2821 65.187 52.3867C74.5283 54.5093 82.4686 43.0541 80.7696 34.1203ZM76.5503 31.9063C77.8892 33.0778 78.4534 33.2902 78.6975 34.9983C78.7887 35.6421 78.8196 36.3079 78.7971 36.9848C76.9567 36.2561 75.9359 33.9085 76.5503 31.9063ZM38.5028 58.8941C43.2311 49.6678 44.3234 39.4145 42.8319 29.3625C41.9958 23.7268 40.5323 19.3751 39.6908 17.1875H64.3593C64.9418 19.0394 67.0711 23.2728 74.8213 30.3604C73.1164 33.7916 74.9877 38.2494 78.5386 39.2029C77.8682 42.6 75.9738 46.0017 73.3331 48.1681C69.1805 51.575 64.8875 50.9252 60.5498 47.719C60.0636 47.3596 59.3791 47.4627 59.0202 47.9486C58.6612 48.4343 58.7638 49.1193 59.2497 49.4781C60.6635 50.5231 61.9625 51.1978 62.885 51.6055C63.7353 57.912 63.4371 65.9023 62.93 72.2202C50.4607 70.6231 40.3711 70.4004 32.8814 71.554C34.0417 68.2803 35.8182 64.1325 38.5028 58.8941ZM31.1427 82.8117C30.2872 80.6246 31.4244 76.1439 32.1067 73.8994C39.4129 72.5894 49.965 72.7622 62.7414 74.4011C62.6826 75.0406 62.6015 75.8646 62.5346 76.5088C48.0515 76.2621 35.6301 81.901 33.7223 82.8117H31.1427ZM39.4828 82.8117C46.5985 80.237 54.6377 78.5992 62.2957 78.6945C62.0865 80.5134 61.8956 81.9453 61.7746 82.8117H39.4828Z" fill="#FF6E76"/>
<path d="M70.4894 56.8352C69.6258 57.1169 69.0935 57.2023 69.0785 57.2047C68.4827 57.2946 68.0716 57.85 68.1599 58.4465C68.2404 58.9897 68.7074 59.38 69.2405 59.38C69.6345 59.38 70.7558 59.0493 71.1674 58.9151C71.7416 58.728 72.0555 58.1106 71.8684 57.5362C71.6811 56.9618 71.0638 56.6478 70.4894 56.8352Z" fill="#FF6E76"/>
<path d="M75.2843 54.4337C74.5311 54.9475 73.749 55.4097 72.9603 55.8076C72.421 56.0795 72.2043 56.7374 72.4763 57.2766C72.7492 57.8177 73.4077 58.032 73.9454 57.7606C74.8196 57.3197 75.6847 56.8083 76.5169 56.241C77.0158 55.9007 77.1446 55.2201 76.8043 54.7211C76.4637 54.222 75.7836 54.0932 75.2843 54.4337Z" fill="#FF6E76"/>
<path d="M84.0918 46.0782C83.5726 45.7697 82.9013 45.9408 82.5928 46.46C82.1205 47.2551 81.613 48.0244 81.0847 48.7466C80.728 49.234 80.834 49.9184 81.3214 50.2752C81.8075 50.6307 82.4918 50.5278 82.85 50.0386C83.4194 49.2605 83.9656 48.4324 84.4735 47.5774C84.7821 47.0578 84.6112 46.3868 84.0918 46.0782Z" fill="#FF6E76"/>
<path d="M79.3617 50.8627C78.7469 51.5404 78.0953 52.1826 77.4248 52.7713C76.9709 53.1698 76.9261 53.8609 77.3246 54.3148C77.7242 54.7697 78.4151 54.8128 78.8682 54.4151C79.6006 53.7719 80.3119 53.0711 80.9821 52.3322C81.3879 51.8848 81.3543 51.193 80.9066 50.7872C80.4594 50.3815 79.7676 50.4148 79.3617 50.8627Z" fill="#FF6E76"/>
<path d="M89.1644 43.068L87.3029 40.3431C87.054 39.9789 86.6112 39.8001 86.1793 39.8888L82.9485 40.5535C82.3569 40.6753 81.9759 41.2537 82.0976 41.8452C82.2194 42.437 82.7976 42.8174 83.3893 42.6962L84.6278 42.4413C84.6246 42.4467 84.0765 43.6544 83.8935 44.0337C83.631 44.5777 83.8592 45.2316 84.4033 45.4941C84.9472 45.7568 85.6014 45.5282 85.8638 44.9843C85.971 44.7623 86.5768 43.489 86.6291 43.2348C87.3276 44.2572 87.5337 44.7788 88.2622 44.7788C89.1268 44.7788 89.6651 43.801 89.1644 43.068Z" fill="#FF6E76"/>
<defs>
<filter id="filter0_d" x="0" y="0" width="108" height="108" filterUnits="userSpaceOnUse" color-interpolation-filters="sRGB">
<feFlood flood-opacity="0" result="BackgroundImageFix"/>
<feColorMatrix in="SourceAlpha" type="matrix" values="0 0 0 0 0 0 0 0 0 0 0 0 0 0 0 0 0 0 127 0"/>
<feOffset dy="4"/>
<feGaussianBlur stdDeviation="2"/>
<feColorMatrix type="matrix" values="0 0 0 0 0 0 0 0 0 0 0 0 0 0 0 0 0 0 0.25 0"/>
<feBlend mode="normal" in2="BackgroundImageFix" result="effect1_dropShadow"/>
<feBlend mode="normal" in="SourceGraphic" in2="effect1_dropShadow" result="shape"/>
</filter>
</defs>
</svg>
