<svg width="108" height="108" viewBox="0 0 108 108" fill="none" xmlns="http://www.w3.org/2000/svg">
<g filter="url(#filter0_d)">
<circle cx="54" cy="50" r="50" fill="white"/>
</g>
<path d="M28.4063 71.8255C32.0094 73.2794 35.8173 74.1626 39.6926 74.4431C43.8642 74.7726 48.0614 74.515 52.1614 73.678C55.6681 72.9853 59.0737 71.854 62.2978 70.3107C62.4424 70.2394 62.5679 70.1348 62.6641 70.0054C64.6937 67.2572 66.5625 64.3937 68.2609 61.4293C68.597 62.4159 68.5858 63.4877 68.2291 64.4671C68.0903 64.8031 68.1448 65.1879 68.3715 65.4722C68.5981 65.7564 68.9611 65.8953 69.3196 65.8348C69.7245 65.7661 79.203 63.9816 82.6949 47.874C86.8582 44.1294 90.2025 39.5646 92.5177 34.466C92.6646 34.1106 92.5947 33.7025 92.3379 33.4163C92.0811 33.13 91.6829 33.0164 91.3137 33.1239L85.1656 34.9129C84.9556 34.9741 84.7714 35.1026 84.6414 35.2785C82.9909 37.428 81.1438 39.4191 79.1239 41.2259C78.5453 40.8749 77.9412 40.5679 77.3165 40.3076C74.2755 39.1781 71.0762 38.5324 67.8351 38.3941C67.3458 38.3594 66.9035 38.6848 66.791 39.1623C66.6785 39.6399 66.929 40.1285 67.3824 40.3158C68.5735 40.9285 69.389 42.0857 69.5654 43.4135C67.0866 41.3342 64.0248 40.0733 60.8005 39.8041C60.6873 39.7911 60.5726 39.7975 60.4616 39.8232C54.8875 41.184 49.4176 42.9412 44.0938 45.0813C43.7204 45.2366 43.4772 45.6014 43.4777 46.0058C43.4781 46.4102 43.7221 46.7745 44.0958 46.929C45.8838 47.7429 47.4737 48.9354 48.7556 50.424C46.2411 49.1066 42.6239 47.719 39.5479 48.5132C35.8182 49.4733 30.7691 51.8286 24.5395 55.5151C21.542 57.3812 18.7695 59.5864 16.2769 62.0871C15.961 62.411 15.9019 62.9065 16.1327 63.2956C16.2436 63.4831 18.9636 67.9265 28.4063 71.8255V71.8255ZM86.0423 36.7409L89.7057 35.6743C87.5174 39.7933 84.613 43.4896 81.1284 46.59C75.2697 51.6868 55.9216 61.4484 41.8962 62.0922C50.1898 60.1668 66.2016 55.1078 80.2757 42.8775C82.3846 41.0158 84.3152 38.9613 86.0423 36.7409ZM25.5595 57.2346C27.6442 56.0008 29.5777 54.934 31.3754 54.0101C34.4309 54.3045 37.429 55.0324 40.2793 56.172C40.7897 56.3828 41.3744 56.1398 41.5852 55.6294C41.796 55.1189 41.553 54.5342 41.0426 54.3234C38.9643 53.4813 36.8046 52.856 34.5979 52.4575C36.3553 51.6391 38.1774 50.9675 40.0455 50.4496C44.3642 49.3366 50.6123 53.8953 50.6757 53.941C51.0161 54.1922 51.4778 54.202 51.8286 53.9655C52.1793 53.7289 52.3433 53.2973 52.238 52.8875C51.3465 50.0408 49.4191 47.6323 46.8371 46.1383C51.3845 44.4207 56.0304 42.9764 60.75 41.8129C67.2175 42.6095 69.5235 46.2794 69.6174 46.4318C69.8294 46.789 70.2401 46.9781 70.6493 46.9067C71.0585 46.8353 71.381 46.5184 71.4595 46.1105C71.9042 44.2665 71.6123 42.3218 70.6458 40.6896C73.0166 40.9408 75.3292 41.5842 77.4892 42.5935C66.9493 51.0845 54.6271 57.0843 41.4431 60.1449C40.4292 60.3623 39.7603 61.3321 39.9173 62.357C40.045 63.3961 40.9597 64.156 42.0046 64.0909C55.4596 63.4712 72.4956 55.24 80.1298 49.881C77.5416 59.047 72.8953 62.274 70.4978 63.3483C70.5181 61.6401 70.0393 59.9631 69.12 58.5232C68.9143 58.2166 68.5564 58.0482 68.189 58.0853C67.8216 58.1225 67.5046 58.359 67.3644 58.7006C66.0466 61.8922 62.0176 67.4968 61.2005 68.6189C60.0178 69.1809 58.8074 69.6828 57.5741 70.1226C58.646 68.6937 59.5387 67.1388 60.2323 65.4927C60.4431 64.9822 60.2001 64.3975 59.6897 64.1868C59.1792 63.976 58.5945 64.2189 58.3837 64.7294C57.3471 67.1271 55.8855 69.3176 54.0694 71.1953C50.9254 72.0129 47.6994 72.4737 44.4522 72.5688C45.0712 72.0199 45.6333 71.41 46.13 70.7483C46.4572 70.3032 46.3616 69.6772 45.9165 69.35C45.4714 69.0228 44.8454 69.1184 44.5182 69.5635C43.5933 70.7338 42.4786 71.7408 41.2206 72.5425C37.0866 72.3814 33.0107 71.5137 29.1696 69.9769C22.4434 67.1996 19.3812 64.1587 18.3173 62.8863C20.525 60.752 22.9526 58.8575 25.5595 57.2346Z" fill="#FF6E76"/>
<defs>
<filter id="filter0_d" x="0" y="0" width="108" height="108" filterUnits="userSpaceOnUse" color-interpolation-filters="sRGB">
<feFlood flood-opacity="0" result="BackgroundImageFix"/>
<feColorMatrix in="SourceAlpha" type="matrix" values="0 0 0 0 0 0 0 0 0 0 0 0 0 0 0 0 0 0 127 0"/>
<feOffset dy="4"/>
<feGaussianBlur stdDeviation="2"/>
<feColorMatrix type="matrix" values="0 0 0 0 0 0 0 0 0 0 0 0 0 0 0 0 0 0 0.25 0"/>
<feBlend mode="normal" in2="BackgroundImageFix" result="effect1_dropShadow"/>
<feBlend mode="normal" in="SourceGraphic" in2="effect1_dropShadow" result="shape"/>
</filter>
</defs>
</svg>
