<svg width="44" height="79" viewBox="0 0 44 79" fill="none" xmlns="http://www.w3.org/2000/svg">
<circle cx="22" cy="72.1084" r="5.89164" stroke="#FF6E76" stroke-width="2"/>
<rect x="20.8513" y="43.3932" width="2.29721" height="22.9721" fill="#FF6E76"/>
<path d="M21.283 29.4039L13.1049 21.5154C12.9156 21.333 12.8113 21.0894 12.8113 20.8297C12.8113 20.57 12.9156 20.3265 13.1049 20.144L13.707 19.5631C14.0994 19.1851 14.737 19.1851 15.1288 19.5631L21.9963 26.1872L28.8715 19.5558C29.0608 19.3733 29.3131 19.2726 29.5822 19.2726C29.8516 19.2726 30.104 19.3733 30.2934 19.5558L30.8954 20.1367C31.0847 20.3193 31.189 20.5627 31.189 20.8224C31.189 21.0821 31.0847 21.3256 30.8954 21.5081L22.7098 29.4039C22.5199 29.5867 22.2663 29.6872 21.9968 29.6866C21.7262 29.6872 21.4728 29.5867 21.283 29.4039Z" fill="#FF6E76"/>
<circle cx="22" cy="22.7183" r="20.8235" stroke="#FF6E76" stroke-width="2"/>
</svg>
