<svg width="214" height="46" viewBox="0 0 214 46" fill="none" xmlns="http://www.w3.org/2000/svg">
<circle cx="23.001" cy="23" r="23" fill="white"/>
<path d="M18.0908 29.4805C17.9893 29.3477 17.9385 29.1992 17.9385 29.0352C17.9385 28.832 18.0049 28.6602 18.1377 28.5195C18.2783 28.3789 18.4502 28.3086 18.6533 28.3086C18.9111 28.3086 19.1182 28.418 19.2744 28.6367C19.376 28.7852 19.4932 28.9414 19.626 29.1055C19.9775 29.5117 20.4033 29.8516 20.9033 30.125C21.4033 30.3906 22.0283 30.5352 22.7783 30.5586C23.7549 30.5586 24.626 30.2344 25.3916 29.5859C25.8057 29.2266 26.1494 28.7969 26.4229 28.2969C26.6963 27.7891 26.833 27.168 26.833 26.4336C26.833 25.4492 26.5088 24.582 25.8604 23.832C25.165 23.0742 24.2393 22.5977 23.083 22.4023C21.6611 22.1367 20.6221 21.6016 19.9658 20.7969C19.6221 20.375 19.3564 19.918 19.1689 19.4258C18.9814 18.9336 18.8877 18.418 18.8877 17.8789C18.9033 16.418 19.4385 15.2422 20.4932 14.3516C21.3447 13.6172 22.3369 13.25 23.4697 13.25C24.7822 13.25 25.9385 13.793 26.9385 14.8789C27.1104 15.082 27.2588 15.2891 27.3838 15.5C27.4541 15.6172 27.4893 15.75 27.4893 15.8984C27.4893 16.0938 27.4189 16.2617 27.2783 16.4023C27.1377 16.543 26.9697 16.6133 26.7744 16.6133C26.5479 16.6133 26.3877 16.5508 26.2939 16.4258C26.1689 16.2539 26.0166 16.0586 25.8369 15.8398C25.251 15.1523 24.5439 14.7812 23.7158 14.7266C22.8643 14.6719 22.1025 14.9219 21.4307 15.4766C20.7588 16.0391 20.3955 16.7383 20.3408 17.5742C20.3096 18.0039 20.3525 18.4102 20.4697 18.793C20.5869 19.1758 20.7861 19.5312 21.0674 19.8594C21.583 20.4297 22.4346 20.8242 23.6221 21.043C25.0596 21.3164 26.1768 21.9336 26.9736 22.8945C27.3877 23.4023 27.708 23.9531 27.9346 24.5469C28.1611 25.1406 28.2744 25.7539 28.2744 26.3867C28.2588 27.4648 28.0752 28.3281 27.7236 28.9766C27.3799 29.6172 26.915 30.1836 26.3291 30.6758C25.2822 31.5586 24.1025 32 22.79 32C21.1416 32 19.7197 31.3477 18.5244 30.043C18.3916 29.8945 18.2471 29.707 18.0908 29.4805Z" fill="#535667"/>
<circle cx="79.001" cy="23" r="23" fill="white"/>
<path d="M71.3799 17.0234V31.2734C71.3799 31.4766 71.3096 31.6484 71.1689 31.7891C71.0361 31.9297 70.8682 32 70.665 32C70.4619 32 70.29 31.9297 70.1494 31.7891C70.0088 31.6484 69.9385 31.4766 69.9385 31.2734V13.9766C69.9385 13.7734 70.0088 13.6016 70.1494 13.4609C70.29 13.3203 70.4619 13.25 70.665 13.25C70.9541 13.25 71.165 13.375 71.2979 13.625L79.3135 29.668L87.3291 13.625C87.4697 13.375 87.6846 13.25 87.9736 13.25C88.1768 13.25 88.3447 13.3203 88.4775 13.4609C88.6182 13.6016 88.6885 13.7734 88.6885 13.9766V31.2734C88.6885 31.4766 88.6182 31.6484 88.4775 31.7891C88.3447 31.9297 88.1768 32 87.9736 32C87.7705 32 87.5986 31.9297 87.458 31.7891C87.3174 31.6484 87.2471 31.4766 87.2471 31.2734V17.0234L79.9346 31.6602C79.7939 31.8867 79.5869 32 79.3135 32C79.001 32 78.7783 31.8477 78.6455 31.543L71.3799 17.0234Z" fill="#535667"/>
<circle cx="135.001" cy="23" r="23" fill="white"/>
<path d="M128.938 13.9766C128.938 13.7734 129.009 13.6016 129.149 13.4609C129.29 13.3203 129.458 13.25 129.653 13.25C129.856 13.25 130.028 13.3203 130.169 13.4609C130.31 13.6016 130.38 13.7734 130.38 13.9766V30.5586H140.235C140.438 30.5586 140.61 30.6289 140.751 30.7695C140.892 30.9102 140.962 31.0781 140.962 31.2734C140.962 31.4766 140.892 31.6484 140.751 31.7891C140.61 31.9297 140.438 32 140.235 32H129.653C129.458 32 129.29 31.9297 129.149 31.7891C129.009 31.6484 128.938 31.4766 128.938 31.2734V13.9766Z" fill="#535667"/>
<circle cx="191.001" cy="23" r="23" fill="white"/>
<path d="M184.392 21.4414L190.521 13.5664C190.7 13.3555 190.903 13.25 191.13 13.25C191.325 13.25 191.493 13.3203 191.634 13.4609C191.774 13.6016 191.845 13.7734 191.845 13.9766C191.845 14.1328 191.806 14.2695 191.728 14.3867L185.317 22.625L191.692 30.8164C191.794 30.9414 191.845 31.0938 191.845 31.2734C191.845 31.4766 191.774 31.6484 191.634 31.7891C191.493 31.9297 191.325 32 191.13 32C190.903 32 190.72 31.918 190.579 31.7539L184.392 23.8203L178.204 31.7539C178.071 31.918 177.892 32 177.665 32C177.462 32 177.29 31.9297 177.149 31.7891C177.009 31.6484 176.938 31.4766 176.938 31.2734C176.938 31.1016 176.993 30.9492 177.103 30.8164L183.466 22.625L177.067 14.375C176.981 14.2734 176.938 14.1406 176.938 13.9766C176.938 13.7734 177.009 13.6016 177.149 13.4609C177.29 13.3203 177.462 13.25 177.665 13.25C177.899 13.25 178.099 13.3555 178.263 13.5664L184.392 21.4414ZM193.813 13.9766C193.813 13.7734 193.884 13.6016 194.024 13.4609C194.165 13.3203 194.333 13.25 194.528 13.25C194.731 13.25 194.903 13.3203 195.044 13.4609C195.185 13.6016 195.255 13.7734 195.255 13.9766V30.5586H205.11C205.313 30.5586 205.485 30.6289 205.626 30.7695C205.767 30.9102 205.837 31.0781 205.837 31.2734C205.837 31.4766 205.767 31.6484 205.626 31.7891C205.485 31.9297 205.313 32 205.11 32H194.528C194.333 32 194.165 31.9297 194.024 31.7891C193.884 31.6484 193.813 31.4766 193.813 31.2734V13.9766Z" fill="#535667"/>
</svg>
