<svg width="70" height="70" viewBox="0 0 70 70" fill="none" xmlns="http://www.w3.org/2000/svg">
<circle cx="35" cy="35" r="35" fill="#171322"/>
<g clip-path="url(#clip0)">
<path d="M24.8826 22.5546L22.7998 44.9211C22.5587 47.5102 24.2898 49.7712 26.5128 49.7712H44.5538C46.7771 49.7712 48.508 47.5102 48.2669 44.9211L46.1841 22.5546C46.0994 21.6469 45.4452 20.9596 44.666 20.9596H26.401C25.6215 20.9596 24.9673 21.6469 24.8826 22.5546Z" fill="#ED5176"/>
<path d="M48.2668 44.9211L46.184 22.5546C46.0994 21.6469 45.4451 20.9596 44.666 20.9596H42.8961C43.6753 20.9596 44.3295 21.6469 44.4141 22.5546L46.497 44.9211C46.7381 47.5102 45.0072 49.7712 42.7839 49.7712H44.5538C46.7771 49.7712 48.508 47.5102 48.2668 44.9211Z" fill="#BA365F"/>
<path d="M22.7782 45.4335C22.7921 47.8011 24.4378 49.7712 26.5128 49.7712H44.5538C46.6289 49.7712 48.2746 47.8011 48.2888 45.4335H22.7782Z" fill="#FF76A4"/>
<path d="M46.5189 45.4335C46.5047 47.8011 44.859 49.7712 42.7839 49.7712H44.5538H44.5559C44.6224 49.7712 44.6884 49.7687 44.7541 49.7649C44.7765 49.7633 44.7987 49.7608 44.8208 49.759C44.8646 49.7552 44.9081 49.7518 44.9514 49.7464C44.9778 49.743 45.0037 49.7386 45.0299 49.7346C45.0686 49.7289 45.1074 49.7233 45.1455 49.7161C45.1733 49.7111 45.2005 49.7048 45.228 49.6989C45.2644 49.6911 45.3004 49.6836 45.3362 49.6745C45.3642 49.6676 45.3923 49.6598 45.42 49.652C45.4548 49.6423 45.4892 49.6326 45.5234 49.6219C45.5514 49.6132 45.5792 49.6035 45.607 49.5938C45.6403 49.5825 45.6735 49.571 45.7063 49.5584C45.7343 49.5478 45.7621 49.5366 45.7899 49.5253C45.8217 49.5122 45.8534 49.4987 45.8849 49.4846C45.9127 49.4721 45.9402 49.4593 45.9677 49.4462C45.9984 49.4314 46.0289 49.4164 46.059 49.4008C46.0865 49.3864 46.1138 49.3723 46.1408 49.3573C46.1704 49.341 46.1995 49.3242 46.2286 49.307C46.2556 49.291 46.2825 49.275 46.3092 49.2585C46.3373 49.241 46.3651 49.2225 46.3928 49.204C46.4193 49.1865 46.446 49.169 46.4721 49.1506C46.4988 49.1315 46.5253 49.1121 46.5514 49.0924C46.5776 49.073 46.604 49.0536 46.6299 49.0332C46.6548 49.0139 46.6791 48.9932 46.7036 48.9729C46.7301 48.9513 46.7565 48.93 46.7822 48.9075C46.8046 48.8878 46.8259 48.8675 46.8481 48.8471C46.8751 48.8227 46.9021 48.7986 46.9282 48.7733C46.9426 48.7592 46.9565 48.7445 46.9707 48.7301C47.0422 48.6588 47.1119 48.585 47.1787 48.5074C47.1838 48.5015 47.1894 48.4958 47.1947 48.4896C47.2241 48.4552 47.2524 48.4192 47.2807 48.3836C47.2943 48.367 47.3079 48.3507 47.321 48.3335C47.3477 48.2991 47.3734 48.2637 47.399 48.2284C47.4129 48.209 47.4273 48.1902 47.4409 48.1708C47.4657 48.1352 47.4895 48.0989 47.5135 48.0626C47.5269 48.0423 47.5405 48.0219 47.5536 48.0016C47.5768 47.9647 47.5993 47.9272 47.6217 47.8896C47.6342 47.8684 47.6468 47.8474 47.6591 47.8258C47.681 47.7877 47.7021 47.7489 47.7229 47.7098C47.7344 47.6882 47.7459 47.6666 47.7571 47.6447C47.7776 47.605 47.7974 47.5643 47.8169 47.5237C47.827 47.5021 47.8375 47.4802 47.8473 47.4583C47.8666 47.4167 47.885 47.3744 47.9031 47.3319C47.9122 47.3106 47.921 47.2887 47.9298 47.2672C47.9475 47.2234 47.9648 47.1793 47.9811 47.1348C47.9889 47.1142 47.9963 47.0929 48.0038 47.072C48.0201 47.026 48.0361 46.9797 48.0511 46.9328C48.0575 46.9134 48.0634 46.8937 48.0692 46.874C48.0845 46.8248 48.0991 46.7757 48.1125 46.726C48.1173 46.7091 48.1213 46.6916 48.1258 46.6744C48.1397 46.6215 48.1531 46.5687 48.1654 46.5149C48.168 46.5027 48.1704 46.4905 48.1731 46.4779C48.1859 46.4188 48.1982 46.3597 48.2089 46.3C48.2089 46.2996 48.2092 46.2996 48.2092 46.2993C48.2594 46.0191 48.2866 45.7294 48.2885 45.4335H46.5189Z" fill="#ED5176"/>
<path d="M54.2058 41.7684L53.9634 34.7603C53.9289 33.7684 53.2504 32.9735 52.4037 32.9332L46.4212 32.6492C45.9672 32.6276 45.5261 32.8293 45.2048 33.2056L36.4984 43.4046C35.8065 44.2151 35.8065 45.5295 36.4984 46.34L42.5183 53.3919C43.2104 54.2027 44.3322 54.2027 45.0241 53.3919L53.7308 43.1929C54.052 42.8166 54.2243 42.3001 54.2058 41.7684ZM49.8714 37.7266C49.4362 37.2167 49.4362 36.3903 49.8714 35.8804C50.3064 35.3709 51.0119 35.3709 51.4472 35.8804C51.8824 36.3903 51.8824 37.2167 51.4472 37.7266C51.0119 38.2365 50.3064 38.2365 49.8714 37.7266Z" fill="#FFCD34"/>
<path d="M54.2058 41.7684L53.9634 34.7603C53.9396 34.0721 53.605 33.479 53.1198 33.1668C53.2144 33.3905 53.2635 33.6492 53.2552 33.9307L53.0605 40.4267C53.0459 40.9197 52.8547 41.4143 52.5334 41.7906L43.827 51.9896C43.1351 52.8001 42.0918 52.8926 41.4971 52.1957L42.5185 53.3922C43.2104 54.2027 44.3322 54.2027 45.0243 53.3922L53.7308 43.1932C54.052 42.8166 54.2243 42.3001 54.2058 41.7684Z" fill="#E69012"/>
<path d="M40.5289 24.2053C40.2499 24.2053 40.0237 23.9404 40.0237 23.6135V19.4438C40.0237 16.5435 38.0092 14.184 35.5333 14.184C33.0574 14.184 31.043 16.5435 31.043 19.4438V23.6135C31.043 23.9404 30.8168 24.2053 30.5378 24.2053C30.2587 24.2053 30.0325 23.9404 30.0325 23.6135V19.4438C30.0325 15.8906 32.5001 13 35.5333 13C38.5665 13 41.0341 15.8906 41.0341 19.4438V23.6135C41.0341 23.9404 40.8079 24.2053 40.5289 24.2053Z" fill="white"/>
<path d="M43.4785 42.4581C42.4897 42.4581 41.6854 41.5159 41.6854 40.3576C41.6854 39.1996 42.4897 38.2571 43.4785 38.2571C44.467 38.2571 45.2716 39.1996 45.2716 40.3576C45.2716 41.5159 44.4673 42.4581 43.4785 42.4581ZM43.4785 39.4411C43.047 39.4411 42.6958 39.8521 42.6958 40.3576C42.6958 40.8631 43.047 41.2745 43.4785 41.2745C43.91 41.2745 44.2609 40.8631 44.2609 40.3576C44.2609 39.8521 43.91 39.4411 43.4785 39.4411Z" fill="white"/>
<path d="M46.7082 48.3902C45.7194 48.3902 44.9149 47.448 44.9149 46.2897C44.9149 45.1317 45.7194 44.1892 46.7082 44.1892C47.6968 44.1892 48.5013 45.1317 48.5013 46.2897C48.5013 47.448 47.6968 48.3902 46.7082 48.3902ZM46.7082 45.3731C46.2767 45.3731 45.9256 45.7845 45.9256 46.29C45.9256 46.7952 46.2767 47.2065 46.7082 47.2065C47.1397 47.2065 47.4906 46.7952 47.4906 46.29C47.4906 45.7842 47.1397 45.3731 46.7082 45.3731Z" fill="white"/>
<path d="M42.439 47.0251C42.3097 47.0251 42.1802 46.9672 42.0817 46.8515C41.8844 46.6206 41.8844 46.2456 42.0817 46.0144L47.3902 39.7958C47.5876 39.5647 47.9075 39.5647 48.1048 39.7958C48.3021 40.027 48.3021 40.4017 48.1048 40.6329L42.7963 46.8515C42.6977 46.9672 42.5682 47.0251 42.439 47.0251Z" fill="white"/>
</g>
<defs>
<clipPath id="clip0">
<rect x="21" y="13" width="35" height="41" fill="white"/>
</clipPath>
</defs>
</svg>
