<svg width="20" height="21" viewBox="0 0 20 21" fill="none" xmlns="http://www.w3.org/2000/svg">
<path d="M5.9 8.55163L4.5 9.95995L9 14.4867L19 4.42727L17.6 3.01895L9 11.6701L5.9 8.55163ZM18 10.4629C18 14.8891 14.4 18.5105 10 18.5105C5.6 18.5105 2 14.8891 2 10.4629C2 6.03678 5.6 2.41539 10 2.41539C10.8 2.41539 11.5 2.51598 12.2 2.71717L13.8 1.10766C12.6 0.705286 11.3 0.403503 10 0.403503C4.5 0.403503 0 4.93024 0 10.4629C0 15.9956 4.5 20.5223 10 20.5223C15.5 20.5223 20 15.9956 20 10.4629H18Z" fill="#FFE500"/>
</svg>
