<svg width="43" height="43" viewBox="0 0 43 43" fill="none" xmlns="http://www.w3.org/2000/svg">
<circle cx="21.5" cy="21.5" r="21" stroke="black"/>
<g clip-path="url(#clip0)">
<path d="M19.547 19.0586C18.1282 19.0586 17.1057 20.2459 17.1057 21.6875C17.1057 23.2719 18.3251 24.3109 20.171 25.8837C20.4927 26.1577 20.8254 26.4412 21.1787 26.7502C21.2707 26.8307 21.3854 26.871 21.5001 26.871C21.6149 26.871 21.7296 26.8308 21.8216 26.7502C22.1749 26.4412 22.5075 26.1577 22.8292 25.8837C24.6751 24.3109 25.8946 23.2719 25.8946 21.6875C25.8946 20.2457 24.8718 19.0586 23.4532 19.0586C22.4833 19.0586 21.8681 19.6124 21.5001 20.1472C21.1322 19.6124 20.5169 19.0586 19.547 19.0586ZM21.971 21.385C21.9747 21.3716 22.354 20.0351 23.4532 20.0351C24.2883 20.0351 24.9181 20.7455 24.9181 21.6875C24.9181 22.821 23.8934 23.694 22.1959 25.1404C21.9706 25.3323 21.7401 25.5287 21.5001 25.7359C21.2602 25.5287 21.0296 25.3322 20.8044 25.1404C19.1068 23.694 18.0822 22.821 18.0822 21.6875C18.0822 20.7455 18.7119 20.0351 19.547 20.0351C20.6323 20.0351 21.0124 21.3257 21.0296 21.3864C21.0883 21.5978 21.2807 21.7441 21.5001 21.7441C21.7201 21.7441 21.9128 21.5971 21.971 21.385Z" fill="black"/>
<path d="M15.1525 14.4688C15.4222 14.4688 15.6408 14.2501 15.6408 13.9805C15.6408 13.7108 15.4222 13.4922 15.1525 13.4922C14.8829 13.4922 14.6642 13.7108 14.6642 13.9805C14.6642 14.2501 14.8829 14.4688 15.1525 14.4688Z" fill="black"/>
<path d="M30.8643 20.6138C31.2067 20.8747 31.6156 21.0126 32.0469 21.0126C33.1239 21.0126 34 20.1364 34 19.0595C34 18.4443 33.7191 17.8777 33.2312 17.5063L30.7774 15.6205V9.48925C30.7774 9.21963 30.5588 9.00098 30.2891 9.00098H27.3595C27.0898 9.00098 26.8712 9.21963 26.8712 9.48925V12.6186L22.6828 9.3997C22.3404 9.13882 21.9315 9.00098 21.5002 9.00098C21.0689 9.00098 20.66 9.13882 20.3159 9.40092L16.5982 12.2581C16.3844 12.4224 16.3443 12.729 16.5086 12.9427C16.6729 13.1565 16.9795 13.1967 17.1934 13.0323L20.9094 10.1765C21.0802 10.0463 21.2845 9.97753 21.5002 9.97753C21.7159 9.97753 21.9202 10.0463 22.0894 10.1752L32.6379 18.282C32.883 18.4684 33.0235 18.7518 33.0235 19.0595C33.0235 19.5979 32.5854 20.036 32.0469 20.036C31.8313 20.036 31.627 19.9672 31.4579 19.8384C30.9109 19.4177 22.2391 12.7481 21.7979 12.4088C21.6286 12.2786 21.3943 12.2735 21.2195 12.3963C21.1974 12.4118 11.5451 19.8364 11.5441 19.8372C11.3483 19.9865 11.1036 20.0552 10.854 20.031C10.3705 19.9841 10.1082 19.7568 10.0034 19.2935C9.91561 18.9054 10.0533 18.5177 10.3642 18.2806L13.7103 15.7091C13.9242 15.5448 13.9643 15.2382 13.7999 15.0244C13.6356 14.8107 13.329 14.7705 13.1152 14.9348L9.77073 17.5051C9.15355 17.9756 8.87778 18.7434 9.05097 19.509C9.24906 20.3848 9.85599 20.9154 10.7595 21.0029C11.2548 21.0514 11.7437 20.9131 12.1363 20.6137L12.1356 20.6128C12.1563 20.5975 12.1846 20.5761 12.223 20.5468V27.2459C11.1058 27.5139 10.2418 28.4229 10.0355 29.5739C9.39139 30.0294 9.00038 30.7693 9.00038 31.5593C9.00038 32.9054 10.0956 34.0006 11.4418 34.0006H31.5587C32.9049 34.0006 34.0001 32.9054 34.0001 31.5593C34.0001 30.7693 33.6091 30.0294 32.9649 29.5739C32.7586 28.4224 31.8941 27.5131 30.7775 27.2457V20.547L30.8643 20.6138ZM27.8478 9.97753H29.8009V14.87L27.8478 13.369V9.97753ZM16.8127 33.0241H11.4417C10.634 33.0241 9.97688 32.367 9.97688 31.5593C9.97688 31.0376 10.2647 30.5512 10.728 30.2898C10.8672 30.2113 10.9591 30.0698 10.9742 29.9107C11.0697 28.9082 11.8997 28.1414 12.9066 28.1414C13.5353 28.1414 14.1303 28.451 14.498 28.9696C14.6132 29.1321 14.8156 29.2084 15.0094 29.1622C15.1346 29.1324 15.2453 29.1179 15.348 29.1179C16.1365 29.1179 16.8031 29.7512 16.8127 30.5655C16.7711 30.8591 16.928 31.0598 17.1316 31.1307C17.5096 31.2624 17.7893 31.6197 17.7893 32.0475C17.7893 32.5861 17.3512 33.0241 16.8127 33.0241ZM25.2216 30.356C24.9198 30.5268 24.6707 30.773 24.4977 31.0711H18.5025C18.3294 30.7729 18.0804 30.5267 17.7787 30.356C17.7705 30.2681 17.7576 30.1808 17.74 30.094H25.2604C25.2429 30.1808 25.2299 30.2681 25.2216 30.356ZM18.5037 33.0241C18.6704 32.7367 18.7658 32.403 18.7658 32.0476H24.2345C24.2345 32.403 24.33 32.7367 24.4966 33.0241H18.5037ZM32.0262 29.9107C32.0413 30.0698 32.1333 30.2113 32.2724 30.2898C32.7357 30.5512 33.0235 31.0376 33.0235 31.5593C33.0235 32.367 32.3664 33.0241 31.5587 33.0241H26.1877C25.6492 33.0241 25.2111 32.5861 25.2111 32.0476C25.2111 31.6193 25.4914 31.2622 25.8688 31.1308C26.0742 31.0593 26.2291 30.8574 26.1878 30.5656C26.1973 29.7533 26.8621 29.118 27.6525 29.118C27.7551 29.118 27.8659 29.1325 27.991 29.1623C28.1847 29.2084 28.3873 29.1322 28.5025 28.9697C28.8702 28.4511 29.4651 28.1414 30.0939 28.1414C31.1004 28.1414 31.9306 28.9073 32.0262 29.9107ZM29.8009 27.1802C29.0711 27.2546 28.3919 27.6037 27.9031 28.156C27.8178 28.1463 27.7346 28.1414 27.6525 28.1414C26.8821 28.1414 26.1584 28.5095 25.7004 29.1179H17.3C16.8422 28.5097 16.1184 28.1414 15.3479 28.1414C15.2657 28.1414 15.1825 28.1463 15.0972 28.156C14.6085 27.6037 13.9293 27.2546 13.1995 27.1802V19.7961C13.9083 19.2509 20.6846 14.039 21.5001 13.4118L29.8009 19.796V27.1802Z" fill="black"/>
</g>
<defs>
<clipPath id="clip0">
<rect width="25" height="25" fill="white" transform="translate(9 9)"/>
</clipPath>
</defs>
</svg>
