<svg width="43" height="43" viewBox="0 0 43 43" fill="none" xmlns="http://www.w3.org/2000/svg">
<circle cx="21.5" cy="21.5" r="21" stroke="black"/>
<path d="M36.7348 26.0145C36.7329 26.0135 36.731 26.0124 36.729 26.0114C36.4826 25.8835 36.1792 25.9795 36.0512 26.226C36.0509 26.2265 36.0507 26.2271 36.0504 26.2276L35.2058 27.8514C31.0634 23.4375 28.6503 16.2888 28.3939 15.4945V13.3328C28.3939 13.0552 28.1688 12.8301 27.8912 12.8301C27.6136 12.8301 27.3885 13.0552 27.3885 13.3328V15.0722H16.1929V13.3479C16.1929 13.0703 15.9678 12.8452 15.6901 12.8452C15.4125 12.8452 15.1874 13.0703 15.1874 13.3479V15.4945C14.8858 16.3642 11.8745 24.7194 8.44091 27.8514L7.97841 26.5292C7.88679 26.2669 7.5998 26.1284 7.33744 26.2201C7.07508 26.3117 6.93665 26.5987 7.02827 26.861L7.72705 28.8719C7.73572 28.8926 7.74584 28.9128 7.75721 28.9322C7.76846 28.9584 7.78191 28.9837 7.79743 29.0076C7.82533 29.031 7.85568 29.0512 7.88792 29.068L7.93819 29.1182C7.96679 29.1363 7.99707 29.1515 8.02868 29.1635H8.07895C8.13061 29.1716 8.18314 29.1716 8.2348 29.1635H35.3365C35.3815 29.1696 35.4272 29.1696 35.4722 29.1635H35.5175L35.5979 29.1233L35.6431 29.0881L35.7035 29.0328L35.7387 28.9825L35.7739 28.9373L36.9402 26.6951C37.0714 26.4505 36.9794 26.1458 36.7348 26.0145ZM20.4409 27.9168L19.7672 26.4086C19.6548 26.1546 19.3577 26.0398 19.1036 26.1522C18.8496 26.2647 18.7348 26.5618 18.8472 26.8158L19.4656 28.2084H9.5469C12.7794 24.8552 15.4488 17.7518 16.0471 16.0878H27.2578C26.4383 18.1288 23.3617 25.4384 20.4409 27.9168ZM27.3885 28.1983H21.6072C23.9197 25.8556 26.1317 21.2457 27.3885 18.3802V28.1983ZM28.3939 28.1983V18.4003C29.4697 21.0446 31.4102 25.1267 34.1601 28.1983H28.3939Z" fill="black"/>
</svg>
