<svg width="43" height="43" viewBox="0 0 43 43" fill="none" xmlns="http://www.w3.org/2000/svg">
<circle cx="21.5" cy="21.5" r="21" stroke="black"/>
<g clip-path="url(#clip0)">
<path d="M15.1585 17.3125C12.3194 17.3125 10.0096 19.6223 10.0096 22.4614C10.0096 24.2241 10.8481 26.1194 12.5019 28.0945C12.7476 28.388 12.9925 28.6599 13.2275 28.9081C12.1597 29.1995 11.5186 29.7232 11.5186 30.3343C11.5186 31.4163 13.3939 32.0001 15.1583 32.0001C16.9228 32.0001 18.7981 31.4162 18.7981 30.3343C18.7981 29.7236 18.1572 29.1999 17.0901 28.9083C17.5164 28.4582 17.9751 27.9287 18.4104 27.3381C18.5113 27.2011 18.4821 27.0084 18.3452 26.9075C18.2083 26.8067 18.0155 26.8359 17.9146 26.9728C17.3891 27.6859 16.8203 28.3126 16.324 28.8104C16.2671 28.8395 16.2195 28.8856 16.1897 28.9437C15.7451 29.3806 15.3709 29.7048 15.1586 29.8819C14.9487 29.7065 14.5802 29.3867 14.1413 28.9555C14.1098 28.8865 14.0545 28.8323 13.987 28.8021C12.5921 27.3992 10.6254 24.9753 10.6254 22.4615C10.6254 19.962 12.659 17.9285 15.1584 17.9285C17.6579 17.9285 19.6915 19.962 19.6915 22.4615C19.6915 23.553 19.3195 24.7318 18.586 25.9651C18.4991 26.1114 18.5471 26.3003 18.6933 26.3872C18.8394 26.4741 19.0284 26.4261 19.1154 26.28C19.9063 24.9501 20.3074 23.6654 20.3074 22.4615C20.3074 19.6223 17.9976 17.3125 15.1585 17.3125ZM14.97 30.5224C15.0255 30.5653 15.092 30.5868 15.1585 30.5868C15.225 30.5868 15.2915 30.5653 15.347 30.5224C15.3847 30.4931 15.8993 30.0918 16.5852 29.4212C17.6238 29.633 18.1823 30.0408 18.1823 30.3344C18.1823 30.5536 17.8818 30.8122 17.3981 31.0093C16.8049 31.2511 16.0094 31.3843 15.1584 31.3843C13.3124 31.3843 12.1344 30.7624 12.1344 30.3344C12.1344 30.0404 12.6931 29.6328 13.7323 29.421C14.422 30.0956 14.9373 30.497 14.97 30.5224Z" fill="black"/>
<path d="M15.1585 20.2227C14.6714 20.2227 14.2083 20.3764 13.8191 20.6673C13.6829 20.7692 13.655 20.9622 13.7568 21.0984C13.8587 21.2346 14.0517 21.2624 14.1879 21.1606C14.4697 20.9499 14.8053 20.8385 15.1584 20.8385C16.0533 20.8385 16.7813 21.5665 16.7813 22.4614C16.7813 23.3563 16.0533 24.0842 15.1584 24.0842C14.2636 24.0842 13.5356 23.3562 13.5356 22.4614C13.5356 22.3087 13.5567 22.1577 13.5984 22.0128C13.6453 21.8493 13.5508 21.6788 13.3874 21.6318C13.224 21.5851 13.0534 21.6794 13.0064 21.8429C12.949 22.0431 12.9198 22.2512 12.9198 22.4614C12.9198 23.6958 13.9241 24.7001 15.1585 24.7001C16.3929 24.7001 17.3972 23.6959 17.3972 22.4614C17.3972 21.227 16.3929 20.2227 15.1585 20.2227Z" fill="black"/>
<path d="M28.5784 19.9464C28.7351 19.7783 28.8965 19.5971 29.0583 19.4038C30.3404 17.8725 30.9904 16.4005 30.9904 15.0285C30.9904 12.8072 29.1832 11 26.9619 11C25.3392 11 23.8822 11.9658 23.2501 13.4604C23.1838 13.617 23.2571 13.7977 23.4137 13.8639C23.5703 13.9301 23.7511 13.8569 23.8173 13.7003C24.3529 12.4341 25.5872 11.6159 26.9619 11.6159C28.8437 11.6159 30.3746 13.1468 30.3746 15.0286C30.3746 17.5733 27.7029 20.0113 26.9618 20.6385C26.7985 20.5005 26.5414 20.2746 26.24 19.9791C26.2099 19.9195 26.1613 19.8722 26.103 19.843C25.0398 18.7724 23.5492 16.9322 23.5492 15.0286C23.5492 14.8585 23.4114 14.7206 23.2413 14.7206C23.0712 14.7206 22.9333 14.8585 22.9333 15.0286C22.9333 16.4005 23.5834 17.8726 24.8655 19.4038C25.0273 19.5971 25.1886 19.7781 25.3452 19.9462C24.5514 20.1847 24.0931 20.5907 24.0931 21.0795C24.0931 21.4918 24.4276 21.8552 25.0349 22.1026C25.5546 22.3144 26.2389 22.431 26.9619 22.431C27.6848 22.431 28.3691 22.3144 28.8888 22.1026C29.4961 21.8551 29.8305 21.4918 29.8305 21.0795C29.8305 20.5915 29.3719 20.1852 28.5784 19.9464ZM26.9618 21.8151C25.5042 21.8151 24.709 21.3291 24.709 21.0794C24.709 20.9168 25.0707 20.6191 25.8431 20.4549C26.3628 20.9605 26.7486 21.261 26.7735 21.2803C26.829 21.3233 26.8955 21.3447 26.962 21.3447C27.0284 21.3447 27.0949 21.3233 27.1504 21.2803C27.1753 21.2611 27.561 20.9606 28.0807 20.4549C28.4248 20.5283 28.7229 20.6358 28.9315 20.7628C29.1088 20.8708 29.2147 20.9892 29.2147 21.0794C29.2146 21.3291 28.4194 21.8151 26.9618 21.8151Z" fill="black"/>
<path d="M26.9619 13.2368C25.9739 13.2368 25.17 14.0406 25.17 15.0288C25.17 16.0168 25.9739 16.8206 26.9619 16.8206C27.95 16.8206 28.7538 16.0168 28.7538 15.0288C28.7538 14.0407 27.95 13.2368 26.9619 13.2368ZM26.962 16.2047C26.3134 16.2047 25.7859 15.6772 25.7859 15.0287C25.7859 14.3803 26.3135 13.8527 26.962 13.8527C27.6104 13.8527 28.138 14.3802 28.138 15.0287C28.138 15.6772 27.6104 16.2047 26.962 16.2047Z" fill="black"/>
<path d="M22.9674 20.7715H22.8268C22.7244 20.7715 22.6215 20.7783 22.5209 20.7917C22.3524 20.8141 22.2339 20.9689 22.2563 21.1376C22.2769 21.2924 22.4091 21.4049 22.5611 21.4049C22.5747 21.4049 22.5884 21.4041 22.6021 21.4022C22.6759 21.3924 22.7515 21.3875 22.8268 21.3875H22.9674V21.3874C23.1375 21.3874 23.2753 21.2496 23.2753 21.0795C23.2753 20.9093 23.1375 20.7715 22.9674 20.7715Z" fill="black"/>
<path d="M21.9494 30.0107C21.9489 30.0107 21.9484 30.0107 21.9479 30.0107L21.5412 30.0126C21.3712 30.0134 21.2339 30.1519 21.2347 30.3219C21.2354 30.4915 21.3732 30.6285 21.5426 30.6285C21.5431 30.6285 21.5435 30.6285 21.544 30.6285L21.9507 30.6266C22.1208 30.6259 22.258 30.4873 22.2573 30.3173C22.2565 30.1477 22.1188 30.0107 21.9494 30.0107Z" fill="black"/>
<path d="M23.3328 24.7603H22.9261C22.756 24.7603 22.6182 24.8981 22.6182 25.0682C22.6182 25.2383 22.756 25.3761 22.9261 25.3761H23.3328C23.5029 25.3761 23.6408 25.2383 23.6408 25.0682C23.6408 24.8981 23.503 24.7603 23.3328 24.7603Z" fill="black"/>
<path d="M21.7011 21.3989C21.5858 21.274 21.3911 21.2661 21.266 21.3814C21.1512 21.4872 21.0467 21.6052 20.9556 21.7321C20.8564 21.8703 20.888 22.0627 21.0261 22.1619C21.0805 22.201 21.1433 22.2198 21.2055 22.2198C21.3013 22.2198 21.3957 22.1752 21.4559 22.0914C21.5227 21.9984 21.5994 21.9117 21.6836 21.834C21.8086 21.7187 21.8164 21.5239 21.7011 21.3989Z" fill="black"/>
<path d="M23.5763 30.0029C23.5758 30.0029 23.5754 30.0029 23.5749 30.0029L23.1682 30.0048C22.9981 30.0055 22.8609 30.1441 22.8616 30.3141C22.8624 30.4837 23.0001 30.6207 23.1695 30.6207C23.17 30.6207 23.1705 30.6207 23.171 30.6207L23.5776 30.6188C23.7477 30.6181 23.8849 30.4795 23.8842 30.3095C23.8834 30.1399 23.7457 30.0029 23.5763 30.0029Z" fill="black"/>
<path d="M20.3225 30.0181C20.322 30.0181 20.3216 30.0181 20.3211 30.0181L19.9143 30.0199C19.7443 30.0207 19.6071 30.1592 19.6078 30.3293C19.6086 30.4989 19.7462 30.6358 19.9157 30.6358C19.9162 30.6358 19.9166 30.6358 19.9171 30.6358L20.3238 30.634C20.4939 30.6332 20.6311 30.4947 20.6304 30.3246C20.6297 30.155 20.4919 30.0181 20.3225 30.0181Z" fill="black"/>
<path d="M21.9286 24.5014C21.8318 24.4403 21.7408 24.369 21.6582 24.2896C21.5356 24.1717 21.3406 24.1756 21.2227 24.298C21.1048 24.4206 21.1086 24.6155 21.2312 24.7334C21.3439 24.8418 21.468 24.939 21.6 25.0223C21.651 25.0544 21.7078 25.0698 21.764 25.0698C21.8662 25.0698 21.9661 25.019 22.0248 24.9261C22.1155 24.7823 22.0724 24.5921 21.9286 24.5014Z" fill="black"/>
<path d="M21.1716 23.3983C21.1509 23.2922 21.1404 23.183 21.1404 23.0737L21.1405 23.0566C21.1425 22.8866 21.0063 22.7471 20.8362 22.7452C20.835 22.7451 20.8338 22.7451 20.8325 22.7451C20.6641 22.7451 20.5266 22.8806 20.5247 23.0495L20.5245 23.0738C20.5245 23.2225 20.5389 23.3713 20.5671 23.5162C20.5957 23.6632 20.7246 23.7652 20.869 23.7652C20.8885 23.7652 20.9083 23.7634 20.9282 23.7595C21.0952 23.727 21.2041 23.5653 21.1716 23.3983Z" fill="black"/>
<path d="M24.9598 24.7603H24.5531C24.383 24.7603 24.2451 24.8981 24.2451 25.0682C24.2451 25.2383 24.383 25.3761 24.5531 25.3761H24.9598C25.1299 25.3761 25.2677 25.2383 25.2677 25.0682C25.2677 24.8981 25.1299 24.7603 24.9598 24.7603Z" fill="black"/>
<path d="M29.9038 25.3872C29.7852 25.2935 29.6584 25.2085 29.5268 25.1344C29.3788 25.0509 29.1909 25.1034 29.1074 25.2516C29.0239 25.3997 29.0763 25.5876 29.2245 25.671C29.3283 25.7295 29.4285 25.7966 29.5221 25.8706C29.5787 25.9153 29.6459 25.9369 29.7127 25.9369C29.8037 25.9369 29.8939 25.8967 29.9546 25.8197C30.0601 25.6862 30.0373 25.4926 29.9038 25.3872Z" fill="black"/>
<path d="M28.7608 30.2239C28.7374 30.0554 28.5817 29.9375 28.4136 29.961C28.3127 29.9749 28.2095 29.9823 28.1065 29.9827L28.0488 29.983C27.8787 29.9838 27.7416 30.1224 27.7424 30.2924C27.7432 30.462 27.8809 30.5989 28.0503 30.5989C28.0508 30.5989 28.0513 30.5989 28.0518 30.5989L28.1093 30.5986C28.2394 30.598 28.3701 30.5888 28.4979 30.5711C28.6664 30.5478 28.7841 30.3923 28.7608 30.2239Z" fill="black"/>
<path d="M30.1198 29.3578C30.0025 29.2346 29.8075 29.2299 29.6845 29.3472C29.5981 29.4295 29.5046 29.5057 29.4065 29.5737C29.2667 29.6706 29.232 29.8625 29.3288 30.0023C29.3887 30.0886 29.4846 30.1348 29.5822 30.1348C29.6427 30.1348 29.7039 30.117 29.7574 30.08C29.8815 29.9939 29.9999 29.8974 30.1093 29.7932C30.2325 29.6758 30.2371 29.4809 30.1198 29.3578Z" fill="black"/>
<path d="M30.7192 27.8623C30.5523 27.8308 30.3911 27.9408 30.3596 28.1079C30.3375 28.2251 30.3061 28.3414 30.2661 28.4536C30.209 28.6138 30.2925 28.7899 30.4527 28.8471C30.4869 28.8592 30.5218 28.865 30.5562 28.865C30.6827 28.865 30.8013 28.7864 30.8462 28.6604C30.897 28.5181 30.9369 28.3706 30.9649 28.2219C30.9963 28.0548 30.8863 27.8937 30.7192 27.8623Z" fill="black"/>
<path d="M30.9021 26.8723C30.8604 26.7269 30.8068 26.5837 30.7427 26.4464C30.6708 26.2922 30.4877 26.2256 30.3334 26.2975C30.1793 26.3694 30.1127 26.5526 30.1846 26.7068C30.235 26.8149 30.2773 26.9277 30.3101 27.0422C30.3489 27.1772 30.4721 27.2653 30.606 27.2653C30.6342 27.2653 30.6627 27.2614 30.6911 27.2532C30.8545 27.2063 30.949 27.0357 30.9021 26.8723Z" fill="black"/>
<path d="M26.5867 24.7603H26.18C26.0099 24.7603 25.8721 24.8981 25.8721 25.0682C25.8721 25.2383 26.0099 25.3761 26.18 25.3761H26.5867C26.7568 25.3761 26.8947 25.2383 26.8947 25.0682C26.8947 24.8981 26.7568 24.7603 26.5867 24.7603Z" fill="black"/>
<path d="M25.2032 29.9956C25.2027 29.9956 25.2023 29.9956 25.2018 29.9956L24.7951 29.9975C24.625 29.9982 24.4878 30.1367 24.4885 30.3068C24.4893 30.4764 24.627 30.6133 24.7964 30.6133C24.7969 30.6133 24.7974 30.6133 24.7979 30.6133L25.2046 30.6115C25.3746 30.6107 25.5119 30.4722 25.5111 30.3022C25.5104 30.1326 25.3726 29.9956 25.2032 29.9956Z" fill="black"/>
<path d="M28.2272 24.7632C28.1836 24.7612 28.1395 24.7603 28.0961 24.7603H27.8069C27.6368 24.7603 27.499 24.8981 27.499 25.0682C27.499 25.2383 27.6368 25.3761 27.8069 25.3761H28.0961V25.3761C28.1309 25.3761 28.1656 25.3769 28.2 25.3784C28.2046 25.3786 28.2092 25.3787 28.2138 25.3787C28.3776 25.3787 28.5139 25.2497 28.5212 25.0844C28.5287 24.9145 28.3971 24.7707 28.2272 24.7632Z" fill="black"/>
<path d="M26.8301 29.9883C26.8296 29.9883 26.8292 29.9883 26.8287 29.9883L26.422 29.9901C26.2519 29.9909 26.1147 30.1294 26.1154 30.2995C26.1162 30.4691 26.2539 30.606 26.4233 30.606C26.4238 30.606 26.4243 30.606 26.4248 30.606L26.8315 30.6042C27.0015 30.6034 27.1388 30.4649 27.138 30.2948C27.1373 30.1252 26.9996 29.9883 26.8301 29.9883Z" fill="black"/>
</g>
<defs>
<clipPath id="clip0">
<rect width="21" height="21" fill="white" transform="translate(10 11)"/>
</clipPath>
</defs>
</svg>
