<svg width="43" height="43" viewBox="0 0 43 43" fill="none" xmlns="http://www.w3.org/2000/svg">
<circle cx="21.5" cy="21.5" r="21" stroke="black"/>
<g clip-path="url(#clip0)">
<path d="M16.9049 22.1258C17.1843 22.0574 17.3797 21.7991 17.3697 21.5116C17.3528 21.0308 17.3433 20.7066 17.3441 20.6443C17.3569 19.6739 17.5333 18.6652 17.7105 17.7134C18.0279 16.0087 18.356 14.2458 17.6997 12.4985C17.3614 11.5979 16.7861 10.8648 16.0798 10.4341C15.2776 9.94497 14.367 9.86754 13.4464 10.2102C12.3652 10.6126 11.463 11.3819 10.8374 12.4349C10.2878 13.3599 9.95374 14.4869 9.87129 15.6941C9.82526 16.3683 9.85788 17.0046 9.97109 17.6396C10.0052 17.8306 10.1877 17.9577 10.3786 17.9238C10.5696 17.8897 10.6969 17.7072 10.6628 17.5162C10.5598 16.9385 10.5302 16.3581 10.5723 15.7421C10.7352 13.3568 11.9013 11.535 13.6915 10.8687C15.2946 10.272 16.5295 11.3815 17.0419 12.7457C17.803 14.7717 17.0778 16.9284 16.7844 18.9629C16.7044 19.5169 16.6488 20.075 16.6414 20.6351C16.6405 20.7086 16.6483 20.9864 16.6648 21.4614C15.8187 21.6727 13.4018 22.3385 12.5417 22.5762C12.2891 21.9416 12.0421 21.3643 11.8232 20.8527C11.5328 20.1741 11.282 19.588 11.0772 19.0167C11.0117 18.8341 10.8106 18.7391 10.6279 18.8046C10.4453 18.8701 10.3503 19.0712 10.4158 19.2538C10.6277 19.845 10.8823 20.4401 11.1772 21.1291C11.4142 21.683 11.6593 22.2558 11.9189 22.9118C12.0132 23.1498 12.2408 23.2978 12.4857 23.2978C12.5397 23.2978 12.5947 23.2906 12.6492 23.2755C13.4491 23.0543 16.1199 22.3178 16.9049 22.1258Z" fill="black"/>
<path d="M17.8927 23.7545C17.8921 23.7507 17.8914 23.7469 17.8908 23.7432C17.8606 23.5784 17.7626 23.4318 17.622 23.3407C17.4815 23.2496 17.3075 23.2202 17.1449 23.26L12.978 24.2795C12.809 24.3208 12.6653 24.4327 12.5837 24.5863C12.5041 24.7361 12.4906 24.9127 12.546 25.0726L13.325 27.646C13.3271 27.6527 13.3293 27.6595 13.3318 27.6661C13.7145 28.7003 14.6833 29.3474 15.7358 29.3473C15.9573 29.3473 16.1827 29.3187 16.4069 29.2589C17.034 29.0918 17.5706 28.6977 17.9179 28.1494C18.264 27.6028 18.3911 26.9516 18.276 26.315L17.8927 23.7545ZM16.226 28.58C15.2917 28.829 14.3342 28.3356 13.9943 27.4318L13.2396 24.9389L17.2139 23.9665L17.5818 26.4246C17.5824 26.4284 17.583 26.4321 17.5837 26.4359C17.7584 27.3888 17.162 28.3305 16.226 28.58Z" fill="black"/>
<path d="M25.297 15.0721C24.4037 14.6637 23.4898 14.675 22.6543 15.1047C21.9187 15.4831 21.2918 16.1727 20.8891 17.0464C20.1079 18.7416 20.3075 20.5236 20.5006 22.2469C20.6101 23.2248 20.7122 24.2112 20.6538 25.1965C20.6501 25.2589 20.6171 25.5816 20.5654 26.0597C20.5346 26.3458 20.7109 26.6176 20.9846 26.7059C21.7529 26.954 24.3638 27.8822 25.1457 28.1608C25.2135 28.185 25.283 28.1965 25.3513 28.1965C25.5797 28.1965 25.796 28.0677 25.9005 27.851C26.207 27.2154 26.493 26.6619 26.7695 26.1265C27.749 24.2305 28.4567 22.8606 28.4655 20.8007C28.4706 19.6304 28.2048 18.452 27.7171 17.4827C27.1596 16.3747 26.3228 15.5411 25.297 15.0721ZM26.1453 25.804C25.8898 26.2985 25.6016 26.8564 25.3037 27.4711C24.4628 27.1717 22.1002 26.3325 21.2721 26.0606C21.3229 25.588 21.3509 25.3115 21.3552 25.2381C21.4159 24.214 21.3128 23.1851 21.1989 22.1687C21.0082 20.4661 20.828 18.8579 21.5273 17.3405C22.1372 16.017 23.4491 15.0001 25.0049 15.7111C25.8838 16.113 26.6046 16.8347 27.0895 17.7985C27.5283 18.6708 27.7675 19.7359 27.7629 20.7977C27.7548 22.6884 27.1145 23.9278 26.1453 25.804Z" fill="black"/>
<path d="M24.7451 29.1386L22.9237 28.5502C22.7388 28.4906 22.541 28.592 22.4814 28.7766C22.4217 28.9612 22.523 29.1592 22.7077 29.2189L24.4364 29.7773L23.5031 32.209C23.0985 33.0858 22.1078 33.5085 21.1941 33.1925C20.2786 32.8759 19.7519 31.8934 19.9951 30.9557C19.9961 30.952 19.997 30.9483 19.9979 30.9445L20.543 28.5195L21.1461 28.7144C21.3309 28.774 21.5288 28.6727 21.5885 28.4881C21.6481 28.3034 21.5468 28.1054 21.3621 28.0458L20.663 27.8199C20.5036 27.7685 20.328 27.7851 20.1812 27.8658C20.0344 27.9464 19.9261 28.0857 19.884 28.2478C19.8831 28.2515 19.8822 28.2552 19.8813 28.2589L19.3135 30.785C19.1526 31.4115 19.2321 32.0702 19.5378 32.6405C19.8444 33.2125 20.3511 33.6443 20.9644 33.8564C21.2454 33.9536 21.5315 34 21.8129 34C22.7947 33.9999 23.7171 33.4349 24.1468 32.4907C24.1497 32.4842 24.1525 32.4776 24.155 32.471L25.1185 29.9609C25.1853 29.8053 25.1846 29.6283 25.1161 29.4731C25.0459 29.3141 24.9106 29.1921 24.7451 29.1386Z" fill="black"/>
<path d="M25.3626 13.604C25.3802 13.8657 25.5547 14.0804 25.8074 14.151C25.8634 14.1666 25.9199 14.1742 25.9754 14.1742C26.1702 14.1742 26.354 14.0808 26.4712 13.9137L27.8986 11.8794C28.0132 11.716 28.0407 11.5065 27.9721 11.319C27.9035 11.1315 27.7472 10.9893 27.5542 10.9385L25.9623 10.5199C25.7729 10.4702 25.5695 10.5148 25.4184 10.6396C25.2674 10.7644 25.185 10.9556 25.1981 11.1511L25.3626 13.604ZM27.2472 11.5844L26.0462 13.2961L25.9077 11.2322L27.2472 11.5844Z" fill="black"/>
<path d="M32.0923 13.9194L31.0926 11.7549C31.0067 11.569 30.8348 11.4393 30.6326 11.4077C30.4304 11.3762 30.2271 11.4474 30.0887 11.5982L27.4685 14.4541C27.2874 14.6514 27.2547 14.93 27.385 15.1639C27.4956 15.3622 27.695 15.4777 27.9134 15.4777C27.9527 15.4777 27.9926 15.4739 28.0327 15.4663L31.6526 14.7748C31.8384 14.7393 31.9945 14.6225 32.081 14.4543C32.1674 14.2861 32.1716 14.0911 32.0923 13.9194ZM28.1746 14.7238L30.5128 12.1753L31.4049 14.1068L28.1746 14.7238Z" fill="black"/>
</g>
<defs>
<clipPath id="clip0">
<rect width="24" height="24" fill="white" transform="translate(9 10)"/>
</clipPath>
</defs>
</svg>
