<svg xmlns="http://www.w3.org/2000/svg" width="66.429" height="51.667" viewBox="0 0 66.429 51.667">
  <path id="FontAwsome_capsules_" data-name="FontAwsome (capsules)" d="M64.042,62.92l-15.12-21.6a13.177,13.177,0,0,0-23.158,2.964A12.889,12.889,0,0,0,0,44.917V70.75a12.917,12.917,0,1,0,25.834,0v-17.2a13.365,13.365,0,0,0,1.476,2.883l15.131,21.6a13.183,13.183,0,1,0,21.6-15.12ZM18.453,57.834H7.381V44.917a5.536,5.536,0,0,1,11.072,0Zm22.466,5.178L33.353,52.206a5.805,5.805,0,1,1,9.515-6.654l7.566,10.806Z" transform="translate(0 -32)" fill="#ffdb26"/>
</svg>
