<svg xmlns="http://www.w3.org/2000/svg" width="52.596" height="40.863" viewBox="0 0 52.596 40.863">
  <g id="deliverry" transform="translate(0 -0.001)">
    <path id="Path_4091" data-name="Path 4091" d="M72.364,9.83,54.7.128a1.028,1.028,0,0,0-.989,0L47.062,3.776A1.03,1.03,0,0,0,46.653,4L36.038,9.83a1.028,1.028,0,0,0-.533.9v2.1H23.653a1.027,1.027,0,1,0,0,2.055H35.5v3.7H29.615a1.027,1.027,0,0,0,0,2.055H35.5v5.342H26.876a1.027,1.027,0,0,0,0,2.055H35.5v2.1a1.028,1.028,0,0,0,.533.9l17.669,9.7a1.027,1.027,0,0,0,.989,0l17.669-9.7a1.028,1.028,0,0,0,.533-.9v-4.6a1.027,1.027,0,1,0-2.055,0v3.992L55.228,38.1V21.04l4.966-2.727v4.327a1.027,1.027,0,0,0,1.522.9L65.5,21.457a1.027,1.027,0,0,0,.532-.9V15.106l4.808-2.64v4.85a1.027,1.027,0,0,0,2.055,0V10.73a1.028,1.028,0,0,0-.533-.9ZM53.173,38.1,37.559,29.527V12.467L53.173,21.04ZM54.2,19.26,38.666,10.73l4.882-2.681,15.535,8.53Zm7.017-3.853L45.683,6.877l1.684-.925L62.9,14.483ZM63.98,19.95l-1.731.953V17.186l1.731-.951Zm1.056-6.639L49.5,4.781,54.2,2.2l15.535,8.53Zm0,0" transform="translate(-20.301)" fill="#fff"/>
    <path id="Path_4092" data-name="Path 4092" d="M493.027,198.563a1.027,1.027,0,1,0,.726.3A1.03,1.03,0,0,0,493.027,198.563Zm0,0" transform="translate(-441.459 -178.164)" fill="#fff"/>
    <path id="Path_4093" data-name="Path 4093" d="M2.5,252.891H1.027a1.027,1.027,0,1,0,0,2.055H2.5a1.027,1.027,0,1,0,0-2.055Zm0,0" transform="translate(0 -226.912)" fill="#fff"/>
    <path id="Path_4094" data-name="Path 4094" d="M42.726,181.918a1.028,1.028,0,1,0-.3.726A1.033,1.033,0,0,0,42.726,181.918Zm0,0" transform="translate(-36.494 -162.308)" fill="#fff"/>
  </g>
</svg>
