<svg xmlns="http://www.w3.org/2000/svg" width="54.213" height="102.616" viewBox="0 0 54.213 102.616">
  <g id="Group_1552" data-name="Group 1552" transform="translate(-5 -7217)">
    <path id="hexagon" d="M20.3,39.559a4.883,4.883,0,0,1-2.6-.692L5.6,31.946a5.163,5.163,0,0,1-2.6-4.5V13.606a5.163,5.163,0,0,1,2.6-4.5L17.707,2.186a5.515,5.515,0,0,1,5.191,0L35.009,9.107a5.163,5.163,0,0,1,2.6,4.5V27.447h0a5.163,5.163,0,0,1-2.6,4.5L22.9,38.867A4.883,4.883,0,0,1,20.3,39.559Zm0-34.6a1.56,1.56,0,0,0-.865.173L7.325,12.048a1.817,1.817,0,0,0-.865,1.557V27.447A1.817,1.817,0,0,0,7.325,29l12.111,6.921a1.572,1.572,0,0,0,1.73,0L33.278,29a1.817,1.817,0,0,0,.865-1.557V13.606a1.817,1.817,0,0,0-.865-1.557L21.167,5.128A1.56,1.56,0,0,0,20.3,4.955ZM35.874,27.447Z" transform="translate(19.302 7215.462)" fill="#ffdb26"/>
    <path id="hexagon-2" data-name="hexagon" d="M20.3,39.559a4.883,4.883,0,0,1-2.6-.692L5.6,31.946a5.163,5.163,0,0,1-2.6-4.5V13.606a5.163,5.163,0,0,1,2.6-4.5L17.707,2.186a5.515,5.515,0,0,1,5.191,0L35.009,9.107a5.163,5.163,0,0,1,2.6,4.5V27.447h0a5.163,5.163,0,0,1-2.6,4.5L22.9,38.867A4.883,4.883,0,0,1,20.3,39.559Zm0-34.6a1.56,1.56,0,0,0-.865.173L7.325,12.048a1.817,1.817,0,0,0-.865,1.557V27.447A1.817,1.817,0,0,0,7.325,29l12.111,6.921a1.572,1.572,0,0,0,1.73,0L33.278,29a1.817,1.817,0,0,0,.865-1.557V13.606a1.817,1.817,0,0,0-.865-1.557L21.167,5.128A1.56,1.56,0,0,0,20.3,4.955ZM35.874,27.447Z" transform="translate(2 7247.759)" fill="#ffdb26"/>
    <path id="hexagon-3" data-name="hexagon" d="M20.3,39.559a4.883,4.883,0,0,1-2.6-.692L5.6,31.946a5.163,5.163,0,0,1-2.6-4.5V13.606a5.163,5.163,0,0,1,2.6-4.5L17.707,2.186a5.515,5.515,0,0,1,5.191,0L35.009,9.107a5.163,5.163,0,0,1,2.6,4.5V27.447h0a5.163,5.163,0,0,1-2.6,4.5L22.9,38.867A4.883,4.883,0,0,1,20.3,39.559Zm0-34.6a1.56,1.56,0,0,0-.865.173L7.325,12.048a1.817,1.817,0,0,0-.865,1.557V27.447A1.817,1.817,0,0,0,7.325,29l12.111,6.921a1.572,1.572,0,0,0,1.73,0L33.278,29a1.817,1.817,0,0,0,.865-1.557V13.606a1.817,1.817,0,0,0-.865-1.557L21.167,5.128A1.56,1.56,0,0,0,20.3,4.955ZM35.874,27.447Z" transform="translate(21.609 7280.057)" fill="#ffdb26"/>
  </g>
</svg>
