<?xml version="1.0" encoding="utf-8"?>
<!-- Generator: Adobe Illustrator 24.2.0, SVG Export Plug-In . SVG Version: 6.00 Build 0)  -->
<svg version="1.1" id="Warstwa_1" xmlns="http://www.w3.org/2000/svg" xmlns:xlink="http://www.w3.org/1999/xlink" x="0px" y="0px"
	 viewBox="0 0 69 66.4" style="enable-background:new 0 0 69 66.4;" xml:space="preserve">
<style type="text/css">
	.st0{fill:#FFDB26;}
</style>
<g id="Group_1554" transform="matrix(0.819, 0.574, -0.574, 0.819, -801.989, -892.709)">
	<g id="Group_1423" transform="translate(1199.528 249.878)">
		<path id="Path_2645" class="st0" d="M42.6,5.5c-5.9-5.9-15.4-5.9-21.3,0c-5.9,5.9-5.9,15.4,0,21.3c1.4,1.4,3.1,2.5,5,3.3
			c-0.5,0.7-1.1,1.4-1.8,1.9c-2.1,1.6-4.1,3.5-5.7,5.6c-0.2-1.1-0.5-2.3-1-3.3c-1.8-4.5-5.8-7.9-10.6-9l-1.7-0.4
			c0-0.1-0.1-0.3-0.1-0.4c-2-8.5-9-14.8-17.7-15.9c-0.8-0.1-1.6,0.5-1.7,1.3c-0.1,0.8,0.5,1.6,1.3,1.7C-5.2,12.4,0.9,17.8,2.5,25
			c0.8,3.3,1.5,6.2,2.3,8.5c0.3,0.8,1.1,1.2,1.9,1c0.8-0.3,1.2-1.1,1-1.9l0,0c-0.4-1.3-0.9-2.8-1.3-4.5l0.2,0.1
			c3.8,0.9,7,3.6,8.5,7.3c1.5,3.5,1.2,7.6-0.9,10.8c-0.1,0.1-0.1,0.2-0.2,0.3c-0.5,0.7-0.3,1.6,0.4,2.1c0.7,0.5,1.6,0.3,2.1-0.4
			c0.1-0.1,0.2-0.2,0.2-0.4c0.8-1.3,1.4-2.7,1.8-4.2c1.8-3.6,4.5-6.8,7.7-9.1c1.2-1,2.3-2.2,3.1-3.5c1.8,0.3,3.7,0.3,5.6-0.1
			c-1.3,4.5-2.3,8.5-3.1,11.8c-1.9,7.7-7,17.6-11.5,20c-0.7,0.5-1.6,0.6-2.5,0.4C-3.9,53-8.3,42.7-9.1,38.7
			c-0.2-0.7-0.9-1.2-1.6-1.2c-7.7-2-12.6-9.6-11-17.5c0.2-0.8-0.4-1.6-1.2-1.8c-0.8-0.2-1.6,0.4-1.8,1.2
			c-1.9,9.3,3.8,18.4,12.9,20.9c1.2,3.8,3.3,7.2,6,10.1c5,5.6,12.6,10.7,22.4,15.3c0,0,0.1,0,0.1,0c0.6,0.2,1.2,0.3,1.8,0.3
			c1.1,0,2.2-0.3,3.1-0.9c3.3-1.8,6.1-6,7.9-9.2c2.2-4,3.9-8.3,5.1-12.7c0.9-3.7,2.2-8.3,3.6-13.6c7.5-3.6,10.7-12.5,7.1-20.1
			C44.8,8.1,43.8,6.7,42.6,5.5L42.6,5.5z M32,28.1c-6.6,0-12-5.4-12-12c0-6.6,5.4-12,12-12c6.6,0,12,5.4,12,12
			c0,3.2-1.3,6.2-3.5,8.5C38.2,26.9,35.2,28.2,32,28.1z"/>
	</g>
	<path id="Path_2646" class="st0" d="M1227,263.1c-2,2-2,5.3,0,7.3s5.3,2,7.3,0s2-5.3,0-7.3c0,0,0,0,0,0
		C1232.3,261.1,1229,261.1,1227,263.1z M1231.6,267.6c-0.5,0.5-1.3,0.5-1.7,0c-0.5-0.5-0.5-1.3,0-1.7c0.5-0.5,1.3-0.5,1.7,0
		C1232,266.4,1232,267.1,1231.6,267.6z"/>
	<path id="Path_2647" class="st0" d="M1236.9,260.6c-5.6-5.6-14.6-5.6-20.2,0c-5.6,5.6-5.6,14.6,0,20.2c5.6,5.6,14.6,5.6,20.2,0
		C1242.4,275.3,1242.4,266.2,1236.9,260.6L1236.9,260.6z M1234.1,278c-4,4-10.6,4-14.6,0c-4-4-4-10.6,0-14.6c4-4,10.6-4,14.6,0
		C1238.1,267.5,1238.1,274,1234.1,278z"/>
</g>
</svg>
