<?xml version="1.0" encoding="utf-8"?>
<!-- Generator: Adobe Illustrator 24.2.0, SVG Export Plug-In . SVG Version: 6.00 Build 0)  -->
<svg version="1.1" id="Warstwa_1" xmlns="http://www.w3.org/2000/svg" xmlns:xlink="http://www.w3.org/1999/xlink" x="0px" y="0px"
	 viewBox="0 0 53 52.9" style="enable-background:new 0 0 53 52.9;" xml:space="preserve">
<style type="text/css">
	.st0{fill:#B20404;}
</style>
<g id="Group_1491" transform="translate(1184.523 4160.128)">
	<g id="Group_1478_1_" transform="translate(-1184.523 -4160.128)">
		<path id="Path_4067_1_" class="st0" d="M52.3,34.1C52,33.6,51.5,32.9,51,32c-6-10.1-8.4-13.5-9.8-13.9c-2-0.4-4-0.6-6-0.5h-5
			c3.1-1.9,4.5-4.8,4.5-9.1V8c0-0.5,0-1-0.1-1.5c-0.7-3.8-4-6.5-8-6.5h-0.4c-4.5,0.1-8,3.9-7.8,8.3c0,4.2,1.5,7.2,4.6,9.2h-5.2
			c-2-0.1-4,0.1-6,0.5c-1.3,0.4-3.5,3.5-9.4,13.2c-0.8,1.3-1.3,2.2-1.7,2.8C-0.7,36.2,0,40.3,2,42.1l4.8,4.2l0,0
			c0.2,0.2,0.4,0.3,0.7,0.3s0.6-0.1,0.7-0.2c0.4-0.5,0.3-1.1-0.1-1.5l-1.3-1.2l-3.5-3c-1.3-1.2-1.8-4.1-0.9-5.5
			c0.4-0.6,1-1.6,1.7-2.8c2.1-3.4,7-11.5,8.3-12.3c0.2,0,0.3-0.1,0.5-0.1c1.6-0.3,3.3-0.4,4.9-0.3h17.4c1.6-0.1,3.2,0.1,4.8,0.3
			c0.2,0,0.4,0.1,0.7,0.1c1.4,0.8,6.9,10,8.7,13c0.6,0.9,1,1.6,1.3,2.1c0.7,1.9,0.4,4-1,5.5l-3.3,2.8l-1.4,1.2
			c-0.2,0.2-0.4,0.5-0.4,0.8c0,0.2,0.1,0.5,0.3,0.7c0.3,0.4,1,0.5,1.4,0.1l0.1,0l4.6-4C53,40.5,53.7,36.4,52.3,34.1z M26.6,1.5
			c2.9,0,5.4,2.1,6.3,5H20.2C21.1,3.6,23.6,1.5,26.6,1.5z M19.8,9c0-0.2,0-0.3,0-0.5h13.4c0,0.2,0,0.3,0,0.5c0,4.1-3,7.5-6.7,7.5
			C22.8,16.5,19.8,13.1,19.8,9z"/>
	</g>
	<g id="Group_1479_1_" transform="translate(-1177.762 -4153.722)">
		<path id="Path_4068_1_" class="st0" d="M37,32.4h-2.6c0,0-0.1,0-0.1,0c-1.9,0.1-3.5,1.6-3.5,3.6v3.1c0,2,1.6,3.6,3.6,3.6H37
			c1.4,0,2.5-1.1,2.5-2.4v-5.4C39.5,33.5,38.4,32.4,37,32.4z M37.4,40.3c0,0.2-0.2,0.4-0.4,0.4h-2.6c-0.8,0-1.5-0.7-1.5-1.5V36
			c0-0.8,0.7-1.5,1.5-1.5H37c0.2,0,0.4,0.2,0.4,0.4V40.3z M5.2,32.3H2.5c-1.4,0-2.5,1.1-2.5,2.5v5.4c0,1.4,1.1,2.5,2.5,2.5h2.6
			c0.1,0,0.1,0,0.2,0c1.9-0.1,3.4-1.5,3.4-3.6v-3.2C8.7,33.9,7.1,32.3,5.2,32.3z M6.6,39.2c0,0.8-0.7,1.5-1.5,1.5H2.5
			c-0.2,0-0.4-0.2-0.4-0.4v-5.4c0-0.2,0.2-0.4,0.4-0.4h2.6c0.8,0,1.5,0.7,1.5,1.5V39.2z M31.7,0.1H13.1c-0.5,0-1,0.4-1,1
			c0,0.5,0.4,1,1,1h18.6c0.6,0,1.1-0.5,1-1C32.7,0.6,32.3,0.1,31.7,0.1z"/>
	</g>
	<path id="Path_4069_1_" class="st0" d="M-1173.6-4107.3h31.2c0.6,0,1-0.5,1-1l0,0v-2.9c0-0.6-0.5-1-1-1l0,0c-0.6,0-1,0.5-1,1l0,0
		v1.8h-29.1v-2.1c0-0.6-0.5-1-1-1l0,0c-0.6,0-1,0.5-1,1l0,0v3.1C-1174.6-4107.7-1174.2-4107.3-1173.6-4107.3L-1173.6-4107.3z"/>
	<path id="Path_4070_1_" class="st0" d="M-1142.5-4136.1h-31.2c-0.6,0-1,0.5-1,1v14.2c0.1,0.6,0.5,1,1.1,1s1-0.5,1-1v-13.2h9.3v4.9
		c0,0.6,0.5,1,1,1h8.5c0.6,0,1-0.5,1-1v-4.9h9.3v12.8c0,0.6,0.5,1,1,1c0.6,0,1-0.5,1-1v-13.8
		C-1141.5-4135.7-1142-4136.1-1142.5-4136.1z M-1154.8-4130.2h-6.5v-3.9h6.5V-4130.2z"/>
</g>
<path class="st0" d="M33.3,8.5H19.9c0-0.7,0.2-1.4,0.4-2h12.7C33.1,7.1,33.2,7.8,33.3,8.5z"/>
</svg>
