<svg width="67" height="67" viewBox="0 0 67 67" fill="none" xmlns="http://www.w3.org/2000/svg">
<path d="M30.0134 31.4634H32.7468V32.8304H30.0134V31.4634Z" fill="white"/>
<path d="M53.3452 29.4203L48.7032 28.7573C47.8567 28.2374 46.9783 27.7719 46.0726 27.3634C43.0817 26.0086 39.8356 25.3096 36.5518 25.3132H35.7454C31.8703 25.316 28.0571 26.2884 24.6536 28.1417L22.3109 29.4197C19.5685 29.4506 16.8791 30.1799 14.4966 31.538C13.5283 32.0933 12.9305 33.1236 12.9288 34.2395V38.2973C12.9288 38.6749 13.2347 38.9808 13.6123 38.9808H15.9069C16.6533 41.11 18.9843 42.2311 21.1135 41.4848C22.2856 41.0741 23.2068 40.1526 23.6175 38.9808H41.8755C42.6218 41.11 44.9528 42.2311 47.082 41.4848C48.2538 41.0741 49.1753 40.1526 49.586 38.9808H49.8313C49.9183 38.9808 50.0045 38.9644 50.0854 38.9321L52.2989 38.044C53.2877 37.6525 53.9353 36.6954 53.9317 35.6323V30.0968C53.9317 29.757 53.6817 29.4686 53.3452 29.4203ZM22.4407 38.1608C22.1385 39.6398 20.6944 40.5939 19.2154 40.2916C17.7361 39.9893 16.782 38.5453 17.0843 37.066C17.3868 35.587 18.8308 34.6329 20.3099 34.9352C21.5826 35.1952 22.4963 36.315 22.496 37.6141C22.496 37.7976 22.4774 37.9809 22.4407 38.1608ZM34.797 37.6141H23.8628C23.8628 35.3495 22.0272 33.5137 19.7626 33.5137C17.4981 33.5137 15.6622 35.3495 15.6622 37.6141H14.2955V34.2395C14.2964 33.6135 14.6317 33.0354 15.1751 32.7245C17.4052 31.4513 19.9284 30.7811 22.496 30.7803H34.797V37.6141ZM34.797 29.4136H25.1763L25.3082 29.3416C28.2298 27.7538 31.4752 26.8537 34.797 26.7099V29.4136ZM36.1637 26.6799H36.5505C39.3044 26.6768 42.0334 27.1996 44.5914 28.2204L43.3982 29.4136H36.1637V26.6799ZM48.4092 38.1608C48.107 39.6398 46.663 40.5939 45.1836 40.2916C43.7046 39.9893 42.7505 38.5453 43.0528 37.066C43.3551 35.587 44.7993 34.6329 46.2784 34.9352C47.5511 35.1952 48.4648 36.315 48.4646 37.6141C48.4646 37.7976 48.4459 37.9809 48.4092 38.1608ZM52.565 31.4635H50.5148V32.8305H52.565V35.6323C52.5666 36.1359 52.2596 36.5891 51.7914 36.774L49.8313 37.5613C49.8313 37.4984 49.8232 37.4361 49.819 37.3733C49.8149 37.3104 49.8135 37.2367 49.8068 37.1683C49.7999 37.0999 49.7862 37.0315 49.7754 36.9634C49.7643 36.895 49.7562 36.8266 49.7426 36.7646C49.7289 36.7023 49.7089 36.6333 49.6911 36.5683C49.6733 36.5035 49.6597 36.4379 49.6391 36.3742C49.6188 36.3108 49.5941 36.2499 49.571 36.1876C49.5476 36.1256 49.5265 36.0614 49.5026 35.9996C49.4787 35.9382 49.4464 35.8823 49.4178 35.8242C49.3891 35.766 49.3611 35.7024 49.3291 35.6437C49.2968 35.585 49.2607 35.535 49.2298 35.4805C49.1992 35.4257 49.1617 35.3634 49.1228 35.3075C49.0835 35.2513 49.0474 35.2071 49.0099 35.1565C48.9723 35.1059 48.9298 35.0464 48.8861 34.9939C48.8425 34.9413 48.8016 34.9001 48.759 34.857C48.7168 34.8142 48.6695 34.7561 48.6225 34.7083C48.5752 34.6604 48.5288 34.6226 48.4818 34.5804C48.4345 34.5381 48.3839 34.488 48.3319 34.4436C48.2802 34.3993 48.2274 34.3651 48.1757 34.3262C48.1237 34.2873 48.0717 34.2456 48.0172 34.2091C47.9624 34.173 47.9009 34.141 47.8423 34.1026C47.7833 34.0643 47.7355 34.0342 47.6801 34.005C47.6248 33.9756 47.5558 33.9447 47.493 33.9147C47.4302 33.8846 47.3809 33.8579 47.3228 33.8335C47.2647 33.8087 47.186 33.7829 47.1179 33.7584C47.0495 33.7336 47.005 33.7145 46.9469 33.6961C46.869 33.6722 46.7892 33.655 46.7097 33.6352C46.6577 33.623 46.6079 33.6066 46.5554 33.5957C46.4714 33.5785 46.3852 33.569 46.2998 33.5565C46.2492 33.5498 46.2008 33.5387 46.1502 33.534C46.0134 33.5204 45.8769 33.5129 45.7334 33.5129C43.4696 33.5151 41.6352 35.3495 41.633 37.6133H36.1639V30.78H43.681C43.8623 30.78 44.0361 30.708 44.164 30.5798L45.9361 28.8077C46.6799 29.1616 47.4032 29.5573 48.1025 29.9928C48.1832 30.0431 48.2733 30.0762 48.3675 30.0898L52.565 30.6891V31.4635Z" fill="white"/>
<circle cx="33.5" cy="33.5" r="32.5" stroke="#FFBE00" stroke-width="2"/>
</svg>
