<svg width="102" height="27" viewBox="0 0 102 27" fill="none" xmlns="http://www.w3.org/2000/svg">
<g clip-path="url(#clip0)">
<path d="M17.9966 4.48312H20.4614V0.190125C20.0362 0.131625 18.5737 0 16.8705 0C13.3166 0 10.8821 2.23537 10.8821 6.34387V10.125H6.96033V14.9242H10.8821V27H15.6903V14.9254H19.4535L20.0508 10.1261H15.6892V6.81975C15.6903 5.43262 16.0638 4.48312 17.9966 4.48312Z" fill="#222222"/>
</g>
<g clip-path="url(#clip1)">
<path d="M65 8.36856C64.1447 8.74375 63.2333 8.99244 62.2831 9.11319C63.2606 8.52956 64.0067 7.61244 64.3574 6.507C63.4461 7.05037 62.4398 7.43419 61.3674 7.64838C60.5021 6.72694 59.2687 6.15625 57.9232 6.15625C55.3127 6.15625 53.2111 8.27513 53.2111 10.8727C53.2111 11.2464 53.2427 11.6058 53.3203 11.9479C49.4002 11.7567 45.9316 9.87794 43.6014 7.01588C43.1946 7.72169 42.9559 8.52956 42.9559 9.39925C42.9559 11.0322 43.7969 12.4798 45.0504 13.3179C44.2928 13.3035 43.5496 13.0836 42.92 12.7371C42.92 12.7515 42.92 12.7702 42.92 12.7889C42.92 15.0802 44.5544 16.9835 46.6977 17.4219C46.3139 17.5269 45.8956 17.5772 45.4615 17.5772C45.1596 17.5772 44.8549 17.5599 44.5688 17.4967C45.1797 19.364 46.9134 20.7368 48.9748 20.7814C47.3705 22.0363 45.3336 22.7924 43.1284 22.7924C42.7418 22.7924 42.3709 22.7752 42 22.7277C44.0887 24.0747 46.5641 24.8438 49.2335 24.8438C57.9102 24.8438 62.654 17.6562 62.654 11.4261C62.654 11.2177 62.6468 11.0164 62.6367 10.8166C63.5726 10.1525 64.3589 9.32306 65 8.36856Z" fill="#222222"/>
</g>
<path d="M92.9336 14C92.9336 15.0679 92.0678 15.9336 91 15.9336C89.9322 15.9336 89.0664 15.0679 89.0664 14C89.0664 12.9322 89.9322 12.0664 91 12.0664C92.0678 12.0664 92.9336 12.9322 92.9336 14Z" fill="#222222"/>
<path d="M94.2656 8.15625H87.7344C86.3127 8.15625 85.1562 9.31271 85.1562 10.7344V17.2656C85.1562 18.6873 86.3127 19.8438 87.7344 19.8438H94.2656C95.6873 19.8438 96.8438 18.6873 96.8438 17.2656V10.7344C96.8438 9.31271 95.6873 8.15625 94.2656 8.15625ZM91 17.2227C89.223 17.2227 87.7773 15.777 87.7773 14C87.7773 12.223 89.223 10.7773 91 10.7773C92.777 10.7773 94.2227 12.223 94.2227 14C94.2227 15.777 92.777 17.2227 91 17.2227ZM94.6953 10.9492C94.3393 10.9492 94.0508 10.6607 94.0508 10.3047C94.0508 9.94869 94.3393 9.66016 94.6953 9.66016C95.0513 9.66016 95.3398 9.94869 95.3398 10.3047C95.3398 10.6607 95.0513 10.9492 94.6953 10.9492Z" fill="#222222"/>
<path d="M96.1992 3H85.8008C82.6023 3 80 5.60229 80 8.80078V19.1992C80 22.3977 82.6023 25 85.8008 25H96.1992C99.3977 25 102 22.3977 102 19.1992V8.80078C102 5.60229 99.3977 3 96.1992 3ZM98.1328 17.2656C98.1328 19.3979 96.3979 21.1328 94.2656 21.1328H87.7344C85.6021 21.1328 83.8672 19.3979 83.8672 17.2656V10.7344C83.8672 8.60205 85.6021 6.86719 87.7344 6.86719H94.2656C96.3979 6.86719 98.1328 8.60205 98.1328 10.7344V17.2656Z" fill="#222222"/>
<defs>
<clipPath id="clip0">
<rect width="27" height="27" fill="white"/>
</clipPath>
<clipPath id="clip1">
<rect width="23" height="23" fill="white" transform="translate(42 4)"/>
</clipPath>
</defs>
</svg>
