<svg width="49" height="49" viewBox="0 0 49 49" fill="none" xmlns="http://www.w3.org/2000/svg">
<circle cx="24.5" cy="24.5" r="23" stroke="white" stroke-width="3"/>
<g clip-path="url(#clip0)">
<path d="M31.1373 13C30.2458 12.997 29.402 13.4031 28.8486 14.1022C28.2952 14.8011 28.0932 15.7155 28.3007 16.5826C27.097 15.8408 25.5555 15.9424 24.4596 16.8358L21.5944 19.1636L16.9287 16.9413L17.1404 16.5189C17.2432 16.3129 17.1596 16.0627 16.9537 15.9598C16.7477 15.857 16.4975 15.9405 16.3946 16.1465L16.1751 16.5826L14.8616 15.9577C14.726 15.8806 14.5588 15.8856 14.4281 15.9708C14.2975 16.0561 14.2254 16.2069 14.2413 16.3621C14.2571 16.5172 14.3582 16.6505 14.5035 16.7075L15.8023 17.3261L15.5593 17.8114C15.4565 18.0174 15.5401 18.2677 15.746 18.3705C15.952 18.4733 16.2022 18.3898 16.3051 18.1838L16.5549 17.684L20.8778 19.7445L20.1501 20.3356C19.8963 20.5429 19.6815 20.794 19.5164 21.077C18.9338 22.3045 19.3385 23.7736 20.4674 24.5295L24.425 27.064L20.3188 28.8899C19.6354 29.1842 19.2182 29.8834 19.2836 30.6245L14.0664 27.4431C13.9392 27.3638 13.7794 27.3589 13.6476 27.4302C13.5159 27.5015 13.4325 27.638 13.4293 27.7877C13.4262 27.9376 13.5037 28.0774 13.6324 28.1542L28.934 37.4856C30.1519 38.2347 31.7046 38.1603 32.8453 37.2982C33.0293 37.1601 33.0665 36.8989 32.9284 36.7148C32.7906 36.5308 32.5293 36.4935 32.3453 36.6315C31.4765 37.2871 30.295 37.3436 29.3676 36.774L21.5252 31.991C21.5523 31.9805 21.5814 31.9759 21.6085 31.9639L27.4681 29.3581C28.6254 28.8365 29.1582 27.4893 28.671 26.3171C28.4902 25.8829 28.1804 25.5145 27.7833 25.262L24.6541 23.0541L25.7372 22.5126L27.2023 23.5314L28.4937 24.4309C29.1254 24.8842 29.9824 24.8583 30.5858 24.3676L32.0021 25.0412C32.1365 25.1052 32.2948 25.0927 32.4174 25.0082C32.54 24.9239 32.6083 24.7805 32.5964 24.6321C32.5848 24.4836 32.4946 24.3528 32.3604 24.2889L31.0635 23.6714C31.1624 23.41 31.1929 23.1277 31.1523 22.8512C31.0825 22.3997 30.8312 21.9964 30.4565 21.7347L29.3459 20.9638L29.471 20.9374C29.9206 20.8402 30.2063 20.397 30.109 19.9474L29.8592 18.7954C29.8367 18.6913 29.8016 18.5917 29.77 18.4908C30.8417 19.0606 32.154 18.9069 33.0652 18.1053C33.9763 17.3034 34.2955 16.0212 33.8667 14.8858C33.438 13.7506 32.3508 12.9994 31.1373 13ZM29.9784 22.418C30.1663 22.5486 30.2921 22.7509 30.3264 22.9773C30.3606 23.2035 30.3003 23.434 30.1596 23.6144C29.8587 23.9616 29.3415 24.0196 28.971 23.7477L27.9595 23.0437L27.3489 22.6188L26.0084 21.6865H26.0063L25.6243 21.4207C25.451 21.3003 25.3297 21.1184 25.2853 20.9121L25.1257 20.1718C25.0786 19.9558 25.1194 19.7298 25.2391 19.5439C25.3587 19.3579 25.5473 19.2271 25.7633 19.1804L26.6087 18.9975C26.8335 18.9489 26.9765 18.7273 26.9279 18.5025C26.8795 18.2775 26.6577 18.1344 26.4329 18.1831L25.5877 18.3659C24.6888 18.5612 24.1175 19.447 24.3104 20.3463L24.4699 21.0869C24.5444 21.4233 24.7216 21.7281 24.9769 21.9594L24.1226 22.3871C24.0736 22.4117 24.0299 22.4454 23.9939 22.4866C23.8347 22.6707 23.7637 22.9147 23.7998 23.1554C23.8328 23.3884 23.9645 23.5961 24.1613 23.7252L27.3215 25.9555C27.5818 26.1184 27.7854 26.3577 27.9046 26.6409C28.2174 27.3943 27.8749 28.2601 27.131 28.5953L21.2698 31.2044C21.0606 31.2972 20.8227 31.3001 20.6114 31.2122C20.4001 31.1243 20.2344 30.9534 20.1529 30.7395C20.0116 30.3013 20.2315 29.8281 20.6575 29.6535L24.7637 27.8251C25.0435 27.7006 25.2323 27.4323 25.2553 27.1268C25.2784 26.8213 25.1319 26.5278 24.8739 26.3625L20.9165 23.8282C20.155 23.3089 19.873 22.3198 20.2462 21.4769C20.3595 21.2883 20.5048 21.1209 20.6758 20.9824L24.9849 17.4832C25.9777 16.672 27.4241 16.7464 28.3283 17.6552C28.6897 18.016 28.9389 18.4737 29.0461 18.9729L29.2959 20.1247L28.7048 20.2498C28.4613 20.3019 28.2717 20.4939 28.2229 20.7382C28.1741 20.9826 28.275 21.2326 28.4799 21.3745L29.9784 22.418ZM31.1373 17.9989C29.987 17.9989 29.0543 17.0664 29.0543 15.9161C29.0543 14.7656 29.987 13.8332 31.1373 13.8332C32.2875 13.8332 33.2202 14.7656 33.2202 15.9161C33.2187 17.0658 32.287 17.9975 31.1373 17.9989Z" fill="white"/>
<path d="M14.6825 24.664C14.8685 24.6642 15.0319 24.5412 15.0834 24.3625C15.1347 24.1838 15.0614 23.9928 14.9037 23.8942L11.5712 21.8112C11.3755 21.6894 11.1181 21.7491 10.9962 21.9445C10.8742 22.1402 10.9339 22.3976 11.1295 22.5195L14.4621 24.6024C14.5284 24.643 14.6047 24.6644 14.6825 24.664Z" fill="white"/>
<path d="M14.0452 22.518L17.3778 24.6009C17.5732 24.7228 17.8307 24.6631 17.9525 24.4676C18.0746 24.272 18.0149 24.0147 17.8192 23.8927L14.4867 21.8099C14.2912 21.6879 14.0338 21.7475 13.9117 21.9432C13.7899 22.1387 13.8496 22.3961 14.0452 22.518Z" fill="white"/>
</g>
<defs>
<clipPath id="clip0">
<rect width="25" height="25" fill="white" transform="translate(10 13)"/>
</clipPath>
</defs>
</svg>
