<svg width="164" height="164" viewBox="0 0 164 164" fill="none" xmlns="http://www.w3.org/2000/svg">
<g filter="url(#filter0_d)">
<circle cx="82" cy="78" r="78" fill="#6A9923"/>
</g>
<path d="M118.47 91.8806H115.339V56.1755C115.339 53.3416 113.033 51.0361 110.199 51.0361H50.801C47.967 51.0361 45.6616 53.3416 45.6616 56.1755V91.8806H42.5302C41.6851 91.8806 41 92.5655 41 93.4108V96.4146C41 100.577 44.3864 103.963 48.5488 103.963H112.451C116.614 103.963 120 100.577 120 96.4146V93.4108C120 92.5655 119.315 91.8806 118.47 91.8806ZM49.0619 56.1755C49.0619 55.2167 49.8422 54.4364 50.801 54.4364H110.199C111.158 54.4364 111.938 55.2165 111.938 56.1755V91.8806H88.9168C88.8084 91.8771 88.6965 91.8863 88.5854 91.9078C87.8651 92.0463 87.3447 92.6768 87.3447 93.4101C87.3447 94.7018 86.2939 95.7524 85.0026 95.7524H75.9977C74.7061 95.7524 73.6556 94.7016 73.6556 93.4101C73.6556 92.5533 72.9457 91.8619 72.09 91.8803H49.0619V56.1755ZM116.94 96.4146C116.94 98.8897 114.926 100.903 112.451 100.903H48.5488C46.0739 100.903 44.0603 98.8897 44.0603 96.4146V94.9409H70.8159C71.4774 97.1769 73.5501 98.8129 75.9975 98.8129H85.0025C87.4499 98.8129 89.5226 97.1767 90.1842 94.9409H116.94V96.4146H116.94Z" fill="white"/>
<path d="M106.244 58.4307H54.7562C53.8173 58.4307 53.056 59.1918 53.056 60.1309V85.8096C53.056 86.7487 53.8173 87.5098 54.7562 87.5098C55.6951 87.5098 56.4564 86.7487 56.4564 85.8096V61.8309H104.544V85.8095C104.544 86.7485 105.305 87.5097 106.244 87.5097C107.183 87.5097 107.944 86.7485 107.944 85.8095V60.1307C107.944 59.1918 107.183 58.4307 106.244 58.4307Z" fill="white"/>
<path d="M83.0199 68.3134C82.3558 67.6494 81.2796 67.6494 80.6153 68.3134L69.923 79.0062C69.2591 79.6701 69.2591 80.7466 69.923 81.4106C70.2551 81.7426 70.6902 81.9085 71.1251 81.9085C71.5603 81.9085 71.9952 81.7423 72.3273 81.4106L83.0199 70.718C83.6838 70.054 83.6838 68.9775 83.0199 68.3134Z" fill="white"/>
<path d="M89.3575 74.5097C88.6934 73.8457 87.6172 73.8457 86.9531 74.5097L82.6936 78.7692C82.0296 79.4331 82.0296 80.5097 82.6936 81.1738C83.0256 81.5058 83.4607 81.6717 83.8957 81.6717C84.331 81.6717 84.7658 81.5058 85.0978 81.1738L89.3574 76.9142C90.0214 76.2503 90.0214 75.1738 89.3575 74.5097Z" fill="white"/>
<defs>
<filter id="filter0_d" x="0" y="0" width="164" height="164" filterUnits="userSpaceOnUse" color-interpolation-filters="sRGB">
<feFlood flood-opacity="0" result="BackgroundImageFix"/>
<feColorMatrix in="SourceAlpha" type="matrix" values="0 0 0 0 0 0 0 0 0 0 0 0 0 0 0 0 0 0 127 0"/>
<feOffset dy="4"/>
<feGaussianBlur stdDeviation="2"/>
<feColorMatrix type="matrix" values="0 0 0 0 0 0 0 0 0 0 0 0 0 0 0 0 0 0 0.25 0"/>
<feBlend mode="normal" in2="BackgroundImageFix" result="effect1_dropShadow"/>
<feBlend mode="normal" in="SourceGraphic" in2="effect1_dropShadow" result="shape"/>
</filter>
</defs>
</svg>
