<svg width="164" height="164" viewBox="0 0 164 164" fill="none" xmlns="http://www.w3.org/2000/svg">
<g filter="url(#filter0_d)">
<circle cx="82" cy="78" r="78" fill="#6A9923"/>
</g>
<path d="M105.404 90.6083C103.449 90.6083 101.592 91.3739 100.191 92.7586C98.7905 94.1595 98.0086 95.984 98.0086 97.9388C98.0086 99.8936 98.7742 101.718 100.191 103.119C101.609 104.504 103.449 105.269 105.404 105.269C109.412 105.269 112.67 101.979 112.67 97.9388C112.67 93.8989 109.412 90.6083 105.404 90.6083ZM105.404 102.011C103.156 102.011 101.267 100.154 101.267 97.9388C101.267 95.7233 103.156 93.8663 105.404 93.8663C107.62 93.8663 109.412 95.6908 109.412 97.9388C109.412 100.187 107.62 102.011 105.404 102.011ZM107.294 66.1896C107.001 65.9127 106.61 65.7661 106.202 65.7661H97.8457C96.9497 65.7661 96.2167 66.4991 96.2167 67.3951V80.7529C96.2167 81.6488 96.9497 82.3819 97.8457 82.3819H111.106C112.002 82.3819 112.735 81.6488 112.735 80.7529V71.8097C112.735 71.3536 112.539 70.9137 112.197 70.6042L107.294 66.1896ZM109.477 79.1239H99.4747V69.0078H105.567L109.477 72.5264V79.1239ZM65.6241 90.6083C63.6693 90.6083 61.8123 91.3739 60.4113 92.7586C59.0104 94.1595 58.2285 95.984 58.2285 97.9388C58.2285 99.8936 58.9941 101.718 60.4113 103.119C61.8285 104.504 63.6693 105.269 65.6241 105.269C69.6314 105.269 72.8894 101.979 72.8894 97.9388C72.8894 93.8989 69.6314 90.6083 65.6241 90.6083ZM65.6241 102.011C63.3761 102.011 61.4865 100.154 61.4865 97.9388C61.4865 95.7233 63.3761 93.8663 65.6241 93.8663C67.8395 93.8663 69.6314 95.6908 69.6314 97.9388C69.6314 100.187 67.8395 102.011 65.6241 102.011ZM54.7587 92.612H51.4844V88.2788C51.4844 87.3829 50.7514 86.6498 49.8554 86.6498C48.9595 86.6498 48.2264 87.3829 48.2264 88.2788V94.241C48.2264 95.1369 48.9595 95.8699 49.8554 95.8699H54.7587C55.6547 95.8699 56.3877 95.1369 56.3877 94.241C56.3877 93.345 55.6547 92.612 54.7587 92.612ZM63.0177 83.7339C63.0177 82.838 62.2847 82.1049 61.3887 82.1049H41.629C40.733 82.1049 40 82.838 40 83.7339C40 84.6299 40.733 85.3629 41.629 85.3629H61.3887C62.2847 85.3629 63.0177 84.6462 63.0177 83.7339ZM44.9359 77.8533L64.6956 77.9673C65.5915 77.9673 66.3246 77.2505 66.3409 76.3546C66.3572 75.4423 65.6241 74.7093 64.7282 74.7093L44.9684 74.5953C44.9521 74.5953 44.9521 74.5953 44.9521 74.5953C44.0562 74.5953 43.3232 75.312 43.3232 76.208C43.3069 77.1202 44.0399 77.8533 44.9359 77.8533ZM48.259 70.4576H68.0187C68.9147 70.4576 69.6477 69.7246 69.6477 68.8286C69.6477 67.9327 68.9147 67.1996 68.0187 67.1996H48.259C47.3631 67.1996 46.63 67.9327 46.63 68.8286C46.63 69.7246 47.3631 70.4576 48.259 70.4576ZM119.397 68.2585L107.734 58.5985C107.44 58.3542 107.082 58.2239 106.691 58.2239H92.975V52.3595C92.975 51.4635 92.2419 50.7305 91.346 50.7305H49.8554C48.9595 50.7305 48.2264 51.4635 48.2264 52.3595V64.2837C48.2264 65.1797 48.9595 65.9127 49.8554 65.9127C50.7514 65.9127 51.4844 65.1797 51.4844 64.2837V53.9885H89.7332V92.612H76.3755C75.4795 92.612 74.7465 93.345 74.7465 94.241C74.7465 95.1369 75.4795 95.8699 76.3755 95.8699H96.2655C97.1615 95.8699 97.8945 95.1369 97.8945 94.241C97.8945 93.345 97.1615 92.612 96.2655 92.612H92.9912V61.4818H106.121L116.742 70.2784L116.628 92.5794H114.934C114.038 92.5794 113.305 93.3124 113.305 94.2084C113.305 95.1043 114.038 95.8374 114.934 95.8374H118.241C119.137 95.8374 119.87 95.1206 119.87 94.2247L120 69.5291C119.984 69.0404 119.772 68.568 119.397 68.2585Z" fill="white"/>
<defs>
<filter id="filter0_d" x="0" y="0" width="164" height="164" filterUnits="userSpaceOnUse" color-interpolation-filters="sRGB">
<feFlood flood-opacity="0" result="BackgroundImageFix"/>
<feColorMatrix in="SourceAlpha" type="matrix" values="0 0 0 0 0 0 0 0 0 0 0 0 0 0 0 0 0 0 127 0"/>
<feOffset dy="4"/>
<feGaussianBlur stdDeviation="2"/>
<feColorMatrix type="matrix" values="0 0 0 0 0 0 0 0 0 0 0 0 0 0 0 0 0 0 0.25 0"/>
<feBlend mode="normal" in2="BackgroundImageFix" result="effect1_dropShadow"/>
<feBlend mode="normal" in="SourceGraphic" in2="effect1_dropShadow" result="shape"/>
</filter>
</defs>
</svg>
