<svg width="164" height="164" viewBox="0 0 164 164" fill="none" xmlns="http://www.w3.org/2000/svg">
<g filter="url(#filter0_d)">
<circle cx="82" cy="78" r="78" fill="#6A9923"/>
</g>
<path d="M84.1227 88.13H101.184C101.824 88.13 102.25 87.7035 102.25 87.0637V77.4667C102.25 76.8269 101.824 76.4004 101.184 76.4004H84.1227C83.4829 76.4004 83.0564 76.8269 83.0564 77.4667V87.0637C83.0563 87.7034 83.4829 88.13 84.1227 88.13ZM85.189 78.533H100.118V85.9973H85.189V78.533Z" fill="white"/>
<path d="M55.3317 74.2673H63.8624C64.5022 74.2673 64.9287 73.8409 64.9287 73.2011C64.9287 72.5613 64.5022 72.1348 63.8624 72.1348H55.3317C54.6919 72.1348 54.2654 72.5613 54.2654 73.2011C54.2654 73.8409 54.6919 74.2673 55.3317 74.2673Z" fill="white"/>
<path d="M68.1277 74.2673H76.6584C77.2982 74.2673 77.7247 73.8409 77.7247 73.2011C77.7247 72.5613 77.2982 72.1348 76.6584 72.1348H68.1277C67.4879 72.1348 67.0614 72.5613 67.0614 73.2011C67.0614 73.8409 67.4879 74.2673 68.1277 74.2673Z" fill="white"/>
<path d="M55.3317 78.533H69.194C69.8338 78.533 70.2603 78.1065 70.2603 77.4667C70.2603 76.8269 69.8338 76.4004 69.194 76.4004H55.3317C54.6919 76.4004 54.2654 76.8269 54.2654 77.4667C54.2654 78.1065 54.6919 78.533 55.3317 78.533Z" fill="white"/>
<path d="M76.6583 76.4004H73.4593C72.8195 76.4004 72.393 76.8269 72.393 77.4667C72.393 78.1065 72.8195 78.533 73.4593 78.533H76.6583C77.2981 78.533 77.7246 78.1065 77.7246 77.4667C77.7246 76.8269 77.2981 76.4004 76.6583 76.4004Z" fill="white"/>
<path d="M113.02 63.1781C112.274 62.2184 111.314 61.6852 110.141 61.5786L107.582 61.2684V58.2729V56.1403C107.582 53.7944 105.663 51.875 103.317 51.875H54.2653C51.9194 51.8749 50 53.7943 50 56.1403V58.273V66.8037V90.263C50 92.189 51.2942 93.8266 53.0557 94.3515C53.0019 96.5086 54.6341 98.3812 56.8246 98.5804L106.089 104.125C106.196 104.125 106.409 104.125 106.516 104.125C108.648 104.125 110.568 102.526 110.781 100.5L113.98 66.2705C114.087 65.2041 113.767 64.0311 113.02 63.1781ZM52.1327 59.3393H105.449V62.1118V65.7373H52.1327V59.3393ZM54.2653 54.0076H103.317C104.49 54.0076 105.449 54.9673 105.449 56.1403V57.2066H52.1327V56.1403C52.1327 54.9673 53.0924 54.0076 54.2653 54.0076ZM52.1327 90.2629V67.8699H105.449V90.2629C105.449 91.4359 104.49 92.3956 103.317 92.3956H54.372H54.2654C53.0924 92.3956 52.1327 91.4359 52.1327 90.2629ZM111.847 65.8439L108.648 100.073C108.542 101.246 107.475 102.099 106.302 101.993L57.1444 96.4477C56.0781 96.3411 55.3316 95.488 55.225 94.5283H103.317C105.662 94.5283 107.582 92.6089 107.582 90.263V66.8036V63.2847L110.034 63.498C110.568 63.498 111.101 63.8179 111.421 64.2444C111.741 64.6709 111.954 65.3107 111.847 65.8439Z" fill="white"/>
<defs>
<filter id="filter0_d" x="0" y="0" width="164" height="164" filterUnits="userSpaceOnUse" color-interpolation-filters="sRGB">
<feFlood flood-opacity="0" result="BackgroundImageFix"/>
<feColorMatrix in="SourceAlpha" type="matrix" values="0 0 0 0 0 0 0 0 0 0 0 0 0 0 0 0 0 0 127 0"/>
<feOffset dy="4"/>
<feGaussianBlur stdDeviation="2"/>
<feColorMatrix type="matrix" values="0 0 0 0 0 0 0 0 0 0 0 0 0 0 0 0 0 0 0.25 0"/>
<feBlend mode="normal" in2="BackgroundImageFix" result="effect1_dropShadow"/>
<feBlend mode="normal" in="SourceGraphic" in2="effect1_dropShadow" result="shape"/>
</filter>
</defs>
</svg>
