<svg width="23" height="23" viewBox="0 0 23 23" fill="none" xmlns="http://www.w3.org/2000/svg">
<path d="M0.793494 12.7803C0.543369 13.0716 0.421661 13.4425 0.451369 13.8258C0.481078 14.2092 0.657411 14.558 0.949703 14.8072L8.04425 20.8887C8.30779 21.114 8.63458 21.2347 8.97766 21.2347C9.01983 21.2347 9.06295 21.2328 9.10608 21.229C9.4942 21.1945 9.844 21.0095 10.0912 20.7095L22.2257 5.94066C22.4691 5.64358 22.5831 5.26983 22.5457 4.88745C22.5074 4.50508 22.3244 4.16008 22.0273 3.9157L19.8059 2.09104C19.1935 1.58887 18.2869 1.67704 17.7828 2.28941L8.44387 13.6562L4.69104 10.441C4.0892 9.92733 3.1807 9.99537 2.66416 10.5972L0.793494 12.7803Z" fill="white"/>
</svg>
