<svg width="400" height="30" viewBox="0 0 400 30" fill="none" xmlns="http://www.w3.org/2000/svg">
<rect width="400" height="30" rx="15" fill="#F5F5F5"/>
<rect width="264" height="30" rx="15" fill="#79CE67"/>
<mask id="mask0" mask-type="alpha" maskUnits="userSpaceOnUse" x="0" y="0" width="264" height="30">
<rect width="264" height="30" rx="15" fill="#79CE67"/>
</mask>
<g mask="url(#mask0)">
<path d="M47.5 -15.5L-16 48" stroke="#4EB339" stroke-width="15"/>
<path d="M89.5 -15.5L26 48" stroke="#4EB339" stroke-width="15"/>
<path d="M131.5 -15.5L68 48" stroke="#4EB339" stroke-width="15"/>
<path d="M173.5 -15.5L110 48" stroke="#4EB339" stroke-width="15"/>
<path d="M215.5 -15.5L152 48" stroke="#4EB339" stroke-width="15"/>
<path d="M257.5 -15.5L194 48" stroke="#4EB339" stroke-width="15"/>
<path d="M299.5 -15.5L236 48" stroke="#4EB339" stroke-width="15"/>
</g>
<path d="M340.363 22.24C342.803 22.24 344.923 20.62 344.923 17.98C344.923 15.3 343.223 14.06 341.003 14.06C340.043 14.06 338.843 14.56 337.943 15.44C338.063 12.46 339.403 11.44 340.963 11.44C341.803 11.44 342.663 11.86 343.203 12.34L344.743 10.58C343.883 9.76 342.503 9.06 340.703 9.06C337.903 9.06 335.223 11.2 335.223 15.94C335.223 20.4 337.763 22.24 340.363 22.24ZM340.303 20.04C339.303 20.04 338.323 19.4 338.023 17.38C338.803 16.48 339.623 16.14 340.363 16.14C341.483 16.14 342.243 16.68 342.243 17.98C342.243 19.42 341.323 20.04 340.303 20.04ZM352.356 22.24C354.796 22.24 356.916 20.62 356.916 17.98C356.916 15.3 355.216 14.06 352.996 14.06C352.036 14.06 350.836 14.56 349.936 15.44C350.056 12.46 351.396 11.44 352.956 11.44C353.796 11.44 354.656 11.86 355.196 12.34L356.736 10.58C355.876 9.76 354.496 9.06 352.696 9.06C349.896 9.06 347.216 11.2 347.216 15.94C347.216 20.4 349.756 22.24 352.356 22.24ZM352.296 20.04C351.296 20.04 350.316 19.4 350.016 17.38C350.796 16.48 351.616 16.14 352.356 16.14C353.476 16.14 354.236 16.68 354.236 17.98C354.236 19.42 353.316 20.04 352.296 20.04ZM361.468 15.76C363.168 15.76 364.428 14.44 364.428 12.38C364.428 10.3 363.168 9.04 361.468 9.04C359.768 9.04 358.508 10.3 358.508 12.38C358.508 14.44 359.768 15.76 361.468 15.76ZM361.468 14.18C360.968 14.18 360.508 13.74 360.508 12.38C360.508 11.02 360.968 10.62 361.468 10.62C361.968 10.62 362.428 11.02 362.428 12.38C362.428 13.74 361.968 14.18 361.468 14.18ZM359.868 21.44L363.108 17.46L362.088 16.52L358.368 19.98L359.868 21.44ZM365.968 14.46L369.688 10.98L368.188 9.52L364.948 13.5L365.968 14.46ZM366.548 22.24C368.248 22.24 369.508 20.92 369.508 18.86C369.508 16.78 368.248 15.52 366.548 15.52C364.848 15.52 363.588 16.78 363.588 18.86C363.588 20.92 364.848 22.24 366.548 22.24ZM366.548 20.66C366.048 20.66 365.588 20.22 365.588 18.86C365.588 17.5 366.048 17.1 366.548 17.1C367.048 17.1 367.508 17.5 367.508 18.86C367.508 20.22 367.048 20.66 366.548 20.66Z" fill="#919191"/>
</svg>
