<svg width="160" height="160" viewBox="0 0 160 160" fill="none" xmlns="http://www.w3.org/2000/svg">
<g filter="url(#filter0_d)">
<circle cx="80" cy="75" r="65" fill="#E01A38"/>
</g>
<path d="M99.125 78.0324C99.125 78.6537 99.6287 79.1574 100.25 79.1574C100.871 79.1574 101.375 78.6537 101.375 78.0324V42.4727C101.375 41.8514 100.871 41.3477 100.25 41.3477H45.125C44.5037 41.3477 44 41.8514 44 42.4727V97.5977C44 98.2189 44.5037 98.7227 45.125 98.7227H87.0924C87.7137 98.7227 88.2174 98.2189 88.2174 97.5977C88.2174 96.9764 87.7137 96.4727 87.0924 96.4727H46.25V43.5977H62V76.2227C62.0004 76.8439 62.5046 77.3472 63.1258 77.3468C63.4009 77.3467 63.6664 77.2457 63.872 77.063L73.25 68.7279L82.628 77.063C82.8337 77.2461 83.0995 77.3474 83.375 77.3477C83.5338 77.3482 83.6907 77.3145 83.8351 77.2487C84.2394 77.0674 84.4997 76.6658 84.5 76.2227V43.5977H99.125V78.0324ZM82.25 73.7173L73.997 66.3823C73.5709 66.0039 72.9291 66.0039 72.503 66.3823L64.25 73.7173V43.5977H82.25V73.7173Z" fill="white"/>
<path d="M100.812 77.4941C92.4246 77.4941 85.625 84.2938 85.625 92.6816C85.625 101.069 92.4246 107.869 100.812 107.869C109.2 107.869 116 101.069 116 92.6816C115.991 84.2977 109.196 77.5034 100.812 77.4941ZM100.812 105.619C93.6673 105.619 87.875 99.8268 87.875 92.6816C87.875 85.5365 93.6673 79.7441 100.812 79.7441C107.958 79.7441 113.75 85.5365 113.75 92.6816C113.742 99.8234 107.954 105.611 100.812 105.619Z" fill="white"/>
<path d="M107.337 87.6471L99.3857 95.6065L95.4122 91.6251C94.9653 91.1934 94.2532 91.2057 93.8215 91.6526C93.4003 92.0886 93.4003 92.7799 93.8215 93.2158L98.5949 97.9892C99.0342 98.4284 99.7463 98.4284 100.186 97.9892L108.937 89.2378C109.376 88.7961 109.374 88.0819 108.932 87.6426C108.491 87.2033 107.777 87.2054 107.337 87.6471Z" fill="white"/>
<defs>
<filter id="filter0_d" x="0" y="0" width="160" height="160" filterUnits="userSpaceOnUse" color-interpolation-filters="sRGB">
<feFlood flood-opacity="0" result="BackgroundImageFix"/>
<feColorMatrix in="SourceAlpha" type="matrix" values="0 0 0 0 0 0 0 0 0 0 0 0 0 0 0 0 0 0 127 0"/>
<feOffset dy="5"/>
<feGaussianBlur stdDeviation="7.5"/>
<feColorMatrix type="matrix" values="0 0 0 0 0.159383 0 0 0 0 0.341667 0 0 0 0 0.121007 0 0 0 1 0"/>
<feBlend mode="normal" in2="BackgroundImageFix" result="effect1_dropShadow"/>
<feBlend mode="normal" in="SourceGraphic" in2="effect1_dropShadow" result="shape"/>
</filter>
</defs>
</svg>
