<svg width="30" height="30" viewBox="0 0 30 30" fill="none" xmlns="http://www.w3.org/2000/svg">
<g clip-path="url(#clip0)">
<path d="M29.2282 22.127L25.4988 18.3975C24.4706 17.3694 22.7975 17.3694 21.7693 18.3975L20.0742 20.0927C19.2952 20.8716 18.0277 20.8714 17.2491 20.093L9.90139 12.7391C9.12062 11.9583 9.12051 10.6946 9.90139 9.91372C10.1744 9.64067 10.9585 8.85663 11.5966 8.21854C12.6203 7.19491 12.6346 5.52704 11.5956 4.48817L7.86712 0.771446C6.83892 -0.256699 5.16589 -0.256699 4.14044 0.768751C3.37309 1.52942 3.12559 1.77481 2.78153 2.11588C-0.926292 5.82364 -0.926292 11.8566 2.78135 15.5643L14.4235 27.2125C18.14 30.929 24.1552 30.9293 27.872 27.2125L29.2282 25.8563C30.2564 24.8281 30.2564 23.1552 29.2282 22.127ZM5.38087 2.01457C5.72358 1.67186 6.28116 1.6718 6.62499 2.01551L10.3534 5.73223C10.697 6.07577 10.697 6.63176 10.3534 6.97536L9.73181 7.59692L4.76247 2.62758L5.38087 2.01457ZM15.6668 25.9695L4.02465 14.3212C1.15602 11.4526 0.99834 6.94817 3.53973 3.89116L8.49466 8.84608C7.19271 10.322 7.24697 12.571 8.65796 13.982L16.0054 21.3356C16.0055 21.3356 16.0056 21.3358 16.0056 21.3358C17.4151 22.7454 19.664 22.8031 21.1417 21.4994L26.0968 26.4545C23.0495 28.9915 18.5552 28.8579 15.6668 25.9695ZM27.9851 24.6132L27.3635 25.2348L22.391 20.2622L23.0125 19.6406C23.3552 19.2979 23.9129 19.2979 24.2557 19.6406L27.9851 23.3701C28.3279 23.7129 28.3279 24.2706 27.9851 24.6132Z" fill="#FF6C36"/>
</g>
<defs>
<clipPath id="clip0">
<rect width="30" height="30" fill="white"/>
</clipPath>
</defs>
</svg>
