<svg width="30" height="30" viewBox="0 0 30 30" fill="none" xmlns="http://www.w3.org/2000/svg">
<path d="M14.7862 14.4511C16.7715 14.4511 18.4904 13.7391 19.8953 12.3342C21.2997 10.9295 22.012 9.21087 22.012 7.22533C22.012 5.24047 21.2999 3.52157 19.8951 2.11647C18.4902 0.71205 16.7713 0 14.7862 0C12.8007 0 11.082 0.71205 9.67735 2.1167C8.2727 3.52134 7.56042 5.24024 7.56042 7.22533C7.56042 9.21087 8.2727 10.9298 9.67735 12.3344C11.0825 13.7388 12.8014 14.4511 14.7862 14.4511ZM10.9206 3.35975C11.9984 2.28195 13.2628 1.75804 14.7862 1.75804C16.3094 1.75804 17.574 2.28195 18.652 3.35975C19.7298 4.43778 20.254 5.70235 20.254 7.22533C20.254 8.74876 19.7298 10.0131 18.652 11.0911C17.574 12.1692 16.3094 12.6931 14.7862 12.6931C13.2632 12.6931 11.9989 12.1689 10.9206 11.0911C9.8426 10.0133 9.31846 8.74876 9.31846 7.22533C9.31846 5.70235 9.8426 4.43778 10.9206 3.35975Z" fill="#FF6C36"/>
<path d="M27.4294 23.0676C27.3889 22.483 27.3069 21.8453 27.1863 21.172C27.0645 20.4936 26.9078 19.8522 26.7201 19.2661C26.526 18.6602 26.2625 18.0619 25.9364 17.4886C25.5983 16.8935 25.201 16.3753 24.7551 15.9489C24.2889 15.5028 23.7181 15.1441 23.058 14.8825C22.4002 14.6223 21.6712 14.4905 20.8914 14.4905C20.5851 14.4905 20.289 14.6161 19.717 14.9885C19.365 15.2181 18.9532 15.4836 18.4936 15.7772C18.1006 16.0276 17.5683 16.2622 16.9107 16.4746C16.2691 16.6822 15.6177 16.7875 14.9746 16.7875C14.3319 16.7875 13.6805 16.6822 13.0385 16.4746C12.3816 16.2625 11.849 16.0279 11.4567 15.7775C11.0014 15.4866 10.5894 15.2211 10.2321 14.9883C9.66063 14.6159 9.36446 14.4902 9.05822 14.4902C8.27819 14.4902 7.54943 14.6223 6.89185 14.8828C6.23222 15.1439 5.66116 15.5026 5.19447 15.9491C4.74861 16.3758 4.35127 16.8937 4.01344 17.4886C3.68774 18.0619 3.42407 18.66 3.22998 19.2663C3.04253 19.8525 2.88574 20.4936 2.76398 21.172C2.64313 21.8444 2.56142 22.4823 2.5209 23.0683C2.48108 23.6411 2.46094 24.2374 2.46094 24.8398C2.46094 26.4058 2.95875 27.6736 3.94043 28.6086C4.90997 29.5312 6.19262 29.999 7.7529 29.999H22.1981C23.7579 29.999 25.0405 29.5312 26.0103 28.6086C26.9922 27.6743 27.49 26.406 27.49 24.8396C27.4898 24.2351 27.4694 23.6389 27.4294 23.0676ZM24.7982 27.3348C24.1575 27.9446 23.307 28.241 22.1978 28.241H7.7529C6.64352 28.241 5.79299 27.9446 5.15258 27.3351C4.5243 26.737 4.21898 25.9206 4.21898 24.8398C4.21898 24.2777 4.23751 23.7226 4.27459 23.1898C4.31076 22.667 4.38469 22.0928 4.49432 21.4826C4.60258 20.8799 4.74037 20.3144 4.90425 19.8023C5.06149 19.3114 5.27595 18.8252 5.54191 18.357C5.79574 17.9106 6.08779 17.5277 6.41006 17.2192C6.71149 16.9306 7.09144 16.6944 7.53913 16.5172C7.95318 16.3533 8.41849 16.2636 8.92363 16.2501C8.9852 16.2828 9.09484 16.3453 9.27245 16.4611C9.63385 16.6967 10.0504 16.9654 10.5109 17.2595C11.03 17.5904 11.6988 17.8894 12.4978 18.1473C13.3147 18.4114 14.1479 18.5456 14.9748 18.5456C15.8017 18.5456 16.6351 18.4114 17.4515 18.1475C18.2512 17.8891 18.9198 17.5904 19.4396 17.259C19.9109 16.9578 20.3157 16.6969 20.6772 16.4611C20.8548 16.3455 20.9644 16.2828 21.026 16.2501C21.5313 16.2636 21.9967 16.3533 22.4109 16.5172C22.8584 16.6944 23.2383 16.9308 23.5398 17.2192C23.862 17.5275 24.1541 17.9104 24.4079 18.3572C24.6741 18.8252 24.8888 19.3116 25.0458 19.8021C25.2099 20.3148 25.3479 20.8801 25.456 21.4823C25.5654 22.0937 25.6395 22.6682 25.6757 23.19V23.1905C25.713 23.7213 25.7318 24.2761 25.732 24.8398C25.7318 25.9208 25.4264 26.737 24.7982 27.3348Z" fill="#FF6C36"/>
</svg>
