<svg width="68" height="68" viewBox="0 0 68 68" fill="none" xmlns="http://www.w3.org/2000/svg">
<circle cx="34" cy="34" r="29" fill="#E6F0FF" stroke="#060E8C" stroke-width="10"/>
<g clip-path="url(#clip0)">
<path d="M34.9365 40.6672L45.6166 29.9869C45.8638 29.7398 46 29.4101 46 29.0585C46 28.7069 45.8638 28.3771 45.6166 28.1301L44.8303 27.3436C44.3179 26.8318 43.4851 26.8318 42.9735 27.3436L34.005 36.3121L25.0265 27.3336C24.7793 27.0866 24.4497 26.9502 24.0983 26.9502C23.7465 26.9502 23.417 27.0866 23.1695 27.3336L22.3834 28.1201C22.1362 28.3674 22 28.6969 22 29.0485C22 29.4001 22.1362 29.7299 22.3834 29.9769L33.0733 40.6672C33.3213 40.9148 33.6524 41.0508 34.0044 41.05C34.3578 41.0508 34.6887 40.9148 34.9365 40.6672Z" fill="#FF6C36"/>
</g>
<defs>
<clipPath id="clip0">
<rect x="46" y="22" width="24" height="24" transform="rotate(90 46 22)" fill="white"/>
</clipPath>
</defs>
</svg>
