<svg width="179" height="484" viewBox="0 0 179 484" fill="none" xmlns="http://www.w3.org/2000/svg">
<path d="M37.9076 24.4418C38.4165 24.6964 38.9253 24.951 39.6885 24.951C41.215 25.2056 42.9959 25.2056 44.5224 25.4602C45.2856 25.4602 46.0489 25.7148 46.8121 25.7148C47.0665 25.7148 47.3209 25.7148 47.8298 25.7148C47.8298 25.7148 47.8298 25.7148 48.0842 25.7148H48.3386C49.1018 25.7148 49.3562 24.6964 48.8474 24.4418C48.593 24.1872 48.593 23.9326 47.8298 23.678C47.0665 23.4234 46.5577 23.1688 45.7944 22.9142C44.0136 22.405 38.9253 20.6228 37.6532 22.6596C36.89 23.1688 37.1444 24.1872 37.9076 24.4418C37.9076 24.4418 37.6532 24.4418 37.9076 24.4418Z" fill="#FED783"/>
<path d="M32.3108 35.39C34.6005 35.39 36.6358 34.117 39.1799 34.3716C42.2329 34.6262 45.2859 35.8992 48.0844 36.663C48.0844 37.1722 48.5932 37.6814 49.1021 38.1906C49.8653 38.9544 50.6285 39.9729 51.3918 40.7367C52.155 41.5005 53.1727 40.7367 52.6638 39.7183C52.155 38.6998 51.3918 37.936 50.883 37.1722C50.6285 36.9176 50.6285 36.663 50.3741 36.4084C50.883 35.8992 50.883 35.1354 50.1197 34.8808C46.3035 33.3532 42.7417 31.571 38.6711 30.8072C36.127 30.5526 32.0564 31.0618 31.802 34.117C31.5475 34.8808 31.802 35.1354 32.3108 35.39Z" fill="#FED783"/>
<path d="M32.3105 40.9914C33.5826 40.9914 34.0914 39.973 35.1091 39.4638C36.3811 38.4454 37.9076 38.4454 39.1797 38.4454C40.4517 38.7 40.7062 36.6632 39.4341 36.4086C37.1444 35.8994 31.0385 36.9178 31.2929 40.4822C31.2929 40.7368 31.8017 40.9914 32.3105 40.9914Z" fill="#FED783"/>
<path d="M31.5468 50.9205C33.0732 50.4113 35.1085 49.6475 36.635 50.1567C37.9071 50.4113 38.4159 48.3745 37.1438 48.1199C34.8541 47.356 32.0556 46.8468 29.7659 48.3745C28.4938 49.1383 30.0203 51.4297 31.5468 50.9205Z" fill="#FED783"/>
<path d="M43.2504 50.9208C41.7239 52.1938 40.1975 53.2122 38.671 54.4852C37.1445 55.5036 35.1092 56.522 34.6004 58.3043C34.3459 59.0681 34.8548 59.8319 35.618 59.5773C37.1445 59.3227 38.4166 57.7951 39.6886 56.7767C41.4695 55.5036 42.996 54.2306 44.5225 52.703C45.5401 51.6846 44.2681 50.157 43.2504 50.9208Z" fill="#FED783"/>
<path d="M50.3743 71.544C52.664 67.4703 53.936 62.6329 55.2081 58.05C55.4625 56.777 53.4272 56.5224 53.1728 57.7954C52.1552 61.6145 51.1375 65.1789 49.611 68.7434C48.0845 72.3078 45.286 74.5992 43.2507 77.6545C42.7419 78.4183 43.5051 79.1821 44.2683 78.9275C47.0669 77.9091 48.8478 74.09 50.3743 71.544Z" fill="#FED783"/>
<path d="M54.9537 76.1264C56.7345 74.5988 56.989 72.0527 57.4978 69.7613C58.261 66.4515 59.0243 63.1416 59.7875 60.0864C60.0419 58.8134 58.261 58.8134 58.0066 59.8318C57.2434 62.6324 56.7345 65.4331 55.7169 68.2337C54.9536 70.5251 53.4272 73.0712 53.6816 75.6172C53.936 76.381 54.6992 76.6356 54.9537 76.1264Z" fill="#FED783"/>
<path d="M64.1115 71.7986C64.6203 69.7618 63.8571 67.2157 63.6026 65.1789C63.3482 62.6329 62.8394 60.3415 62.585 57.7954C62.3306 56.5224 60.5497 56.777 60.8041 58.05C61.0585 60.5961 61.3129 62.8875 61.8218 65.4335C62.0762 67.4703 62.0762 70.0164 63.0938 72.0532C63.0938 72.5624 63.8571 72.5624 64.1115 71.7986Z" fill="#FED783"/>
<path d="M66.9098 64.9235C67.4187 63.6505 66.9098 62.6321 66.9098 61.3591C66.6554 60.0861 66.6554 58.5584 66.401 57.2854C66.1466 56.267 64.6201 56.267 64.6201 57.54C64.8745 58.813 64.8745 59.8314 65.1289 61.1045C65.3834 62.3775 65.1289 63.9051 66.1466 65.1781C65.8922 65.4327 66.6554 65.4327 66.9098 64.9235Z" fill="#FED783"/>
<path d="M74.7975 76.8906C76.324 78.9274 80.3946 79.182 80.649 76.1267C80.649 75.8721 80.649 75.3629 80.1402 75.3629C79.3769 75.1083 78.8681 74.8537 77.8505 75.1083C77.3416 75.1083 77.0872 74.8537 76.8328 74.5991C75.3063 73.0715 75.3063 70.2709 75.3063 68.2341C75.3063 66.961 73.0166 66.961 73.0166 68.2341C73.0166 71.0347 73.0166 74.5991 74.7975 76.8906Z" fill="#FED783"/>
<path d="M87.5179 76.3806C88.79 75.8714 88.2812 74.3438 87.5179 73.8346C84.9738 72.5616 83.1929 70.5247 82.1752 67.7241C81.412 65.9419 78.6135 67.2149 79.3767 68.9971C80.3943 71.7977 83.7017 77.6536 87.5179 76.3806Z" fill="#FED783"/>
<path d="M89.554 66.706C89.8084 66.1968 89.2996 65.6876 89.0452 65.6876C88.0275 65.433 87.0099 65.6876 85.7378 65.433C84.4657 65.1784 83.4481 64.16 82.6848 63.1416C82.176 62.1231 80.3951 62.887 80.9039 63.9054C81.6672 65.433 82.9392 66.9606 84.4657 67.7244C86.501 68.4882 88.7908 68.4882 89.554 66.706Z" fill="#FED783"/>
<path d="M92.6056 50.666C91.0792 50.1568 89.5527 49.393 88.535 48.12C87.5174 47.1016 85.9909 48.3746 86.7541 49.393C88.0262 50.9206 89.5527 51.6845 91.3336 52.4483C92.6056 52.9575 94.8954 53.7213 95.913 52.9575C96.1674 52.7029 96.1674 52.1937 95.913 51.9391C95.4042 50.9206 93.6233 50.9206 92.6056 50.666Z" fill="#FED783"/>
<path d="M93.6228 41.4999C93.6228 40.9907 93.114 40.7361 92.6052 41.2453C91.5875 42.5183 90.061 42.7729 88.5346 43.0276C87.2625 43.2822 87.5169 45.0644 88.789 44.8098C91.0787 44.5552 93.3684 44.046 93.6228 41.4999Z" fill="#FED783"/>
<path d="M87.0081 35.6444C85.9905 36.4083 87.0081 38.4451 88.2802 37.6813C90.3155 36.6629 93.3685 35.1352 93.114 32.3346C93.114 31.0616 91.5876 30.807 90.8243 31.3162C90.0611 31.8254 89.5523 32.5892 89.0434 33.353C88.5346 34.3714 87.7714 35.1352 87.0081 35.6444Z" fill="#FED783"/>
<path d="M83.4473 31.062C85.2282 31.5712 86.7547 30.8074 87.5179 29.2798C88.2812 27.7522 89.0444 25.2062 87.7723 23.9331C87.5179 23.6785 87.2635 23.6785 86.7547 23.9331C85.737 24.4423 85.4826 25.4608 85.2282 26.4792C84.9738 26.9884 84.9738 27.4976 84.7194 28.0068C84.7194 28.2614 84.465 28.516 84.465 28.516C84.465 28.516 84.4649 28.516 84.2105 28.516C82.6841 27.7522 81.9208 30.2982 83.4473 31.062Z" fill="#FED783"/>
<path d="M73.2708 34.1172C74.2884 26.4791 79.1223 20.6232 81.412 13.4943C81.412 12.7305 80.9032 12.4759 80.6488 12.9851C76.0693 18.841 72.762 26.4791 71.7443 33.8626C71.4899 34.881 73.0164 35.1356 73.2708 34.1172Z" fill="#FED783"/>
<path d="M70.2171 31.5712C70.4715 26.9883 71.7436 22.6601 72.7612 18.3318C73.5245 15.7858 75.0509 12.7306 74.5421 10.1845C74.5421 9.67533 74.0333 9.67533 73.7789 9.92993C71.998 11.9668 71.7436 15.2766 71.2347 17.8226C69.9627 22.1509 68.945 26.7337 68.6906 31.3166C68.4362 32.335 69.9627 32.5896 70.2171 31.5712Z" fill="#FED783"/>
<path d="M66.9108 19.0952C67.4196 15.7854 68.1828 12.7301 68.4373 9.42031C68.6917 7.38349 68.9461 5.09206 67.1652 4.58286C66.6564 4.32825 66.1475 4.83746 66.1475 5.34667C66.1475 5.34667 66.1475 5.34667 66.402 5.34667C65.8931 5.60127 65.8931 6.11047 65.6387 6.61968C65.3843 7.89269 65.3843 9.42031 65.3843 10.4387C65.1299 13.2394 65.1299 16.04 64.8755 18.586C64.6211 20.1136 66.6564 20.3682 66.9108 19.0952Z" fill="#FED783"/>
<path d="M61.0585 18.0765C61.5673 18.8403 62.8394 18.3311 63.0938 17.5673C63.3482 15.7851 62.5849 13.7483 62.0761 12.2207C61.5673 10.1838 61.0585 8.14701 59.7864 6.874C59.0232 6.11019 58.0055 6.874 57.7511 7.63781C57.4967 9.42003 58.5143 11.2022 59.0232 12.9845C59.532 14.7667 60.0408 16.5489 61.0585 18.0765Z" fill="#FED783"/>
<path d="M52.1552 18.3315C53.6817 19.3499 54.9538 20.8775 55.717 22.4051C56.2258 23.9328 58.5156 22.9143 58.0067 21.3867C57.2435 19.3499 55.9714 17.5677 54.1905 16.2947C52.6641 15.0217 50.1199 13.7486 48.0846 14.7671C47.5758 15.0217 47.5758 15.5309 47.8302 16.0401C49.1023 17.3131 50.8832 17.5677 52.1552 18.3315Z" fill="#FED783"/>
<path d="M46.0488 18.0765C45.54 17.0581 44.7767 16.2942 44.2679 15.2758C43.7591 14.512 43.7591 13.4936 42.9958 12.9844C42.7414 12.7298 42.2326 12.7298 41.9782 12.9844C40.7061 15.0212 42.9958 17.8219 44.2679 19.6041C45.0312 20.8771 47.0665 19.3495 46.0488 18.0765Z" fill="#FED783"/>
<path d="M48.3384 58.5583C45.7943 59.8313 43.2501 61.1043 40.706 62.6319C39.4339 63.3958 37.653 64.6688 38.6707 66.451C38.9251 66.9602 39.4339 67.2148 39.9428 66.9602C40.4516 66.7056 40.706 66.9602 41.2148 66.7056C41.9781 66.451 42.7413 65.4326 43.5045 64.9234C45.5399 63.1412 47.5752 61.6135 49.8649 60.3405C50.3737 59.8313 49.356 58.0491 48.3384 58.5583Z" fill="#FED783"/>
<path d="M48.0842 66.1971C48.8474 65.4333 49.8651 64.6695 50.6283 63.9057C51.646 63.1419 50.3739 61.6143 49.3563 62.3781C48.3386 62.8873 47.5754 63.6511 46.8121 64.1603C46.0489 64.9241 45.0312 65.1787 45.0312 66.4517C45.0312 66.9609 45.2857 67.2155 45.7945 67.4701C46.8121 67.4701 47.321 66.9609 48.0842 66.1971Z" fill="#FED783"/>
<path d="M88.7912 53.2123C89.0456 54.4853 89.0456 55.7583 90.0632 56.7767C91.0809 57.5406 93.1162 58.0498 93.8794 56.7767C93.8794 56.5221 93.8794 56.2675 93.8794 56.0129C93.3706 55.2491 92.6074 55.7583 91.8441 55.2491C91.3353 54.9945 91.3353 53.7215 91.0809 52.9577C90.8265 51.4301 88.5368 51.9393 88.7912 53.2123Z" fill="#FED783"/>
<path d="M63.0934 37.6815C63.8567 38.4453 64.8743 36.9177 64.1111 36.4085C62.5846 35.1355 61.0581 34.1171 59.5316 32.8441C58.2596 31.8257 56.9875 30.2981 55.2066 30.0435C54.6978 30.0435 54.4434 30.5527 54.4434 30.8073C55.2066 32.3349 56.9875 33.3533 58.2596 34.1171C60.0405 35.3901 61.5669 36.4085 63.0934 37.6815Z" fill="#FED783"/>
<path d="M62.3321 34.8806C63.0954 35.899 64.6219 34.626 63.8586 33.6075C63.3498 32.8437 62.841 31.8253 62.5865 31.0615C62.0777 30.0431 61.8233 29.2793 60.8057 29.2793C60.2968 29.2793 60.0424 29.5339 60.0424 30.0431C59.788 31.0615 60.5512 31.5707 60.8057 32.3345C61.3145 33.0983 61.8233 33.8621 62.3321 34.8806Z" fill="#FED783"/>
<path d="M51.3907 43.5369C51.1363 44.0461 51.1363 44.8099 51.6452 45.0645C52.4084 45.8283 53.1716 45.5737 53.9349 45.3191C54.9525 45.0645 55.9702 44.8099 56.9878 44.5553C58.5143 44.3007 58.2599 42.0092 56.7334 42.2639C55.7158 42.2639 54.9525 42.2639 53.9349 42.2639C52.9172 42.5185 51.8996 42.2639 51.3907 43.5369Z" fill="#FED783"/>
<path d="M48.847 49.9027C49.8647 50.4119 50.8823 50.4119 51.9 50.1573C53.4265 49.9027 53.172 47.6113 51.6456 47.8659C50.8823 47.8659 50.3735 47.8659 49.8647 47.6113C48.5926 46.3383 47.3205 49.1389 48.847 49.9027Z" fill="#FED783"/>
<path d="M62.5861 44.5559C63.6037 45.5743 64.8758 46.8473 65.8935 47.6111C66.9111 48.1203 68.1832 47.1019 67.4199 46.0835C66.4023 45.0651 65.639 43.5375 64.367 42.5191C63.3493 41.7553 61.5684 43.5375 62.5861 44.5559Z" fill="#FED783"/>
<path d="M61.0588 53.7215C60.55 53.7215 60.2956 54.4853 60.55 54.7399C63.0941 57.2859 66.9103 56.5221 69.7089 55.2491C70.2177 54.9945 70.4721 54.4853 70.2177 53.9761C70.9809 54.4853 72.253 53.9761 72.253 52.7031C72.253 52.4485 72.253 52.4485 72.253 52.1939C72.5074 49.9024 68.6912 50.4116 69.4545 52.4485V52.7031C69.2001 52.7031 68.9456 52.4485 68.6912 52.7031C67.4192 53.2123 66.1471 53.7215 64.875 53.7215C63.8574 54.2307 62.5853 53.7215 61.0588 53.7215Z" fill="#FED783"/>
<path d="M58.5145 53.467C58.2601 53.7216 57.7513 54.4854 57.4969 54.4854C55.9704 54.9946 56.4792 57.0315 58.0057 56.7768C58.7689 56.5222 59.0234 56.013 59.5322 55.5038C60.5498 54.74 59.5322 52.9578 58.5145 53.467Z" fill="#FED783"/>
<path d="M73.0153 59.323C73.2697 59.323 73.5242 59.323 73.7786 59.323C75.305 59.323 75.0506 56.5224 73.5242 57.0316C73.2697 57.0316 73.0153 57.0316 72.7609 57.2862C71.2344 57.2862 71.4889 59.5776 73.0153 59.323Z" fill="#FED783"/>
<path d="M68.4375 73.5803C67.9286 73.5803 67.4198 73.8349 66.911 73.8349C65.3845 74.0895 65.6389 76.1264 66.911 76.381C66.6566 76.6356 66.6566 76.8902 66.6566 77.1448C66.6566 77.1448 66.6566 77.3994 66.4022 77.3994C65.6389 78.1632 66.6566 79.1816 67.4198 78.927C68.1831 78.6724 68.6919 77.9086 68.6919 76.8902C68.6919 76.6356 68.6919 76.381 68.4375 76.381C70.2184 75.8718 69.964 73.3257 68.4375 73.5803Z" fill="#FED783"/>
<path d="M80.1404 53.4666C80.9037 50.9205 79.886 48.8837 77.5963 47.6107C76.833 47.3561 76.3242 47.8653 76.3242 48.3745C76.3242 49.6475 77.5963 50.9205 77.3419 52.1935C76.833 53.9758 79.6316 55.2488 80.1404 53.4666Z" fill="#FED783"/>
<path d="M74.2882 45.5735C73.0161 45.5735 72.2529 45.0643 71.2352 44.5551C69.7088 43.5367 68.1823 45.5735 69.4543 46.8465C70.7264 47.8649 72.5073 48.3742 74.0338 48.1195C75.5603 47.8649 75.8147 45.8281 74.2882 45.5735Z" fill="#FED783"/>
<path d="M83.7025 43.7919C84.9746 42.7735 85.7378 40.2274 83.9569 39.209C83.7025 38.9544 83.1937 38.9544 82.9392 39.209C82.4304 39.7182 82.176 40.482 81.9216 41.2458C81.6672 42.0097 81.4128 41.7551 80.6495 41.2458C79.3775 40.2274 77.851 42.2643 79.1231 43.2827C80.6495 44.0465 82.4304 44.8103 83.7025 43.7919Z" fill="#FED783"/>
<path d="M77.3415 31.3164C76.5783 31.3164 76.5783 32.0802 75.815 32.0802L75.5606 31.8256C75.0518 31.571 74.7974 31.571 74.2886 32.0802C72.7621 33.8624 75.0518 36.1539 76.5783 37.1723C77.8503 38.1907 79.3768 36.1539 78.1048 35.1354C77.8503 34.8808 77.5959 34.6262 77.3415 34.3716C78.3592 33.8624 79.1224 33.0986 78.6136 32.0802C78.6136 31.571 78.1048 31.3164 77.3415 31.3164Z" fill="#FED783"/>
<path d="M35.3636 121.955C36.1268 123.991 37.1445 126.028 37.9077 127.81C38.4166 128.829 39.943 128.574 39.943 127.556C40.1975 128.065 40.4519 128.829 40.7063 129.338C41.2151 130.866 43.5048 129.847 42.996 128.32C42.2328 125.774 40.9607 123.482 39.1798 121.445C38.671 120.682 37.9077 119.918 37.1445 119.409C37.1445 119.409 37.1445 119.409 37.1445 119.154C36.3813 116.863 35.618 113.807 33.8371 112.28C33.3283 111.77 32.3106 112.28 32.3106 113.043C32.0562 114.826 32.8195 116.353 33.5827 118.136C33.3283 118.136 33.3283 118.136 33.0739 118.136C32.3106 118.136 32.3106 118.899 32.5651 119.409C33.0739 120.427 34.0915 121.191 35.3636 121.955Z" fill="#FED783"/>
<path d="M25.4409 128.065C27.2218 128.574 28.7482 128.829 30.5291 128.574C32.0556 128.32 31.5468 126.283 30.2747 126.537C29.5115 126.537 28.7482 126.028 28.2394 126.028C27.2218 125.774 26.2041 125.264 25.4409 124.755C24.4232 124.246 22.1335 123.228 21.8791 125.01C21.6247 126.792 24.1688 127.556 25.4409 128.065Z" fill="#FED783"/>
<path d="M23.1507 134.939C24.9316 134.939 26.7125 135.703 28.239 136.212C29.5111 136.722 30.2743 134.939 29.0022 134.175C26.4581 132.648 21.1154 130.866 18.5713 132.902C18.0625 133.412 18.3169 134.175 18.8257 134.43C20.0978 135.194 21.8787 134.939 23.1507 134.939Z" fill="#FED783"/>
<path d="M13.2293 144.615C14.7558 144.36 16.2823 143.087 17.8088 142.578C19.5897 141.814 21.3706 142.832 22.6426 144.105C23.4059 145.124 24.6779 143.851 24.1691 143.087C22.6426 141.05 21.1162 140.032 18.8264 140.032C16.5367 140.032 13.4838 141.559 12.4661 143.596C12.2117 144.105 12.7205 144.869 13.2293 144.615Z" fill="#FED783"/>
<path d="M19.8437 152.253C20.8614 151.998 20.607 150.725 19.5893 150.725C18.3172 150.725 17.2996 150.98 16.0275 150.98C15.0099 150.98 13.7378 150.47 12.7201 150.98C12.4657 151.234 12.2113 151.489 12.4657 151.744C13.7378 153.78 17.8084 152.507 19.8437 152.253Z" fill="#FED783"/>
<path d="M17.5544 155.562C16.5368 155.817 16.5368 157.345 17.8088 157.345C18.0632 157.345 18.3176 157.345 18.5721 157.345C19.5897 157.09 19.5897 155.308 18.3176 155.562C18.0632 155.562 17.8088 155.562 17.5544 155.562Z" fill="#FED783"/>
<path d="M22.3884 169.311C22.3884 169.565 22.6428 169.565 22.8972 169.565C24.4237 169.311 25.187 166.51 25.6958 165.492C26.2046 164.728 26.7134 163.709 26.9679 162.946C30.0208 162.691 32.8194 160.909 35.1091 159.126C36.1267 158.108 34.8547 156.326 33.5826 157.344C32.3105 158.363 30.5296 159.126 29.0032 159.381C29.512 158.617 29.7664 157.853 30.2752 157.344C30.5296 156.58 29.512 156.071 29.0032 156.58C28.2399 157.599 27.7311 158.872 26.9679 159.89C25.6958 160.145 24.4237 160.145 23.1517 160.909C22.6428 161.163 22.3884 161.927 22.8972 162.436C23.4061 162.691 24.1693 162.946 24.6781 163.2C24.4237 163.709 23.9149 164.219 23.6605 164.728C23.4061 165.492 21.3708 167.783 22.3884 169.311Z" fill="#FED783"/>
<path d="M30.7846 174.403C31.0391 175.422 32.8199 175.422 33.0744 174.403C34.092 171.857 34.3464 169.311 34.8552 166.765C35.1097 165.238 33.0744 164.983 32.5655 166.511C32.3111 167.529 31.8023 168.293 31.5479 169.311C30.2758 170.584 29.0037 171.857 28.2405 173.385C27.4773 174.403 25.6964 176.949 26.4596 178.222C26.714 178.477 26.714 178.732 26.9684 178.477C28.4949 178.222 28.7493 176.186 29.2582 175.167C29.5126 174.403 30.0214 173.64 30.5302 173.13C30.5302 173.385 30.5302 173.894 30.7846 174.403Z" fill="#FED783"/>
<path d="M36.1259 182.55C36.6347 183.06 37.3979 183.06 37.6524 182.296C38.4156 181.023 37.9068 179.241 38.1612 177.713C38.4156 175.931 39.4332 174.149 40.1965 172.366C40.4509 171.603 39.9421 171.093 39.4332 171.093C39.4332 170.329 39.4332 169.82 39.4332 169.056C39.1788 167.274 36.6347 167.529 36.6347 169.311C36.6347 170.584 36.3803 171.603 35.6171 172.876C34.8538 173.894 35.6171 174.912 36.3803 175.167C35.3626 178.222 34.5994 181.023 36.1259 182.55Z" fill="#FED783"/>
<path d="M46.5578 166.765C46.3034 164.728 43.2504 165.237 43.7592 167.019C44.0137 167.783 44.0137 168.547 45.0313 169.056C44.7769 169.311 44.7769 169.565 44.7769 169.82C45.0313 172.111 45.0313 174.403 44.7769 176.949C44.5225 178.731 44.0136 180.513 44.5225 182.296C44.7769 183.059 45.7945 182.805 46.049 182.296C47.0666 180.513 46.8122 178.222 46.8122 176.44C46.8122 174.148 46.8122 171.857 46.5578 169.82C46.5578 169.565 46.3034 169.311 46.3034 169.311H46.5578C47.321 168.547 47.321 167.274 46.5578 166.765Z" fill="#FED783"/>
<path d="M51.3918 182.551C52.155 181.532 51.9006 180.005 51.6462 178.732C51.3918 176.95 51.1374 175.422 50.883 173.64C50.6285 172.367 48.8477 172.621 48.8477 173.894C49.1021 175.677 49.1021 177.204 49.3565 178.986C49.3565 180.259 49.3565 181.787 50.3741 182.551C50.6285 182.805 51.1374 182.805 51.3918 182.551Z" fill="#FED783"/>
<path d="M57.4969 182.55C58.769 182.805 60.5499 181.786 59.7866 180.259C59.2778 179.24 58.2601 178.477 57.4969 177.458C56.7337 176.44 55.9704 175.167 55.716 173.894C55.716 173.639 55.716 173.639 55.4616 173.385C55.9704 173.385 56.4792 172.875 56.7337 172.112C56.9881 171.093 56.7337 170.329 56.4793 169.311C56.2248 168.038 56.2248 167.019 56.4793 165.746C56.9881 164.219 54.4439 162.946 53.9351 164.728C53.4263 166.001 53.4263 167.019 53.4263 168.292C53.4263 169.566 53.1719 171.093 53.6807 172.366C53.6807 172.621 53.9351 172.621 53.9351 172.621C53.4263 172.621 53.1719 173.13 53.1719 173.894C53.4263 176.949 54.4439 181.786 57.4969 182.55Z" fill="#FED783"/>
<path d="M64.3669 176.949C65.3846 176.44 65.639 175.422 65.1302 174.403C64.8758 173.894 64.3669 173.385 64.1125 172.876C63.6037 171.857 63.3493 171.093 63.0949 170.075C62.586 168.038 59.5331 168.293 59.7875 170.584C60.0419 172.621 61.0596 178.477 64.3669 176.949Z" fill="#FED783"/>
<path d="M69.7083 164.474C71.7437 165.238 73.0157 167.529 74.2878 169.057C75.3054 170.33 77.0863 168.802 76.0687 167.529C74.7966 165.492 72.7613 163.455 70.2172 162.691C69.1995 162.437 68.4363 163.964 69.7083 164.474Z" fill="#FED783"/>
<path d="M56.9888 152.507C56.2255 151.998 55.9711 150.98 55.7167 150.216C55.4623 149.961 54.6991 149.961 54.6991 150.471C54.1902 151.998 54.9535 153.017 55.9711 154.035C56.7344 154.799 58.0064 153.271 56.9888 152.507Z" fill="#FED783"/>
<path d="M52.1545 155.562C52.1545 154.034 49.8648 154.289 49.8648 155.817C49.8648 156.58 48.8471 156.58 48.5927 157.09C48.3383 157.599 48.5927 157.853 48.8471 158.363C49.1015 158.872 49.8648 158.872 50.1192 158.617C51.6456 158.363 52.4089 157.09 52.1545 155.562Z" fill="#FED783"/>
<path d="M36.6349 161.928C36.3805 161.419 35.6172 161.673 35.6172 162.183C35.3628 162.946 35.1084 163.71 35.1084 164.474C35.1084 165.492 36.3805 166.002 37.1437 165.492C37.9069 165.238 38.1614 164.474 38.4158 163.71C38.6702 162.692 37.3981 161.673 36.6349 161.928Z" fill="#FED783"/>
<path d="M11.7024 164.728C11.9568 164.728 11.9568 164.728 12.2112 164.728H11.7024C11.9568 164.728 12.2112 164.983 12.4656 164.983C12.9745 164.983 13.7377 164.728 14.2465 164.728C15.773 164.219 17.5539 163.71 19.0804 163.201C20.6068 162.946 20.3524 160.909 18.826 160.909C17.0451 160.909 15.5186 161.164 13.7377 161.673C12.72 161.928 11.9568 162.182 11.448 162.946L11.1936 163.201C10.9391 163.455 11.1936 164.474 11.7024 164.728Z" fill="#FED783"/>
<path d="M27.7309 149.707C29.5118 149.452 31.0383 148.688 32.5648 147.924C33.8368 147.161 33.0736 145.124 31.5471 145.633C30.0206 146.397 28.2398 146.651 26.7133 146.906C25.4412 147.161 24.1691 146.906 23.1515 147.924C22.8971 148.943 22.8971 149.452 23.4059 149.961C24.678 150.725 26.2044 150.216 27.7309 149.707Z" fill="#FED783"/>
<path d="M32.3109 137.231C32.0565 137.231 31.8021 137.486 31.5477 137.486C30.7844 137.486 30.2756 137.486 30.0212 138.249C29.7668 139.268 30.0212 140.032 30.7844 140.286C31.8021 140.796 32.8197 140.032 33.583 139.268C34.855 138.759 33.583 136.467 32.3109 137.231Z" fill="#FED783"/>
<path d="M38.6709 157.345C38.6709 158.618 39.4341 159.636 40.9606 159.382C42.2327 159.127 42.4871 157.09 41.215 156.581C40.7062 155.308 38.6709 155.817 38.6709 157.345Z" fill="#FED783"/>
<path d="M52.155 170.584C51.6462 170.329 51.3918 169.82 50.8829 169.566C49.6109 168.547 48.0844 170.584 49.3565 171.602C49.8653 171.857 50.1197 172.366 50.6285 172.621C51.9006 173.639 53.4271 171.602 52.155 170.584Z" fill="#FED783"/>
<path d="M37.908 140.032C38.4168 141.05 40.1977 141.814 41.2154 141.305C42.4874 140.795 42.7418 139.522 42.4874 138.249C42.4874 137.74 42.233 137.486 41.7242 137.231C42.4874 136.213 40.961 134.939 39.9433 135.958C39.4345 136.467 38.9256 136.976 38.4168 137.486C37.908 137.74 37.908 138.504 37.908 139.013C37.908 139.013 37.6536 139.522 37.908 140.032Z" fill="#FED783"/>
<path d="M31.5467 130.102C31.5467 130.102 31.5467 130.102 31.2923 130.102C31.8011 130.102 31.5467 130.102 31.2923 129.848C31.0379 129.593 30.529 129.593 30.529 129.848C30.2746 130.102 30.2746 130.357 30.2746 130.611C30.0202 131.121 30.2746 131.885 30.7834 132.139C31.2923 132.394 31.8011 132.394 32.3099 132.139C33.582 131.885 33.3276 129.848 31.5467 130.102Z" fill="#FED783"/>
<path d="M45.5406 115.08C45.2862 114.571 44.7774 114.571 44.5229 114.571C42.7421 115.08 43.2509 118.645 43.2509 119.918C43.2509 121.446 43.5053 123.992 44.7774 125.01C45.2862 125.519 46.3038 124.501 45.795 123.992C45.0318 123.228 45.2862 120.427 45.5406 119.409C45.2862 118.39 46.0494 116.354 45.5406 115.08Z" fill="#FED783"/>
<path d="M50.6274 122.209C49.6097 123.482 50.1185 125.01 50.3729 126.538C50.3729 128.575 50.3729 130.357 50.8818 132.394C51.1362 133.921 53.1715 133.412 53.1715 132.139C53.1715 130.357 53.4259 128.32 53.4259 126.538C53.4259 125.01 53.9347 123.228 52.4083 121.955C51.645 121.7 50.8818 121.7 50.6274 122.209Z" fill="#FED783"/>
<path d="M70.4719 134.685C70.7263 134.43 70.4719 133.921 70.2175 133.666C69.9631 133.157 69.4543 132.648 68.9454 132.903C67.1646 133.157 66.6557 135.194 67.1645 136.722C67.419 137.995 69.4543 137.995 69.4543 136.722C69.4543 136.467 69.4543 136.213 69.4543 135.958C69.4543 135.449 69.9631 135.449 69.1999 135.703C69.4543 135.703 69.7087 135.449 69.9631 135.449C70.2175 135.194 70.4719 134.94 70.4719 134.685Z" fill="#FED783"/>
<path d="M62.0767 119.409C62.3311 118.39 61.0591 117.881 60.2958 118.39C58.5149 119.409 57.4973 122.464 56.4796 124.246C55.9708 125.264 55.2076 126.537 54.6987 127.556C54.4443 127.81 53.9355 129.338 53.6811 129.338C52.409 129.847 53.1723 131.63 54.4443 131.12C55.9708 130.611 57.2429 128.065 58.0061 126.792C58.7693 125.519 59.5326 124.246 60.2958 122.718C61.0591 121.445 61.8223 120.427 62.0767 119.409Z" fill="#FED783"/>
<path d="M66.6556 131.12C67.6733 129.593 69.4542 128.829 70.2174 127.556C70.4718 127.047 70.2174 126.537 69.7086 126.283C68.9453 126.283 68.4365 126.283 67.6733 126.537C68.6909 124.246 69.963 121.955 70.2174 119.409C70.2174 118.645 69.4542 118.39 68.9453 118.645C65.8924 120.682 64.8747 125.01 64.1115 128.32C63.8571 129.593 63.3482 130.866 63.0938 132.139C62.585 133.412 62.3306 134.685 62.3306 135.958C62.3306 136.212 62.3306 136.467 62.585 136.722C62.3306 137.995 62.3306 139.522 62.0762 140.795C62.0762 142.068 63.8571 142.323 63.8571 141.05C64.3659 137.995 64.8747 135.194 65.638 132.393C66.1468 131.884 66.4012 131.63 66.6556 131.12Z" fill="#FED783"/>
<path d="M78.6124 144.614C78.6124 144.105 78.1036 143.851 77.8492 143.851C77.0859 143.851 76.8315 144.36 76.3227 144.614C76.0683 144.614 76.0683 144.614 75.8139 144.614H75.5595C75.3051 144.614 75.0506 144.614 75.305 144.614C75.0506 143.596 73.0153 144.105 73.2697 145.124C73.2697 145.633 73.7786 145.887 74.033 146.397C73.5242 146.651 73.2697 146.906 72.7609 146.906C71.2344 147.16 71.4889 149.452 73.0153 149.197C74.2874 148.943 75.305 148.433 76.5771 147.924C77.3404 147.415 78.6124 146.142 78.6124 144.614Z" fill="#FED783"/>
<path d="M45.0315 142.323C46.0492 142.832 47.3212 142.578 48.3389 142.578C49.3565 142.578 50.3742 142.578 51.1374 142.578C51.1374 143.087 51.6463 143.596 52.4095 143.596C53.936 143.851 55.208 143.087 56.4801 142.323C57.7522 141.305 56.4801 139.013 54.9536 139.777C54.4448 140.032 53.936 140.286 53.4271 140.541C53.1727 140.541 53.1727 140.795 52.9183 140.795C52.6639 140.541 52.4095 140.286 51.9007 140.286C50.6286 140.286 49.3565 140.286 48.0845 140.286C47.0668 140.286 45.7947 140.032 45.0315 140.541C44.5227 141.305 44.2683 141.814 45.0315 142.323Z" fill="#FED783"/>
<path d="M60.0416 154.544C60.296 156.326 62.8401 155.562 62.3313 154.035C62.0769 153.271 61.3136 153.016 61.0592 152.252C60.8048 151.234 58.7695 151.743 59.0239 152.762C59.0239 153.016 59.2783 153.525 59.5327 153.78C59.5327 154.035 60.0416 154.289 60.0416 154.544Z" fill="#FED783"/>
<path d="M61.8221 159.89C62.8397 158.617 60.8044 157.344 59.7868 158.363V158.617C58.7691 157.854 57.2426 159.127 57.7515 160.145C59.0235 162.182 60.8044 161.163 61.8221 159.89Z" fill="#FED783"/>
<path d="M47.3207 166.765C47.0663 167.783 47.5751 168.547 48.5928 168.292C50.8825 168.292 51.6457 164.982 51.6457 163.2C51.3913 161.673 49.356 161.927 49.356 163.455C49.1016 165.237 47.5751 165.492 47.3207 166.765Z" fill="#FED783"/>
<path d="M65.1297 154.798C65.1297 155.053 65.1297 155.053 65.1297 154.798C64.6209 155.817 65.3841 156.835 66.4018 156.835C67.4195 156.581 67.6739 155.562 67.165 154.798V154.544C66.6562 153.525 64.8753 153.78 65.1297 154.798Z" fill="#FED783"/>
<path d="M78.1052 161.164C78.1052 160.909 78.1052 160.654 78.1052 160.4C77.8508 159.891 77.0875 159.381 76.5787 159.381C75.8155 159.381 75.0522 159.636 74.0346 159.891C73.7802 159.891 73.5258 159.891 73.5258 160.145C73.2713 159.381 71.7449 159.127 71.4905 160.145C70.2184 163.964 75.0522 162.946 77.0875 162.437C77.342 162.182 78.1052 161.673 78.1052 161.164Z" fill="#FED783"/>
<path d="M70.727 152.252C70.4726 150.47 67.9285 150.979 68.1829 152.507C68.4373 153.78 68.6917 155.053 69.9638 155.562C70.9814 156.326 72.7623 156.326 73.5256 155.053C73.78 154.798 73.5256 154.289 73.5256 154.034C72.5079 153.271 70.9814 153.78 70.727 152.252Z" fill="#FED783"/>
<path d="M79.3768 131.375C78.1047 128.065 74.7973 128.829 72.762 131.12C70.9811 133.411 70.2179 136.212 69.7091 139.013C69.4546 139.777 70.7267 140.031 71.2355 139.522C71.9988 137.994 72.762 136.212 73.7797 134.43C74.2885 133.411 75.0517 132.393 75.815 131.884C76.8326 131.12 77.8503 131.629 78.6135 132.138C79.1223 132.393 79.6312 131.629 79.3768 131.375Z" fill="#FED783"/>
<path d="M73.5249 240.09C64.8748 234.998 56.4792 229.906 48.5924 223.796C42.9953 219.467 40.1968 214.121 51.6454 221.25C56.2248 224.05 60.041 228.124 64.6204 231.179C65.1293 231.434 65.6381 230.925 65.3837 230.415C58.2601 222.014 48.8468 215.394 37.6526 213.866C36.8894 213.866 36.3806 214.63 36.8894 215.139C59.0233 238.817 92.3515 247.219 112.45 273.443C112.705 273.952 113.468 273.443 113.213 272.934C103.291 258.167 88.2809 249.001 73.5249 240.09Z" fill="#FED783"/>
<path d="M149.341 109.479C153.157 114.571 155.192 120.937 159.263 125.519C159.517 125.774 160.28 125.774 160.28 125.265C158.754 119.154 154.429 113.298 150.358 108.716C150.104 107.697 148.832 108.716 149.341 109.479Z" fill="#FED783"/>
<path d="M184.704 302.468C184.704 301.704 183.941 301.45 183.177 301.45C172.492 301.959 156.21 308.07 149.595 318.508C149.595 306.287 149.849 294.066 150.104 281.845C165.877 280.572 179.107 268.097 181.142 252.057C181.396 251.038 180.379 250.275 179.361 250.784C168.93 254.603 156.21 259.186 150.867 269.115C150.867 268.861 150.613 268.606 150.613 268.352C151.121 256.894 151.885 245.183 152.648 233.726C153.157 233.726 153.665 233.471 153.665 232.962V232.707C154.174 232.452 154.174 231.943 153.665 231.434C153.665 230.925 153.665 230.67 153.665 230.161C169.185 227.106 177.835 202.919 176.817 189.425C176.817 188.661 175.799 188.152 175.036 188.661C166.132 195.535 159.008 203.682 154.174 213.612C155.192 203.937 155.955 194.262 157.227 184.587C157.736 181.023 158.245 177.458 158.754 173.894C173.764 171.093 182.923 151.998 184.195 138.249C184.195 137.231 183.177 136.467 182.16 137.231C172.746 143.087 165.877 149.452 160.789 158.363C161.807 150.216 163.079 141.814 164.096 133.667C164.351 133.667 164.605 133.412 164.605 133.157C166.132 129.848 166.641 126.028 166.386 122.209C177.071 120.173 186.739 108.461 189.283 98.786C189.538 97.7676 188.266 97.2584 187.502 97.513C179.616 99.8044 170.711 103.369 166.386 110.243C167.149 103.114 167.658 95.9853 167.913 88.8565C167.913 89.6203 167.913 90.1295 168.167 90.8933C168.167 91.6571 169.185 91.6571 169.439 90.8933C169.693 89.1111 169.948 87.3288 170.457 85.5466C180.633 73.8349 181.142 54.9943 178.344 40.4819C178.089 39.7181 177.326 39.2089 176.563 39.4635C161.298 45.574 159.517 73.5803 166.386 87.0742C166.132 87.3288 165.877 87.5834 165.877 88.0927C165.368 88.6019 166.132 89.3657 166.641 89.3657C165.877 97.2584 165.114 105.406 164.351 113.298C159.771 101.841 149.595 90.8933 140.182 87.5835C139.418 87.3288 138.655 87.8381 138.655 88.6019C139.927 103.114 145.779 126.028 162.061 130.357C160.535 142.068 159.008 154.035 157.227 165.747C157.227 166.001 156.973 166.256 156.973 166.51C156.973 166.765 156.973 167.02 156.973 167.274C156.718 168.802 156.464 170.329 156.21 172.112H155.955C154.683 163.71 151.121 154.799 148.068 147.67C144.761 140.541 139.418 131.63 130.514 132.394C130.005 132.394 129.751 132.903 129.751 133.157C129.751 147.924 139.164 174.148 155.192 178.222C155.192 178.731 155.446 178.986 155.446 179.495C155.446 179.75 155.701 179.75 155.701 180.004C155.446 181.532 155.192 183.06 154.938 184.587C153.665 194.262 152.648 203.937 151.63 213.612C147.051 199.354 136.365 186.115 123.39 182.296C122.627 182.041 121.864 182.55 121.609 183.314C117.03 200.373 130.768 229.652 149.849 232.707C149.086 242.891 148.577 253.075 147.814 263.259C142.471 253.33 132.804 244.928 122.627 242.891C121.864 239.327 120.846 235.762 120.083 232.452C120.337 232.452 120.592 232.198 120.592 231.943C121.101 227.87 121.355 223.796 122.627 219.722C124.917 224.56 122.627 230.161 121.355 234.999C121.355 235.508 121.864 235.762 122.118 235.508C126.698 231.179 126.698 221.759 122.881 216.922C122.373 216.413 121.609 216.413 121.355 217.176C120.337 220.741 119.32 224.305 119.32 228.124C116.521 215.903 113.723 203.937 110.67 191.716C110.415 182.296 110.161 172.621 111.433 162.946C113.977 143.596 118.302 124.246 121.355 104.896C126.698 70.7797 132.295 34.8807 123.899 0.763878C123.645 6.95027e-05 122.373 -0.509136 122.118 0.509275C109.398 34.1169 102.02 68.7428 101.002 104.642C100.493 121.446 98.9666 140.286 101.511 157.854C97.4401 145.633 93.1151 133.667 88.5357 121.7C88.5357 121.7 88.7901 121.7 88.7901 121.446C90.8254 115.335 90.8254 106.933 87.518 101.332C87.2636 100.823 86.2459 100.568 85.9915 101.332C84.9739 104.387 84.7195 107.697 84.7195 111.007C81.1577 100.823 78.1047 90.6387 75.815 80.2C75.5606 79.6908 74.7973 79.6908 74.7973 80.4546C75.3062 86.0558 76.5782 91.6571 77.8503 97.2584C76.3238 94.2031 72.762 92.1663 69.4547 91.9117C68.437 91.9117 67.9282 92.9301 68.437 93.6939C70.2179 96.2399 71.9988 98.786 74.5429 100.823C75.3062 101.587 76.5782 102.096 77.5959 101.587C78.1047 101.332 78.3591 101.077 78.3591 100.568C78.3591 100.568 78.6135 100.314 78.6135 100.059C78.6135 100.059 78.6135 100.059 78.6135 99.8044C84.2106 119.409 93.6239 138.759 99.4754 157.599C102.274 167.274 105.073 176.694 107.362 186.369C107.617 196.553 108.889 206.992 109.398 216.922C109.398 217.94 110.924 217.94 111.178 216.922C111.433 211.575 111.178 206.228 111.178 200.627C114.486 214.376 117.539 228.124 121.101 241.873C120.846 241.873 120.337 241.618 120.083 241.618C119.574 241.618 118.811 241.873 118.556 242.382C116.267 249.765 121.864 257.404 126.698 263.005C130.514 276.753 134.839 290.247 139.673 303.741L139.418 303.487C125.68 280.063 114.74 255.367 101.511 231.689C100.239 229.652 99.221 227.615 97.949 225.324C98.2034 225.324 98.4578 225.069 98.7122 224.56C100.239 218.195 98.9666 210.047 96.9313 203.937C96.4225 202.664 94.896 203.173 94.6416 204.192C93.8783 207.247 93.8783 210.557 94.3872 213.612C94.6416 215.903 95.1504 217.94 95.4048 220.232C85.7371 201.391 77.8503 182.041 65.8929 164.474C65.3841 163.71 64.3664 164.474 64.8752 165.237C72.5076 176.949 78.6135 189.425 84.7195 202.155C81.9209 199.1 77.5959 197.063 73.7797 199.1C73.0165 199.354 73.0164 200.118 73.2709 200.882C74.7973 203.428 80.3944 210.811 83.9562 207.756C84.465 207.247 83.9562 206.228 83.4474 206.738C82.4297 207.247 80.3944 205.21 79.6312 204.701C78.3591 203.428 77.0871 202.155 76.0694 200.882C80.6488 199.863 84.2106 205.465 86.7548 208.774C87.0092 209.029 87.518 209.029 87.518 208.774C91.3342 216.667 95.1504 224.814 99.4754 232.452C104.818 242.127 109.398 252.566 113.977 263.005C103.8 250.02 91.843 238.054 80.14 227.36C57.2428 206.483 30.5294 189.17 1.0175 179.24C0.254257 178.986 -0.763396 179.495 -0.508983 180.259C6.10576 204.955 32.0559 220.995 52.409 233.216C65.3841 241.109 78.868 247.219 90.571 256.894C103.292 267.333 113.977 279.554 126.698 289.993C128.733 293.812 130.768 297.376 133.058 300.941C136.62 306.287 140.182 311.889 143.998 317.235C144.761 319.272 145.524 321.309 146.287 323.091C137.383 312.398 119.574 308.579 106.853 311.889C105.836 312.143 105.327 313.162 106.09 313.925C113.977 325.383 132.549 336.33 146.796 332.002C147.051 341.677 147.814 351.607 148.323 361.282C144.761 356.699 139.164 353.134 134.839 350.588C125.68 345.242 112.705 340.913 102.274 344.478C101.511 344.732 101.511 345.751 101.765 346.26C111.433 359.754 127.97 376.303 146.287 372.229C146.542 372.229 146.542 372.484 146.796 372.484C147.305 372.739 147.56 372.229 147.56 371.975C147.814 371.975 148.323 371.72 148.577 371.72C148.577 371.72 148.577 371.72 148.832 371.466C148.577 371.975 148.577 372.484 148.577 372.739C148.577 373.502 149.086 373.757 149.595 373.757C150.104 380.122 150.867 386.487 151.376 392.852C144.761 384.45 132.549 379.613 122.373 381.65C121.609 381.904 120.846 382.668 121.355 383.432C126.698 394.635 138.909 397.944 150.358 398.708C150.358 399.217 150.358 399.472 150.867 399.727C151.121 399.981 151.63 399.981 151.885 400.236C155.192 427.733 159.771 455.23 165.114 482.727C165.368 483.491 166.132 483.236 166.132 482.473C164.096 455.739 158.499 429.26 154.683 402.782C155.192 402.527 155.446 402.273 155.446 401.763C155.446 401.254 155.192 401 154.938 400.49C161.552 399.981 167.658 392.852 169.439 387.251C169.693 386.487 169.185 385.723 168.421 385.469C161.298 383.687 155.446 390.306 153.92 396.671C153.92 396.926 153.92 396.926 153.92 396.926C153.665 396.926 153.665 396.926 153.411 396.926C152.902 393.361 152.393 390.052 152.139 386.487C151.63 381.65 151.121 377.067 150.867 372.229C151.121 372.484 151.376 372.484 151.63 372.484C155.192 373.248 160.026 371.72 163.842 369.429C175.545 400.236 184.195 431.297 190.301 463.632C190.555 464.396 191.319 464.141 191.319 463.377C188.266 430.279 178.089 398.708 166.386 367.647C168.167 366.374 169.948 364.846 170.966 363.573C171.474 362.809 171.22 361.791 170.711 361.282C168.676 359.499 166.132 359.245 163.333 359.499C159.771 350.079 155.955 340.913 152.139 331.493C152.648 331.493 153.157 331.238 153.92 331.238C176.563 362.3 199.969 392.852 212.181 430.024C212.435 430.534 212.944 430.279 212.944 429.77C203.785 392.598 178.852 361.791 156.464 330.475C171.22 327.929 185.213 315.198 184.704 302.468ZM178.344 253.839C176.308 264.532 169.948 270.643 161.552 274.717C163.588 273.189 165.368 271.407 166.895 269.625C167.404 268.861 166.386 267.842 165.877 268.606C162.061 272.171 157.482 274.717 152.902 277.517C152.902 275.48 152.393 273.698 151.885 271.661C156.973 261.986 168.167 257.658 178.344 253.839ZM171.22 47.3562C173.255 44.0464 176.308 39.9727 177.326 45.574C178.089 50.4114 178.089 55.5035 177.835 60.341C177.326 67.4698 175.036 73.3257 171.983 78.927C172.492 73.8349 172.746 68.7428 172.492 63.6508C172.492 62.6324 170.966 62.887 170.966 63.9054C171.22 70.5251 169.439 77.3993 168.93 84.2736C168.93 84.2736 168.93 84.2736 168.93 84.5282C168.676 84.2736 168.421 84.2736 168.421 84.5282C165.114 72.3073 164.605 58.3041 171.22 47.3562ZM166.641 115.081C169.693 107.188 178.598 103.369 186.485 100.823C184.704 105.406 181.905 109.225 178.344 112.535C177.326 113.298 176.308 114.062 175.545 114.826C177.071 112.789 178.344 110.243 178.852 107.952C179.107 106.933 177.58 106.933 177.326 107.697C176.817 109.989 175.545 111.771 174.019 113.553C172.492 115.081 170.457 116.099 168.93 117.627C168.676 117.881 168.676 118.136 168.93 118.136C168.167 118.39 167.404 118.9 166.641 119.154C166.641 118.645 166.386 118.39 166.386 117.881C166.386 117.372 166.641 116.099 166.641 115.081ZM147.305 111.007C145.27 106.933 143.998 102.605 142.98 98.0222C142.726 97.2584 141.708 89.8749 141.708 89.8749C153.92 94.4577 161.298 107.952 163.333 120.936C162.824 121.446 162.824 122.209 163.588 122.464C163.588 122.719 163.588 123.228 163.842 123.482C163.588 125.01 163.333 126.792 163.333 128.32C155.192 125.265 150.867 118.645 147.305 111.007ZM160.535 163.964C165.114 153.78 171.983 146.397 181.651 140.541C179.87 149.452 176.308 157.345 170.457 163.201C172.492 160.4 174.019 157.09 174.273 153.526C174.273 152.507 173.001 152.253 172.746 153.271C172.238 156.835 170.711 159.636 168.421 162.182C166.386 164.728 163.333 166.51 161.552 169.056C161.552 169.311 161.552 169.311 161.552 169.566C160.789 169.82 160.28 170.329 159.517 170.584C160.026 168.547 160.28 166.256 160.535 163.964ZM153.665 175.421C153.665 175.421 153.665 175.167 153.665 174.912C152.139 169.056 148.068 163.201 145.27 157.854C144.761 157.09 143.489 157.599 143.998 158.363C146.033 163.201 148.068 169.056 151.376 173.639C145.524 169.311 141.708 162.691 138.655 156.326C136.365 151.743 134.839 146.651 133.567 141.814C132.295 136.722 133.567 132.394 139.164 136.722C150.613 145.378 151.63 162.946 154.938 175.931C154.429 175.931 154.174 175.676 153.665 175.421ZM153.92 221.759C153.92 220.995 154.174 220.486 154.174 219.722C158.754 208.774 165.877 199.609 175.036 191.971C174.782 199.863 172.238 207.756 168.167 214.63C165.877 218.704 162.824 221.759 159.263 224.051C162.061 219.977 163.842 214.376 165.368 210.302C165.877 209.284 164.351 208.774 163.842 209.793C162.57 212.848 161.298 215.903 159.771 218.704C158.245 221.505 156.21 223.796 154.683 226.597C154.429 226.597 154.429 226.851 154.174 226.851C154.174 225.324 154.174 223.541 153.92 221.759ZM149.595 229.143C147.051 222.523 142.217 215.649 137.892 210.047C137.383 209.284 136.365 210.047 136.874 210.811C140.945 216.667 143.489 224.814 148.577 229.652L148.832 229.906C148.832 230.161 148.832 230.416 149.086 230.416C133.058 225.324 122.373 202.409 123.645 187.133C123.899 182.296 131.277 188.661 133.312 189.934C138.146 193.498 141.454 198.59 144.507 203.682C148.068 210.047 149.849 216.922 151.121 223.796C150.867 225.324 150.867 227.106 150.613 228.633C150.358 228.888 150.104 228.888 149.595 229.143ZM77.5959 100.059C77.5959 99.8044 77.5959 100.059 77.3415 99.8044C76.3238 99.2952 75.5606 98.2768 75.0518 97.513C74.2885 96.4945 73.5253 95.4761 72.762 94.4577C75.0518 95.4761 76.5782 97.513 77.8503 99.5498C77.5959 99.8044 77.5959 99.8044 77.5959 100.059ZM87.0092 116.099C87.0092 115.844 87.0092 115.844 87.0092 116.099C86.7548 112.28 86.5004 107.952 87.518 104.133C89.0445 108.715 88.0268 113.298 87.7724 117.881C87.518 117.372 87.2636 116.608 87.0092 116.099ZM108.125 175.931C106.599 153.271 108.634 131.375 111.687 108.97C114.74 86.565 120.846 65.6876 118.811 42.7733C118.811 41.7549 117.03 41.5003 116.776 42.5187C112.705 52.1937 113.723 62.1232 113.468 72.3073C113.468 73.3257 114.74 73.3257 114.74 72.5619C115.758 66.9606 116.012 61.3594 116.012 55.5035C116.012 52.7029 116.521 50.1568 117.284 47.6108C117.793 52.1937 117.793 56.7765 117.539 61.3594C117.03 75.8717 113.214 90.1295 110.67 104.387C107.362 122.719 105.073 141.814 105.581 160.654C105.327 159.891 105.327 158.872 105.073 158.108C102.02 139.013 103.292 119.663 103.8 100.314C104.309 84.019 106.599 67.979 109.652 52.1937C111.433 42.7733 113.977 33.6076 116.776 24.6965C118.048 20.1137 119.574 15.5308 121.101 10.948C122.881 5.34673 122.881 3.81911 124.154 10.1842C130.514 44.301 123.136 80.2 118.048 114.062C115.249 132.139 111.178 149.961 108.889 168.038C108.38 170.329 108.125 173.13 108.125 175.931ZM121.609 250.02C120.592 246.965 121.101 245.946 122.373 245.692C123.39 249.765 124.408 253.585 125.426 257.658C123.645 255.112 122.373 252.566 121.609 250.02ZM71.9988 242.127C48.8472 230.161 24.4235 215.649 8.64989 194.262C5.34252 189.934 -1.27222 181.277 8.39548 184.842C15.0102 187.388 21.3706 190.443 27.7309 193.753C42.4869 201.391 55.9708 210.811 68.6914 221.25C90.571 238.818 107.362 259.44 122.881 282.1C123.645 283.882 124.662 285.664 125.68 287.447C108.125 271.661 93.3695 253.075 71.9988 242.127ZM125.171 384.96C135.857 383.687 143.998 389.542 150.104 397.435C140.69 395.398 130.514 393.871 125.171 384.96ZM149.595 371.72C149.34 371.466 149.086 371.211 148.832 371.211C148.323 371.211 147.814 371.211 147.305 371.211C143.743 366.628 137.129 363.828 132.04 362.045C131.023 361.791 130.514 363.064 131.532 363.573C134.584 364.846 137.383 366.374 139.927 368.156C141.454 369.174 142.98 370.447 144.507 371.466C134.839 371.211 126.698 367.392 118.811 361.282C114.995 358.226 111.687 354.662 108.634 351.097C104.564 346.26 106.853 346.26 112.451 346.515C126.189 347.278 145.27 356.189 149.595 370.193C149.595 370.702 149.595 371.211 149.595 371.72ZM167.658 388.524C166.386 391.07 164.605 393.107 162.57 395.144C160.789 396.671 159.008 397.181 156.973 397.69C158.499 393.107 162.57 388.015 167.658 388.524ZM168.421 364.082C167.658 364.591 167.149 365.101 166.386 365.61C166.132 364.846 165.877 364.337 165.623 363.573C166.641 363.573 167.658 363.828 168.421 364.082ZM124.154 245.692C125.426 245.946 126.952 246.71 128.224 247.219C132.804 249.256 136.62 252.821 139.673 256.64C143.489 260.968 146.033 265.805 148.068 270.898C148.068 271.152 148.068 271.661 148.068 271.916C145.524 268.606 142.471 265.805 140.182 263.005C139.418 262.241 138.401 263.259 138.909 264.023C140.945 266.824 142.726 269.625 144.761 272.171C145.779 273.444 146.796 274.971 147.814 276.499V276.753C140.69 273.953 133.567 268.352 128.479 261.986C126.952 256.64 125.426 251.038 124.154 245.692ZM131.277 271.661C130.768 270.134 130.514 268.606 130.005 267.333C134.584 272.425 141.199 278.281 147.814 279.045C147.814 279.299 147.814 279.554 147.814 279.554C147.56 279.554 147.051 279.809 146.796 279.809C145.779 280.063 145.524 281.845 146.796 281.845C147.051 281.845 147.56 281.845 147.814 281.845C147.814 283.118 147.56 284.391 147.56 285.919C147.051 296.103 147.051 306.033 147.051 316.217C147.051 315.962 146.796 315.962 146.796 315.708C140.945 300.941 135.602 286.428 131.277 271.661ZM109.906 314.944C122.881 312.398 138.655 317.235 146.287 328.183C144.507 327.419 142.471 326.91 140.69 326.401C137.637 325.637 134.584 324.873 131.532 324.364C130.768 324.11 130.259 325.637 131.023 325.892C133.567 326.656 136.365 327.674 138.909 328.438C141.454 329.202 144.252 330.475 147.051 330.729C147.051 330.984 147.051 331.238 147.051 331.493C133.312 331.748 118.811 326.401 109.906 314.944ZM163.842 367.137C161.807 368.156 159.771 368.92 157.482 369.683C157.99 369.174 158.499 368.665 158.754 368.156C159.008 367.647 158.499 367.392 157.99 367.647C157.227 368.156 156.464 368.665 155.701 369.174C155.192 369.429 154.683 369.683 153.92 369.683C156.21 367.392 159.517 365.355 162.57 364.337C163.079 365.355 163.333 366.374 163.842 367.137ZM160.535 358.99C160.789 359.754 161.298 360.772 161.552 361.791C157.736 363.064 154.174 365.355 151.885 368.41C151.885 368.156 151.885 367.647 151.63 367.392C150.867 356.189 150.358 344.732 150.104 333.53C150.358 333.53 150.358 333.53 150.613 333.53C153.665 341.932 157.227 350.588 160.535 358.99ZM154.683 327.165C156.718 325.892 158.499 324.364 160.026 323.091C163.079 320.545 165.368 317.49 166.641 313.671C167.149 312.652 165.623 312.143 165.114 312.907C163.333 316.471 160.789 319.272 157.736 321.818C156.21 323.091 154.683 323.855 153.157 324.873C152.139 323.6 151.376 322.073 150.358 320.8C155.955 310.87 172.238 304.76 182.16 303.741C182.923 303.741 178.598 312.907 178.089 313.416C175.799 316.981 172.238 319.781 168.93 322.327C165.114 325.383 160.535 327.674 155.955 329.202C155.701 328.692 155.192 327.929 154.683 327.165Z" fill="#FED783"/>
<path d="M157.736 285.664C156.464 292.029 152.648 297.63 151.63 303.996C151.63 304.505 152.139 304.759 152.393 304.25C155.192 298.394 156.973 292.029 158.245 285.664C158.245 285.41 157.736 285.155 157.736 285.664Z" fill="#FED783"/>
<path d="M243.472 112.534C239.402 115.335 236.094 119.918 233.296 123.992C233.041 124.246 229.734 129.847 232.278 128.829C232.533 128.574 232.533 128.32 232.533 128.065C232.533 128.065 232.787 128.065 232.787 127.556C233.041 127.047 233.55 126.538 234.059 126.028C235.077 124.501 236.349 123.228 237.366 121.7C238.893 119.663 240.419 117.881 242.455 116.099C241.946 117.372 241.183 118.645 240.419 119.918C240.165 120.427 239.656 120.936 239.402 121.446C236.603 125.01 233.55 128.574 230.497 131.884C229.988 132.648 230.243 133.157 231.006 133.412C228.716 136.722 226.427 140.286 224.137 143.851C224.391 142.068 224.391 140.286 224.137 138.249C224.137 134.939 223.628 131.375 222.865 128.065C222.865 127.811 222.61 127.811 222.61 127.811C222.61 127.556 222.61 127.047 222.356 126.792C222.102 125.774 220.83 125.774 220.575 126.792C219.049 133.157 220.83 139.777 221.593 145.887C221.593 146.142 221.847 146.397 222.102 146.651V146.906C218.794 152.252 215.487 157.599 212.434 163.2C212.18 159.891 211.416 156.581 210.399 153.271C210.144 149.961 209.381 146.651 207.6 143.341C207.091 142.578 206.074 142.578 205.819 143.596C204.802 148.433 204.547 155.308 207.091 159.891C207.091 160.4 207.346 161.164 207.346 161.673C207.6 162.182 208.363 162.691 208.872 162.437C209.381 162.946 209.89 163.455 210.653 163.964C210.653 164.473 210.907 164.983 211.162 165.492C210.144 167.529 208.872 169.565 207.854 171.602C207.346 171.857 206.837 172.366 206.328 172.875C206.074 173.13 206.074 173.894 206.582 173.639C204.547 177.458 202.766 181.023 200.731 184.842C196.915 192.48 193.353 199.863 189.537 207.501C189.537 206.483 189.282 205.464 189.282 204.446C189.537 204.191 189.537 204.191 189.537 203.682C190.046 196.553 189.028 189.679 186.738 183.059C186.484 182.296 184.957 182.296 184.957 183.314C184.957 185.096 184.957 186.624 184.957 188.406C184.957 188.661 184.703 188.661 184.703 188.915V189.17C184.703 193.244 184.703 197.063 185.975 200.882C186.229 203.173 186.484 205.719 186.738 208.01C186.738 209.029 188.01 208.774 188.01 207.756C188.01 207.501 188.01 206.992 188.01 206.737C188.01 206.992 188.265 207.501 188.265 207.756C188.265 208.01 188.519 208.265 188.773 208.01C188.01 209.538 187.247 210.811 186.738 212.339C186.484 212.593 186.229 212.848 186.229 213.357C185.212 215.394 184.194 217.431 183.176 219.468C180.887 224.305 178.851 229.652 176.562 234.998C176.053 235.253 175.798 235.253 175.29 235.508C175.29 235.508 175.29 235.508 175.29 235.253C174.781 231.434 173.763 227.615 171.982 224.05C171.728 223.287 170.201 223.287 170.201 224.305C170.201 226.087 170.201 227.615 170.456 229.397C170.456 230.67 170.71 231.943 171.219 233.216C171.473 234.235 171.728 235.508 171.982 236.526C171.982 236.781 172.237 237.035 172.491 237.035C172.745 237.29 172.745 237.544 173 238.054C172.745 238.563 173.254 239.327 173.763 239.072C174.018 239.327 174.272 239.327 174.526 239.072C172.745 242.891 170.71 246.71 168.166 249.765C167.657 250.529 168.675 251.293 169.184 250.529C172.237 247.219 174.272 242.636 176.053 238.308C177.325 237.799 178.851 237.035 180.123 236.526C182.922 235.762 185.212 234.998 187.247 232.962C188.01 232.198 187.501 230.925 186.484 231.179C184.194 231.689 181.396 232.452 179.615 233.98C179.106 233.98 178.597 234.235 178.343 234.235C178.088 234.235 177.834 234.489 177.579 234.489C178.088 233.216 178.343 232.198 178.851 230.925C181.141 225.323 183.94 219.722 186.738 214.121C186.993 214.121 186.993 214.121 187.247 214.121C191.063 213.103 194.116 214.63 197.932 214.376C198.696 214.376 198.95 213.357 198.441 212.848C197.678 212.339 197.169 212.084 196.406 211.83C199.204 211.32 202.003 210.811 204.802 209.284C205.819 208.774 205.565 207.501 204.547 207.247C200.985 206.483 196.915 206.483 193.353 207.247C191.826 207.501 189.791 208.774 191.318 210.302C190.3 210.557 189.282 210.811 188.265 211.066C191.318 204.955 194.371 199.099 197.424 193.244C197.932 192.48 198.187 191.716 198.696 190.952C198.95 190.952 198.95 191.207 199.204 191.207C205.056 190.952 212.434 188.661 215.741 183.823C216.25 183.059 215.741 182.041 214.724 182.296C210.907 182.805 205.056 183.059 201.494 185.605C203.784 181.277 206.328 176.949 208.872 172.621C212.434 171.857 215.741 170.584 219.049 169.82C222.61 169.056 226.172 167.529 229.225 165.492C229.988 164.983 229.734 163.71 228.716 163.71C224.137 163.71 219.049 164.473 214.724 165.746C213.96 166.001 212.943 166.51 212.18 167.019C216.25 160.4 220.321 153.78 224.137 147.16C224.137 147.415 224.137 147.67 224.137 147.924C224.391 148.688 225.409 148.179 225.409 147.67C225.155 146.651 227.444 145.887 230.243 145.124C227.953 146.651 225.663 148.433 223.374 149.706C222.102 150.47 222.865 152.507 224.391 151.743C228.462 149.706 232.278 147.415 236.094 145.124C233.296 148.433 229.734 150.725 226.172 153.525C225.663 153.78 225.918 154.544 226.681 154.544C232.533 153.78 237.112 148.433 240.165 143.851C240.674 143.087 240.165 142.068 239.402 142.068C239.147 141.814 238.893 141.559 238.384 141.559C236.349 141.814 228.716 143.087 225.663 145.633C228.971 140.286 232.024 135.194 235.077 129.847C238.639 126.028 241.691 121.955 244.236 117.372C244.236 117.372 244.236 117.117 244.49 117.117C244.744 116.608 244.49 116.099 243.981 115.844C244.236 115.08 244.49 114.317 244.744 113.298C245.253 112.534 243.981 112.28 243.472 112.534ZM197.932 209.793C198.696 209.793 199.459 209.793 200.222 209.793C197.932 210.302 195.388 210.811 193.099 211.066C193.099 210.811 193.099 210.557 192.844 210.302C192.59 210.302 197.424 209.793 197.932 209.793ZM212.943 185.096C209.381 188.151 204.547 188.661 200.222 189.679C200.477 189.17 200.731 188.915 200.985 188.406C201.24 188.661 201.749 188.661 202.003 188.151C204.293 186.115 208.872 185.605 212.943 185.096ZM215.232 168.038C216.759 167.529 218.54 167.274 220.066 167.019C221.593 166.765 223.374 166.51 224.9 166.51C221.847 167.783 218.285 168.547 214.724 169.311C214.469 169.311 214.469 169.311 214.215 169.311C214.215 169.056 214.215 168.802 213.96 168.802C213.197 168.292 214.469 168.292 215.232 168.038Z" fill="#FED783"/>
<path d="M110.415 295.594C110.161 295.594 109.652 295.34 109.397 295.34C109.906 295.34 110.161 294.83 110.415 294.321H110.669C110.924 294.576 111.433 294.83 111.687 295.085C112.196 295.594 112.705 296.358 113.468 296.867C113.722 297.122 113.977 297.122 114.231 296.867C122.372 302.468 130.259 308.324 137.892 315.199C138.146 315.453 138.909 314.944 138.401 314.689C131.277 305.778 122.627 298.904 112.959 292.793C112.705 292.539 112.705 292.284 112.45 291.775C112.45 291.52 112.45 291.266 112.196 291.266C110.415 287.447 108.38 283.882 106.344 280.318C105.581 279.045 103.8 279.809 104.309 281.082C105.072 283.628 105.836 286.428 107.108 288.974C102.528 286.174 97.6944 283.628 93.1149 280.827C93.3694 280.573 93.3694 280.318 93.3694 280.063C93.3694 279.809 93.3694 279.554 93.1149 279.3C93.3694 279.554 93.3694 279.554 93.6238 279.809C94.387 280.573 95.4047 279.3 94.6414 278.536V278.281C93.6238 276.499 92.6061 274.971 91.334 273.444C90.5708 271.661 89.8076 270.134 88.7899 268.352C88.2811 267.333 87.009 267.842 87.2634 269.115V269.37C86.2458 269.115 84.9737 269.625 85.737 270.898C87.2634 273.698 88.7899 276.499 90.5708 279.3C82.9384 274.971 75.306 270.898 68.4369 266.315C65.8927 264.278 63.3486 262.241 60.2956 260.968C58.0059 259.186 55.9706 257.404 53.4265 255.876C52.4088 255.112 51.3912 256.385 51.9 257.404C52.9176 258.931 58.7692 267.588 61.5677 266.06C64.6207 269.115 67.928 271.916 71.7442 273.953C71.7442 273.953 71.9986 273.953 71.9986 274.207C73.0163 274.717 73.7795 273.698 73.5251 272.934C74.0339 273.189 74.5428 273.444 75.306 273.444C75.8148 273.444 76.0692 272.934 75.8148 272.68C75.5604 272.425 75.306 272.171 75.0516 271.916C79.631 274.971 84.2105 278.027 89.0443 280.827H88.7899C83.9561 279.554 79.1222 279.554 74.2884 280.318C72.7619 280.573 73.0163 282.355 74.2884 282.864C75.306 283.119 76.3237 283.373 77.3413 283.373C74.2884 283.882 71.2354 284.392 68.1824 285.41C66.9104 285.919 67.4192 287.956 68.6913 287.701C73.2707 286.938 77.8501 286.428 82.1752 285.155C83.7016 284.901 85.2281 284.901 86.5002 284.646C87.2634 284.646 87.5179 283.882 87.5179 283.373C88.2811 283.119 89.0443 282.609 89.8076 282.355C90.062 282.355 90.062 282.1 90.3164 281.846C94.6414 284.646 98.9664 287.192 103.291 289.993C99.9841 288.72 96.1679 288.211 92.6061 288.72C91.8429 288.72 91.5885 289.738 92.0973 290.247C97.1856 294.83 104.055 295.085 110.161 296.867C110.669 297.122 111.178 295.849 110.415 295.594Z" fill="#FED783"/>
<path d="M121.355 305.015H121.1C116.266 305.015 111.432 305.015 106.599 306.288C105.581 306.542 105.326 307.815 106.344 308.07C111.432 310.616 117.029 311.38 121.355 307.051C121.355 307.051 121.355 307.051 121.609 307.051C121.863 307.051 122.118 306.797 122.372 306.542C122.881 306.288 122.881 305.524 122.372 305.524C122.118 305.269 121.863 305.015 121.355 305.015ZM109.906 307.561C110.924 307.306 111.687 307.306 112.704 307.306C112.704 307.815 113.213 308.324 113.977 308.07C115.503 307.815 116.775 307.815 118.302 307.561C115.757 308.834 112.704 308.579 109.906 307.561Z" fill="#FED783"/>
</svg>
