<svg width="254" height="422" viewBox="0 0 254 422" fill="none" xmlns="http://www.w3.org/2000/svg">
<g clip-path="url(#clip0)">
<path d="M234.861 121.848C234.912 121.599 234.714 121.3 234.765 121.051C234.618 120.503 234.172 120.152 233.624 120.299C232.98 119.649 232.585 119.05 231.941 118.399C231.297 117.749 229.953 117.992 229.749 118.987C226.777 137.299 207.898 152.353 196.984 166.447C189.575 176.075 181.656 188.19 186.426 200.311C186.324 200.808 186.273 201.057 186.171 201.555C186.07 202.052 186.567 202.154 187.064 202.256C183.101 208.961 180.133 215.869 179.154 223.185C177.89 216.706 176.13 210.125 174.07 203.742L174.369 203.545C177.547 194.347 173.957 185.318 172.756 176.001C173.208 175.057 173.661 174.113 174.31 173.468C181.936 160.257 193.104 144.919 191.736 128.829C191.64 128.032 190.697 127.58 190.098 127.976C181.922 131.226 173.989 135.822 166.846 141.617C166.169 137.332 165.493 133.047 164.816 128.761C165.364 128.614 165.766 127.919 165.071 127.517C164.873 127.218 164.625 127.167 164.427 126.867C164.28 126.319 164.133 125.771 164.235 125.273C171.597 104.491 183.134 84.8233 179.757 62.1022C177.587 47.4034 171.107 28.4531 157.511 20.2272C156.771 18.7799 156.28 17.3835 155.241 16.1341C154.846 15.5348 153.947 16.1284 154.043 16.9256C154.19 17.4739 154.534 18.3219 154.681 18.8703C154.432 18.8194 154.432 18.8194 154.184 18.7686C153.738 18.418 153.291 18.0675 152.845 17.717C152.896 17.4683 152.399 17.3665 152.15 17.3156C151.704 16.9651 151.207 16.8633 150.761 16.5128C150.366 15.9135 149.563 17.3043 150.506 17.7566C150.755 17.8074 150.953 18.1071 151.201 18.158C151.15 18.4067 151.15 18.4067 151.099 18.6555C154.619 53.3278 131.866 98.6904 161.992 126.11C161.738 127.354 161.483 128.597 161.228 129.841C161.076 130.587 162.318 130.842 162.471 130.095C162.573 129.598 162.624 129.349 162.974 128.903C163.849 133.487 164.723 138.072 165.648 142.409C161.851 145.778 158.302 149.198 155.397 153.269C150.651 135.969 141.317 120.841 132.034 105.463C133.875 105.322 134.978 103.733 135.78 102.343C136.685 100.454 137.443 98.0177 138.347 96.1295C138.691 96.9775 139.036 97.8255 139.68 98.4756C139.877 98.7753 140.075 99.0749 140.272 99.3745C140.668 99.9738 141.464 99.8777 142.063 99.482C142.363 99.2841 142.662 99.0862 142.713 98.8375C142.764 98.5888 142.815 98.34 142.815 98.34L142.866 98.0912C142.872 96.7966 142.528 95.9486 141.737 94.7501C141.539 94.4504 141.342 94.1508 141.093 94.0999C140.896 93.8003 140.5 93.201 140.303 92.9014C140.105 92.6018 139.359 92.4491 139.009 92.8957C137.41 94.3825 136.703 96.5704 135.747 98.7074C135.193 100.149 134.328 104.378 132.237 104.468C131.989 104.417 131.938 104.666 131.938 104.666C130.95 103.168 130.21 101.721 129.222 100.222C128.653 94.145 128.632 87.9206 129.058 82.0467C129.357 81.8488 129.408 81.6001 129.262 81.0517C129.313 80.803 129.115 80.5033 129.166 80.2546L129.217 80.0058L129.019 79.7062C136.042 78.2929 132.572 64.883 124.689 69.2304C123.791 69.824 123.288 71.0168 124.129 71.9666C125.812 73.8662 127.303 74.1715 129.546 73.3348C130.038 74.7312 129.28 77.1678 127.24 77.0095C126.195 77.0547 124.946 78.0949 125.737 79.2935C126.33 80.1924 126.872 81.34 127.465 82.2389C127.414 82.4877 127.662 82.5385 127.662 82.5385C128.689 86.3772 127.767 92.1493 127.749 96.0332C127.844 96.8303 127.743 97.3278 127.838 98.125C124.976 93.133 122.113 88.141 119.301 82.9002C119.849 82.7533 119.951 82.2558 119.505 81.9052C115.24 78.6997 117.08 68.4501 119.098 62.384C119.646 62.2371 120.194 62.0901 120.596 61.3947C121.5 59.5065 122.066 55.4756 118.682 55.5604C114.999 55.843 115.076 60.524 116.109 63.0681C116.307 63.3677 116.804 63.4695 117.053 63.5204C116.091 66.952 115.079 70.6323 114.914 73.9678C113.046 69.1794 111.177 64.3909 109.908 59.2067C111.603 58.517 112.309 56.3292 112.864 54.8876C113.469 53.1972 113.627 51.1563 112.69 49.4094C110.911 46.7127 107.177 47.2441 104.832 48.5783C104.532 48.7761 104.481 49.0249 104.233 48.974C103.787 48.6235 102.691 48.9174 102.786 49.7146C102.735 49.9633 102.933 50.2629 102.933 50.2629C101.927 52.6487 102.559 55.8881 105.191 56.9453C105.439 56.9962 105.439 56.9962 105.688 57.0471C106.479 58.2456 107.569 59.2463 108.862 59.2519L109.111 59.3028C110.865 67.178 113.518 74.4596 116.72 81.5943C110.149 82.0634 104.75 76.8113 98.5926 73.9958C99.3953 72.6051 99.7008 71.1126 99.656 70.0667C99.6111 69.0209 97.8712 68.6647 97.4189 69.6088C97.3171 70.1063 96.9667 70.5529 96.3677 70.9486C96.0173 71.3952 96.4126 71.9945 96.6611 72.0454C96.6102 72.2941 96.2598 72.7408 96.2089 72.9895C95.6159 72.0906 94.6726 71.6383 93.9269 71.4857C93.1812 71.333 92.8308 71.7796 92.1809 72.4241C91.6329 72.5711 91.0849 72.7181 91.2316 73.2665C91.1807 73.5152 91.3274 74.0636 91.2764 74.3123C91.0218 75.5561 91.0158 76.8507 91.9082 77.5517C92.3544 77.9023 93.0492 78.3037 93.5972 78.1567C94.5405 78.609 95.5857 78.5638 96.7836 77.7723C97.6312 77.4274 97.7839 76.6812 97.6881 75.8841C104.342 78.8013 110.634 84.7544 117.459 83.0415C120.711 89.9274 124.263 96.6155 128.063 103.354C128.158 104.151 128.254 104.949 128.35 105.746C128.446 106.543 129.242 106.447 129.593 106C131.863 110.093 134.432 113.988 136.702 118.082C131.782 116.815 128.02 112.417 123.705 109.46C119.638 106.554 115.521 103.897 111.753 100.793C116.246 97.8252 114.051 88.3048 107.525 89.8198C101.299 91.137 100.9 101.941 107.77 101.274C108.166 101.873 108.363 102.173 109.307 102.625C110.001 103.026 110.549 102.879 110.9 102.433C115.808 106.288 121.315 109.748 126.523 113.406C130.143 115.961 132.815 119.359 137.741 119.331C144.455 130.813 150.92 142.244 155.34 154.812C151.084 160.42 147.472 166.678 145.103 173.191C138.053 169.675 129.162 166.299 124.565 159.657C129.498 158.334 129.387 150.018 123.625 147.801C114.537 144.126 110.397 156.756 119.798 157.644C119.594 158.639 120.136 159.786 121.181 159.741C121.181 159.741 121.181 159.741 121.43 159.792C121.927 159.894 122.424 159.996 122.673 160.047C127.167 167.187 136.996 172.309 144.549 174.633C140.11 187.46 139.597 201.351 145.852 215.071C145.846 216.366 145.789 217.909 145.783 219.204C145.133 219.849 144.783 220.295 144.133 220.94C143.133 222.031 144.567 223.879 145.568 222.788C145.549 226.672 145.831 230.358 146.31 234.344C142.159 228.052 137.41 222.155 131.813 216.603C129.187 214.251 126.86 211.702 124.533 209.152C124.833 208.954 124.686 208.406 124.488 208.106C117.616 198.665 116.23 186.459 113.295 175.492C110.993 167.763 106.893 161.222 101.997 154.777C90.375 139.439 73.4582 128.46 55.0197 123.649C54.0254 123.446 53.3246 124.339 53.9175 125.238C66.1324 141.474 67.7246 162.793 78.9901 179.872C89.2674 195.453 108.955 199.224 122.934 210.639C123.329 211.238 123.775 211.589 124.171 212.188C137.092 226.237 147.681 239.031 155.658 256.992C159.204 264.974 161.953 273.053 164.402 281.329C161.437 276.835 157.574 272.934 153.609 269.531C153.66 269.282 153.412 269.231 153.463 268.982C134.477 242.807 110.904 197.291 74.1041 213.861C73.7088 213.261 73.059 213.906 73.2057 214.454C72.6576 214.601 72.3581 214.799 71.7592 215.195C70.6122 215.737 71.4476 217.982 72.6455 217.19C73.2445 216.795 73.7925 216.648 74.3406 216.501C83.483 230.035 93.7723 243.027 106.113 253.587C119.347 264.849 136.33 261.587 150.671 269.966C150.92 270.017 151.169 270.068 151.417 270.119C156.274 274.223 160.73 279.023 164.288 284.416C166.782 293.739 168.677 303.457 170.324 313.124C170.618 314.221 172.211 314.029 172.217 312.734C168.259 286.525 161.222 258.908 146.75 235.989C146.277 230.709 146.002 225.728 146.026 220.55C155.079 210.481 160.908 198.456 166.985 186.482C172.872 204.534 178.459 222.783 180.509 241.863C180.656 242.412 180.554 242.909 180.701 243.458C173.071 236.453 168.39 226.424 161.111 218.972C160.913 218.673 160.167 218.52 160.065 219.018L160.014 219.266C159.173 218.317 157.077 219.702 157.867 220.9L158.065 221.2C158.658 222.099 159.251 222.998 159.945 223.399C160.143 223.699 160.341 223.998 160.29 224.247C160.335 225.293 161.628 225.299 162.03 224.603C162.527 224.705 162.928 224.01 162.482 223.659C162.284 223.36 162.087 223.06 161.838 223.009C161.691 222.461 161.296 221.861 161.149 221.313C160.907 219.967 163.03 223.512 163.278 223.563C165.554 226.362 167.282 229.307 169.31 232.055C172.72 236.9 175.883 241.694 180.542 245.498C182.039 266.02 178.711 286.073 173.643 305.769C173.133 308.257 172.376 310.693 171.866 313.181C171.815 313.43 171.815 313.43 171.765 313.678L171.306 315.917C171.255 316.166 171.255 316.166 171.204 316.415C163.635 349.594 159.692 384.035 176.914 415.033C177.456 416.18 179.45 415.293 178.908 414.145C166.622 391.933 165.883 368.974 168.828 345.733C174.908 343.868 177.379 336.857 180.538 331.543C181.035 331.645 181.533 331.747 181.883 331.3C182.832 330.458 182.838 329.163 182.596 327.818C182.5 327.021 181.257 326.766 180.856 327.461C179.002 330.192 177.594 333.273 175.69 336.252C174.084 339.034 172.078 342.511 168.936 343.941C170.17 335.382 171.953 326.676 173.684 318.218C173.933 318.269 174.43 318.371 174.78 317.924C185.822 308.263 192.498 295.893 198.033 282.772C198.83 282.675 199.53 281.782 200.48 280.94C203.582 277.169 207.775 274.399 211.324 270.979C214.472 268.254 217.371 265.478 220.518 262.753C220.417 263.251 220.563 263.799 220.461 264.297C220.309 265.043 221.501 265.546 221.953 264.602C222.456 263.409 222.711 262.165 222.666 261.119C222.965 260.922 223.265 260.724 223.316 260.475C223.615 260.277 223.717 259.78 223.519 259.48C223.073 259.129 222.876 258.83 222.678 258.53C222.232 258.18 221.684 258.327 221.582 258.824C221.429 259.57 220.977 260.514 221.073 261.312C220.174 261.905 218.976 262.697 218.377 263.092C215.23 265.817 212.331 268.593 209.431 271.369C207.182 273.5 204.736 275.332 202.537 277.214C202.238 277.412 200.887 278.95 199.638 279.99C200.192 278.549 200.695 277.356 201.25 275.914C201.549 275.716 201.899 275.27 201.95 275.021C202.001 274.772 202.001 274.772 201.804 274.472C203.517 269.899 205.281 265.077 206.746 260.452C206.994 260.503 207.294 260.305 207.096 260.005C207.147 259.757 207.147 259.757 206.949 259.457C207.554 257.767 208.159 256.076 208.764 254.386C217.979 252.385 223.439 244.691 229.046 237.545C229.294 237.596 229.791 237.697 230.091 237.5L230.39 237.302L230.639 237.353L230.887 237.404C230.887 237.404 230.887 237.404 231.136 237.454C231.136 237.454 231.136 237.454 231.385 237.505C231.385 237.505 231.385 237.505 231.633 237.556C232.379 237.709 233.424 237.664 234.272 237.319C237.311 236.386 239.171 232.361 237.94 229.517C236.856 227.222 234.173 226.413 231.981 227.001C230.337 227.442 229.184 229.28 229.076 231.072C228.827 231.021 228.528 231.219 228.477 231.467C227.923 232.909 227.917 234.204 228.707 235.402C223.847 242.701 217.839 250.542 209.268 253.193C210.376 250.31 211.484 247.427 212.643 244.295C215.728 244.408 217.881 241.479 219.735 238.749C220.13 239.348 220.876 239.501 221.277 238.805C222.43 236.968 221.792 235.023 221.652 233.18C221.46 231.586 219.618 231.727 218.867 232.869C218.465 233.565 218.013 234.509 217.809 235.504C217.759 235.753 217.708 236.001 217.956 236.052C216.752 238.138 215.599 239.976 214.051 241.214C217.522 233.112 221.688 225.413 226.995 218.465C227.193 218.764 227.39 219.064 227.639 219.115C229.124 220.715 231.361 221.173 233.407 220.036C236.402 218.058 237.465 214.129 235.189 211.33C233.557 209.182 230.428 208.023 227.738 208.509C224.45 209.391 223.285 213.817 225.612 216.367C225.86 216.418 225.809 216.667 226.058 216.718C226.058 216.718 226.058 216.718 226.007 216.966C219.502 224.706 215.081 233.649 211.107 242.944C211.107 242.944 211.107 242.944 211.056 243.192C209.445 247.268 207.833 251.344 206.419 255.72C205.258 248.744 202.752 242.011 201.093 234.933C201.341 234.983 201.392 234.735 201.443 234.486C201.398 233.44 201.252 232.892 201.156 232.095L201.404 232.145C204.495 230.964 206.163 225.344 204.136 222.597C202.753 220.499 199.668 220.386 197.425 221.223C195.73 221.913 194.876 223.552 195.316 225.197C194.819 225.096 194.22 225.491 194.367 226.04C194.552 228.929 196.178 232.372 199.263 232.485C200.865 241.106 202.964 249.829 205.662 258.157C205.458 259.152 205.057 259.847 204.853 260.842C203.643 264.223 202.382 267.852 201.172 271.233C201.025 270.685 200.878 270.136 200.783 269.339C200.687 268.542 199.642 268.587 199.291 269.034C198.947 268.186 198.603 267.338 198.258 266.49C197.716 265.342 195.842 261.848 195.503 259.706L195.752 259.757C196.249 259.858 196.549 259.66 196.402 259.112C196.306 258.315 196.561 257.071 195.917 256.421C195.917 256.421 196.165 256.472 196.216 256.223C199.007 255.24 200.167 252.108 198.885 249.513C198.247 247.568 196.067 245.567 193.429 245.804C192.384 245.849 191.186 246.641 190.733 247.585C189.88 249.224 190.071 250.818 190.76 252.514C190.907 253.063 191.703 252.967 191.805 252.469C192.009 251.474 192.264 250.231 192.913 249.586C193.213 249.388 193.264 249.139 193.315 248.891C193.614 248.693 193.614 248.693 193.614 248.693C193.614 248.693 193.863 248.744 194.111 248.795C193.863 248.744 194.806 249.196 194.608 248.896C195.303 249.298 195.501 249.597 196.145 250.248C196.986 251.197 197.031 252.243 196.279 253.385C195.929 253.832 194.731 254.623 194.036 254.222C193.341 253.82 193.15 252.226 193.303 251.48C193.404 250.982 192.71 250.581 192.359 251.028C191.557 252.418 191.302 253.662 192.042 255.109C192.635 256.008 193.329 256.41 194.324 256.613C192.425 258.298 193.808 260.395 194.395 262.589C195.868 266.778 197.641 270.769 199.662 274.812C197.949 279.385 196.236 283.959 194.077 288.182C191.815 292.902 189.306 297.572 186.299 302.14C183.642 306.261 176.856 310.315 175.442 314.69C175.493 314.442 175.295 314.142 175.346 313.893C175.397 313.645 175.149 313.594 175.149 313.594C177.027 305.685 178.656 297.725 180.286 289.765C183.29 275.088 183.656 260.65 182.48 246.154C182.779 245.956 182.881 245.459 182.435 245.108C181.815 239.28 180.947 233.4 179.83 227.47C179.848 223.586 180.612 219.855 181.924 215.976C182.122 216.276 182.619 216.378 182.67 216.129C188.549 203.856 201.9 200.628 213.319 195.449C223.292 191.012 229.893 184.069 235.409 174.832C245.487 158.494 246.483 137.186 234.861 121.848ZM108.728 56.1143L108.779 55.8655C108.632 55.3172 107.835 55.4133 107.982 55.9616C107.931 56.2104 108.18 56.2613 108.129 56.51C107.185 56.0577 106.446 54.6105 106.101 53.7624C105.706 53.1632 105.559 52.6148 105.413 52.0664C105.515 51.5689 105.814 51.371 106.164 50.9244C106.763 50.5287 107.611 50.1839 108.408 50.0878C108.956 49.9408 109.65 50.3422 110.097 50.6927C110.492 51.292 110.537 52.3378 110.333 53.3328C110.129 54.3278 109.728 55.0232 109.276 55.9673C108.728 56.1143 108.728 56.1143 108.728 56.1143ZM108.33 98.5374C108.133 98.2378 107.884 98.1869 107.438 97.8364C106.992 97.4858 106.144 97.8307 106.042 98.3282C105.15 97.6272 104.857 96.5304 105.36 95.3375C106.869 91.7589 112.664 97.6103 108.33 98.5374ZM121.199 155.857L120.951 155.807L120.702 155.756C120.205 155.654 119.906 155.852 119.606 156.05C118.166 155.496 117.375 154.297 116.884 152.901C117.744 149.966 119.439 149.277 121.918 151.08C123.952 152.533 123.984 156.168 121.199 155.857ZM58.4875 126.951C85.85 138.772 93.6951 163.704 105.976 187.211C100.882 180.466 96.0875 173.524 91.2932 166.581C82.3485 153.347 73.1103 139.015 60.2662 129.647C59.6733 128.748 59.0804 127.85 58.4875 126.951ZM79.3975 177.882C72.7226 168.741 69.6925 156.976 66.1591 146.404C65.719 144.759 64.099 140.021 62.4791 135.284C76.7989 158.949 92.655 183.966 113.423 201.435C113.869 201.785 114.27 201.09 114.073 200.79C103.631 188.545 92.7871 176.995 83.3452 163.659C75.8798 153.318 69.2619 142.633 62.3445 132.146C83.259 150.164 96.4707 176.712 113.186 198.795C114.57 200.892 115.756 202.69 117.439 204.59C104.442 195.968 89.1388 191.021 79.3975 177.882ZM114.831 198.354C99.3818 171.347 90.2792 138.642 58.8379 126.504C77.3722 132.113 92.7346 145.624 103.509 161.307C112.109 173.694 111.686 189.676 118.292 202.95C117.355 201.203 116.067 199.903 114.831 198.354ZM81.1209 213.742C95.9448 214.703 107.214 220.379 118.414 230.188C127.631 238.295 132.554 249.67 140.274 258.766C129.17 249.755 121.411 238.318 110.906 228.91C105.456 223.907 99.3496 220.843 92.7912 218.723C88.8712 216.365 84.5498 214.703 80.0248 214.036C80.5728 213.889 80.8723 213.691 81.1209 213.742ZM126.735 248.997C123.612 246.544 120.737 244.141 117.964 241.241C112.367 235.689 106.674 229.34 100.529 223.935C106.138 226.898 111.244 231.053 116.542 236.803C119.857 240.851 123.172 244.898 126.735 248.997ZM75.5385 215.709C75.5895 215.461 75.8889 215.263 76.1375 215.314C76.0866 215.562 76.3351 215.613 76.5837 215.664C82.9954 217.236 88.4129 218.604 93.6775 220.718C103.302 226.836 111.118 236.729 119.144 244.333C125.684 250.337 132.874 255.697 140.115 260.807C125.456 256.511 115.194 248.449 103.898 237.843C95.2284 229.589 86.6608 220.837 75.5385 215.709ZM125.935 260.496C104.508 256.369 90.0293 234.744 77.1706 217.858C89.0774 225.479 98.6841 235.48 109.138 245.136C118.056 253.441 129.262 261.955 141.849 262.458C142.742 263.159 143.883 263.911 144.775 264.612C138.714 262.594 132.398 261.819 125.935 260.496ZM144.934 262.571C127.766 241.433 114.204 215.331 85.1548 213.013C110.697 209.689 129.027 237.804 142.269 257.879C143.703 259.728 144.838 261.774 146.272 263.623C145.826 263.272 145.38 262.922 144.934 262.571ZM178.759 73.3016C179.043 87.0959 172.17 99.1658 166.737 111.79C169.301 95.4684 170.724 78.3952 170.401 62.2604C170.36 49.8116 168.438 35.1636 160.673 25.0213C173.314 35.3842 178.532 57.9639 178.759 73.3016ZM159.373 26.3103C177.823 50.0435 165.654 87.9833 162.978 117.5C160.176 99.5614 157.82 81.9736 159.3 63.357C160.196 52.6551 162.104 38.2729 159.373 26.3103ZM148.932 67.1955C149.447 63.4134 149.962 59.6313 150.478 55.8492C149.33 77.9031 149.724 100.014 158.339 119.919C146.915 104.881 146.853 86.2079 148.932 67.1955ZM161.852 124.267C161.208 123.617 160.812 123.017 160.169 122.367C160.169 122.367 160.22 122.118 160.27 121.87C149.281 88.2601 154.607 55.9171 153.076 21.6518C153.177 21.1543 153.477 20.9564 154.223 21.1091C154.669 21.4596 155.313 22.1097 155.759 22.4603C159.912 38.8608 157.941 56.081 156.619 72.6568C155.444 89.7809 158.597 107.273 161.852 124.267ZM144.972 211.781C138.582 194.923 142.096 177.759 151.524 162.065C155.786 155.162 161.437 149.063 167.433 143.811C168.733 142.522 176.621 136.88 182.407 133.917C161.928 150.459 135.157 182.559 144.978 210.487C145.125 211.035 145.074 211.284 144.972 211.781ZM146.514 211.838C147.144 204.969 148.27 198.202 150.193 191.339C155.3 173.983 166.207 161.184 178.855 148.741C179.205 148.294 178.861 147.446 178.262 147.842C159.191 161.302 148.387 183.712 145.443 206.953C140.649 178.5 164.707 152.065 184.695 134.127C185.045 133.68 184.899 133.132 184.65 133.081C184.95 132.883 185.498 132.736 185.797 132.538C181.334 150.544 171.421 163.547 160.801 178.737C153.538 188.913 147.365 200.09 146.91 212.437C146.661 212.386 146.712 212.137 146.514 211.838ZM166.206 182.695C160.282 193.922 155.403 205.105 147.694 214.93C149.636 182.672 186.149 163.711 187.39 132.346C188.735 132.103 189.43 132.504 189.424 133.799C188.854 149.233 176.392 164.564 169.117 177.33C168.213 179.218 167.359 180.857 166.206 182.695ZM168.087 184.894C169.393 182.31 170.648 179.975 171.953 177.392C173.708 185.267 175.507 194.188 173.629 202.097C171.965 196.314 170.3 190.53 168.087 184.894ZM232.161 231.185C232.262 230.687 232.613 230.241 232.861 230.292C233.46 229.896 234.404 230.348 234.601 230.648C234.799 230.947 234.997 231.247 234.946 231.496C235.041 232.293 234.64 232.988 234.041 233.384C233.64 234.079 232.792 234.424 231.747 234.469L231.798 234.221C231.849 233.972 231.403 233.621 231.205 233.322C231.855 232.677 232.008 231.931 232.161 231.185ZM227.37 212.839C227.522 212.093 228.071 211.946 228.37 211.748C229.766 211.257 231.404 212.11 232.742 213.162C234.081 214.213 234.024 215.757 232.973 217.097C231.571 218.883 229.882 218.278 228.594 216.978C228.594 216.978 228.594 216.978 228.645 216.729C229.295 216.085 228.454 215.135 227.606 215.48C227.459 214.931 227.262 214.632 227.115 214.083C227.166 213.834 227.268 213.337 227.37 212.839ZM197.981 229.89C196.592 229.087 196.101 227.691 196.158 226.147C196.355 226.447 196.802 226.797 197.299 226.899C197.796 227.001 198.395 226.605 198.248 226.057C197.955 224.96 197.61 224.112 199.006 223.62C200.153 223.077 201.447 223.083 202.339 223.784C203.875 225.135 202.168 228.414 201.168 229.505C200.168 230.596 199.122 230.642 197.981 229.89ZM232.669 122.436C232.866 122.736 233.064 123.035 233.262 123.335C233.306 124.381 233.549 125.726 233.345 126.721C232.905 125.076 232.414 123.68 231.674 122.232C231.725 121.984 232.222 122.086 232.669 122.436ZM231.554 126.614C231.995 128.259 232.435 129.904 232.875 131.549C229.96 148.317 214.363 163.785 205.246 176.691C200.035 184.436 193.23 192.374 187.866 200.865C187.669 200.565 187.72 200.317 187.72 200.317C189.392 183.294 204.264 173.899 214.968 162.094C224.021 152.026 231.641 140.109 231.554 126.614ZM209.727 154.801C215.13 148.651 220.284 142.449 225.043 135.648C226.897 132.917 228.503 130.136 229.859 127.304C229.91 127.055 229.961 126.806 230.261 126.608C229.418 147.17 214.579 160.2 200.88 173.983C194.33 180.677 188.673 188.071 187.088 197.077C184.274 181.728 200.82 165.418 209.727 154.801ZM186.542 207.332C185.842 208.226 185.141 209.119 184.44 210.012C191.128 195.053 203.533 181.265 212.694 169.404C219.804 159.974 229.661 148.515 233.501 136.083C234.383 149.482 229.486 164.548 222.223 174.724C213.107 187.631 197.546 195.33 186.695 206.586C186.644 206.835 186.593 207.084 186.542 207.332ZM215.523 192.272C209.138 195.63 200.37 197.982 193.335 201.984C205.473 192.029 220.142 183.628 227.474 169.32C232.748 158.736 236.746 144.264 234.666 131.657C234.869 130.662 235.022 129.916 234.977 128.87C239.028 145.768 233.43 161.727 224.404 176.725C224.053 177.172 224.748 177.574 225.098 177.127C237.057 162.988 240.634 142.986 235.142 125.534L235.193 125.285C250.519 146.565 236.176 181.209 215.523 192.272Z" fill="#FED783"/>
<path d="M100.759 68.4772C101.007 68.5281 101.307 68.3302 101.555 68.3811C103.041 69.981 105.086 68.8447 106.188 67.2561C107.641 65.2209 108.003 62.185 105.422 60.8791C103.535 59.9745 100.846 60.4607 99.4953 61.9984C97.2971 63.8809 97.7761 67.8666 100.759 68.4772ZM103.619 63.3609C104.116 63.4627 104.365 63.5135 104.562 63.8132C104.562 63.8132 104.562 63.8132 104.76 64.1128C104.76 64.1128 104.658 64.6103 104.607 64.859C104.505 65.3565 103.601 67.2448 103.155 66.8942C102.211 66.442 101.72 65.0456 101.427 63.9488C102.077 63.3043 102.873 63.2082 103.619 63.3609Z" fill="#FED783"/>
<path d="M132.775 85.3991C132.972 85.6987 133.17 85.9983 133.317 86.5467C133.164 87.293 133.26 88.0901 133.406 88.6385C133.553 89.1869 134.35 89.0908 134.649 88.8929C134.7 88.6442 134.949 88.695 135 88.4463C135.248 88.4972 135.497 88.5481 135.994 88.6498C137.887 88.2598 138.243 86.5185 138.549 85.026C138.701 84.2798 138.057 83.6296 137.312 83.477C136.018 83.4713 134.922 83.7653 133.922 84.8564C133.329 83.9575 132.43 84.5511 132.775 85.3991Z" fill="#FED783"/>
<path d="M130.126 151.465C127.335 152.448 126.718 156.728 128.949 158.48C129.395 158.831 129.943 158.684 130.045 158.186C130.587 159.334 131.677 160.335 133.022 160.092C134.367 159.849 135.768 158.062 136.271 156.869C136.724 155.925 136.73 154.631 136.188 153.483C135.053 151.436 132.37 150.628 130.126 151.465ZM133.645 154.517C134.091 154.868 134.04 155.117 133.888 155.863C133.735 156.609 133.034 157.502 132.486 157.649C131.887 158.045 131.052 155.801 130.561 154.404C130.612 154.156 130.86 154.206 130.911 153.958C131.809 153.364 133.001 153.867 133.645 154.517Z" fill="#FED783"/>
<path d="M120.494 168.153C120.839 169.001 122.133 169.007 122.929 168.911C123.477 168.764 123.828 168.317 123.681 167.769C123.585 166.972 122.941 166.322 122.546 165.722C122.004 164.575 120.309 165.264 120.354 166.31C120.354 166.31 120.303 166.559 120.551 166.61C120.501 166.859 120.45 167.107 120.399 167.356C120.348 167.605 120.545 167.905 120.494 168.153Z" fill="#FED783"/>
<path d="M161.817 216.785C161.964 217.333 162.359 217.932 163.054 218.334C164.443 219.137 166.087 218.696 167.285 217.904C169.133 216.468 168.151 213.676 166.863 212.375C165.626 210.826 163.344 209.322 161.101 210.159C160.005 210.453 159.502 211.646 159.298 212.641C159.044 213.885 159.58 216.327 160.969 217.13C161.02 216.881 161.517 216.983 161.817 216.785ZM162.033 213.201C162.084 212.952 162.084 212.952 162.134 212.703C162.185 212.454 162.134 212.703 162.185 212.454C162.185 212.454 162.185 212.454 162.434 212.505C162.683 212.556 162.682 212.556 162.931 212.607C163.428 212.709 163.874 213.059 164.27 213.658C164.27 213.658 164.716 214.009 164.913 214.309C165.162 214.36 165.557 214.959 165.309 214.908L165.506 215.208L165.455 215.456C165.156 215.654 164.907 215.603 164.608 215.801C163.76 216.146 163.32 214.501 162.925 213.902C162.727 213.602 162.479 213.551 162.23 213.5C161.982 213.449 161.982 213.449 162.033 213.201Z" fill="#FED783"/>
<path d="M238.109 236.29C234.922 236.675 233.56 240.802 235.09 243.448C235.925 245.692 238.105 247.693 240.597 246.908C243.637 245.975 245.892 242.549 244.413 239.654C243.278 237.608 240.747 236.053 238.109 236.29ZM240.959 243.872C239.309 245.607 237.378 243.657 236.491 241.661C236.593 241.164 236.695 240.666 237.045 240.22C237.096 239.971 237.447 239.524 237.447 239.524C237.746 239.326 238.046 239.128 238.046 239.128C239.142 238.834 240.582 239.389 241.672 240.389C242.068 240.988 242.265 241.288 242.163 241.786C242.208 242.831 241.609 243.227 240.959 243.872Z" fill="#FED783"/>
<path d="M225.643 263.024C224.993 263.669 224.592 264.364 224.439 265.11C224.236 266.105 225.077 267.055 226.122 267.01C226.371 267.061 226.67 266.863 226.721 266.614C227.11 268.508 227.946 270.752 229.788 270.611C231.381 270.419 231.54 268.378 231.495 267.332C231.501 266.037 231.258 264.692 230.468 263.493C229.531 261.746 227.141 262.035 225.643 263.024ZM229.156 267.372L229.105 267.62C228.461 266.97 227.97 265.574 227.823 265.025C227.874 264.777 227.626 264.726 227.626 264.726C227.925 264.528 228.473 264.381 228.671 264.681C228.869 264.98 229.015 265.529 229.213 265.828C229.111 266.326 229.258 266.874 229.156 267.372Z" fill="#FED783"/>
<path d="M209.139 248.762C209.762 243.187 209.939 237.263 211.059 231.79C211.257 232.09 211.455 232.389 211.404 232.638C211.799 233.237 212.647 232.893 212.997 232.446L213.048 232.197C213.596 232.05 214.195 231.655 214.348 230.908C214.5 230.162 214.354 229.614 214.258 228.816C216.552 227.731 217.609 225.097 216.774 222.852C216.136 220.907 214.453 219.008 212.165 218.799C209.329 218.736 208.119 222.117 209.203 224.412C209.203 224.412 209.203 224.412 209.401 224.712C209.446 225.758 209.688 227.103 210.281 228.002C208.358 234.866 208.525 241.638 208.094 248.807C208.291 249.106 209.286 249.31 209.139 248.762ZM211.503 222.032C211.503 222.032 211.853 221.586 211.803 221.835C211.803 221.835 212.051 221.885 212.102 221.637C212.102 221.637 212.102 221.637 212.351 221.688C212.848 221.789 213.096 221.84 213.543 222.191C213.989 222.541 214.135 223.09 214.582 223.44C214.926 224.288 214.971 225.334 214.321 225.978C214.174 225.43 213.977 225.13 213.83 224.582C213.435 223.983 212.44 223.779 212.039 224.475C211.79 224.424 211.74 224.673 211.491 224.622C211.045 224.271 210.898 223.723 210.949 223.474C211.051 222.976 211.401 222.53 211.503 222.032Z" fill="#FED783"/>
<path d="M226.685 252.871C227.38 253.272 228.228 252.928 228.629 252.232C228.979 251.786 229.33 251.339 229.183 250.791C229.036 250.242 228.94 249.445 228.545 248.846C228.398 248.297 227.704 247.896 226.907 247.992C226.11 248.088 225.76 248.535 225.607 249.281C225.505 249.779 225.404 250.276 225.601 250.576C224.505 250.87 223.409 251.164 222.511 251.757C219.668 252.99 217.171 255.07 213.933 255.703C213.137 255.799 213.131 257.094 213.927 256.998C214.922 257.201 215.718 257.105 216.515 257.009C216.763 257.06 216.814 256.811 216.865 256.563C217.713 256.218 218.56 255.873 219.408 255.528C221.052 255.087 225.296 252.068 226.685 252.871Z" fill="#FED783"/>
<path d="M113.433 114.096C112.846 111.903 109.66 112.287 109.947 114.678L109.896 114.927C108.851 114.972 108.003 115.317 107.551 116.261C106.997 117.703 107.787 118.902 108.629 119.851C109.273 120.501 110.018 120.654 110.815 120.558C111.504 122.254 112.193 123.95 113.48 125.25C113.875 125.85 114.723 125.505 114.627 124.708C114.34 122.316 114.002 120.174 113.714 117.782C113.816 117.285 113.72 116.488 113.822 115.99C114.37 115.843 115.167 115.747 115.963 115.651C119.946 115.17 123.822 116.482 127.556 115.951C128.353 115.855 128.308 114.809 127.613 114.407C123.088 113.74 118.015 113.22 113.433 114.096Z" fill="#FED783"/>
<path d="M213.142 276.015C213.091 276.264 213.091 276.264 213.04 276.513C211.199 276.654 209.204 277.542 207.758 278.282C205.712 279.419 201.271 282.138 200.513 284.574C200.309 285.569 201.501 286.073 201.953 285.129C202.457 283.936 205.949 282.059 207.147 281.267C208.045 280.674 211.639 278.299 213.678 278.458C213.825 279.006 214.271 279.357 214.966 279.758C215.214 279.809 215.214 279.809 215.463 279.86C216.056 280.759 217.598 280.815 217.604 279.521C217.661 277.977 217.17 276.581 216.431 275.134C215.245 273.336 212.951 274.421 213.142 276.015Z" fill="#FED783"/>
<path d="M162.409 239.195C162.561 238.448 162.714 237.702 162.618 236.905L162.669 236.656C162.969 236.458 162.969 236.458 163.268 236.261C166.308 235.328 169.635 236.786 172.318 237.595C172.816 237.697 173.465 237.052 173.019 236.702C171.285 235.051 168.404 233.943 165.817 233.931C165.721 233.134 165.077 232.484 164.332 232.332C162.095 231.874 159.902 232.461 159.145 234.898C158.438 237.086 159.273 239.33 161.459 240.037C161.708 240.088 162.307 239.692 162.409 239.195Z" fill="#FED783"/>
</g>
<defs>
<clipPath id="clip0">
<rect width="212.108" height="387.209" fill="white" transform="translate(77.9902 0.0605469) rotate(11.5694)"/>
</clipPath>
</defs>
</svg>
