<svg width="46" height="46" viewBox="0 0 46 46" fill="none" xmlns="http://www.w3.org/2000/svg">
<circle cx="23" cy="23" r="23" fill="url(#paint0_linear)"/>
<g clip-path="url(#clip0)">
<path d="M17.1523 20.1074C17.1523 20.3771 16.9337 20.5957 16.664 20.5957C16.3943 20.5957 16.1758 20.3771 16.1758 20.1074C16.1758 19.8377 16.3943 19.6191 16.664 19.6191C16.9337 19.6191 17.1523 19.8377 17.1523 20.1074Z" fill="white"/>
<path d="M23.2292 34.918C23.3112 34.9726 23.4056 35.0001 23.5 35.0001C23.5944 35.0001 23.6888 34.9726 23.7709 34.918L28.2114 31.9574C31.0705 30.0516 32.7774 26.8621 32.7774 23.4257V13.4315C32.7774 13.2217 32.6431 13.0352 32.4442 12.9686L23.6551 10.0252C23.5544 9.99161 23.4455 9.99161 23.3449 10.0252L14.5559 12.9686C14.3567 13.0352 14.2226 13.2217 14.2226 13.4315V23.4257C14.2226 26.8621 15.9295 30.0516 18.7887 31.9574L23.2292 34.918ZM15.1992 23.4257V13.783L23.5 11.0031L31.8008 13.783V23.4257C31.8008 26.5348 30.2564 29.4205 27.6697 31.1449L23.5 33.9249L19.3303 31.1449C16.7436 29.4207 15.1992 26.5348 15.1992 23.4257Z" fill="white"/>
<path d="M23.2292 32.5709C23.3112 32.6255 23.4056 32.6529 23.5 32.6529C23.5944 32.6529 23.6888 32.6255 23.7708 32.5709L27.1278 30.3326C29.4424 28.7898 30.8242 26.208 30.8242 23.4263V14.8394C30.8242 14.6296 30.6901 14.443 30.4912 14.3765L23.6553 12.0844C23.5546 12.0506 23.4455 12.0506 23.3447 12.0844L16.5088 14.3765C16.3099 14.443 16.1758 14.6296 16.1758 14.8394V18.1544C16.1758 18.4239 16.3943 18.6426 16.664 18.6426C16.9336 18.6426 17.1523 18.4239 17.1523 18.1544V15.1907L23.5 13.0623L29.8477 15.1907V23.4263C29.8477 25.8809 28.6283 28.1588 26.5861 29.5201L23.5 31.5777L20.4139 29.5199C18.3715 28.1588 17.1523 25.8807 17.1523 23.4263V22.0606C17.1523 21.7909 16.9336 21.5723 16.664 21.5723C16.3943 21.5723 16.1758 21.7909 16.1758 22.0606V23.4263C16.1758 26.2082 17.5576 28.79 19.8722 30.3326L23.2292 32.5709Z" fill="white"/>
<path d="M21.4878 26.026C21.7643 26.3027 22.1322 26.4551 22.5234 26.4551C22.9146 26.4551 23.2824 26.3027 23.5591 26.026L27.4654 22.1197C28.0378 21.5473 28.038 20.6209 27.4654 20.0485C26.893 19.4761 25.9666 19.4759 25.394 20.0483L22.5234 22.9191L21.606 22.0017C21.0338 21.4293 20.1072 21.4291 19.5346 22.0017C18.962 22.5741 18.962 23.5005 19.5346 24.073L21.4878 26.026ZM20.2251 22.6921C20.416 22.5014 20.7246 22.5014 20.9154 22.6921L22.178 23.9548C22.3688 24.1453 22.6779 24.1453 22.8687 23.9548L26.0845 20.739C26.2754 20.5483 26.5838 20.5483 26.7749 20.739C26.9657 20.9297 26.9657 21.2383 26.7747 21.4293L22.8685 25.3355C22.7762 25.4278 22.6537 25.4788 22.5234 25.4788C22.3932 25.4788 22.2705 25.4278 22.1782 25.3355L20.2251 23.3824C20.0343 23.1917 20.0342 22.8831 20.2251 22.6921Z" fill="white"/>
</g>
<defs>
<linearGradient id="paint0_linear" x1="0" y1="0" x2="51.4762" y2="52.5714" gradientUnits="userSpaceOnUse">
<stop stop-color="#FF5C01"/>
<stop offset="1" stop-color="#FFBB01"/>
</linearGradient>
<clipPath id="clip0">
<rect width="25" height="25" fill="white" transform="translate(11 10)"/>
</clipPath>
</defs>
</svg>
