<svg width="49" height="49" viewBox="0 0 49 49" fill="none" xmlns="http://www.w3.org/2000/svg">
<circle cx="24.5" cy="24.5" r="23" stroke="white" stroke-width="3"/>
<g clip-path="url(#clip0)">
<path d="M31.4231 13.68C31.0817 13.8372 30.7641 14.0415 30.4794 14.2869C30.3262 14.4231 30.2834 14.6451 30.3747 14.8286L30.8504 15.9141C30.2737 16.7904 29.4357 17.4629 28.4553 17.8362C28.1766 17.9583 27.9562 18.0549 27.8145 18.0823L23.9663 16.6998C23.6811 16.6144 23.3738 16.6441 23.1102 16.7825C21.6337 17.4295 18.9897 20.5712 17.6671 22.3952C16.1011 24.5687 12.1344 27.1696 12.0965 27.1962L12.0201 27.2594C10.2469 29.1073 10.9765 30.9194 11.6389 31.6504C13.5847 34.4615 20.4381 31.6714 21.9812 30.9952L36.8373 24.4851C37.067 24.3844 37.1716 24.1166 37.0709 23.8869L36.0995 21.6701C36.2067 21.3249 36.2169 20.9568 36.129 20.6062C36.1215 20.5847 36.1123 20.5638 36.1017 20.5438L33.3679 14.3052C33.0127 13.5288 32.2841 13.3027 31.4231 13.68ZM16.5826 24.8981L17.569 25.6557C17.7719 25.8064 18.0585 25.764 18.2092 25.5611C18.3599 25.3582 18.3175 25.0715 18.1146 24.9209L17.2397 24.2482C17.5331 23.9561 17.8062 23.6629 18.0489 23.3681L19.2082 24.1243C19.4163 24.2643 19.6985 24.209 19.8384 24.0009C19.9783 23.7928 19.923 23.5106 19.7149 23.3707C19.7108 23.3679 19.7066 23.3652 19.7023 23.3625L18.6059 22.6482C18.8307 22.3464 19.0637 22.041 19.3111 21.7343L20.675 22.5843C20.8817 22.7263 21.1644 22.674 21.3065 22.4674C21.4486 22.2607 21.3963 21.978 21.1896 21.8359C21.1766 21.827 21.1632 21.8187 21.1494 21.8112L19.8754 21.0309C20.1653 20.6857 20.4613 20.3428 20.752 20.0221L22.3449 21.0097C22.5561 21.1449 22.837 21.0833 22.9722 20.8721C23.1075 20.6609 23.0459 20.3801 22.8347 20.2448C22.8316 20.2428 22.8284 20.2409 22.8253 20.239L21.4134 19.3703C22.0071 18.6908 22.7042 18.1092 23.4792 17.6471C23.535 17.613 23.5952 17.5866 23.658 17.5687L26.0051 18.3993C25.328 21.3208 23.7555 23.958 21.5073 25.9428C20.1924 26.0723 18.8941 26.3355 17.6326 26.7285C16.5301 27.1221 15.3315 27.1581 14.2073 26.8315C14.9589 26.2839 15.7936 25.6206 16.5826 24.8981ZM12.6403 27.9395C12.7443 27.8939 12.9813 27.7107 13.3145 27.4755C14.8024 28.07 16.4556 28.1032 17.9661 27.5689C19.3636 27.0358 22.6546 26.6943 24.9337 26.4987L23.1121 27.297C15.5928 30.6267 13.0696 31.0234 12.2136 30.9028C11.9539 30.5704 11.2722 29.3768 12.6403 27.9395ZM36.055 23.8314L21.8145 30.0718C19.9954 30.8987 15.5068 32.5235 13.316 31.7781C14.7649 31.5547 17.6209 30.7295 23.5143 28.147C24.8951 27.5419 26.2884 26.9313 27.5891 26.3018C28.824 25.726 29.9846 25.1727 31.0186 24.67C33.5304 23.4553 35.2691 22.5695 35.288 22.5562C35.3479 22.5346 35.4062 22.5091 35.4627 22.4797L36.055 23.8314ZM35.2535 20.8709C35.2814 21.0024 35.362 21.5372 34.8921 21.7431C34.863 21.7559 33.3767 22.5163 31.175 23.5901C30.7275 20.3853 32.8591 18.3258 33.8137 17.5852L35.2535 20.8709ZM30.3162 24.0061C29.3867 24.4531 28.3615 24.942 27.2828 25.4445C26.8507 25.4653 25.0234 25.572 23.0121 25.7791C24.8955 23.8082 26.2234 21.3738 26.8609 18.7233L27.6354 19.0085C27.7229 19.0395 27.8179 19.0429 27.9074 19.0183C28.2149 18.9286 28.516 18.8182 28.8086 18.6878C29.8068 18.2504 31.1246 17.4448 31.7379 16.0953C31.7906 15.9785 31.7914 15.8448 31.7403 15.7274L31.3229 14.775C31.4626 14.6766 31.6112 14.5915 31.7668 14.5209C32.3366 14.2712 32.4543 14.5171 32.5314 14.6817L33.44 16.7326C32.4527 17.4776 29.5915 20.0105 30.3162 24.0061Z" fill="white"/>
</g>
<defs>
<clipPath id="clip0">
<rect width="27" height="27" fill="white" transform="translate(5 16.8369) rotate(-23.6637)"/>
</clipPath>
</defs>
</svg>
