<svg width="46" height="45" viewBox="0 0 46 45" fill="none" xmlns="http://www.w3.org/2000/svg">
<ellipse cx="23" cy="22.5" rx="23" ry="22.5" fill="url(#paint0_linear)"/>
<g clip-path="url(#clip0)">
<path d="M15.7031 19.3281H14.7969V22.0469H15.7031V19.3281Z" fill="white"/>
<path d="M34.7344 11.625H32.3133C32.0156 11.6242 31.7208 11.6824 31.4458 11.7963C31.1708 11.9102 30.9211 12.0776 30.7112 12.2886L29.203 13.7968L25.4842 17.5156H23.7814C23.7317 17.3756 23.6593 17.2447 23.5671 17.1281L27.6056 10.733C27.6382 10.6813 27.6601 10.6235 27.6698 10.5631C27.6795 10.5027 27.6769 10.441 27.6622 10.3817C27.6474 10.3224 27.6208 10.2666 27.5839 10.2178C27.547 10.1691 27.5007 10.1282 27.4476 10.0979C26.5505 9.58352 25.5714 9.22797 24.5533 9.04689C24.025 8.9533 23.4896 8.90624 22.9531 8.90625H22.0469C20.8567 8.90603 19.6782 9.1403 18.5786 9.59565C17.4789 10.051 16.4798 10.7185 15.6382 11.5601C14.7967 12.4017 14.1291 13.4008 13.6738 14.5004C13.2184 15.6 12.9842 16.7786 12.9844 17.9688V22.0469C12.9849 22.5274 13.176 22.9881 13.5158 23.3279C13.8556 23.6677 14.3163 23.8588 14.7969 23.8594H19.1404L18.4389 24.5612L16.367 26.633C16.1559 26.8428 15.9885 27.0925 15.8746 27.3674C15.7606 27.6424 15.7023 27.9372 15.7031 28.2349V30.0567C15.244 30.2744 14.8439 30.5992 14.5366 31.0038C14.2292 31.4085 14.0236 31.881 13.937 32.3817C13.8504 32.8824 13.8853 33.3965 14.0389 33.8809C14.1925 34.3652 14.4602 34.8056 14.8195 35.1649C15.1788 35.5242 15.6191 35.7919 16.1035 35.9455C16.5878 36.0991 17.102 36.134 17.6027 36.0474C18.1034 35.9608 18.5759 35.7552 18.9805 35.4478C19.3852 35.1404 19.71 34.7404 19.9277 34.2813H25.6743C26.2121 34.9986 26.9505 35.5404 27.7963 35.838C28.642 36.1356 29.557 36.1756 30.4255 35.953C31.294 35.7304 32.077 35.2552 32.6754 34.5875C33.2737 33.9198 33.6606 33.0896 33.787 32.202C33.9134 31.3144 33.7737 30.4092 33.3855 29.6011C32.9974 28.7929 32.3782 28.118 31.6064 27.6618C30.8345 27.2056 29.9447 26.9886 29.0495 27.0382C28.1543 27.0878 27.294 27.4019 26.5773 27.9406L25.6719 27.2887V23.8594H30.2031C30.6837 23.8588 31.1444 23.6677 31.4842 23.3279C31.824 22.9881 32.0151 22.5274 32.0156 22.0469V17.9688C32.0156 17.8486 31.9679 17.7333 31.8829 17.6483C31.7979 17.5634 31.6827 17.5156 31.5625 17.5156H29.4846L31.2032 15.797L32.6564 14.3438H34.7344C35.0949 14.3438 35.4407 14.2005 35.6956 13.9456C35.9505 13.6907 36.0938 13.3449 36.0938 12.9844C36.0938 12.6238 35.9505 12.2781 35.6956 12.0232C35.4407 11.7682 35.0949 11.625 34.7344 11.625ZM24.3125 22.5C24.0436 22.5 23.7808 22.4203 23.5573 22.2709C23.3337 22.1215 23.1595 21.9092 23.0566 21.6608C22.9537 21.4124 22.9268 21.1391 22.9792 20.8754C23.0317 20.6117 23.1612 20.3695 23.3513 20.1794C23.5414 19.9893 23.7836 19.8598 24.0473 19.8074C24.311 19.7549 24.5843 19.7818 24.8327 19.8847C25.0811 19.9876 25.2934 20.1618 25.4428 20.3854C25.5921 20.6089 25.6719 20.8718 25.6719 21.1406C25.6715 21.501 25.5281 21.8465 25.2733 22.1014C25.0184 22.3562 24.6729 22.4996 24.3125 22.5ZM18.4219 30.0567V28.5783L20.3879 26.6123L25.0545 29.9723C24.8632 30.4806 24.7653 31.0194 24.7656 31.5625H19.9277C19.6129 30.903 19.0814 30.3714 18.4219 30.0567ZM22.236 22.0455C22.3752 22.3631 22.5851 22.6447 22.8498 22.8688L21.4615 24.257L20.626 23.6555L22.236 22.0455ZM19.9767 24.3047L20.8121 24.9063L20.2917 25.4267L19.4562 24.8252L19.9767 24.3047ZM25.4637 29.1506L21.0368 25.9634L21.5572 25.443L25.8993 28.5692C25.7388 28.7511 25.5932 28.9455 25.4637 29.1506ZM22.2065 24.7939L22.9531 24.0471V25.3312L22.2065 24.7939ZM25.2173 19.0644L29.5234 14.758L30.242 15.4766L26.0407 19.6779C25.8165 19.4133 25.5349 19.2033 25.2173 19.0641V19.0644ZM22.5 17.5156C22.5896 17.5156 22.6772 17.5422 22.7517 17.592C22.8263 17.6418 22.8843 17.7125 22.9186 17.7953C22.9529 17.8781 22.9619 17.9693 22.9444 18.0572C22.9269 18.145 22.8838 18.2258 22.8204 18.2892C22.757 18.3525 22.6763 18.3957 22.5884 18.4132C22.5005 18.4307 22.4094 18.4217 22.3266 18.3874C22.2438 18.3531 22.173 18.295 22.1232 18.2205C22.0735 18.146 22.0469 18.0584 22.0469 17.9688C22.047 17.8486 22.0948 17.7334 22.1797 17.6485C22.2647 17.5635 22.3799 17.5158 22.5 17.5156ZM23.5501 15.4579L24.8154 10.0269C25.4261 10.1689 26.0181 10.3816 26.5795 10.6608L23.5501 15.4579ZM22.9531 9.8125C23.2768 9.81265 23.6002 9.83177 23.9217 9.86976L22.4021 16.3916L20.0677 10.0556C20.7151 9.89416 21.3797 9.81252 22.0469 9.8125H22.9531ZM19.2006 10.3233L21.611 16.866L15.5648 13.0184C16.5 11.7968 17.7599 10.8629 19.2006 10.3233ZM15.0553 13.7684L20.9438 17.5156H13.903C13.9743 16.191 14.37 14.9042 15.0553 13.7684ZM13.8906 22.0469V18.4219H21.2186C21.3123 18.6868 21.4859 18.9161 21.7154 19.0783C21.9449 19.2405 22.219 19.3276 22.5 19.3276C22.781 19.3276 23.0551 19.2405 23.2846 19.0783C23.5141 18.9161 23.6877 18.6868 23.7814 18.4219H24.5779L24.1157 18.8841C23.5852 18.931 23.0882 19.1632 22.7116 19.5397C22.335 19.9163 22.1029 20.4134 22.0559 20.9439L20.0467 22.9531H14.7969C14.5566 22.9528 14.3263 22.8573 14.1564 22.6874C13.9865 22.5175 13.8909 22.2871 13.8906 22.0469ZM16.6094 28.2349C16.6104 27.8747 16.7534 27.5295 17.0074 27.2741L18.807 25.4744L19.6425 26.076L17.7809 27.9375C17.6965 28.0214 17.6296 28.1213 17.5841 28.2312C17.5385 28.3412 17.5153 28.4591 17.5156 28.5781V29.7829C17.2151 29.739 16.9099 29.739 16.6094 29.7829V28.2349ZM17.0625 35.1875C16.6144 35.1875 16.1764 35.0546 15.8038 34.8057C15.4312 34.5567 15.1408 34.2029 14.9693 33.7889C14.7979 33.3749 14.753 32.9194 14.8404 32.4799C14.9278 32.0404 15.1436 31.6367 15.4605 31.3198C15.7773 31.003 16.181 30.7872 16.6205 30.6998C17.06 30.6124 17.5155 30.6572 17.9295 30.8287C18.3435 31.0002 18.6973 31.2906 18.9463 31.6632C19.1952 32.0357 19.3281 32.4738 19.3281 32.9219C19.3275 33.5226 19.0885 34.0984 18.6638 34.5232C18.2391 34.9479 17.6632 35.1868 17.0625 35.1875ZM20.2015 33.375C20.2453 33.0745 20.2453 32.7692 20.2015 32.4688H24.8568C24.9206 32.7802 25.0172 33.084 25.1451 33.375H20.2015ZM32.9219 31.5625C32.9219 32.2795 32.7093 32.9803 32.311 33.5764C31.9126 34.1726 31.3465 34.6372 30.6841 34.9116C30.0217 35.1859 29.2929 35.2577 28.5897 35.1178C27.8865 34.978 27.2406 34.6327 26.7336 34.1258C26.2266 33.6188 25.8814 32.9729 25.7415 32.2697C25.6017 31.5665 25.6734 30.8377 25.9478 30.1753C26.2222 29.5129 26.6868 28.9467 27.2829 28.5484C27.8791 28.1501 28.5799 27.9375 29.2969 27.9375C30.258 27.9386 31.1794 28.3208 31.8589 29.0004C32.5385 29.68 32.9208 30.6014 32.9219 31.5625ZM23.8594 25.9837V23.3609C24.1584 23.4217 24.4666 23.4217 24.7656 23.3609V26.6365L23.8594 25.9837ZM31.1094 18.4219V22.0469C31.1091 22.2871 31.0135 22.5175 30.8436 22.6874C30.6737 22.8573 30.4434 22.9528 30.2031 22.9531H25.6719V22.9519C26.04 22.6764 26.3153 22.2952 26.4612 21.8592C26.6071 21.4232 26.6167 20.9531 26.4886 20.5116L28.5783 18.4219H31.1094ZM34.7344 13.4375H32.4688C32.4092 13.4375 32.3503 13.4492 32.2953 13.472C32.2404 13.4948 32.1904 13.5281 32.1483 13.5702L30.8828 14.8357L30.1643 14.1172L31.352 12.9294C31.4779 12.8028 31.6277 12.7024 31.7927 12.6341C31.9578 12.5657 32.1347 12.5308 32.3133 12.5313H34.7344C34.8546 12.5313 34.9698 12.579 35.0548 12.664C35.1398 12.7489 35.1875 12.8642 35.1875 12.9844C35.1875 13.1046 35.1398 13.2198 35.0548 13.3048C34.9698 13.3898 34.8546 13.4375 34.7344 13.4375Z" fill="white"/>
<path d="M29.2969 34.2812C29.8346 34.2812 30.3602 34.1218 30.8073 33.823C31.2544 33.5243 31.6029 33.0997 31.8087 32.6029C32.0144 32.1061 32.0683 31.5595 31.9634 31.0321C31.8585 30.5047 31.5995 30.0202 31.2193 29.64C30.8391 29.2598 30.3547 29.0009 29.8273 28.896C29.2999 28.7911 28.7532 28.8449 28.2565 29.0507C27.7597 29.2564 27.3351 29.6049 27.0363 30.052C26.7376 30.4991 26.5781 31.0248 26.5781 31.5625C26.5789 32.2833 26.8656 32.9743 27.3753 33.484C27.885 33.9937 28.5761 34.2804 29.2969 34.2812ZM27.4844 31.5625C27.4844 31.3986 27.5068 31.2354 27.5508 31.0776L28.3906 31.5625L27.5508 32.0474C27.5068 31.8895 27.4844 31.7264 27.4844 31.5625ZM31.1094 31.5625C31.1093 31.7264 31.087 31.8895 31.043 32.0474L30.2031 31.5625L31.043 31.0776C31.087 31.2354 31.1093 31.3986 31.1094 31.5625ZM28.0047 32.8318L28.8437 32.3473V33.3176C28.5251 33.2349 28.2351 33.0669 28.0047 32.8318ZM29.75 33.3176V32.3473L30.5891 32.8318C30.3587 33.0669 30.0686 33.2349 29.75 33.3176ZM30.5891 30.293L29.75 30.7776V29.8073C30.0686 29.8901 30.3587 30.058 30.5891 30.2932V30.293ZM28.8437 29.8073V30.7776L28.0047 30.2932C28.2351 30.058 28.5251 29.8901 28.8437 29.8073Z" fill="white"/>
<path d="M17.0625 31.5625C16.7936 31.5625 16.5308 31.6422 16.3073 31.7916C16.0837 31.941 15.9095 32.1533 15.8066 32.4017C15.7037 32.6501 15.6768 32.9234 15.7292 33.1871C15.7817 33.4508 15.9112 33.693 16.1013 33.8831C16.2914 34.0732 16.5336 34.2027 16.7973 34.2551C17.061 34.3076 17.3343 34.2807 17.5827 34.1778C17.8311 34.0749 18.0434 33.9007 18.1928 33.6771C18.3421 33.4536 18.4219 33.1907 18.4219 32.9219C18.4215 32.5615 18.2781 32.2159 18.0233 31.9611C17.7684 31.7063 17.4229 31.5629 17.0625 31.5625ZM17.0625 33.375C16.9729 33.375 16.8853 33.3484 16.8108 33.2986C16.7362 33.2488 16.6782 33.1781 16.6439 33.0953C16.6096 33.0125 16.6006 32.9214 16.6181 32.8335C16.6356 32.7456 16.6787 32.6648 16.7421 32.6015C16.8055 32.5381 16.8862 32.4949 16.9741 32.4775C17.062 32.46 17.1531 32.4689 17.2359 32.5032C17.3187 32.5375 17.3895 32.5956 17.4393 32.6701C17.4891 32.7447 17.5156 32.8323 17.5156 32.9219C17.5155 33.042 17.4677 33.1572 17.3828 33.2421C17.2978 33.3271 17.1826 33.3749 17.0625 33.375Z" fill="white"/>
</g>
<defs>
<linearGradient id="paint0_linear" x1="0" y1="0" x2="50.3217" y2="52.5344" gradientUnits="userSpaceOnUse">
<stop stop-color="#FF5C01"/>
<stop offset="1" stop-color="#FFBB01"/>
</linearGradient>
<clipPath id="clip0">
<rect width="29" height="29" fill="white" transform="translate(7 7)"/>
</clipPath>
</defs>
</svg>
