<svg width="130" height="130" viewBox="0 0 130 130" fill="none" xmlns="http://www.w3.org/2000/svg">
<g filter="url(#filter0_d)">
<circle cx="65" cy="60" r="50" fill="#FED233"/>
</g>
<path d="M90 62C90 59.6436 88.2879 57.6974 86.0938 57.443V51.1975C86.0938 50.3532 85.4379 49.6688 84.6289 49.6688H80.2344V47.5287C80.2344 46.6844 79.5785 46 78.7695 46H72.9102C72.1012 46 71.4453 46.6844 71.4453 47.5287V57.414H58.5547V47.5287C58.5547 46.6844 57.8988 46 57.0898 46H51.2305C50.4215 46 49.7656 46.6844 49.7656 47.5287V49.6688H45.3711C44.5621 49.6688 43.9062 50.3532 43.9062 51.1975V57.443C41.7121 57.6974 40 59.6436 40 62C40 64.3564 41.7121 66.3026 43.9062 66.557V72.8025C43.9062 73.6468 44.5621 74.3312 45.3711 74.3312H49.7656V76.4713C49.7656 77.3156 50.4215 78 51.2305 78H57.0898C57.8988 78 58.5547 77.3156 58.5547 76.4713V66.586H71.4453V76.4713C71.4453 77.3156 72.1012 78 72.9102 78H78.7695C79.5785 78 80.2344 77.3156 80.2344 76.4713V74.3312H84.6289C85.4379 74.3312 86.0938 73.6468 86.0938 72.8025V66.557C88.2879 66.3026 90 64.3564 90 62ZM43.9062 60.5605V63.4395C42.6077 62.9582 42.6076 61.0418 43.9062 60.5605ZM46.8359 71.2739V52.7261H49.7656V71.2739H46.8359ZM55.625 74.9427H52.6953V49.0573H55.625V74.9427ZM58.5547 63.5287V60.4713H71.4453V63.5287H58.5547ZM77.3047 74.9427H74.375V49.0573H77.3047V74.9427ZM83.1641 71.2739H80.2344V52.7261H83.1641V71.2739ZM86.0938 63.4395V60.5605C87.3923 61.0418 87.3924 62.9582 86.0938 63.4395Z" fill="white"/>
<circle cx="65" cy="60" r="43.5" stroke="white" stroke-width="3"/>
<path d="M95 90L35 30" stroke="white" stroke-width="3"/>
<defs>
<filter id="filter0_d" x="0" y="0" width="130" height="130" filterUnits="userSpaceOnUse" color-interpolation-filters="sRGB">
<feFlood flood-opacity="0" result="BackgroundImageFix"/>
<feColorMatrix in="SourceAlpha" type="matrix" values="0 0 0 0 0 0 0 0 0 0 0 0 0 0 0 0 0 0 127 0"/>
<feOffset dy="5"/>
<feGaussianBlur stdDeviation="7.5"/>
<feColorMatrix type="matrix" values="0 0 0 0 0.733333 0 0 0 0 0.733333 0 0 0 0 0.733333 0 0 0 0.2 0"/>
<feBlend mode="normal" in2="BackgroundImageFix" result="effect1_dropShadow"/>
<feBlend mode="normal" in="SourceGraphic" in2="effect1_dropShadow" result="shape"/>
</filter>
</defs>
</svg>
