<svg width="674" height="168" viewBox="0 0 674 168" fill="none" xmlns="http://www.w3.org/2000/svg">
<path d="M219.707 56.8447H227.276L240.015 109.488L247.954 84.0313L241.308 56.8447H248.877L261.616 109.241L276.386 56.8447H280.263L263.278 116.408L265.309 124.811H257.739L249.616 91.1987L241.677 116.655L243.708 125.058H236.138L219.707 56.8447Z" fill="white"/>
<path d="M294.96 80.8181C297.242 80.7461 299.51 81.3363 301.606 82.5482C303.587 83.6713 305.4 85.2619 306.96 87.2441C308.501 89.2673 309.698 91.7121 310.468 94.4115C311.356 97.1381 311.796 100.088 311.76 103.062C311.814 106.038 311.373 108.993 310.468 111.712C309.629 114.363 308.441 116.791 306.96 118.879C305.449 120.942 303.623 122.544 301.606 123.575C299.51 124.787 297.242 125.377 294.96 125.305C292.738 125.353 290.535 124.764 288.498 123.575C286.542 122.392 284.735 120.808 283.144 118.879C281.544 116.922 280.338 114.457 279.636 111.712C278.783 108.971 278.344 106.031 278.344 103.062C278.344 100.092 278.783 97.1524 279.636 94.4115C280.475 91.7602 281.663 89.3325 283.144 87.2441C284.655 85.181 286.481 83.5793 288.498 82.5482C290.535 81.36 292.738 80.77 294.96 80.8181V80.8181ZM294.96 85.0197C293.406 84.9179 291.864 85.4338 290.529 86.5026C289.286 87.4237 288.263 88.7941 287.575 90.457C286.801 92.3111 286.241 94.3108 285.913 96.3887C285.528 98.8259 285.342 101.312 285.359 103.803C285.341 106.213 285.527 108.617 285.913 110.971C286.207 112.984 286.77 114.909 287.575 116.655C288.271 118.247 289.297 119.535 290.529 120.362C291.882 121.372 293.411 121.884 294.96 121.845C296.514 121.947 298.055 121.431 299.391 120.362C300.583 119.461 301.596 118.19 302.345 116.655C303.149 114.909 303.712 112.984 304.006 110.971C304.407 108.619 304.618 106.216 304.634 103.803C304.651 101.312 304.466 98.8259 304.08 96.3887C303.752 94.3108 303.192 92.3111 302.418 90.457C301.678 88.8479 300.667 87.4935 299.465 86.5026C298.09 85.476 296.533 84.9637 294.96 85.0197V85.0197Z" fill="white"/>
<path d="M325.607 85.2671C327.877 83.8776 330.222 82.7209 332.623 81.807C334.179 81.1696 335.796 80.8367 337.423 80.8184C338.237 80.8227 339.046 80.9893 339.823 81.3127C340.451 81.5992 341.067 81.9291 341.67 82.3013C342.164 82.5926 342.56 83.1217 342.777 83.7842C343.092 84.3038 343.341 84.888 343.516 85.5142C345.909 84.0471 348.377 82.8083 350.901 81.807C352.582 81.165 354.322 80.8324 356.07 80.8184C357.065 80.8455 358.055 81.0112 359.024 81.3127C359.821 81.5863 360.532 82.1922 361.055 83.0427C361.631 83.9971 362.069 85.0866 362.347 86.2557C362.682 87.8626 362.807 89.5349 362.717 91.1987V124.564H355.701V91.693C355.742 90.9427 355.679 90.1886 355.516 89.4686C355.332 88.9743 355.147 88.2329 354.963 87.7386C354.641 87.2557 354.268 86.8392 353.855 86.5028C353.265 86.1982 352.641 86.031 352.009 86.0085C350.574 85.9954 349.146 86.2449 347.762 86.75C346.555 87.1764 345.38 87.7557 344.254 88.48V124.811H337.239V91.1987C337.269 90.53 337.206 89.8597 337.054 89.2215C336.869 88.48 336.869 87.9857 336.5 87.4914C336.387 87.1965 336.23 86.9351 336.04 86.7228C335.85 86.5105 335.629 86.3516 335.392 86.2557C334.803 85.9511 334.178 85.7839 333.546 85.7614C332.864 85.7208 332.181 85.8039 331.515 86.0085L329.3 86.75C328.561 86.9971 327.823 87.4914 327.269 87.7386C326.7 88.0217 326.145 88.3519 325.607 88.7272V124.811H318.592V81.807H325.607V85.2671V85.2671Z" fill="white"/>
<path d="M385.056 80.8182C387.105 80.6886 389.143 81.2854 390.964 82.5482C392.539 83.6374 393.875 85.2556 394.841 87.2441C395.799 89.3259 396.544 91.5703 397.057 93.9172C397.507 96.5958 397.754 99.3282 397.795 102.073V104.298H376.748C376.763 106.134 376.949 107.96 377.302 109.735C377.714 111.704 378.404 113.549 379.333 115.172C380.275 116.88 381.469 118.31 382.841 119.374C384.47 120.608 386.324 121.208 388.195 121.104H395.395V124.811H388.195C385.386 124.872 382.586 124.372 379.887 123.328C377.777 122.491 375.825 121.059 374.163 119.127C372.682 117.182 371.547 114.817 370.84 112.206C370.07 109.27 369.694 106.174 369.732 103.062C369.754 100.218 370.065 97.3907 370.655 94.6586C371.343 92.0707 372.341 89.65 373.609 87.4912C374.958 85.4465 376.588 83.7684 378.41 82.5482C380.532 81.453 382.782 80.8674 385.056 80.8182V80.8182ZM384.687 85.0197C383.399 85.0177 382.13 85.4422 380.994 86.2555C379.934 87.0279 379.091 88.2429 378.594 89.7156C377.883 91.2305 377.383 92.9052 377.117 94.6586C376.74 96.595 376.554 98.5892 376.563 100.59H390.964V98.613C390.933 96.8735 390.809 95.1391 390.595 93.4229C390.424 91.9749 390.114 90.5626 389.672 89.2213C389.208 88.0799 388.581 87.0721 387.826 86.2555C386.903 85.4091 385.804 84.9765 384.687 85.0197V85.0197Z" fill="white"/>
<path d="M411.457 85.267C412.934 84.5255 414.227 83.7841 415.519 83.0426C416.811 82.3012 417.919 82.054 419.027 81.5597C420.135 81.0654 421.058 81.0654 421.981 80.8183C422.896 80.6131 423.823 80.5303 424.75 80.5711C426.564 80.4279 428.349 81.2244 429.735 82.7955C430.971 84.7994 431.568 87.3743 431.397 89.9629V124.564H424.381V91.6929C424.411 91.0243 424.348 90.3539 424.196 89.7157C424.012 88.9743 423.827 88.48 423.643 87.7385C423.529 87.4436 423.373 87.1822 423.183 86.9699C422.992 86.7576 422.772 86.5987 422.535 86.5028C421.945 86.1981 421.321 86.031 420.689 86.0085C419.329 86.0723 417.973 86.2373 416.627 86.5028C414.842 87.0724 413.108 87.9011 411.457 88.9743V125.058H404.442V81.8069H411.457V85.267V85.267Z" fill="white"/>
<path d="M440.443 56.8447H447.459V64.2593C447.495 65.3776 447.304 66.4882 446.905 67.4722C446.579 68.4514 446.07 69.3023 445.428 69.9437C444.862 70.672 444.161 71.184 443.397 71.4266C442.554 71.7295 441.686 71.8955 440.813 71.9209H437.563V67.7194H439.225C439.396 67.7262 439.566 67.6861 439.725 67.6016C439.884 67.5171 440.029 67.3899 440.15 67.2279C440.271 67.0658 440.366 66.8724 440.429 66.6594C440.492 66.4464 440.522 66.2184 440.517 65.9893C440.517 65.495 440.702 64.7536 440.702 63.765V56.8447H440.443Z" fill="white"/>
<path d="M462.229 80.8185C463.095 80.7686 463.962 80.8515 464.814 81.0657C465.504 81.11 466.187 81.2762 466.845 81.56C467.399 81.8071 468.137 82.0543 468.691 82.3014C469.386 82.5606 470.065 82.8911 470.722 83.29V87.2445L467.399 85.7615C466.009 85.3179 464.578 85.1513 463.152 85.2672C462.714 85.2462 462.276 85.3299 461.86 85.5144C461.617 85.5057 461.376 85.5674 461.153 85.6954C460.93 85.8234 460.73 86.0146 460.567 86.2559C460.155 86.5923 459.781 87.0087 459.46 87.4916C459.305 87.7244 459.192 88.0008 459.128 88.3003C459.064 88.5998 459.051 88.9147 459.09 89.2217C459.132 90.2813 459.387 91.3061 459.829 92.1875C460.614 93.6693 461.478 95.0735 462.414 96.389L466.106 101.826C466.856 103.04 467.657 104.196 468.506 105.286C469.245 106.522 469.983 107.511 470.537 108.499C471.096 109.513 471.59 110.588 472.014 111.712C472.392 112.707 472.582 113.81 472.568 114.925C472.597 116.765 472.211 118.574 471.46 120.116C470.765 121.439 469.918 122.607 468.949 123.576C467.818 124.528 466.567 125.197 465.257 125.553C463.865 125.973 462.436 126.139 461.011 126.047C459.272 126.072 457.537 125.824 455.841 125.306C454.35 124.739 452.922 123.907 451.595 122.834L451.779 118.633C452.899 119.439 454.074 120.101 455.287 120.61C456.54 121.176 457.844 121.509 459.164 121.598C460.839 121.759 462.512 121.242 463.965 120.116C464.51 119.637 464.952 118.973 465.244 118.191C465.536 117.41 465.668 116.539 465.626 115.667C465.576 114.107 465.118 112.62 464.334 111.465C463.411 109.982 462.488 108.499 461.195 106.522L457.503 101.085C456.58 99.3549 455.656 98.1191 455.103 97.1305C454.49 96.2029 453.935 95.2111 453.441 94.1647C453.096 93.3665 452.788 92.5412 452.518 91.6932C452.307 90.8974 452.182 90.065 452.149 89.2217C452.084 87.8331 452.342 86.4519 452.887 85.2672C453.446 84.191 454.211 83.3371 455.103 82.7957C456.138 82.094 457.268 81.674 458.426 81.56C459.654 81.029 460.939 80.7784 462.229 80.8185V80.8185Z" fill="white"/>
<path d="M534.786 124.811H527.217V86.5029H504.323V125.058H496.754V56.8447H504.323V82.0541H527.217V56.8447H534.786V124.811Z" fill="white"/>
<path d="M558.049 80.8182C560.098 80.6886 562.136 81.2854 563.957 82.5482C565.531 83.6374 566.867 85.2556 567.834 87.2441C568.792 89.3259 569.537 91.5703 570.05 93.9172C570.499 96.5958 570.747 99.3282 570.788 102.073V104.298H549.741C549.756 106.134 549.942 107.96 550.295 109.735C550.707 111.704 551.396 113.549 552.326 115.172C553.268 116.88 554.462 118.31 555.833 119.374C557.462 120.608 559.317 121.208 561.188 121.104H568.388V124.811H561.261C558.452 124.872 555.652 124.372 552.953 123.328C550.843 122.491 548.892 121.059 547.23 119.127C545.749 117.182 544.613 114.817 543.907 112.206C543.136 109.27 542.761 106.174 542.799 103.062C542.821 100.218 543.131 97.3907 543.722 94.6586C544.41 92.0707 545.407 89.65 546.676 87.4912C548.024 85.4465 549.654 83.7684 551.476 82.5482C553.575 81.4644 555.8 80.8789 558.049 80.8182V80.8182ZM557.68 85.0197C556.392 85.0177 555.123 85.4422 553.987 86.2555C552.965 87.0916 552.134 88.2888 551.587 89.7156C550.876 91.2305 550.376 92.9052 550.11 94.6586C549.733 96.595 549.547 98.5892 549.556 100.59H563.957V98.613C563.925 96.8735 563.802 95.1391 563.588 93.4229C563.417 91.9749 563.106 90.5626 562.665 89.2213C562.201 88.0799 561.573 87.0721 560.818 86.2555C559.896 85.4091 558.797 84.9765 557.68 85.0197V85.0197Z" fill="white"/>
<path d="M588.697 84.7729C587.769 84.7143 586.84 84.7972 585.927 85.0201C585.176 85.0635 584.432 85.2295 583.712 85.5144C582.973 85.7615 582.419 85.7615 581.865 86.0087L580.204 86.7501L579.465 83.7843C581.411 82.7218 583.465 82.0553 585.558 81.8071C587.507 81.3267 589.484 81.0786 591.466 81.0657C593.441 81.0666 595.414 81.2317 597.374 81.56C598.68 81.7927 599.937 82.3815 601.066 83.29C601.967 84.0044 602.628 85.1546 602.913 86.503C603.319 88.0923 603.507 89.7671 603.466 91.446V125.306H592.204C589.59 125.353 586.983 124.937 584.45 124.07C582.52 123.373 580.704 122.199 579.096 120.61C577.852 119.272 576.844 117.585 576.142 115.667C575.571 113.78 575.259 111.771 575.219 109.735C575.205 107.452 575.518 105.187 576.142 103.062C576.673 101.145 577.563 99.4433 578.727 98.1191C579.995 96.7917 581.434 95.7865 582.973 95.1533C584.768 94.4288 586.638 94.095 588.512 94.1647C589.822 94.2019 591.124 94.4508 592.389 94.9061C593.862 95.4318 595.287 96.178 596.635 97.1305V91.446C596.665 90.696 596.603 89.9445 596.451 89.2217C596.328 88.4371 596.001 87.7364 595.528 87.2445C594.828 86.6516 594.086 86.1548 593.312 85.7615C591.821 85.1122 590.264 84.7786 588.697 84.7729ZM596.082 121.104V99.8492C595 98.9403 593.815 98.2725 592.574 97.8719C591.313 97.3837 590.008 97.1341 588.697 97.1305C587.683 97.0899 586.676 97.3428 585.743 97.8719C584.863 98.3219 584.096 99.0925 583.527 100.096C582.88 101.175 582.436 102.447 582.235 103.804C581.857 105.317 581.67 106.904 581.681 108.499V110.477C581.714 111.32 581.839 112.152 582.05 112.948C582.28 113.898 582.59 114.81 582.973 115.667C583.371 116.657 583.941 117.505 584.635 118.138C585.472 118.993 586.408 119.66 587.404 120.116C588.719 120.656 590.091 120.906 591.466 120.857H596.082V121.104Z" fill="white"/>
<path d="M611.959 56.8447H618.975V124.811H611.959V56.8447Z" fill="white"/>
<path d="M640.65 85.7613H636.034V124.811H629.572V85.7613H625.141V81.5597H629.572V67.4721L636.219 64.7534V81.5597H640.834V85.7613H640.65Z" fill="white"/>
<path d="M653.684 85.2671C655.161 84.5256 656.453 83.7842 657.746 83.0427C659.038 82.3013 660.146 82.0541 661.254 81.5598C662.223 81.2154 663.211 80.9675 664.208 80.8184C665.122 80.6132 666.05 80.5304 666.977 80.5712C668.79 80.428 670.575 81.2245 671.962 82.7956C673.198 84.7995 673.795 87.3744 673.623 89.963V124.564H666.497V91.693C666.527 91.0244 666.464 90.354 666.312 89.7158C666.128 88.9744 665.943 88.4801 665.758 87.7386C665.645 87.4437 665.489 87.1823 665.298 86.97C665.108 86.7577 664.888 86.5988 664.651 86.5029C664.061 86.1982 663.436 86.0311 662.804 86.0086C661.445 86.0724 660.089 86.2374 658.743 86.5029C656.958 87.0725 655.224 87.9012 653.573 88.9744V125.058H646.742V56.8447H653.573V85.2671H653.684Z" fill="white"/>
<path d="M183.815 0.247151C183.815 0 183.815 0 183.631 0C157.23 11.1218 125.105 10.3803 97.8544 4.69587C67.7607 -1.73006 42.4672 3.46012 26.2203 18.5363C25.512 19.1358 24.8337 19.7962 24.1894 20.5135C17.6959 27.1797 12.2565 35.5064 8.18695 45.0103C4.11745 54.5141 1.49901 65.0056 0.483707 75.8754C-1.73178 99.3547 3.25307 136.427 24.0048 142.359C28.147 143.432 32.4232 143.113 36.4507 141.431C40.4782 139.749 44.1312 136.756 47.0828 132.72C54.4678 122.34 52.9908 108.252 56.6833 95.6475C60.5604 82.3013 70.1608 74.3925 78.4689 66.4836C88.8078 56.5976 94.9004 47.453 98.9622 31.141C102.064 34.8169 104.684 39.1606 106.716 43.9929C111.701 55.609 108.009 69.9438 108.009 69.9438C107.824 76.1225 111.886 81.5599 115.209 85.2671C115.964 85.9836 116.594 86.9112 117.055 87.9858C117.324 88.8121 117.446 89.7098 117.414 90.6097C117.382 91.5095 117.196 92.3875 116.871 93.176C116.686 93.6703 116.317 93.9174 115.948 94.4117L113.178 96.8832C112.901 97.326 112.734 97.8739 112.701 98.4501C112.668 99.0263 112.77 99.6019 112.994 100.096C113.337 100.128 113.671 100.263 113.971 100.492C114.27 100.721 114.527 101.037 114.722 101.417C114.917 101.797 115.046 102.232 115.098 102.688C115.151 103.144 115.125 103.61 115.024 104.051C114.875 105.398 114.452 106.664 113.801 107.711C113.149 108.757 112.295 109.543 111.332 109.982C114.84 112.701 114.101 117.397 112.255 118.138C111.473 118.455 110.811 119.163 110.409 120.115L111.332 124.07C112.809 135.686 105.055 134.945 105.055 134.945L97.1159 133.709C94.1786 133.156 91.1858 133.516 88.3686 134.758C85.5515 136.001 82.9855 138.094 80.869 140.876L61.225 165.591C61.0404 165.838 61.225 166.086 61.4096 166.333C191.57 177.207 183.815 53.6318 183.815 0.247151Z" fill="white"/>
</svg>
