<svg width="50" height="50" viewBox="0 0 50 50" fill="none" xmlns="http://www.w3.org/2000/svg">
<circle cx="25" cy="25" r="20.5" stroke="#FF4F32"/>
<circle cx="25" cy="25" r="24" stroke="#FF4F32" stroke-width="2"/>
<g clip-path="url(#clip0)">
<path d="M23.1239 20.324L20.9606 26.5044L18.7967 20.324H17.2404L20.1843 28.532L20.2365 28.676H21.6841L24.5783 20.615L24.6817 20.324H23.1239Z" fill="#FF4F32"/>
<path d="M26.8141 20.324H25.2849V28.6755H26.8141V20.324Z" fill="#FF4F32"/>
<path d="M33.4604 21.7402C33.2922 21.4231 33.0544 21.1539 32.7543 20.9402C32.4614 20.7329 32.1129 20.5758 31.719 20.4738C31.3353 20.3747 30.9148 20.3244 30.4701 20.3244H28.3391V28.676H29.8684V25.5493H30.1971C30.6828 25.5493 31.143 25.4889 31.5649 25.3695C31.9912 25.2477 32.3677 25.0708 32.6833 24.8427C33.0048 24.6112 33.2609 24.3251 33.4436 23.9916C33.6263 23.6552 33.7196 23.2743 33.7196 22.8596C33.7195 22.4381 33.6315 22.0616 33.4604 21.7402ZM32.0564 23.4222C31.9669 23.5884 31.8369 23.7339 31.6697 23.8533C31.4972 23.9766 31.2888 24.0708 31.0496 24.1351C30.8031 24.2018 30.528 24.2351 30.2323 24.2351H29.8683V21.6382H30.4348C30.6866 21.6382 30.9287 21.6628 31.1554 21.7116C31.369 21.7561 31.5561 21.8301 31.7131 21.9306C31.862 22.0277 31.9809 22.15 32.0645 22.2965C32.1481 22.4415 32.1907 22.6266 32.1907 22.8475C32.1907 23.0635 32.1453 23.2569 32.0564 23.4222Z" fill="#FF4F32"/>
<path d="M39.5758 23.4758L36.1785 20.0784V15.2736C36.1785 14.4727 35.5294 13.8236 34.7285 13.8236H29.9232L26.5259 10.4263C26.2537 10.1537 25.885 10.001 25.5002 10.001C25.1154 10.001 24.7467 10.1538 24.4751 10.4259L21.0777 13.8232H16.2724C15.4715 13.8232 14.8224 14.4723 14.8224 15.2732V20.078L11.4251 23.4753C10.8586 24.0418 10.8586 24.9597 11.4251 25.5261L14.8224 28.9235V33.7283C14.8224 34.5292 15.4715 35.1783 16.2724 35.1783H21.0777L24.4751 38.5756C24.7467 38.8482 25.1155 39.0009 25.5002 39.0009C25.8849 39.0009 26.2537 38.8482 26.5253 38.5761L29.9227 35.1787H34.728C35.5289 35.1787 36.178 34.5296 36.178 33.7287V28.9239L39.5753 25.5266C40.1418 24.9601 40.1418 24.0418 39.5758 23.4758ZM34.728 28.3231V33.7287H29.3224L25.5002 37.551L21.678 33.7287H16.2724V28.3231L12.4502 24.501L16.2724 20.6788V15.2732H21.678L25.5002 11.451L29.3224 15.2732H34.728V20.6788L38.5502 24.501L34.728 28.3231Z" fill="#FF4F32"/>
<path d="M25.5 15.075C25.9004 15.075 26.225 14.7505 26.225 14.35C26.225 13.9496 25.9004 13.625 25.5 13.625C25.0996 13.625 24.775 13.9496 24.775 14.35C24.775 14.7505 25.0996 15.075 25.5 15.075Z" fill="#FF4F32"/>
<path d="M25.5 35.375C25.9004 35.375 26.225 35.0504 26.225 34.65C26.225 34.2496 25.9004 33.925 25.5 33.925C25.0996 33.925 24.775 34.2496 24.775 34.65C24.775 35.0504 25.0996 35.375 25.5 35.375Z" fill="#FF4F32"/>
<path d="M18.3225 18.0475C18.7229 18.0475 19.0475 17.723 19.0475 17.3225C19.0475 16.9221 18.7229 16.5975 18.3225 16.5975C17.9221 16.5975 17.5975 16.9221 17.5975 17.3225C17.5975 17.723 17.9221 18.0475 18.3225 18.0475Z" fill="#FF4F32"/>
<path d="M32.6769 32.402C33.0773 32.402 33.4019 32.0774 33.4019 31.677C33.4019 31.2766 33.0773 30.952 32.6769 30.952C32.2765 30.952 31.9519 31.2766 31.9519 31.677C31.9519 32.0774 32.2765 32.402 32.6769 32.402Z" fill="#FF4F32"/>
<path d="M32.6769 18.0475C33.0773 18.0475 33.4019 17.723 33.4019 17.3225C33.4019 16.9221 33.0773 16.5975 32.6769 16.5975C32.2765 16.5975 31.9519 16.9221 31.9519 17.3225C31.9519 17.723 32.2765 18.0475 32.6769 18.0475Z" fill="#FF4F32"/>
<path d="M18.3225 32.402C18.7229 32.402 19.0475 32.0774 19.0475 31.677C19.0475 31.2766 18.7229 30.952 18.3225 30.952C17.9221 30.952 17.5975 31.2766 17.5975 31.677C17.5975 32.0774 17.9221 32.402 18.3225 32.402Z" fill="#FF4F32"/>
<path d="M35.6499 25.225C36.0503 25.225 36.3749 24.9004 36.3749 24.5C36.3749 24.0996 36.0503 23.775 35.6499 23.775C35.2495 23.775 34.9249 24.0996 34.9249 24.5C34.9249 24.9004 35.2495 25.225 35.6499 25.225Z" fill="#FF4F32"/>
<path d="M15.35 25.225C15.7504 25.225 16.075 24.9004 16.075 24.5C16.075 24.0996 15.7504 23.775 15.35 23.775C14.9496 23.775 14.625 24.0996 14.625 24.5C14.625 24.9004 14.9496 25.225 15.35 25.225Z" fill="#FF4F32"/>
</g>
<defs>
<clipPath id="clip0">
<rect width="29" height="29" fill="white" transform="translate(11 10)"/>
</clipPath>
</defs>
</svg>
