<svg width="24" height="24" viewBox="0 0 24 24" fill="none" xmlns="http://www.w3.org/2000/svg">
<path d="M22.074 6.17758C22.0453 5.54619 22.0453 4.9435 22.0453 4.34081C22.0453 3.85291 21.6722 3.47982 21.1843 3.47982C17.5969 3.47982 14.8704 2.44664 12.6031 0.236771C12.2587 -0.0789238 11.7421 -0.0789238 11.3977 0.236771C9.13048 2.44664 6.40402 3.47982 2.81658 3.47982C2.32869 3.47982 1.95559 3.85291 1.95559 4.34081C1.95559 4.9435 1.95559 5.54619 1.92689 6.17758C1.8121 12.2045 1.6399 20.47 11.7134 23.9426L12.0004 24L12.2874 23.9426C22.3323 20.47 22.1888 12.2332 22.074 6.17758ZM11.3116 14.5291C11.1395 14.6726 10.9386 14.7587 10.709 14.7587H10.6803C10.4507 14.7587 10.2211 14.6439 10.0776 14.4717L7.40851 11.5157L8.69999 10.3677L10.7951 12.6924L15.4444 8.27264L16.6211 9.53543L11.3116 14.5291Z" fill="white"/>
</svg>
