<svg width="23" height="23" viewBox="0 0 23 23" fill="none" xmlns="http://www.w3.org/2000/svg">
<path d="M21.0151 19.3996L19.3696 16.6568C18.6097 15.3909 18.2081 13.9409 18.2081 12.4651V10.0625C18.2081 7.02938 16.1841 4.46393 13.4164 3.63687V1.91668C13.4164 0.859625 12.5568 0 11.4997 0C10.4427 0 9.58307 0.859625 9.58307 1.91668V3.63687C6.81543 4.46393 4.79143 7.02938 4.79143 10.0625V12.4651C4.79143 13.9409 4.38988 15.3899 3.63088 16.6559L1.98543 19.3986C1.89631 19.5472 1.89438 19.7312 1.97968 19.8816C2.06499 20.0321 2.22311 20.125 2.39561 20.125H20.6039C20.7764 20.125 20.9355 20.0321 21.0208 19.8826C21.1061 19.7331 21.1032 19.5471 21.0151 19.3996Z" fill="white"/>
<path d="M8.48193 21.0833C9.02243 22.2122 10.1667 23 11.4997 23C12.8327 23 13.977 22.2122 14.5175 21.0833H8.48193Z" fill="white"/>
</svg>
