<svg width="110" height="110" viewBox="0 0 110 110" fill="none" xmlns="http://www.w3.org/2000/svg">
<g filter="url(#filter0_d)">
<circle cx="55" cy="50" r="40" fill="#92DDEA"/>
</g>
<path d="M73.7268 49.6044C73.0289 48.8431 72.0724 48.4785 71.1264 48.5238V34.1377C71.1264 32.4985 69.8264 31.165 68.2281 31.165H47.7499C46.1517 31.165 44.8517 32.4985 44.8517 34.1377V50.6899C43.7375 51.1488 43.0246 51.7839 42.6056 52.2684H36.1795C35.5283 52.2684 35 52.8103 35 53.4785V66.3262C35 66.9945 35.5283 67.5363 36.1795 67.5363H43.1528L60.3213 67.8468C60.3607 67.8477 60.4001 67.8481 60.4395 67.8481C62.3163 67.8481 64.1098 67.0364 65.3754 65.6097L73.779 56.1363C74.5761 55.238 75.0095 54.0742 74.9997 52.8597C74.9902 51.6452 74.538 50.4889 73.7268 49.6044ZM55.8395 33.5849H59.9774V37.2131H55.8395V33.5849ZM47.2107 34.1377C47.2107 33.8329 47.4527 33.5849 47.7496 33.5849H53.4802V38.4232C53.4802 39.0912 54.0085 39.633 54.66 39.633H61.1569C61.8085 39.633 62.3364 39.0912 62.3364 38.4232V33.5849H68.2281C68.5254 33.5849 68.7671 33.8329 68.7671 34.1377V49.6222L62.4829 54.7663C62.0779 53.8316 61.4493 53.2616 60.8865 52.9186C59.913 52.3251 58.945 52.3079 58.8376 52.3079H53.6575C52.9483 51.4499 51.3239 50.0945 48.1369 50.0945C47.8122 50.0945 47.504 50.1089 47.2107 50.1352V34.1377ZM37.3593 54.6883H41.983V65.1164H37.3593V54.6883ZM72.034 54.5077L63.6301 63.9811C62.7948 64.9226 61.6025 65.4485 60.3629 65.4275L44.3423 65.1377V53.8936C44.6805 53.4864 45.7401 52.5145 48.1372 52.5145C51.0217 52.5145 51.9025 53.8927 51.9965 54.0564C52.1832 54.4961 52.5839 54.7278 53.0536 54.7278H58.8379C58.8419 54.7278 59.2697 54.7478 59.6811 54.9985C60.2661 55.3554 60.5502 56.0246 60.5502 57.0447C60.5502 58.031 60.2853 58.688 59.7403 59.0527C59.3246 59.331 58.8693 59.3594 58.8254 59.3616H50.7111C50.0595 59.3616 49.5316 59.9031 49.5316 60.5714C49.5316 61.2397 50.0595 61.7812 50.7111 61.7812H58.8379C58.945 61.7812 59.913 61.7643 60.8865 61.1705C61.7453 60.6469 62.7576 59.5955 62.894 57.5258L70.6076 51.2117C70.6183 51.2029 70.6284 51.1942 70.6387 51.1854C71.0425 50.8311 71.644 50.8646 72.0081 51.2618C72.836 52.1651 72.8476 53.5906 72.034 54.5077Z" fill="white"/>
<defs>
<filter id="filter0_d" x="0" y="0" width="110" height="110" filterUnits="userSpaceOnUse" color-interpolation-filters="sRGB">
<feFlood flood-opacity="0" result="BackgroundImageFix"/>
<feColorMatrix in="SourceAlpha" type="matrix" values="0 0 0 0 0 0 0 0 0 0 0 0 0 0 0 0 0 0 127 0"/>
<feOffset dy="5"/>
<feGaussianBlur stdDeviation="7.5"/>
<feColorMatrix type="matrix" values="0 0 0 0 0.188935 0 0 0 0 0.0634896 0 0 0 0 0.2875 0 0 0 0.25 0"/>
<feBlend mode="normal" in2="BackgroundImageFix" result="effect1_dropShadow"/>
<feBlend mode="normal" in="SourceGraphic" in2="effect1_dropShadow" result="shape"/>
</filter>
</defs>
</svg>
