<svg width="16" height="14" viewBox="0 0 16 14" fill="none" xmlns="http://www.w3.org/2000/svg">
<path d="M5.96909 13.5639C5.2772 13.5639 4.56505 13.5078 3.84862 13.3955C2.58678 13.1975 1.30944 12.5375 0.947994 12.3399L0 11.8215L1.02636 11.484C2.14831 11.1151 2.8308 10.8862 3.67564 10.5278C2.8297 10.1182 2.17773 9.38124 1.86388 8.4286L1.62512 7.70375L1.82092 7.73365C1.63525 7.54652 1.48864 7.35658 1.37499 7.18385C0.970821 6.56996 0.756833 5.81984 0.802365 5.17701L0.847287 4.54432L1.22607 4.69105C1.06628 4.38929 0.950802 4.06703 0.882931 3.72926C0.717526 2.90553 0.855954 2.03041 1.27282 1.26515L1.60278 0.659436L2.04406 1.18947C3.43968 2.86598 5.20738 3.86049 7.30539 4.15162C7.2197 3.56093 7.28391 2.99086 7.49643 2.47987C7.74387 1.8849 8.18405 1.38038 8.76901 1.02076C9.41866 0.621472 10.2065 0.427991 10.9874 0.475965C11.8159 0.526868 12.5681 0.837293 13.1655 1.37428C13.4572 1.29847 13.6722 1.21754 13.9627 1.10817C14.1375 1.04237 14.3358 0.967664 14.5838 0.882215L15.4979 0.567273L14.9018 2.26967C14.9411 2.26637 14.9816 2.26356 15.024 2.26173L16.0001 2.21754L15.4232 3.00599C15.3901 3.05116 15.3817 3.06398 15.3699 3.08168C15.3234 3.15175 15.2656 3.2389 14.4737 4.29628C14.2755 4.56105 14.1765 4.9059 14.1949 5.26747C14.2651 6.64149 14.0965 7.88465 13.6936 8.96229C13.3124 9.98182 12.7219 10.8566 11.9384 11.5623C10.969 12.4353 9.73275 13.0331 8.26401 13.3388C7.54355 13.4887 6.76987 13.5639 5.96909 13.5639Z" fill="#959595"/>
</svg>
