<svg width="140" height="137" viewBox="0 0 140 137" fill="none" xmlns="http://www.w3.org/2000/svg">
<path d="M133.5 85.5C133.5 98.9819 124.16 110.062 110.579 117.916C97.0438 125.743 79.8534 130 65.5 130C51.2218 130 40.5731 125.795 33.4792 118.355C26.3675 110.896 22.5 99.8416 22.5 85.5C22.5 71.0037 25.4414 55.3178 31.8719 43.3533C38.2697 31.4497 47.9286 23.5 61.5 23.5C75.4569 23.5 93.5296 31.8514 108.231 44.0911C122.986 56.3756 133.5 71.862 133.5 85.5Z" stroke="white" stroke-width="5"/>
<path d="M127.904 63.2809C131.428 77.362 124.49 91.0722 112.988 102.213C101.495 113.347 85.5354 121.816 71.2852 125.382C57.0496 128.944 45.1043 127.468 35.8407 121.608C26.5728 115.745 19.9089 105.444 16.3437 91.1959C12.771 76.9179 11.7679 60.6373 15.206 47.0585C18.6407 33.493 26.4836 22.6855 40.5821 19.1577C54.7554 15.6112 74.8186 19.5188 92.2672 27.9281C109.728 36.3434 124.373 49.1694 127.904 63.2809Z" stroke="#D073B7"/>
<g filter="url(#filter0_d)">
<path d="M62.24 81.9312L62.945 81.1391C62.4299 79.4929 62.4285 77.6806 62.9788 76.0072C58.9269 78.2333 53.7972 77.3462 50.735 73.7244C48.4606 75.5281 47 78.3153 47 81.4372V95.4997C47 96.2759 47.63 96.9059 48.4062 96.9059H59.9919C59.8353 96.4662 59.75 95.9928 59.75 95.4997V88.4684C59.75 86.0572 60.6341 83.735 62.24 81.9312Z" fill="url(#paint0_linear)"/>
<path d="M58.25 74.406C62.1333 74.406 65.2812 71.258 65.2812 67.3748C65.2812 63.4915 62.1333 60.3435 58.25 60.3435C54.3667 60.3435 51.2188 63.4915 51.2188 67.3748C51.2188 71.258 54.3667 74.406 58.25 74.406Z" fill="url(#paint1_linear)"/>
<path d="M91.265 73.7244C88.1973 77.3528 83.064 78.2301 79.0212 76.0062C79.5706 77.6831 79.5707 79.4906 79.055 81.1391L79.76 81.9312C81.3659 83.735 82.25 86.0572 82.25 88.4684V95.4997C82.25 95.9928 82.1647 96.4662 82.0081 96.9059H93.5937C94.37 96.9059 95 96.2759 95 95.4997V81.4372C95 78.3153 93.5394 75.5281 91.265 73.7244Z" fill="url(#paint2_linear)"/>
<path d="M83.75 74.406C87.6333 74.406 90.7812 71.258 90.7812 67.3748C90.7812 63.4915 87.6333 60.3435 83.75 60.3435C79.8667 60.3435 76.7188 63.4915 76.7188 67.3748C76.7188 71.258 79.8667 74.406 83.75 74.406Z" fill="url(#paint3_linear)"/>
<path d="M71 87.0623C68.2962 87.0623 65.8859 85.7845 64.3409 83.8008C63.2347 85.0439 62.5625 86.6789 62.5625 88.4686V95.4998C62.5625 96.2761 63.1925 96.9061 63.9688 96.9061H78.0312C78.8075 96.9061 79.4375 96.2761 79.4375 95.4998V88.4686C79.4375 86.6789 78.7653 85.0439 77.6591 83.8008C76.1141 85.7845 73.7037 87.0623 71 87.0623Z" fill="url(#paint4_linear)"/>
<path d="M71 84.2498C74.1066 84.2498 76.625 81.7314 76.625 78.6248C76.625 75.5182 74.1066 72.9998 71 72.9998C67.8934 72.9998 65.375 75.5182 65.375 78.6248C65.375 81.7314 67.8934 84.2498 71 84.2498Z" fill="url(#paint5_linear)"/>
<path d="M66.9987 60.4368C68.6042 61.9207 70.1958 62.9062 70.2628 62.9474C70.7149 63.2257 71.285 63.2257 71.7372 62.9474C71.8042 62.9062 73.3957 61.9207 75.0012 60.4368C77.3229 58.2912 78.5 56.2054 78.5 54.2373C78.5 49.7677 74.0553 47.6696 71 50.1526C67.9378 47.6641 63.5 49.7795 63.5 54.2373C63.5 56.2054 64.6771 58.2912 66.9987 60.4368Z" fill="url(#paint6_linear)"/>
</g>
<defs>
<filter id="filter0_d" x="43" y="49" width="56" height="56" filterUnits="userSpaceOnUse" color-interpolation-filters="sRGB">
<feFlood flood-opacity="0" result="BackgroundImageFix"/>
<feColorMatrix in="SourceAlpha" type="matrix" values="0 0 0 0 0 0 0 0 0 0 0 0 0 0 0 0 0 0 127 0"/>
<feOffset dy="4"/>
<feGaussianBlur stdDeviation="2"/>
<feColorMatrix type="matrix" values="0 0 0 0 0 0 0 0 0 0 0 0 0 0 0 0 0 0 0.25 0"/>
<feBlend mode="normal" in2="BackgroundImageFix" result="effect1_dropShadow"/>
<feBlend mode="normal" in="SourceGraphic" in2="effect1_dropShadow" result="shape"/>
</filter>
<linearGradient id="paint0_linear" x1="54.9894" y1="73.7244" x2="54.9894" y2="96.9059" gradientUnits="userSpaceOnUse">
<stop stop-color="white"/>
<stop offset="1" stop-color="#C472AE"/>
</linearGradient>
<linearGradient id="paint1_linear" x1="58.25" y1="60.3435" x2="58.25" y2="74.406" gradientUnits="userSpaceOnUse">
<stop stop-color="white"/>
<stop offset="1" stop-color="#C472AE"/>
</linearGradient>
<linearGradient id="paint2_linear" x1="87.0106" y1="73.7244" x2="87.0106" y2="96.9059" gradientUnits="userSpaceOnUse">
<stop stop-color="white"/>
<stop offset="1" stop-color="#C472AE"/>
</linearGradient>
<linearGradient id="paint3_linear" x1="83.75" y1="60.3435" x2="83.75" y2="74.406" gradientUnits="userSpaceOnUse">
<stop stop-color="white"/>
<stop offset="1" stop-color="#C472AE"/>
</linearGradient>
<linearGradient id="paint4_linear" x1="71" y1="83.8008" x2="71" y2="96.9061" gradientUnits="userSpaceOnUse">
<stop stop-color="white"/>
<stop offset="1" stop-color="#C472AE"/>
</linearGradient>
<linearGradient id="paint5_linear" x1="71" y1="72.9998" x2="71" y2="84.2498" gradientUnits="userSpaceOnUse">
<stop stop-color="white"/>
<stop offset="1" stop-color="#C472AE"/>
</linearGradient>
<linearGradient id="paint6_linear" x1="71" y1="49.094" x2="71" y2="63.1561" gradientUnits="userSpaceOnUse">
<stop stop-color="white"/>
<stop offset="1" stop-color="#C472AE"/>
</linearGradient>
</defs>
</svg>
