<svg width="70" height="69" viewBox="0 0 70 69" fill="none" xmlns="http://www.w3.org/2000/svg">
<path d="M29.8117 21C29.4773 21 29.2062 21.2712 29.2062 21.6055C29.2062 21.9399 29.4773 22.211 29.8117 22.211C33.2322 22.211 36.0148 25.066 36.0148 28.5753C36.0148 28.9097 36.286 29.1809 36.6204 29.1809C36.9548 29.1809 37.2259 28.9097 37.2259 28.5753C37.2259 24.3983 33.8999 21 29.8117 21Z" fill="black"/>
<path d="M29.8106 23.8726C29.4762 23.8726 29.2051 24.1437 29.2051 24.4781C29.2051 24.8125 29.4762 25.0836 29.8106 25.0836C31.6836 25.0836 33.2073 26.6499 33.2073 28.575C33.2073 28.9094 33.4785 29.1806 33.8129 29.1806C34.1473 29.1806 34.4184 28.9094 34.4184 28.575C34.4184 25.9821 32.3514 23.8726 29.8106 23.8726Z" fill="black"/>
<path d="M29.8213 26.5195C29.4868 26.5195 29.2158 26.7906 29.2158 27.1251C29.2158 27.4594 29.4869 27.7306 29.8213 27.7306C30.2588 27.7306 30.6147 28.1014 30.6147 28.5571C30.6147 28.8915 30.8859 29.1627 31.2203 29.1627C31.5547 29.1627 31.8258 28.8915 31.8258 28.5571C31.8258 27.4336 30.9265 26.5195 29.8213 26.5195Z" fill="black"/>
<path d="M33.2542 41.3708C33.1415 41.2581 32.9859 41.1934 32.826 41.1934C32.6668 41.1934 32.5105 41.2581 32.398 41.3708C32.2854 41.4834 32.2205 41.6396 32.2205 41.7989C32.2205 41.9587 32.2853 42.1144 32.398 42.227C32.5111 42.3402 32.6668 42.4049 32.826 42.4049C32.9853 42.4049 33.1415 42.3402 33.2542 42.227C33.3674 42.1144 33.4316 41.9587 33.4316 41.7989C33.4316 41.6396 33.3674 41.4834 33.2542 41.3708Z" fill="black"/>
<path d="M46.5077 46.8461L41.8687 42.207C41.2511 41.5894 40.2796 41.4991 39.5588 41.992L36.598 44.0165C36.3577 44.1808 36.034 44.1507 35.8281 43.9448L34.849 42.9656C34.6127 42.7293 34.2293 42.7293 33.9926 42.9656C33.7562 43.2021 33.7562 43.5854 33.9926 43.8221L34.9717 44.8012C35.5893 45.4187 36.5607 45.5092 37.2815 45.0162L40.2423 42.9917C40.4825 42.8275 40.8063 42.8575 41.0122 43.0634L45.6513 47.7025C45.8874 47.9385 45.8873 48.3227 45.6513 48.5589C42.6765 51.5337 37.8362 51.5337 34.8614 48.5589L25.4416 39.1389C24.0005 37.6979 23.2069 35.782 23.2069 33.744C23.2069 31.706 24.0005 29.79 25.4416 28.3489C25.556 28.2346 25.708 28.1716 25.8698 28.1716C26.0315 28.1716 26.1836 28.2346 26.2979 28.349L30.937 32.9881C31.1428 33.1939 31.1729 33.5177 31.0087 33.758L28.9843 36.7188C28.4913 37.4396 28.5817 38.411 29.1992 39.0286L30.671 40.5004C30.9075 40.7368 31.2908 40.7368 31.5274 40.5004C31.7638 40.264 31.7638 39.8805 31.5274 39.644L30.0557 38.1722C29.8499 37.9664 29.8197 37.6426 29.984 37.4024L32.0084 34.4415C32.5014 33.7207 32.4109 32.7492 31.7934 32.1317L27.1544 27.4926C26.4461 26.7844 25.2936 26.7844 24.5852 27.4926C21.1383 30.9396 21.1383 36.5483 24.5852 39.9953L34.0051 49.4151C35.7286 51.1386 37.9924 52.0004 40.2563 52.0004C42.5203 52.0003 44.7841 51.1386 46.5076 49.4151C47.2159 48.7068 47.2159 47.5544 46.5077 46.8461Z" fill="black"/>
<path d="M30.1569 35.889L26.4862 32.2183C26.2497 31.9819 25.8664 31.9819 25.6298 32.2183C25.3934 32.4548 25.3934 32.8382 25.6298 33.0747L29.3005 36.7454C29.4188 36.8636 29.5737 36.9227 29.7287 36.9227C29.8836 36.9227 30.0386 36.8636 30.1569 36.7454C30.3933 36.5089 30.3933 36.1254 30.1569 35.889Z" fill="black"/>
<path d="M44.2057 49.9389L40.3435 46.0767C40.107 45.8403 39.7237 45.8403 39.4871 46.0767C39.2507 46.3132 39.2507 46.6966 39.4871 46.9331L43.3493 50.7953C43.4675 50.9135 43.6224 50.9726 43.7775 50.9726C43.9324 50.9726 44.0874 50.9135 44.2057 50.7953C44.4421 50.5587 44.4421 50.1754 44.2057 49.9389Z" fill="black"/>
<path d="M66.8419 42.5792C66.8419 49.3396 62.1585 54.8956 55.3481 58.8341C48.5611 62.759 39.941 64.8935 32.7435 64.8935C25.5838 64.8935 20.244 62.7851 16.6868 59.0542C13.1206 55.314 11.1813 49.7707 11.1813 42.5792C11.1813 35.31 12.6562 27.4444 15.8808 21.4449C19.089 15.4758 23.9324 11.4895 30.7377 11.4895C37.7363 11.4895 46.7989 15.6773 54.1706 21.8148C61.5695 27.9748 66.8419 35.7404 66.8419 42.5792Z" stroke="black" stroke-width="2.50723"/>
<path d="M64.0359 31.4369C65.8027 38.4978 62.3237 45.3727 56.5564 50.9594C50.7931 56.5423 42.7902 60.7892 35.6445 62.5772C28.506 64.3634 22.5161 63.6233 17.8709 60.6848C13.2236 57.745 9.88196 52.5793 8.09422 45.4348C6.30271 38.2751 5.7997 30.1113 7.52372 23.3022C9.24604 16.4998 13.1789 11.0804 20.2485 9.31144C27.3557 7.53306 37.4163 9.49252 46.1658 13.7093C54.9217 17.9292 62.2653 24.3607 64.0359 31.4369Z" stroke="#D073B7" stroke-width="0.501447"/>
</svg>
