<svg width="70" height="69" viewBox="0 0 70 69" fill="none" xmlns="http://www.w3.org/2000/svg">
<path d="M23.2655 41.2773C23.6192 41.2773 23.9059 41.5698 23.9059 41.9308V47.7326C23.9072 48.8148 24.7665 49.6919 25.8273 49.6929H43.7977C44.8585 49.6919 45.7178 48.8148 45.7191 47.7326V30.7047C45.7178 29.6227 44.8585 28.7456 43.7977 28.7444H38.1112C37.7575 28.7444 37.4708 28.4519 37.4708 28.0909C37.4708 27.7303 37.7575 27.4375 38.1112 27.4375H43.7977C45.5655 27.4395 46.998 28.9011 47 30.7047V47.7328C46.998 49.5364 45.5655 50.998 43.7977 51H25.8273C24.0595 50.998 22.627 49.5364 22.625 47.7328V41.9308C22.625 41.5698 22.9117 41.2773 23.2655 41.2773Z" fill="black"/>
<path d="M22.586 25.8396C23.7056 24.7201 25.5207 24.7201 26.6403 25.8396L38.0061 37.2044C38.084 37.2823 38.1403 37.3788 38.1696 37.4848L39.6643 42.8803C39.7257 43.1015 39.6633 43.3384 39.501 43.5009C39.3385 43.6632 39.1016 43.7256 38.8804 43.6644L33.4844 42.1697C33.3784 42.1403 33.2818 42.0841 33.2039 42.0062L21.8384 30.6411C20.7205 29.5209 20.7205 27.7074 21.8384 26.5871L22.586 25.8396ZM36.618 37.6185L27.316 28.317L24.316 31.3167L33.6183 40.6182L36.618 37.6185ZM37.2172 38.8208L34.8205 41.2176L38.1358 42.1361L37.2172 38.8208ZM22.7393 29.7404L23.4149 30.4159L26.4151 27.416L25.7392 26.7404C25.1173 26.1186 24.109 26.1186 23.4871 26.7404L22.7393 27.4879C22.1184 28.1105 22.1184 29.118 22.7393 29.7404Z" fill="black"/>
<path d="M66.8419 42.5792C66.8419 49.3396 62.1585 54.8956 55.3481 58.8341C48.5611 62.759 39.941 64.8935 32.7435 64.8935C25.5838 64.8935 20.244 62.7851 16.6868 59.0542C13.1206 55.314 11.1813 49.7707 11.1813 42.5792C11.1813 35.31 12.6562 27.4444 15.8808 21.4449C19.089 15.4758 23.9324 11.4895 30.7377 11.4895C37.7363 11.4895 46.7989 15.6773 54.1706 21.8148C61.5695 27.9748 66.8419 35.7404 66.8419 42.5792Z" stroke="black" stroke-width="2.50723"/>
<path d="M64.0359 31.4369C65.8027 38.4978 62.3237 45.3727 56.5564 50.9594C50.7931 56.5423 42.7902 60.7892 35.6445 62.5772C28.506 64.3634 22.5161 63.6233 17.8709 60.6848C13.2236 57.745 9.88196 52.5793 8.09422 45.4348C6.30271 38.2751 5.7997 30.1113 7.52372 23.3022C9.24604 16.4998 13.1789 11.0804 20.2485 9.31144C27.3557 7.53306 37.4163 9.49252 46.1658 13.7093C54.9217 17.9292 62.2653 24.3607 64.0359 31.4369Z" stroke="#D073B7" stroke-width="0.501447"/>
</svg>
