<svg width="97" height="33" viewBox="0 0 97 33" fill="none" xmlns="http://www.w3.org/2000/svg">
<circle cx="16.5" cy="16.5" r="16.5" fill="#00B0EA"/>
<g clip-path="url(#clip0)">
<path d="M9.61341 26.3983C8.76876 26.3983 8.02116 26.3216 7.37797 26.1685C6.18349 25.8843 5.41645 25.3509 5.09805 24.5836C4.28154 22.6156 6.81973 20.0267 9.09275 18.2014C10.4069 17.1461 11.3237 16.251 11.8177 15.5408C12.1578 15.0517 12.2847 14.6626 12.1656 14.4733C11.8303 13.9406 9.57801 14.1254 7.64513 15.0517C6.95202 15.3838 6.25484 15.4698 5.62912 15.3005C5.02309 15.1365 4.53494 14.7423 4.25457 14.1904C3.85325 13.4006 3.92917 12.3879 4.46293 11.412C5.06738 10.3067 6.23575 9.26602 7.8416 8.40229C9.72198 7.39098 11.8524 6.83559 13.8477 6.83559C13.8675 6.83559 13.8871 6.83564 13.907 6.83574C15.8353 6.8464 17.4686 7.3566 18.5061 8.27249C19.6086 9.24566 19.9098 10.5725 19.3545 12.0088C18.5663 14.0471 18.4598 15.5146 19.0546 16.1409C19.3509 16.4529 20.0054 16.726 21.4401 16.2546C21.6401 16.1889 21.8552 16.2977 21.9208 16.4976C21.9864 16.6974 21.8777 16.9126 21.6778 16.9783C19.8645 17.5739 18.9501 17.137 18.5023 16.6655C17.6699 15.789 17.7176 14.1298 18.644 11.7341C19.0823 10.6007 18.8603 9.60118 18.002 8.84358C17.1156 8.06109 15.6214 7.60695 13.9027 7.59746C13.8843 7.59735 13.8658 7.5973 13.8473 7.5973C11.976 7.5973 9.97375 8.12045 8.2024 9.07316C6.33802 10.0758 5.50328 11.0972 5.13116 11.7775C4.71993 12.5294 4.64787 13.2831 4.93357 13.8453C5.33316 14.6317 6.31289 14.8453 7.31586 14.3647C9.14581 13.4878 12.0732 12.8966 12.8102 14.0676C13.4082 15.0176 12.3481 16.5641 9.56963 18.7954C6.68638 21.1107 5.31295 23.114 5.80157 24.2917C6.07503 24.9508 6.90565 25.2732 7.55433 25.4275C8.54995 25.6645 9.89748 25.6991 11.4513 25.5275C13.9628 25.2502 15.4093 24.402 16.6854 23.6537C18.5482 22.5615 20.0197 21.6987 23.47 23.5577C23.6551 23.6575 23.7244 23.8885 23.6246 24.0737C23.5248 24.2588 23.2938 24.328 23.1087 24.2283C20.0355 22.5725 18.8561 23.2641 17.0708 24.3108C15.7953 25.0587 14.2079 25.9894 11.535 26.2845C10.8486 26.3604 10.207 26.3982 9.61341 26.3983Z" fill="#404B58"/>
<path d="M21.0739 12.7901L25.4299 17.1461L27.1858 15.3903L22.8297 11.0342L21.0739 12.7901Z" fill="#404B58"/>
<path d="M27.1861 15.3904L22.8298 11.0342L25.1819 8.68209C25.7976 8.06637 26.7958 8.06637 27.4116 8.68209L29.5382 10.8087C30.1539 11.4244 30.1539 12.4226 29.5382 13.0384L27.1861 15.3904Z" fill="#ED718B"/>
<path d="M15.8494 26.7266L25.4298 17.1462L21.0737 12.7901L11.4933 22.3705L15.8494 26.7266Z" fill="#FDA75F"/>
<path opacity="0.05" d="M12.9455 23.8229L14.3976 25.2751L23.978 15.6947L22.5259 14.2425L12.9455 23.8229Z" fill="black"/>
<path d="M15.823 24.914L14.9163 25.1436C14.682 25.2029 14.4695 24.9903 14.5288 24.7561L14.7584 23.8494C14.8177 23.6152 14.6051 23.4026 14.3709 23.4619L13.4642 23.6915C13.23 23.7508 13.0174 23.5382 13.0768 23.304L13.3063 22.3973C13.3656 22.1631 13.153 21.9505 12.9188 22.0099L11.4933 22.3708C10.9961 22.8681 10.6199 23.4732 10.3942 24.1393L9.10663 27.9381C8.86004 28.6657 9.55462 29.3603 10.2823 29.1137L14.0811 27.8262C14.7472 27.6005 15.3523 27.2243 15.8497 26.727L16.2106 25.3015C16.2698 25.0673 16.0572 24.8547 15.823 24.914Z" fill="#FBE096"/>
<path d="M9.8699 25.6858L9.10651 27.9381C8.85991 28.6657 9.5545 29.3603 10.2821 29.1137L12.5344 28.3503L9.8699 25.6858Z" fill="#404B58"/>
<path opacity="0.1" d="M29.5382 10.8087L28.7283 9.99875C29.344 10.6145 29.344 11.6127 28.7283 12.2284L26.3762 14.5805L24.6203 16.3364L15.0396 25.9172C14.5424 26.4144 13.9372 26.7906 13.2711 27.0163L9.47226 28.3039C9.33231 28.3513 9.19363 28.3636 9.06256 28.3479C9.12873 28.8981 9.69458 29.313 10.2822 29.1138L14.081 27.8262C14.7471 27.6005 15.3522 27.2244 15.8496 26.7271L25.4302 17.1463L27.1861 15.3904L29.5382 13.0384C30.1539 12.4226 30.1539 11.4244 29.5382 10.8087Z" fill="black"/>
</g>
<path d="M56.7676 20.7959C56.6797 20.9658 56.5684 21.1299 56.4336 21.2881C56.3047 21.4463 56.1553 21.5869 55.9854 21.71C55.8213 21.8271 55.6455 21.9238 55.458 22C55.2705 22.0703 55.0771 22.1055 54.8779 22.1055C54.5557 22.1055 54.2715 22.0439 54.0254 21.9209C53.7793 21.7979 53.5742 21.6338 53.4102 21.4287C53.2461 21.2178 53.123 20.9775 53.041 20.708C52.959 20.4385 52.918 20.1543 52.918 19.8555V11.1104C52.918 11.0225 52.9062 10.9346 52.8828 10.8467C52.8652 10.7529 52.833 10.6709 52.7861 10.6006C52.7393 10.5244 52.6777 10.4658 52.6016 10.4248C52.5312 10.3779 52.4434 10.3545 52.3379 10.3545C52.1621 10.3545 51.9717 10.4277 51.7666 10.5742C51.5674 10.7148 51.3652 10.9199 51.1602 11.1895C50.9609 11.4531 50.7676 11.7725 50.5801 12.1475C50.3926 12.5225 50.2256 12.9385 50.0791 13.3955C49.9385 13.8525 49.8242 14.3477 49.7363 14.8809C49.6484 15.4082 49.6045 15.9619 49.6045 16.542V21.6221L47.7852 22.2725V11.1104C47.7852 11.0225 47.7734 10.9346 47.75 10.8467C47.7324 10.7529 47.7002 10.6709 47.6533 10.6006C47.6064 10.5244 47.5479 10.4658 47.4775 10.4248C47.4072 10.3779 47.3193 10.3545 47.2139 10.3545C47.0381 10.3545 46.8477 10.4629 46.6426 10.6797C46.4434 10.8906 46.2412 11.1748 46.0361 11.5322C45.8369 11.8838 45.6406 12.291 45.4473 12.7539C45.2598 13.2168 45.0928 13.6973 44.9463 14.1953C44.8057 14.6875 44.6914 15.1797 44.6035 15.6719C44.5156 16.1641 44.4717 16.6182 44.4717 17.0342V21.6221L42.6523 22.2725V9.68652L44.4717 9.03613V13.9932C44.7002 13.0088 44.958 12.2002 45.2451 11.5674C45.5381 10.9346 45.8398 10.4336 46.1504 10.0645C46.4668 9.69531 46.7891 9.44043 47.1172 9.2998C47.4453 9.15332 47.7646 9.08008 48.0752 9.08008C48.4268 9.08008 48.7051 9.12402 48.9102 9.21191C49.1152 9.29395 49.2705 9.41113 49.376 9.56348C49.4814 9.70996 49.5459 9.88574 49.5693 10.0908C49.5986 10.29 49.6104 10.5098 49.6045 10.75V13.3604C49.7803 12.6338 50.0088 12.0039 50.29 11.4707C50.5713 10.9316 50.876 10.4863 51.2041 10.1348C51.5322 9.77734 51.8691 9.51367 52.2148 9.34375C52.5664 9.16797 52.8975 9.08008 53.208 9.08008C53.7002 9.08008 54.0781 9.18555 54.3418 9.39648C54.6055 9.60156 54.7373 9.9502 54.7373 10.4424V20.1455C54.7373 20.2627 54.749 20.3799 54.7725 20.4971C54.7959 20.6143 54.834 20.7197 54.8867 20.8135C54.9453 20.9014 55.0215 20.9746 55.1152 21.0332C55.209 21.0918 55.3232 21.1211 55.458 21.1211C55.6572 21.1211 55.8477 21.0625 56.0293 20.9453C56.2109 20.8281 56.3604 20.6934 56.4775 20.541L56.7676 20.7959ZM63.5 21.2793C63.5 21.7012 63.4473 22.1113 63.3418 22.5098C63.2363 22.9141 63.0898 23.292 62.9023 23.6436C62.7207 24.001 62.5039 24.3262 62.252 24.6191C62 24.918 61.7246 25.1729 61.4258 25.3838C61.1328 25.6006 60.8223 25.7676 60.4941 25.8848C60.166 26.0078 59.835 26.0693 59.501 26.0693C59.249 26.0693 59.0117 26.0254 58.7891 25.9375C58.5664 25.8555 58.3555 25.7441 58.1562 25.6035L59.1406 24.3555C59.2285 24.4258 59.3252 24.499 59.4307 24.5752C59.542 24.6514 59.6562 24.7188 59.7734 24.7773C59.8906 24.8418 60.0107 24.8916 60.1338 24.9268C60.2627 24.9678 60.3887 24.9883 60.5117 24.9883C60.7344 24.9883 60.9219 24.9209 61.0742 24.7861C61.2324 24.6514 61.3613 24.4785 61.4609 24.2676C61.5605 24.0566 61.6396 23.8164 61.6982 23.5469C61.7568 23.2832 61.7979 23.0195 61.8213 22.7559C61.8506 22.4922 61.8682 22.2402 61.874 22C61.8799 21.7656 61.8828 21.5723 61.8828 21.4199V17.8779C61.8359 18.083 61.7744 18.332 61.6982 18.625C61.6221 18.9121 61.5254 19.2168 61.4082 19.5391C61.2969 19.8555 61.168 20.1719 61.0215 20.4883C60.875 20.7988 60.708 21.0801 60.5205 21.332C60.3389 21.584 60.1338 21.7891 59.9053 21.9473C59.6826 22.0996 59.4395 22.1758 59.1758 22.1758C58.9062 22.1758 58.7012 22.1172 58.5605 22C58.4258 21.877 58.3262 21.7246 58.2617 21.543C58.2031 21.3555 58.1709 21.1504 58.165 20.9277C58.1592 20.7051 58.1562 20.4912 58.1562 20.2861V16.4893C58.1562 16.3838 58.127 16.2812 58.0684 16.1816C58.0098 16.0762 57.9189 16.0234 57.7959 16.0234C57.6494 16.0234 57.5146 16.0791 57.3916 16.1904C57.2744 16.2959 57.1807 16.4014 57.1104 16.5068L56.873 16.2432C56.9434 16.0967 57.0312 15.9561 57.1367 15.8213C57.248 15.6807 57.3711 15.5576 57.5059 15.4521C57.6465 15.3467 57.7959 15.2646 57.9541 15.2061C58.1182 15.1416 58.2881 15.1094 58.4639 15.1094C58.9209 15.1094 59.249 15.2383 59.4482 15.4961C59.6533 15.748 59.7559 16.0908 59.7559 16.5244V20.1455C59.7559 20.1807 59.7559 20.2275 59.7559 20.2861C59.7617 20.3389 59.7734 20.3916 59.791 20.4443C59.8086 20.4912 59.835 20.5352 59.8701 20.5762C59.9053 20.6113 59.9521 20.6289 60.0107 20.6289C60.1221 20.6289 60.2363 20.5645 60.3535 20.4355C60.4707 20.3066 60.582 20.1572 60.6875 19.9873C60.793 19.8174 60.8838 19.6475 60.96 19.4775C61.0361 19.3076 61.0918 19.1816 61.127 19.0996C61.2324 18.8477 61.3262 18.5723 61.4082 18.2734C61.4902 17.9746 61.5605 17.6699 61.6191 17.3594C61.6836 17.043 61.7363 16.7324 61.7773 16.4277C61.8242 16.1172 61.8594 15.8213 61.8828 15.54L63.5 14.9775V21.2793ZM75.2158 18.0186C75.2158 18.6104 75.0928 19.1494 74.8467 19.6357C74.6064 20.1221 74.2812 20.5615 73.8711 20.9541C73.4668 21.3408 73.001 21.6777 72.4736 21.9648C71.9521 22.252 71.4072 22.4922 70.8389 22.6855C70.2764 22.8848 69.7109 23.0342 69.1426 23.1338C68.5801 23.2393 68.0586 23.3008 67.5781 23.3184L67.4551 22.8789C67.8418 22.7969 68.252 22.6885 68.6855 22.5537C69.1191 22.4248 69.5469 22.2637 69.9688 22.0703C70.3965 21.8828 70.8008 21.6631 71.1816 21.4111C71.5684 21.1592 71.9082 20.8721 72.2012 20.5498C72.4941 20.2217 72.7256 19.8613 72.8955 19.4688C73.0713 19.0703 73.1592 18.6309 73.1592 18.1504C73.1592 17.7871 73.0742 17.459 72.9043 17.166C72.7402 16.8672 72.5234 16.6152 72.2539 16.4102C71.9902 16.1992 71.6885 16.0381 71.3486 15.9268C71.0146 15.8096 70.6777 15.751 70.3379 15.751C69.9336 15.751 69.5352 15.8008 69.1426 15.9004C68.75 15.9941 68.3633 16.1143 67.9824 16.2607L67.833 15.9004C68.0967 15.7832 68.375 15.6426 68.668 15.4785C68.9668 15.3145 69.2568 15.1328 69.5381 14.9336C69.8252 14.7285 70.0977 14.5059 70.3555 14.2656C70.6133 14.0195 70.8389 13.7588 71.0322 13.4834C71.2314 13.2021 71.3896 12.9092 71.5068 12.6045C71.624 12.2939 71.6826 11.9688 71.6826 11.6289C71.6826 11.4121 71.6475 11.2158 71.5771 11.04C71.5127 10.8584 71.416 10.7031 71.2871 10.5742C71.1582 10.4395 71.0029 10.3369 70.8213 10.2666C70.6455 10.1904 70.4492 10.1523 70.2324 10.1523C69.8809 10.1523 69.5703 10.2285 69.3008 10.3809C69.0371 10.5332 68.8057 10.7354 68.6064 10.9873C68.4131 11.2393 68.249 11.5293 68.1143 11.8574C67.9854 12.1797 67.8799 12.5107 67.7979 12.8506C67.7217 13.1904 67.666 13.5273 67.6309 13.8613C67.5957 14.1895 67.5781 14.4854 67.5781 14.749V21.5342L65.7676 22.1758V15.7158C65.7676 15.1475 65.832 14.5938 65.9609 14.0547C66.0898 13.5156 66.2744 13.0059 66.5146 12.5254C66.7607 12.0391 67.0566 11.5938 67.4023 11.1895C67.7539 10.7852 68.1465 10.4395 68.5801 10.1523C69.0195 9.85938 69.4971 9.63086 70.0127 9.4668C70.5342 9.30273 71.085 9.2207 71.665 9.2207C71.9287 9.2207 72.1836 9.25586 72.4297 9.32617C72.6758 9.39648 72.8896 9.50488 73.0713 9.65137C73.2588 9.79785 73.4082 9.97949 73.5195 10.1963C73.6309 10.4131 73.6865 10.665 73.6865 10.9521C73.6865 11.2627 73.6221 11.5703 73.4932 11.875C73.3701 12.1738 73.2031 12.4668 72.9922 12.7539C72.7812 13.041 72.541 13.3164 72.2715 13.5801C72.002 13.8379 71.7207 14.0781 71.4277 14.3008C71.1406 14.5234 70.8535 14.7227 70.5664 14.8984C70.2793 15.0742 70.0156 15.2207 69.7754 15.3379C70.373 15.1973 70.9854 15.127 71.6123 15.127C72.0693 15.127 72.5117 15.1826 72.9395 15.2939C73.373 15.3994 73.7568 15.5693 74.0908 15.8037C74.4307 16.0322 74.7031 16.3311 74.9082 16.7002C75.1133 17.0635 75.2158 17.5029 75.2158 18.0186ZM79.5576 20.9717C79.4873 21.124 79.3965 21.2676 79.2852 21.4023C79.1797 21.5371 79.0596 21.6572 78.9248 21.7627C78.79 21.8682 78.6406 21.9502 78.4766 22.0088C78.3184 22.0732 78.1543 22.1055 77.9844 22.1055C77.5273 22.1055 77.1934 21.9795 76.9824 21.7275C76.7773 21.4697 76.6748 21.1211 76.6748 20.6816V9.95898L78.292 9.39648V20.7256C78.292 20.8428 78.3184 20.9512 78.3711 21.0508C78.4238 21.1445 78.5176 21.1914 78.6523 21.1914C78.7871 21.1914 78.9131 21.1387 79.0303 21.0332C79.1533 20.9219 79.25 20.8135 79.3203 20.708L79.5576 20.9717ZM83.3281 22.2021C82.8945 22.2021 82.4873 22.126 82.1064 21.9736C81.7314 21.8154 81.4033 21.5986 81.1221 21.3232C80.8467 21.0479 80.627 20.7256 80.4629 20.3564C80.3047 19.9814 80.2256 19.5742 80.2256 19.1348C80.2256 18.6367 80.3076 18.1709 80.4717 17.7373C80.6357 17.2979 80.8613 16.9023 81.1484 16.5508C81.4414 16.1992 81.7842 15.8945 82.1768 15.6367C82.5752 15.3789 83.0059 15.1768 83.4688 15.0303L83.7236 15.3379C83.46 15.5312 83.2139 15.7539 82.9854 16.0059C82.7568 16.252 82.5576 16.5215 82.3877 16.8145C82.2178 17.1016 82.083 17.4062 81.9834 17.7285C81.8838 18.0449 81.834 18.3701 81.834 18.7041C81.834 18.9854 81.875 19.2812 81.957 19.5918C82.0391 19.9023 82.1621 20.1865 82.3262 20.4443C82.4902 20.7021 82.6953 20.916 82.9414 21.0859C83.1934 21.25 83.4834 21.332 83.8115 21.332C84.1045 21.332 84.3564 21.2793 84.5674 21.1738C84.7842 21.0684 84.9629 20.9248 85.1035 20.7432C85.2441 20.5615 85.3496 20.3506 85.4199 20.1104C85.4902 19.8643 85.5254 19.6064 85.5254 19.3369C85.5254 19.0205 85.4639 18.6982 85.3408 18.3701C85.2178 18.0361 85.0479 17.7285 84.8311 17.4473C84.6201 17.166 84.3711 16.9316 84.084 16.7441C83.7969 16.5566 83.4893 16.4482 83.1611 16.4189C83.3662 16.1846 83.5918 15.9678 83.8379 15.7686C84.084 15.5693 84.333 15.3789 84.585 15.1973C84.9248 15.3086 85.2236 15.4727 85.4814 15.6895C85.7451 15.9062 85.9648 16.1553 86.1406 16.4365C86.3223 16.7178 86.46 17.0254 86.5537 17.3594C86.6475 17.6875 86.6943 18.0215 86.6943 18.3613C86.6943 18.8242 86.6123 19.2842 86.4482 19.7412C86.29 20.1982 86.0615 20.6113 85.7627 20.9805C85.4697 21.3438 85.1152 21.6396 84.6992 21.8682C84.2891 22.0908 83.832 22.2021 83.3281 22.2021ZM93.7607 21.3496C93.7607 21.6953 93.7139 22.0469 93.6201 22.4043C93.5264 22.7676 93.3916 23.1221 93.2158 23.4678C93.0459 23.8135 92.8408 24.1387 92.6006 24.4434C92.3604 24.7539 92.0908 25.0234 91.792 25.252C91.499 25.4805 91.1797 25.6621 90.834 25.7969C90.4941 25.9316 90.1396 25.999 89.7705 25.999C89.5361 25.999 89.3105 25.9609 89.0938 25.8848C88.8828 25.8086 88.6924 25.6885 88.5225 25.5244L89.6826 24.4258C89.8057 24.5898 89.9492 24.7217 90.1133 24.8213C90.2773 24.9209 90.4619 24.9707 90.667 24.9707C90.9658 24.9707 91.209 24.9121 91.3965 24.7949C91.584 24.6836 91.7334 24.5312 91.8447 24.3379C91.9561 24.1504 92.0352 23.9336 92.082 23.6875C92.1289 23.4473 92.1582 23.1982 92.1699 22.9404C92.1816 22.6826 92.1816 22.4307 92.1699 22.1846C92.1641 21.9385 92.1611 21.7158 92.1611 21.5166V20.5059C92.0557 20.7051 91.9355 20.9043 91.8008 21.1035C91.6719 21.3027 91.5225 21.4814 91.3525 21.6396C91.1885 21.7979 91.0039 21.9268 90.7988 22.0264C90.5938 22.126 90.3652 22.1758 90.1133 22.1758C89.7324 22.1758 89.3955 22.1025 89.1025 21.9561C88.8096 21.8096 88.5635 21.6133 88.3643 21.3672C88.165 21.1152 88.0156 20.8223 87.916 20.4883C87.8164 20.1543 87.7666 19.7998 87.7666 19.4248C87.7666 19.085 87.8076 18.7422 87.8896 18.3965C87.9717 18.0449 88.0859 17.708 88.2324 17.3857C88.3848 17.0635 88.5693 16.7617 88.7861 16.4805C89.0088 16.1992 89.2549 15.9561 89.5244 15.751C89.7998 15.54 90.1016 15.376 90.4297 15.2588C90.7578 15.1357 91.1064 15.0742 91.4756 15.0742C91.6982 15.0742 91.9209 15.1006 92.1436 15.1533C92.3662 15.2061 92.5771 15.2881 92.7764 15.3994C92.9814 15.5049 93.166 15.6367 93.3301 15.7949C93.5 15.9531 93.6377 16.1377 93.7432 16.3486L92.4336 16.9023C92.3633 16.791 92.2812 16.6797 92.1875 16.5684C92.0996 16.4512 92 16.3457 91.8887 16.252C91.7832 16.1582 91.666 16.082 91.5371 16.0234C91.4141 15.9648 91.2852 15.9355 91.1504 15.9355C90.9512 15.9355 90.7637 15.9824 90.5879 16.0762C90.418 16.1699 90.2598 16.293 90.1133 16.4453C89.9727 16.5977 89.8467 16.7734 89.7354 16.9727C89.624 17.166 89.5303 17.3682 89.4541 17.5791C89.3779 17.79 89.3193 17.998 89.2783 18.2031C89.2432 18.4082 89.2256 18.5928 89.2256 18.7568C89.2256 18.9795 89.2461 19.2314 89.2871 19.5127C89.334 19.7881 89.4131 20.0488 89.5244 20.2949C89.6357 20.541 89.7822 20.749 89.9639 20.9189C90.1455 21.0889 90.374 21.1738 90.6494 21.1738C90.8662 21.1738 91.0537 21.127 91.2119 21.0332C91.3701 20.9336 91.5049 20.8076 91.6162 20.6553C91.7275 20.4971 91.8184 20.3184 91.8887 20.1191C91.9648 19.9141 92.0205 19.7061 92.0557 19.4951C92.0967 19.2842 92.123 19.0762 92.1348 18.8711C92.1523 18.6602 92.1611 18.4727 92.1611 18.3086V17.7021L93.7607 17.1396V21.3496Z" fill="white"/>
<defs>
<clipPath id="clip0">
<rect width="26" height="26" fill="white" transform="translate(4 5)"/>
</clipPath>
</defs>
</svg>
