<svg width="24" height="24" viewBox="0 0 24 24" fill="none" xmlns="http://www.w3.org/2000/svg">
<g clip-path="url(#clip0)">
<path d="M10.7714 0C10.1245 0 9.6 0.524471 9.6 1.17144V4.71275C9.6 5.86301 9.05534 6.94532 8.13152 7.63073H14.1714V3.4C14.1714 1.52221 12.6492 0 10.7714 0V0Z" fill="url(#paint0_linear)"/>
<path d="M23.4286 9.04377C23.4286 7.83614 22.4496 6.85713 21.242 6.85713H10.0528C9.33643 6.85713 8.65177 7.13831 8.13153 7.63069C7.05271 8.65172 5.60254 9.28429 4.00471 9.30504L4.00527 9.30608V21.551L4.00471 21.552C5.6025 21.5728 7.05266 22.2053 8.13153 23.2264C8.65177 23.7188 9.33643 24 10.0528 24H21.242C22.4496 24 23.4286 23.0211 23.4286 21.8134C23.4286 21.2958 23.2487 20.8204 22.948 20.4461C22.5885 19.9983 22.5885 19.372 22.948 18.9243C23.2487 18.5499 23.4286 18.0745 23.4286 17.5569C23.4286 17.0393 23.2487 16.5639 22.948 16.1896C22.5885 15.7418 22.5885 15.1154 22.948 14.6677C23.2487 14.2934 23.4286 13.8179 23.4286 13.3004C23.4286 12.7828 23.2487 12.3074 22.948 11.933C22.5885 11.4853 22.5885 10.859 22.948 10.4112C23.2487 10.0368 23.4286 9.56132 23.4286 9.04377Z" fill="url(#paint1_linear)"/>
<path d="M23.4286 9.04377C23.4286 7.83614 22.4496 6.85713 21.242 6.85713H18.7833C19.991 6.85713 20.9699 7.8361 20.9699 9.04372C20.9699 9.56132 20.79 10.0367 20.4894 10.4111C20.1298 10.8588 20.1298 11.4851 20.4894 11.9329C20.7901 12.3072 20.9699 12.7826 20.9699 13.3002C20.9699 13.8178 20.79 14.2932 20.4894 14.6676C20.1298 15.1153 20.1298 15.7416 20.4894 16.1894C20.7901 16.5638 20.9699 17.0392 20.9699 17.5568C20.9699 18.0744 20.79 18.5497 20.4894 18.9241C20.1298 19.3719 20.1298 19.9982 20.4894 20.4459C20.7901 20.8203 20.9699 21.2957 20.9699 21.8133C20.9699 23.0209 19.991 23.9999 18.7833 23.9999H21.242C22.4496 23.9999 23.4286 23.0209 23.4286 21.8133C23.4286 21.2957 23.2487 20.8203 22.948 20.4459C22.5885 19.9982 22.5885 19.3719 22.948 18.9241C23.2487 18.5497 23.4286 18.0744 23.4286 17.5568C23.4286 17.0392 23.2487 16.5638 22.948 16.1894C22.5885 15.7417 22.5885 15.1153 22.948 14.6676C23.2487 14.2932 23.4286 13.8178 23.4286 13.3002C23.4286 12.7826 23.2487 12.3072 22.948 11.9329C22.5885 11.4851 22.5885 10.8588 22.948 10.4111C23.2487 10.0368 23.4286 9.56132 23.4286 9.04377Z" fill="url(#paint2_linear)"/>
<path d="M3.14268 23.0683V7.7888H4.2601C5.22095 7.7888 5.99986 8.56772 5.99986 9.52857V21.3286C5.99986 22.2894 5.22095 23.0683 4.2601 23.0683H3.14268Z" fill="url(#paint3_linear)"/>
<path d="M0.571434 22.8826V7.97454C0.571434 7.35741 1.07172 6.85713 1.68885 6.85713C2.64969 6.85713 3.42861 7.63605 3.42861 8.5969V22.2603C3.42861 23.2211 2.64969 24 1.68885 24C1.07172 24 0.571434 23.4997 0.571434 22.8826Z" fill="url(#paint4_linear)"/>
</g>
<defs>
<linearGradient id="paint0_linear" x1="8.13152" y1="3.81534" x2="13.8067" y2="3.81534" gradientUnits="userSpaceOnUse">
<stop stop-color="#FFDCBD"/>
<stop offset="0.0028" stop-color="#FFDCBD"/>
<stop offset="1" stop-color="#FFA9B1"/>
</linearGradient>
<linearGradient id="paint1_linear" x1="5.36443" y1="15.4286" x2="22.2643" y2="15.4286" gradientUnits="userSpaceOnUse">
<stop stop-color="#FFDCBD"/>
<stop offset="0.0028" stop-color="#FFDCBD"/>
<stop offset="1" stop-color="#FFA9B1"/>
</linearGradient>
<linearGradient id="paint2_linear" x1="17.0538" y1="15.4286" x2="23.7532" y2="15.4286" gradientUnits="userSpaceOnUse">
<stop stop-color="#FFC2B5"/>
<stop offset="1" stop-color="#FF89A8"/>
</linearGradient>
<linearGradient id="paint3_linear" x1="2.4824" y1="15.4286" x2="5.62607" y2="15.4286" gradientUnits="userSpaceOnUse">
<stop stop-color="#F2FBFF"/>
<stop offset="0.593" stop-color="#FAF7F7"/>
<stop offset="1" stop-color="#F3EAE6"/>
</linearGradient>
<linearGradient id="paint4_linear" x1="-0.146167" y1="15.4286" x2="4.08395" y2="15.4286" gradientUnits="userSpaceOnUse">
<stop stop-color="#01D0FB"/>
<stop offset="0.6075" stop-color="#26A6FE"/>
<stop offset="1" stop-color="#0182FC"/>
</linearGradient>
<clipPath id="clip0">
<rect width="24" height="24" fill="white"/>
</clipPath>
</defs>
</svg>
