<svg width="46" height="46" viewBox="0 0 46 46" fill="none" xmlns="http://www.w3.org/2000/svg">
<circle cx="23" cy="23" r="23" fill="url(#paint0_linear)"/>
<g clip-path="url(#clip0)">
<path d="M34.6367 20.783C34.6367 19.7018 33.7026 18.5028 32.9382 17.7385C32.6885 17.4886 32.2969 17.4638 32.019 17.664C31.6551 17.1475 31.2237 16.6497 30.7775 16.2035C30.4654 15.8881 29.9572 15.8845 29.642 16.1974C29.3409 16.4965 28.4216 17.4569 27.8593 18.5558C27.5596 18.4792 27.2719 18.6285 27.1636 18.8174L26.5795 19.8351C25.7322 21.3116 25.9537 23.1119 27.1307 24.315C28.8151 26.0367 31.6349 26.1048 33.3861 24.3147C34.2153 23.4671 34.6591 22.3482 34.6358 21.1639C34.6356 20.7695 34.6367 20.783 34.6367 20.783ZM32.7579 23.7002C31.3581 25.131 29.106 25.0773 27.759 23.7004C26.8602 22.7816 26.6926 21.4042 27.3418 20.2727L27.7481 19.5648C27.9789 19.7661 28.3399 19.6751 28.4481 19.3891C28.8571 18.3078 29.837 17.25 30.2068 16.8759C30.5327 17.2044 31.1261 17.8474 31.573 18.5854C31.7242 18.8348 32.0759 18.8727 32.2749 18.6524C32.3284 18.5932 32.382 18.5356 32.4351 18.4802C32.9619 19.0266 33.7567 20.0202 33.7567 20.7834C33.7571 21.4116 33.8332 22.6009 32.7579 23.7002Z" fill="white"/>
<path d="M29.7718 19.0244C29.0889 19.7036 28.1375 20.9499 28.2092 21.8678C28.2209 22.6 28.6201 23.269 29.257 23.6196C29.3242 23.6566 29.3969 23.6742 29.4686 23.6741C29.9214 23.6741 30.0777 23.0682 29.6809 22.8497C29.3095 22.6452 29.0878 22.2658 29.0878 21.8346C29.0878 21.1764 29.8053 20.261 30.2589 19.7833C30.73 20.2763 31.4296 21.1559 31.4296 21.8346C31.4296 22.2268 31.232 22.5899 30.9012 22.8058C30.698 22.9385 30.6408 23.2108 30.7734 23.414C30.9062 23.6174 31.1786 23.6745 31.3816 23.5418C31.9791 23.1518 32.3095 22.5012 32.3095 21.8346C32.3095 20.7004 31.2156 19.4914 30.7479 19.0267C30.4853 18.7615 30.0457 18.7515 29.7718 19.0244Z" fill="white"/>
<path d="M24.4961 23.8352V10.9551C24.4961 8.77422 22.7219 7 20.541 7C18.3602 7 16.586 8.77422 16.586 10.9551V23.8352C14.6049 25.1485 13.3633 27.3743 13.3633 29.8223C13.3633 33.7801 16.5832 37 20.541 37C21.9152 37 23.2516 36.6087 24.4058 35.8685C24.6101 35.7375 24.6695 35.4656 24.5385 35.2613C24.4075 35.0571 24.1356 34.9976 23.9314 35.1286C22.919 35.778 21.7467 36.1211 20.541 36.1211C17.0679 36.1211 14.2422 33.2954 14.2422 29.8223C14.2422 27.6173 15.3687 25.6091 17.2554 24.4505C17.3856 24.3706 17.4649 24.2288 17.4649 24.076V10.9551C17.4649 9.25891 18.8449 7.87891 20.541 7.87891C22.2372 7.87891 23.6172 9.25891 23.6172 10.9551V24.076C23.6172 24.2288 23.6965 24.3706 23.8267 24.4506C25.7134 25.6091 26.8399 27.6173 26.8399 29.8223C26.8399 31.3986 26.2522 32.9082 25.1852 34.073C25.0213 34.252 25.0335 34.5299 25.2124 34.6939C25.3914 34.8579 25.6694 34.8457 25.8333 34.6667C27.0492 33.3395 27.7188 31.619 27.7188 29.8223C27.7188 27.3695 26.473 25.1458 24.4961 23.8352Z" fill="white"/>
<path d="M22.7384 24.869C22.7384 24.2625 22.7384 14.1235 22.7384 13.5291C22.7384 13.5265 22.738 13.5241 22.738 13.5214C22.7338 13.2829 22.5394 13.0897 22.2978 13.0897H19.9551H19.2227V12.2108H19.9551C20.1979 12.2108 20.3946 12.0141 20.3946 11.7713C20.3946 11.5286 20.1979 11.3319 19.9551 11.3319H19.2227V10.9551C19.2227 10.2339 19.8091 9.63672 20.5411 9.63672C21.2678 9.63672 21.8595 10.2287 21.8595 10.9551V11.7713C21.8595 12.0139 22.0563 12.2107 22.2989 12.2107C22.5409 12.2107 22.7384 12.0139 22.7384 11.7713V10.9551C22.7371 9.74248 21.7573 8.75904 20.5411 8.75781C19.3222 8.75904 18.3438 9.74623 18.3438 10.9551V24.869C16.4042 25.7332 15.1212 27.6862 15.1212 29.8223C15.1212 32.8108 17.5525 35.2422 20.5411 35.2422C23.5297 35.2422 25.961 32.8108 25.961 29.8223C25.961 27.6862 24.6779 25.7332 22.7384 24.869ZM20.5411 34.3633C18.0372 34.3633 16.0001 32.3262 16.0001 29.8223C16.0001 27.9467 17.1811 26.2395 18.9388 25.5742C19.1097 25.5095 19.2227 25.3459 19.2227 25.1631V22.7576H19.9551C20.1979 22.7576 20.3946 22.5609 20.3946 22.3182C20.3946 22.0754 20.1979 21.8787 19.9551 21.8787H19.2227V20.9998H19.9551C20.1979 20.9998 20.3946 20.8031 20.3946 20.5604C20.3946 20.3176 20.1979 20.1209 19.9551 20.1209H19.2227V19.242H19.9551C20.1979 19.242 20.3946 19.0453 20.3946 18.8025C20.3946 18.5598 20.1979 18.3631 19.9551 18.3631H19.2227V17.4842H19.9551C20.1979 17.4842 20.3946 17.2875 20.3946 17.0447C20.3946 16.802 20.1979 16.6053 19.9551 16.6053H19.2227V15.7264H19.9551C20.1979 15.7264 20.3946 15.5297 20.3946 15.2869C20.3946 15.0442 20.1979 14.8475 19.9551 14.8475H19.2227V13.9686H19.9551H21.8595V25.1631C21.8595 25.3458 21.9725 25.5094 22.1433 25.5742C23.9011 26.2395 25.0821 27.9467 25.0821 29.8223C25.0821 32.3262 23.045 34.3633 20.5411 34.3633Z" fill="white"/>
<path d="M17.9629 28.5625C17.7202 28.5625 17.5235 28.7593 17.5235 29.002V29.5879C17.5235 29.8306 17.7202 30.0273 17.9629 30.0273C18.2056 30.0273 18.4024 29.8306 18.4024 29.5879V29.002C18.4024 28.7593 18.2056 28.5625 17.9629 28.5625Z" fill="white"/>
<path d="M23.1192 30.0273C23.3619 30.0273 23.5586 29.8306 23.5586 29.5879V29.002C23.5586 28.7593 23.3619 28.5625 23.1192 28.5625C22.8765 28.5625 22.6797 28.7593 22.6797 29.002V29.5879C22.6797 29.8306 22.8765 30.0273 23.1192 30.0273Z" fill="white"/>
<path d="M20.0293 29.8672C19.9246 29.6483 19.6621 29.5557 19.4433 29.6603C19.2243 29.765 19.1317 30.0274 19.2364 30.2463C19.4792 30.7541 20.0028 31.0822 20.5703 31.0822C21.1379 31.0822 21.6615 30.7541 21.9043 30.2463C22.009 30.0274 21.9163 29.765 21.6974 29.6603C21.4784 29.5555 21.216 29.6483 21.1114 29.8672C21.0138 30.0714 20.8014 30.2033 20.5703 30.2033C20.3393 30.2033 20.1269 30.0714 20.0293 29.8672Z" fill="white"/>
</g>
<defs>
<linearGradient id="paint0_linear" x1="0" y1="0" x2="51.4762" y2="52.5714" gradientUnits="userSpaceOnUse">
<stop stop-color="#FF5C01"/>
<stop offset="1" stop-color="#FFBB01"/>
</linearGradient>
<clipPath id="clip0">
<rect width="30" height="30" fill="white" transform="translate(9 7)"/>
</clipPath>
</defs>
</svg>
