<svg width="46" height="45" viewBox="0 0 46 45" fill="none" xmlns="http://www.w3.org/2000/svg">
<ellipse cx="23" cy="22.5" rx="23" ry="22.5" fill="url(#paint0_linear)"/>
<g clip-path="url(#clip0)">
<path d="M35.6441 16.5646C35.644 16.5646 35.644 16.5646 35.644 16.5646L35.6431 16.5637L34.0295 16.3335C33.8027 16.3012 33.645 16.0912 33.6773 15.8643C33.6928 15.7554 33.751 15.657 33.8391 15.591L35.1433 14.6128C35.3266 14.4754 35.3637 14.2154 35.2262 14.0321L33.7329 12.0409C33.5954 11.8576 33.3354 11.8205 33.1521 11.9579L31.8483 12.9361C31.6658 13.0746 31.4056 13.0389 31.2671 12.8564C31.1998 12.7678 31.171 12.6558 31.1871 12.5457L31.4177 10.9321C31.4502 10.7053 31.2928 10.4951 31.066 10.4625C31.0658 10.4625 31.0657 10.4625 31.0655 10.4625L28.6031 10.1107C28.3764 10.0781 28.1661 10.2356 28.1335 10.4624C28.1335 10.4624 28.1335 10.4624 28.1335 10.4625L27.9029 12.0762C27.8706 12.303 27.6605 12.4606 27.4337 12.4283C27.3247 12.4128 27.2264 12.3546 27.1604 12.2666L26.1826 10.9623C26.0452 10.779 25.7852 10.7419 25.6019 10.8794L24.3553 11.8148C23.7914 11.7549 23.2226 11.7549 22.6587 11.8148C18.9654 12.237 16.0691 15.1823 15.7091 18.8822C15.6979 18.9996 15.6937 19.1162 15.6879 19.2327H15.5635C15.3667 19.2331 15.1971 19.3718 15.1578 19.5646L14.8711 20.9277L13.7229 20.1358C13.5581 20.0221 13.3356 20.0424 13.194 20.1839L11.9495 21.4284C11.8082 21.5699 11.7879 21.7922 11.9014 21.9569L12.6896 23.1031L11.326 23.3897C11.1353 23.4315 10.9996 23.6006 11 23.7958V25.4551C10.9999 25.6513 11.1373 25.8208 11.3294 25.8612L12.6929 26.1479L11.9047 27.294C11.7913 27.4588 11.8115 27.681 11.9528 27.8225L13.1973 29.067C13.3389 29.2086 13.5614 29.2288 13.7262 29.1151L14.8724 28.3249L15.159 29.6884C15.1984 29.8813 15.3679 30.0199 15.5647 30.0203H17.224C17.4202 30.0204 17.5897 29.8829 17.6301 29.6909L17.9168 28.3274L19.063 29.1155C19.2277 29.229 19.4499 29.2088 19.5914 29.0674L20.2357 28.4211V29.6034C20.2375 30.1935 20.5537 30.7379 21.0653 31.032V33.3368C21.0653 34.2532 21.8082 34.9961 22.7246 34.9961H24.3839C25.3003 34.9961 26.0432 34.2532 26.0432 33.3368V31.032C26.5549 30.7379 26.871 30.1935 26.8729 29.6034V27.9615C26.8841 27.2707 27.2456 26.6329 27.8324 26.2682C28.1766 26.0448 28.5031 25.7952 28.8089 25.5215L28.2555 24.9034C27.982 25.1486 27.6897 25.372 27.3815 25.5717C26.5578 26.0887 26.0536 26.989 26.0432 27.9615V29.6034C26.0432 30.0616 25.6718 30.433 25.2136 30.433H21.895C21.4367 30.433 21.0653 30.0616 21.0653 29.6034V27.9271C21.0557 26.973 20.5594 26.09 19.7495 25.5858C16.4616 23.5199 15.471 19.1798 17.537 15.8919C18.8188 13.852 21.0558 12.6103 23.4651 12.6017C23.4589 12.6165 23.4535 12.6316 23.4489 12.647C23.4335 12.7558 23.462 12.8665 23.5281 12.9543L24.5059 14.2581C24.609 14.3916 24.6189 14.5748 24.5308 14.7186C24.4459 14.8633 24.2819 14.9422 24.116 14.9181L22.5023 14.6875C22.2755 14.655 22.0653 14.8125 22.0327 15.0392C22.0327 15.0394 22.0327 15.0395 22.0327 15.0397L21.6805 17.5033C21.648 17.7301 21.8055 17.9403 22.0322 17.9729C22.0324 17.9729 22.0325 17.9729 22.0327 17.9729L23.6464 18.2035C23.8732 18.2359 24.0309 18.4459 23.9986 18.6727C23.9831 18.7817 23.9248 18.88 23.8368 18.9461L22.533 19.9238C22.3497 20.0613 22.3125 20.3213 22.45 20.5046L23.9434 22.4958C24.0808 22.6791 24.3408 22.7162 24.5241 22.5787L25.8284 21.601C26.0118 21.4638 26.2718 21.5013 26.409 21.6848C26.4747 21.7726 26.5029 21.8828 26.4875 21.9913L26.2573 23.605C26.2247 23.8318 26.3821 24.042 26.609 24.0746C26.609 24.0746 26.609 24.0746 26.6091 24.0746L29.0731 24.4268C29.0925 24.4293 29.1121 24.4305 29.1316 24.4305C29.3381 24.4308 29.5134 24.279 29.5427 24.0746L29.7729 22.4609C29.8052 22.2341 30.0153 22.0764 30.2421 22.1087C30.3511 22.1242 30.4494 22.1825 30.5155 22.2705L31.4936 23.5743C31.6311 23.7576 31.8911 23.7947 32.0744 23.6573L34.0656 22.1639C34.2489 22.0264 34.286 21.7664 34.1485 21.5831L33.1708 20.2793C33.0682 20.1457 33.0583 19.9628 33.1459 19.8189C33.2289 19.6723 33.3944 19.5929 33.5607 19.6198L35.1744 19.85C35.4011 19.8826 35.6114 19.7251 35.644 19.4983C35.644 19.4983 35.644 19.4983 35.644 19.4982L35.9957 17.0342C36.0283 16.8073 35.8709 16.5971 35.6441 16.5646ZM21.895 31.2627H25.2136V32.0923H21.895V31.2627ZM21.895 32.922H25.2136V33.3368C25.2136 33.795 24.8422 34.1665 24.3839 34.1665H22.7246C22.2664 34.1665 21.895 33.795 21.895 33.3368V32.922ZM18.5925 25.7683C18.819 25.9535 19.0557 26.126 19.3015 26.2848C19.6934 26.5325 19.9885 26.9072 20.1374 27.3463L19.2476 28.2345L18.386 27.6404C18.0087 27.3804 17.4921 27.4755 17.232 27.8528C17.1697 27.9433 17.1259 28.0452 17.1033 28.1527L16.886 29.1886H15.8999L15.6825 28.1544C15.5882 27.706 15.1482 27.419 14.6998 27.5134C14.5923 27.536 14.4904 27.5798 14.3999 27.6421L13.5379 28.2345L12.7821 27.4803L13.3757 26.6191C13.6359 26.242 13.5412 25.7253 13.164 25.4651C13.0735 25.4026 12.9714 25.3587 12.8638 25.3361L11.8296 25.1183V24.1327L12.8638 23.9149C13.312 23.8198 13.5984 23.3794 13.5033 22.9312C13.4807 22.8248 13.4376 22.724 13.3761 22.6343L12.7821 21.7706L13.5379 21.0165L14.4003 21.6105C14.7778 21.8702 15.2944 21.7748 15.5541 21.3974C15.6163 21.307 15.66 21.2052 15.6825 21.0978L15.7551 20.7527C15.8216 21.2306 15.9317 21.7015 16.0841 22.1593C14.7192 22.322 13.7446 23.5605 13.9073 24.9254C14.07 26.2904 15.3085 27.265 16.6734 27.1022C17.4951 27.0042 18.2143 26.5043 18.5925 25.7683ZM17.9483 25.1838C17.6385 26.0448 16.6895 26.4917 15.8285 26.182C14.9674 25.8722 14.5206 24.9232 14.8303 24.0621C15.0673 23.4034 15.6927 22.9647 16.3927 22.9662C16.3981 22.9662 16.403 22.9662 16.4084 22.9662C16.7899 23.7887 17.3109 24.539 17.9483 25.1838ZM34.879 18.9689L33.676 18.7972C32.9956 18.7 32.3653 19.1728 32.2681 19.8532C32.2214 20.1799 32.3065 20.5118 32.5046 20.7759L33.2334 21.7478L31.906 22.7434L31.1767 21.7719C30.7644 21.222 29.9843 21.1104 29.4345 21.5228C29.1705 21.7208 28.9959 22.0155 28.9491 22.3423L28.7811 23.5469L27.1388 23.3121L27.3105 22.1091C27.408 21.4288 26.9354 20.7982 26.255 20.7009C25.9281 20.654 25.596 20.7391 25.3318 20.9373L24.3599 21.6661L23.3643 20.3387L24.3358 19.6094C24.8857 19.1971 24.9973 18.417 24.5849 17.8672C24.3869 17.6031 24.0922 17.4286 23.7654 17.3818L22.5624 17.21L22.7972 15.5677L24.0002 15.7395C24.6806 15.8369 25.3111 15.3643 25.4085 14.684C25.4553 14.357 25.3703 14.025 25.1721 13.7608L24.4408 12.788L25.7682 11.7924L26.4975 12.7644C26.9098 13.3143 27.6898 13.4258 28.2397 13.0135C28.5037 12.8155 28.6783 12.5207 28.7251 12.194L28.8968 10.991L30.5391 11.2253L30.3674 12.4283C30.2702 13.1088 30.743 13.7391 31.4234 13.8363C31.7502 13.8829 32.0821 13.7979 32.3461 13.5998L33.318 12.871L34.3136 14.1984L33.3417 14.9277C32.7918 15.34 32.6802 16.12 33.0926 16.6699C33.2906 16.9339 33.5853 17.1085 33.9121 17.1553L35.1151 17.327L34.879 18.9689Z" fill="white"/>
<path d="M28.8375 13.9497C27.0047 13.9497 25.5189 15.4355 25.5189 17.2683C25.5189 19.1011 27.0047 20.5869 28.8375 20.5869C30.6703 20.5869 32.1561 19.1011 32.1561 17.2683C32.1541 15.4363 30.6695 13.9517 28.8375 13.9497ZM28.8375 19.7573C27.4629 19.7573 26.3486 18.6429 26.3486 17.2683C26.3486 15.8937 27.4629 14.7794 28.8375 14.7794C30.2122 14.7794 31.3265 15.8937 31.3265 17.2683C31.3249 18.6423 30.2115 19.7557 28.8375 19.7573Z" fill="white"/>
<path d="M23.9691 28.3589H23.1395V29.6034H23.9691V28.3589Z" fill="white"/>
<path d="M21.7398 24.2852C19.1791 23.2849 17.9141 20.398 18.9145 17.8372C19.3022 16.845 19.9979 16.0033 20.8994 15.4358L20.456 14.7339C17.7422 16.4435 16.9281 20.0294 18.6378 22.7432C19.2999 23.7943 20.2816 24.6053 21.4387 25.0572C22.4629 25.4497 23.1392 26.4328 23.1395 27.5296H23.9691C23.9704 26.0906 23.0836 24.8 21.7398 24.2852Z" fill="white"/>
<path d="M34.3398 25.4551H31.436V26.2847H34.3398V25.4551Z" fill="white"/>
<path d="M31.2868 27.6253L30.7557 28.2627L33.2448 30.3365L33.7759 29.6991L31.2868 27.6253Z" fill="white"/>
<path d="M29.7767 28.7739H28.947V31.6777H29.7767V28.7739Z" fill="white"/>
<path d="M14.742 16.3414L11.4236 17.1709L11.6247 17.9753L14.9431 17.1458L14.742 16.3414Z" fill="white"/>
<path d="M12.5946 12.2588L12.1127 12.9336L15.0162 15.0075L15.4982 14.3328L12.5946 12.2588Z" fill="white"/>
<path d="M16.4707 10.0035L15.6669 10.209L16.5154 13.5273L17.3191 13.3218L16.4707 10.0035Z" fill="white"/>
</g>
<defs>
<linearGradient id="paint0_linear" x1="0" y1="0" x2="50.3217" y2="52.5344" gradientUnits="userSpaceOnUse">
<stop stop-color="#FF5C01"/>
<stop offset="1" stop-color="#FFBB01"/>
</linearGradient>
<clipPath id="clip0">
<rect width="25" height="25" fill="white" transform="translate(11 10)"/>
</clipPath>
</defs>
</svg>
