<svg width="46" height="46" viewBox="0 0 46 46" fill="none" xmlns="http://www.w3.org/2000/svg">
<circle cx="23" cy="23" r="23" fill="url(#paint0_linear)"/>
<g clip-path="url(#clip0)">
<path d="M15.0988 25.1528C15.3193 25.2622 15.5884 25.174 15.7001 24.953C15.8121 24.7325 15.7235 24.462 15.5034 24.3487C15.4382 24.3149 13.8974 23.4959 13.4937 21.0758C13.4608 20.8769 13.2993 20.7244 13.0981 20.7028C12.8925 20.6798 12.7071 20.7959 12.6319 20.9827C11.6554 23.4248 13.4968 26.2315 13.5755 26.3498C13.6619 26.4799 13.805 26.5501 13.95 26.5501C14.0354 26.5501 14.1223 26.5253 14.1992 26.4744C14.4058 26.3368 14.462 26.0577 14.3248 25.8508C14.3136 25.8337 13.5517 24.6686 13.3168 23.2966C14.0571 24.6164 15.0408 25.1235 15.0988 25.1528Z" fill="white"/>
<path d="M17.1882 26.091C17.4317 26.0423 17.5901 25.8052 17.5415 25.5618C17.4925 25.3183 17.258 25.1599 17.0118 25.209C16.1087 25.3894 14.4 26.3727 14.4 28.8C14.4 30.5613 14.769 31.7831 15.0539 32.4626C14.0688 32.6538 13.5 33.2734 13.5 34.2C13.5 35.2431 14.4464 36 15.75 36H16.2C16.9461 36 17.4051 35.4406 17.4546 35.3772C17.6076 35.1814 17.5729 34.8984 17.3768 34.7454C17.181 34.5919 16.898 34.6275 16.7454 34.8228C16.7432 34.8259 16.5146 35.1 16.2001 35.1H15.75C15.0791 35.1 14.4 34.7909 14.4 34.2C14.4 33.9772 14.4 33.3 15.75 33.3C15.9152 33.3 16.0664 33.2086 16.1451 33.0632C16.2238 32.9179 16.2158 32.7406 16.1258 32.6025C16.1172 32.5894 15.3 31.3074 15.3 28.7999C15.3 26.518 17.1135 26.1072 17.1882 26.091Z" fill="white"/>
<path d="M29.9461 32.4626C30.231 31.7831 30.6 30.5614 30.6 28.8001C30.6 26.3727 28.8914 25.3895 27.9882 25.2091C27.7443 25.1609 27.5076 25.3179 27.4586 25.5618C27.4099 25.8053 27.5684 26.0425 27.8118 26.091C27.8893 26.1068 29.7 26.4956 29.7 28.8001C29.7 31.3075 28.8828 32.5895 28.8756 32.6003C28.7838 32.7385 28.7749 32.9162 28.8531 33.0625C28.9314 33.2087 29.084 33.3001 29.25 33.3001C30.6 33.3001 30.6 33.9774 30.6 34.2001C30.6 34.7909 29.9209 35.1001 29.25 35.1001H28.8C28.4895 35.1001 28.2609 34.8306 28.2519 34.8198C28.0984 34.6276 27.8181 34.5935 27.6233 34.7455C27.427 34.8985 27.3924 35.1816 27.5454 35.3774C27.5949 35.4408 28.0539 36.0001 28.8 36.0001H29.25C30.5541 36.0001 31.5 35.2432 31.5 34.2002C31.5 33.2736 30.9312 32.6539 29.9461 32.4626Z" fill="white"/>
<path d="M25.2756 32.4342L26.0938 27.5243C26.1347 27.279 25.9691 27.0473 25.7239 27.0063C25.4777 26.9658 25.2469 27.131 25.2064 27.3758L24.3689 32.4001H24.3C24.0512 32.4001 23.8501 32.6017 23.8501 32.8501C23.8501 33.0984 24.0512 33.3 24.3 33.3H24.75C26.1 33.3 26.1 33.9773 26.1 34.2001C26.1 34.7909 25.421 35.1001 24.75 35.1001H24.3C23.5557 35.1001 22.95 34.4944 22.95 33.7501V27.45C22.95 27.2017 22.7489 27.0001 22.5001 27.0001C22.2512 27.0001 22.0501 27.2017 22.0501 27.45V33.7501C22.0501 34.4944 21.4444 35.1001 20.7001 35.1001H20.2501C19.5791 35.1001 18.9001 34.7909 18.9001 34.2001C18.9001 33.9773 18.9001 33.3 20.2501 33.3H20.7001C20.9489 33.3 21.1501 33.0984 21.1501 32.8501C21.1501 32.6017 20.9489 32.4001 20.7001 32.4001H20.6312L19.7938 27.3758C19.7538 27.131 19.522 26.9658 19.2763 27.0063C19.031 27.0473 18.8654 27.279 18.9064 27.5243L19.7245 32.4342C18.6346 32.585 18.0001 33.2213 18.0001 34.2001C18.0001 35.2431 18.9465 36 20.2501 36H20.7001C21.4354 36 22.0893 35.6455 22.5001 35.0987C22.9109 35.6455 23.5647 36 24.3 36H24.75C26.0541 36 27 35.2431 27 34.2001C27 33.2213 26.3655 32.585 25.2756 32.4342Z" fill="white"/>
<path d="M33.7023 12.8489C32.7132 10.8702 30.3305 9 28.8 9C27.9311 9 26.4357 10.3473 25.6847 11.0817C24.8166 10.3379 23.76 9.90002 22.5 9.90002C21.24 9.90002 20.1834 10.3379 19.3154 11.0817C18.5643 10.3473 17.0689 9 16.2 9C14.6695 9 12.2868 10.8702 11.2977 12.8489C10.9998 13.4438 10.8 14.2479 10.8 14.85C10.8 16.0907 11.8093 17.1001 13.05 17.1001C14.1682 17.1001 14.6686 16.3648 15.07 15.7739C15.1191 15.7023 15.1677 15.6303 15.2244 15.5498L17.0244 12.8498C17.1625 12.6428 17.1068 12.3633 16.8997 12.2256C16.6918 12.087 16.4132 12.1432 16.2756 12.3503L14.4823 15.0404C14.4292 15.1155 14.3775 15.1915 14.3257 15.2676C13.9211 15.8634 13.6619 16.2 13.05 16.2C12.3057 16.2 11.7 15.5943 11.7 14.85C11.7 14.3824 11.8655 13.725 12.1027 13.2511C12.9892 11.4777 15.1325 9.89996 16.1999 9.89996C16.5838 9.89996 17.7263 10.7937 18.679 11.7198C16.9883 13.6854 16.1999 16.9762 16.1999 20.25C16.1999 24.4048 18.0251 26.1 22.5 26.1C26.9748 26.1 28.8 24.4048 28.8 20.25C28.8 16.9758 28.0116 13.6854 26.3209 11.7198C27.2736 10.7937 28.4157 9.89996 28.8 9.89996C29.8674 9.89996 32.0107 11.4777 32.8977 13.2511C33.1344 13.725 33.3 14.3824 33.3 14.85C33.3 15.5943 32.6943 16.2 31.95 16.2C31.316 16.2 31.0658 15.867 30.6437 15.2294L28.7244 12.3503C28.5867 12.1433 28.3073 12.087 28.1002 12.2256C27.8933 12.3633 27.8375 12.6427 27.9756 12.8498L29.893 15.7262C30.3197 16.3701 30.8025 17.1 31.95 17.1C33.1906 17.1 34.2 16.0907 34.2 14.85C34.2 14.2479 34.0002 13.4438 33.7023 12.8489ZM27.9 20.25C27.9 23.9049 26.4866 25.2 22.5 25.2C18.5134 25.2 17.1 23.9049 17.1 20.25C17.1 15.5461 18.7699 10.8 22.5 10.8C26.2301 10.8 27.9 15.5461 27.9 20.25Z" fill="white"/>
<path d="M24.8 22.2938C24.723 22.4437 24.4224 22.4981 24.3 22.4999C23.7731 22.4999 23.2285 22.0512 23.0319 21.5355C23.7717 21.3682 24.3 20.8664 24.3 20.2499C24.3 19.493 23.5093 18.8999 22.5 18.8999C21.4907 18.8999 20.7 19.493 20.7 20.2499C20.7 20.8664 21.2283 21.3681 21.9681 21.5355C21.7719 22.0512 21.2274 22.4999 20.7031 22.4999C20.574 22.4981 20.2797 22.4436 20.1974 22.2889C20.0808 22.0693 19.8086 21.986 19.589 22.1025C19.3694 22.2191 19.2857 22.4914 19.4027 22.7109C19.7581 23.3806 20.6046 23.3999 20.7 23.3999C21.3989 23.3999 22.0748 23.0008 22.5 22.4297C22.9253 23.0008 23.6012 23.3999 24.3 23.3999C24.3963 23.3999 25.2522 23.3801 25.6001 22.706C25.7139 22.4851 25.6271 22.2138 25.4061 22.0999C25.1851 21.986 24.9142 22.0724 24.8 22.2938ZM22.5 20.6999C21.9591 20.6999 21.6 20.429 21.6 20.2499C21.6 20.0708 21.9591 19.7999 22.5 19.7999C23.0494 19.7999 23.4 20.0664 23.4 20.2499C23.4 20.4335 23.0494 20.6999 22.5 20.6999Z" fill="white"/>
<path d="M24.525 17.1C24.8971 17.1 25.2 16.7971 25.2 16.425C25.2 16.0529 24.8971 15.75 24.525 15.75C24.1529 15.75 23.85 16.0529 23.85 16.425C23.85 16.7971 24.1529 17.1 24.525 17.1Z" fill="white"/>
<path d="M20.475 17.1C20.8471 17.1 21.15 16.7971 21.15 16.425C21.15 16.0529 20.8471 15.75 20.475 15.75C20.1028 15.75 19.8 16.0529 19.8 16.425C19.8 16.7971 20.1028 17.1 20.475 17.1Z" fill="white"/>
</g>
<defs>
<linearGradient id="paint0_linear" x1="0" y1="0" x2="51.4762" y2="52.5714" gradientUnits="userSpaceOnUse">
<stop stop-color="#FF5C01"/>
<stop offset="1" stop-color="#FFBB01"/>
</linearGradient>
<clipPath id="clip0">
<rect width="27" height="27" fill="white" transform="translate(9 9)"/>
</clipPath>
</defs>
</svg>
