<svg width="170" height="23" viewBox="0 0 170 23" fill="none" xmlns="http://www.w3.org/2000/svg">
<path d="M35.04 0.999999L28.23 22H21.87L17.85 9.22L13.65 22H7.29L0.48 0.999999H6.6L10.83 14.41L15.27 0.999999H20.73L24.96 14.53L29.37 0.999999H35.04ZM42.6272 5.47C45.3272 5.47 47.3872 6.09 48.8072 7.33C50.2272 8.55 50.9372 10.43 50.9372 12.97V22H45.6272V19.9C44.8072 21.48 43.2072 22.27 40.8272 22.27C39.5672 22.27 38.4772 22.05 37.5572 21.61C36.6372 21.17 35.9372 20.58 35.4572 19.84C34.9972 19.08 34.7672 18.22 34.7672 17.26C34.7672 15.72 35.3572 14.53 36.5372 13.69C37.7172 12.83 39.5372 12.4 41.9972 12.4H45.2372C45.1372 10.68 43.9872 9.82 41.7872 9.82C41.0072 9.82 40.2172 9.95 39.4172 10.21C38.6172 10.45 37.9372 10.79 37.3772 11.23L35.4572 7.36C36.3572 6.76 37.4472 6.3 38.7272 5.98C40.0272 5.64 41.3272 5.47 42.6272 5.47ZM42.4172 18.67C43.0772 18.67 43.6572 18.51 44.1572 18.19C44.6572 17.87 45.0172 17.4 45.2372 16.78V15.37H42.7772C41.1172 15.37 40.2872 15.92 40.2872 17.02C40.2872 17.52 40.4772 17.92 40.8572 18.22C41.2372 18.52 41.7572 18.67 42.4172 18.67ZM59.9651 7.69C60.5451 6.95 61.2951 6.4 62.2151 6.04C63.1551 5.66 64.2251 5.47 65.4251 5.47V10.6C64.9051 10.54 64.4751 10.51 64.1351 10.51C62.9151 10.51 61.9551 10.84 61.2551 11.5C60.5751 12.16 60.2351 13.17 60.2351 14.53V22H54.5351V5.74H59.9651V7.69ZM88.9573 5.47C90.9573 5.47 92.5473 6.07 93.7273 7.27C94.9273 8.47 95.5273 10.28 95.5273 12.7V22H89.8273V13.63C89.8273 12.49 89.6073 11.65 89.1673 11.11C88.7473 10.57 88.1473 10.3 87.3673 10.3C86.5073 10.3 85.8173 10.6 85.2973 11.2C84.7773 11.8 84.5173 12.71 84.5173 13.93V22H78.8173V13.63C78.8173 11.41 77.9973 10.3 76.3573 10.3C75.4773 10.3 74.7773 10.6 74.2573 11.2C73.7373 11.8 73.4773 12.71 73.4773 13.93V22H67.7773V5.74H73.2073V7.45C73.8073 6.79 74.5173 6.3 75.3373 5.98C76.1773 5.64 77.0873 5.47 78.0673 5.47C79.2073 5.47 80.2273 5.68 81.1273 6.1C82.0273 6.52 82.7573 7.16 83.3173 8.02C83.9573 7.2 84.7673 6.57 85.7473 6.13C86.7273 5.69 87.7973 5.47 88.9573 5.47ZM109.865 22.42C107.665 22.42 105.685 21.96 103.925 21.04C102.185 20.1 100.815 18.8 99.8149 17.14C98.8149 15.48 98.3149 13.6 98.3149 11.5C98.3149 9.4 98.8149 7.52 99.8149 5.86C100.815 4.2 102.185 2.91 103.925 1.99C105.685 1.05 107.665 0.579999 109.865 0.579999C111.785 0.579999 113.515 0.919999 115.055 1.6C116.595 2.28 117.875 3.26 118.895 4.54L115.115 7.96C113.755 6.32 112.105 5.5 110.165 5.5C109.025 5.5 108.005 5.75 107.105 6.25C106.225 6.75 105.535 7.46 105.035 8.38C104.555 9.28 104.315 10.32 104.315 11.5C104.315 12.68 104.555 13.73 105.035 14.65C105.535 15.55 106.225 16.25 107.105 16.75C108.005 17.25 109.025 17.5 110.165 17.5C112.105 17.5 113.755 16.68 115.115 15.04L118.895 18.46C117.875 19.74 116.595 20.72 115.055 21.4C113.515 22.08 111.785 22.42 109.865 22.42ZM128.145 5.47C130.845 5.47 132.905 6.09 134.325 7.33C135.745 8.55 136.455 10.43 136.455 12.97V22H131.145V19.9C130.325 21.48 128.725 22.27 126.345 22.27C125.085 22.27 123.995 22.05 123.075 21.61C122.155 21.17 121.455 20.58 120.975 19.84C120.515 19.08 120.285 18.22 120.285 17.26C120.285 15.72 120.875 14.53 122.055 13.69C123.235 12.83 125.055 12.4 127.515 12.4H130.755C130.655 10.68 129.505 9.82 127.305 9.82C126.525 9.82 125.735 9.95 124.935 10.21C124.135 10.45 123.455 10.79 122.895 11.23L120.975 7.36C121.875 6.76 122.965 6.3 124.245 5.98C125.545 5.64 126.845 5.47 128.145 5.47ZM127.935 18.67C128.595 18.67 129.175 18.51 129.675 18.19C130.175 17.87 130.535 17.4 130.755 16.78V15.37H128.295C126.635 15.37 125.805 15.92 125.805 17.02C125.805 17.52 125.995 17.92 126.375 18.22C126.755 18.52 127.275 18.67 127.935 18.67ZM145.483 7.69C146.063 6.95 146.813 6.4 147.733 6.04C148.673 5.66 149.743 5.47 150.943 5.47V10.6C150.423 10.54 149.993 10.51 149.653 10.51C148.433 10.51 147.473 10.84 146.773 11.5C146.093 12.16 145.753 13.17 145.753 14.53V22H140.053V5.74H145.483V7.69ZM169.768 13.9C169.768 13.94 169.738 14.41 169.678 15.31H157.858C158.098 16.15 158.558 16.8 159.238 17.26C159.938 17.7 160.808 17.92 161.848 17.92C162.628 17.92 163.298 17.81 163.858 17.59C164.438 17.37 165.018 17.01 165.598 16.51L168.598 19.63C167.018 21.39 164.708 22.27 161.668 22.27C159.768 22.27 158.098 21.91 156.658 21.19C155.218 20.47 154.098 19.47 153.298 18.19C152.518 16.91 152.128 15.46 152.128 13.84C152.128 12.24 152.508 10.81 153.268 9.55C154.048 8.27 155.118 7.27 156.478 6.55C157.838 5.83 159.368 5.47 161.068 5.47C162.688 5.47 164.158 5.81 165.478 6.49C166.798 7.15 167.838 8.12 168.598 9.4C169.378 10.66 169.768 12.16 169.768 13.9ZM161.098 9.52C160.218 9.52 159.478 9.77 158.878 10.27C158.298 10.77 157.928 11.45 157.768 12.31H164.428C164.268 11.45 163.888 10.77 163.288 10.27C162.708 9.77 161.978 9.52 161.098 9.52Z" fill="url(#paint0_linear)"/>
<defs>
<linearGradient id="paint0_linear" x1="16" y1="7.00001" x2="159" y2="66" gradientUnits="userSpaceOnUse">
<stop stop-color="#FF4D00"/>
<stop offset="1" stop-color="#FFC700"/>
</linearGradient>
</defs>
</svg>
