<svg width="62" height="54" viewBox="0 0 62 54" fill="none" xmlns="http://www.w3.org/2000/svg">
<path d="M19.7827 35.6775H52.3941C53.1974 35.6775 53.9048 35.1542 54.1206 34.3812L61.3143 9.40696C61.4702 8.8718 61.3623 8.28907 61.0266 7.83715C60.6909 7.38524 60.1513 7.12361 59.5878 7.12361H15.6343L14.3514 1.37953C14.1596 0.582732 13.4282 0 12.589 0H1.79843C0.803297 0 0 0.796797 0 1.78387C0 2.77095 0.803297 3.56775 1.79843 3.56775H11.1502C11.378 4.5905 17.3009 31.0275 17.6486 32.5498C15.7422 33.3703 14.3994 35.2612 14.3994 37.4614C14.3994 40.4107 16.8213 42.813 19.7947 42.813H52.4061C53.4013 42.813 54.2046 42.0162 54.2046 41.0291C54.2046 40.042 53.4013 39.2452 52.4061 39.2452H19.7827C18.7876 39.2452 17.9843 38.4484 17.9843 37.4614C17.9843 36.4743 18.7876 35.6775 19.7827 35.6775ZM57.2019 10.7032L51.0393 32.1097H21.2214L16.4256 10.7032H57.2019Z" fill="#494949"/>
<path d="M17.9843 48.1647C17.9843 51.1141 20.4062 53.5164 23.3796 53.5164C26.353 53.5164 28.7749 51.1141 28.7749 48.1647C28.7749 45.2154 26.353 42.8131 23.3796 42.8131C20.4062 42.8131 17.9843 45.2154 17.9843 48.1647ZM23.3796 46.3809C24.3747 46.3809 25.178 47.1777 25.178 48.1647C25.178 49.1518 24.3747 49.9486 23.3796 49.9486C22.3845 49.9486 21.5812 49.1518 21.5812 48.1647C21.5812 47.1777 22.3845 46.3809 23.3796 46.3809Z" fill="#494949"/>
<path d="M43.402 48.1647C43.402 51.1141 45.8239 53.5164 48.7973 53.5164C51.7707 53.5164 54.1926 51.1141 54.1926 48.1647C54.1926 45.2154 51.7707 42.8131 48.7973 42.8131C45.8239 42.8131 43.402 45.2154 43.402 48.1647ZM48.7973 46.3809C49.7924 46.3809 50.5957 47.1777 50.5957 48.1647C50.5957 49.1518 49.7924 49.9486 48.7973 49.9486C47.8022 49.9486 46.9989 49.1518 46.9989 48.1647C46.9989 47.1777 47.8022 46.3809 48.7973 46.3809Z" fill="#494949"/>
</svg>
