<svg width="38" height="26" viewBox="0 0 38 26" fill="none" xmlns="http://www.w3.org/2000/svg">
<g clip-path="url(#clip0)">
<path d="M30.9372 19.0099C30.0155 19.0099 29.1319 19.3751 28.4708 20.035C27.8098 20.7013 27.4411 21.5727 27.4411 22.5017C27.4411 23.4308 27.8034 24.3021 28.4708 24.9685C29.1383 25.6284 30.0091 25.9936 30.9372 25.9936C32.8314 25.9936 34.376 24.4239 34.376 22.5017C34.3697 20.5796 32.8314 19.0099 30.9372 19.0099ZM30.9372 24.4495C29.8756 24.4495 28.9794 23.5653 28.9794 22.5081C28.9794 21.451 29.8756 20.5668 30.9372 20.5668C31.986 20.5668 32.8314 21.4381 32.8314 22.5081C32.8314 23.5781 31.986 24.4495 30.9372 24.4495ZM31.8271 7.36816C31.6872 7.23361 31.5029 7.16313 31.3122 7.16313H27.3585C26.9326 7.16313 26.5893 7.51552 26.5893 7.93839V14.307C26.5893 14.7363 26.9389 15.0823 27.3585 15.0823H33.6323C34.0582 15.0823 34.4014 14.7299 34.4014 14.307V10.0463C34.4014 9.82849 34.3061 9.61705 34.1472 9.46969L31.8271 7.36816ZM32.8632 13.5382H28.1339V8.71365H31.0134L32.8632 10.3923V13.5382ZM12.122 19.0099C11.2003 19.0099 10.3167 19.3751 9.65564 20.035C8.99456 20.7013 8.62589 21.5727 8.62589 22.5017C8.62589 23.4308 8.98821 24.3021 9.65564 24.9685C10.3231 25.6284 11.1939 25.9936 12.122 25.9936C14.0162 25.9936 15.5608 24.4239 15.5608 22.5017C15.5545 20.5796 14.0162 19.0099 12.122 19.0099ZM12.122 24.4495C11.0604 24.4495 10.1642 23.5653 10.1642 22.5081C10.1642 21.451 11.0604 20.5668 12.122 20.5668C13.1708 20.5668 14.0162 21.4381 14.0162 22.5081C14.0162 23.5781 13.1708 24.4495 12.122 24.4495ZM6.97956 19.9645H5.43493V17.9014C5.43493 17.4722 5.08533 17.1262 4.6658 17.1262C4.24627 17.1262 3.89666 17.4786 3.89666 17.9014V20.7462C3.89666 21.1755 4.24627 21.5214 4.6658 21.5214H6.98592C7.4118 21.5214 7.75505 21.169 7.75505 20.7462C7.75505 20.3233 7.40544 19.9645 6.97956 19.9645ZM10.8888 15.7358C10.8888 15.3066 10.5392 14.9606 10.1197 14.9606H0.775627C0.349743 14.9606 0.00649261 15.313 0.00649261 15.7358C0.00649261 16.1587 0.356099 16.5111 0.775627 16.5111H10.1197C10.5392 16.5111 10.8888 16.1715 10.8888 15.7358ZM2.33297 12.9295L11.677 12.9808C12.1029 12.9808 12.4461 12.6412 12.4525 12.2119C12.4588 11.7762 12.1156 11.4303 11.6897 11.4303L2.34568 11.379C2.33932 11.379 2.33932 11.379 2.33932 11.379C1.91344 11.379 1.57019 11.7186 1.57019 12.1479C1.56383 12.5835 1.91344 12.9295 2.33297 12.9295ZM3.90938 9.40562H13.2534C13.6793 9.40562 14.0225 9.05323 14.0225 8.63036C14.0225 8.20749 13.6729 7.8551 13.2534 7.8551H3.90938C3.48349 7.8551 3.14024 8.20749 3.14024 8.63036C3.14024 9.05323 3.48349 9.40562 3.90938 9.40562ZM37.5543 8.35485L32.0368 3.74815C31.897 3.63282 31.7317 3.56875 31.541 3.56875H25.0574V0.775259C25.0574 0.345983 24.7078 0 24.2883 0H4.65944C4.23356 0 3.89031 0.35239 3.89031 0.775259V6.45835C3.89031 6.88763 4.23991 7.23361 4.65944 7.23361C5.07897 7.23361 5.42858 6.88122 5.42858 6.45835V1.55052H23.5191V19.9645H17.2008C16.7749 19.9645 16.4317 20.3169 16.4317 20.7398C16.4317 21.1626 16.7813 21.515 17.2008 21.515H26.6084C27.0343 21.515 27.3775 21.1626 27.3775 20.7398C27.3775 20.3169 27.0279 19.9645 26.6084 19.9645H25.0574V5.12568H31.274L36.2957 9.32233L36.2448 19.9517H35.4439C35.018 19.9517 34.6748 20.3041 34.6748 20.727C34.6748 21.1498 35.0244 21.5022 35.4439 21.5022H37.0076C37.4335 21.5022 37.7767 21.1626 37.7767 20.7334L37.8403 8.95712C37.8339 8.72647 37.7322 8.50222 37.5543 8.35485Z" fill="white"/>
</g>
<defs>
<clipPath id="clip0">
<rect width="37.8401" height="26" fill="white"/>
</clipPath>
</defs>
</svg>
