<svg width="76" height="41" fill="none" xmlns="http://www.w3.org/2000/svg"><path d="M3.066 38.046c.22.024.507-.236.751-.314.09.001.225-.065.356-.125.069-.085.178-.175.348-.272.02.012.104-.022.183-.053a2.77 2.77 0 0 0 .223-.12l.141-.08c.098-.054.2-.1.301-.146.211-.095.424-.184.62-.276-.09.045-.186.09-.285.133-.212.091-.382.2-.393.282.008.007.022.009.041.008-.048.024-.097.048-.139.074-.02.012-.02.027-.028.04.031-.014.076-.03.091-.04.034-.026.057-.05.083-.075a.334.334 0 0 0 .046-.008c.22-.06.376-.202.587-.3-.134.067-.244.133-.259.176-.024.069.141-.024.243-.058.097-.033.23-.113.304-.115l-.076.034-.099.044-.135.059c.128.03.204 0 .486-.182.165-.077.28-.102.4-.121-.213.125-.364.248-.603.33a.141.141 0 0 0-.041.028c-.002.011-.005.027.014.024.247-.028.544-.123.905-.307.056-.029.069-.043.04-.04-.131.024-.326.155-.485.178l.444-.212c.202-.097.067-.1.158-.166a3.53 3.53 0 0 0 .225-.078c.203-.021.437-.075.774-.223a1.2 1.2 0 0 1 .358-.103.388.388 0 0 0 .214-.097c.13-.096.284-.157.441-.22.252-.102.374-.161.638-.312l.113-.044a2.384 2.384 0 0 0 .248-.135c.232-.096.458-.201.662-.338.013-.009.036-.018.054-.027a.709.709 0 0 0 .086-.03.623.623 0 0 0 .34-.099c.19-.106.386-.194.582-.283.168-.077.313-.153.4-.24a1.05 1.05 0 0 1 .3-.178l1.414-.638c.07-.031.14-.062.206-.085a.136.136 0 0 0-.002.02l.117-.015.224-.14c0-.004 0-.008-.002-.012l.172-.11c-.095.014-.254.085-.3.06l-.004-.003.205-.083c.377-.09.834-.278 1.275-.447l-.002.03.222-.098c.075-.002.253-.112.301-.086.007.02.009.041.075.027h-.005a.212.212 0 0 0 .115-.049c.035-.017.071-.034.107-.048a.6.6 0 0 1 .126-.073l.085-.014c.012-.002.02 0 .03 0a9.133 9.133 0 0 1-1.15.715c-.189.098-.4.193-.469.297h.003c.022.04-.189.163-.126.193.337-.146.667-.295 1.003-.462.389-.192.79-.368 1.186-.548.068-.03.137-.04.206-.06h-.002a.183.183 0 0 0 .107-.048c.08-.07.202-.123.32-.176.296-.133.595-.258.886-.398a3.19 3.19 0 0 1 .454-.188c.389-.12.794-.282 1.216-.487l.24-.109c.316-.152.619-.325.944-.463.101-.076.229-.138.364-.196l.12-.055.056-.028.057-.024a.321.321 0 0 1 .131-.058v-.001l.46-.21c.075-.056.172-.1.27-.145l1.172-.533.12-.053.238-.107a1.4 1.4 0 0 1 .314-.178l1.231-.555c.363-.2.91-.447 1.332-.6l.205-.096c.074-.057.17-.102.27-.146l.586-.264.12-.055.228-.105h.003a.828.828 0 0 1 .268-.12.484.484 0 0 1 .077-.04l.02-.037c.024-.02.05-.038.076-.056a.289.289 0 0 0 .071.007c.55-.238 1.104-.515 1.654-.726.056-.003.134-.04.21-.074a.568.568 0 0 0 .133-.081l-.003.003c.142-.1.35-.151.487-.255l.047-.025.048-.018c.267-.165.59-.249.853-.42l-.006.004c.149-.095.29-.193.484-.271.05-.023.099-.047.146-.074.092-.051.192-.095.284-.146a1.246 1.246 0 0 0 .269-.19v.002c.12-.071.208-.14.304-.21.203-.125.488-.223.645-.364v.001c.304-.175.618-.281.927-.422l.013-.006a.284.284 0 0 0 .048-.015c.07-.028.143-.062.215-.094a.104.104 0 0 0 .011-.031l.007-.004.01-.01.308-.146c-.053-.007-.131.023-.215.06.079-.056.172-.106.268-.153l.196-.09.004-.01a3 3 0 0 0 .132-.069c.362-.177.72-.362 1.087-.535.366-.222.792-.349 1.16-.567l-.003.002c.335-.185.685-.316 1.027-.477a2.2 2.2 0 0 0 .164-.08c.067-.07.118-.045.178-.077a3.44 3.44 0 0 0 .16-.084c.327-.178.659-.328.994-.451.165-.033.358-.148.536-.22a.655.655 0 0 0 .164-.095l-.002.003c.199-.128.446-.196.646-.323l.152-.087c.11-.05.219-.11.319-.148.466-.174.933-.405 1.398-.603l.003-.002c.024-.017.035-.028.035-.035.111-.05.226-.109.329-.132l.006-.006.443-.225a.799.799 0 0 1 .01-.007h.003a.505.505 0 0 0 .09-.017l.012-.005c.135-.042.291-.123.434-.182.149-.06.31-.148.435-.165l.33-.147.004-.002.008-.003.126-.057.009-.002v-.001l1.512-.678c.318-.137.635-.273.952-.407.37-.177.722-.277 1.093-.459.06-.023.12-.048.182-.076l.897-.402.17-.076c.131-.073.262-.12.393-.176.152-.07.305-.136.457-.206a2.6 2.6 0 0 1 .434-.199c.049-.019.099-.039.148-.062.076-.034.152-.067.2-.112l-.003.004c.57-.293 1.151-.523 1.727-.79l.178-.08c.156-.074.305-.166.466-.217a2.09 2.09 0 0 0 .15-.06l.223-.1a.607.607 0 0 0 .125-.077l-.002.002c.385-.221.813-.348 1.196-.573.18-.122.42-.18.598-.304l.042-.024.045-.018c.194-.123.44-.188.629-.317l.043-.023.045-.018c.037-.02.055-.033.056-.04l.003-.002.525-.236a.733.733 0 0 0 .155-.09l-.003.002c.143-.094.309-.15.462-.224a.586.586 0 0 0 .134-.082l-.002.003c.102-.075.265-.121.363-.198.176-.116.379-.18.567-.273a.662.662 0 0 0 .143-.085l-.003.002c.102-.076.267-.121.366-.199l.042-.024.045-.018c.113-.076.277-.126.382-.206.176-.122.421-.18.594-.304.152-.099.325-.157.486-.235.082-.037.168-.073.228-.122.22-.143.5-.212.718-.359l-.001.001c.255-.152.53-.246.795-.374a.637.637 0 0 0 .157-.092l-.003.003c.247-.146.511-.238.766-.36.057-.026.114-.052.17-.08.135-.1.306-.17.473-.246a.596.596 0 0 0 .14-.085l-.003.003c.102-.075.268-.12.363-.199l-.003.002c.071-.051.172-.092.25-.141.067-.049.162-.097.225-.146l-.002.001c.073-.051.162-.09.25-.13a.526.526 0 0 0 .106-.069l-.003.003c.1-.075.27-.12.36-.2.08-.053.187-.096.267-.15.085-.068.243-.118.326-.188.067-.048.173-.09.23-.14a1.07 1.07 0 0 0 .125-.091c.043-.03.083-.06.114-.089a.666.666 0 0 0 .114-.09c.08-.053.057-.077.123-.126l-.001.001c.042-.031.087-.063.11-.09l-.01.006a.203.203 0 0 0 .073-.065c.002-.028-.004-.053.054-.102l-.003.003c.112-.084.03-.098.107-.17-.012-.003-.009-.013.01-.029.141-.119-.031-.116.108-.234l-.001.001c.07-.052.052-.077.11-.126.07-.05.184-.094.24-.146l-.007.006c.05-.032.087-.062.128-.093h.001l.114-.089a.81.81 0 0 0 .112-.09c.077-.052.055-.077.12-.125.042-.03.081-.06.117-.09.043-.03.083-.06.116-.089.072-.05.047-.074.121-.125l.002-.002c.034-.029.08-.06.104-.087.14-.103-.007-.101.114-.198l-.004.003a.675.675 0 0 0 .143-.125 1.77 1.77 0 0 1 .415-.39c.19.071.538-.165.845-.316a1.36 1.36 0 0 0 .38-.236.325.325 0 0 0 .052-.065c.003-.023.014-.048.06-.086l-.002.002c.098-.07.025-.086.13-.158.063-.053.164-.104.246-.156.114-.08.221-.16.316-.237a.956.956 0 0 0 .12-.112l-.003.004c.15-.107-.008-.102.123-.202h-.001c.106-.077.01-.085.11-.16.087-.088.102-.143-.021-.135l.01-.002a.418.418 0 0 0-.12.013h.002c-.068.01-.048-.034-.132-.015l.004.001c-.086-.022-.29.226-.348.137-.454.115-.472.334-.825.476.038-.078.199-.2.162-.255-.042-.064-.157 0-.313.106l-.056.032c-.2.082-.393.18-.584.278a.472.472 0 0 1-.226.016c-.02-.004-.145.068-.21.113-.082.064-.131.117-.145.161-.002.01.007.01.016.007l-.012.006c-.041.02-.063.013-.088.016a1.079 1.079 0 0 0-.136.038c.08-.057.157-.114.172-.152a.927.927 0 0 0 .305-.15l.12-.09c.22-.098.336-.2.465-.3.096-.074.065-.097-.075-.048-.089.031-.188.077-.282.116l.01-.074c.474-.22.474-.22.708-.393-.157.07-.292.132-.426.19-.066.03-.102.032-.052-.008.022-.018.07-.04.107-.06a.669.669 0 0 0 .233-.138h.002a3.07 3.07 0 0 1 .39-.209c.164-.07.303-.156.448-.238.034-.018.069-.035.104-.05.1-.077.268-.123.365-.201l-.002.001c.072-.058.234-.111.273-.172-.22-.024-.507.235-.75.314-.09-.002-.225.065-.356.125a1.205 1.205 0 0 1-.348.271c-.021-.012-.105.023-.183.053a3.017 3.017 0 0 0-.224.12l-.14.08c-.098.054-.2.101-.302.147-.21.095-.424.184-.62.275.09-.044.186-.09.285-.132.212-.092.383-.2.394-.283-.008-.006-.023-.008-.042-.007.048-.025.097-.049.14-.074.02-.012.019-.027.027-.04-.031.013-.076.029-.09.04-.034.026-.058.05-.084.075a.327.327 0 0 0-.046.007c-.22.06-.376.202-.587.3.135-.067.244-.132.26-.175.023-.07-.142.024-.243.058-.097.033-.231.113-.304.114l.076-.034.098-.043.135-.06c-.127-.029-.204 0-.486.182a1.348 1.348 0 0 1-.4.122c.214-.126.365-.249.604-.33a.141.141 0 0 0 .04-.029c.002-.01.005-.026-.014-.024-.247.029-.544.123-.905.308-.056.029-.068.042-.039.039.13-.023.326-.154.485-.177l-.444.212c-.203.096-.068.1-.159.165l-.077.025a3.517 3.517 0 0 0-.148.053 2.508 2.508 0 0 0-.773.224 1.223 1.223 0 0 1-.359.103.388.388 0 0 0-.214.096c-.129.096-.283.157-.44.22a4.524 4.524 0 0 0-.64.313l-.112.044a2.384 2.384 0 0 0-.247.135 3.8 3.8 0 0 0-.662.337c-.014.01-.036.019-.055.028a.716.716 0 0 0-.085.029.624.624 0 0 0-.34.1c-.19.106-.387.193-.583.283-.167.076-.312.153-.4.24a1.049 1.049 0 0 1-.3.178l-1.414.637c-.07.032-.14.062-.205.085a.137.137 0 0 0 .002-.02l-.118.016-.224.14c0 .004 0 .008.002.011l-.172.11c.095-.013.254-.084.301-.059l.003.003-.205.083c-.377.09-.834.278-1.275.446l.003-.03-.222.099c-.075.002-.253.111-.302.086-.006-.02-.008-.042-.075-.028h.005a.212.212 0 0 0-.115.05 2.02 2.02 0 0 1-.106.048.596.596 0 0 1-.127.073 1.93 1.93 0 0 1-.084.014c-.013.002-.02 0-.031 0a9.132 9.132 0 0 1 1.15-.715c.189-.099.4-.193.47-.297h-.003c-.023-.04.188-.164.125-.193a21.29 21.29 0 0 0-1.003.461c-.389.193-.79.37-1.186.548-.067.03-.137.041-.206.061h.003a.184.184 0 0 0-.108.047h.001c-.08.07-.203.124-.32.177-.296.133-.596.257-.887.398-.165.08-.304.142-.453.188a8.56 8.56 0 0 0-1.217.486l-.239.11c-.317.151-.62.325-.945.462-.1.077-.229.139-.363.197l-.12.055-.057.028-.056.023h-.001a.321.321 0 0 1-.131.059l-.46.21a1.468 1.468 0 0 1-.27.146l-1.172.532-.12.053-.237.108a1.444 1.444 0 0 1-.315.178l-1.23.554c-.364.201-.91.447-1.332.6l-.206.097c-.074.056-.17.101-.269.146l-.586.264-.12.055-.229.105h-.002a.828.828 0 0 1-.268.12.477.477 0 0 1-.078.04 2.75 2.75 0 0 1-.02.036c-.024.02-.049.038-.075.056a.292.292 0 0 0-.072-.006c-.55.238-1.103.514-1.654.726-.055.003-.133.04-.21.074a.568.568 0 0 0-.132.08l.002-.002c-.142.1-.35.15-.486.254l-.048.026-.048.018c-.267.165-.59.248-.852.42l.006-.004c-.15.095-.291.192-.485.27a2.81 2.81 0 0 0-.145.074c-.092.052-.192.096-.284.147a1.267 1.267 0 0 0-.269.19v-.002c-.12.07-.208.14-.305.21-.202.125-.487.222-.645.363-.304.174-.617.28-.926.422a1.772 1.772 0 0 0-.014.006.279.279 0 0 0-.047.015c-.07.027-.144.062-.215.093a.105.105 0 0 0-.012.032l-.007.004-.01.01-.307.146c.052.007.13-.023.214-.06a2.025 2.025 0 0 1-.267.153l-.196.09-.005.009a3 3 0 0 0-.131.07c-.363.176-.721.362-1.087.535-.367.222-.792.348-1.161.567l.003-.003c-.335.186-.684.316-1.026.478-.057.024-.11.05-.164.08-.068.07-.119.045-.179.076a2.674 2.674 0 0 0-.159.085 7.69 7.69 0 0 1-.994.45c-.166.033-.358.149-.536.22a.653.653 0 0 0-.164.095l.002-.002c-.2.128-.446.196-.647.322-.05.03-.1.058-.152.087-.11.05-.218.11-.319.148-.466.175-.932.405-1.397.604l-.004.002c-.023.016-.035.028-.034.035-.112.049-.227.109-.33.131l-.006.006a618.106 618.106 0 0 0-.452.232h-.003c.002 0 .003 0 .005-.002a.443.443 0 0 0-.096.02l-.012.005c-.135.041-.29.123-.434.181-.148.061-.309.149-.435.166l-.33.146-.004.003-.008.002a6.656 6.656 0 0 0-.126.057l-.008.003-1.513.678c-.317.138-.634.273-.952.408-.369.177-.721.277-1.092.459a3.37 3.37 0 0 0-.183.075l-.896.402-.17.077c-.132.073-.263.12-.394.176l-.457.205a2.59 2.59 0 0 1-.434.2 2.575 2.575 0 0 0-.148.061c-.075.034-.152.068-.2.112l.003-.003c-.57.292-1.15.522-1.726.79l-.178.08c-.156.073-.306.166-.466.217-.05.017-.099.037-.15.06l-.223.1a.605.605 0 0 0-.126.077l.002-.003c-.384.222-.813.349-1.196.574-.179.121-.42.18-.598.304l-.042.023-.044.019c-.194.123-.44.187-.63.316l-.042.024-.045.018c-.038.02-.055.032-.057.04l-.002.002-.525.235a.735.735 0 0 0-.155.09l.002-.002c-.143.095-.308.15-.462.225a.59.59 0 0 0-.134.082l.003-.003c-.102.075-.265.12-.363.198-.177.115-.38.18-.567.273a.666.666 0 0 0-.144.085l.003-.002c-.102.076-.267.12-.365.199l-.042.024-.045.018c-.114.076-.278.125-.383.206-.176.121-.421.18-.594.304-.151.099-.324.156-.486.235-.082.037-.167.073-.227.122-.221.142-.5.212-.719.358h.002c-.256.151-.531.245-.795.374a.633.633 0 0 0-.157.091l.002-.002c-.246.145-.51.237-.765.36a4.693 4.693 0 0 0-.17.08c-.135.1-.307.17-.473.245a.598.598 0 0 0-.14.085l.002-.003c-.102.075-.267.121-.362.2l.003-.002c-.072.05-.173.092-.251.14-.067.05-.161.098-.225.147l.002-.002c-.072.052-.162.09-.249.13a.52.52 0 0 0-.107.07l.003-.003c-.1.075-.27.12-.36.2-.08.052-.186.096-.266.149-.085.069-.243.119-.326.188-.068.048-.173.09-.231.14a1.14 1.14 0 0 0-.124.092 1.2 1.2 0 0 0-.114.088.665.665 0 0 0-.115.091c-.079.052-.056.077-.122.125-.041.03-.087.063-.11.09l.01-.006a.202.202 0 0 0-.072.064c-.002.029.004.053-.054.103l.003-.003c-.113.084-.03.097-.108.169.012.004.01.013-.009.03-.142.119.03.116-.108.234l.001-.001c-.071.052-.052.077-.111.125-.069.05-.183.094-.238.146l.006-.005c-.051.032-.088.062-.128.092l-.001.001-.114.088c-.042.031-.087.063-.113.091-.076.052-.055.076-.12.124h.001a2.18 2.18 0 0 0-.117.09c-.043.03-.083.06-.116.09-.073.05-.047.073-.122.124l-.002.003c-.034.028-.079.06-.103.087-.14.103.007.1-.114.197l.004-.003a.675.675 0 0 0-.144.126 1.776 1.776 0 0 1-.414.39c-.19-.072-.539.164-.845.315a1.369 1.369 0 0 0-.38.236.322.322 0 0 0-.053.065c-.003.023-.013.049-.06.087l.003-.002c-.098.07-.025.085-.131.158-.063.053-.163.104-.245.155-.115.08-.222.16-.317.238a.955.955 0 0 0-.12.112l.004-.005c-.15.108.008.102-.123.203l.001-.001c-.106.078-.01.085-.11.161-.087.088-.103.143.02.135l-.009.001a.414.414 0 0 0 .12-.012h-.002c.068-.01.048.034.131.015l-.004-.002c.087.023.291-.226.349-.136.453-.115.472-.334.824-.476-.038.077-.198.2-.162.255.043.063.158 0 .314-.107l.056-.03c.2-.084.392-.18.584-.28a.472.472 0 0 1 .225-.016c.02.005.146-.068.21-.112.083-.064.132-.118.145-.162.002-.009-.006-.009-.016-.006l.013-.006c.041-.02.063-.014.088-.016.042-.008.088-.022.135-.038-.08.057-.156.113-.171.152a.925.925 0 0 0-.305.15l-.12.09c-.22.097-.336.2-.465.299-.096.075-.065.097.074.048.09-.03.188-.076.283-.115l-.01.074c-.475.22-.475.22-.708.393.157-.07.291-.132.426-.19.066-.03.101-.032.051.008-.022.017-.07.04-.107.06a.676.676 0 0 0-.233.137l-.001.002a3.075 3.075 0 0 1-.39.208c-.165.07-.304.156-.449.238a1.325 1.325 0 0 1-.103.05c-.1.077-.269.123-.365.2h.002c-.073.058-.234.11-.274.172zM71.898 3.65a.98.98 0 0 0 .007-.005h.005l-.012.005zM11.792 34.494a.021.021 0 0 0-.011.004l.094-.048a4.08 4.08 0 0 1-.083.044zM71.542 3.85l.007-.002-.007.002-.006.002h-.022a.202.202 0 0 1 .028-.002zm-5.73 1.753l.01-.004c-.03.015-.061.03-.094.048l.083-.044zM6.053 36.248l.008-.001c.002 0 .004-.002.005-.003l.022.001a.193.193 0 0 1-.027.002l-.008.001zm-.349.198l-.007.006h-.005a.61.61 0 0 0 .012-.006z" fill="#D33E3E"/><path d="M.593 3.065c.117.188.498.254.71.398.054.072.19.137.317.204.11.001.248.032.429.107.003.024.081.068.154.11.078.04.155.073.232.103l.15.062c.103.044.202.095.3.147.205.108.407.22.6.32a5.838 5.838 0 0 1-.28-.144c-.203-.11-.394-.178-.465-.136 0 .01.007.023.02.037-.05-.023-.099-.046-.145-.064-.021-.008-.033.002-.049.003.03.016.07.042.089.046.04.011.074.015.11.02.008.01.02.02.033.032.184.137.391.172.599.277-.136-.064-.255-.11-.298-.095-.07.023.106.096.195.155.085.056.23.112.277.17l-.074-.04a41.214 41.214 0 0 0-.094-.05l-.13-.07c.055.118.125.16.442.27.163.083.253.157.343.241-.231-.091-.421-.134-.633-.272a.141.141 0 0 0-.047-.015c-.01.005-.024.012-.01.026.175.177.432.353.8.524.057.026.075.027.054.006-.098-.088-.322-.16-.438-.272l.44.22c.202.099.121-.01.229.022l.067.046c.042.028.087.056.133.083.142.147.328.299.652.472.126.068.24.15.302.22.05.054.121.089.208.108.155.043.298.127.445.212.235.136.357.196.639.311l.104.062a2.385 2.385 0 0 0 .259.112c.218.123.44.237.673.314.016.005.037.017.055.026a.712.712 0 0 0 .076.05.624.624 0 0 0 .288.205c.2.085.39.186.582.285.163.085.313.153.435.168.093.012.204.062.325.127.457.24.916.48 1.373.722.068.035.135.072.193.109a.142.142 0 0 0-.016.01l.084.084.248.09a.048.048 0 0 0 .008-.008l.193.068c-.07-.067-.223-.149-.232-.202v-.003l.191.11c.303.242.733.486 1.137.73l-.025.016.215.115c.047.057.243.13.253.184-.012.017-.028.032.024.076l-.003-.003c.025.027.06.047.11.06.036.017.07.035.104.054a.6.6 0 0 1 .135.054l.063.058c.01.01.013.017.019.025a9.13 9.13 0 0 1-1.272-.467c-.193-.088-.398-.196-.523-.186l.002.002c-.018.042-.245-.048-.229.02.322.175.643.343.98.506.392.188.778.395 1.163.597.066.035.117.083.175.125l-.003-.001a.183.183 0 0 0 .105.055h-.001c.104.02.222.082.337.143.286.151.569.31.859.453.164.08.299.152.427.242.334.232.711.453 1.132.659l.234.121c.314.156.637.288.946.46.122.032.25.095.379.165l.117.061.057.027.053.03v.001a.32.32 0 0 1 .127.067h.001l.448.233c.09.025.185.073.281.123.38.2.761.397 1.141.596l.116.062.231.12c.103.024.216.077.334.139l1.194.629c.382.162.913.44 1.294.68l.202.102c.09.023.184.071.28.122l.57.3.117.06c.074.04.149.078.223.116l.002.002c.102.031.185.08.26.137a.55.55 0 0 1 .078.037l.042-.007c.03.007.06.015.09.025a.292.292 0 0 0 .039.06c.527.287 1.085.553 1.59.857.037.041.114.08.188.12a.57.57 0 0 0 .145.054h-.003c.166.05.334.182.5.226l.049.022.044.027c.294.109.559.312.855.413l-.006-.002c.166.06.33.11.512.215.049.025.098.049.147.07.097.04.194.092.29.133a1.256 1.256 0 0 0 .314.095v.001c.13.05.239.078.353.111.223.083.476.247.683.284v.001c.325.132.602.313.903.47l.013.007a.276.276 0 0 0 .041.028c.065.038.137.075.206.112a.106.106 0 0 0 .032-.01l.008.002.014.003c.101.05.203.1.304.152-.026-.046-.099-.09-.18-.132.093.027.19.07.286.116l.192.1.01-.003c.045.022.09.043.135.061.363.177.73.345 1.092.527.4.152.762.41 1.161.566l-.004-.001c.352.15.67.345 1.008.515.054.029.108.055.164.08.097.01.109.065.17.093.055.027.11.051.165.073.342.15.664.319.967.506.128.11.338.191.503.288a.655.655 0 0 0 .176.07h-.003c.223.079.43.231.652.311l.162.066c.108.056.222.105.313.16.425.26.894.486 1.336.73l.004.001c.028.01.044.011.049.006.107.058.225.112.306.179l.009.001.45.21.011.004.002.002-.005-.003a.441.441 0 0 0 .074.064l.012.006c.116.081.276.154.41.23.14.08.308.153.398.241l.32.17.003.002.007.005.123.064.007.005 1.466.774c.304.165.606.332.907.5.367.181.663.398 1.034.578.055.033.112.066.172.097l.869.459c.055.03.11.058.166.087.137.058.255.133.38.202l.443.233c.149.066.296.131.424.22.045.026.092.053.14.078a.815.815 0 0 0 .212.09l-.005-.002c.581.27 1.12.586 1.686.874l.172.092c.154.077.319.138.458.233.044.028.09.055.139.081l.217.115a.6.6 0 0 0 .137.051h-.003c.411.167.775.427 1.189.59.206.066.4.22.607.284l.045.018.042.024c.216.077.419.231.636.3l.045.02.042.024c.039.018.06.024.067.02l.003.001.509.269c.06.032.115.054.166.066h-.003c.162.054.307.15.461.226a.594.594 0 0 0 .147.055h-.004c.122.034.259.134.38.164.2.068.375.188.564.279.057.03.109.05.156.06h-.004c.123.033.26.135.381.165l.045.018.042.024c.13.043.27.142.398.175.204.064.401.221.606.28.17.06.322.16.484.24.08.041.16.086.236.103.248.087.475.264.725.346h-.002c.277.107.521.266.784.395a.636.636 0 0 0 .17.067h-.004c.267.105.502.257.755.382.055.03.111.057.168.085.162.044.323.136.484.22.057.03.108.05.153.059h-.003c.122.034.26.136.38.163l-.004-.001c.085.024.18.079.266.11.08.023.176.067.254.088l-.003-.001c.085.025.17.072.256.116a.526.526 0 0 0 .12.042h-.004c.12.032.261.137.38.16.09.03.19.087.28.118.108.025.245.118.35.14.08.024.178.081.253.097.055.02.103.031.148.04.05.016.099.03.14.036a.673.673 0 0 0 .143.035c.089.03.094-.003.173.019.05.014.103.03.139.031l-.012-.004a.203.203 0 0 0 .096.017c.023-.015.04-.036.114-.02h-.004c.135.037.095-.037.2-.02-.005-.012.004-.016.028-.011.181.038.073-.096.252-.059h-.002c.085.024.092-.006.167.01.082.024.187.086.262.098l-.008-.002c.056.021.102.031.151.044h.002c.047.013.094.026.14.036.05.014.102.03.14.033.088.029.094-.003.172.018h-.001c.05.014.098.027.143.037.05.015.1.028.142.036.085.026.087-.008.174.019h.002c.044.01.096.025.133.028.167.047.075-.068.226-.032l-.005-.001c.075.022.14.036.187.035.138-.006.313.017.563.087.06.194.46.323.768.472a1.36 1.36 0 0 0 .42.154.32.32 0 0 0 .084.001c.02-.012.047-.02.105-.006h-.003c.115.033.083-.034.205.005.08.017.182.065.273.098.134.04.263.076.383.103a.957.957 0 0 0 .161.025h-.005c.177.053.075-.069.235-.027h-.001c.127.035.074-.045.195-.013.122.015.175-.007.093-.1l.007.007a.412.412 0 0 0-.084-.086l.001.002c-.05-.048-.002-.06-.068-.114v.005c-.035-.082-.356-.09-.321-.191-.37-.287-.554-.166-.883-.357.085-.017.28.034.3-.029.025-.072-.096-.124-.276-.182l-.06-.024a7.869 7.869 0 0 0-.578-.29.473.473 0 0 1-.152-.167c-.009-.019-.143-.073-.218-.096-.101-.026-.174-.031-.217-.015-.008.004-.002.01.005.017l-.012-.007c-.041-.02-.05-.04-.067-.059a1.08 1.08 0 0 0-.113-.084c.094.028.185.054.225.042.088.066.19.115.306.148l.145.04c.212.113.364.142.522.181.118.03.117-.008-.008-.088-.08-.051-.176-.1-.265-.151l.064-.038c.466.238.466.238.746.316-.152-.08-.283-.148-.412-.218-.064-.035-.088-.06-.025-.046.027.006.075.03.113.047a.675.675 0 0 0 .252.1h.001c.134.05.268.103.405.179.156.087.31.143.463.206a2 2 0 0 1 .104.051c.122.032.262.136.383.164h-.003c.091.02.232.115.305.109-.117-.188-.498-.255-.71-.399-.054-.071-.19-.137-.317-.203a1.206 1.206 0 0 1-.429-.107c-.003-.024-.081-.068-.154-.111a3.044 3.044 0 0 0-.232-.103l-.15-.061a4.07 4.07 0 0 1-.301-.147c-.205-.109-.406-.221-.599-.32.09.044.186.091.28.143.203.111.393.179.465.137 0-.01-.007-.023-.02-.037.05.022.098.046.144.064.022.008.033-.002.05-.004-.03-.016-.07-.041-.089-.046-.04-.01-.075-.014-.11-.02a.324.324 0 0 0-.034-.031c-.183-.137-.39-.172-.598-.278.136.064.255.11.298.096.07-.024-.106-.096-.195-.155-.086-.056-.231-.113-.277-.17l.073.04.095.05.13.07c-.056-.118-.125-.161-.442-.27a1.345 1.345 0 0 1-.343-.242c.23.092.42.135.632.273a.14.14 0 0 0 .048.015c.01-.006.023-.013.01-.027-.175-.177-.432-.352-.8-.523-.057-.027-.075-.028-.055-.007.099.088.322.162.439.273l-.441-.22c-.2-.1-.12.009-.228-.023l-.067-.045a3.66 3.66 0 0 0-.133-.084 2.508 2.508 0 0 0-.652-.472 1.205 1.205 0 0 1-.303-.219.388.388 0 0 0-.207-.109c-.155-.043-.298-.127-.446-.212a4.352 4.352 0 0 0-.638-.31l-.104-.062a2.389 2.389 0 0 0-.259-.112 3.806 3.806 0 0 0-.673-.314c-.016-.005-.037-.017-.056-.026a.697.697 0 0 0-.075-.05.625.625 0 0 0-.288-.206c-.201-.084-.391-.185-.582-.285-.163-.085-.313-.152-.436-.167a1.05 1.05 0 0 1-.325-.127l-1.372-.722a2.745 2.745 0 0 1-.194-.11.14.14 0 0 0 .017-.01 66.768 66.768 0 0 0-.084-.083l-.248-.09a.046.046 0 0 0-.008.008l-.193-.068c.07.067.223.148.232.201v.004a17.198 17.198 0 0 0-.192-.11c-.302-.242-.733-.486-1.137-.73l.026-.017-.215-.114c-.047-.058-.243-.13-.253-.185.011-.017.028-.032-.025-.076l.003.004a.213.213 0 0 0-.11-.06 1.51 1.51 0 0 1-.103-.054.601.601 0 0 1-.135-.055 2.026 2.026 0 0 1-.063-.058c-.01-.009-.013-.016-.019-.024.38.104.843.273 1.271.466.194.088.399.196.523.187l-.001-.002c.017-.043.245.048.229-.02a21.194 21.194 0 0 0-.981-.506c-.391-.188-.777-.396-1.163-.598-.065-.034-.116-.082-.174-.125l.002.002a.183.183 0 0 0-.103-.055c-.105-.02-.223-.083-.337-.143-.286-.152-.57-.311-.86-.454a3.168 3.168 0 0 1-.426-.241 8.574 8.574 0 0 0-1.133-.66l-.233-.12c-.314-.157-.637-.289-.946-.46a1.793 1.793 0 0 1-.38-.166l-.116-.06-.057-.028-.054-.03a.323.323 0 0 1-.127-.068l-.448-.233a1.468 1.468 0 0 1-.282-.123l-1.14-.595-.116-.062-.231-.121a1.444 1.444 0 0 1-.334-.138l-1.195-.629a10.456 10.456 0 0 1-1.293-.68l-.202-.102a1.383 1.383 0 0 1-.28-.122l-.57-.3-.117-.061-.223-.116-.002-.002a.824.824 0 0 1-.26-.136.49.49 0 0 1-.078-.037l-.042.007a1.225 1.225 0 0 1-.09-.025.29.29 0 0 0-.04-.06c-.526-.288-1.084-.553-1.59-.857-.036-.042-.113-.08-.188-.12a.57.57 0 0 0-.145-.055h.004c-.166-.05-.334-.182-.5-.226l-.049-.022-.044-.027c-.295-.108-.559-.311-.856-.413l.007.003c-.167-.06-.331-.111-.512-.215a2.007 2.007 0 0 0-.147-.07c-.098-.04-.194-.092-.29-.134a1.256 1.256 0 0 0-.314-.095c-.13-.051-.239-.078-.353-.112-.224-.082-.476-.246-.684-.284-.324-.132-.601-.314-.902-.47l-.013-.007a.276.276 0 0 0-.042-.029c-.064-.038-.137-.074-.206-.111a.106.106 0 0 0-.032.01l-.007-.003-.014-.002-.305-.152a.5.5 0 0 0 .18.132 2.011 2.011 0 0 1-.285-.116l-.192-.1-.01.002a3.01 3.01 0 0 0-.135-.06c-.363-.177-.73-.345-1.092-.528-.4-.152-.762-.409-1.161-.566l.004.002c-.353-.15-.67-.345-1.008-.515a2.199 2.199 0 0 0-.165-.08c-.096-.01-.108-.066-.17-.094a2.765 2.765 0 0 0-.164-.073 7.613 7.613 0 0 1-.968-.506c-.127-.11-.337-.19-.503-.287a.655.655 0 0 0-.175-.07h.003c-.224-.079-.43-.232-.652-.312a11.504 11.504 0 0 1-.162-.066c-.108-.055-.222-.104-.313-.16-.425-.26-.894-.485-1.337-.73h-.003c-.028-.01-.044-.012-.05-.007-.106-.058-.224-.112-.305-.178l-.01-.002-.449-.21c-.004 0-.008-.002-.011-.003l-.003-.003.006.003a.45.45 0 0 0-.074-.063l-.012-.007c-.116-.08-.276-.153-.41-.23-.14-.08-.308-.152-.398-.24l-.32-.171-.004-.002a5.874 5.874 0 0 0-.13-.069l-.006-.004h-.001l-1.465-.774c-.304-.166-.606-.333-.907-.5-.367-.182-.663-.398-1.034-.578a3.216 3.216 0 0 0-.172-.097l-.87-.46-.165-.087c-.138-.058-.255-.132-.38-.201l-.443-.233a2.598 2.598 0 0 1-.424-.22 2.541 2.541 0 0 0-.14-.079c-.074-.038-.147-.078-.212-.089l.005.001c-.582-.27-1.12-.585-1.686-.874l-.173-.091c-.153-.078-.318-.139-.457-.234a2.04 2.04 0 0 0-.14-.08 23.319 23.319 0 0 0-.216-.115.603.603 0 0 0-.138-.052h.003c-.41-.166-.775-.426-1.188-.589-.206-.066-.401-.22-.608-.284l-.044-.018-.042-.025c-.216-.076-.419-.23-.636-.3l-.046-.02-.042-.024c-.038-.018-.06-.023-.066-.02h-.003l-.509-.27a.734.734 0 0 0-.166-.066h.003c-.162-.054-.308-.15-.462-.225a.59.59 0 0 0-.146-.056l.003.001c-.122-.034-.258-.135-.38-.164h.001c-.2-.068-.375-.188-.564-.279a.663.663 0 0 0-.156-.06h.004c-.123-.033-.26-.136-.382-.165l-.045-.018-.042-.025c-.13-.042-.27-.141-.397-.174-.205-.064-.401-.222-.606-.281-.17-.059-.323-.16-.484-.239-.08-.042-.16-.087-.236-.104-.249-.086-.476-.263-.725-.345h.002c-.278-.107-.521-.267-.785-.396a.635.635 0 0 0-.168-.067h.003c-.267-.104-.502-.256-.755-.381a4.69 4.69 0 0 0-.168-.085c-.162-.044-.323-.136-.484-.221a.594.594 0 0 0-.154-.058h.004c-.122-.034-.26-.137-.38-.163h.003c-.084-.024-.179-.078-.265-.11-.08-.022-.176-.067-.254-.087h.003c-.085-.025-.17-.072-.256-.116a.524.524 0 0 0-.12-.041h.004c-.12-.032-.262-.138-.38-.16-.09-.03-.19-.088-.28-.118-.108-.025-.245-.118-.35-.14-.08-.025-.178-.082-.253-.097a1.146 1.146 0 0 0-.149-.041 1.187 1.187 0 0 0-.14-.036.668.668 0 0 0-.142-.034c-.09-.03-.094.003-.173-.02-.05-.013-.103-.03-.14-.03l.013.004a.203.203 0 0 0-.096-.018c-.024.016-.04.036-.114.02l.004.001c-.135-.037-.095.037-.2.02.005.011-.004.015-.028.01-.181-.038-.073.097-.252.06h.002c-.085-.024-.093.006-.167-.01-.082-.024-.187-.087-.262-.099l.008.002c-.056-.02-.102-.03-.151-.044h-.002l-.14-.036c-.05-.014-.102-.03-.14-.032-.088-.029-.094.003-.172-.018h.001a2.19 2.19 0 0 0-.143-.037 1.465 1.465 0 0 0-.142-.036c-.085-.026-.087.008-.174-.02h-.002c-.044-.009-.096-.025-.133-.028-.167-.046-.075.068-.226.032l.005.002a.676.676 0 0 0-.187-.036 1.775 1.775 0 0 1-.563-.087c-.06-.193-.46-.323-.769-.471a1.359 1.359 0 0 0-.42-.154.321.321 0 0 0-.083-.002c-.02.012-.047.02-.105.007h.003c-.115-.034-.083.033-.206-.006-.08-.016-.182-.065-.273-.097a5.415 5.415 0 0 0-.382-.103.956.956 0 0 0-.161-.026H1.7c-.177-.052-.076.07-.235.028h.001c-.127-.036-.074.044-.195.012-.122-.014-.176.008-.093.1L1.17 2.43a.417.417 0 0 0 .084.087l-.002-.002c.05.048.003.06.07.113l-.002-.004c.036.082.357.09.322.19.37.287.554.167.883.357-.085.018-.28-.033-.3.03-.025.072.096.123.276.181l.059.025c.188.107.383.199.579.29.07.05.123.106.152.166.009.02.143.073.217.097.102.025.174.03.217.015.009-.004.003-.011-.004-.017l.012.006c.04.02.05.041.066.06.033.028.072.056.114.083-.094-.028-.186-.053-.225-.042a.927.927 0 0 0-.307-.147l-.144-.04c-.212-.113-.364-.142-.522-.182-.118-.03-.117.009.007.088.08.052.177.102.266.152l-.065.038c-.465-.239-.465-.239-.745-.317l.412.219c.063.034.087.06.025.046-.027-.006-.075-.03-.113-.047a.676.676 0 0 0-.252-.1h-.002a3.06 3.06 0 0 1-.404-.18c-.156-.086-.31-.142-.464-.206a1.33 1.33 0 0 1-.103-.05c-.122-.033-.262-.137-.383-.165l.003.001c-.091-.02-.233-.116-.305-.11zm69.481 33.064l.01.002.002.004-.012-.006zM8.764 7.754l-.01-.007.096.046a4.205 4.205 0 0 1-.086-.039zm60.934 28.217l.006.005-.006-.005-.005-.003a1.553 1.553 0 0 1-.013-.018.207.207 0 0 1 .018.02zm-4.91-3.436l.01.006-.095-.045.085.039zM3.85 4.313l.006.005a.704.704 0 0 0 .005.003l.013.017a.2.2 0 0 1-.018-.02l-.006-.005zm-.37-.153l-.01-.002c0-.002-.002-.003-.003-.004l.012.006z" fill="#D33E3E"/></svg>