<svg width="47" height="47" viewBox="0 0 47 47" fill="none" xmlns="http://www.w3.org/2000/svg">
<circle cx="23.5" cy="23.5" r="22.5" stroke="white" stroke-width="2"/>
<g clip-path="url(#clip0)">
<path d="M34.9125 25.1165C34.9118 25.1027 34.9105 25.089 34.9085 25.0752L33.7557 17.0536C33.736 16.9171 33.6548 16.7971 33.5354 16.7283C33.416 16.6594 33.2714 16.6492 33.1434 16.7006L27.838 18.8336C27.6077 18.9262 27.4962 19.1878 27.5887 19.418C27.6813 19.6483 27.943 19.7598 28.1731 19.6673L32.9476 17.7477L34.0114 25.1498C34.012 25.1706 34.0141 25.1916 34.0176 25.2125C34.2502 26.5818 33.9955 27.9988 33.3006 29.2024C32.5004 30.5885 31.2067 31.5792 29.6578 31.9919C28.1086 32.4047 26.4895 32.1899 25.0989 31.3871C25.0892 31.3815 25.0794 31.3768 25.0695 31.3721C25.3677 31.1455 25.6481 30.9002 25.9097 30.6377L31.1691 29.2285C31.4088 29.1643 31.551 28.9179 31.4867 28.6783C31.4226 28.4386 31.176 28.2963 30.9365 28.3606L26.8897 29.4449C27.3344 28.7834 27.6823 28.0538 27.92 27.2733L31.5305 26.3059C31.7702 26.2417 31.9124 25.9953 31.8481 25.7557C31.784 25.516 31.5374 25.3738 31.2979 25.438L28.6413 26.1498L29.6403 24.4195L31.7514 23.8538C31.9911 23.7896 32.1334 23.5432 32.0691 23.3036C32.0049 23.0639 31.7584 22.9217 31.5189 22.9859L30.2757 23.319L31.2316 21.6633C31.3557 21.4483 31.2821 21.1736 31.0672 21.0496C30.8523 20.9255 30.5776 20.9991 30.4535 21.214L29.4976 22.8697L29.1645 21.6265C29.1002 21.3869 28.8538 21.2446 28.6143 21.3088C28.3746 21.373 28.2323 21.6194 28.2966 21.8591L28.8622 23.9702L28.2777 24.9826C28.295 23.5445 27.927 22.1234 27.1895 20.8461C26.2608 19.2376 24.7953 17.9884 23.0609 17.3266C23.0581 17.3254 23.0552 17.3242 23.0523 17.323L21.0195 16.498C20.7894 16.4047 20.5276 16.5154 20.4343 16.7453C20.341 16.9753 20.4517 17.2372 20.6816 17.3305L22.6959 18.148C22.7051 18.1522 22.7144 18.1561 22.7238 18.1597C24.2731 18.7464 25.5828 19.86 26.4114 21.2953C27.3759 22.966 27.6304 24.9134 27.1278 26.7789C26.6642 28.4997 25.6073 29.9603 24.1312 30.9362L23.3772 29.6303L25.0118 23.5301C25.076 23.2904 24.9338 23.0441 24.6941 22.9798C24.4543 22.9156 24.2081 23.0579 24.1439 23.2975L22.7419 28.5299L21.0787 25.649L22.2127 21.417C22.2769 21.1773 22.1347 20.931 21.895 20.8668C21.6552 20.8026 21.409 20.9448 21.3448 21.1845L20.4434 24.5486L19.1322 22.2777L19.8152 19.729C19.8794 19.4893 19.7372 19.243 19.4975 19.1788C19.2577 19.1146 19.0115 19.2568 18.9473 19.4964L18.4969 21.1772L17.2548 19.0258C17.1308 18.8109 16.856 18.7373 16.6411 18.8614C16.4262 18.9854 16.3526 19.2602 16.4767 19.4751L17.7188 21.6264L16.0381 21.1761C15.7983 21.1118 15.5521 21.2541 15.4879 21.4938C15.4236 21.7335 15.5659 21.9798 15.8056 22.044L18.3542 22.727L19.6653 24.9979L16.3013 24.0965C16.0615 24.0323 15.8153 24.1746 15.7511 24.4142C15.6868 24.6539 15.829 24.9002 16.0688 24.9645L20.3007 26.0984L21.9639 28.9793L16.7317 27.5774C16.4919 27.5131 16.2457 27.6554 16.1815 27.895C16.1172 28.1347 16.2594 28.3811 16.4991 28.4453L22.5993 30.0798L23.3532 31.3856C19.9583 33.0776 15.7802 31.8589 13.864 28.54C13.0264 27.0892 12.7195 25.3813 12.9998 23.7308C13.0036 23.7085 13.0057 23.6863 13.006 23.6641L14.2889 14.7361L17.265 15.944C17.4951 16.0374 17.7569 15.9266 17.8502 15.6967C17.9435 15.4667 17.8327 15.2047 17.6028 15.1114L14.0948 13.6876C13.9668 13.6357 13.8219 13.6455 13.7021 13.7143C13.5823 13.7831 13.5008 13.9032 13.4812 14.04L12.1082 23.5937C12.106 23.6089 12.1046 23.6241 12.104 23.6391C11.8058 25.4772 12.1536 27.3747 13.0857 28.9891C14.5866 31.5889 17.3215 33.0431 20.1329 33.043C21.3746 33.043 22.631 32.7583 23.8027 32.1644L24.3549 33.1207C24.4381 33.2648 24.5891 33.3454 24.7444 33.3454C24.8206 33.3454 24.8978 33.326 24.9686 33.2851C25.1835 33.1611 25.2571 32.8863 25.133 32.6715L24.9283 32.3168C25.921 32.8322 27.0037 33.0958 28.0994 33.0958C28.6964 33.0958 29.2973 33.0178 29.8892 32.8601C31.6704 32.3854 33.1583 31.2459 34.0788 29.6516C34.869 28.2831 35.1642 26.6747 34.9125 25.1165Z" fill="white"/>
<path d="M19.4237 15.8885C19.3402 15.805 19.2243 15.7569 19.1061 15.7569C18.9879 15.7569 18.872 15.805 18.7885 15.8885C18.7049 15.9725 18.6568 16.088 18.6568 16.2062C18.6568 16.3248 18.7049 16.4402 18.7885 16.5243C18.872 16.6079 18.9879 16.6559 19.1061 16.6559C19.2242 16.6559 19.3402 16.6078 19.4237 16.5243C19.5077 16.4402 19.5554 16.3243 19.5554 16.2062C19.5554 16.088 19.5077 15.9725 19.4237 15.8885Z" fill="white"/>
<path d="M31.9401 19.8329L31.9374 19.8292C31.7916 19.6285 31.5106 19.5839 31.3099 19.7297C31.1091 19.8755 31.0645 20.1565 31.2103 20.3572L31.213 20.3608C31.301 20.4818 31.438 20.5461 31.577 20.5461C31.6685 20.5461 31.7609 20.5182 31.8406 20.4604C32.0413 20.3146 32.0859 20.0337 31.9401 19.8329Z" fill="white"/>
</g>
<defs>
<clipPath id="clip0">
<rect width="23" height="23" fill="white" transform="translate(12 12)"/>
</clipPath>
</defs>
</svg>
